<svg xmlns="http://www.w3.org/2000/svg" viewBox="0 0 980 382" role="img">
<style>
.axis{stroke:#718096;stroke-width:1}.grid{stroke:#e5eaf0;stroke-width:1}.label{font:12px sans-serif;fill:#5a6675}.title{font:700 18px sans-serif;fill:#20242a}.subtitle{font:12px sans-serif;fill:#5a6675}.panel-title{font:700 13px sans-serif;fill:#20242a}
</style>
<rect width="980" height="382" fill="#ffffff"/>
<text class="title" x="70" y="28">Pitch low-latency outlier: episode 2305</text>
<text class="subtitle" x="70" y="50">Arrival 1 ms; settling not observed; trajectory lag not observed.</text>
<line x1="70" y1="76" x2="94" y2="76" stroke="#48525f" stroke-width="2" stroke-dasharray="6 4"/>
<text class="label" x="100" y="80">commanded target</text>
<line x1="236" y1="76" x2="260" y2="76" stroke="#1769aa" stroke-width="2"/>
<text class="label" x="266" y="80">actual current</text>
<text class="panel-title" x="70" y="96">Pitch position</text>
<line class="grid" x1="70" y1="338.00" x2="956" y2="338.00"/>
<text class="label" x="62" y="342.00" text-anchor="end">-1.6</text>
<line class="grid" x1="70" y1="280.50" x2="956" y2="280.50"/>
<text class="label" x="62" y="284.50" text-anchor="end">7.4</text>
<line class="grid" x1="70" y1="223.00" x2="956" y2="223.00"/>
<text class="label" x="62" y="227.00" text-anchor="end">16.5</text>
<line class="grid" x1="70" y1="165.50" x2="956" y2="165.50"/>
<text class="label" x="62" y="169.50" text-anchor="end">25.5</text>
<line class="grid" x1="70" y1="108.00" x2="956" y2="108.00"/>
<text class="label" x="62" y="112.00" text-anchor="end">34.5</text>
<line class="grid" x1="70.00" y1="108" x2="70.00" y2="338"/>
<text class="label" x="70.00" y="358" text-anchor="middle">-0.37</text>
<line class="grid" x1="217.67" y1="108" x2="217.67" y2="338"/>
<text class="label" x="217.67" y="358" text-anchor="middle">-0.27</text>
<line class="grid" x1="365.33" y1="108" x2="365.33" y2="338"/>
<text class="label" x="365.33" y="358" text-anchor="middle">-0.17</text>
<line class="grid" x1="513.00" y1="108" x2="513.00" y2="338"/>
<text class="label" x="513.00" y="358" text-anchor="middle">-0.07</text>
<line class="grid" x1="660.67" y1="108" x2="660.67" y2="338"/>
<text class="label" x="660.67" y="358" text-anchor="middle">0.03</text>
<line class="grid" x1="808.33" y1="108" x2="808.33" y2="338"/>
<text class="label" x="808.33" y="358" text-anchor="middle">0.12</text>
<line class="grid" x1="956.00" y1="108" x2="956.00" y2="338"/>
<text class="label" x="956.00" y="358" text-anchor="middle">0.22</text>
<line x1="621.18" y1="108" x2="621.18" y2="338" stroke="#5a6675" stroke-width="1.2" opacity="0.55"/>
<text class="label" x="625.18" y="120.00" transform="rotate(-35 625.18 120.00)">start</text>
<line x1="638.61" y1="108" x2="638.61" y2="338" stroke="#5a6675" stroke-width="1.2" opacity="0.55"/>
<text class="label" x="642.61" y="120.00" transform="rotate(-35 642.61 120.00)">final target</text>
<line x1="639.94" y1="108" x2="639.94" y2="338" stroke="#347a3a" stroke-width="1.2" opacity="0.55"/>
<text class="label" x="643.94" y="120.00" transform="rotate(-35 643.94 120.00)">arrive</text>
<line x1="675.09" y1="108" x2="675.09" y2="338" stroke="#9a3412" stroke-width="1.2" opacity="0.55"/>
<text class="label" x="679.09" y="164.00" transform="rotate(-35 679.09 164.00)">next target</text>
<path d="M 99.98,255.44 L 113.96,158.56 L 127.83,156.46 L 142.03,156.46 L 158.39,154.19 L 170.85,258.18 L 187.85,152.17 L 201.21,150.39 L 235.09,148.13 L 248.40,267.30 L 262.04,145.75 L 278.63,143.73 L 291.80,143.73 L 311.26,141.73 L 325.10,278.07 L 337.28,139.47 L 350.94,138.01 L 367.84,138.01 L 385.95,136.43 L 399.13,284.06 L 413.33,134.53 L 425.93,133.06 L 442.48,133.06 L 461.49,131.55 L 472.57,299.68 L 489.32,130.26 L 502.23,130.26 L 518.00,130.26 L 535.47,130.26 L 546.92,130.26 L 565.88,130.26 L 579.00,130.26 L 591.46,130.26 L 608.23,130.26 L 622.00,296.81 L 639.94,130.26 L 654.56,130.26 L 672.56,130.26 L 681.21,130.26 L 696.66,299.42 L 713.91,130.26 L 726.18,130.26 L 742.79,130.26 L 760.80,130.26 L 771.59,310.26 L 788.85,130.26 L 802.16,130.26 L 816.60,130.26 L 834.66,130.26 L 849.42,315.74 L 864.16,130.26 L 876.78,130.26 L 891.80,130.26 L 910.71,130.26 L 926.02,130.26" fill="none" stroke="#48525f" stroke-width="2" stroke-dasharray="6 4"/>
<path d="M 99.98,170.65 L 113.96,168.99 L 127.83,167.63 L 142.03,166.47 L 158.39,165.31 L 170.85,164.10 L 187.85,162.79 L 201.21,161.51 L 235.09,158.66 L 248.40,157.02 L 262.04,155.59 L 278.63,154.25 L 291.80,153.10 L 311.26,151.92 L 325.10,150.65 L 337.28,149.38 L 350.94,148.15 L 367.84,147.11 L 385.95,146.13 L 399.13,145.00 L 413.33,143.84 L 425.93,142.79 L 442.48,141.92 L 461.49,140.93 L 472.57,139.78 L 489.32,138.59 L 502.23,137.64 L 518.00,136.80 L 535.47,135.84 L 546.92,134.86 L 565.88,134.02 L 579.00,133.50 L 591.46,133.15 L 608.23,132.83 L 622.00,132.51 L 639.94,132.25 L 654.56,132.11 L 672.56,132.17 L 681.21,132.34 L 696.66,132.46 L 713.91,132.43 L 726.18,132.37 L 742.79,132.34 L 760.80,132.15 L 771.59,131.79 L 788.85,131.48 L 802.16,131.42 L 816.60,131.45 L 834.66,131.41 L 849.42,131.30 L 864.16,131.21 L 876.78,131.20 L 891.80,131.25 L 910.71,131.25 L 926.02,131.19" fill="none" stroke="#1769aa" stroke-width="2"/>
<line class="axis" x1="70" y1="338" x2="956" y2="338"/>
<line class="axis" x1="70" y1="108" x2="70" y2="338"/>
<text class="label" x="18" y="223.00" transform="rotate(-90 18 223.00)" text-anchor="middle">degrees</text>
<text class="label" x="513.0" y="374" text-anchor="middle">time relative to event (s)</text>
</svg>