<svg xmlns="http://www.w3.org/2000/svg" viewBox="0 0 980 382" role="img">
<style>
.axis{stroke:#718096;stroke-width:1}.grid{stroke:#e5eaf0;stroke-width:1}.label{font:12px sans-serif;fill:#5a6675}.title{font:700 18px sans-serif;fill:#20242a}.subtitle{font:12px sans-serif;fill:#5a6675}.panel-title{font:700 13px sans-serif;fill:#20242a}
</style>
<rect width="980" height="382" fill="#ffffff"/>
<text class="title" x="70" y="28">Yaw low-latency outlier: episode 2580</text>
<text class="subtitle" x="70" y="50">Arrival 1 ms; settling not observed; trajectory lag not observed.</text>
<line x1="70" y1="76" x2="94" y2="76" stroke="#48525f" stroke-width="2" stroke-dasharray="6 4"/>
<text class="label" x="100" y="80">commanded target</text>
<line x1="236" y1="76" x2="260" y2="76" stroke="#c94f2d" stroke-width="2"/>
<text class="label" x="266" y="80">actual current</text>
<text class="panel-title" x="70" y="96">Yaw position</text>
<line class="grid" x1="70" y1="338.00" x2="956" y2="338.00"/>
<text class="label" x="62" y="342.00" text-anchor="end">34.4</text>
<line class="grid" x1="70" y1="280.50" x2="956" y2="280.50"/>
<text class="label" x="62" y="284.50" text-anchor="end">40.6</text>
<line class="grid" x1="70" y1="223.00" x2="956" y2="223.00"/>
<text class="label" x="62" y="227.00" text-anchor="end">46.9</text>
<line class="grid" x1="70" y1="165.50" x2="956" y2="165.50"/>
<text class="label" x="62" y="169.50" text-anchor="end">53.2</text>
<line class="grid" x1="70" y1="108.00" x2="956" y2="108.00"/>
<text class="label" x="62" y="112.00" text-anchor="end">59.4</text>
<line class="grid" x1="70.00" y1="108" x2="70.00" y2="338"/>
<text class="label" x="70.00" y="358" text-anchor="middle">-0.36</text>
<line class="grid" x1="217.67" y1="108" x2="217.67" y2="338"/>
<text class="label" x="217.67" y="358" text-anchor="middle">-0.27</text>
<line class="grid" x1="365.33" y1="108" x2="365.33" y2="338"/>
<text class="label" x="365.33" y="358" text-anchor="middle">-0.17</text>
<line class="grid" x1="513.00" y1="108" x2="513.00" y2="338"/>
<text class="label" x="513.00" y="358" text-anchor="middle">-0.07</text>
<line class="grid" x1="660.67" y1="108" x2="660.67" y2="338"/>
<text class="label" x="660.67" y="358" text-anchor="middle">0.02</text>
<line class="grid" x1="808.33" y1="108" x2="808.33" y2="338"/>
<text class="label" x="808.33" y="358" text-anchor="middle">0.12</text>
<line class="grid" x1="956.00" y1="108" x2="956.00" y2="338"/>
<text class="label" x="956.00" y="358" text-anchor="middle">0.22</text>
<line x1="626.94" y1="108" x2="626.94" y2="338" stroke="#5a6675" stroke-width="1.2" opacity="0.55"/>
<text class="label" x="630.94" y="120.00" transform="rotate(-35 630.94 120.00)">start</text>
<line x1="633.66" y1="108" x2="633.66" y2="338" stroke="#5a6675" stroke-width="1.2" opacity="0.55"/>
<text class="label" x="637.66" y="120.00" transform="rotate(-35 637.66 120.00)">final target</text>
<line x1="634.64" y1="108" x2="634.64" y2="338" stroke="#347a3a" stroke-width="1.2" opacity="0.55"/>
<text class="label" x="638.64" y="120.00" transform="rotate(-35 638.64 120.00)">arrive</text>
<line x1="689.76" y1="108" x2="689.76" y2="338" stroke="#9a3412" stroke-width="1.2" opacity="0.55"/>
<text class="label" x="693.76" y="164.00" transform="rotate(-35 693.76 164.00)">next target</text>
<path d="M 100.53,245.35 L 130.80,168.42 L 177.30,130.26 L 191.51,167.80 L 209.26,167.54 L 239.31,167.21 L 254.68,130.26 L 269.04,166.93 L 298.39,166.60 L 315.11,166.32 L 331.07,142.74 L 346.17,165.91 L 360.64,165.74 L 376.89,165.74 L 390.18,165.41 L 406.29,165.15 L 421.35,165.15 L 437.68,165.15 L 451.10,164.81 L 468.34,164.50 L 486.57,315.74 L 498.36,164.14 L 513.21,163.91 L 527.86,163.91 L 545.61,163.63 L 562.01,163.37 L 574.16,163.37 L 588.77,163.06 L 607.38,163.06 L 620.88,162.74 L 634.64,162.48 L 651.50,162.48 L 681.08,162.17 L 697.09,161.84 L 713.22,161.57 L 728.01,161.57 L 780.50,160.96 L 801.37,130.26 L 823.08,160.36 L 836.90,160.36 L 849.73,160.07 L 879.90,130.26 L 897.79,159.47 L 910.11,159.47 L 925.47,159.23" fill="none" stroke="#48525f" stroke-width="2" stroke-dasharray="6 4"/>
<path d="M 100.53,169.60 L 130.80,170.00 L 177.30,169.53 L 191.51,169.35 L 209.26,168.77 L 239.31,167.68 L 254.68,167.30 L 269.04,166.63 L 298.39,165.44 L 315.11,165.59 L 331.07,165.60 L 346.17,165.55 L 360.64,164.69 L 376.89,164.02 L 390.18,163.34 L 406.29,163.29 L 421.35,162.89 L 437.68,162.51 L 451.10,162.84 L 468.34,163.34 L 486.57,163.75 L 498.36,164.23 L 513.21,165.75 L 527.86,167.25 L 545.61,168.15 L 562.01,168.29 L 574.16,168.36 L 588.77,167.90 L 607.38,166.79 L 620.88,165.37 L 634.64,164.35 L 651.50,163.52 L 681.08,163.21 L 697.09,163.19 L 713.22,163.27 L 728.01,163.50 L 780.50,163.98 L 801.37,163.39 L 823.08,162.00 L 836.90,160.30 L 849.73,158.28 L 879.90,156.25 L 897.79,156.04 L 910.11,156.48 L 925.47,156.83" fill="none" stroke="#c94f2d" stroke-width="2"/>
<line class="axis" x1="70" y1="338" x2="956" y2="338"/>
<line class="axis" x1="70" y1="108" x2="70" y2="338"/>
<text class="label" x="18" y="223.00" transform="rotate(-90 18 223.00)" text-anchor="middle">degrees</text>
<text class="label" x="513.0" y="374" text-anchor="middle">time relative to event (s)</text>
</svg>