<svg xmlns="http://www.w3.org/2000/svg" viewBox="0 0 980 356" role="img">
<style>
.axis{stroke:#718096;stroke-width:1}.grid{stroke:#e5eaf0;stroke-width:1}.label{font:12px sans-serif;fill:#5a6675}.title{font:700 18px sans-serif;fill:#20242a}.subtitle{font:12px sans-serif;fill:#5a6675}.panel-title{font:700 13px sans-serif;fill:#20242a}
</style>
<rect width="980" height="356" fill="#ffffff"/>
<text class="title" x="70" y="28">Yaw large angle movement: 29.02 deg to -0.90 deg (29.92 deg move).</text>
<text class="subtitle" x="70" y="50">Arrival 176 ms; settling 176 ms; trajectory lag 400 ms.</text>
<text class="panel-title" x="70" y="66">Yaw position</text>
<line class="grid" x1="70" y1="308.00" x2="956" y2="308.00"/>
<text class="label" x="62" y="312.00" text-anchor="end">-4.5</text>
<line class="grid" x1="70" y1="250.50" x2="956" y2="250.50"/>
<text class="label" x="62" y="254.50" text-anchor="end">4.8</text>
<line class="grid" x1="70" y1="193.00" x2="956" y2="193.00"/>
<text class="label" x="62" y="197.00" text-anchor="end">14.2</text>
<line class="grid" x1="70" y1="135.50" x2="956" y2="135.50"/>
<text class="label" x="62" y="139.50" text-anchor="end">23.5</text>
<line class="grid" x1="70" y1="78.00" x2="956" y2="78.00"/>
<text class="label" x="62" y="82.00" text-anchor="end">32.9</text>
<line class="grid" x1="70.00" y1="78" x2="70.00" y2="308"/>
<text class="label" x="70.00" y="328" text-anchor="middle">-0.43</text>
<line class="grid" x1="217.67" y1="78" x2="217.67" y2="308"/>
<text class="label" x="217.67" y="328" text-anchor="middle">0.07</text>
<line class="grid" x1="365.33" y1="78" x2="365.33" y2="308"/>
<text class="label" x="365.33" y="328" text-anchor="middle">0.56</text>
<line class="grid" x1="513.00" y1="78" x2="513.00" y2="308"/>
<text class="label" x="513.00" y="328" text-anchor="middle">1.05</text>
<line class="grid" x1="660.67" y1="78" x2="660.67" y2="308"/>
<text class="label" x="660.67" y="328" text-anchor="middle">1.55</text>
<line class="grid" x1="808.33" y1="78" x2="808.33" y2="308"/>
<text class="label" x="808.33" y="328" text-anchor="middle">2.04</text>
<line class="grid" x1="956.00" y1="78" x2="956.00" y2="308"/>
<text class="label" x="956.00" y="328" text-anchor="middle">2.53</text>
<line x1="197.79" y1="78" x2="197.79" y2="308" stroke="#5a6675" stroke-width="1.2" opacity="0.55"/>
<text class="label" x="201.79" y="90" transform="rotate(-35 201.79 90)">start</text>
<line x1="767.44" y1="78" x2="767.44" y2="308" stroke="#5a6675" stroke-width="1.2" opacity="0.55"/>
<text class="label" x="771.44" y="90" transform="rotate(-35 771.44 90)">final target</text>
<line x1="819.98" y1="78" x2="819.98" y2="308" stroke="#347a3a" stroke-width="1.2" opacity="0.55"/>
<text class="label" x="823.98" y="90" transform="rotate(-35 823.98 90)">arrive</text>
<line x1="819.98" y1="78" x2="819.98" y2="308" stroke="#8a5a00" stroke-width="1.2" opacity="0.55"/>
<text class="label" x="823.98" y="90" transform="rotate(-35 823.98 90)">settled</text>
<path d="M 95.08,115.96 L 97.95,122.17 L 101.77,122.17 L 103.97,110.90 L 109.89,117.75 L 113.42,117.75 L 116.49,117.75 L 118.98,123.66 L 122.06,127.15 L 125.00,127.15 L 128.16,126.52 L 131.08,126.52 L 133.63,125.09 L 137.14,125.09 L 139.75,123.58 L 142.70,122.90 L 145.91,122.90 L 148.97,122.90 L 151.58,122.90 L 154.79,122.90 L 158.27,119.73 L 160.77,119.73 L 163.92,119.08 L 167.26,117.98 L 172.65,117.98 L 176.07,117.17 L 179.72,116.83 L 185.05,116.53 L 188.18,116.53 L 190.75,116.47 L 193.75,116.47 L 197.84,101.85 L 199.59,101.85 L 203.58,101.85 L 206.54,101.85 L 208.70,101.85 L 212.33,101.85 L 214.63,101.85 L 217.90,101.85 L 221.48,101.85 L 223.96,101.85 L 226.46,101.85 L 230.31,101.85 L 233.24,101.85 L 235.71,101.85 L 238.69,101.85 L 241.96,101.85 L 244.69,101.85 L 248.40,101.85 L 250.70,101.85 L 253.74,101.85 L 257.80,101.85 L 259.77,101.85 L 262.88,101.85 L 266.13,101.85 L 268.52,101.85 L 272.08,101.85 L 274.93,101.85 L 278.32,101.85 L 280.50,101.85 L 283.83,101.85 L 288.29,101.85 L 289.87,101.85 L 293.13,101.85 L 295.82,101.85 L 298.66,101.85 L 301.54,101.85 L 304.75,101.85 L 307.99,101.85 L 311.76,101.85 L 313.85,101.85 L 316.89,101.85 L 320.78,101.85 L 322.63,101.85 L 327.19,101.85 L 332.81,101.85 L 334.53,101.85 L 337.52,101.85 L 341.00,101.85 L 343.74,101.85 L 346.91,101.85 L 350.22,101.85 L 352.51,101.85 L 356.71,101.85 L 358.48,101.85 L 361.45,101.85 L 364.76,101.85 L 367.61,101.85 L 370.46,101.85 L 373.79,101.85 L 376.41,101.85 L 379.58,101.85 L 383.08,101.85 L 385.56,101.85 L 388.75,101.85 L 391.55,101.85 L 394.64,101.85 L 397.42,101.85 L 400.58,101.85 L 403.59,101.85 L 407.05,101.85 L 410.10,101.85 L 412.35,101.85 L 416.51,101.85 L 418.57,101.85 L 421.48,101.85 L 424.41,101.85 L 427.30,101.85 L 430.60,101.85 L 433.63,101.85 L 436.53,101.85 L 439.77,101.85 L 442.32,101.85 L 446.82,101.85 L 448.24,101.85 L 451.20,101.85 L 454.74,101.85 L 457.86,101.85 L 460.39,101.85 L 463.57,101.85 L 466.36,101.85 L 469.52,101.85 L 472.86,101.85 L 475.35,101.85 L 478.23,101.85 L 481.16,101.85 L 484.45,101.85 L 487.50,101.85 L 490.28,101.85 L 493.47,101.85 L 496.30,101.85 L 499.93,101.85 L 502.58,101.85 L 505.34,101.85 L 508.39,101.85 L 511.54,101.85 L 514.24,101.85 L 517.40,101.85 L 520.33,101.85 L 523.46,101.85 L 529.57,101.85 L 532.56,101.85 L 535.10,101.85 L 538.38,101.85 L 541.14,101.85 L 544.11,101.85 L 547.19,101.85 L 550.10,101.85 L 553.34,101.85 L 556.28,101.85 L 559.32,101.85 L 562.24,101.85 L 565.07,101.85 L 568.12,101.85 L 571.41,101.85 L 574.17,101.85 L 577.13,101.85 L 580.04,101.85 L 583.09,101.85 L 586.24,101.85 L 590.01,101.85 L 592.54,101.85 L 595.12,101.85 L 598.87,101.85 L 601.22,101.85 L 604.43,101.85 L 607.27,101.85 L 610.15,101.85 L 613.11,101.85 L 616.32,101.85 L 619.79,101.85 L 622.25,101.85 L 625.20,101.85 L 628.07,101.85 L 631.15,101.85 L 634.82,101.85 L 637.23,101.85 L 640.12,101.85 L 643.03,101.85 L 646.15,101.85 L 649.53,101.85 L 652.12,101.85 L 655.08,101.85 L 658.19,101.85 L 661.16,101.85 L 665.05,101.85 L 667.17,101.85 L 670.04,101.85 L 673.05,101.85 L 676.09,101.85 L 679.02,101.85 L 681.98,101.85 L 685.08,101.85 L 687.95,101.85 L 690.97,101.85 L 693.96,101.85 L 697.21,101.85 L 700.02,101.85 L 702.98,101.85 L 706.36,101.85 L 709.46,101.85 L 712.08,101.85 L 715.00,101.85 L 718.04,101.85 L 721.16,101.85 L 724.16,101.85 L 727.03,101.85 L 729.85,101.85 L 733.12,101.85 L 736.28,101.85 L 739.05,101.85 L 741.96,101.85 L 744.85,101.85 L 748.08,101.85 L 750.96,101.85 L 753.95,101.85 L 756.95,101.85 L 759.85,101.85 L 763.01,101.85 L 765.96,101.85 L 769.50,285.74 L 771.95,285.74 L 774.96,285.74 L 778.44,285.74 L 781.15,285.74 L 784.16,285.74 L 787.15,285.74 L 790.00,285.74 L 793.22,285.74 L 796.19,285.74 L 799.73,285.74 L 802.32,285.74 L 805.13,285.74 L 808.71,285.74 L 811.22,285.74 L 814.62,285.74 L 816.90,285.74 L 819.98,285.74 L 823.24,285.74 L 825.88,285.74 L 829.17,285.74 L 832.38,285.74 L 834.95,285.74 L 838.20,285.74 L 841.41,285.74 L 844.13,285.74 L 847.20,285.74 L 849.99,285.74 L 856.31,285.74 L 858.80,285.74 L 862.16,285.74 L 864.89,285.74 L 867.91,285.74 L 870.93,285.74 L 873.97,285.74 L 877.22,285.74 L 879.85,285.74 L 883.31,285.74 L 886.79,285.74 L 889.27,285.74 L 892.06,285.74 L 894.81,285.74 L 898.03,285.74 L 900.81,285.74 L 904.54,285.74 L 907.09,285.74 L 909.79,285.74 L 912.91,285.74 L 915.82,285.74 L 918.75,285.74 L 922.06,285.74 L 924.89,285.74 L 928.41,285.74 L 930.92,285.74" fill="none" stroke="#48525f" stroke-width="2" stroke-dasharray="6 4"/>
<path d="M 95.08,132.46 L 97.95,131.48 L 101.77,130.49 L 103.97,129.80 L 109.89,127.90 L 113.42,126.74 L 116.49,126.03 L 118.98,125.74 L 122.06,125.22 L 125.00,124.33 L 128.16,123.25 L 131.08,122.40 L 133.63,121.94 L 137.14,121.38 L 139.75,120.26 L 142.70,119.15 L 145.91,118.66 L 148.97,118.74 L 151.58,118.87 L 154.79,119.17 L 158.27,118.82 L 160.77,118.24 L 163.92,116.95 L 167.26,115.78 L 172.65,114.31 L 176.07,114.59 L 179.72,116.01 L 185.05,120.09 L 188.18,122.42 L 190.75,124.30 L 193.75,125.67 L 197.84,126.33 L 199.59,126.38 L 203.58,126.00 L 206.54,125.55 L 208.70,125.11 L 212.33,124.75 L 214.63,124.61 L 217.90,124.44 L 221.48,124.28 L 223.96,124.33 L 226.46,124.23 L 230.31,124.01 L 233.24,123.65 L 235.71,123.25 L 238.69,122.54 L 241.96,121.83 L 244.69,121.47 L 248.40,121.07 L 250.70,120.49 L 253.74,120.06 L 257.80,119.58 L 259.77,119.29 L 262.88,119.01 L 266.13,118.75 L 268.52,118.46 L 272.08,118.09 L 274.93,117.82 L 278.32,117.62 L 280.50,117.42 L 283.83,117.24 L 288.29,117.12 L 289.87,116.93 L 293.13,116.80 L 295.82,116.73 L 298.66,116.69 L 301.54,116.56 L 304.75,116.51 L 307.99,116.47 L 311.76,116.29 L 313.85,115.94 L 316.89,114.84 L 320.78,112.78 L 322.63,109.94 L 327.19,106.65 L 332.81,101.44 L 334.53,100.34 L 337.52,100.26 L 341.00,100.99 L 343.74,101.72 L 346.91,102.53 L 350.22,103.07 L 352.51,103.17 L 356.71,102.92 L 358.48,102.55 L 361.45,102.26 L 364.76,102.03 L 367.61,101.80 L 370.46,101.69 L 373.79,101.69 L 376.41,101.73 L 379.58,101.75 L 383.08,101.82 L 385.56,101.91 L 388.75,101.94 L 391.55,101.93 L 394.64,101.90 L 397.42,101.87 L 400.58,101.86 L 403.59,101.86 L 407.05,101.86 L 410.10,101.86 L 412.35,101.86 L 416.51,101.88 L 418.57,101.88 L 421.48,101.88 L 424.41,101.87 L 427.30,101.86 L 430.60,101.85 L 433.63,101.84 L 436.53,101.85 L 439.77,101.86 L 442.32,101.86 L 446.82,101.86 L 448.24,101.85 L 451.20,101.85 L 454.74,101.84 L 457.86,101.84 L 460.39,101.85 L 463.57,101.85 L 466.36,101.85 L 469.52,101.85 L 472.86,101.85 L 475.35,101.85 L 478.23,101.84 L 481.16,101.84 L 484.45,101.85 L 487.50,101.85 L 490.28,101.85 L 493.47,101.85 L 496.30,101.85 L 499.93,101.85 L 502.58,101.85 L 505.34,101.85 L 508.39,101.84 L 511.54,101.85 L 514.24,101.85 L 517.40,101.85 L 520.33,101.85 L 523.46,101.85 L 529.57,101.85 L 532.56,101.85 L 535.10,101.85 L 538.38,101.85 L 541.14,101.84 L 544.11,101.85 L 547.19,101.85 L 550.10,101.85 L 553.34,101.85 L 556.28,101.85 L 559.32,101.84 L 562.24,101.85 L 565.07,101.85 L 568.12,101.85 L 571.41,101.85 L 574.17,101.85 L 577.13,101.84 L 580.04,101.84 L 583.09,101.84 L 586.24,101.84 L 590.01,101.85 L 592.54,101.84 L 595.12,101.85 L 598.87,101.84 L 601.22,101.84 L 604.43,101.84 L 607.27,101.84 L 610.15,101.84 L 613.11,101.84 L 616.32,101.84 L 619.79,101.84 L 622.25,101.85 L 625.20,101.84 L 628.07,101.84 L 631.15,101.84 L 634.82,101.85 L 637.23,101.84 L 640.12,101.85 L 643.03,101.84 L 646.15,101.84 L 649.53,101.85 L 652.12,101.84 L 655.08,101.85 L 658.19,101.84 L 661.16,101.85 L 665.05,101.84 L 667.17,101.84 L 670.04,101.84 L 673.05,101.84 L 676.09,101.84 L 679.02,101.84 L 681.98,101.84 L 685.08,101.84 L 687.95,101.84 L 690.97,101.85 L 693.96,101.85 L 697.21,101.85 L 700.02,101.85 L 702.98,101.85 L 706.36,101.84 L 709.46,101.84 L 712.08,101.84 L 715.00,101.85 L 718.04,101.85 L 721.16,101.84 L 724.16,101.85 L 727.03,101.85 L 729.85,101.84 L 733.12,101.85 L 736.28,101.84 L 739.05,101.84 L 741.96,101.84 L 744.85,101.84 L 748.08,101.85 L 750.96,101.84 L 753.95,101.84 L 756.95,101.84 L 759.85,101.84 L 763.01,101.85 L 765.96,101.85 L 769.50,101.85 L 771.95,101.96 L 774.96,102.73 L 778.44,104.47 L 781.15,108.06 L 784.16,114.24 L 787.15,123.96 L 790.00,137.14 L 793.22,154.08 L 796.19,173.03 L 799.73,194.76 L 802.32,214.56 L 805.13,233.68 L 808.71,250.24 L 811.22,262.84 L 814.62,271.67 L 816.90,276.54 L 819.98,278.51 L 823.24,278.74 L 825.88,278.54 L 829.17,278.34 L 832.38,278.36 L 834.95,279.13 L 838.20,280.40 L 841.41,281.76 L 844.13,283.00 L 847.20,284.12 L 849.99,284.81 L 856.31,285.04 L 858.80,284.98 L 862.16,284.95 L 864.89,284.87 L 867.91,284.79 L 870.93,284.85 L 873.97,284.97 L 877.22,285.08 L 879.85,285.18 L 883.31,285.26 L 886.79,285.32 L 889.27,285.38 L 892.06,285.43 L 894.81,285.44 L 898.03,285.44 L 900.81,285.44 L 904.54,285.43 L 907.09,285.43 L 909.79,285.43 L 912.91,285.43 L 915.82,285.42 L 918.75,285.41 L 922.06,285.42 L 924.89,285.43 L 928.41,285.43 L 930.92,285.44" fill="none" stroke="#c94f2d" stroke-width="2"/>
<line class="axis" x1="70" y1="308" x2="956" y2="308"/>
<line class="axis" x1="70" y1="78" x2="70" y2="308"/>
<text class="label" x="18" y="193.00" transform="rotate(-90 18 193.00)" text-anchor="middle">degrees</text>
<line x1="70" y1="326" x2="94" y2="326" stroke="#48525f" stroke-width="2" stroke-dasharray="6 4"/>
<text class="label" x="100" y="330">commanded target</text>
<line x1="236" y1="326" x2="260" y2="326" stroke="#c94f2d" stroke-width="2"/>
<text class="label" x="266" y="330">actual current</text>
<text class="label" x="513.0" y="348" text-anchor="middle">time relative to event (s)</text>
</svg>