<svg xmlns="http://www.w3.org/2000/svg" viewBox="0 0 980 382" role="img">
<style>
.axis{stroke:#718096;stroke-width:1}.grid{stroke:#e5eaf0;stroke-width:1}.label{font:12px sans-serif;fill:#5a6675}.title{font:700 18px sans-serif;fill:#20242a}.subtitle{font:12px sans-serif;fill:#5a6675}.panel-title{font:700 13px sans-serif;fill:#20242a}
</style>
<rect width="980" height="382" fill="#ffffff"/>
<text class="title" x="70" y="28">Pitch large angle movement: 28.88 deg to 0.00 deg (28.88 deg move).</text>
<text class="subtitle" x="70" y="50">Arrival 268 ms; settling 399 ms; trajectory lag 85 ms.</text>
<line x1="70" y1="76" x2="94" y2="76" stroke="#48525f" stroke-width="2" stroke-dasharray="6 4"/>
<text class="label" x="100" y="80">commanded target</text>
<line x1="236" y1="76" x2="260" y2="76" stroke="#1769aa" stroke-width="2"/>
<text class="label" x="266" y="80">actual current</text>
<text class="panel-title" x="70" y="96">Pitch position</text>
<line class="grid" x1="70" y1="338.00" x2="956" y2="338.00"/>
<text class="label" x="62" y="342.00" text-anchor="end">-3.5</text>
<line class="grid" x1="70" y1="280.50" x2="956" y2="280.50"/>
<text class="label" x="62" y="284.50" text-anchor="end">5.5</text>
<line class="grid" x1="70" y1="223.00" x2="956" y2="223.00"/>
<text class="label" x="62" y="227.00" text-anchor="end">14.5</text>
<line class="grid" x1="70" y1="165.50" x2="956" y2="165.50"/>
<text class="label" x="62" y="169.50" text-anchor="end">23.5</text>
<line class="grid" x1="70" y1="108.00" x2="956" y2="108.00"/>
<text class="label" x="62" y="112.00" text-anchor="end">32.5</text>
<line class="grid" x1="70.00" y1="108" x2="70.00" y2="338"/>
<text class="label" x="70.00" y="358" text-anchor="middle">-0.39</text>
<line class="grid" x1="217.67" y1="108" x2="217.67" y2="338"/>
<text class="label" x="217.67" y="358" text-anchor="middle">-0.10</text>
<line class="grid" x1="365.33" y1="108" x2="365.33" y2="338"/>
<text class="label" x="365.33" y="358" text-anchor="middle">0.18</text>
<line class="grid" x1="513.00" y1="108" x2="513.00" y2="338"/>
<text class="label" x="513.00" y="358" text-anchor="middle">0.47</text>
<line class="grid" x1="660.67" y1="108" x2="660.67" y2="338"/>
<text class="label" x="660.67" y="358" text-anchor="middle">0.76</text>
<line class="grid" x1="808.33" y1="108" x2="808.33" y2="338"/>
<text class="label" x="808.33" y="358" text-anchor="middle">1.05</text>
<line class="grid" x1="956.00" y1="108" x2="956.00" y2="338"/>
<text class="label" x="956.00" y="358" text-anchor="middle">1.34</text>
<line x1="270.79" y1="108" x2="270.79" y2="338" stroke="#5a6675" stroke-width="1.2" opacity="0.55"/>
<text class="label" x="274.79" y="120.00" transform="rotate(-35 274.79 120.00)">start</text>
<line x1="576.96" y1="108" x2="576.96" y2="338" stroke="#5a6675" stroke-width="1.2" opacity="0.55"/>
<text class="label" x="580.96" y="120.00" transform="rotate(-35 580.96 120.00)">final target</text>
<line x1="714.12" y1="108" x2="714.12" y2="338" stroke="#347a3a" stroke-width="1.2" opacity="0.55"/>
<text class="label" x="718.12" y="120.00" transform="rotate(-35 718.12 120.00)">arrive</text>
<line x1="781.13" y1="108" x2="781.13" y2="338" stroke="#8a5a00" stroke-width="1.2" opacity="0.55"/>
<text class="label" x="785.13" y="142.00" transform="rotate(-35 785.13 142.00)">settled</text>
<path d="M 95.08,177.07 L 99.43,177.07 L 104.39,174.96 L 115.17,173.13 L 119.57,170.53 L 124.83,168.87 L 129.63,168.87 L 145.54,164.34 L 155.21,162.10 L 170.65,157.73 L 175.99,155.66 L 180.79,155.66 L 196.47,151.08 L 202.43,151.08 L 206.47,148.46 L 212.20,146.83 L 217.78,146.83 L 222.09,143.98 L 227.35,142.31 L 232.42,142.31 L 237.53,140.07 L 248.60,137.91 L 252.50,137.91 L 257.93,134.97 L 263.44,132.97 L 268.07,132.97 L 273.10,130.95 L 278.49,130.95 L 283.43,130.95 L 289.40,130.95 L 294.94,130.95 L 299.10,130.95 L 303.98,130.95 L 309.32,130.95 L 319.43,130.95 L 324.55,130.95 L 329.44,130.95 L 334.71,130.95 L 345.79,130.95 L 350.50,130.95 L 355.02,130.95 L 360.19,130.95 L 370.76,130.95 L 375.63,130.95 L 380.76,130.95 L 385.91,130.95 L 396.44,130.95 L 406.76,130.95 L 411.53,130.95 L 422.38,130.95 L 431.94,130.95 L 437.23,130.95 L 447.83,130.95 L 457.56,130.95 L 462.90,130.95 L 473.64,130.95 L 478.49,130.95 L 483.28,130.95 L 488.62,130.95 L 493.82,130.95 L 499.03,130.95 L 503.95,130.95 L 508.98,130.95 L 514.35,130.95 L 519.20,130.95 L 524.37,130.95 L 529.67,130.95 L 534.59,130.95 L 539.78,130.95 L 550.02,130.95 L 555.68,130.95 L 560.42,130.95 L 566.20,130.95 L 571.13,130.95 L 576.21,130.95 L 581.20,315.74 L 586.26,315.74 L 591.87,315.74 L 596.70,315.74 L 602.55,315.74 L 606.50,315.74 L 611.70,315.74 L 616.75,315.74 L 628.17,315.74 L 632.18,315.74 L 637.32,315.74 L 642.80,315.74 L 647.70,315.74 L 653.02,315.74 L 657.84,315.74 L 662.83,315.74 L 668.72,315.74 L 672.98,315.74 L 678.92,315.74 L 683.97,315.74 L 688.39,315.74 L 693.62,315.74 L 698.93,315.74 L 704.42,315.74 L 709.02,315.74 L 714.12,315.74 L 720.94,315.74 L 724.65,315.74 L 734.74,315.74 L 739.66,315.74 L 744.97,315.74 L 750.04,315.74 L 756.70,315.74 L 760.82,315.74 L 765.34,315.74 L 770.58,315.74 L 781.13,315.74 L 785.91,315.74 L 791.12,315.74 L 796.45,315.74 L 801.37,315.74 L 806.80,315.74 L 811.60,315.74 L 816.64,315.74 L 827.16,315.74 L 834.00,315.74 L 837.33,315.74 L 842.31,315.74 L 847.86,315.74 L 852.67,315.74 L 857.86,315.74 L 863.34,315.74 L 868.28,315.74 L 874.05,315.74 L 878.80,315.74 L 885.07,315.74 L 889.00,315.74 L 893.85,315.74 L 899.30,315.74 L 905.31,315.74 L 909.28,315.74 L 914.54,315.74 L 919.32,315.74 L 924.58,315.74 L 930.92,315.74" fill="none" stroke="#48525f" stroke-width="2" stroke-dasharray="6 4"/>
<path d="M 95.08,212.92 L 99.43,208.25 L 104.39,203.51 L 115.17,194.52 L 119.57,190.61 L 124.83,187.39 L 129.63,184.48 L 145.54,177.84 L 155.21,174.66 L 170.65,169.81 L 175.99,168.20 L 180.79,166.59 L 196.47,162.05 L 202.43,160.52 L 206.47,159.11 L 212.20,157.67 L 217.78,156.42 L 222.09,154.99 L 227.35,153.50 L 232.42,152.13 L 237.53,150.81 L 248.60,148.03 L 252.50,146.73 L 257.93,145.32 L 263.44,143.94 L 268.07,142.69 L 273.10,141.33 L 278.49,139.97 L 283.43,138.59 L 289.40,137.24 L 294.94,136.05 L 299.10,135.00 L 303.98,134.11 L 309.32,133.39 L 319.43,132.49 L 324.55,132.19 L 329.44,131.95 L 334.71,131.78 L 345.79,131.47 L 350.50,131.32 L 355.02,131.19 L 360.19,131.09 L 370.76,130.87 L 375.63,130.79 L 380.76,130.72 L 385.91,130.67 L 396.44,130.57 L 406.76,130.50 L 411.53,130.48 L 422.38,130.41 L 431.94,130.37 L 437.23,130.36 L 447.83,130.33 L 457.56,130.32 L 462.90,130.30 L 473.64,130.29 L 478.49,130.29 L 483.28,130.28 L 488.62,130.28 L 493.82,130.28 L 499.03,130.27 L 503.95,130.27 L 508.98,130.27 L 514.35,130.27 L 519.20,130.27 L 524.37,130.26 L 529.67,130.26 L 534.59,130.26 L 539.78,130.26 L 550.02,130.26 L 555.68,130.26 L 560.42,130.26 L 566.20,130.26 L 571.13,130.26 L 576.21,130.26 L 581.20,130.26 L 586.26,130.27 L 591.87,130.43 L 596.70,131.48 L 602.55,133.33 L 606.50,136.87 L 611.70,142.67 L 616.75,151.06 L 628.17,176.54 L 632.18,192.37 L 637.32,209.37 L 642.80,226.23 L 647.70,242.41 L 653.02,256.79 L 657.84,269.01 L 662.83,278.82 L 668.72,285.85 L 672.98,290.98 L 678.92,294.54 L 683.97,297.06 L 688.39,298.99 L 693.62,300.83 L 698.93,302.62 L 704.42,304.24 L 709.02,305.71 L 714.12,307.06 L 720.94,308.26 L 724.65,309.27 L 734.74,310.90 L 739.66,311.55 L 744.97,312.09 L 750.04,312.54 L 756.70,312.94 L 760.82,313.31 L 765.34,313.61 L 770.58,313.86 L 781.13,314.30 L 785.91,314.50 L 791.12,314.65 L 796.45,314.77 L 801.37,314.88 L 806.80,314.99 L 811.60,315.10 L 816.64,315.17 L 827.16,315.28 L 834.00,315.34 L 837.33,315.38 L 842.31,315.42 L 847.86,315.44 L 852.67,315.48 L 857.86,315.50 L 863.34,315.53 L 868.28,315.55 L 874.05,315.56 L 878.80,315.57 L 885.07,315.58 L 889.00,315.59 L 893.85,315.60 L 899.30,315.62 L 905.31,315.63 L 909.28,315.63 L 914.54,315.64 L 919.32,315.65 L 924.58,315.65 L 930.92,315.65" fill="none" stroke="#1769aa" stroke-width="2"/>
<line class="axis" x1="70" y1="338" x2="956" y2="338"/>
<line class="axis" x1="70" y1="108" x2="70" y2="338"/>
<text class="label" x="18" y="223.00" transform="rotate(-90 18 223.00)" text-anchor="middle">degrees</text>
<text class="label" x="513.0" y="374" text-anchor="middle">time relative to event (s)</text>
</svg>