<svg xmlns="http://www.w3.org/2000/svg" viewBox="0 0 980 356" role="img">
<style>
.axis{stroke:#718096;stroke-width:1}.grid{stroke:#e5eaf0;stroke-width:1}.label{font:12px sans-serif;fill:#5a6675}.title{font:700 18px sans-serif;fill:#20242a}.subtitle{font:12px sans-serif;fill:#5a6675}.panel-title{font:700 13px sans-serif;fill:#20242a}
</style>
<rect width="980" height="356" fill="#ffffff"/>
<text class="title" x="70" y="28">Pitch small angle movement: 1.00 deg to -1.00 deg (2.00 deg move).</text>
<text class="subtitle" x="70" y="50">Arrival 187 ms; settling 187 ms; trajectory lag 60 ms.</text>
<text class="panel-title" x="70" y="66">Pitch position</text>
<line class="grid" x1="70" y1="308.00" x2="956" y2="308.00"/>
<text class="label" x="62" y="312.00" text-anchor="end">-1.2</text>
<line class="grid" x1="70" y1="250.50" x2="956" y2="250.50"/>
<text class="label" x="62" y="254.50" text-anchor="end">-0.6</text>
<line class="grid" x1="70" y1="193.00" x2="956" y2="193.00"/>
<text class="label" x="62" y="197.00" text-anchor="end">-0.0</text>
<line class="grid" x1="70" y1="135.50" x2="956" y2="135.50"/>
<text class="label" x="62" y="139.50" text-anchor="end">0.6</text>
<line class="grid" x1="70" y1="78.00" x2="956" y2="78.00"/>
<text class="label" x="62" y="82.00" text-anchor="end">1.2</text>
<line class="grid" x1="70.00" y1="78" x2="70.00" y2="308"/>
<text class="label" x="70.00" y="328" text-anchor="middle">-0.39</text>
<line class="grid" x1="217.67" y1="78" x2="217.67" y2="308"/>
<text class="label" x="217.67" y="328" text-anchor="middle">-0.09</text>
<line class="grid" x1="365.33" y1="78" x2="365.33" y2="308"/>
<text class="label" x="365.33" y="328" text-anchor="middle">0.21</text>
<line class="grid" x1="513.00" y1="78" x2="513.00" y2="308"/>
<text class="label" x="513.00" y="328" text-anchor="middle">0.52</text>
<line class="grid" x1="660.67" y1="78" x2="660.67" y2="308"/>
<text class="label" x="660.67" y="328" text-anchor="middle">0.82</text>
<line class="grid" x1="808.33" y1="78" x2="808.33" y2="308"/>
<text class="label" x="808.33" y="328" text-anchor="middle">1.12</text>
<line class="grid" x1="956.00" y1="78" x2="956.00" y2="308"/>
<text class="label" x="956.00" y="328" text-anchor="middle">1.42</text>
<line x1="261.43" y1="78" x2="261.43" y2="308" stroke="#5a6675" stroke-width="1.2" opacity="0.55"/>
<text class="label" x="265.43" y="90" transform="rotate(-35 265.43 90)">start</text>
<line x1="664.10" y1="78" x2="664.10" y2="308" stroke="#5a6675" stroke-width="1.2" opacity="0.55"/>
<text class="label" x="668.10" y="90" transform="rotate(-35 668.10 90)">final target</text>
<line x1="755.28" y1="78" x2="755.28" y2="308" stroke="#347a3a" stroke-width="1.2" opacity="0.55"/>
<text class="label" x="759.28" y="90" transform="rotate(-35 759.28 90)">arrive</text>
<line x1="755.28" y1="78" x2="755.28" y2="308" stroke="#8a5a00" stroke-width="1.2" opacity="0.55"/>
<text class="label" x="759.28" y="90" transform="rotate(-35 759.28 90)">settled</text>
<path d="M 95.08,192.75 L 99.93,192.75 L 105.14,192.75 L 110.30,192.75 L 115.02,192.75 L 121.07,192.75 L 124.70,192.75 L 129.51,192.75 L 134.61,192.75 L 139.10,192.75 L 144.25,192.75 L 150.31,192.75 L 153.72,192.75 L 158.86,192.75 L 163.48,192.75 L 168.41,192.75 L 173.50,192.75 L 178.35,192.75 L 183.13,192.75 L 187.94,192.75 L 192.79,192.75 L 197.71,192.75 L 202.59,192.75 L 207.65,192.75 L 212.55,192.75 L 217.36,192.75 L 222.17,192.75 L 227.05,192.75 L 231.97,192.75 L 236.99,192.75 L 241.89,192.75 L 246.71,192.75 L 251.67,192.75 L 256.37,192.75 L 261.56,100.26 L 266.07,100.26 L 271.12,100.26 L 275.85,100.26 L 280.86,100.26 L 285.70,100.26 L 290.59,100.26 L 295.52,100.26 L 300.40,100.26 L 305.32,100.26 L 310.11,100.26 L 319.86,100.26 L 324.75,100.26 L 329.65,100.26 L 334.51,100.26 L 340.15,100.26 L 344.70,100.26 L 349.15,100.26 L 354.32,100.26 L 359.15,100.26 L 364.22,100.26 L 369.05,100.26 L 373.83,100.26 L 378.56,100.26 L 383.34,100.26 L 388.38,100.26 L 398.30,100.26 L 407.99,100.26 L 414.34,100.26 L 417.79,100.26 L 422.47,100.26 L 427.42,100.26 L 432.25,100.26 L 438.24,100.26 L 447.14,100.26 L 452.25,100.26 L 456.83,100.26 L 462.67,100.26 L 467.02,100.26 L 471.52,100.26 L 476.31,100.26 L 481.23,100.26 L 486.68,100.26 L 491.53,100.26 L 495.90,100.26 L 505.83,100.26 L 511.00,100.26 L 515.58,100.26 L 520.59,100.26 L 525.46,100.26 L 530.18,100.26 L 534.98,100.26 L 544.69,100.26 L 549.88,100.26 L 554.65,100.26 L 560.63,100.26 L 564.42,100.26 L 569.24,100.26 L 574.10,100.26 L 579.07,100.26 L 584.50,100.26 L 594.00,100.26 L 598.59,100.26 L 603.46,100.26 L 608.55,100.26 L 613.32,100.26 L 618.03,100.26 L 623.22,100.26 L 627.93,100.26 L 633.04,100.26 L 638.30,100.26 L 642.47,100.26 L 647.36,100.26 L 652.29,100.26 L 657.43,100.26 L 662.12,100.26 L 667.30,285.24 L 672.14,285.24 L 676.76,285.24 L 682.52,285.24 L 691.32,285.24 L 696.52,285.24 L 701.40,285.24 L 706.93,285.24 L 711.74,285.24 L 715.83,285.24 L 721.15,285.24 L 725.62,285.24 L 730.81,285.24 L 740.47,285.24 L 745.46,285.24 L 750.25,285.24 L 755.28,285.24 L 760.90,285.24 L 764.72,285.24 L 769.69,285.24 L 774.46,285.24 L 779.87,285.24 L 785.33,285.24 L 789.16,285.24 L 794.20,285.24 L 798.93,285.24 L 809.01,285.24 L 813.59,285.24 L 818.72,285.24 L 823.62,285.24 L 828.19,285.24 L 833.58,285.24 L 838.07,285.24 L 842.94,285.24 L 847.78,285.24 L 853.11,285.24 L 858.21,285.24 L 862.78,285.24 L 867.44,285.24 L 872.38,285.24 L 877.29,285.24 L 881.97,285.24 L 886.95,285.24 L 891.88,285.24 L 896.67,285.24 L 901.71,285.24 L 911.36,285.24 L 916.23,285.24 L 921.10,285.24 L 926.11,285.24 L 930.92,285.24" fill="none" stroke="#48525f" stroke-width="2" stroke-dasharray="6 4"/>
<path d="M 95.08,192.68 L 99.93,192.84 L 105.14,192.84 L 110.30,192.51 L 115.02,192.34 L 121.07,192.51 L 124.70,192.51 L 129.51,192.34 L 134.61,192.34 L 139.10,192.51 L 144.25,192.34 L 150.31,192.34 L 153.72,192.51 L 158.86,192.34 L 163.48,192.34 L 168.41,192.34 L 173.50,192.34 L 178.35,192.34 L 183.13,192.34 L 187.94,192.34 L 192.79,192.34 L 197.71,192.34 L 202.59,192.34 L 207.65,192.34 L 212.55,192.34 L 217.36,192.34 L 222.17,192.34 L 227.05,192.34 L 231.97,192.51 L 236.99,192.34 L 241.89,192.34 L 246.71,192.34 L 251.67,192.34 L 256.37,192.34 L 261.56,192.51 L 266.07,192.34 L 271.12,191.68 L 275.85,187.35 L 280.86,178.36 L 285.70,166.21 L 290.59,153.55 L 295.52,140.73 L 300.40,129.25 L 305.32,121.09 L 310.11,116.59 L 319.86,113.10 L 324.75,111.60 L 329.65,110.60 L 334.51,109.93 L 340.15,109.10 L 344.70,107.93 L 349.15,106.94 L 354.32,106.10 L 359.15,105.44 L 364.22,104.77 L 369.05,104.11 L 373.83,103.61 L 378.56,103.27 L 383.34,102.94 L 388.38,102.61 L 398.30,102.11 L 407.99,101.61 L 414.34,101.44 L 417.79,101.28 L 422.47,101.28 L 427.42,101.11 L 432.25,100.94 L 438.24,100.94 L 447.14,100.78 L 452.25,100.78 L 456.83,100.78 L 462.67,100.61 L 467.02,100.61 L 471.52,100.61 L 476.31,100.61 L 481.23,100.61 L 486.68,100.44 L 491.53,100.44 L 495.90,100.44 L 505.83,100.44 L 511.00,100.44 L 515.58,100.44 L 520.59,100.44 L 525.46,100.44 L 530.18,100.44 L 534.98,100.44 L 544.69,100.44 L 549.88,100.44 L 554.65,100.44 L 560.63,100.44 L 564.42,100.44 L 569.24,100.44 L 574.10,100.44 L 579.07,100.44 L 584.50,100.44 L 594.00,100.44 L 598.59,100.44 L 603.46,100.44 L 608.55,100.44 L 613.32,100.44 L 618.03,100.44 L 623.22,100.44 L 627.93,100.44 L 633.04,100.44 L 638.30,100.44 L 642.47,100.44 L 647.36,100.44 L 652.29,100.44 L 657.43,100.44 L 662.12,100.44 L 667.30,100.44 L 672.14,100.61 L 676.76,103.11 L 682.52,112.76 L 691.32,150.56 L 696.52,174.03 L 701.40,200.00 L 706.93,222.48 L 711.74,239.96 L 715.83,251.11 L 721.15,256.77 L 725.62,259.27 L 730.81,261.27 L 740.47,265.26 L 745.46,267.26 L 750.25,269.26 L 755.28,271.42 L 760.90,273.26 L 764.72,274.75 L 769.69,276.09 L 774.46,277.42 L 779.87,278.58 L 785.33,279.58 L 789.16,280.25 L 794.20,280.91 L 798.93,281.58 L 809.01,282.75 L 813.59,283.08 L 818.72,283.41 L 823.62,283.74 L 828.19,284.08 L 833.58,284.41 L 838.07,284.41 L 842.94,284.74 L 847.78,284.91 L 853.11,285.08 L 858.21,285.24 L 862.78,285.24 L 867.44,285.24 L 872.38,285.41 L 877.29,285.58 L 881.97,285.58 L 886.95,285.58 L 891.88,285.58 L 896.67,285.58 L 901.71,285.74 L 911.36,285.74 L 916.23,285.74 L 921.10,285.74 L 926.11,285.74 L 930.92,285.74" fill="none" stroke="#1769aa" stroke-width="2"/>
<line class="axis" x1="70" y1="308" x2="956" y2="308"/>
<line class="axis" x1="70" y1="78" x2="70" y2="308"/>
<text class="label" x="18" y="193.00" transform="rotate(-90 18 193.00)" text-anchor="middle">degrees</text>
<line x1="70" y1="326" x2="94" y2="326" stroke="#48525f" stroke-width="2" stroke-dasharray="6 4"/>
<text class="label" x="100" y="330">commanded target</text>
<line x1="236" y1="326" x2="260" y2="326" stroke="#1769aa" stroke-width="2"/>
<text class="label" x="266" y="330">actual current</text>
<text class="label" x="513.0" y="348" text-anchor="middle">time relative to event (s)</text>
</svg>