<svg xmlns="http://www.w3.org/2000/svg" viewBox="0 0 980 356" role="img">
<style>
.axis{stroke:#718096;stroke-width:1}.grid{stroke:#e5eaf0;stroke-width:1}.label{font:12px sans-serif;fill:#5a6675}.title{font:700 18px sans-serif;fill:#20242a}.subtitle{font:12px sans-serif;fill:#5a6675}.panel-title{font:700 13px sans-serif;fill:#20242a}
</style>
<rect width="980" height="356" fill="#ffffff"/>
<text class="title" x="70" y="28">Yaw small angle movement: -2.10 deg to -0.00 deg (2.10 deg move).</text>
<text class="subtitle" x="70" y="50">Arrival 88 ms; settling 88 ms; trajectory lag 45 ms.</text>
<text class="panel-title" x="70" y="66">Yaw position</text>
<line class="grid" x1="70" y1="308.00" x2="956" y2="308.00"/>
<text class="label" x="62" y="312.00" text-anchor="end">-2.4</text>
<line class="grid" x1="70" y1="250.50" x2="956" y2="250.50"/>
<text class="label" x="62" y="254.50" text-anchor="end">-1.7</text>
<line class="grid" x1="70" y1="193.00" x2="956" y2="193.00"/>
<text class="label" x="62" y="197.00" text-anchor="end">-1.0</text>
<line class="grid" x1="70" y1="135.50" x2="956" y2="135.50"/>
<text class="label" x="62" y="139.50" text-anchor="end">-0.3</text>
<line class="grid" x1="70" y1="78.00" x2="956" y2="78.00"/>
<text class="label" x="62" y="82.00" text-anchor="end">0.4</text>
<line class="grid" x1="70.00" y1="78" x2="70.00" y2="308"/>
<text class="label" x="70.00" y="328" text-anchor="middle">-0.40</text>
<line class="grid" x1="217.67" y1="78" x2="217.67" y2="308"/>
<text class="label" x="217.67" y="328" text-anchor="middle">-0.08</text>
<line class="grid" x1="365.33" y1="78" x2="365.33" y2="308"/>
<text class="label" x="365.33" y="328" text-anchor="middle">0.25</text>
<line class="grid" x1="513.00" y1="78" x2="513.00" y2="308"/>
<text class="label" x="513.00" y="328" text-anchor="middle">0.57</text>
<line class="grid" x1="660.67" y1="78" x2="660.67" y2="308"/>
<text class="label" x="660.67" y="328" text-anchor="middle">0.89</text>
<line class="grid" x1="808.33" y1="78" x2="808.33" y2="308"/>
<text class="label" x="808.33" y="328" text-anchor="middle">1.22</text>
<line class="grid" x1="956.00" y1="78" x2="956.00" y2="308"/>
<text class="label" x="956.00" y="328" text-anchor="middle">1.54</text>
<line x1="252.83" y1="78" x2="252.83" y2="308" stroke="#5a6675" stroke-width="1.2" opacity="0.55"/>
<text class="label" x="256.83" y="90" transform="rotate(-35 256.83 90)">start</text>
<line x1="680.66" y1="78" x2="680.66" y2="308" stroke="#5a6675" stroke-width="1.2" opacity="0.55"/>
<text class="label" x="684.66" y="90" transform="rotate(-35 684.66 90)">final target</text>
<line x1="720.61" y1="78" x2="720.61" y2="308" stroke="#347a3a" stroke-width="1.2" opacity="0.55"/>
<text class="label" x="724.61" y="90" transform="rotate(-35 724.61 90)">arrive</text>
<line x1="720.61" y1="78" x2="720.61" y2="308" stroke="#8a5a00" stroke-width="1.2" opacity="0.55"/>
<text class="label" x="724.61" y="90" transform="rotate(-35 724.61 90)">settled</text>
<path d="M 95.08,198.94 L 99.51,198.94 L 104.15,203.77 L 108.44,203.77 L 113.50,207.58 L 117.95,211.17 L 122.87,211.17 L 127.72,215.68 L 131.27,215.68 L 136.06,219.86 L 142.02,223.33 L 145.99,223.33 L 150.27,228.09 L 154.64,228.09 L 159.28,231.85 L 163.72,235.61 L 167.71,235.61 L 172.42,240.12 L 176.92,240.12 L 182.07,244.05 L 187.70,247.74 L 190.68,247.74 L 195.86,252.48 L 200.29,256.12 L 205.09,256.12 L 209.22,260.18 L 213.87,260.18 L 218.25,264.43 L 222.72,264.43 L 227.72,268.74 L 232.11,272.11 L 236.83,272.11 L 241.23,276.71 L 245.50,276.71 L 250.59,281.37 L 254.97,284.41 L 259.13,284.41 L 264.63,284.41 L 268.44,284.41 L 272.93,284.41 L 277.90,284.41 L 282.99,284.41 L 287.23,284.41 L 291.53,284.41 L 295.79,284.41 L 300.48,284.41 L 305.03,284.41 L 309.69,284.41 L 314.00,284.41 L 318.62,284.41 L 323.73,284.41 L 328.32,284.41 L 332.83,284.41 L 336.86,284.41 L 341.44,284.41 L 346.22,284.41 L 351.35,284.41 L 355.97,284.41 L 359.87,284.41 L 364.41,284.41 L 369.25,284.41 L 373.63,284.41 L 378.56,284.41 L 382.53,284.41 L 387.38,284.41 L 391.57,284.41 L 396.51,284.41 L 401.38,284.41 L 405.20,284.41 L 410.18,284.41 L 414.34,284.41 L 419.58,284.41 L 423.74,284.41 L 428.25,284.41 L 432.87,284.41 L 437.41,284.41 L 442.54,284.41 L 446.70,284.41 L 450.90,284.41 L 455.81,284.41 L 460.36,284.41 L 465.88,284.41 L 469.87,284.41 L 473.90,284.41 L 478.54,284.41 L 483.06,284.41 L 488.37,284.41 L 492.10,284.41 L 496.61,284.41 L 501.45,284.41 L 505.92,284.41 L 511.05,284.41 L 515.56,284.41 L 519.94,284.41 L 524.31,284.41 L 528.89,284.41 L 534.24,284.41 L 538.20,284.41 L 542.53,284.41 L 546.92,284.41 L 551.58,284.41 L 556.77,284.41 L 560.71,284.41 L 565.96,284.41 L 569.77,284.41 L 574.47,284.41 L 578.95,284.41 L 583.95,284.41 L 588.25,284.41 L 592.87,284.41 L 597.28,284.41 L 603.06,284.41 L 607.27,284.41 L 611.10,284.41 L 615.66,284.41 L 620.14,284.41 L 625.08,284.41 L 629.23,284.41 L 633.87,284.41 L 638.26,284.41 L 643.01,284.41 L 648.44,284.41 L 651.96,284.41 L 656.71,284.41 L 661.37,284.41 L 665.85,284.41 L 671.00,284.41 L 675.12,284.41 L 679.57,284.41 L 684.01,109.25 L 688.84,109.25 L 693.47,109.25 L 698.12,109.25 L 702.20,109.25 L 706.91,109.25 L 712.68,109.25 L 716.19,109.25 L 720.61,109.25 L 725.17,109.25 L 729.91,109.25 L 734.75,109.25 L 739.30,109.25 L 743.59,109.25 L 748.23,109.25 L 753.44,109.25 L 757.47,109.25 L 766.56,109.25 L 770.79,109.25 L 775.83,109.25 L 781.07,109.25 L 785.06,109.25 L 789.25,109.25 L 794.07,109.25 L 799.58,109.25 L 803.09,109.25 L 808.03,109.25 L 813.31,109.25 L 816.77,109.25 L 821.43,109.25 L 825.75,109.25 L 830.39,109.25 L 835.21,109.25 L 839.40,109.25 L 844.64,109.25 L 848.61,109.25 L 854.26,109.25 L 858.19,109.25 L 862.61,109.25 L 867.03,109.25 L 871.50,109.25 L 876.94,109.25 L 880.75,109.25 L 885.41,109.25 L 890.07,109.25 L 894.40,109.25 L 899.14,109.25 L 903.63,109.25 L 908.26,109.25 L 912.55,109.25 L 917.17,109.25 L 921.84,109.25 L 926.49,109.25 L 930.92,109.25" fill="none" stroke="#48525f" stroke-width="2" stroke-dasharray="6 4"/>
<path d="M 95.08,188.88 L 99.51,191.43 L 104.15,193.82 L 108.44,195.92 L 113.50,198.02 L 117.95,200.42 L 122.87,203.12 L 127.72,205.37 L 131.27,207.77 L 136.06,210.02 L 142.02,212.72 L 145.99,215.57 L 150.27,217.82 L 154.64,220.22 L 159.28,222.46 L 163.72,225.01 L 167.71,227.56 L 172.42,229.66 L 176.92,232.21 L 182.07,234.46 L 187.70,237.16 L 190.68,239.86 L 195.86,242.11 L 200.29,244.51 L 205.09,247.06 L 209.22,249.60 L 213.87,252.00 L 218.25,254.10 L 222.72,256.80 L 227.72,259.05 L 232.11,261.60 L 236.83,264.15 L 241.23,266.55 L 245.50,269.10 L 250.59,271.35 L 254.97,274.05 L 259.13,276.45 L 264.63,278.69 L 268.44,280.64 L 272.93,281.84 L 277.90,282.89 L 282.99,283.79 L 287.23,284.39 L 291.53,284.84 L 295.79,285.14 L 300.48,285.29 L 305.03,285.44 L 309.69,285.44 L 314.00,285.44 L 318.62,285.44 L 323.73,285.29 L 328.32,285.29 L 332.83,285.44 L 336.86,285.59 L 341.44,285.59 L 346.22,285.74 L 351.35,285.74 L 355.97,285.59 L 359.87,285.59 L 364.41,285.59 L 369.25,285.59 L 373.63,285.59 L 378.56,285.59 L 382.53,285.59 L 387.38,285.74 L 391.57,285.59 L 396.51,285.59 L 401.38,285.59 L 405.20,285.59 L 410.18,285.59 L 414.34,285.59 L 419.58,285.59 L 423.74,285.59 L 428.25,285.59 L 432.87,285.59 L 437.41,285.59 L 442.54,285.59 L 446.70,285.59 L 450.90,285.59 L 455.81,285.59 L 460.36,285.59 L 465.88,285.59 L 469.87,285.59 L 473.90,285.59 L 478.54,285.59 L 483.06,285.59 L 488.37,285.59 L 492.10,285.59 L 496.61,285.44 L 501.45,285.44 L 505.92,285.44 L 511.05,285.44 L 515.56,285.44 L 519.94,285.44 L 524.31,285.59 L 528.89,285.59 L 534.24,285.44 L 538.20,285.44 L 542.53,285.44 L 546.92,285.44 L 551.58,285.44 L 556.77,285.44 L 560.71,285.44 L 565.96,285.44 L 569.77,285.44 L 574.47,285.44 L 578.95,285.59 L 583.95,285.44 L 588.25,285.44 L 592.87,285.44 L 597.28,285.44 L 603.06,285.44 L 607.27,285.44 L 611.10,285.44 L 615.66,285.44 L 620.14,285.44 L 625.08,285.44 L 629.23,285.44 L 633.87,285.44 L 638.26,285.44 L 643.01,285.44 L 648.44,285.44 L 651.96,285.44 L 656.71,285.44 L 661.37,285.44 L 665.85,285.44 L 671.00,285.44 L 675.12,285.44 L 679.57,285.44 L 684.01,285.44 L 688.84,282.59 L 693.47,270.45 L 698.12,248.86 L 702.20,219.62 L 706.91,183.48 L 712.68,151.09 L 716.19,124.55 L 720.61,105.06 L 725.17,100.26 L 729.91,103.56 L 734.75,109.25 L 739.30,113.90 L 743.59,118.40 L 748.23,120.65 L 753.44,120.05 L 757.47,117.65 L 766.56,113.30 L 770.79,110.75 L 775.83,108.81 L 781.07,108.51 L 785.06,108.95 L 789.25,109.10 L 794.07,109.10 L 799.58,109.40 L 803.09,110.00 L 808.03,110.30 L 813.31,110.00 L 816.77,109.70 L 821.43,109.55 L 825.75,109.55 L 830.39,109.55 L 835.21,109.55 L 839.40,109.55 L 844.64,109.40 L 848.61,109.55 L 854.26,109.55 L 858.19,109.40 L 862.61,109.40 L 867.03,109.55 L 871.50,109.70 L 876.94,109.70 L 880.75,109.55 L 885.41,109.40 L 890.07,109.40 L 894.40,109.25 L 899.14,109.25 L 903.63,109.25 L 908.26,109.25 L 912.55,109.25 L 917.17,109.25 L 921.84,109.40 L 926.49,109.55 L 930.92,109.40" fill="none" stroke="#c94f2d" stroke-width="2"/>
<line class="axis" x1="70" y1="308" x2="956" y2="308"/>
<line class="axis" x1="70" y1="78" x2="70" y2="308"/>
<text class="label" x="18" y="193.00" transform="rotate(-90 18 193.00)" text-anchor="middle">degrees</text>
<line x1="70" y1="326" x2="94" y2="326" stroke="#48525f" stroke-width="2" stroke-dasharray="6 4"/>
<text class="label" x="100" y="330">commanded target</text>
<line x1="236" y1="326" x2="260" y2="326" stroke="#c94f2d" stroke-width="2"/>
<text class="label" x="266" y="330">actual current</text>
<text class="label" x="513.0" y="348" text-anchor="middle">time relative to event (s)</text>
</svg>