<svg xmlns="http://www.w3.org/2000/svg" viewBox="0 0 980 356" role="img">
<style>
.axis{stroke:#718096;stroke-width:1}.grid{stroke:#e5eaf0;stroke-width:1}.label{font:12px sans-serif;fill:#5a6675}.title{font:700 18px sans-serif;fill:#20242a}.subtitle{font:12px sans-serif;fill:#5a6675}.panel-title{font:700 13px sans-serif;fill:#20242a}
</style>
<rect width="980" height="356" fill="#ffffff"/>
<text class="title" x="70" y="28">Pitch large angle movement: 28.88 deg to 0.00 deg (28.88 deg move).</text>
<text class="subtitle" x="70" y="50">Arrival 268 ms; settling 268 ms; trajectory lag 85 ms.</text>
<text class="panel-title" x="70" y="66">Pitch position</text>
<line class="grid" x1="70" y1="308.00" x2="956" y2="308.00"/>
<text class="label" x="62" y="312.00" text-anchor="end">-3.5</text>
<line class="grid" x1="70" y1="250.50" x2="956" y2="250.50"/>
<text class="label" x="62" y="254.50" text-anchor="end">5.5</text>
<line class="grid" x1="70" y1="193.00" x2="956" y2="193.00"/>
<text class="label" x="62" y="197.00" text-anchor="end">14.5</text>
<line class="grid" x1="70" y1="135.50" x2="956" y2="135.50"/>
<text class="label" x="62" y="139.50" text-anchor="end">23.5</text>
<line class="grid" x1="70" y1="78.00" x2="956" y2="78.00"/>
<text class="label" x="62" y="82.00" text-anchor="end">32.5</text>
<line class="grid" x1="70.00" y1="78" x2="70.00" y2="308"/>
<text class="label" x="70.00" y="328" text-anchor="middle">-0.39</text>
<line class="grid" x1="217.67" y1="78" x2="217.67" y2="308"/>
<text class="label" x="217.67" y="328" text-anchor="middle">-0.12</text>
<line class="grid" x1="365.33" y1="78" x2="365.33" y2="308"/>
<text class="label" x="365.33" y="328" text-anchor="middle">0.14</text>
<line class="grid" x1="513.00" y1="78" x2="513.00" y2="308"/>
<text class="label" x="513.00" y="328" text-anchor="middle">0.41</text>
<line class="grid" x1="660.67" y1="78" x2="660.67" y2="308"/>
<text class="label" x="660.67" y="328" text-anchor="middle">0.67</text>
<line class="grid" x1="808.33" y1="78" x2="808.33" y2="308"/>
<text class="label" x="808.33" y="328" text-anchor="middle">0.94</text>
<line class="grid" x1="956.00" y1="78" x2="956.00" y2="308"/>
<text class="label" x="956.00" y="328" text-anchor="middle">1.20</text>
<line x1="286.25" y1="78" x2="286.25" y2="308" stroke="#5a6675" stroke-width="1.2" opacity="0.55"/>
<text class="label" x="290.25" y="90" transform="rotate(-35 290.25 90)">start</text>
<line x1="619.35" y1="78" x2="619.35" y2="308" stroke="#5a6675" stroke-width="1.2" opacity="0.55"/>
<text class="label" x="623.35" y="90" transform="rotate(-35 623.35 90)">final target</text>
<line x1="768.58" y1="78" x2="768.58" y2="308" stroke="#347a3a" stroke-width="1.2" opacity="0.55"/>
<text class="label" x="772.58" y="90" transform="rotate(-35 772.58 90)">arrive</text>
<line x1="768.58" y1="78" x2="768.58" y2="308" stroke="#8a5a00" stroke-width="1.2" opacity="0.55"/>
<text class="label" x="772.58" y="90" transform="rotate(-35 772.58 90)">settled</text>
<path d="M 95.08,147.07 L 99.82,147.07 L 105.21,144.96 L 116.94,143.13 L 121.72,140.53 L 127.45,138.87 L 132.67,138.87 L 149.98,134.34 L 160.50,132.10 L 177.30,127.73 L 183.11,125.66 L 188.33,125.66 L 205.39,121.08 L 211.88,121.08 L 216.27,118.46 L 222.50,116.83 L 228.57,116.83 L 233.26,113.98 L 238.98,112.31 L 244.50,112.31 L 250.06,110.07 L 262.10,107.91 L 266.35,107.91 L 272.25,104.97 L 278.25,102.97 L 283.29,102.97 L 288.76,100.95 L 294.63,100.95 L 300.00,100.95 L 306.49,100.95 L 312.53,100.95 L 317.04,100.95 L 322.36,100.95 L 328.16,100.95 L 339.17,100.95 L 344.73,100.95 L 350.06,100.95 L 355.79,100.95 L 367.85,100.95 L 372.97,100.95 L 377.88,100.95 L 383.51,100.95 L 395.02,100.95 L 400.31,100.95 L 405.90,100.95 L 411.49,100.95 L 422.95,100.95 L 434.18,100.95 L 439.37,100.95 L 451.17,100.95 L 461.58,100.95 L 467.33,100.95 L 478.86,100.95 L 489.45,100.95 L 495.26,100.95 L 506.94,100.95 L 512.22,100.95 L 517.43,100.95 L 523.24,100.95 L 528.90,100.95 L 534.57,100.95 L 539.92,100.95 L 545.39,100.95 L 551.23,100.95 L 556.51,100.95 L 562.13,100.95 L 567.91,100.95 L 573.26,100.95 L 578.90,100.95 L 590.04,100.95 L 596.20,100.95 L 601.35,100.95 L 607.65,100.95 L 613.01,100.95 L 618.54,100.95 L 623.97,285.74 L 629.47,285.74 L 635.57,285.74 L 640.83,285.74 L 647.19,285.74 L 651.50,285.74 L 657.14,285.74 L 662.65,285.74 L 675.07,285.74 L 679.43,285.74 L 685.02,285.74 L 690.98,285.74 L 696.32,285.74 L 702.10,285.74 L 707.35,285.74 L 712.78,285.74 L 719.18,285.74 L 723.82,285.74 L 730.29,285.74 L 735.78,285.74 L 740.59,285.74 L 746.28,285.74 L 752.05,285.74 L 758.03,285.74 L 763.03,285.74 L 768.58,285.74 L 776.00,285.74 L 780.04,285.74 L 791.01,285.74 L 796.36,285.74 L 802.14,285.74 L 807.66,285.74 L 814.91,285.74 L 819.39,285.74 L 824.31,285.74 L 830.01,285.74 L 841.49,285.74 L 846.68,285.74 L 852.36,285.74 L 858.15,285.74 L 863.51,285.74 L 869.41,285.74 L 874.64,285.74 L 880.12,285.74 L 891.56,285.74 L 899.01,285.74 L 902.63,285.74 L 908.04,285.74 L 914.08,285.74 L 919.32,285.74 L 924.96,285.74 L 930.92,285.74" fill="none" stroke="#48525f" stroke-width="2" stroke-dasharray="6 4"/>
<path d="M 95.08,182.92 L 99.82,178.25 L 105.21,173.51 L 116.94,164.52 L 121.72,160.61 L 127.45,157.39 L 132.67,154.48 L 149.98,147.84 L 160.50,144.66 L 177.30,139.81 L 183.11,138.20 L 188.33,136.59 L 205.39,132.05 L 211.88,130.52 L 216.27,129.11 L 222.50,127.67 L 228.57,126.42 L 233.26,124.99 L 238.98,123.50 L 244.50,122.13 L 250.06,120.81 L 262.10,118.03 L 266.35,116.73 L 272.25,115.32 L 278.25,113.94 L 283.29,112.69 L 288.76,111.33 L 294.63,109.97 L 300.00,108.59 L 306.49,107.24 L 312.53,106.05 L 317.04,105.00 L 322.36,104.11 L 328.16,103.39 L 339.17,102.49 L 344.73,102.19 L 350.06,101.95 L 355.79,101.78 L 367.85,101.47 L 372.97,101.32 L 377.88,101.19 L 383.51,101.09 L 395.02,100.87 L 400.31,100.79 L 405.90,100.72 L 411.49,100.67 L 422.95,100.57 L 434.18,100.50 L 439.37,100.48 L 451.17,100.41 L 461.58,100.37 L 467.33,100.36 L 478.86,100.33 L 489.45,100.32 L 495.26,100.30 L 506.94,100.29 L 512.22,100.29 L 517.43,100.28 L 523.24,100.28 L 528.90,100.28 L 534.57,100.27 L 539.92,100.27 L 545.39,100.27 L 551.23,100.27 L 556.51,100.27 L 562.13,100.26 L 567.91,100.26 L 573.26,100.26 L 578.90,100.26 L 590.04,100.26 L 596.20,100.26 L 601.35,100.26 L 607.65,100.26 L 613.01,100.26 L 618.54,100.26 L 623.97,100.26 L 629.47,100.27 L 635.57,100.43 L 640.83,101.48 L 647.19,103.33 L 651.50,106.87 L 657.14,112.67 L 662.65,121.06 L 675.07,146.54 L 679.43,162.37 L 685.02,179.37 L 690.98,196.23 L 696.32,212.41 L 702.10,226.79 L 707.35,239.01 L 712.78,248.82 L 719.18,255.85 L 723.82,260.98 L 730.29,264.54 L 735.78,267.06 L 740.59,268.99 L 746.28,270.83 L 752.05,272.62 L 758.03,274.24 L 763.03,275.71 L 768.58,277.06 L 776.00,278.26 L 780.04,279.27 L 791.01,280.90 L 796.36,281.55 L 802.14,282.09 L 807.66,282.54 L 814.91,282.94 L 819.39,283.31 L 824.31,283.61 L 830.01,283.86 L 841.49,284.30 L 846.68,284.50 L 852.36,284.65 L 858.15,284.77 L 863.51,284.88 L 869.41,284.99 L 874.64,285.10 L 880.12,285.17 L 891.56,285.28 L 899.01,285.34 L 902.63,285.38 L 908.04,285.42 L 914.08,285.44 L 919.32,285.48 L 924.96,285.50 L 930.92,285.53" fill="none" stroke="#1769aa" stroke-width="2"/>
<line class="axis" x1="70" y1="308" x2="956" y2="308"/>
<line class="axis" x1="70" y1="78" x2="70" y2="308"/>
<text class="label" x="18" y="193.00" transform="rotate(-90 18 193.00)" text-anchor="middle">degrees</text>
<line x1="70" y1="326" x2="94" y2="326" stroke="#48525f" stroke-width="2" stroke-dasharray="6 4"/>
<text class="label" x="100" y="330">commanded target</text>
<line x1="236" y1="326" x2="260" y2="326" stroke="#1769aa" stroke-width="2"/>
<text class="label" x="266" y="330">actual current</text>
<text class="label" x="513.0" y="348" text-anchor="middle">time relative to event (s)</text>
</svg>