<svg xmlns="http://www.w3.org/2000/svg" viewBox="0 0 980 382" role="img">
<style>
.axis{stroke:#718096;stroke-width:1}.grid{stroke:#e5eaf0;stroke-width:1}.label{font:12px sans-serif;fill:#5a6675}.title{font:700 18px sans-serif;fill:#20242a}.subtitle{font:12px sans-serif;fill:#5a6675}.panel-title{font:700 13px sans-serif;fill:#20242a}
</style>
<rect width="980" height="382" fill="#ffffff"/>
<text class="title" x="70" y="28">Pitch small angle movement: 1.00 deg to -1.00 deg (2.00 deg move).</text>
<text class="subtitle" x="70" y="50">Arrival 187 ms; settling 327 ms; trajectory lag 60 ms.</text>
<line x1="70" y1="76" x2="94" y2="76" stroke="#48525f" stroke-width="2" stroke-dasharray="6 4"/>
<text class="label" x="100" y="80">commanded target</text>
<line x1="236" y1="76" x2="260" y2="76" stroke="#1769aa" stroke-width="2"/>
<text class="label" x="266" y="80">actual current</text>
<text class="panel-title" x="70" y="96">Pitch position</text>
<line class="grid" x1="70" y1="338.00" x2="956" y2="338.00"/>
<text class="label" x="62" y="342.00" text-anchor="end">-1.2</text>
<line class="grid" x1="70" y1="280.50" x2="956" y2="280.50"/>
<text class="label" x="62" y="284.50" text-anchor="end">-0.6</text>
<line class="grid" x1="70" y1="223.00" x2="956" y2="223.00"/>
<text class="label" x="62" y="227.00" text-anchor="end">-0.0</text>
<line class="grid" x1="70" y1="165.50" x2="956" y2="165.50"/>
<text class="label" x="62" y="169.50" text-anchor="end">0.6</text>
<line class="grid" x1="70" y1="108.00" x2="956" y2="108.00"/>
<text class="label" x="62" y="112.00" text-anchor="end">1.2</text>
<line class="grid" x1="70.00" y1="108" x2="70.00" y2="338"/>
<text class="label" x="70.00" y="358" text-anchor="middle">-0.39</text>
<line class="grid" x1="217.67" y1="108" x2="217.67" y2="338"/>
<text class="label" x="217.67" y="358" text-anchor="middle">-0.08</text>
<line class="grid" x1="365.33" y1="108" x2="365.33" y2="338"/>
<text class="label" x="365.33" y="358" text-anchor="middle">0.24</text>
<line class="grid" x1="513.00" y1="108" x2="513.00" y2="338"/>
<text class="label" x="513.00" y="358" text-anchor="middle">0.56</text>
<line class="grid" x1="660.67" y1="108" x2="660.67" y2="338"/>
<text class="label" x="660.67" y="358" text-anchor="middle">0.87</text>
<line class="grid" x1="808.33" y1="108" x2="808.33" y2="338"/>
<text class="label" x="808.33" y="358" text-anchor="middle">1.19</text>
<line class="grid" x1="956.00" y1="108" x2="956.00" y2="338"/>
<text class="label" x="956.00" y="358" text-anchor="middle">1.51</text>
<line x1="254.02" y1="108" x2="254.02" y2="338" stroke="#5a6675" stroke-width="1.2" opacity="0.55"/>
<text class="label" x="258.02" y="120.00" transform="rotate(-35 258.02 120.00)">start</text>
<line x1="638.75" y1="108" x2="638.75" y2="338" stroke="#5a6675" stroke-width="1.2" opacity="0.55"/>
<text class="label" x="642.75" y="120.00" transform="rotate(-35 642.75 120.00)">final target</text>
<line x1="725.86" y1="108" x2="725.86" y2="338" stroke="#347a3a" stroke-width="1.2" opacity="0.55"/>
<text class="label" x="729.86" y="120.00" transform="rotate(-35 729.86 120.00)">arrive</text>
<line x1="791.16" y1="108" x2="791.16" y2="338" stroke="#8a5a00" stroke-width="1.2" opacity="0.55"/>
<text class="label" x="795.16" y="142.00" transform="rotate(-35 795.16 142.00)">settled</text>
<path d="M 95.08,222.75 L 99.72,222.75 L 104.69,222.75 L 109.62,222.75 L 114.13,222.75 L 119.91,222.75 L 123.38,222.75 L 127.98,222.75 L 132.85,222.75 L 137.14,222.75 L 142.06,222.75 L 147.85,222.75 L 151.11,222.75 L 156.02,222.75 L 160.43,222.75 L 165.15,222.75 L 170.01,222.75 L 174.64,222.75 L 179.20,222.75 L 183.80,222.75 L 188.44,222.75 L 193.13,222.75 L 197.80,222.75 L 202.64,222.75 L 207.32,222.75 L 211.91,222.75 L 216.51,222.75 L 221.17,222.75 L 225.87,222.75 L 230.67,222.75 L 235.35,222.75 L 239.95,222.75 L 244.69,222.75 L 249.19,222.75 L 254.14,130.26 L 258.46,130.26 L 263.28,130.26 L 267.79,130.26 L 272.58,130.26 L 277.21,130.26 L 281.88,130.26 L 286.59,130.26 L 291.25,130.26 L 295.95,130.26 L 300.53,130.26 L 309.84,130.26 L 314.52,130.26 L 319.20,130.26 L 323.84,130.26 L 329.23,130.26 L 333.58,130.26 L 337.83,130.26 L 342.77,130.26 L 347.38,130.26 L 352.23,130.26 L 356.84,130.26 L 361.41,130.26 L 365.93,130.26 L 370.49,130.26 L 375.31,130.26 L 384.79,130.26 L 394.04,130.26 L 400.12,130.26 L 403.41,130.26 L 407.88,130.26 L 412.61,130.26 L 417.23,130.26 L 422.95,130.26 L 431.46,130.26 L 436.34,130.26 L 440.71,130.26 L 446.29,130.26 L 450.45,130.26 L 454.75,130.26 L 459.32,130.26 L 464.02,130.26 L 469.24,130.26 L 473.86,130.26 L 478.04,130.26 L 487.53,130.26 L 492.47,130.26 L 496.84,130.26 L 501.63,130.26 L 506.29,130.26 L 510.80,130.26 L 515.38,130.26 L 524.66,130.26 L 529.61,130.26 L 534.17,130.26 L 539.89,130.26 L 543.50,130.26 L 548.11,130.26 L 552.76,130.26 L 557.50,130.26 L 562.69,130.26 L 571.77,130.26 L 576.16,130.26 L 580.81,130.26 L 585.67,130.26 L 590.23,130.26 L 594.73,130.26 L 599.68,130.26 L 604.19,130.26 L 609.07,130.26 L 614.09,130.26 L 618.08,130.26 L 622.76,130.26 L 627.46,130.26 L 632.37,130.26 L 636.85,130.26 L 641.80,315.24 L 646.43,315.24 L 650.84,315.24 L 656.35,315.24 L 664.75,315.24 L 669.72,315.24 L 674.38,315.24 L 679.67,315.24 L 684.26,315.24 L 688.17,315.24 L 693.25,315.24 L 697.52,315.24 L 702.49,315.24 L 711.71,315.24 L 716.48,315.24 L 721.06,315.24 L 725.86,315.24 L 731.23,315.24 L 734.88,315.24 L 739.63,315.24 L 744.19,315.24 L 749.35,315.24 L 754.58,315.24 L 758.23,315.24 L 763.05,315.24 L 767.57,315.24 L 777.20,315.24 L 781.58,315.24 L 786.48,315.24 L 791.16,315.24 L 795.52,315.24 L 800.67,315.24 L 804.96,315.24 L 809.62,315.24 L 814.25,315.24 L 819.33,315.24 L 824.20,315.24 L 828.57,315.24 L 833.03,315.24 L 837.74,315.24 L 842.44,315.24 L 846.91,315.24 L 851.67,315.24 L 856.37,315.24 L 860.95,315.24 L 865.77,315.24 L 874.99,315.24 L 879.64,315.24 L 884.30,315.24 L 889.08,315.24 L 893.68,315.24 L 898.36,315.24 L 902.99,315.24 L 907.87,315.24 L 912.59,315.24 L 917.67,315.24 L 921.60,315.24 L 926.33,315.24 L 930.92,315.24" fill="none" stroke="#48525f" stroke-width="2" stroke-dasharray="6 4"/>
<path d="M 95.08,222.68 L 99.72,222.84 L 104.69,222.84 L 109.62,222.51 L 114.13,222.34 L 119.91,222.51 L 123.38,222.51 L 127.98,222.34 L 132.85,222.34 L 137.14,222.51 L 142.06,222.34 L 147.85,222.34 L 151.11,222.51 L 156.02,222.34 L 160.43,222.34 L 165.15,222.34 L 170.01,222.34 L 174.64,222.34 L 179.20,222.34 L 183.80,222.34 L 188.44,222.34 L 193.13,222.34 L 197.80,222.34 L 202.64,222.34 L 207.32,222.34 L 211.91,222.34 L 216.51,222.34 L 221.17,222.34 L 225.87,222.51 L 230.67,222.34 L 235.35,222.34 L 239.95,222.34 L 244.69,222.34 L 249.19,222.34 L 254.14,222.51 L 258.46,222.34 L 263.28,221.68 L 267.79,217.35 L 272.58,208.36 L 277.21,196.21 L 281.88,183.55 L 286.59,170.73 L 291.25,159.25 L 295.95,151.09 L 300.53,146.59 L 309.84,143.10 L 314.52,141.60 L 319.20,140.60 L 323.84,139.93 L 329.23,139.10 L 333.58,137.93 L 337.83,136.94 L 342.77,136.10 L 347.38,135.44 L 352.23,134.77 L 356.84,134.11 L 361.41,133.61 L 365.93,133.27 L 370.49,132.94 L 375.31,132.61 L 384.79,132.11 L 394.04,131.61 L 400.12,131.44 L 403.41,131.28 L 407.88,131.28 L 412.61,131.11 L 417.23,130.94 L 422.95,130.94 L 431.46,130.78 L 436.34,130.78 L 440.71,130.78 L 446.29,130.61 L 450.45,130.61 L 454.75,130.61 L 459.32,130.61 L 464.02,130.61 L 469.24,130.44 L 473.86,130.44 L 478.04,130.44 L 487.53,130.44 L 492.47,130.44 L 496.84,130.44 L 501.63,130.44 L 506.29,130.44 L 510.80,130.44 L 515.38,130.44 L 524.66,130.44 L 529.61,130.44 L 534.17,130.44 L 539.89,130.44 L 543.50,130.44 L 548.11,130.44 L 552.76,130.44 L 557.50,130.44 L 562.69,130.44 L 571.77,130.44 L 576.16,130.44 L 580.81,130.44 L 585.67,130.44 L 590.23,130.44 L 594.73,130.44 L 599.68,130.44 L 604.19,130.44 L 609.07,130.44 L 614.09,130.44 L 618.08,130.44 L 622.76,130.44 L 627.46,130.44 L 632.37,130.44 L 636.85,130.44 L 641.80,130.44 L 646.43,130.61 L 650.84,133.11 L 656.35,142.76 L 664.75,180.56 L 669.72,204.03 L 674.38,230.00 L 679.67,252.48 L 684.26,269.96 L 688.17,281.11 L 693.25,286.77 L 697.52,289.27 L 702.49,291.27 L 711.71,295.26 L 716.48,297.26 L 721.06,299.26 L 725.86,301.42 L 731.23,303.26 L 734.88,304.75 L 739.63,306.09 L 744.19,307.42 L 749.35,308.58 L 754.58,309.58 L 758.23,310.25 L 763.05,310.91 L 767.57,311.58 L 777.20,312.75 L 781.58,313.08 L 786.48,313.41 L 791.16,313.74 L 795.52,314.08 L 800.67,314.41 L 804.96,314.41 L 809.62,314.74 L 814.25,314.91 L 819.33,315.08 L 824.20,315.24 L 828.57,315.24 L 833.03,315.24 L 837.74,315.41 L 842.44,315.58 L 846.91,315.58 L 851.67,315.58 L 856.37,315.58 L 860.95,315.58 L 865.77,315.74 L 874.99,315.74 L 879.64,315.74 L 884.30,315.74 L 889.08,315.74 L 893.68,315.74 L 898.36,315.74 L 902.99,315.74 L 907.87,315.74 L 912.59,315.74 L 917.67,315.74 L 921.60,315.74 L 926.33,315.74 L 930.92,315.74" fill="none" stroke="#1769aa" stroke-width="2"/>
<line class="axis" x1="70" y1="338" x2="956" y2="338"/>
<line class="axis" x1="70" y1="108" x2="70" y2="338"/>
<text class="label" x="18" y="223.00" transform="rotate(-90 18 223.00)" text-anchor="middle">degrees</text>
<text class="label" x="513.0" y="374" text-anchor="middle">time relative to event (s)</text>
</svg>