<svg xmlns="http://www.w3.org/2000/svg" viewBox="0 0 980 382" role="img">
<style>
.axis{stroke:#718096;stroke-width:1}.grid{stroke:#e5eaf0;stroke-width:1}.label{font:12px sans-serif;fill:#5a6675}.title{font:700 18px sans-serif;fill:#20242a}.subtitle{font:12px sans-serif;fill:#5a6675}.panel-title{font:700 13px sans-serif;fill:#20242a}
</style>
<rect width="980" height="382" fill="#ffffff"/>
<text class="title" x="70" y="28">Yaw large angle movement: 29.02 deg to -0.90 deg (29.92 deg move).</text>
<text class="subtitle" x="70" y="50">Arrival 176 ms; settling 317 ms; trajectory lag 400 ms.</text>
<line x1="70" y1="76" x2="94" y2="76" stroke="#48525f" stroke-width="2" stroke-dasharray="6 4"/>
<text class="label" x="100" y="80">commanded target</text>
<line x1="236" y1="76" x2="260" y2="76" stroke="#c94f2d" stroke-width="2"/>
<text class="label" x="266" y="80">actual current</text>
<text class="panel-title" x="70" y="96">Yaw position</text>
<line class="grid" x1="70" y1="338.00" x2="956" y2="338.00"/>
<text class="label" x="62" y="342.00" text-anchor="end">-4.5</text>
<line class="grid" x1="70" y1="280.50" x2="956" y2="280.50"/>
<text class="label" x="62" y="284.50" text-anchor="end">4.8</text>
<line class="grid" x1="70" y1="223.00" x2="956" y2="223.00"/>
<text class="label" x="62" y="227.00" text-anchor="end">14.2</text>
<line class="grid" x1="70" y1="165.50" x2="956" y2="165.50"/>
<text class="label" x="62" y="169.50" text-anchor="end">23.5</text>
<line class="grid" x1="70" y1="108.00" x2="956" y2="108.00"/>
<text class="label" x="62" y="112.00" text-anchor="end">32.9</text>
<line class="grid" x1="70.00" y1="108" x2="70.00" y2="338"/>
<text class="label" x="70.00" y="358" text-anchor="middle">-0.43</text>
<line class="grid" x1="217.67" y1="108" x2="217.67" y2="338"/>
<text class="label" x="217.67" y="358" text-anchor="middle">0.08</text>
<line class="grid" x1="365.33" y1="108" x2="365.33" y2="338"/>
<text class="label" x="365.33" y="358" text-anchor="middle">0.58</text>
<line class="grid" x1="513.00" y1="108" x2="513.00" y2="338"/>
<text class="label" x="513.00" y="358" text-anchor="middle">1.08</text>
<line class="grid" x1="660.67" y1="108" x2="660.67" y2="338"/>
<text class="label" x="660.67" y="358" text-anchor="middle">1.59</text>
<line class="grid" x1="808.33" y1="108" x2="808.33" y2="338"/>
<text class="label" x="808.33" y="358" text-anchor="middle">2.09</text>
<line class="grid" x1="956.00" y1="108" x2="956.00" y2="338"/>
<text class="label" x="956.00" y="358" text-anchor="middle">2.60</text>
<line x1="195.62" y1="108" x2="195.62" y2="338" stroke="#5a6675" stroke-width="1.2" opacity="0.55"/>
<text class="label" x="199.62" y="120.00" transform="rotate(-35 199.62 120.00)">start</text>
<line x1="753.24" y1="108" x2="753.24" y2="338" stroke="#5a6675" stroke-width="1.2" opacity="0.55"/>
<text class="label" x="757.24" y="120.00" transform="rotate(-35 757.24 120.00)">final target</text>
<line x1="804.68" y1="108" x2="804.68" y2="338" stroke="#347a3a" stroke-width="1.2" opacity="0.55"/>
<text class="label" x="808.68" y="120.00" transform="rotate(-35 808.68 120.00)">arrive</text>
<line x1="845.97" y1="108" x2="845.97" y2="338" stroke="#8a5a00" stroke-width="1.2" opacity="0.55"/>
<text class="label" x="849.97" y="142.00" transform="rotate(-35 849.97 142.00)">settled</text>
<path d="M 95.08,145.96 L 97.89,152.17 L 101.62,152.17 L 103.78,140.90 L 109.58,147.75 L 113.03,147.75 L 116.03,147.75 L 118.47,153.66 L 121.49,157.15 L 124.37,157.15 L 127.46,156.52 L 130.32,156.52 L 132.82,155.09 L 136.26,155.09 L 138.81,153.58 L 141.70,152.90 L 144.84,152.90 L 147.83,152.90 L 150.39,152.90 L 153.53,152.90 L 156.94,149.73 L 159.38,149.73 L 162.47,149.08 L 165.73,147.98 L 171.01,147.98 L 174.36,147.17 L 177.93,146.83 L 183.15,146.53 L 186.21,146.53 L 188.73,146.47 L 191.66,146.47 L 195.67,131.85 L 197.39,131.85 L 201.29,131.85 L 204.19,131.85 L 206.31,131.85 L 209.86,131.85 L 212.10,131.85 L 215.31,131.85 L 218.82,131.85 L 221.24,131.85 L 223.68,131.85 L 227.45,131.85 L 230.32,131.85 L 232.74,131.85 L 235.66,131.85 L 238.86,131.85 L 241.53,131.85 L 245.16,131.85 L 247.42,131.85 L 250.39,131.85 L 254.36,131.85 L 256.29,131.85 L 259.34,131.85 L 262.52,131.85 L 264.86,131.85 L 268.35,131.85 L 271.13,131.85 L 274.45,131.85 L 276.59,131.85 L 279.85,131.85 L 284.21,131.85 L 285.76,131.85 L 288.95,131.85 L 291.58,131.85 L 294.37,131.85 L 297.18,131.85 L 300.33,131.85 L 303.49,131.85 L 307.18,131.85 L 309.23,131.85 L 312.21,131.85 L 316.02,131.85 L 317.83,131.85 L 322.29,131.85 L 327.79,131.85 L 329.47,131.85 L 332.40,131.85 L 335.81,131.85 L 338.49,131.85 L 341.59,131.85 L 344.84,131.85 L 347.07,131.85 L 351.18,131.85 L 352.92,131.85 L 355.83,131.85 L 359.07,131.85 L 361.86,131.85 L 364.64,131.85 L 367.91,131.85 L 370.47,131.85 L 373.58,131.85 L 377.00,131.85 L 379.43,131.85 L 382.55,131.85 L 385.29,131.85 L 388.32,131.85 L 391.04,131.85 L 394.14,131.85 L 397.08,131.85 L 400.47,131.85 L 403.45,131.85 L 405.66,131.85 L 409.72,131.85 L 411.74,131.85 L 414.59,131.85 L 417.46,131.85 L 420.29,131.85 L 423.52,131.85 L 426.48,131.85 L 429.32,131.85 L 432.49,131.85 L 434.99,131.85 L 439.39,131.85 L 440.79,131.85 L 443.68,131.85 L 447.14,131.85 L 450.21,131.85 L 452.68,131.85 L 455.79,131.85 L 458.53,131.85 L 461.62,131.85 L 464.89,131.85 L 467.33,131.85 L 470.14,131.85 L 473.01,131.85 L 476.23,131.85 L 479.21,131.85 L 481.94,131.85 L 485.06,131.85 L 487.83,131.85 L 491.38,131.85 L 493.98,131.85 L 496.68,131.85 L 499.66,131.85 L 502.75,131.85 L 505.39,131.85 L 508.49,131.85 L 511.35,131.85 L 514.41,131.85 L 520.40,131.85 L 523.33,131.85 L 525.81,131.85 L 529.02,131.85 L 531.72,131.85 L 534.63,131.85 L 537.65,131.85 L 540.50,131.85 L 543.66,131.85 L 546.54,131.85 L 549.53,131.85 L 552.38,131.85 L 555.15,131.85 L 558.13,131.85 L 561.35,131.85 L 564.06,131.85 L 566.96,131.85 L 569.80,131.85 L 572.78,131.85 L 575.87,131.85 L 579.56,131.85 L 582.04,131.85 L 584.56,131.85 L 588.23,131.85 L 590.54,131.85 L 593.68,131.85 L 596.46,131.85 L 599.28,131.85 L 602.18,131.85 L 605.32,131.85 L 608.72,131.85 L 611.12,131.85 L 614.01,131.85 L 616.82,131.85 L 619.83,131.85 L 623.42,131.85 L 625.78,131.85 L 628.61,131.85 L 631.47,131.85 L 634.52,131.85 L 637.82,131.85 L 640.36,131.85 L 643.26,131.85 L 646.30,131.85 L 649.21,131.85 L 653.02,131.85 L 655.10,131.85 L 657.91,131.85 L 660.85,131.85 L 663.82,131.85 L 666.69,131.85 L 669.59,131.85 L 672.63,131.85 L 675.44,131.85 L 678.39,131.85 L 681.32,131.85 L 684.50,131.85 L 687.25,131.85 L 690.15,131.85 L 693.46,131.85 L 696.49,131.85 L 699.06,131.85 L 701.91,131.85 L 704.89,131.85 L 707.94,131.85 L 710.88,131.85 L 713.69,131.85 L 716.45,131.85 L 719.66,131.85 L 722.75,131.85 L 725.46,131.85 L 728.31,131.85 L 731.13,131.85 L 734.30,131.85 L 737.11,131.85 L 740.04,131.85 L 742.98,131.85 L 745.82,131.85 L 748.91,131.85 L 751.80,131.85 L 755.27,315.74 L 757.67,315.74 L 760.60,315.74 L 764.02,315.74 L 766.67,315.74 L 769.62,315.74 L 772.54,315.74 L 775.33,315.74 L 778.48,315.74 L 781.39,315.74 L 784.86,315.74 L 787.39,315.74 L 790.14,315.74 L 793.64,315.74 L 796.10,315.74 L 799.43,315.74 L 801.66,315.74 L 804.68,315.74 L 807.87,315.74 L 810.45,315.74 L 813.67,315.74 L 816.82,315.74 L 819.33,315.74 L 822.51,315.74 L 825.66,315.74 L 828.32,315.74 L 831.32,315.74 L 834.05,315.74 L 840.24,315.74 L 842.68,315.74 L 845.97,315.74 L 848.64,315.74 L 851.59,315.74 L 854.55,315.74 L 857.53,315.74 L 860.71,315.74 L 863.28,315.74 L 866.67,315.74 L 870.08,315.74 L 872.51,315.74 L 875.24,315.74 L 877.93,315.74 L 881.08,315.74 L 883.80,315.74 L 887.45,315.74 L 889.95,315.74 L 892.60,315.74 L 895.65,315.74 L 898.50,315.74 L 901.36,315.74 L 904.61,315.74 L 907.38,315.74 L 910.82,315.74 L 913.28,315.74 L 916.52,315.74 L 919.13,315.74 L 921.92,315.74 L 925.01,315.74 L 928.16,315.74 L 930.92,315.74" fill="none" stroke="#48525f" stroke-width="2" stroke-dasharray="6 4"/>
<path d="M 95.08,162.46 L 97.89,161.48 L 101.62,160.49 L 103.78,159.80 L 109.58,157.90 L 113.03,156.74 L 116.03,156.03 L 118.47,155.74 L 121.49,155.22 L 124.37,154.33 L 127.46,153.25 L 130.32,152.40 L 132.82,151.94 L 136.26,151.38 L 138.81,150.26 L 141.70,149.15 L 144.84,148.66 L 147.83,148.74 L 150.39,148.87 L 153.53,149.17 L 156.94,148.82 L 159.38,148.24 L 162.47,146.95 L 165.73,145.78 L 171.01,144.31 L 174.36,144.59 L 177.93,146.01 L 183.15,150.09 L 186.21,152.42 L 188.73,154.30 L 191.66,155.67 L 195.67,156.33 L 197.39,156.38 L 201.29,156.00 L 204.19,155.55 L 206.31,155.11 L 209.86,154.75 L 212.10,154.61 L 215.31,154.44 L 218.82,154.28 L 221.24,154.33 L 223.68,154.23 L 227.45,154.01 L 230.32,153.65 L 232.74,153.25 L 235.66,152.54 L 238.86,151.83 L 241.53,151.47 L 245.16,151.07 L 247.42,150.49 L 250.39,150.06 L 254.36,149.58 L 256.29,149.29 L 259.34,149.01 L 262.52,148.75 L 264.86,148.46 L 268.35,148.09 L 271.13,147.82 L 274.45,147.62 L 276.59,147.42 L 279.85,147.24 L 284.21,147.12 L 285.76,146.93 L 288.95,146.80 L 291.58,146.73 L 294.37,146.69 L 297.18,146.56 L 300.33,146.51 L 303.49,146.47 L 307.18,146.29 L 309.23,145.94 L 312.21,144.84 L 316.02,142.78 L 317.83,139.94 L 322.29,136.65 L 327.79,131.44 L 329.47,130.34 L 332.40,130.26 L 335.81,130.99 L 338.49,131.72 L 341.59,132.53 L 344.84,133.07 L 347.07,133.17 L 351.18,132.92 L 352.92,132.55 L 355.83,132.26 L 359.07,132.03 L 361.86,131.80 L 364.64,131.69 L 367.91,131.69 L 370.47,131.73 L 373.58,131.75 L 377.00,131.82 L 379.43,131.91 L 382.55,131.94 L 385.29,131.93 L 388.32,131.90 L 391.04,131.87 L 394.14,131.86 L 397.08,131.86 L 400.47,131.86 L 403.45,131.86 L 405.66,131.86 L 409.72,131.88 L 411.74,131.88 L 414.59,131.88 L 417.46,131.87 L 420.29,131.86 L 423.52,131.85 L 426.48,131.84 L 429.32,131.85 L 432.49,131.86 L 434.99,131.86 L 439.39,131.86 L 440.79,131.85 L 443.68,131.85 L 447.14,131.84 L 450.21,131.84 L 452.68,131.85 L 455.79,131.85 L 458.53,131.85 L 461.62,131.85 L 464.89,131.85 L 467.33,131.85 L 470.14,131.84 L 473.01,131.84 L 476.23,131.85 L 479.21,131.85 L 481.94,131.85 L 485.06,131.85 L 487.83,131.85 L 491.38,131.85 L 493.98,131.85 L 496.68,131.85 L 499.66,131.84 L 502.75,131.85 L 505.39,131.85 L 508.49,131.85 L 511.35,131.85 L 514.41,131.85 L 520.40,131.85 L 523.33,131.85 L 525.81,131.85 L 529.02,131.85 L 531.72,131.84 L 534.63,131.85 L 537.65,131.85 L 540.50,131.85 L 543.66,131.85 L 546.54,131.85 L 549.53,131.84 L 552.38,131.85 L 555.15,131.85 L 558.13,131.85 L 561.35,131.85 L 564.06,131.85 L 566.96,131.84 L 569.80,131.84 L 572.78,131.84 L 575.87,131.84 L 579.56,131.85 L 582.04,131.84 L 584.56,131.85 L 588.23,131.84 L 590.54,131.84 L 593.68,131.84 L 596.46,131.84 L 599.28,131.84 L 602.18,131.84 L 605.32,131.84 L 608.72,131.84 L 611.12,131.85 L 614.01,131.84 L 616.82,131.84 L 619.83,131.84 L 623.42,131.85 L 625.78,131.84 L 628.61,131.85 L 631.47,131.84 L 634.52,131.84 L 637.82,131.85 L 640.36,131.84 L 643.26,131.85 L 646.30,131.84 L 649.21,131.85 L 653.02,131.84 L 655.10,131.84 L 657.91,131.84 L 660.85,131.84 L 663.82,131.84 L 666.69,131.84 L 669.59,131.84 L 672.63,131.84 L 675.44,131.84 L 678.39,131.85 L 681.32,131.85 L 684.50,131.85 L 687.25,131.85 L 690.15,131.85 L 693.46,131.84 L 696.49,131.84 L 699.06,131.84 L 701.91,131.85 L 704.89,131.85 L 707.94,131.84 L 710.88,131.85 L 713.69,131.85 L 716.45,131.84 L 719.66,131.85 L 722.75,131.84 L 725.46,131.84 L 728.31,131.84 L 731.13,131.84 L 734.30,131.85 L 737.11,131.84 L 740.04,131.84 L 742.98,131.84 L 745.82,131.84 L 748.91,131.85 L 751.80,131.85 L 755.27,131.85 L 757.67,131.96 L 760.60,132.73 L 764.02,134.47 L 766.67,138.06 L 769.62,144.24 L 772.54,153.96 L 775.33,167.14 L 778.48,184.08 L 781.39,203.03 L 784.86,224.76 L 787.39,244.56 L 790.14,263.68 L 793.64,280.24 L 796.10,292.84 L 799.43,301.67 L 801.66,306.54 L 804.68,308.51 L 807.87,308.74 L 810.45,308.54 L 813.67,308.34 L 816.82,308.36 L 819.33,309.13 L 822.51,310.40 L 825.66,311.76 L 828.32,313.00 L 831.32,314.12 L 834.05,314.81 L 840.24,315.04 L 842.68,314.98 L 845.97,314.95 L 848.64,314.87 L 851.59,314.79 L 854.55,314.85 L 857.53,314.97 L 860.71,315.08 L 863.28,315.18 L 866.67,315.26 L 870.08,315.32 L 872.51,315.38 L 875.24,315.43 L 877.93,315.44 L 881.08,315.44 L 883.80,315.44 L 887.45,315.43 L 889.95,315.43 L 892.60,315.43 L 895.65,315.43 L 898.50,315.42 L 901.36,315.41 L 904.61,315.42 L 907.38,315.43 L 910.82,315.43 L 913.28,315.44 L 916.52,315.44 L 919.13,315.44 L 921.92,315.44 L 925.01,315.44 L 928.16,315.44 L 930.92,315.44" fill="none" stroke="#c94f2d" stroke-width="2"/>
<line class="axis" x1="70" y1="338" x2="956" y2="338"/>
<line class="axis" x1="70" y1="108" x2="70" y2="338"/>
<text class="label" x="18" y="223.00" transform="rotate(-90 18 223.00)" text-anchor="middle">degrees</text>
<text class="label" x="513.0" y="374" text-anchor="middle">time relative to event (s)</text>
</svg>