<svg xmlns="http://www.w3.org/2000/svg" viewBox="0 0 980 624" role="img">
<style>
.axis{stroke:#718096;stroke-width:1}.grid{stroke:#e5eaf0;stroke-width:1}.label{font:12px sans-serif;fill:#5a6675}.title{font:700 18px sans-serif;fill:#20242a}.subtitle{font:12px sans-serif;fill:#5a6675}.panel-title{font:700 13px sans-serif;fill:#20242a}
</style>
<rect width="980" height="624" fill="#ffffff"/>
<text class="title" x="70" y="28">Firing response, stable target, non-trivial disturbance: event 77, stable_target=1, valid_disturbance_shot=1, pitch peak 1.83 deg, yaw peak 1.73 deg.</text>
<text class="subtitle" x="70" y="50">Pitch peak 1.83 deg; yaw peak 1.73 deg; vector 2.52 deg.</text>
<text class="panel-title" x="70" y="66">Pitch position</text>
<line class="grid" x1="70" y1="308.00" x2="956" y2="308.00"/>
<text class="label" x="62" y="312.00" text-anchor="end">-11.6</text>
<line class="grid" x1="70" y1="250.50" x2="956" y2="250.50"/>
<text class="label" x="62" y="254.50" text-anchor="end">-11.1</text>
<line class="grid" x1="70" y1="193.00" x2="956" y2="193.00"/>
<text class="label" x="62" y="197.00" text-anchor="end">-10.5</text>
<line class="grid" x1="70" y1="135.50" x2="956" y2="135.50"/>
<text class="label" x="62" y="139.50" text-anchor="end">-9.9</text>
<line class="grid" x1="70" y1="78.00" x2="956" y2="78.00"/>
<text class="label" x="62" y="82.00" text-anchor="end">-9.4</text>
<line class="grid" x1="70.00" y1="78" x2="70.00" y2="308"/>
<line class="grid" x1="217.67" y1="78" x2="217.67" y2="308"/>
<line class="grid" x1="365.33" y1="78" x2="365.33" y2="308"/>
<line class="grid" x1="513.00" y1="78" x2="513.00" y2="308"/>
<line class="grid" x1="660.67" y1="78" x2="660.67" y2="308"/>
<line class="grid" x1="808.33" y1="78" x2="808.33" y2="308"/>
<line class="grid" x1="956.00" y1="78" x2="956.00" y2="308"/>
<line x1="268.94" y1="78" x2="268.94" y2="308" stroke="#20242a" stroke-width="1.2" opacity="0.55"/>
<text class="label" x="272.94" y="90" transform="rotate(-35 272.94 90)">fire</text>
<line x1="388.09" y1="78" x2="388.09" y2="308" stroke="#1769aa" stroke-width="1.2" opacity="0.55"/>
<text class="label" x="392.09" y="90" transform="rotate(-35 392.09 90)">pitch peak</text>
<line x1="451.31" y1="78" x2="451.31" y2="308" stroke="#1769aa" stroke-width="1.2" opacity="0.55"/>
<text class="label" x="455.31" y="90" transform="rotate(-35 455.31 90)">pitch recovered</text>
<line x1="334.54" y1="78" x2="334.54" y2="308" stroke="#c94f2d" stroke-width="1.2" opacity="0.55"/>
<text class="label" x="338.54" y="90" transform="rotate(-35 338.54 90)">yaw peak</text>
<line x1="371.38" y1="78" x2="371.38" y2="308" stroke="#c94f2d" stroke-width="1.2" opacity="0.55"/>
<text class="label" x="375.38" y="90" transform="rotate(-35 375.38 90)">yaw recovered</text>
<path d="M 95.08,100.77 L 111.86,100.77 L 121.05,100.77 L 130.44,100.77 L 147.66,100.77 L 156.57,100.77 L 165.74,100.77 L 174.41,100.77 L 183.55,100.77 L 192.53,100.77 L 203.05,100.77 L 210.73,100.77 L 229.76,100.77 L 236.95,100.77 L 245.81,100.77 L 255.18,100.77 L 263.71,100.77 L 273.12,100.77 L 282.57,100.77 L 299.61,100.77 L 308.56,100.77 L 317.70,100.77 L 326.16,100.77 L 334.17,100.77 L 343.83,100.77 L 352.69,100.77 L 361.17,100.77 L 370.09,100.77 L 379.01,100.77 L 388.09,100.77 L 396.81,100.77 L 405.43,100.77 L 414.48,100.77 L 423.51,100.77 L 432.96,100.77 L 451.31,100.77 L 459.13,100.77 L 467.72,100.77 L 477.38,100.77 L 487.20,100.77 L 503.87,100.77 L 512.24,100.77 L 521.25,100.77 L 531.32,100.77 L 539.46,100.77 L 548.49,100.77 L 556.80,100.77 L 565.74,100.77 L 574.64,100.77 L 583.86,100.77 L 592.56,100.77 L 601.16,100.77 L 610.92,100.77 L 630.06,100.77 L 637.46,100.77 L 646.24,100.77 L 654.96,100.77 L 663.48,100.77 L 674.07,100.77 L 681.35,100.77 L 690.49,100.77 L 699.60,100.77 L 708.88,100.77 L 717.12,100.77 L 725.73,100.77 L 734.40,100.77 L 744.19,100.77 L 752.32,100.77 L 778.77,100.77 L 788.57,100.77 L 797.14,100.77 L 806.01,100.77 L 814.54,100.77 L 823.24,100.77 L 832.29,100.77 L 841.13,100.77 L 851.42,100.77 L 886.22,100.77 L 895.37,100.77 L 903.88,100.77 L 912.18,100.77 L 921.20,100.77 L 930.92,100.77" fill="none" stroke="#48525f" stroke-width="2" stroke-dasharray="6 4"/>
<path d="M 95.08,100.26 L 111.86,100.26 L 121.05,100.26 L 130.44,100.26 L 147.66,100.26 L 156.57,100.26 L 165.74,100.26 L 174.41,100.26 L 183.55,100.44 L 192.53,100.26 L 203.05,100.44 L 210.73,100.44 L 229.76,100.44 L 236.95,100.44 L 245.81,100.44 L 255.18,100.44 L 263.71,100.44 L 273.12,100.44 L 282.57,100.62 L 299.61,100.62 L 308.56,100.81 L 317.70,202.41 L 326.16,217.03 L 334.17,203.51 L 343.83,198.03 L 352.69,167.14 L 361.17,186.70 L 370.09,230.92 L 379.01,277.15 L 388.09,285.74 L 396.81,279.35 L 405.43,264.54 L 414.48,234.57 L 423.51,209.72 L 432.96,188.52 L 451.31,136.44 L 459.13,116.16 L 467.72,109.40 L 477.38,109.58 L 487.20,115.97 L 503.87,121.64 L 512.24,119.81 L 521.25,116.70 L 531.32,114.51 L 539.46,113.60 L 548.49,113.42 L 556.80,112.68 L 565.74,111.77 L 574.64,110.86 L 583.86,109.94 L 592.56,108.66 L 601.16,107.75 L 610.92,107.02 L 630.06,105.74 L 637.46,105.01 L 646.24,104.28 L 654.96,103.91 L 663.48,103.55 L 674.07,103.18 L 681.35,102.63 L 690.49,102.27 L 699.60,102.09 L 708.88,101.90 L 717.12,101.54 L 725.73,101.54 L 734.40,101.17 L 744.19,100.99 L 752.32,100.99 L 778.77,100.62 L 788.57,100.62 L 797.14,100.62 L 806.01,100.62 L 814.54,100.44 L 823.24,100.44 L 832.29,100.44 L 841.13,100.44 L 851.42,100.44 L 886.22,100.44 L 895.37,100.44 L 903.88,100.44 L 912.18,100.44 L 921.20,100.44 L 930.92,100.44" fill="none" stroke="#1769aa" stroke-width="2"/>
<line class="axis" x1="70" y1="308" x2="956" y2="308"/>
<line class="axis" x1="70" y1="78" x2="70" y2="308"/>
<text class="label" x="18" y="193.00" transform="rotate(-90 18 193.00)" text-anchor="middle">degrees</text>
<text class="panel-title" x="70" y="334">Yaw position</text>
<line class="grid" x1="70" y1="576.00" x2="956" y2="576.00"/>
<text class="label" x="62" y="580.00" text-anchor="end">1.3</text>
<line class="grid" x1="70" y1="518.50" x2="956" y2="518.50"/>
<text class="label" x="62" y="522.50" text-anchor="end">1.8</text>
<line class="grid" x1="70" y1="461.00" x2="956" y2="461.00"/>
<text class="label" x="62" y="465.00" text-anchor="end">2.4</text>
<line class="grid" x1="70" y1="403.50" x2="956" y2="403.50"/>
<text class="label" x="62" y="407.50" text-anchor="end">2.9</text>
<line class="grid" x1="70" y1="346.00" x2="956" y2="346.00"/>
<text class="label" x="62" y="350.00" text-anchor="end">3.5</text>
<line class="grid" x1="70.00" y1="346" x2="70.00" y2="576"/>
<text class="label" x="70.00" y="596" text-anchor="middle">-0.22</text>
<line class="grid" x1="217.67" y1="346" x2="217.67" y2="576"/>
<text class="label" x="217.67" y="596" text-anchor="middle">-0.06</text>
<line class="grid" x1="365.33" y1="346" x2="365.33" y2="576"/>
<text class="label" x="365.33" y="596" text-anchor="middle">0.11</text>
<line class="grid" x1="513.00" y1="346" x2="513.00" y2="576"/>
<text class="label" x="513.00" y="596" text-anchor="middle">0.28</text>
<line class="grid" x1="660.67" y1="346" x2="660.67" y2="576"/>
<text class="label" x="660.67" y="596" text-anchor="middle">0.44</text>
<line class="grid" x1="808.33" y1="346" x2="808.33" y2="576"/>
<text class="label" x="808.33" y="596" text-anchor="middle">0.61</text>
<line class="grid" x1="956.00" y1="346" x2="956.00" y2="576"/>
<text class="label" x="956.00" y="596" text-anchor="middle">0.77</text>
<line x1="268.94" y1="346" x2="268.94" y2="576" stroke="#20242a" stroke-width="1.2" opacity="0.55"/>
<line x1="388.09" y1="346" x2="388.09" y2="576" stroke="#1769aa" stroke-width="1.2" opacity="0.55"/>
<line x1="451.31" y1="346" x2="451.31" y2="576" stroke="#1769aa" stroke-width="1.2" opacity="0.55"/>
<line x1="334.54" y1="346" x2="334.54" y2="576" stroke="#c94f2d" stroke-width="1.2" opacity="0.55"/>
<line x1="371.38" y1="346" x2="371.38" y2="576" stroke="#c94f2d" stroke-width="1.2" opacity="0.55"/>
<path d="M 104.74,374.32 L 112.23,374.32 L 121.54,374.32 L 139.94,374.32 L 148.18,374.32 L 156.96,374.32 L 166.24,374.32 L 174.85,374.32 L 184.89,374.32 L 193.97,374.32 L 201.25,374.32 L 210.27,374.32 L 219.49,374.32 L 236.53,374.32 L 245.40,374.32 L 254.69,374.32 L 263.31,374.32 L 274.28,374.32 L 282.03,374.32 L 291.08,374.32 L 299.11,374.32 L 307.99,374.32 L 334.54,374.32 L 343.38,374.32 L 352.27,374.32 L 363.93,374.32 L 371.38,374.32 L 388.58,374.32 L 397.28,374.32 L 407.74,374.32 L 415.70,374.32 L 425.54,374.32 L 432.55,374.32 L 441.75,374.32 L 450.36,374.32 L 468.12,374.32 L 476.90,374.32 L 485.95,374.32 L 495.30,374.32 L 504.40,374.32 L 512.66,374.32 L 521.78,374.32 L 530.63,374.32 L 539.00,374.32 L 549.21,374.32 L 557.32,374.32 L 566.28,374.32 L 575.07,374.32 L 585.15,374.32 L 593.52,374.32 L 601.67,374.32 L 612.59,374.32 L 619.33,374.32 L 627.73,374.32 L 636.71,374.32 L 645.41,374.32 L 654.35,374.32 L 665.83,374.32 L 672.58,374.32 L 689.89,374.32 L 707.99,374.32 L 718.36,374.32 L 726.39,374.32 L 735.28,374.32 L 743.40,374.32 L 754.35,374.32 L 761.18,374.32 L 770.24,374.32 L 779.17,374.32 L 787.79,374.32 L 796.67,374.32 L 815.11,374.32 L 823.66,374.32 L 832.85,374.32 L 842.54,374.32 L 853.83,374.32 L 859.18,374.32 L 868.09,374.32 L 876.88,374.32 L 885.62,374.32 L 896.34,374.32 L 903.34,374.32 L 912.58,374.32 L 921.63,374.32" fill="none" stroke="#48525f" stroke-width="2" stroke-dasharray="6 4"/>
<path d="M 104.74,374.40 L 112.23,374.40 L 121.54,374.40 L 139.94,374.40 L 148.18,374.40 L 156.96,374.40 L 166.24,374.40 L 174.85,374.40 L 184.89,374.40 L 193.97,374.40 L 201.25,374.40 L 210.27,374.40 L 219.49,374.40 L 236.53,374.40 L 245.40,374.40 L 254.69,374.40 L 263.31,374.40 L 274.28,374.40 L 282.03,374.40 L 291.08,374.40 L 299.11,374.40 L 307.99,374.59 L 334.54,553.74 L 343.38,508.86 L 352.27,475.90 L 363.93,435.67 L 371.38,404.39 L 388.58,385.95 L 397.28,383.90 L 407.74,375.71 L 415.70,386.88 L 425.54,394.89 L 432.55,395.08 L 441.75,389.86 L 450.36,383.53 L 468.12,369.75 L 476.90,368.26 L 485.95,369.38 L 495.30,371.24 L 504.40,372.91 L 512.66,375.33 L 521.78,377.76 L 530.63,378.31 L 539.00,377.76 L 549.21,376.82 L 557.32,376.27 L 566.28,375.89 L 575.07,375.52 L 585.15,375.15 L 593.52,374.96 L 601.67,374.96 L 612.59,374.78 L 619.33,374.78 L 627.73,374.59 L 636.71,374.59 L 645.41,374.78 L 654.35,375.15 L 665.83,374.96 L 672.58,374.78 L 689.89,374.40 L 707.99,374.40 L 718.36,374.22 L 726.39,374.40 L 735.28,374.40 L 743.40,374.59 L 754.35,374.59 L 761.18,374.40 L 770.24,374.40 L 779.17,374.40 L 787.79,374.22 L 796.67,374.40 L 815.11,374.40 L 823.66,374.40 L 832.85,374.40 L 842.54,374.40 L 853.83,374.40 L 859.18,374.40 L 868.09,374.40 L 876.88,374.40 L 885.62,374.40 L 896.34,374.40 L 903.34,374.40 L 912.58,374.40 L 921.63,374.40" fill="none" stroke="#c94f2d" stroke-width="2"/>
<line class="axis" x1="70" y1="576" x2="956" y2="576"/>
<line class="axis" x1="70" y1="346" x2="70" y2="576"/>
<text class="label" x="18" y="461.00" transform="rotate(-90 18 461.00)" text-anchor="middle">degrees</text>
<line x1="70" y1="594" x2="94" y2="594" stroke="#48525f" stroke-width="2" stroke-dasharray="6 4"/>
<text class="label" x="100" y="598">pitch target</text>
<line x1="208" y1="594" x2="232" y2="594" stroke="#1769aa" stroke-width="2"/>
<text class="label" x="238" y="598">pitch actual</text>
<line x1="346" y1="594" x2="370" y2="594" stroke="#48525f" stroke-width="2" stroke-dasharray="6 4"/>
<text class="label" x="376" y="598">yaw target</text>
<line x1="476" y1="594" x2="500" y2="594" stroke="#c94f2d" stroke-width="2"/>
<text class="label" x="506" y="598">yaw actual</text>
<text class="label" x="513.0" y="616" text-anchor="middle">time relative to event (s)</text>
</svg>