<svg xmlns="http://www.w3.org/2000/svg" viewBox="0 0 980 624" role="img">
<style>
.axis{stroke:#718096;stroke-width:1}.grid{stroke:#e5eaf0;stroke-width:1}.label{font:12px sans-serif;fill:#5a6675}.title{font:700 18px sans-serif;fill:#20242a}.subtitle{font:12px sans-serif;fill:#5a6675}.panel-title{font:700 13px sans-serif;fill:#20242a}
</style>
<rect width="980" height="624" fill="#ffffff"/>
<text class="title" x="70" y="28">Firing response, not-stable target: event 174, stable_target=0, valid_disturbance_shot=0, pitch peak 3.72 deg, yaw peak 1.97 deg.</text>
<text class="subtitle" x="70" y="50">Pitch peak 3.72 deg; yaw peak 1.97 deg; vector 4.21 deg.</text>
<text class="panel-title" x="70" y="66">Pitch position</text>
<line class="grid" x1="70" y1="308.00" x2="956" y2="308.00"/>
<text class="label" x="62" y="312.00" text-anchor="end">-1.5</text>
<line class="grid" x1="70" y1="250.50" x2="956" y2="250.50"/>
<text class="label" x="62" y="254.50" text-anchor="end">1.8</text>
<line class="grid" x1="70" y1="193.00" x2="956" y2="193.00"/>
<text class="label" x="62" y="197.00" text-anchor="end">5.0</text>
<line class="grid" x1="70" y1="135.50" x2="956" y2="135.50"/>
<text class="label" x="62" y="139.50" text-anchor="end">8.3</text>
<line class="grid" x1="70" y1="78.00" x2="956" y2="78.00"/>
<text class="label" x="62" y="82.00" text-anchor="end">11.6</text>
<line class="grid" x1="70.00" y1="78" x2="70.00" y2="308"/>
<line class="grid" x1="217.67" y1="78" x2="217.67" y2="308"/>
<line class="grid" x1="365.33" y1="78" x2="365.33" y2="308"/>
<line class="grid" x1="513.00" y1="78" x2="513.00" y2="308"/>
<line class="grid" x1="660.67" y1="78" x2="660.67" y2="308"/>
<line class="grid" x1="808.33" y1="78" x2="808.33" y2="308"/>
<line class="grid" x1="956.00" y1="78" x2="956.00" y2="308"/>
<line x1="269.94" y1="78" x2="269.94" y2="308" stroke="#20242a" stroke-width="1.2" opacity="0.55"/>
<text class="label" x="273.94" y="90" transform="rotate(-35 273.94 90)">fire</text>
<line x1="305.67" y1="78" x2="305.67" y2="308" stroke="#6b7280" stroke-width="1.2" opacity="0.55"/>
<text class="label" x="309.67" y="90" transform="rotate(-35 309.67 90)">muzzle</text>
<line x1="393.85" y1="78" x2="393.85" y2="308" stroke="#6b7280" stroke-width="1.2" opacity="0.55"/>
<text class="label" x="397.85" y="90" transform="rotate(-35 397.85 90)">impact</text>
<line x1="411.33" y1="78" x2="411.33" y2="308" stroke="#1769aa" stroke-width="1.2" opacity="0.55"/>
<text class="label" x="415.33" y="90" transform="rotate(-35 415.33 90)">pitch peak</text>
<line x1="602.42" y1="78" x2="602.42" y2="308" stroke="#1769aa" stroke-width="1.2" opacity="0.55"/>
<text class="label" x="606.42" y="90" transform="rotate(-35 606.42 90)">pitch recovered</text>
<line x1="539.80" y1="78" x2="539.80" y2="308" stroke="#c94f2d" stroke-width="1.2" opacity="0.55"/>
<text class="label" x="543.80" y="90" transform="rotate(-35 543.80 90)">yaw peak</text>
<line x1="595.83" y1="78" x2="595.83" y2="308" stroke="#c94f2d" stroke-width="1.2" opacity="0.55"/>
<text class="label" x="599.83" y="90" transform="rotate(-35 599.83 90)">yaw recovered</text>
<path d="M 95.67,230.29 L 117.36,226.70 L 121.79,224.46 L 131.33,224.38 L 140.36,224.38 L 150.86,220.94 L 160.40,219.71 L 165.90,219.71 L 176.16,223.15 L 183.68,222.79 L 196.46,222.79 L 202.95,220.09 L 210.67,220.09 L 219.59,218.66 L 241.12,215.35 L 246.08,211.92 L 256.00,211.92 L 264.26,208.85 L 272.78,205.73 L 282.08,205.73 L 291.54,201.38 L 299.97,201.38 L 309.79,198.12 L 327.60,193.11 L 347.14,189.70 L 353.53,187.90 L 372.97,186.15 L 380.69,186.15 L 390.07,186.15 L 397.61,166.33 L 411.33,151.76 L 418.83,151.76 L 427.15,146.55 L 441.83,146.55 L 451.04,146.55 L 460.03,146.55 L 468.56,135.54 L 477.27,135.54 L 486.37,135.54 L 495.48,127.83 L 504.90,127.83 L 523.37,127.83 L 530.78,159.92 L 539.34,159.92 L 548.95,159.92 L 557.79,159.92 L 565.94,154.35 L 576.14,154.35 L 583.98,154.35 L 593.84,154.35 L 602.42,149.36 L 610.18,147.54 L 619.56,147.54 L 629.04,147.54 L 637.02,147.54 L 655.10,140.95 L 664.07,140.95 L 673.57,138.52 L 681.79,138.52 L 695.55,134.81 L 700.53,134.81 L 709.93,133.23 L 716.85,131.02 L 726.01,131.02 L 735.06,128.99 L 744.18,128.99 L 753.35,128.99 L 763.02,124.72 L 770.35,124.72 L 780.58,124.72 L 788.40,124.72 L 797.02,124.72 L 805.95,124.72 L 815.20,124.72 L 824.70,115.72 L 832.34,115.72 L 842.11,115.72 L 850.19,111.31 L 861.16,111.31 L 869.51,111.31 L 877.80,106.77 L 886.18,106.77 L 894.41,106.77 L 905.50,106.77 L 912.91,102.39 L 921.96,100.26 L 930.35,100.26" fill="none" stroke="#48525f" stroke-width="2" stroke-dasharray="6 4"/>
<path d="M 95.67,285.74 L 117.36,278.11 L 121.79,271.71 L 131.33,264.05 L 140.36,256.26 L 150.86,248.67 L 160.40,242.71 L 165.90,237.66 L 176.16,234.13 L 183.68,231.93 L 196.46,230.38 L 202.95,229.25 L 210.67,228.62 L 219.59,228.02 L 241.12,226.38 L 246.08,225.31 L 256.00,224.01 L 264.26,222.31 L 272.78,220.55 L 282.08,218.81 L 291.54,217.14 L 299.97,215.34 L 309.79,213.39 L 327.60,230.63 L 347.14,229.18 L 353.53,222.69 L 372.97,226.13 L 380.69,232.65 L 390.07,233.72 L 397.61,233.12 L 411.33,226.28 L 418.83,217.20 L 427.15,210.11 L 441.83,194.91 L 451.04,186.06 L 460.03,178.65 L 468.56,173.85 L 477.27,169.32 L 486.37,165.09 L 495.48,161.34 L 504.90,157.27 L 523.37,149.61 L 530.78,146.84 L 539.34,144.09 L 548.95,141.79 L 557.79,140.78 L 565.94,141.51 L 576.14,142.77 L 583.98,144.35 L 593.84,146.68 L 602.42,149.49 L 610.18,151.44 L 619.56,152.42 L 629.04,152.23 L 637.02,151.50 L 655.10,150.15 L 664.07,149.61 L 673.57,149.17 L 681.79,148.76 L 695.55,148.19 L 700.53,147.28 L 709.93,145.95 L 716.85,144.47 L 726.01,142.74 L 735.06,140.91 L 744.18,139.40 L 753.35,138.17 L 763.02,136.87 L 770.35,135.80 L 780.58,134.83 L 788.40,134.04 L 797.02,133.25 L 805.95,132.33 L 815.20,131.29 L 824.70,130.25 L 832.34,129.37 L 842.11,128.36 L 850.19,126.82 L 861.16,125.08 L 869.51,123.82 L 877.80,122.66 L 886.18,121.14 L 894.41,119.54 L 905.50,118.02 L 912.91,116.51 L 921.96,114.77 L 930.35,113.07" fill="none" stroke="#1769aa" stroke-width="2"/>
<line class="axis" x1="70" y1="308" x2="956" y2="308"/>
<line class="axis" x1="70" y1="78" x2="70" y2="308"/>
<text class="label" x="18" y="193.00" transform="rotate(-90 18 193.00)" text-anchor="middle">degrees</text>
<text class="panel-title" x="70" y="334">Yaw position</text>
<line class="grid" x1="70" y1="576.00" x2="956" y2="576.00"/>
<text class="label" x="62" y="580.00" text-anchor="end">-8.9</text>
<line class="grid" x1="70" y1="518.50" x2="956" y2="518.50"/>
<text class="label" x="62" y="522.50" text-anchor="end">-7.6</text>
<line class="grid" x1="70" y1="461.00" x2="956" y2="461.00"/>
<text class="label" x="62" y="465.00" text-anchor="end">-6.3</text>
<line class="grid" x1="70" y1="403.50" x2="956" y2="403.50"/>
<text class="label" x="62" y="407.50" text-anchor="end">-5.0</text>
<line class="grid" x1="70" y1="346.00" x2="956" y2="346.00"/>
<text class="label" x="62" y="350.00" text-anchor="end">-3.7</text>
<line class="grid" x1="70.00" y1="346" x2="70.00" y2="576"/>
<text class="label" x="70.00" y="596" text-anchor="middle">-0.23</text>
<line class="grid" x1="217.67" y1="346" x2="217.67" y2="576"/>
<text class="label" x="217.67" y="596" text-anchor="middle">-0.06</text>
<line class="grid" x1="365.33" y1="346" x2="365.33" y2="576"/>
<text class="label" x="365.33" y="596" text-anchor="middle">0.11</text>
<line class="grid" x1="513.00" y1="346" x2="513.00" y2="576"/>
<text class="label" x="513.00" y="596" text-anchor="middle">0.27</text>
<line class="grid" x1="660.67" y1="346" x2="660.67" y2="576"/>
<text class="label" x="660.67" y="596" text-anchor="middle">0.44</text>
<line class="grid" x1="808.33" y1="346" x2="808.33" y2="576"/>
<text class="label" x="808.33" y="596" text-anchor="middle">0.61</text>
<line class="grid" x1="956.00" y1="346" x2="956.00" y2="576"/>
<text class="label" x="956.00" y="596" text-anchor="middle">0.77</text>
<line x1="269.94" y1="346" x2="269.94" y2="576" stroke="#20242a" stroke-width="1.2" opacity="0.55"/>
<line x1="305.67" y1="346" x2="305.67" y2="576" stroke="#6b7280" stroke-width="1.2" opacity="0.55"/>
<line x1="393.85" y1="346" x2="393.85" y2="576" stroke="#6b7280" stroke-width="1.2" opacity="0.55"/>
<line x1="411.33" y1="346" x2="411.33" y2="576" stroke="#1769aa" stroke-width="1.2" opacity="0.55"/>
<line x1="602.42" y1="346" x2="602.42" y2="576" stroke="#1769aa" stroke-width="1.2" opacity="0.55"/>
<line x1="539.80" y1="346" x2="539.80" y2="576" stroke="#c94f2d" stroke-width="1.2" opacity="0.55"/>
<line x1="595.83" y1="346" x2="595.83" y2="576" stroke="#c94f2d" stroke-width="1.2" opacity="0.55"/>
<path d="M 95.08,374.26 L 105.16,374.26 L 115.38,374.72 L 122.80,375.68 L 130.70,375.01 L 139.20,375.01 L 149.09,375.44 L 157.42,376.38 L 170.48,376.38 L 175.11,378.07 L 184.80,380.87 L 193.36,380.87 L 202.35,382.59 L 212.20,382.59 L 220.22,383.61 L 228.96,383.61 L 237.51,383.88 L 246.56,384.41 L 258.59,384.41 L 263.76,384.46 L 273.26,383.83 L 285.33,383.83 L 290.96,383.08 L 300.98,383.08 L 309.07,381.54 L 318.02,381.54 L 326.33,379.82 L 336.31,379.82 L 343.97,381.55 L 352.89,381.54 L 362.91,381.53 L 371.42,381.53 L 380.03,381.53 L 388.41,381.53 L 398.26,378.08 L 407.45,378.08 L 415.49,380.79 L 424.04,370.62 L 433.51,370.62 L 443.23,370.62 L 450.59,370.62 L 459.47,370.62 L 469.35,369.23 L 477.98,369.23 L 487.17,369.23 L 496.00,368.26 L 512.85,368.26 L 522.07,368.26 L 532.99,462.67 L 539.80,462.67 L 551.29,462.67 L 558.60,462.67 L 566.37,471.17 L 575.44,471.17 L 584.48,471.17 L 595.83,471.17 L 611.32,481.56 L 620.24,481.56 L 631.27,481.56 L 637.86,481.56 L 646.39,481.56 L 655.63,491.63 L 664.83,491.63 L 673.11,495.34 L 682.80,495.34 L 691.93,495.34 L 702.47,503.41 L 709.15,503.41 L 718.81,506.78 L 729.22,509.88 L 736.19,509.88 L 743.75,509.88 L 752.74,509.88 L 762.31,516.40 L 772.22,516.40 L 779.52,516.40 L 787.75,516.40 L 797.77,516.40 L 805.53,516.40 L 816.33,516.40 L 823.70,530.13 L 832.73,530.13 L 841.50,530.13 L 851.75,536.88 L 859.43,536.88 L 868.16,536.88 L 876.79,543.80 L 886.95,543.80 L 895.39,543.80 L 903.43,543.80 L 912.32,550.48 L 921.47,553.74 L 930.92,553.74" fill="none" stroke="#48525f" stroke-width="2" stroke-dasharray="6 4"/>
<path d="M 95.08,379.68 L 105.16,378.72 L 115.38,377.68 L 122.80,376.64 L 130.70,376.00 L 139.20,375.52 L 149.09,375.20 L 157.42,374.88 L 170.48,374.73 L 175.11,374.81 L 184.80,375.12 L 193.36,375.60 L 202.35,376.48 L 212.20,377.52 L 220.22,378.64 L 228.96,379.84 L 237.51,380.80 L 246.56,381.68 L 258.59,382.40 L 263.76,382.96 L 273.26,383.43 L 285.33,383.67 L 290.96,383.91 L 300.98,384.07 L 309.07,384.15 L 318.02,416.36 L 326.33,450.64 L 336.31,450.56 L 343.97,449.12 L 352.89,425.07 L 362.91,402.13 L 371.42,389.51 L 380.03,386.15 L 388.41,385.75 L 398.26,386.87 L 407.45,390.39 L 415.49,392.46 L 424.04,390.31 L 433.51,385.75 L 443.23,380.00 L 450.59,374.41 L 459.47,370.49 L 469.35,369.93 L 477.98,369.93 L 487.17,370.41 L 496.00,370.57 L 512.85,371.29 L 522.07,371.77 L 532.99,371.45 L 539.80,370.97 L 551.29,374.17 L 558.60,381.92 L 566.37,394.86 L 575.44,413.88 L 584.48,433.78 L 595.83,451.12 L 611.32,474.85 L 620.24,477.80 L 631.27,477.01 L 637.86,475.97 L 646.39,474.61 L 655.63,473.57 L 664.83,474.21 L 673.11,477.25 L 682.80,481.00 L 691.93,485.08 L 702.47,488.67 L 709.15,492.03 L 718.81,495.78 L 729.22,498.82 L 736.19,500.98 L 743.75,502.02 L 752.74,502.98 L 762.31,503.61 L 772.22,504.57 L 779.52,505.61 L 787.75,506.01 L 797.77,506.65 L 805.53,508.01 L 816.33,509.93 L 823.70,511.77 L 832.73,514.56 L 841.50,518.24 L 851.75,521.59 L 859.43,524.63 L 868.16,527.59 L 876.79,529.50 L 886.95,531.58 L 895.39,533.42 L 903.43,535.98 L 912.32,537.74 L 921.47,538.69 L 930.92,540.21" fill="none" stroke="#c94f2d" stroke-width="2"/>
<line class="axis" x1="70" y1="576" x2="956" y2="576"/>
<line class="axis" x1="70" y1="346" x2="70" y2="576"/>
<text class="label" x="18" y="461.00" transform="rotate(-90 18 461.00)" text-anchor="middle">degrees</text>
<line x1="70" y1="594" x2="94" y2="594" stroke="#48525f" stroke-width="2" stroke-dasharray="6 4"/>
<text class="label" x="100" y="598">pitch target</text>
<line x1="208" y1="594" x2="232" y2="594" stroke="#1769aa" stroke-width="2"/>
<text class="label" x="238" y="598">pitch actual</text>
<line x1="346" y1="594" x2="370" y2="594" stroke="#48525f" stroke-width="2" stroke-dasharray="6 4"/>
<text class="label" x="376" y="598">yaw target</text>
<line x1="476" y1="594" x2="500" y2="594" stroke="#c94f2d" stroke-width="2"/>
<text class="label" x="506" y="598">yaw actual</text>
<text class="label" x="513.0" y="616" text-anchor="middle">time relative to event (s)</text>
</svg>