<svg xmlns="http://www.w3.org/2000/svg" viewBox="0 0 980 624" role="img">
<style>
.axis{stroke:#718096;stroke-width:1}.grid{stroke:#e5eaf0;stroke-width:1}.label{font:12px sans-serif;fill:#5a6675}.title{font:700 18px sans-serif;fill:#20242a}.subtitle{font:12px sans-serif;fill:#5a6675}.panel-title{font:700 13px sans-serif;fill:#20242a}
</style>
<rect width="980" height="624" fill="#ffffff"/>
<text class="title" x="70" y="28">Firing response, stable target, trivial disturbance: event 38, stable_target=1, valid_disturbance_shot=0, pitch peak 0.00 deg, yaw peak 0.00 deg.</text>
<text class="subtitle" x="70" y="50">Pitch peak 0.00 deg; yaw peak 0.00 deg; vector 0.00 deg.</text>
<text class="panel-title" x="70" y="66">Pitch position</text>
<line class="grid" x1="70" y1="308.00" x2="956" y2="308.00"/>
<text class="label" x="62" y="312.00" text-anchor="end">-2.1</text>
<line class="grid" x1="70" y1="250.50" x2="956" y2="250.50"/>
<text class="label" x="62" y="254.50" text-anchor="end">-2.1</text>
<line class="grid" x1="70" y1="193.00" x2="956" y2="193.00"/>
<text class="label" x="62" y="197.00" text-anchor="end">-2.0</text>
<line class="grid" x1="70" y1="135.50" x2="956" y2="135.50"/>
<text class="label" x="62" y="139.50" text-anchor="end">-1.9</text>
<line class="grid" x1="70" y1="78.00" x2="956" y2="78.00"/>
<text class="label" x="62" y="82.00" text-anchor="end">-1.9</text>
<line class="grid" x1="70.00" y1="78" x2="70.00" y2="308"/>
<line class="grid" x1="217.67" y1="78" x2="217.67" y2="308"/>
<line class="grid" x1="365.33" y1="78" x2="365.33" y2="308"/>
<line class="grid" x1="513.00" y1="78" x2="513.00" y2="308"/>
<line class="grid" x1="660.67" y1="78" x2="660.67" y2="308"/>
<line class="grid" x1="808.33" y1="78" x2="808.33" y2="308"/>
<line class="grid" x1="956.00" y1="78" x2="956.00" y2="308"/>
<line x1="270.08" y1="78" x2="270.08" y2="308" stroke="#20242a" stroke-width="1.2" opacity="0.55"/>
<text class="label" x="274.08" y="90" transform="rotate(-35 274.08 90)">fire</text>
<line x1="290.99" y1="78" x2="290.99" y2="308" stroke="#1769aa" stroke-width="1.2" opacity="0.55"/>
<text class="label" x="294.99" y="90" transform="rotate(-35 294.99 90)">pitch peak</text>
<line x1="290.99" y1="78" x2="290.99" y2="308" stroke="#1769aa" stroke-width="1.2" opacity="0.55"/>
<text class="label" x="294.99" y="90" transform="rotate(-35 294.99 90)">pitch recovered</text>
<line x1="272.96" y1="78" x2="272.96" y2="308" stroke="#c94f2d" stroke-width="1.2" opacity="0.55"/>
<text class="label" x="276.96" y="90" transform="rotate(-35 276.96 90)">yaw peak</text>
<line x1="272.96" y1="78" x2="272.96" y2="308" stroke="#c94f2d" stroke-width="1.2" opacity="0.55"/>
<text class="label" x="276.96" y="90" transform="rotate(-35 276.96 90)">yaw recovered</text>
<path d="M 95.08,196.57 L 105.31,196.57 L 122.11,196.57 L 130.07,196.57 L 139.26,196.57 L 148.22,196.57 L 157.15,196.57 L 165.90,196.57 L 174.89,196.57 L 185.95,196.57 L 194.19,196.57 L 201.16,196.57 L 210.69,196.57 L 219.73,196.57 L 229.31,196.57 L 237.51,196.57 L 247.89,196.57 L 255.20,196.57 L 263.50,196.57 L 272.52,196.57 L 281.66,196.57 L 290.99,196.57 L 299.93,196.57 L 308.09,196.57 L 317.50,196.57 L 326.49,196.57 L 335.25,196.57 L 343.82,196.57 L 353.15,196.57 L 362.04,196.57 L 372.73,196.57 L 380.34,196.57 L 388.62,196.57 L 398.07,196.57 L 408.95,196.57 L 415.45,196.57 L 423.80,196.57 L 432.92,196.57 L 441.59,196.57 L 452.89,196.57 L 459.67,196.57 L 469.12,196.57 L 477.26,196.57 L 485.79,196.57 L 495.61,196.57 L 503.69,196.57 L 513.16,196.57 L 521.50,196.57 L 530.51,196.57 L 540.06,196.57 L 548.01,196.57 L 557.41,196.57 L 565.98,196.57 L 574.74,196.57 L 583.88,196.57 L 592.65,196.57 L 602.11,196.57 L 610.37,196.57 L 619.24,196.57 L 629.01,196.57 L 637.48,196.57 L 646.44,196.57 L 655.34,196.57 L 664.07,196.57 L 672.88,196.57 L 681.89,196.57 L 692.85,196.57 L 700.20,196.57 L 708.62,196.57 L 717.86,196.57 L 726.81,196.57 L 734.85,196.57 L 743.93,196.57 L 752.72,196.57 L 763.48,196.57 L 770.59,196.57 L 780.47,196.57 L 788.42,196.57 L 797.12,196.57 L 808.99,196.57 L 815.11,196.57 L 824.14,196.57 L 832.98,196.57 L 841.55,196.57 L 851.41,196.57 L 859.56,196.57 L 868.21,196.57 L 877.49,196.57 L 886.27,196.57 L 896.49,196.57 L 906.20,196.57 L 913.16,196.57 L 921.90,196.57 L 930.92,196.57" fill="none" stroke="#48525f" stroke-width="2" stroke-dasharray="6 4"/>
<path d="M 95.08,191.44 L 105.31,191.44 L 122.11,191.44 L 130.07,191.44 L 139.26,191.44 L 148.22,191.44 L 157.15,191.44 L 165.90,191.44 L 174.89,191.44 L 185.95,191.44 L 194.19,191.44 L 201.16,191.44 L 210.69,191.44 L 219.73,191.44 L 229.31,191.44 L 237.51,191.44 L 247.89,191.44 L 255.20,191.44 L 263.50,191.44 L 272.52,191.44 L 281.66,191.44 L 290.99,193.45 L 299.93,191.44 L 308.09,189.43 L 317.50,189.43 L 326.49,189.43 L 335.25,191.44 L 343.82,191.44 L 353.15,189.43 L 362.04,189.43 L 372.73,191.44 L 380.34,191.44 L 388.62,191.44 L 398.07,189.43 L 408.95,191.44 L 415.45,189.43 L 423.80,189.43 L 432.92,191.44 L 441.59,189.43 L 452.89,189.43 L 459.67,189.43 L 469.12,191.44 L 477.26,189.43 L 485.79,189.43 L 495.61,189.43 L 503.69,189.43 L 513.16,189.43 L 521.50,191.44 L 530.51,189.43 L 540.06,189.43 L 548.01,189.43 L 557.41,189.43 L 565.98,191.44 L 574.74,189.43 L 583.88,189.43 L 592.65,189.43 L 602.11,189.43 L 610.37,189.43 L 619.24,191.44 L 629.01,189.43 L 637.48,191.44 L 646.44,191.44 L 655.34,189.43 L 664.07,189.43 L 672.88,191.44 L 681.89,189.43 L 692.85,189.43 L 700.20,191.44 L 708.62,191.44 L 717.86,191.44 L 726.81,189.43 L 734.85,189.43 L 743.93,189.43 L 752.72,191.44 L 763.48,189.43 L 770.59,189.43 L 780.47,189.43 L 788.42,189.43 L 797.12,191.44 L 808.99,191.44 L 815.11,189.43 L 824.14,189.43 L 832.98,189.43 L 841.55,189.43 L 851.41,191.44 L 859.56,191.44 L 868.21,189.43 L 877.49,191.44 L 886.27,189.43 L 896.49,191.44 L 906.20,189.43 L 913.16,189.43 L 921.90,189.43 L 930.92,191.44" fill="none" stroke="#1769aa" stroke-width="2"/>
<line class="axis" x1="70" y1="308" x2="956" y2="308"/>
<line class="axis" x1="70" y1="78" x2="70" y2="308"/>
<text class="label" x="18" y="193.00" transform="rotate(-90 18 193.00)" text-anchor="middle">degrees</text>
<text class="panel-title" x="70" y="334">Yaw position</text>
<line class="grid" x1="70" y1="576.00" x2="956" y2="576.00"/>
<text class="label" x="62" y="580.00" text-anchor="end">-0.1</text>
<line class="grid" x1="70" y1="518.50" x2="956" y2="518.50"/>
<text class="label" x="62" y="522.50" text-anchor="end">-0.0</text>
<line class="grid" x1="70" y1="461.00" x2="956" y2="461.00"/>
<text class="label" x="62" y="465.00" text-anchor="end">0.0</text>
<line class="grid" x1="70" y1="403.50" x2="956" y2="403.50"/>
<text class="label" x="62" y="407.50" text-anchor="end">0.1</text>
<line class="grid" x1="70" y1="346.00" x2="956" y2="346.00"/>
<text class="label" x="62" y="350.00" text-anchor="end">0.1</text>
<line class="grid" x1="70.00" y1="346" x2="70.00" y2="576"/>
<text class="label" x="70.00" y="596" text-anchor="middle">-0.23</text>
<line class="grid" x1="217.67" y1="346" x2="217.67" y2="576"/>
<text class="label" x="217.67" y="596" text-anchor="middle">-0.06</text>
<line class="grid" x1="365.33" y1="346" x2="365.33" y2="576"/>
<text class="label" x="365.33" y="596" text-anchor="middle">0.11</text>
<line class="grid" x1="513.00" y1="346" x2="513.00" y2="576"/>
<text class="label" x="513.00" y="596" text-anchor="middle">0.27</text>
<line class="grid" x1="660.67" y1="346" x2="660.67" y2="576"/>
<text class="label" x="660.67" y="596" text-anchor="middle">0.44</text>
<line class="grid" x1="808.33" y1="346" x2="808.33" y2="576"/>
<text class="label" x="808.33" y="596" text-anchor="middle">0.61</text>
<line class="grid" x1="956.00" y1="346" x2="956.00" y2="576"/>
<text class="label" x="956.00" y="596" text-anchor="middle">0.77</text>
<line x1="270.08" y1="346" x2="270.08" y2="576" stroke="#20242a" stroke-width="1.2" opacity="0.55"/>
<line x1="290.99" y1="346" x2="290.99" y2="576" stroke="#1769aa" stroke-width="1.2" opacity="0.55"/>
<line x1="290.99" y1="346" x2="290.99" y2="576" stroke="#1769aa" stroke-width="1.2" opacity="0.55"/>
<line x1="272.96" y1="346" x2="272.96" y2="576" stroke="#c94f2d" stroke-width="1.2" opacity="0.55"/>
<line x1="272.96" y1="346" x2="272.96" y2="576" stroke="#c94f2d" stroke-width="1.2" opacity="0.55"/>
<path d="M 97.38,460.66 L 103.89,460.66 L 112.79,460.66 L 121.36,460.66 L 130.48,460.66 L 139.93,460.66 L 150.06,460.66 L 156.72,460.66 L 166.52,460.66 L 174.49,460.66 L 183.58,460.66 L 193.01,460.66 L 201.53,460.66 L 211.25,460.66 L 219.32,460.66 L 231.00,460.66 L 237.08,460.66 L 246.94,460.66 L 254.73,460.66 L 263.89,460.66 L 272.96,460.66 L 282.15,460.66 L 290.55,460.66 L 299.37,460.66 L 308.50,460.66 L 318.21,460.66 L 326.02,460.66 L 335.72,460.66 L 344.30,460.66 L 352.69,460.66 L 361.55,460.66 L 370.84,460.66 L 379.71,460.66 L 389.24,460.66 L 406.57,460.66 L 415.04,460.66 L 425.28,460.66 L 433.45,460.66 L 442.00,460.66 L 451.18,460.66 L 459.20,460.66 L 468.33,460.66 L 478.03,460.66 L 486.18,460.66 L 494.91,460.66 L 504.19,460.66 L 512.68,460.66 L 521.94,460.66 L 530.96,460.66 L 541.95,460.66 L 548.38,460.66 L 557.03,460.66 L 566.42,460.66 L 575.13,460.66 L 584.39,460.66 L 593.11,460.66 L 601.65,460.66 L 610.80,460.66 L 619.63,460.66 L 628.50,460.66 L 637.07,460.66 L 648.13,460.66 L 654.90,460.66 L 673.40,460.66 L 682.31,460.66 L 690.82,460.66 L 699.63,460.66 L 708.21,460.66 L 717.32,460.66 L 727.31,460.66 L 735.23,460.66 L 744.38,460.66 L 753.96,460.66 L 762.07,460.66 L 770.96,460.66 L 779.38,460.66 L 789.00,460.66 L 797.50,460.66 L 806.86,460.66 L 817.09,460.66 L 824.81,460.66 L 833.51,460.66 L 841.93,460.66 L 851.99,460.66 L 861.33,460.66 L 868.60,460.66 L 878.60,460.66 L 886.83,460.66 L 895.74,460.66 L 904.81,460.66 L 912.75,460.66 L 922.48,460.66 L 930.54,460.66" fill="none" stroke="#48525f" stroke-width="2" stroke-dasharray="6 4"/>
<path d="M 97.38,462.03 L 103.89,459.97 L 112.79,459.97 L 121.36,462.03 L 130.48,462.03 L 139.93,462.03 L 150.06,462.03 L 156.72,459.97 L 166.52,462.03 L 174.49,462.03 L 183.58,462.03 L 193.01,459.97 L 201.53,462.03 L 211.25,459.97 L 219.32,459.97 L 231.00,459.97 L 237.08,462.03 L 246.94,459.97 L 254.73,459.97 L 263.89,462.03 L 272.96,462.03 L 282.15,459.97 L 290.55,462.03 L 299.37,459.97 L 308.50,459.97 L 318.21,462.03 L 326.02,459.97 L 335.72,459.97 L 344.30,462.03 L 352.69,459.97 L 361.55,462.03 L 370.84,462.03 L 379.71,459.97 L 389.24,459.97 L 406.57,459.97 L 415.04,462.03 L 425.28,462.03 L 433.45,459.97 L 442.00,459.97 L 451.18,462.03 L 459.20,462.03 L 468.33,459.97 L 478.03,462.03 L 486.18,459.97 L 494.91,462.03 L 504.19,462.03 L 512.68,462.03 L 521.94,459.97 L 530.96,459.97 L 541.95,459.97 L 548.38,462.03 L 557.03,459.97 L 566.42,459.97 L 575.13,459.97 L 584.39,459.97 L 593.11,459.97 L 601.65,459.97 L 610.80,459.97 L 619.63,459.97 L 628.50,462.03 L 637.07,462.03 L 648.13,462.03 L 654.90,462.03 L 673.40,459.97 L 682.31,459.97 L 690.82,462.03 L 699.63,459.97 L 708.21,459.97 L 717.32,459.97 L 727.31,459.97 L 735.23,462.03 L 744.38,459.97 L 753.96,459.97 L 762.07,462.03 L 770.96,459.97 L 779.38,462.03 L 789.00,459.97 L 797.50,462.03 L 806.86,459.97 L 817.09,459.97 L 824.81,459.97 L 833.51,459.97 L 841.93,459.97 L 851.99,462.03 L 861.33,459.97 L 868.60,462.03 L 878.60,462.03 L 886.83,462.03 L 895.74,462.03 L 904.81,462.03 L 912.75,459.97 L 922.48,462.03 L 930.54,459.97" fill="none" stroke="#c94f2d" stroke-width="2"/>
<line class="axis" x1="70" y1="576" x2="956" y2="576"/>
<line class="axis" x1="70" y1="346" x2="70" y2="576"/>
<text class="label" x="18" y="461.00" transform="rotate(-90 18 461.00)" text-anchor="middle">degrees</text>
<line x1="70" y1="594" x2="94" y2="594" stroke="#48525f" stroke-width="2" stroke-dasharray="6 4"/>
<text class="label" x="100" y="598">pitch target</text>
<line x1="208" y1="594" x2="232" y2="594" stroke="#1769aa" stroke-width="2"/>
<text class="label" x="238" y="598">pitch actual</text>
<line x1="346" y1="594" x2="370" y2="594" stroke="#48525f" stroke-width="2" stroke-dasharray="6 4"/>
<text class="label" x="376" y="598">yaw target</text>
<line x1="476" y1="594" x2="500" y2="594" stroke="#c94f2d" stroke-width="2"/>
<text class="label" x="506" y="598">yaw actual</text>
<text class="label" x="513.0" y="616" text-anchor="middle">time relative to event (s)</text>
</svg>