<svg xmlns="http://www.w3.org/2000/svg" viewBox="0 0 980 382" role="img">
<style>
.axis{stroke:#718096;stroke-width:1}.grid{stroke:#e5eaf0;stroke-width:1}.label{font:12px sans-serif;fill:#5a6675}.title{font:700 18px sans-serif;fill:#20242a}.subtitle{font:12px sans-serif;fill:#5a6675}.panel-title{font:700 13px sans-serif;fill:#20242a}
</style>
<rect width="980" height="382" fill="#ffffff"/>
<text class="title" x="70" y="28">Yaw 10-12 deg median-arrival: episode 1298</text>
<text class="subtitle" x="70" y="50">Arrival 51 ms; settling not observed; trajectory lag 70 ms.</text>
<line x1="70" y1="76" x2="94" y2="76" stroke="#48525f" stroke-width="2" stroke-dasharray="6 4"/>
<text class="label" x="100" y="80">commanded target</text>
<line x1="236" y1="76" x2="260" y2="76" stroke="#c94f2d" stroke-width="2"/>
<text class="label" x="266" y="80">actual current</text>
<text class="panel-title" x="70" y="96">Yaw position</text>
<line class="grid" x1="70" y1="338.00" x2="956" y2="338.00"/>
<text class="label" x="62" y="342.00" text-anchor="end">-5.1</text>
<line class="grid" x1="70" y1="280.50" x2="956" y2="280.50"/>
<text class="label" x="62" y="284.50" text-anchor="end">2.7</text>
<line class="grid" x1="70" y1="223.00" x2="956" y2="223.00"/>
<text class="label" x="62" y="227.00" text-anchor="end">10.6</text>
<line class="grid" x1="70" y1="165.50" x2="956" y2="165.50"/>
<text class="label" x="62" y="169.50" text-anchor="end">18.4</text>
<line class="grid" x1="70" y1="108.00" x2="956" y2="108.00"/>
<text class="label" x="62" y="112.00" text-anchor="end">26.3</text>
<line class="grid" x1="70.00" y1="108" x2="70.00" y2="338"/>
<text class="label" x="70.00" y="358" text-anchor="middle">-0.39</text>
<line class="grid" x1="217.67" y1="108" x2="217.67" y2="338"/>
<text class="label" x="217.67" y="358" text-anchor="middle">-0.14</text>
<line class="grid" x1="365.33" y1="108" x2="365.33" y2="338"/>
<text class="label" x="365.33" y="358" text-anchor="middle">0.11</text>
<line class="grid" x1="513.00" y1="108" x2="513.00" y2="338"/>
<text class="label" x="513.00" y="358" text-anchor="middle">0.36</text>
<line class="grid" x1="660.67" y1="108" x2="660.67" y2="338"/>
<text class="label" x="660.67" y="358" text-anchor="middle">0.60</text>
<line class="grid" x1="808.33" y1="108" x2="808.33" y2="338"/>
<text class="label" x="808.33" y="358" text-anchor="middle">0.85</text>
<line class="grid" x1="956.00" y1="108" x2="956.00" y2="338"/>
<text class="label" x="956.00" y="358" text-anchor="middle">1.10</text>
<line x1="300.93" y1="108" x2="300.93" y2="338" stroke="#5a6675" stroke-width="1.2" opacity="0.55"/>
<text class="label" x="304.93" y="120.00" transform="rotate(-35 304.93 120.00)">start</text>
<line x1="816.40" y1="108" x2="816.40" y2="338" stroke="#5a6675" stroke-width="1.2" opacity="0.55"/>
<text class="label" x="820.40" y="120.00" transform="rotate(-35 820.40 120.00)">final target</text>
<line x1="847.01" y1="108" x2="847.01" y2="338" stroke="#347a3a" stroke-width="1.2" opacity="0.55"/>
<text class="label" x="851.01" y="120.00" transform="rotate(-35 851.01 120.00)">arrive</text>
<line x1="877.01" y1="108" x2="877.01" y2="338" stroke="#9a3412" stroke-width="1.2" opacity="0.55"/>
<text class="label" x="881.01" y="164.00" transform="rotate(-35 881.01 164.00)">next target</text>
<path d="M 95.08,315.12 L 101.13,315.12 L 107.19,315.12 L 112.75,315.12 L 118.83,315.12 L 131.07,315.12 L 136.49,310.26 L 144.90,305.76 L 155.89,302.13 L 161.87,302.13 L 166.42,298.27 L 173.30,292.99 L 180.49,292.99 L 185.16,289.09 L 190.67,289.09 L 196.32,286.96 L 202.44,286.96 L 214.61,277.69 L 226.36,275.71 L 232.46,271.15 L 239.86,271.15 L 244.53,266.18 L 256.48,262.82 L 262.30,262.82 L 268.56,260.22 L 292.05,208.60 L 300.60,208.60 L 304.20,210.31 L 310.34,210.31 L 316.06,206.62 L 322.25,201.82 L 329.52,201.82 L 333.90,199.42 L 340.37,199.42 L 346.08,197.39 L 351.49,196.84 L 359.10,196.84 L 364.01,193.98 L 371.01,192.21 L 375.66,192.21 L 381.35,188.54 L 388.51,188.54 L 393.86,185.41 L 399.88,183.20 L 405.31,183.20 L 411.35,180.78 L 418.96,180.78 L 423.53,178.86 L 429.74,178.64 L 436.51,178.64 L 442.27,177.22 L 447.50,177.22 L 453.29,176.32 L 459.17,175.00 L 465.49,175.00 L 470.90,173.33 L 478.63,173.33 L 483.00,171.28 L 488.83,170.30 L 496.88,170.30 L 501.02,168.68 L 508.49,168.68 L 512.81,167.95 L 518.78,167.43 L 525.56,167.43 L 530.55,167.43 L 538.71,165.99 L 542.78,165.17 L 548.68,165.17 L 556.77,164.50 L 561.92,163.20 L 567.08,163.20 L 573.64,161.67 L 579.64,160.40 L 588.53,160.40 L 592.11,158.90 L 600.07,158.90 L 603.55,157.72 L 610.17,157.41 L 614.79,157.41 L 620.38,156.47 L 627.69,156.47 L 632.81,156.47 L 644.30,154.72 L 650.49,153.88 L 656.83,153.88 L 662.55,153.09 L 667.78,151.69 L 673.71,151.69 L 680.09,149.98 L 686.53,149.98 L 691.84,148.82 L 697.99,148.82 L 704.01,147.67 L 710.05,146.40 L 717.28,146.40 L 721.76,145.32 L 728.26,145.04 L 733.79,145.04 L 739.96,144.07 L 746.51,144.07 L 751.88,143.49 L 758.03,142.67 L 764.10,142.67 L 770.55,141.61 L 775.75,141.61 L 781.96,140.50 L 788.42,139.50 L 793.34,139.50 L 799.33,138.46 L 806.96,138.46 L 811.76,135.63 L 816.89,132.55 L 823.29,132.55 L 829.24,132.46 L 837.41,132.46 L 841.36,134.57 L 847.01,134.92 L 852.89,134.92 L 860.18,134.56 L 865.09,134.56 L 871.36,135.05 L 877.93,134.62 L 885.00,134.62 L 889.91,133.17 L 895.97,133.17 L 900.58,131.97 L 907.77,130.97 L 913.17,130.97 L 919.79,130.84 L 924.95,130.84 L 930.92,130.26" fill="none" stroke="#48525f" stroke-width="2" stroke-dasharray="6 4"/>
<path d="M 95.08,309.85 L 101.13,311.56 L 107.19,313.01 L 112.75,314.45 L 118.83,315.44 L 131.07,315.74 L 136.49,315.43 L 144.90,314.87 L 155.89,312.51 L 161.87,310.82 L 166.42,308.79 L 173.30,306.36 L 180.49,303.86 L 185.16,300.78 L 190.67,298.42 L 196.32,295.91 L 202.44,293.37 L 214.61,288.97 L 226.36,284.51 L 232.46,282.45 L 239.86,280.65 L 244.53,278.39 L 256.48,273.49 L 262.30,270.73 L 268.56,268.34 L 292.05,260.66 L 300.60,258.82 L 304.20,256.25 L 310.34,252.28 L 316.06,245.86 L 322.25,237.04 L 329.52,227.11 L 333.90,218.02 L 340.37,210.22 L 346.08,204.53 L 351.49,201.36 L 359.10,200.13 L 364.01,200.09 L 371.01,200.14 L 375.66,200.07 L 381.35,199.47 L 388.51,198.21 L 393.86,196.05 L 399.88,193.52 L 405.31,191.03 L 411.35,188.66 L 418.96,186.49 L 423.53,184.42 L 429.74,182.99 L 436.51,181.84 L 442.27,181.06 L 447.50,180.47 L 453.29,179.70 L 459.17,178.98 L 465.49,178.44 L 470.90,177.75 L 478.63,177.03 L 483.00,176.12 L 488.83,175.16 L 496.88,174.00 L 501.02,172.92 L 508.49,172.02 L 512.81,171.00 L 518.78,170.12 L 525.56,169.29 L 530.55,168.63 L 538.71,168.14 L 542.78,167.67 L 548.68,167.17 L 556.77,166.76 L 561.92,166.35 L 567.08,165.95 L 573.64,165.27 L 579.64,164.61 L 588.53,163.79 L 592.11,162.88 L 600.07,162.08 L 603.55,161.18 L 610.17,160.46 L 614.79,159.73 L 620.38,159.06 L 627.69,158.51 L 632.81,157.91 L 644.30,157.08 L 650.49,156.45 L 656.83,156.00 L 662.55,155.62 L 667.78,155.16 L 673.71,154.62 L 680.09,153.88 L 686.53,153.17 L 691.84,152.31 L 697.99,151.49 L 704.01,150.68 L 710.05,149.86 L 717.28,149.15 L 721.76,148.36 L 728.26,147.64 L 733.79,146.97 L 739.96,146.40 L 746.51,145.93 L 751.88,145.38 L 758.03,144.88 L 764.10,144.47 L 770.55,144.01 L 775.75,143.61 L 781.96,143.11 L 788.42,150.17 L 793.34,152.80 L 799.33,154.54 L 806.96,154.67 L 811.76,151.40 L 816.89,148.12 L 823.29,144.55 L 829.24,142.88 L 837.41,141.14 L 841.36,138.22 L 847.01,136.07 L 852.89,134.70 L 860.18,134.20 L 865.09,134.45 L 871.36,134.63 L 877.93,135.04 L 885.00,135.32 L 889.91,135.45 L 895.97,135.58 L 900.58,135.46 L 907.77,135.03 L 913.17,134.28 L 919.79,133.45 L 924.95,132.71 L 930.92,132.07" fill="none" stroke="#c94f2d" stroke-width="2"/>
<line class="axis" x1="70" y1="338" x2="956" y2="338"/>
<line class="axis" x1="70" y1="108" x2="70" y2="338"/>
<text class="label" x="18" y="223.00" transform="rotate(-90 18 223.00)" text-anchor="middle">degrees</text>
<text class="label" x="513.0" y="374" text-anchor="middle">time relative to event (s)</text>
</svg>