<svg xmlns="http://www.w3.org/2000/svg" viewBox="0 0 980 382" role="img">
<style>
.axis{stroke:#718096;stroke-width:1}.grid{stroke:#e5eaf0;stroke-width:1}.label{font:12px sans-serif;fill:#5a6675}.title{font:700 18px sans-serif;fill:#20242a}.subtitle{font:12px sans-serif;fill:#5a6675}.panel-title{font:700 13px sans-serif;fill:#20242a}
</style>
<rect width="980" height="382" fill="#ffffff"/>
<text class="title" x="70" y="28">Yaw 10-12 deg high-arrival: episode 2733</text>
<text class="subtitle" x="70" y="50">Arrival 125 ms; settling 275 ms; trajectory lag 40 ms.</text>
<line x1="70" y1="76" x2="94" y2="76" stroke="#48525f" stroke-width="2" stroke-dasharray="6 4"/>
<text class="label" x="100" y="80">commanded target</text>
<line x1="236" y1="76" x2="260" y2="76" stroke="#c94f2d" stroke-width="2"/>
<text class="label" x="266" y="80">actual current</text>
<text class="panel-title" x="70" y="96">Yaw position</text>
<line class="grid" x1="70" y1="338.00" x2="956" y2="338.00"/>
<text class="label" x="62" y="342.00" text-anchor="end">-13.2</text>
<line class="grid" x1="70" y1="280.50" x2="956" y2="280.50"/>
<text class="label" x="62" y="284.50" text-anchor="end">-9.5</text>
<line class="grid" x1="70" y1="223.00" x2="956" y2="223.00"/>
<text class="label" x="62" y="227.00" text-anchor="end">-5.9</text>
<line class="grid" x1="70" y1="165.50" x2="956" y2="165.50"/>
<text class="label" x="62" y="169.50" text-anchor="end">-2.2</text>
<line class="grid" x1="70" y1="108.00" x2="956" y2="108.00"/>
<text class="label" x="62" y="112.00" text-anchor="end">1.4</text>
<line class="grid" x1="70.00" y1="108" x2="70.00" y2="338"/>
<text class="label" x="70.00" y="358" text-anchor="middle">-0.38</text>
<line class="grid" x1="217.67" y1="108" x2="217.67" y2="338"/>
<text class="label" x="217.67" y="358" text-anchor="middle">-0.11</text>
<line class="grid" x1="365.33" y1="108" x2="365.33" y2="338"/>
<text class="label" x="365.33" y="358" text-anchor="middle">0.15</text>
<line class="grid" x1="513.00" y1="108" x2="513.00" y2="338"/>
<text class="label" x="513.00" y="358" text-anchor="middle">0.42</text>
<line class="grid" x1="660.67" y1="108" x2="660.67" y2="338"/>
<text class="label" x="660.67" y="358" text-anchor="middle">0.69</text>
<line class="grid" x1="808.33" y1="108" x2="808.33" y2="338"/>
<text class="label" x="808.33" y="358" text-anchor="middle">0.95</text>
<line class="grid" x1="956.00" y1="108" x2="956.00" y2="338"/>
<text class="label" x="956.00" y="358" text-anchor="middle">1.22</text>
<line x1="280.89" y1="108" x2="280.89" y2="338" stroke="#5a6675" stroke-width="1.2" opacity="0.55"/>
<text class="label" x="284.89" y="120.00" transform="rotate(-35 284.89 120.00)">start</text>
<line x1="613.82" y1="108" x2="613.82" y2="338" stroke="#5a6675" stroke-width="1.2" opacity="0.55"/>
<text class="label" x="617.82" y="120.00" transform="rotate(-35 617.82 120.00)">final target</text>
<line x1="682.86" y1="108" x2="682.86" y2="338" stroke="#347a3a" stroke-width="1.2" opacity="0.55"/>
<text class="label" x="686.86" y="120.00" transform="rotate(-35 686.86 120.00)">arrive</text>
<line x1="765.86" y1="108" x2="765.86" y2="338" stroke="#8a5a00" stroke-width="1.2" opacity="0.55"/>
<text class="label" x="769.86" y="142.00" transform="rotate(-35 769.86 142.00)">settled</text>
<path d="M 95.08,278.01 L 100.58,278.01 L 106.10,279.93 L 112.76,279.93 L 117.13,281.81 L 122.44,283.54 L 130.38,283.54 L 134.66,285.37 L 139.19,285.37 L 145.35,287.39 L 150.23,288.94 L 157.79,288.94 L 161.87,291.04 L 168.12,291.04 L 173.15,292.92 L 178.59,294.69 L 184.30,294.69 L 190.20,296.64 L 195.91,296.64 L 200.52,298.60 L 206.42,298.60 L 211.52,300.47 L 217.27,302.06 L 222.16,302.06 L 233.44,304.26 L 239.28,305.87 L 245.05,307.66 L 250.19,307.66 L 255.83,309.75 L 260.96,311.42 L 273.44,313.30 L 279.61,313.30 L 284.24,315.44 L 288.73,315.44 L 294.25,315.44 L 300.26,315.44 L 306.05,315.44 L 311.45,315.44 L 316.37,315.44 L 323.78,315.44 L 327.30,315.44 L 332.76,315.44 L 338.92,315.44 L 343.98,315.44 L 350.78,315.44 L 355.27,315.44 L 360.45,315.44 L 366.61,315.44 L 371.70,315.44 L 378.57,315.44 L 383.16,315.44 L 389.82,315.44 L 394.37,315.44 L 399.27,315.44 L 415.86,315.44 L 421.83,315.44 L 426.83,315.44 L 433.86,315.44 L 437.94,315.44 L 443.55,315.44 L 449.51,315.44 L 454.75,315.44 L 460.63,315.44 L 466.46,315.44 L 471.46,315.44 L 476.88,315.44 L 482.48,315.44 L 488.00,315.44 L 494.97,315.44 L 499.25,315.44 L 504.99,315.44 L 510.18,315.44 L 515.70,315.44 L 521.71,315.44 L 526.56,315.44 L 532.55,315.44 L 537.95,315.44 L 543.45,315.44 L 550.19,315.44 L 554.73,315.44 L 559.99,315.44 L 565.38,315.44 L 571.45,315.44 L 581.96,315.44 L 588.03,315.44 L 593.00,315.44 L 598.85,315.44 L 604.62,315.44 L 610.34,315.44 L 615.53,130.26 L 620.98,130.26 L 627.47,130.26 L 632.46,130.26 L 637.55,130.26 L 643.38,130.26 L 648.71,130.26 L 655.09,130.26 L 660.36,130.26 L 666.18,130.26 L 670.89,130.26 L 676.51,130.26 L 682.86,130.26 L 692.93,130.26 L 698.76,130.26 L 704.05,130.26 L 710.40,130.26 L 720.80,130.26 L 726.56,130.26 L 731.82,130.26 L 738.13,130.26 L 743.02,130.26 L 748.33,130.26 L 754.17,130.26 L 759.16,130.26 L 765.86,130.26 L 771.08,130.26 L 775.85,130.26 L 781.46,130.26 L 786.93,130.26 L 793.59,130.26 L 798.69,130.26 L 803.49,130.26 L 809.19,130.26 L 814.52,130.26 L 820.31,130.26 L 831.60,130.26 L 837.13,130.26 L 842.61,130.26 L 848.84,130.26 L 853.77,130.26 L 858.85,130.26 L 864.55,130.26 L 870.00,130.26 L 875.72,130.26 L 886.64,130.26 L 892.21,130.26 L 897.76,130.26 L 903.77,130.26 L 909.20,130.26 L 914.33,130.26 L 919.96,130.26 L 925.29,130.26 L 930.92,130.26" fill="none" stroke="#48525f" stroke-width="2" stroke-dasharray="6 4"/>
<path d="M 95.08,272.64 L 100.58,273.61 L 106.10,274.74 L 112.76,275.79 L 117.13,276.93 L 122.44,278.09 L 130.38,279.23 L 134.66,280.45 L 139.19,281.50 L 145.35,282.69 L 150.23,283.69 L 157.79,284.79 L 161.87,285.99 L 168.12,286.98 L 173.15,288.15 L 178.59,289.31 L 184.30,290.36 L 190.20,291.61 L 195.91,292.60 L 200.52,293.77 L 206.42,294.87 L 211.52,295.87 L 217.27,297.03 L 222.16,298.14 L 233.44,300.41 L 239.28,301.55 L 245.05,302.71 L 250.19,303.87 L 255.83,304.95 L 260.96,306.06 L 273.44,308.33 L 279.61,309.44 L 284.24,310.57 L 288.73,311.63 L 294.25,312.68 L 300.26,313.56 L 306.05,314.24 L 311.45,314.72 L 316.37,315.17 L 323.78,315.51 L 327.30,315.69 L 332.76,315.71 L 338.92,315.71 L 343.98,315.69 L 350.78,315.69 L 355.27,315.63 L 360.45,315.60 L 366.61,315.60 L 371.70,315.66 L 378.57,315.69 L 383.16,315.71 L 389.82,315.71 L 394.37,315.74 L 399.27,315.74 L 415.86,315.71 L 421.83,315.71 L 426.83,315.71 L 433.86,315.71 L 437.94,315.74 L 443.55,315.74 L 449.51,315.74 L 454.75,315.74 L 460.63,315.74 L 466.46,315.74 L 471.46,315.74 L 476.88,315.74 L 482.48,315.74 L 488.00,315.74 L 494.97,315.74 L 499.25,315.74 L 504.99,315.74 L 510.18,315.74 L 515.70,315.74 L 521.71,315.74 L 526.56,315.74 L 532.55,315.74 L 537.95,315.74 L 543.45,315.74 L 550.19,315.74 L 554.73,315.74 L 559.99,315.74 L 565.38,315.74 L 571.45,315.74 L 581.96,315.74 L 588.03,315.74 L 593.00,315.74 L 598.85,315.74 L 604.62,315.74 L 610.34,315.74 L 615.53,315.74 L 620.98,315.60 L 627.47,313.98 L 632.46,310.55 L 637.55,302.85 L 643.38,288.68 L 648.71,266.06 L 655.09,238.40 L 660.36,207.97 L 666.18,180.31 L 670.89,158.14 L 676.51,142.07 L 682.86,134.18 L 692.93,134.43 L 698.76,136.96 L 704.05,139.66 L 710.40,140.85 L 720.80,138.21 L 726.56,135.85 L 731.82,133.81 L 738.13,131.93 L 743.02,130.80 L 748.33,130.49 L 754.17,130.68 L 759.16,130.94 L 765.86,131.11 L 771.08,131.37 L 775.85,131.59 L 781.46,131.59 L 786.93,131.42 L 793.59,131.28 L 798.69,131.17 L 803.49,131.05 L 809.19,130.97 L 814.52,130.91 L 820.31,130.83 L 831.60,130.80 L 837.13,130.77 L 842.61,130.77 L 848.84,130.77 L 853.77,130.77 L 858.85,130.77 L 864.55,130.77 L 870.00,130.77 L 875.72,130.77 L 886.64,130.74 L 892.21,130.74 L 897.76,130.71 L 903.77,130.71 L 909.20,130.71 L 914.33,130.71 L 919.96,130.68 L 925.29,130.68 L 930.92,130.71" fill="none" stroke="#c94f2d" stroke-width="2"/>
<line class="axis" x1="70" y1="338" x2="956" y2="338"/>
<line class="axis" x1="70" y1="108" x2="70" y2="338"/>
<text class="label" x="18" y="223.00" transform="rotate(-90 18 223.00)" text-anchor="middle">degrees</text>
<text class="label" x="513.0" y="374" text-anchor="middle">time relative to event (s)</text>
</svg>