<svg xmlns="http://www.w3.org/2000/svg" viewBox="0 0 980 382" role="img">
<style>
.axis{stroke:#718096;stroke-width:1}.grid{stroke:#e5eaf0;stroke-width:1}.label{font:12px sans-serif;fill:#5a6675}.title{font:700 18px sans-serif;fill:#20242a}.subtitle{font:12px sans-serif;fill:#5a6675}.panel-title{font:700 13px sans-serif;fill:#20242a}
</style>
<rect width="980" height="382" fill="#ffffff"/>
<text class="title" x="70" y="28">Yaw 12-14 deg low-arrival: episode 1337</text>
<text class="subtitle" x="70" y="50">Arrival 2 ms; settling not observed; trajectory lag 45 ms.</text>
<line x1="70" y1="76" x2="94" y2="76" stroke="#48525f" stroke-width="2" stroke-dasharray="6 4"/>
<text class="label" x="100" y="80">commanded target</text>
<line x1="236" y1="76" x2="260" y2="76" stroke="#c94f2d" stroke-width="2"/>
<text class="label" x="266" y="80">actual current</text>
<text class="panel-title" x="70" y="96">Yaw position</text>
<line class="grid" x1="70" y1="338.00" x2="956" y2="338.00"/>
<text class="label" x="62" y="342.00" text-anchor="end">-5.4</text>
<line class="grid" x1="70" y1="280.50" x2="956" y2="280.50"/>
<text class="label" x="62" y="284.50" text-anchor="end">3.6</text>
<line class="grid" x1="70" y1="223.00" x2="956" y2="223.00"/>
<text class="label" x="62" y="227.00" text-anchor="end">12.6</text>
<line class="grid" x1="70" y1="165.50" x2="956" y2="165.50"/>
<text class="label" x="62" y="169.50" text-anchor="end">21.7</text>
<line class="grid" x1="70" y1="108.00" x2="956" y2="108.00"/>
<text class="label" x="62" y="112.00" text-anchor="end">30.7</text>
<line class="grid" x1="70.00" y1="108" x2="70.00" y2="338"/>
<text class="label" x="70.00" y="358" text-anchor="middle">-0.41</text>
<line class="grid" x1="217.67" y1="108" x2="217.67" y2="338"/>
<text class="label" x="217.67" y="358" text-anchor="middle">-0.05</text>
<line class="grid" x1="365.33" y1="108" x2="365.33" y2="338"/>
<text class="label" x="365.33" y="358" text-anchor="middle">0.31</text>
<line class="grid" x1="513.00" y1="108" x2="513.00" y2="338"/>
<text class="label" x="513.00" y="358" text-anchor="middle">0.67</text>
<line class="grid" x1="660.67" y1="108" x2="660.67" y2="338"/>
<text class="label" x="660.67" y="358" text-anchor="middle">1.02</text>
<line class="grid" x1="808.33" y1="108" x2="808.33" y2="338"/>
<text class="label" x="808.33" y="358" text-anchor="middle">1.38</text>
<line class="grid" x1="956.00" y1="108" x2="956.00" y2="338"/>
<text class="label" x="956.00" y="358" text-anchor="middle">1.74</text>
<line x1="237.86" y1="108" x2="237.86" y2="338" stroke="#5a6675" stroke-width="1.2" opacity="0.55"/>
<text class="label" x="241.86" y="120.00" transform="rotate(-35 241.86 120.00)">start</text>
<line x1="851.45" y1="108" x2="851.45" y2="338" stroke="#5a6675" stroke-width="1.2" opacity="0.55"/>
<text class="label" x="855.45" y="120.00" transform="rotate(-35 855.45 120.00)">final target</text>
<line x1="852.15" y1="108" x2="852.15" y2="338" stroke="#347a3a" stroke-width="1.2" opacity="0.55"/>
<text class="label" x="856.15" y="120.00" transform="rotate(-35 856.15 120.00)">arrive</text>
<line x1="871.63" y1="108" x2="871.63" y2="338" stroke="#9a3412" stroke-width="1.2" opacity="0.55"/>
<text class="label" x="875.63" y="164.00" transform="rotate(-35 875.63 164.00)">next target</text>
<path d="M 95.08,307.30 L 98.94,307.30 L 105.06,304.19 L 108.49,299.85 L 112.63,299.85 L 115.71,297.19 L 119.61,293.45 L 125.65,293.45 L 128.42,288.99 L 131.97,288.99 L 136.29,287.89 L 140.34,282.17 L 144.61,282.17 L 149.27,278.61 L 153.24,278.61 L 157.31,275.22 L 161.47,272.97 L 166.52,272.97 L 169.31,268.87 L 174.64,268.87 L 178.19,267.66 L 181.72,264.41 L 186.05,264.41 L 190.30,225.92 L 194.94,225.92 L 198.46,223.57 L 202.81,221.33 L 207.79,221.33 L 211.06,218.74 L 215.43,218.74 L 219.54,216.89 L 223.04,213.92 L 232.22,210.77 L 235.86,210.77 L 240.09,213.55 L 244.08,213.55 L 248.78,211.65 L 252.66,208.68 L 257.45,208.68 L 264.49,203.31 L 268.89,203.31 L 273.71,200.49 L 278.26,200.49 L 281.76,198.73 L 288.87,197.31 L 294.41,196.47 L 298.07,196.47 L 302.55,196.47 L 306.91,193.93 L 310.91,193.93 L 316.28,192.24 L 318.98,192.24 L 323.21,191.03 L 327.28,191.03 L 330.93,189.38 L 336.90,187.47 L 341.38,187.47 L 343.48,187.47 L 347.20,185.06 L 351.43,185.44 L 355.75,184.10 L 361.01,184.10 L 363.94,182.73 L 368.10,182.73 L 373.59,182.57 L 376.20,181.50 L 380.28,181.50 L 384.71,180.67 L 389.38,179.86 L 392.91,179.86 L 397.22,178.63 L 401.00,178.63 L 405.64,177.34 L 410.05,176.26 L 413.52,176.26 L 419.07,175.00 L 422.01,175.00 L 425.88,173.53 L 430.40,173.17 L 434.74,173.17 L 439.59,172.18 L 443.10,172.18 L 446.87,171.82 L 451.39,171.15 L 455.01,171.15 L 459.24,170.06 L 463.69,170.06 L 467.77,169.01 L 471.90,168.40 L 475.99,168.40 L 485.80,167.14 L 488.75,166.30 L 492.40,166.30 L 496.11,165.95 L 502.36,164.75 L 505.30,164.75 L 509.96,163.33 L 513.09,163.08 L 516.87,163.08 L 521.46,162.17 L 526.75,162.17 L 529.63,161.17 L 534.44,160.56 L 537.79,160.56 L 541.76,159.51 L 546.01,159.51 L 550.27,158.73 L 556.01,158.73 L 559.03,157.52 L 564.52,156.22 L 567.24,156.22 L 570.80,156.22 L 575.54,153.15 L 579.10,153.15 L 583.61,152.92 L 587.17,152.92 L 591.39,152.92 L 595.86,150.83 L 600.45,150.83 L 604.13,150.91 L 607.86,150.91 L 612.20,151.08 L 616.42,150.69 L 620.78,150.69 L 624.69,150.77 L 628.61,150.77 L 632.96,150.59 L 637.14,150.61 L 642.20,150.61 L 645.21,150.10 L 650.09,150.10 L 653.91,149.14 L 661.92,148.28 L 666.43,147.56 L 670.78,147.56 L 674.95,147.56 L 678.78,146.58 L 683.65,145.88 L 687.32,145.88 L 690.99,145.06 L 694.99,145.09 L 699.23,145.09 L 703.40,144.24 L 707.83,143.70 L 712.13,143.70 L 715.56,143.12 L 719.67,143.12 L 723.81,142.59 L 728.64,141.79 L 733.16,141.79 L 736.36,141.06 L 740.54,141.06 L 744.95,140.52 L 749.05,139.83 L 755.30,139.83 L 757.82,139.17 L 761.71,139.17 L 766.16,138.56 L 770.55,138.56 L 773.62,137.90 L 777.62,137.44 L 784.28,136.90 L 786.23,136.90 L 791.60,136.20 L 795.83,136.20 L 798.90,135.53 L 802.81,135.53 L 807.27,135.21 L 811.43,134.66 L 816.03,134.66 L 819.11,134.37 L 823.23,134.37 L 829.71,133.95 L 831.84,133.30 L 836.66,133.30 L 839.62,132.90 L 844.08,132.49 L 849.79,132.49 L 852.15,131.85 L 856.55,131.85 L 860.77,131.48 L 865.41,130.92 L 868.81,130.92 L 873.22,130.39 L 877.09,130.39 L 881.47,130.39 L 885.31,130.39 L 890.07,130.39 L 893.78,130.39 L 897.63,130.39 L 902.06,130.39 L 906.18,130.39 L 912.38,130.39 L 914.70,130.39 L 918.70,130.39 L 922.65,130.39 L 926.53,130.39 L 930.92,130.39" fill="none" stroke="#48525f" stroke-width="2" stroke-dasharray="6 4"/>
<path d="M 95.08,315.74 L 98.94,314.64 L 105.06,313.10 L 108.49,311.14 L 112.63,309.04 L 115.71,306.77 L 119.61,304.43 L 125.65,302.03 L 128.42,299.79 L 131.97,297.78 L 136.29,295.76 L 140.34,293.85 L 144.61,292.20 L 149.27,290.41 L 153.24,288.33 L 157.31,286.22 L 161.47,283.92 L 166.52,281.42 L 169.31,279.16 L 174.64,276.91 L 178.19,274.52 L 181.72,272.59 L 186.05,271.00 L 190.30,269.51 L 194.94,268.26 L 198.46,266.64 L 202.81,264.63 L 207.79,261.41 L 211.06,256.52 L 215.43,249.72 L 219.54,241.14 L 223.04,233.42 L 232.22,220.28 L 235.86,216.67 L 240.09,215.03 L 244.08,214.61 L 248.78,214.90 L 252.66,215.16 L 257.45,215.10 L 264.49,213.61 L 268.89,211.98 L 273.71,209.92 L 278.26,207.81 L 281.76,205.75 L 288.87,203.76 L 294.41,200.58 L 298.07,199.56 L 302.55,198.80 L 306.91,198.24 L 310.91,197.63 L 316.28,196.85 L 318.98,196.28 L 323.21,195.50 L 327.28,194.68 L 330.93,193.70 L 336.90,192.60 L 341.38,191.59 L 343.48,190.49 L 347.20,189.57 L 351.43,188.65 L 355.75,187.65 L 361.01,186.89 L 363.94,186.09 L 368.10,185.47 L 373.59,184.77 L 376.20,184.21 L 380.28,183.77 L 384.71,183.19 L 389.38,182.69 L 392.91,182.20 L 397.22,181.70 L 401.00,181.17 L 405.64,180.49 L 410.05,179.79 L 413.52,179.10 L 419.07,178.29 L 422.01,177.65 L 425.88,176.89 L 430.40,176.29 L 434.74,175.54 L 439.59,174.86 L 443.10,174.37 L 446.87,173.75 L 451.39,173.21 L 455.01,172.82 L 459.24,172.35 L 463.69,171.97 L 467.77,171.44 L 471.90,171.01 L 475.99,170.54 L 485.80,169.46 L 488.75,168.78 L 492.40,168.19 L 496.11,167.59 L 502.36,167.07 L 505.30,166.69 L 509.96,166.13 L 513.09,165.71 L 516.87,165.12 L 521.46,164.58 L 526.75,164.16 L 529.63,163.68 L 534.44,163.23 L 537.79,162.65 L 541.76,162.10 L 546.01,161.61 L 550.27,165.68 L 556.01,170.50 L 559.03,170.56 L 564.52,168.97 L 567.24,165.70 L 570.80,162.16 L 575.54,159.99 L 579.10,158.63 L 583.61,156.74 L 587.17,155.76 L 591.39,155.36 L 595.86,155.15 L 600.45,154.90 L 604.13,153.93 L 607.86,152.98 L 612.20,152.13 L 616.42,151.34 L 620.78,150.86 L 624.69,150.83 L 628.61,150.88 L 632.96,150.97 L 637.14,150.99 L 642.20,151.03 L 645.21,151.14 L 650.09,151.12 L 653.91,150.97 L 661.92,150.28 L 666.43,149.79 L 670.78,149.32 L 674.95,148.80 L 678.78,148.38 L 683.65,147.89 L 687.32,147.47 L 690.99,146.99 L 694.99,146.60 L 699.23,146.19 L 703.40,145.88 L 707.83,145.51 L 712.13,145.12 L 715.56,144.78 L 719.67,144.43 L 723.81,144.04 L 728.64,143.64 L 733.16,143.28 L 736.36,142.85 L 740.54,142.48 L 744.95,142.08 L 749.05,141.69 L 755.30,141.31 L 757.82,140.91 L 761.71,140.56 L 766.16,140.19 L 770.55,139.87 L 773.62,139.54 L 777.62,139.18 L 784.28,138.84 L 786.23,138.47 L 791.60,138.06 L 795.83,137.67 L 798.90,137.24 L 802.81,136.89 L 807.27,136.49 L 811.43,136.15 L 816.03,135.84 L 819.11,135.52 L 823.23,135.24 L 829.71,134.97 L 831.84,134.71 L 836.66,134.46 L 839.62,134.18 L 844.08,133.89 L 849.79,133.61 L 852.15,133.31 L 856.55,133.03 L 860.77,132.70 L 865.41,132.38 L 868.81,132.09 L 873.22,131.76 L 877.09,131.47 L 881.47,131.18 L 885.31,130.92 L 890.07,130.73 L 893.78,130.59 L 897.63,130.48 L 902.06,130.40 L 906.18,130.35 L 912.38,130.32 L 914.70,130.29 L 918.70,130.27 L 922.65,130.26 L 926.53,130.27 L 930.92,130.29" fill="none" stroke="#c94f2d" stroke-width="2"/>
<line class="axis" x1="70" y1="338" x2="956" y2="338"/>
<line class="axis" x1="70" y1="108" x2="70" y2="338"/>
<text class="label" x="18" y="223.00" transform="rotate(-90 18 223.00)" text-anchor="middle">degrees</text>
<text class="label" x="513.0" y="374" text-anchor="middle">time relative to event (s)</text>
</svg>