<svg xmlns="http://www.w3.org/2000/svg" viewBox="0 0 980 382" role="img">
<style>
.axis{stroke:#718096;stroke-width:1}.grid{stroke:#e5eaf0;stroke-width:1}.label{font:12px sans-serif;fill:#5a6675}.title{font:700 18px sans-serif;fill:#20242a}.subtitle{font:12px sans-serif;fill:#5a6675}.panel-title{font:700 13px sans-serif;fill:#20242a}
</style>
<rect width="980" height="382" fill="#ffffff"/>
<text class="title" x="70" y="28">Yaw 12-14 deg high-arrival: episode 2723</text>
<text class="subtitle" x="70" y="50">Arrival 124 ms; settling 274 ms; trajectory lag 95 ms.</text>
<line x1="70" y1="76" x2="94" y2="76" stroke="#48525f" stroke-width="2" stroke-dasharray="6 4"/>
<text class="label" x="100" y="80">commanded target</text>
<line x1="236" y1="76" x2="260" y2="76" stroke="#c94f2d" stroke-width="2"/>
<text class="label" x="266" y="80">actual current</text>
<text class="panel-title" x="70" y="96">Yaw position</text>
<line class="grid" x1="70" y1="338.00" x2="956" y2="338.00"/>
<text class="label" x="62" y="342.00" text-anchor="end">-4.1</text>
<line class="grid" x1="70" y1="280.50" x2="956" y2="280.50"/>
<text class="label" x="62" y="284.50" text-anchor="end">6.5</text>
<line class="grid" x1="70" y1="223.00" x2="956" y2="223.00"/>
<text class="label" x="62" y="227.00" text-anchor="end">17.0</text>
<line class="grid" x1="70" y1="165.50" x2="956" y2="165.50"/>
<text class="label" x="62" y="169.50" text-anchor="end">27.5</text>
<line class="grid" x1="70" y1="108.00" x2="956" y2="108.00"/>
<text class="label" x="62" y="112.00" text-anchor="end">38.1</text>
<line class="grid" x1="70.00" y1="108" x2="70.00" y2="338"/>
<text class="label" x="70.00" y="358" text-anchor="middle">-0.44</text>
<line class="grid" x1="217.67" y1="108" x2="217.67" y2="338"/>
<text class="label" x="217.67" y="358" text-anchor="middle">0.09</text>
<line class="grid" x1="365.33" y1="108" x2="365.33" y2="338"/>
<text class="label" x="365.33" y="358" text-anchor="middle">0.61</text>
<line class="grid" x1="513.00" y1="108" x2="513.00" y2="338"/>
<text class="label" x="513.00" y="358" text-anchor="middle">1.13</text>
<line class="grid" x1="660.67" y1="108" x2="660.67" y2="338"/>
<text class="label" x="660.67" y="358" text-anchor="middle">1.65</text>
<line class="grid" x1="808.33" y1="108" x2="808.33" y2="338"/>
<text class="label" x="808.33" y="358" text-anchor="middle">2.17</text>
<line class="grid" x1="956.00" y1="108" x2="956.00" y2="338"/>
<text class="label" x="956.00" y="358" text-anchor="middle">2.69</text>
<line x1="193.28" y1="108" x2="193.28" y2="338" stroke="#5a6675" stroke-width="1.2" opacity="0.55"/>
<text class="label" x="197.28" y="120.00" transform="rotate(-35 197.28 120.00)">start</text>
<line x1="770.88" y1="108" x2="770.88" y2="338" stroke="#5a6675" stroke-width="1.2" opacity="0.55"/>
<text class="label" x="774.88" y="120.00" transform="rotate(-35 774.88 120.00)">final target</text>
<line x1="806.03" y1="108" x2="806.03" y2="338" stroke="#347a3a" stroke-width="1.2" opacity="0.55"/>
<text class="label" x="810.03" y="120.00" transform="rotate(-35 810.03 120.00)">arrive</text>
<line x1="848.56" y1="108" x2="848.56" y2="338" stroke="#8a5a00" stroke-width="1.2" opacity="0.55"/>
<text class="label" x="852.56" y="142.00" transform="rotate(-35 852.56 142.00)">settled</text>
<path d="M 95.08,130.26 L 97.57,130.26 L 100.75,130.26 L 103.15,130.26 L 106.14,130.26 L 108.99,130.26 L 111.76,130.26 L 114.52,130.26 L 117.67,130.26 L 120.12,130.26 L 123.10,130.26 L 126.63,130.26 L 128.87,130.26 L 131.52,130.26 L 134.41,130.26 L 138.13,130.26 L 140.26,130.26 L 142.77,130.26 L 145.80,130.26 L 148.54,130.26 L 151.56,130.26 L 154.70,130.26 L 157.17,130.26 L 160.02,130.26 L 162.74,130.26 L 165.75,130.26 L 168.42,130.26 L 171.11,130.26 L 174.35,130.26 L 176.94,130.26 L 179.81,130.26 L 182.59,130.26 L 188.13,130.26 L 191.02,130.26 L 194.50,247.73 L 196.79,247.73 L 199.57,247.73 L 202.69,247.73 L 205.31,247.73 L 208.28,247.73 L 210.95,247.73 L 213.96,247.73 L 216.75,247.73 L 219.51,247.73 L 222.43,247.73 L 225.20,247.73 L 228.17,247.73 L 231.04,247.73 L 233.59,247.73 L 239.21,247.73 L 242.16,247.73 L 244.97,247.73 L 247.73,247.73 L 250.54,247.73 L 253.38,247.73 L 256.31,247.73 L 259.21,247.73 L 262.02,247.73 L 264.92,247.73 L 268.04,247.73 L 270.50,247.73 L 273.32,247.73 L 276.19,247.73 L 279.84,247.73 L 281.72,247.73 L 284.68,247.73 L 287.89,247.73 L 290.20,247.73 L 293.15,247.73 L 295.84,247.73 L 298.72,247.73 L 301.72,247.73 L 304.45,247.73 L 307.48,247.73 L 310.77,247.73 L 312.78,247.73 L 315.66,247.73 L 318.76,247.73 L 322.05,247.73 L 324.29,247.73 L 327.03,247.73 L 330.04,247.73 L 332.79,247.73 L 335.49,247.73 L 338.59,247.73 L 341.13,247.73 L 344.01,247.73 L 346.90,247.73 L 352.61,247.73 L 355.43,247.73 L 358.32,247.73 L 360.95,247.73 L 364.00,247.73 L 367.16,247.73 L 369.62,247.73 L 372.51,247.73 L 375.33,247.73 L 378.40,247.73 L 380.93,247.73 L 383.88,247.73 L 386.66,247.73 L 389.31,247.73 L 392.16,247.73 L 395.67,247.73 L 397.80,247.73 L 400.83,247.73 L 403.59,247.73 L 406.61,247.73 L 409.27,247.73 L 412.01,247.73 L 415.00,247.73 L 417.66,247.73 L 420.65,247.73 L 423.88,247.73 L 426.15,247.73 L 429.18,247.73 L 431.89,247.73 L 435.18,247.73 L 437.47,247.73 L 440.46,247.73 L 443.19,247.73 L 445.97,247.73 L 449.12,247.73 L 451.78,247.73 L 454.59,247.73 L 457.49,247.73 L 460.30,247.73 L 463.39,247.73 L 466.63,247.73 L 468.73,247.73 L 471.60,247.73 L 474.38,247.73 L 480.08,247.73 L 482.86,247.73 L 485.72,247.73 L 488.54,247.73 L 494.51,247.73 L 497.17,247.73 L 500.06,247.73 L 502.69,247.73 L 505.89,247.73 L 511.19,247.73 L 514.21,247.73 L 516.85,247.73 L 519.87,247.73 L 522.91,247.73 L 525.52,247.73 L 528.23,247.73 L 531.17,247.73 L 534.59,247.73 L 539.65,247.73 L 542.38,247.73 L 545.29,247.73 L 548.06,247.73 L 551.65,247.73 L 553.71,247.73 L 556.56,247.73 L 559.48,247.73 L 562.20,247.73 L 565.48,247.73 L 567.96,247.73 L 570.92,247.73 L 573.74,247.73 L 576.68,247.73 L 579.28,247.73 L 582.17,247.73 L 584.98,247.73 L 587.81,247.73 L 590.71,247.73 L 594.03,247.73 L 596.31,247.73 L 599.11,247.73 L 601.93,247.73 L 604.83,247.73 L 608.24,247.73 L 610.44,247.73 L 613.48,247.73 L 616.24,247.73 L 619.50,247.73 L 624.62,247.73 L 627.45,247.73 L 630.26,247.73 L 633.59,247.73 L 636.60,247.73 L 638.70,247.73 L 641.79,247.73 L 644.50,247.73 L 647.95,247.73 L 650.45,247.73 L 652.97,247.73 L 655.83,247.73 L 658.78,247.73 L 661.97,247.73 L 664.96,247.73 L 667.19,247.73 L 670.19,247.73 L 672.98,247.73 L 676.20,247.73 L 678.66,247.73 L 681.20,247.73 L 684.33,247.73 L 687.08,247.73 L 689.95,247.73 L 693.01,247.73 L 695.79,247.73 L 698.24,247.73 L 701.05,247.73 L 703.92,247.73 L 709.54,247.73 L 712.43,247.73 L 715.21,247.73 L 718.33,247.73 L 720.88,247.73 L 723.79,247.73 L 726.56,247.73 L 729.50,247.73 L 732.51,247.73 L 735.73,247.73 L 737.88,247.73 L 740.99,247.73 L 743.57,247.73 L 746.60,247.73 L 749.88,247.73 L 752.11,247.73 L 754.96,247.73 L 757.74,247.73 L 761.63,247.73 L 766.23,247.73 L 769.09,247.73 L 772.05,315.68 L 777.72,315.68 L 780.58,315.68 L 783.30,315.68 L 786.15,315.68 L 792.04,315.68 L 794.80,315.68 L 797.61,315.68 L 800.43,315.68 L 806.03,315.68 L 808.92,315.68 L 811.61,315.68 L 814.59,315.68 L 817.71,315.68 L 820.62,315.68 L 822.90,315.68 L 825.89,315.68 L 828.58,315.68 L 831.48,315.68 L 834.36,315.68 L 837.24,315.68 L 840.17,315.68 L 842.82,315.68 L 848.56,315.68 L 851.28,315.68 L 854.32,315.68 L 857.11,315.68 L 862.80,315.68 L 865.62,315.68 L 868.27,315.68 L 871.26,315.68 L 874.01,315.68 L 877.34,315.68 L 879.63,315.68 L 882.64,315.68 L 885.30,315.68 L 888.24,315.68 L 891.12,315.68 L 893.94,315.68 L 896.64,315.68 L 899.72,315.68 L 902.42,315.68 L 905.53,315.68 L 908.08,315.68 L 910.95,315.68 L 913.76,315.68 L 916.52,315.68 L 919.43,315.68 L 922.26,315.68 L 925.11,315.68 L 927.90,315.68 L 930.92,315.68" fill="none" stroke="#48525f" stroke-width="2" stroke-dasharray="6 4"/>
<path d="M 95.08,155.58 L 97.57,146.75 L 100.75,141.47 L 103.15,138.60 L 106.14,137.51 L 108.99,137.24 L 111.76,136.97 L 114.52,136.68 L 117.67,136.08 L 120.12,135.09 L 123.10,133.90 L 126.63,132.92 L 128.87,132.02 L 131.52,131.19 L 134.41,130.75 L 138.13,130.59 L 140.26,130.62 L 142.77,130.67 L 145.80,130.68 L 148.54,130.76 L 151.56,130.81 L 154.70,130.77 L 157.17,130.67 L 160.02,130.56 L 162.74,130.47 L 165.75,130.41 L 168.42,130.36 L 171.11,130.33 L 174.35,130.31 L 176.94,130.30 L 179.81,130.31 L 182.59,130.32 L 188.13,130.31 L 191.02,130.28 L 194.50,130.26 L 196.79,130.28 L 199.57,130.81 L 202.69,131.83 L 205.31,134.16 L 208.28,138.76 L 210.95,145.80 L 213.96,156.17 L 216.75,170.00 L 219.51,184.86 L 222.43,200.50 L 225.20,214.35 L 228.17,226.84 L 231.04,235.83 L 233.59,241.47 L 239.21,244.41 L 242.16,243.65 L 244.97,242.97 L 247.73,242.37 L 250.54,242.33 L 253.38,243.07 L 256.31,244.25 L 259.21,245.28 L 262.02,246.27 L 264.92,247.15 L 268.04,247.61 L 270.50,247.69 L 273.32,247.58 L 276.19,247.45 L 279.84,247.40 L 281.72,247.35 L 284.68,247.30 L 287.89,247.32 L 290.20,247.38 L 293.15,247.44 L 295.84,247.49 L 298.72,247.53 L 301.72,247.59 L 304.45,247.65 L 307.48,247.71 L 310.77,247.73 L 312.78,247.72 L 315.66,247.71 L 318.76,247.71 L 322.05,247.71 L 324.29,247.71 L 327.03,247.71 L 330.04,247.71 L 332.79,247.71 L 335.49,247.71 L 338.59,247.72 L 341.13,247.73 L 344.01,247.74 L 346.90,247.75 L 352.61,247.74 L 355.43,247.73 L 358.32,247.73 L 360.95,247.73 L 364.00,247.74 L 367.16,247.74 L 369.62,247.74 L 372.51,247.74 L 375.33,247.74 L 378.40,247.74 L 380.93,247.73 L 383.88,247.73 L 386.66,247.73 L 389.31,247.73 L 392.16,247.74 L 395.67,247.74 L 397.80,247.74 L 400.83,247.74 L 403.59,247.74 L 406.61,247.74 L 409.27,247.73 L 412.01,247.73 L 415.00,247.74 L 417.66,247.74 L 420.65,247.74 L 423.88,247.73 L 426.15,247.74 L 429.18,247.74 L 431.89,247.73 L 435.18,247.73 L 437.47,247.74 L 440.46,247.74 L 443.19,247.74 L 445.97,247.74 L 449.12,247.74 L 451.78,247.73 L 454.59,247.74 L 457.49,247.73 L 460.30,247.74 L 463.39,247.74 L 466.63,247.74 L 468.73,247.74 L 471.60,247.74 L 474.38,247.73 L 480.08,247.73 L 482.86,247.73 L 485.72,247.74 L 488.54,247.74 L 494.51,247.74 L 497.17,247.74 L 500.06,247.73 L 502.69,247.73 L 505.89,247.73 L 511.19,247.73 L 514.21,247.74 L 516.85,247.74 L 519.87,247.73 L 522.91,247.73 L 525.52,247.74 L 528.23,247.73 L 531.17,247.73 L 534.59,247.74 L 539.65,247.74 L 542.38,247.74 L 545.29,247.73 L 548.06,247.73 L 551.65,247.73 L 553.71,247.73 L 556.56,247.73 L 559.48,247.73 L 562.20,247.74 L 565.48,247.73 L 567.96,247.73 L 570.92,247.73 L 573.74,247.74 L 576.68,247.73 L 579.28,247.73 L 582.17,247.73 L 584.98,247.73 L 587.81,247.73 L 590.71,247.73 L 594.03,247.73 L 596.31,247.74 L 599.11,247.73 L 601.93,247.73 L 604.83,247.74 L 608.24,247.73 L 610.44,247.74 L 613.48,247.74 L 616.24,247.74 L 619.50,247.74 L 624.62,247.74 L 627.45,247.74 L 630.26,247.74 L 633.59,247.74 L 636.60,247.74 L 638.70,247.74 L 641.79,247.74 L 644.50,247.73 L 647.95,247.73 L 650.45,247.74 L 652.97,247.73 L 655.83,247.73 L 658.78,247.73 L 661.97,247.73 L 664.96,247.73 L 667.19,247.73 L 670.19,247.73 L 672.98,247.73 L 676.20,247.73 L 678.66,247.74 L 681.20,247.73 L 684.33,247.74 L 687.08,247.73 L 689.95,247.73 L 693.01,247.73 L 695.79,247.74 L 698.24,247.73 L 701.05,247.73 L 703.92,247.73 L 709.54,247.73 L 712.43,247.73 L 715.21,247.73 L 718.33,247.73 L 720.88,247.74 L 723.79,247.73 L 726.56,247.73 L 729.50,247.73 L 732.51,247.73 L 735.73,247.74 L 737.88,247.74 L 740.99,247.73 L 743.57,247.73 L 746.60,247.73 L 749.88,247.73 L 752.11,247.74 L 754.96,247.73 L 757.74,247.73 L 761.63,247.73 L 766.23,247.73 L 769.09,247.74 L 772.05,247.74 L 777.72,248.48 L 780.58,249.74 L 783.30,252.46 L 786.15,257.67 L 792.04,274.92 L 794.80,286.01 L 797.61,296.40 L 800.43,304.90 L 806.03,314.85 L 808.92,315.57 L 811.61,314.72 L 814.59,313.45 L 817.71,312.21 L 820.62,311.44 L 822.90,311.50 L 825.89,312.36 L 828.58,313.34 L 831.48,314.18 L 834.36,315.03 L 837.24,315.58 L 840.17,315.74 L 842.82,315.66 L 848.56,315.40 L 851.28,315.26 L 854.32,315.18 L 857.11,315.20 L 862.80,315.32 L 865.62,315.37 L 868.27,315.41 L 871.26,315.46 L 874.01,315.51 L 877.34,315.55 L 879.63,315.56 L 882.64,315.55 L 885.30,315.55 L 888.24,315.55 L 891.12,315.55 L 893.94,315.55 L 896.64,315.55 L 899.72,315.55 L 902.42,315.55 L 905.53,315.55 L 908.08,315.55 L 910.95,315.55 L 913.76,315.56 L 916.52,315.56 L 919.43,315.56 L 922.26,315.56 L 925.11,315.56 L 927.90,315.56 L 930.92,315.56" fill="none" stroke="#c94f2d" stroke-width="2"/>
<line class="axis" x1="70" y1="338" x2="956" y2="338"/>
<line class="axis" x1="70" y1="108" x2="70" y2="338"/>
<text class="label" x="18" y="223.00" transform="rotate(-90 18 223.00)" text-anchor="middle">degrees</text>
<text class="label" x="513.0" y="374" text-anchor="middle">time relative to event (s)</text>
</svg>