<svg xmlns="http://www.w3.org/2000/svg" viewBox="0 0 980 382" role="img">
<style>
.axis{stroke:#718096;stroke-width:1}.grid{stroke:#e5eaf0;stroke-width:1}.label{font:12px sans-serif;fill:#5a6675}.title{font:700 18px sans-serif;fill:#20242a}.subtitle{font:12px sans-serif;fill:#5a6675}.panel-title{font:700 13px sans-serif;fill:#20242a}
</style>
<rect width="980" height="382" fill="#ffffff"/>
<text class="title" x="70" y="28">Yaw 14-16 deg median-arrival: episode 2491</text>
<text class="subtitle" x="70" y="50">Arrival 10 ms; settling not observed; trajectory lag not observed.</text>
<line x1="70" y1="76" x2="94" y2="76" stroke="#48525f" stroke-width="2" stroke-dasharray="6 4"/>
<text class="label" x="100" y="80">commanded target</text>
<line x1="236" y1="76" x2="260" y2="76" stroke="#c94f2d" stroke-width="2"/>
<text class="label" x="266" y="80">actual current</text>
<text class="panel-title" x="70" y="96">Yaw position</text>
<line class="grid" x1="70" y1="338.00" x2="956" y2="338.00"/>
<text class="label" x="62" y="342.00" text-anchor="end">29.0</text>
<line class="grid" x1="70" y1="280.50" x2="956" y2="280.50"/>
<text class="label" x="62" y="284.50" text-anchor="end">36.7</text>
<line class="grid" x1="70" y1="223.00" x2="956" y2="223.00"/>
<text class="label" x="62" y="227.00" text-anchor="end">44.5</text>
<line class="grid" x1="70" y1="165.50" x2="956" y2="165.50"/>
<text class="label" x="62" y="169.50" text-anchor="end">52.2</text>
<line class="grid" x1="70" y1="108.00" x2="956" y2="108.00"/>
<text class="label" x="62" y="112.00" text-anchor="end">60.0</text>
<line class="grid" x1="70.00" y1="108" x2="70.00" y2="338"/>
<text class="label" x="70.00" y="358" text-anchor="middle">-0.37</text>
<line class="grid" x1="217.67" y1="108" x2="217.67" y2="338"/>
<text class="label" x="217.67" y="358" text-anchor="middle">-0.27</text>
<line class="grid" x1="365.33" y1="108" x2="365.33" y2="338"/>
<text class="label" x="365.33" y="358" text-anchor="middle">-0.17</text>
<line class="grid" x1="513.00" y1="108" x2="513.00" y2="338"/>
<text class="label" x="513.00" y="358" text-anchor="middle">-0.07</text>
<line class="grid" x1="660.67" y1="108" x2="660.67" y2="338"/>
<text class="label" x="660.67" y="358" text-anchor="middle">0.02</text>
<line class="grid" x1="808.33" y1="108" x2="808.33" y2="338"/>
<text class="label" x="808.33" y="358" text-anchor="middle">0.12</text>
<line class="grid" x1="956.00" y1="108" x2="956.00" y2="338"/>
<text class="label" x="956.00" y="358" text-anchor="middle">0.22</text>
<line x1="622.94" y1="108" x2="622.94" y2="338" stroke="#5a6675" stroke-width="1.2" opacity="0.55"/>
<text class="label" x="626.94" y="120.00" transform="rotate(-35 626.94 120.00)">start</text>
<line x1="631.26" y1="108" x2="631.26" y2="338" stroke="#5a6675" stroke-width="1.2" opacity="0.55"/>
<text class="label" x="635.26" y="120.00" transform="rotate(-35 635.26 120.00)">final target</text>
<line x1="645.99" y1="108" x2="645.99" y2="338" stroke="#347a3a" stroke-width="1.2" opacity="0.55"/>
<text class="label" x="649.99" y="120.00" transform="rotate(-35 649.99 120.00)">arrive</text>
<line x1="682.59" y1="108" x2="682.59" y2="338" stroke="#9a3412" stroke-width="1.2" opacity="0.55"/>
<text class="label" x="686.59" y="164.00" transform="rotate(-35 686.59 164.00)">next target</text>
<path d="M 100.26,315.74 L 114.74,234.37 L 130.25,246.35 L 147.40,246.31 L 162.83,245.96 L 177.57,246.95 L 191.52,249.05 L 205.13,248.85 L 226.78,248.85 L 239.23,248.45 L 254.60,248.45 L 267.68,248.07 L 282.57,247.84 L 299.58,247.84 L 314.58,247.46 L 327.82,247.46 L 343.13,247.07 L 357.58,246.79 L 377.11,246.79 L 393.80,246.45 L 403.41,246.45 L 419.60,246.10 L 435.63,245.79 L 448.53,245.79 L 469.84,245.41 L 481.51,245.41 L 496.27,245.08 L 508.96,244.77 L 523.74,244.77 L 540.66,244.37 L 554.36,130.26 L 571.74,243.96 L 585.90,243.74 L 603.27,243.74 L 620.75,243.35 L 629.84,130.26 L 645.99,243.07 L 662.61,242.73 L 676.81,242.73 L 697.10,242.36 L 707.06,130.26 L 721.74,242.02 L 736.45,241.71 L 752.76,241.71 L 769.41,241.31 L 799.10,241.01 L 829.26,240.66 L 847.94,240.28 L 866.73,239.96 L 873.73,239.96 L 888.24,239.64 L 903.18,239.64 L 925.74,130.26" fill="none" stroke="#48525f" stroke-width="2" stroke-dasharray="6 4"/>
<path d="M 100.26,237.43 L 114.74,236.79 L 130.25,236.79 L 147.40,236.83 L 162.83,237.68 L 177.57,239.39 L 191.52,241.50 L 205.13,243.56 L 226.78,245.84 L 239.23,247.71 L 254.60,248.71 L 267.68,249.01 L 282.57,248.78 L 299.58,248.31 L 314.58,247.93 L 327.82,247.57 L 343.13,247.19 L 357.58,246.97 L 377.11,246.91 L 393.80,246.91 L 403.41,246.86 L 419.60,246.81 L 435.63,246.74 L 448.53,246.70 L 469.84,246.54 L 481.51,246.26 L 496.27,245.98 L 508.96,245.68 L 523.74,245.43 L 540.66,245.22 L 554.36,245.02 L 571.74,244.60 L 585.90,243.78 L 603.27,242.59 L 620.75,241.20 L 629.84,240.62 L 645.99,240.00 L 662.61,239.91 L 676.81,240.64 L 697.10,241.56 L 707.06,242.34 L 721.74,243.00 L 736.45,242.91 L 752.76,242.51 L 769.41,241.99 L 799.10,240.83 L 829.26,239.80 L 847.94,239.78 L 866.73,239.83 L 873.73,240.06 L 888.24,240.60 L 903.18,241.11 L 925.74,241.16" fill="none" stroke="#c94f2d" stroke-width="2"/>
<line class="axis" x1="70" y1="338" x2="956" y2="338"/>
<line class="axis" x1="70" y1="108" x2="70" y2="338"/>
<text class="label" x="18" y="223.00" transform="rotate(-90 18 223.00)" text-anchor="middle">degrees</text>
<text class="label" x="513.0" y="374" text-anchor="middle">time relative to event (s)</text>
</svg>