<svg xmlns="http://www.w3.org/2000/svg" viewBox="0 0 980 382" role="img">
<style>
.axis{stroke:#718096;stroke-width:1}.grid{stroke:#e5eaf0;stroke-width:1}.label{font:12px sans-serif;fill:#5a6675}.title{font:700 18px sans-serif;fill:#20242a}.subtitle{font:12px sans-serif;fill:#5a6675}.panel-title{font:700 13px sans-serif;fill:#20242a}
</style>
<rect width="980" height="382" fill="#ffffff"/>
<text class="title" x="70" y="28">Yaw 14-16 deg high-arrival: episode 2774</text>
<text class="subtitle" x="70" y="50">Arrival 134 ms; settling 275 ms; trajectory lag 40 ms.</text>
<line x1="70" y1="76" x2="94" y2="76" stroke="#48525f" stroke-width="2" stroke-dasharray="6 4"/>
<text class="label" x="100" y="80">commanded target</text>
<line x1="236" y1="76" x2="260" y2="76" stroke="#c94f2d" stroke-width="2"/>
<text class="label" x="266" y="80">actual current</text>
<text class="panel-title" x="70" y="96">Yaw position</text>
<line class="grid" x1="70" y1="338.00" x2="956" y2="338.00"/>
<text class="label" x="62" y="342.00" text-anchor="end">-1.8</text>
<line class="grid" x1="70" y1="280.50" x2="956" y2="280.50"/>
<text class="label" x="62" y="284.50" text-anchor="end">2.8</text>
<line class="grid" x1="70" y1="223.00" x2="956" y2="223.00"/>
<text class="label" x="62" y="227.00" text-anchor="end">7.5</text>
<line class="grid" x1="70" y1="165.50" x2="956" y2="165.50"/>
<text class="label" x="62" y="169.50" text-anchor="end">12.1</text>
<line class="grid" x1="70" y1="108.00" x2="956" y2="108.00"/>
<text class="label" x="62" y="112.00" text-anchor="end">16.8</text>
<line class="grid" x1="70.00" y1="108" x2="70.00" y2="338"/>
<text class="label" x="70.00" y="358" text-anchor="middle">-0.42</text>
<line class="grid" x1="217.67" y1="108" x2="217.67" y2="338"/>
<text class="label" x="217.67" y="358" text-anchor="middle">0.04</text>
<line class="grid" x1="365.33" y1="108" x2="365.33" y2="338"/>
<text class="label" x="365.33" y="358" text-anchor="middle">0.50</text>
<line class="grid" x1="513.00" y1="108" x2="513.00" y2="338"/>
<text class="label" x="513.00" y="358" text-anchor="middle">0.96</text>
<line class="grid" x1="660.67" y1="108" x2="660.67" y2="338"/>
<text class="label" x="660.67" y="358" text-anchor="middle">1.42</text>
<line class="grid" x1="808.33" y1="108" x2="808.33" y2="338"/>
<text class="label" x="808.33" y="358" text-anchor="middle">1.89</text>
<line class="grid" x1="956.00" y1="108" x2="956.00" y2="338"/>
<text class="label" x="956.00" y="358" text-anchor="middle">2.35</text>
<line x1="204.89" y1="108" x2="204.89" y2="338" stroke="#5a6675" stroke-width="1.2" opacity="0.55"/>
<text class="label" x="208.89" y="120.00" transform="rotate(-35 208.89 120.00)">start</text>
<line x1="750.13" y1="108" x2="750.13" y2="338" stroke="#5a6675" stroke-width="1.2" opacity="0.55"/>
<text class="label" x="754.13" y="120.00" transform="rotate(-35 754.13 120.00)">final target</text>
<line x1="793.02" y1="108" x2="793.02" y2="338" stroke="#347a3a" stroke-width="1.2" opacity="0.55"/>
<text class="label" x="797.02" y="120.00" transform="rotate(-35 797.02 120.00)">arrive</text>
<line x1="838.21" y1="108" x2="838.21" y2="338" stroke="#8a5a00" stroke-width="1.2" opacity="0.55"/>
<text class="label" x="842.21" y="142.00" transform="rotate(-35 842.21 142.00)">settled</text>
<path d="M 95.08,209.90 L 97.57,209.90 L 100.94,203.45 L 104.41,197.72 L 110.55,190.13 L 113.67,188.82 L 116.94,188.82 L 120.18,188.82 L 123.54,182.42 L 126.43,179.84 L 130.31,179.84 L 133.46,176.01 L 139.44,172.07 L 142.55,169.54 L 145.73,169.54 L 149.11,166.39 L 155.57,163.04 L 158.59,160.08 L 162.80,160.08 L 164.91,156.72 L 171.53,152.43 L 174.60,150.49 L 177.89,150.49 L 181.18,146.51 L 184.24,146.51 L 187.53,142.70 L 190.79,140.37 L 194.42,140.37 L 197.13,136.62 L 200.41,136.62 L 203.48,132.81 L 206.54,130.73 L 209.66,130.73 L 213.49,130.73 L 216.14,130.73 L 219.33,130.73 L 222.61,130.73 L 226.77,130.73 L 229.43,130.73 L 232.25,130.73 L 235.53,130.73 L 238.46,130.73 L 242.47,130.73 L 245.89,130.73 L 248.38,130.73 L 251.60,130.73 L 254.89,130.73 L 258.56,130.73 L 261.43,130.73 L 264.29,130.73 L 267.63,130.73 L 270.70,130.73 L 273.76,130.73 L 276.92,130.73 L 280.32,130.73 L 283.62,130.73 L 286.51,130.73 L 290.48,130.73 L 293.50,130.73 L 296.20,130.73 L 299.67,130.73 L 302.51,130.73 L 306.42,130.73 L 309.15,130.73 L 312.26,130.73 L 315.59,130.73 L 318.54,130.73 L 322.04,130.73 L 325.03,130.73 L 328.16,130.73 L 331.41,130.73 L 334.55,130.73 L 338.31,130.73 L 340.98,130.73 L 344.18,130.73 L 347.40,130.73 L 350.68,130.73 L 354.01,130.73 L 357.36,130.73 L 360.33,130.73 L 363.44,130.73 L 366.76,130.73 L 369.85,130.73 L 373.12,130.73 L 376.46,130.73 L 379.72,130.73 L 383.03,130.73 L 386.10,130.73 L 389.34,130.73 L 392.45,130.73 L 395.53,130.73 L 398.98,130.73 L 402.37,130.73 L 405.18,130.73 L 408.53,130.73 L 411.80,130.73 L 414.75,130.73 L 418.14,130.73 L 421.57,130.73 L 424.33,130.73 L 427.79,130.73 L 431.01,130.73 L 434.16,130.73 L 437.22,130.73 L 440.39,130.73 L 444.02,130.73 L 446.89,130.73 L 450.44,130.73 L 453.24,130.73 L 456.37,130.73 L 459.88,130.73 L 462.95,130.73 L 466.03,130.73 L 469.29,130.73 L 472.48,130.73 L 475.89,130.73 L 479.15,130.73 L 482.69,130.73 L 485.54,130.73 L 488.42,130.73 L 491.75,130.73 L 494.84,130.73 L 498.40,130.73 L 501.41,130.73 L 504.53,130.73 L 507.76,130.73 L 511.14,130.73 L 514.68,130.73 L 517.35,130.73 L 520.45,130.73 L 524.01,130.73 L 527.10,130.73 L 530.70,130.73 L 533.65,130.73 L 536.48,130.73 L 539.82,130.73 L 543.61,130.73 L 546.23,130.73 L 549.38,130.73 L 552.54,130.73 L 556.08,130.73 L 559.31,130.73 L 562.78,130.73 L 565.78,130.73 L 568.74,130.73 L 571.81,130.73 L 576.01,130.73 L 581.39,130.73 L 584.56,130.73 L 588.24,130.73 L 591.38,130.73 L 594.24,130.73 L 597.54,130.73 L 600.88,130.73 L 604.24,130.73 L 607.97,130.73 L 610.88,130.73 L 613.90,130.73 L 616.65,130.73 L 624.08,130.73 L 629.58,130.73 L 632.72,130.73 L 636.29,130.73 L 640.23,130.73 L 645.59,130.73 L 648.99,130.73 L 652.61,130.73 L 655.29,130.73 L 659.26,130.73 L 662.08,130.73 L 665.07,130.73 L 668.82,130.73 L 672.28,130.73 L 677.64,130.73 L 680.86,130.73 L 687.28,130.73 L 693.78,130.73 L 696.89,130.73 L 700.38,130.73 L 703.70,130.73 L 707.01,130.73 L 709.70,130.73 L 713.04,130.73 L 716.16,130.73 L 719.55,130.73 L 722.46,130.73 L 725.96,130.73 L 728.89,130.73 L 732.43,130.73 L 736.35,130.73 L 741.81,130.73 L 745.06,130.73 L 748.99,130.73 L 752.05,315.43 L 755.58,315.43 L 758.11,315.43 L 761.02,315.43 L 764.35,315.43 L 768.29,315.43 L 773.92,315.43 L 777.04,315.43 L 780.81,315.43 L 783.48,315.43 L 786.61,315.43 L 789.95,315.43 L 793.02,315.43 L 796.91,315.43 L 799.73,315.43 L 802.97,315.43 L 806.23,315.43 L 809.38,315.43 L 812.36,315.43 L 815.43,315.43 L 818.76,315.43 L 821.94,315.43 L 825.35,315.43 L 828.24,315.43 L 831.71,315.43 L 834.73,315.43 L 838.21,315.43 L 841.07,315.43 L 845.14,315.43 L 848.55,315.43 L 851.07,315.43 L 853.96,315.43 L 857.57,315.43 L 861.20,315.43 L 863.57,315.43 L 866.81,315.43 L 870.15,315.43 L 873.24,315.43 L 876.88,315.43 L 880.81,315.43 L 883.23,315.43 L 886.55,315.43 L 889.12,315.43 L 893.22,315.43 L 896.06,315.43 L 898.63,315.43 L 902.26,315.43 L 905.42,315.43 L 908.36,315.43 L 912.82,315.43 L 914.93,315.43 L 921.98,315.43 L 924.81,315.43 L 927.76,315.43 L 930.92,315.43" fill="none" stroke="#48525f" stroke-width="2" stroke-dasharray="6 4"/>
<path d="M 95.08,220.98 L 97.57,218.29 L 100.94,215.91 L 104.41,213.34 L 110.55,207.20 L 113.67,204.34 L 116.94,200.89 L 120.18,197.55 L 123.54,194.90 L 126.43,192.63 L 130.31,190.31 L 133.46,188.22 L 139.44,183.85 L 142.55,182.03 L 145.73,179.66 L 149.11,176.79 L 155.57,171.73 L 158.59,169.46 L 162.80,167.23 L 164.91,165.12 L 171.53,161.38 L 174.60,159.97 L 177.89,157.75 L 181.18,156.14 L 184.24,154.49 L 187.53,152.53 L 190.79,150.44 L 194.42,148.28 L 197.13,145.98 L 200.41,143.96 L 203.48,141.73 L 206.54,139.86 L 209.66,137.50 L 213.49,135.51 L 216.14,134.09 L 219.33,132.91 L 222.61,131.84 L 226.77,131.15 L 229.43,130.86 L 232.25,130.84 L 235.53,130.84 L 238.46,130.81 L 242.47,130.84 L 245.89,130.93 L 248.38,130.90 L 251.60,130.77 L 254.89,130.61 L 258.56,130.50 L 261.43,130.41 L 264.29,130.35 L 267.63,130.30 L 270.70,130.30 L 273.76,130.35 L 276.92,130.35 L 280.32,130.32 L 283.62,130.28 L 286.51,130.26 L 290.48,130.28 L 293.50,130.28 L 296.20,130.28 L 299.67,130.28 L 302.51,130.28 L 306.42,130.28 L 309.15,130.28 L 312.26,130.28 L 315.59,130.26 L 318.54,130.28 L 322.04,130.28 L 325.03,130.28 L 328.16,130.28 L 331.41,130.26 L 334.55,130.26 L 338.31,130.28 L 340.98,130.28 L 344.18,130.28 L 347.40,130.26 L 350.68,130.26 L 354.01,130.26 L 357.36,130.26 L 360.33,130.28 L 363.44,130.26 L 366.76,130.26 L 369.85,130.26 L 373.12,130.26 L 376.46,130.28 L 379.72,130.28 L 383.03,130.26 L 386.10,130.26 L 389.34,130.26 L 392.45,130.26 L 395.53,130.26 L 398.98,130.28 L 402.37,130.28 L 405.18,130.26 L 408.53,130.26 L 411.80,130.28 L 414.75,130.28 L 418.14,130.28 L 421.57,130.26 L 424.33,130.28 L 427.79,130.28 L 431.01,130.28 L 434.16,130.26 L 437.22,130.28 L 440.39,130.26 L 444.02,130.26 L 446.89,130.28 L 450.44,130.26 L 453.24,130.26 L 456.37,130.26 L 459.88,130.26 L 462.95,130.28 L 466.03,130.28 L 469.29,130.26 L 472.48,130.26 L 475.89,130.26 L 479.15,130.26 L 482.69,130.28 L 485.54,130.26 L 488.42,130.26 L 491.75,130.26 L 494.84,130.26 L 498.40,130.26 L 501.41,130.28 L 504.53,130.26 L 507.76,130.26 L 511.14,130.26 L 514.68,130.26 L 517.35,130.26 L 520.45,130.26 L 524.01,130.28 L 527.10,130.26 L 530.70,130.28 L 533.65,130.26 L 536.48,130.26 L 539.82,130.28 L 543.61,130.28 L 546.23,130.26 L 549.38,130.26 L 552.54,130.26 L 556.08,130.28 L 559.31,130.28 L 562.78,130.26 L 565.78,130.26 L 568.74,130.26 L 571.81,130.28 L 576.01,130.26 L 581.39,130.28 L 584.56,130.26 L 588.24,130.28 L 591.38,130.26 L 594.24,130.26 L 597.54,130.28 L 600.88,130.28 L 604.24,130.28 L 607.97,130.28 L 610.88,130.28 L 613.90,130.28 L 616.65,130.26 L 624.08,130.26 L 629.58,130.28 L 632.72,130.28 L 636.29,130.28 L 640.23,130.26 L 645.59,130.28 L 648.99,130.28 L 652.61,130.28 L 655.29,130.26 L 659.26,130.28 L 662.08,130.26 L 665.07,130.28 L 668.82,130.28 L 672.28,130.28 L 677.64,130.28 L 680.86,130.28 L 687.28,130.28 L 693.78,130.28 L 696.89,130.26 L 700.38,130.28 L 703.70,130.28 L 707.01,130.26 L 709.70,130.26 L 713.04,130.28 L 716.16,130.26 L 719.55,130.28 L 722.46,130.26 L 725.96,130.28 L 728.89,130.26 L 732.43,130.26 L 736.35,130.26 L 741.81,130.28 L 745.06,130.28 L 748.99,130.28 L 752.05,130.28 L 755.58,130.35 L 758.11,131.68 L 761.02,134.22 L 764.35,140.06 L 768.29,151.42 L 773.92,191.45 L 777.04,218.44 L 780.81,245.49 L 783.48,269.90 L 786.61,289.52 L 789.95,303.13 L 793.02,310.49 L 796.91,312.49 L 799.73,311.42 L 802.97,309.37 L 806.23,307.41 L 809.38,306.10 L 812.36,306.21 L 815.43,307.86 L 818.76,310.06 L 821.94,311.87 L 825.35,313.74 L 828.24,315.14 L 831.71,315.74 L 834.73,315.70 L 838.21,315.39 L 841.07,315.14 L 845.14,314.87 L 848.55,314.63 L 851.07,314.61 L 853.96,314.72 L 857.57,314.87 L 861.20,314.98 L 863.57,315.07 L 866.81,315.16 L 870.15,315.30 L 873.24,315.39 L 876.88,315.43 L 880.81,315.41 L 883.23,315.41 L 886.55,315.41 L 889.12,315.39 L 893.22,315.41 L 896.06,315.41 L 898.63,315.41 L 902.26,315.41 L 905.42,315.41 L 908.36,315.41 L 912.82,315.41 L 914.93,315.41 L 921.98,315.43 L 924.81,315.43 L 927.76,315.43 L 930.92,315.43" fill="none" stroke="#c94f2d" stroke-width="2"/>
<line class="axis" x1="70" y1="338" x2="956" y2="338"/>
<line class="axis" x1="70" y1="108" x2="70" y2="338"/>
<text class="label" x="18" y="223.00" transform="rotate(-90 18 223.00)" text-anchor="middle">degrees</text>
<text class="label" x="513.0" y="374" text-anchor="middle">time relative to event (s)</text>
</svg>