<svg xmlns="http://www.w3.org/2000/svg" viewBox="0 0 980 382" role="img">
<style>
.axis{stroke:#718096;stroke-width:1}.grid{stroke:#e5eaf0;stroke-width:1}.label{font:12px sans-serif;fill:#5a6675}.title{font:700 18px sans-serif;fill:#20242a}.subtitle{font:12px sans-serif;fill:#5a6675}.panel-title{font:700 13px sans-serif;fill:#20242a}
</style>
<rect width="980" height="382" fill="#ffffff"/>
<text class="title" x="70" y="28">Yaw 16-18 deg median-arrival: episode 1108</text>
<text class="subtitle" x="70" y="50">Arrival 9 ms; settling 70 ms; trajectory lag 45 ms.</text>
<line x1="70" y1="76" x2="94" y2="76" stroke="#48525f" stroke-width="2" stroke-dasharray="6 4"/>
<text class="label" x="100" y="80">commanded target</text>
<line x1="236" y1="76" x2="260" y2="76" stroke="#c94f2d" stroke-width="2"/>
<text class="label" x="266" y="80">actual current</text>
<text class="panel-title" x="70" y="96">Yaw position</text>
<line class="grid" x1="70" y1="338.00" x2="956" y2="338.00"/>
<text class="label" x="62" y="342.00" text-anchor="end">7.9</text>
<line class="grid" x1="70" y1="280.50" x2="956" y2="280.50"/>
<text class="label" x="62" y="284.50" text-anchor="end">14.9</text>
<line class="grid" x1="70" y1="223.00" x2="956" y2="223.00"/>
<text class="label" x="62" y="227.00" text-anchor="end">22.0</text>
<line class="grid" x1="70" y1="165.50" x2="956" y2="165.50"/>
<text class="label" x="62" y="169.50" text-anchor="end">29.0</text>
<line class="grid" x1="70" y1="108.00" x2="956" y2="108.00"/>
<text class="label" x="62" y="112.00" text-anchor="end">36.0</text>
<line class="grid" x1="70.00" y1="108" x2="70.00" y2="338"/>
<text class="label" x="70.00" y="358" text-anchor="middle">-0.38</text>
<line class="grid" x1="217.67" y1="108" x2="217.67" y2="338"/>
<text class="label" x="217.67" y="358" text-anchor="middle">-0.16</text>
<line class="grid" x1="365.33" y1="108" x2="365.33" y2="338"/>
<text class="label" x="365.33" y="358" text-anchor="middle">0.05</text>
<line class="grid" x1="513.00" y1="108" x2="513.00" y2="338"/>
<text class="label" x="513.00" y="358" text-anchor="middle">0.27</text>
<line class="grid" x1="660.67" y1="108" x2="660.67" y2="338"/>
<text class="label" x="660.67" y="358" text-anchor="middle">0.49</text>
<line class="grid" x1="808.33" y1="108" x2="808.33" y2="338"/>
<text class="label" x="808.33" y="358" text-anchor="middle">0.71</text>
<line class="grid" x1="956.00" y1="108" x2="956.00" y2="338"/>
<text class="label" x="956.00" y="358" text-anchor="middle">0.93</text>
<line x1="328.18" y1="108" x2="328.18" y2="338" stroke="#5a6675" stroke-width="1.2" opacity="0.55"/>
<text class="label" x="332.18" y="120.00" transform="rotate(-35 332.18 120.00)">start</text>
<line x1="796.60" y1="108" x2="796.60" y2="338" stroke="#5a6675" stroke-width="1.2" opacity="0.55"/>
<text class="label" x="800.60" y="120.00" transform="rotate(-35 800.60 120.00)">final target</text>
<line x1="802.46" y1="108" x2="802.46" y2="338" stroke="#347a3a" stroke-width="1.2" opacity="0.55"/>
<text class="label" x="806.46" y="120.00" transform="rotate(-35 806.46 120.00)">arrive</text>
<line x1="843.76" y1="108" x2="843.76" y2="338" stroke="#8a5a00" stroke-width="1.2" opacity="0.55"/>
<text class="label" x="847.76" y="142.00" transform="rotate(-35 847.76 142.00)">settled</text>
<line x1="863.48" y1="108" x2="863.48" y2="338" stroke="#9a3412" stroke-width="1.2" opacity="0.55"/>
<text class="label" x="867.48" y="164.00" transform="rotate(-35 867.48 164.00)">next target</text>
<path d="M 95.08,307.90 L 100.23,304.61 L 107.78,304.19 L 111.98,304.19 L 120.22,299.97 L 126.43,298.21 L 132.22,298.21 L 139.21,294.80 L 145.73,294.80 L 153.85,291.12 L 160.25,291.12 L 168.19,288.41 L 172.64,288.41 L 182.04,286.47 L 186.22,284.45 L 192.82,284.45 L 199.60,283.46 L 206.80,283.46 L 214.60,280.99 L 221.22,279.01 L 226.82,279.01 L 234.21,277.21 L 241.62,275.22 L 248.72,275.22 L 255.73,272.75 L 260.52,272.75 L 267.20,272.07 L 275.24,269.75 L 282.66,269.75 L 288.82,267.54 L 294.86,267.36 L 301.35,267.36 L 307.65,268.67 L 317.29,268.67 L 321.67,264.55 L 329.27,266.61 L 335.29,266.61 L 344.32,264.95 L 355.49,263.10 L 364.83,261.42 L 369.43,261.42 L 377.82,259.91 L 383.90,259.91 L 390.22,257.88 L 396.46,258.63 L 403.88,258.63 L 410.14,253.74 L 417.77,253.74 L 423.49,249.59 L 430.23,243.79 L 439.66,243.79 L 445.99,241.07 L 451.97,241.07 L 457.38,238.76 L 464.00,231.03 L 470.72,231.03 L 478.06,221.51 L 485.48,221.51 L 491.37,217.21 L 498.44,217.21 L 505.46,211.29 L 514.03,205.46 L 517.58,205.46 L 524.60,201.17 L 532.30,194.94 L 538.18,194.94 L 547.27,189.19 L 552.14,189.19 L 558.35,182.98 L 565.61,182.98 L 572.24,179.49 L 580.80,179.49 L 587.42,176.09 L 592.47,173.35 L 600.26,173.35 L 606.84,168.04 L 612.74,168.04 L 619.50,165.89 L 626.21,162.04 L 633.05,157.94 L 641.56,157.94 L 647.76,155.02 L 655.03,155.02 L 660.44,154.39 L 667.43,154.39 L 673.63,153.31 L 682.03,151.88 L 687.83,151.88 L 694.45,149.95 L 701.23,149.95 L 708.84,147.43 L 715.70,146.45 L 723.12,146.45 L 729.25,142.11 L 734.66,141.78 L 741.30,141.78 L 749.62,137.21 L 755.40,137.21 L 761.67,134.85 L 768.32,134.85 L 775.29,132.98 L 782.05,131.67 L 791.70,131.67 L 796.28,131.67 L 802.46,130.26 L 809.84,131.32 L 817.34,132.38 L 822.66,132.38 L 829.68,134.21 L 836.69,134.06 L 843.76,134.06 L 852.18,133.63 L 861.24,133.63 L 870.94,132.41 L 878.45,132.41 L 890.28,132.41 L 897.11,132.41 L 911.07,132.41 L 917.86,132.41 L 924.26,132.41 L 930.92,132.41" fill="none" stroke="#48525f" stroke-width="2" stroke-dasharray="6 4"/>
<path d="M 95.08,315.74 L 100.23,313.74 L 107.78,312.94 L 111.98,311.94 L 120.22,311.18 L 126.43,310.10 L 132.22,308.42 L 139.21,306.17 L 145.73,303.94 L 153.85,301.31 L 160.25,299.27 L 168.19,296.98 L 172.64,294.80 L 182.04,292.76 L 186.22,291.07 L 192.82,289.76 L 199.60,288.45 L 206.80,287.27 L 214.60,286.25 L 221.22,285.22 L 226.82,284.01 L 234.21,282.87 L 241.62,281.75 L 248.72,280.52 L 255.73,279.14 L 260.52,277.96 L 267.20,276.69 L 275.24,284.51 L 282.66,285.30 L 288.82,286.27 L 294.86,283.93 L 301.35,278.33 L 307.65,273.32 L 317.29,269.83 L 321.67,269.00 L 329.27,269.20 L 335.29,268.06 L 344.32,267.65 L 355.49,267.72 L 364.83,267.41 L 369.43,266.32 L 377.82,265.19 L 383.90,263.86 L 390.22,262.58 L 396.46,261.32 L 403.88,260.08 L 410.14,259.11 L 417.77,258.58 L 423.49,257.97 L 430.23,257.03 L 439.66,256.07 L 445.99,254.14 L 451.97,251.56 L 457.38,248.29 L 464.00,245.48 L 470.72,242.83 L 478.06,240.19 L 485.48,237.87 L 491.37,234.77 L 498.44,231.94 L 505.46,228.38 L 514.03,224.98 L 517.58,221.29 L 524.60,217.04 L 532.30,213.12 L 538.18,209.44 L 547.27,205.86 L 552.14,202.59 L 558.35,199.61 L 565.61,196.34 L 572.24,193.06 L 580.80,189.98 L 587.42,186.87 L 592.47,184.47 L 600.26,181.72 L 606.84,179.27 L 612.74,177.36 L 619.50,175.38 L 626.21,173.29 L 633.05,171.35 L 641.56,169.24 L 647.76,166.65 L 655.03,164.04 L 660.44,161.45 L 667.43,159.21 L 673.63,157.28 L 682.03,155.73 L 687.83,154.88 L 694.45,154.30 L 701.23,153.77 L 708.84,153.18 L 715.70,152.71 L 723.12,151.74 L 729.25,150.53 L 734.66,149.22 L 741.30,147.72 L 749.62,146.00 L 755.40,144.68 L 761.67,142.99 L 768.32,141.34 L 775.29,139.65 L 782.05,137.91 L 791.70,136.26 L 796.28,134.87 L 802.46,133.58 L 809.84,132.39 L 817.34,131.78 L 822.66,131.55 L 829.68,131.68 L 836.69,132.11 L 843.76,132.71 L 852.18,133.22 L 861.24,133.59 L 870.94,134.24 L 878.45,134.11 L 890.28,133.36 L 897.11,132.93 L 911.07,132.36 L 917.86,132.15 L 924.26,132.03 L 930.92,132.00" fill="none" stroke="#c94f2d" stroke-width="2"/>
<line class="axis" x1="70" y1="338" x2="956" y2="338"/>
<line class="axis" x1="70" y1="108" x2="70" y2="338"/>
<text class="label" x="18" y="223.00" transform="rotate(-90 18 223.00)" text-anchor="middle">degrees</text>
<text class="label" x="513.0" y="374" text-anchor="middle">time relative to event (s)</text>
</svg>