<svg xmlns="http://www.w3.org/2000/svg" viewBox="0 0 980 382" role="img">
<style>
.axis{stroke:#718096;stroke-width:1}.grid{stroke:#e5eaf0;stroke-width:1}.label{font:12px sans-serif;fill:#5a6675}.title{font:700 18px sans-serif;fill:#20242a}.subtitle{font:12px sans-serif;fill:#5a6675}.panel-title{font:700 13px sans-serif;fill:#20242a}
</style>
<rect width="980" height="382" fill="#ffffff"/>
<text class="title" x="70" y="28">Yaw 16-18 deg high-arrival: episode 2241</text>
<text class="subtitle" x="70" y="50">Arrival 186 ms; settling 350 ms; trajectory lag not observed.</text>
<line x1="70" y1="76" x2="94" y2="76" stroke="#48525f" stroke-width="2" stroke-dasharray="6 4"/>
<text class="label" x="100" y="80">commanded target</text>
<line x1="236" y1="76" x2="260" y2="76" stroke="#c94f2d" stroke-width="2"/>
<text class="label" x="266" y="80">actual current</text>
<text class="panel-title" x="70" y="96">Yaw position</text>
<line class="grid" x1="70" y1="338.00" x2="956" y2="338.00"/>
<text class="label" x="62" y="342.00" text-anchor="end">23.8</text>
<line class="grid" x1="70" y1="280.50" x2="956" y2="280.50"/>
<text class="label" x="62" y="284.50" text-anchor="end">33.0</text>
<line class="grid" x1="70" y1="223.00" x2="956" y2="223.00"/>
<text class="label" x="62" y="227.00" text-anchor="end">42.2</text>
<line class="grid" x1="70" y1="165.50" x2="956" y2="165.50"/>
<text class="label" x="62" y="169.50" text-anchor="end">51.4</text>
<line class="grid" x1="70" y1="108.00" x2="956" y2="108.00"/>
<text class="label" x="62" y="112.00" text-anchor="end">60.6</text>
<line class="grid" x1="70.00" y1="108" x2="70.00" y2="338"/>
<text class="label" x="70.00" y="358" text-anchor="middle">-0.38</text>
<line class="grid" x1="217.67" y1="108" x2="217.67" y2="338"/>
<text class="label" x="217.67" y="358" text-anchor="middle">-0.20</text>
<line class="grid" x1="365.33" y1="108" x2="365.33" y2="338"/>
<text class="label" x="365.33" y="358" text-anchor="middle">-0.01</text>
<line class="grid" x1="513.00" y1="108" x2="513.00" y2="338"/>
<text class="label" x="513.00" y="358" text-anchor="middle">0.18</text>
<line class="grid" x1="660.67" y1="108" x2="660.67" y2="338"/>
<text class="label" x="660.67" y="358" text-anchor="middle">0.36</text>
<line class="grid" x1="808.33" y1="108" x2="808.33" y2="338"/>
<text class="label" x="808.33" y="358" text-anchor="middle">0.55</text>
<line class="grid" x1="956.00" y1="108" x2="956.00" y2="338"/>
<text class="label" x="956.00" y="358" text-anchor="middle">0.73</text>
<line x1="373.64" y1="108" x2="373.64" y2="338" stroke="#5a6675" stroke-width="1.2" opacity="0.55"/>
<text class="label" x="377.64" y="120.00" transform="rotate(-35 377.64 120.00)">start</text>
<line x1="414.56" y1="108" x2="414.56" y2="338" stroke="#5a6675" stroke-width="1.2" opacity="0.55"/>
<text class="label" x="418.56" y="120.00" transform="rotate(-35 418.56 120.00)">final target</text>
<line x1="562.81" y1="108" x2="562.81" y2="338" stroke="#347a3a" stroke-width="1.2" opacity="0.55"/>
<text class="label" x="566.81" y="120.00" transform="rotate(-35 566.81 120.00)">arrive</text>
<line x1="693.11" y1="108" x2="693.11" y2="338" stroke="#8a5a00" stroke-width="1.2" opacity="0.55"/>
<text class="label" x="697.11" y="142.00" transform="rotate(-35 697.11 142.00)">settled</text>
<path d="M 95.08,308.60 L 102.73,308.60 L 110.01,308.60 L 117.42,308.60 L 124.91,308.60 L 135.28,315.74 L 141.53,315.74 L 150.37,315.74 L 156.64,315.74 L 164.74,315.74 L 182.37,315.62 L 189.08,315.62 L 197.18,315.62 L 204.51,315.62 L 214.25,315.62 L 221.27,266.28 L 229.23,266.28 L 237.21,266.28 L 244.64,266.28 L 252.41,266.28 L 260.42,130.42 L 269.41,130.42 L 277.07,130.42 L 284.15,130.42 L 301.51,130.42 L 308.95,130.42 L 317.29,130.42 L 324.04,130.42 L 340.29,130.42 L 349.51,130.42 L 356.60,130.42 L 363.86,130.42 L 374.80,236.17 L 380.47,236.17 L 387.79,236.17 L 397.28,236.17 L 403.62,236.17 L 413.83,236.17 L 422.14,130.42 L 428.09,130.42 L 436.70,130.42 L 443.57,130.42 L 454.33,130.42 L 461.51,130.42 L 468.19,130.42 L 476.26,130.42 L 483.73,130.42 L 494.60,130.42 L 501.37,130.42 L 507.85,130.42 L 516.23,130.42 L 523.27,130.42 L 532.44,130.42 L 541.46,130.42 L 548.21,130.42 L 555.43,130.42 L 562.81,130.42 L 571.83,130.42 L 579.09,130.42 L 595.47,130.42 L 603.04,130.42 L 611.16,130.42 L 621.46,130.42 L 627.52,130.42 L 634.96,130.42 L 642.64,130.42 L 651.58,130.42 L 659.45,130.42 L 666.41,130.42 L 674.99,130.42 L 682.35,130.42 L 693.11,130.42 L 698.68,130.42 L 706.85,130.42 L 714.59,130.42 L 722.57,130.42 L 733.20,130.42 L 738.69,130.42 L 746.48,130.42 L 754.43,130.42 L 762.47,130.42 L 773.10,130.42 L 780.83,130.42 L 786.72,130.42 L 794.77,130.42 L 802.30,130.42 L 810.07,130.42 L 820.02,130.42 L 826.37,130.42 L 834.70,130.42 L 842.14,130.42 L 850.36,130.42 L 858.37,130.42 L 865.77,130.42 L 874.43,130.42 L 882.03,130.42 L 898.55,130.42 L 906.00,130.42 L 914.41,130.42 L 921.46,130.42 L 930.92,130.42" fill="none" stroke="#48525f" stroke-width="2" stroke-dasharray="6 4"/>
<path d="M 95.08,256.01 L 102.73,257.10 L 110.01,262.38 L 117.42,270.91 L 124.91,281.70 L 135.28,292.28 L 141.53,301.08 L 150.37,307.39 L 156.64,311.35 L 164.74,312.92 L 182.37,312.53 L 189.08,312.20 L 197.18,311.94 L 204.51,312.16 L 214.25,312.80 L 221.27,313.58 L 229.23,314.00 L 237.21,314.03 L 244.64,312.94 L 252.41,309.68 L 260.42,303.80 L 269.41,295.24 L 277.07,284.71 L 284.15,271.86 L 301.51,240.02 L 308.95,221.30 L 317.29,202.24 L 324.04,185.06 L 340.29,154.90 L 349.51,145.31 L 356.60,139.30 L 363.86,136.66 L 374.80,136.21 L 380.47,136.61 L 387.79,137.14 L 397.28,138.27 L 403.62,140.28 L 413.83,143.36 L 422.14,149.16 L 428.09,157.30 L 436.70,169.37 L 443.57,183.25 L 454.33,198.52 L 461.51,210.96 L 468.19,221.11 L 476.26,227.45 L 483.73,229.59 L 494.60,227.64 L 501.37,221.70 L 507.85,212.59 L 516.23,200.95 L 523.27,187.69 L 532.44,173.25 L 541.46,160.03 L 548.21,148.60 L 555.43,140.10 L 562.81,134.77 L 571.83,132.33 L 579.09,132.21 L 595.47,134.20 L 603.04,135.04 L 611.16,135.37 L 621.46,134.89 L 627.52,133.83 L 634.96,132.73 L 642.64,131.84 L 651.58,130.97 L 659.45,130.40 L 666.41,130.26 L 674.99,130.33 L 682.35,130.46 L 693.11,130.55 L 698.68,130.71 L 706.85,130.83 L 714.59,130.82 L 722.57,130.75 L 733.20,130.68 L 738.69,130.61 L 746.48,130.56 L 754.43,130.52 L 762.47,130.49 L 773.10,130.47 L 780.83,130.46 L 786.72,130.46 L 794.77,130.45 L 802.30,130.45 L 810.07,130.48 L 820.02,130.49 L 826.37,130.47 L 834.70,130.46 L 842.14,130.45 L 850.36,130.44 L 858.37,130.43 L 865.77,130.43 L 874.43,130.43 L 882.03,130.44 L 898.55,130.43 L 906.00,130.42 L 914.41,130.42 L 921.46,130.42 L 930.92,130.43" fill="none" stroke="#c94f2d" stroke-width="2"/>
<line class="axis" x1="70" y1="338" x2="956" y2="338"/>
<line class="axis" x1="70" y1="108" x2="70" y2="338"/>
<text class="label" x="18" y="223.00" transform="rotate(-90 18 223.00)" text-anchor="middle">degrees</text>
<text class="label" x="513.0" y="374" text-anchor="middle">time relative to event (s)</text>
</svg>