<svg xmlns="http://www.w3.org/2000/svg" viewBox="0 0 980 382" role="img">
<style>
.axis{stroke:#718096;stroke-width:1}.grid{stroke:#e5eaf0;stroke-width:1}.label{font:12px sans-serif;fill:#5a6675}.title{font:700 18px sans-serif;fill:#20242a}.subtitle{font:12px sans-serif;fill:#5a6675}.panel-title{font:700 13px sans-serif;fill:#20242a}
</style>
<rect width="980" height="382" fill="#ffffff"/>
<text class="title" x="70" y="28">Yaw 18-20 deg median-arrival: episode 1235</text>
<text class="subtitle" x="70" y="50">Arrival 13 ms; settling not observed; trajectory lag 55 ms.</text>
<line x1="70" y1="76" x2="94" y2="76" stroke="#48525f" stroke-width="2" stroke-dasharray="6 4"/>
<text class="label" x="100" y="80">commanded target</text>
<line x1="236" y1="76" x2="260" y2="76" stroke="#c94f2d" stroke-width="2"/>
<text class="label" x="266" y="80">actual current</text>
<text class="panel-title" x="70" y="96">Yaw position</text>
<line class="grid" x1="70" y1="338.00" x2="956" y2="338.00"/>
<text class="label" x="62" y="342.00" text-anchor="end">-4.9</text>
<line class="grid" x1="70" y1="280.50" x2="956" y2="280.50"/>
<text class="label" x="62" y="284.50" text-anchor="end">2.4</text>
<line class="grid" x1="70" y1="223.00" x2="956" y2="223.00"/>
<text class="label" x="62" y="227.00" text-anchor="end">9.7</text>
<line class="grid" x1="70" y1="165.50" x2="956" y2="165.50"/>
<text class="label" x="62" y="169.50" text-anchor="end">17.1</text>
<line class="grid" x1="70" y1="108.00" x2="956" y2="108.00"/>
<text class="label" x="62" y="112.00" text-anchor="end">24.4</text>
<line class="grid" x1="70.00" y1="108" x2="70.00" y2="338"/>
<text class="label" x="70.00" y="358" text-anchor="middle">-0.38</text>
<line class="grid" x1="217.67" y1="108" x2="217.67" y2="338"/>
<text class="label" x="217.67" y="358" text-anchor="middle">-0.17</text>
<line class="grid" x1="365.33" y1="108" x2="365.33" y2="338"/>
<text class="label" x="365.33" y="358" text-anchor="middle">0.05</text>
<line class="grid" x1="513.00" y1="108" x2="513.00" y2="338"/>
<text class="label" x="513.00" y="358" text-anchor="middle">0.27</text>
<line class="grid" x1="660.67" y1="108" x2="660.67" y2="338"/>
<text class="label" x="660.67" y="358" text-anchor="middle">0.49</text>
<line class="grid" x1="808.33" y1="108" x2="808.33" y2="338"/>
<text class="label" x="808.33" y="358" text-anchor="middle">0.70</text>
<line class="grid" x1="956.00" y1="108" x2="956.00" y2="338"/>
<text class="label" x="956.00" y="358" text-anchor="middle">0.92</text>
<line x1="330.61" y1="108" x2="330.61" y2="338" stroke="#5a6675" stroke-width="1.2" opacity="0.55"/>
<text class="label" x="334.61" y="120.00" transform="rotate(-35 334.61 120.00)">start</text>
<line x1="799.62" y1="108" x2="799.62" y2="338" stroke="#5a6675" stroke-width="1.2" opacity="0.55"/>
<text class="label" x="803.62" y="120.00" transform="rotate(-35 803.62 120.00)">final target</text>
<line x1="808.22" y1="108" x2="808.22" y2="338" stroke="#347a3a" stroke-width="1.2" opacity="0.55"/>
<text class="label" x="812.22" y="120.00" transform="rotate(-35 812.22 120.00)">arrive</text>
<line x1="815.35" y1="108" x2="815.35" y2="338" stroke="#9a3412" stroke-width="1.2" opacity="0.55"/>
<text class="label" x="819.35" y="164.00" transform="rotate(-35 819.35 164.00)">next target</text>
<path d="M 95.08,306.34 L 102.11,306.34 L 109.35,306.34 L 115.61,306.34 L 124.47,306.34 L 128.93,306.34 L 135.67,306.34 L 142.73,306.34 L 149.67,306.34 L 157.42,306.34 L 164.20,306.34 L 169.65,306.34 L 177.04,306.34 L 184.30,306.34 L 190.14,306.34 L 197.24,306.34 L 203.57,306.34 L 210.64,306.34 L 217.69,306.34 L 225.55,306.34 L 231.89,306.34 L 237.55,306.34 L 245.03,306.34 L 252.13,306.34 L 258.37,306.34 L 266.22,306.34 L 271.76,306.34 L 278.59,306.34 L 285.10,314.97 L 293.25,314.97 L 299.17,314.97 L 306.50,314.97 L 312.95,314.97 L 319.70,314.97 L 325.98,314.97 L 334.29,314.97 L 340.00,314.97 L 347.92,314.17 L 354.07,308.44 L 361.47,308.44 L 367.46,303.92 L 374.49,303.92 L 380.78,299.95 L 388.26,295.20 L 395.28,295.20 L 402.07,290.13 L 408.33,290.13 L 414.34,287.59 L 421.12,282.61 L 428.94,282.61 L 434.55,277.05 L 442.17,277.05 L 448.51,275.37 L 457.69,270.41 L 463.80,270.41 L 470.15,264.92 L 475.49,264.92 L 481.91,262.18 L 489.40,256.90 L 495.68,256.90 L 502.33,253.62 L 509.89,253.62 L 516.24,249.78 L 523.27,218.38 L 532.27,218.38 L 537.11,214.69 L 544.28,214.69 L 549.86,212.36 L 556.81,209.83 L 565.04,209.83 L 570.80,205.36 L 577.94,205.26 L 583.90,205.26 L 591.11,203.32 L 597.91,203.32 L 606.64,199.45 L 612.06,199.45 L 618.53,195.95 L 624.57,192.69 L 631.40,192.69 L 637.88,188.79 L 645.31,188.79 L 651.87,184.50 L 666.83,182.81 L 672.46,180.45 L 686.02,181.18 L 692.12,178.96 L 706.34,176.04 L 713.97,176.04 L 719.63,174.15 L 741.00,169.77 L 753.58,166.81 L 760.86,164.75 L 767.48,164.75 L 773.90,163.15 L 780.89,163.15 L 787.60,162.21 L 808.22,160.94 L 815.22,160.94 L 822.04,161.12 L 828.43,159.17 L 842.11,156.41 L 848.55,156.41 L 855.87,153.73 L 862.10,150.72 L 870.79,150.72 L 876.15,154.82 L 882.62,154.82 L 892.13,150.73 L 909.76,139.67 L 923.36,133.95 L 930.92,130.26" fill="none" stroke="#48525f" stroke-width="2" stroke-dasharray="6 4"/>
<path d="M 95.08,306.35 L 102.11,306.35 L 109.35,306.34 L 115.61,306.34 L 124.47,306.35 L 128.93,306.35 L 135.67,306.35 L 142.73,306.35 L 149.67,306.35 L 157.42,306.35 L 164.20,306.35 L 169.65,306.34 L 177.04,306.34 L 184.30,306.34 L 190.14,306.35 L 197.24,306.34 L 203.57,306.35 L 210.64,306.34 L 217.69,306.35 L 225.55,306.35 L 231.89,306.34 L 237.55,306.34 L 245.03,306.34 L 252.13,306.34 L 258.37,306.35 L 266.22,306.34 L 271.76,306.35 L 278.59,306.35 L 285.10,306.34 L 293.25,306.37 L 299.17,306.86 L 306.50,307.89 L 312.95,309.34 L 319.70,311.16 L 325.98,312.68 L 334.29,314.28 L 340.00,315.32 L 347.92,315.74 L 354.07,315.56 L 361.47,315.04 L 367.46,314.06 L 374.49,312.70 L 380.78,310.82 L 388.26,308.58 L 395.28,306.09 L 402.07,303.27 L 408.33,300.38 L 414.34,297.43 L 421.12,294.68 L 428.94,292.24 L 434.55,289.80 L 442.17,287.50 L 448.51,284.84 L 457.69,282.46 L 463.80,280.53 L 470.15,278.30 L 475.49,276.14 L 481.91,273.60 L 489.40,270.62 L 495.68,268.15 L 502.33,265.46 L 509.89,262.71 L 516.24,260.00 L 523.27,257.32 L 532.27,255.11 L 537.11,252.47 L 544.28,249.00 L 549.86,244.56 L 556.81,238.39 L 565.04,231.21 L 570.80,223.85 L 577.94,217.38 L 583.90,211.97 L 591.11,208.61 L 597.91,207.11 L 606.64,206.64 L 612.06,206.57 L 618.53,206.09 L 624.57,205.51 L 631.40,203.89 L 637.88,201.42 L 645.31,198.70 L 651.87,195.87 L 666.83,190.63 L 672.46,188.22 L 686.02,184.75 L 692.12,183.62 L 706.34,181.84 L 713.97,181.18 L 719.63,180.15 L 741.00,190.36 L 753.58,181.91 L 760.86,176.97 L 767.48,172.92 L 773.90,170.42 L 780.89,168.93 L 787.60,166.87 L 808.22,164.49 L 815.22,164.35 L 822.04,163.63 L 828.43,162.85 L 842.11,161.22 L 848.55,160.43 L 855.87,159.36 L 862.10,158.10 L 870.79,156.99 L 876.15,155.64 L 882.62,154.45 L 892.13,154.03 L 909.76,151.36 L 923.36,147.80 L 930.92,144.91" fill="none" stroke="#c94f2d" stroke-width="2"/>
<line class="axis" x1="70" y1="338" x2="956" y2="338"/>
<line class="axis" x1="70" y1="108" x2="70" y2="338"/>
<text class="label" x="18" y="223.00" transform="rotate(-90 18 223.00)" text-anchor="middle">degrees</text>
<text class="label" x="513.0" y="374" text-anchor="middle">time relative to event (s)</text>
</svg>