<svg xmlns="http://www.w3.org/2000/svg" viewBox="0 0 980 382" role="img">
<style>
.axis{stroke:#718096;stroke-width:1}.grid{stroke:#e5eaf0;stroke-width:1}.label{font:12px sans-serif;fill:#5a6675}.title{font:700 18px sans-serif;fill:#20242a}.subtitle{font:12px sans-serif;fill:#5a6675}.panel-title{font:700 13px sans-serif;fill:#20242a}
</style>
<rect width="980" height="382" fill="#ffffff"/>
<text class="title" x="70" y="28">Yaw 18-20 deg high-arrival: episode 715</text>
<text class="subtitle" x="70" y="50">Arrival 158 ms; settling 296 ms; trajectory lag 45 ms.</text>
<line x1="70" y1="76" x2="94" y2="76" stroke="#48525f" stroke-width="2" stroke-dasharray="6 4"/>
<text class="label" x="100" y="80">commanded target</text>
<line x1="236" y1="76" x2="260" y2="76" stroke="#c94f2d" stroke-width="2"/>
<text class="label" x="266" y="80">actual current</text>
<text class="panel-title" x="70" y="96">Yaw position</text>
<line class="grid" x1="70" y1="338.00" x2="956" y2="338.00"/>
<text class="label" x="62" y="342.00" text-anchor="end">-5.4</text>
<line class="grid" x1="70" y1="280.50" x2="956" y2="280.50"/>
<text class="label" x="62" y="284.50" text-anchor="end">0.8</text>
<line class="grid" x1="70" y1="223.00" x2="956" y2="223.00"/>
<text class="label" x="62" y="227.00" text-anchor="end">6.9</text>
<line class="grid" x1="70" y1="165.50" x2="956" y2="165.50"/>
<text class="label" x="62" y="169.50" text-anchor="end">13.0</text>
<line class="grid" x1="70" y1="108.00" x2="956" y2="108.00"/>
<text class="label" x="62" y="112.00" text-anchor="end">19.1</text>
<line class="grid" x1="70.00" y1="108" x2="70.00" y2="338"/>
<text class="label" x="70.00" y="358" text-anchor="middle">-0.43</text>
<line class="grid" x1="217.67" y1="108" x2="217.67" y2="338"/>
<text class="label" x="217.67" y="358" text-anchor="middle">0.10</text>
<line class="grid" x1="365.33" y1="108" x2="365.33" y2="338"/>
<text class="label" x="365.33" y="358" text-anchor="middle">0.63</text>
<line class="grid" x1="513.00" y1="108" x2="513.00" y2="338"/>
<text class="label" x="513.00" y="358" text-anchor="middle">1.16</text>
<line class="grid" x1="660.67" y1="108" x2="660.67" y2="338"/>
<text class="label" x="660.67" y="358" text-anchor="middle">1.70</text>
<line class="grid" x1="808.33" y1="108" x2="808.33" y2="338"/>
<text class="label" x="808.33" y="358" text-anchor="middle">2.23</text>
<line class="grid" x1="956.00" y1="108" x2="956.00" y2="338"/>
<text class="label" x="956.00" y="358" text-anchor="middle">2.76</text>
<line x1="190.37" y1="108" x2="190.37" y2="338" stroke="#5a6675" stroke-width="1.2" opacity="0.55"/>
<text class="label" x="194.37" y="120.00" transform="rotate(-35 194.37 120.00)">start</text>
<line x1="768.03" y1="108" x2="768.03" y2="338" stroke="#5a6675" stroke-width="1.2" opacity="0.55"/>
<text class="label" x="772.03" y="120.00" transform="rotate(-35 772.03 120.00)">final target</text>
<line x1="811.80" y1="108" x2="811.80" y2="338" stroke="#347a3a" stroke-width="1.2" opacity="0.55"/>
<text class="label" x="815.80" y="120.00" transform="rotate(-35 815.80 120.00)">arrive</text>
<line x1="850.07" y1="108" x2="850.07" y2="338" stroke="#8a5a00" stroke-width="1.2" opacity="0.55"/>
<text class="label" x="854.07" y="142.00" transform="rotate(-35 854.07 142.00)">settled</text>
<path d="M 95.08,139.04 L 97.05,139.04 L 100.00,138.47 L 102.64,138.02 L 108.24,137.56 L 111.71,137.56 L 113.83,136.93 L 116.69,136.53 L 119.54,136.53 L 122.66,136.00 L 125.39,136.00 L 127.94,135.63 L 130.51,135.15 L 133.82,135.15 L 136.64,134.70 L 138.86,134.70 L 141.58,134.23 L 144.31,133.90 L 147.76,133.90 L 149.91,133.61 L 152.67,133.61 L 155.51,133.17 L 158.73,132.76 L 161.20,132.76 L 164.12,132.39 L 166.99,132.39 L 169.53,131.91 L 172.75,131.67 L 175.87,131.67 L 177.72,131.29 L 180.89,131.29 L 183.44,130.96 L 186.10,130.67 L 190.02,130.67 L 191.64,130.37 L 194.62,130.37 L 197.29,130.37 L 199.97,130.37 L 206.06,130.37 L 208.23,130.37 L 211.15,130.37 L 213.80,130.37 L 217.11,130.37 L 219.88,130.37 L 222.21,130.37 L 225.08,130.37 L 227.74,130.37 L 230.61,130.37 L 238.92,130.37 L 241.46,130.37 L 244.31,130.37 L 247.33,130.37 L 250.77,130.37 L 252.81,130.37 L 255.93,130.37 L 261.56,130.37 L 263.86,130.37 L 266.70,130.37 L 269.44,130.37 L 272.84,130.37 L 275.01,130.37 L 277.98,130.37 L 280.61,130.37 L 283.27,130.37 L 286.39,130.37 L 289.26,130.37 L 291.65,130.37 L 294.36,130.37 L 297.09,130.37 L 299.96,130.37 L 303.27,130.37 L 308.48,130.37 L 311.10,130.37 L 314.38,130.37 L 316.82,130.37 L 319.62,130.37 L 322.32,130.37 L 325.14,130.37 L 328.08,130.37 L 330.87,130.37 L 333.14,130.37 L 337.01,130.37 L 342.35,130.37 L 345.06,130.37 L 347.62,130.37 L 350.12,130.37 L 352.92,130.37 L 355.50,130.37 L 358.66,130.37 L 361.07,130.37 L 364.01,130.37 L 366.78,130.37 L 369.77,130.37 L 372.55,130.37 L 374.80,130.37 L 377.88,130.37 L 380.69,130.37 L 383.56,130.37 L 386.36,130.37 L 388.95,130.37 L 391.74,130.37 L 397.65,130.37 L 400.24,130.37 L 402.83,130.37 L 405.75,130.37 L 408.43,130.37 L 411.64,130.37 L 414.23,130.37 L 417.00,130.37 L 419.56,130.37 L 428.15,130.37 L 431.26,130.37 L 433.32,130.37 L 436.40,130.37 L 438.82,130.37 L 442.14,130.37 L 444.92,130.37 L 448.01,130.37 L 450.14,130.37 L 452.73,130.37 L 455.59,130.37 L 458.41,130.37 L 461.07,130.37 L 463.89,130.37 L 467.38,130.37 L 469.34,130.37 L 472.21,130.37 L 474.93,130.37 L 480.90,130.37 L 483.53,130.37 L 486.10,130.37 L 489.06,130.37 L 491.54,130.37 L 494.47,130.37 L 497.43,130.37 L 500.08,130.37 L 503.33,130.37 L 505.56,130.37 L 508.63,130.37 L 511.33,130.37 L 513.74,130.37 L 516.87,130.37 L 519.76,130.37 L 523.10,130.37 L 525.28,130.37 L 527.80,130.37 L 536.42,130.37 L 538.98,130.37 L 541.65,130.37 L 545.18,130.37 L 547.26,130.37 L 550.03,130.37 L 553.21,130.37 L 555.57,130.37 L 559.11,130.37 L 561.09,130.37 L 564.18,130.37 L 566.57,130.37 L 569.40,130.37 L 572.32,130.37 L 575.15,130.37 L 577.74,130.37 L 580.90,130.37 L 583.30,130.37 L 586.90,130.37 L 588.76,130.37 L 591.63,130.37 L 594.55,130.37 L 597.22,130.37 L 600.38,130.37 L 603.32,130.37 L 605.41,130.37 L 608.45,130.37 L 611.13,130.37 L 613.81,130.37 L 619.71,130.37 L 622.39,130.37 L 624.84,130.37 L 627.70,130.37 L 630.56,130.37 L 633.49,130.37 L 636.10,130.37 L 638.71,130.37 L 642.61,130.37 L 644.58,130.37 L 647.14,130.37 L 650.13,130.37 L 652.76,130.37 L 655.57,130.37 L 658.95,130.37 L 660.98,130.37 L 663.97,130.37 L 666.63,130.37 L 669.94,130.37 L 672.21,130.37 L 674.97,130.37 L 677.88,130.37 L 680.40,130.37 L 683.29,130.37 L 686.93,130.37 L 688.73,130.37 L 691.63,130.37 L 694.44,130.37 L 697.37,130.37 L 699.95,130.37 L 702.80,130.37 L 705.48,130.37 L 708.23,130.37 L 711.47,130.37 L 714.51,130.37 L 716.63,130.37 L 719.38,130.37 L 722.06,130.37 L 725.31,130.37 L 727.64,130.37 L 730.69,130.37 L 733.42,130.37 L 736.12,130.37 L 739.41,130.37 L 742.24,130.37 L 744.30,130.37 L 747.37,130.37 L 750.01,130.37 L 752.90,130.37 L 755.75,130.37 L 758.22,130.37 L 761.28,130.37 L 763.78,130.37 L 767.23,130.37 L 769.92,315.66 L 772.11,315.66 L 774.96,315.66 L 777.65,315.66 L 784.07,315.66 L 786.02,315.66 L 789.01,315.66 L 791.79,315.66 L 794.84,315.66 L 797.26,315.66 L 800.18,315.66 L 802.95,315.66 L 805.73,315.66 L 811.80,315.66 L 813.81,315.66 L 816.76,315.66 L 819.42,315.66 L 822.21,315.66 L 825.45,315.66 L 827.80,315.66 L 830.52,315.66 L 833.37,315.66 L 836.24,315.66 L 839.45,315.66 L 841.59,315.66 L 844.49,315.66 L 847.23,315.66 L 850.07,315.66 L 852.98,315.66 L 855.51,315.66 L 858.32,315.66 L 861.21,315.66 L 863.85,315.66 L 866.59,315.66 L 869.33,315.66 L 872.29,315.66 L 875.11,315.66 L 878.13,315.66 L 881.20,315.66 L 883.39,315.66 L 886.33,315.66 L 888.83,315.66 L 891.72,315.66 L 894.64,315.66 L 897.12,315.66 L 900.88,315.66 L 903.05,315.66 L 905.57,315.66 L 908.75,315.66 L 911.08,315.66 L 913.89,315.66 L 917.34,315.66 L 919.51,315.66 L 922.61,315.66 L 925.20,315.66 L 927.77,315.66 L 930.92,315.66" fill="none" stroke="#48525f" stroke-width="2" stroke-dasharray="6 4"/>
<path d="M 95.08,140.54 L 97.05,140.18 L 100.00,139.86 L 102.64,139.52 L 108.24,138.90 L 111.71,138.56 L 113.83,138.29 L 116.69,137.94 L 119.54,137.63 L 122.66,137.33 L 125.39,137.03 L 127.94,136.74 L 130.51,136.44 L 133.82,136.18 L 136.64,135.86 L 138.86,135.61 L 141.58,135.37 L 144.31,135.10 L 147.76,134.83 L 149.91,134.58 L 152.67,134.33 L 155.51,134.11 L 158.73,133.84 L 161.20,133.62 L 164.12,133.38 L 166.99,133.16 L 169.53,132.96 L 172.75,132.71 L 175.87,132.49 L 177.72,132.27 L 180.89,132.03 L 183.44,131.83 L 186.10,131.59 L 190.02,131.39 L 191.64,131.17 L 194.62,130.98 L 197.29,130.82 L 199.97,130.66 L 206.06,130.48 L 208.23,130.41 L 211.15,130.39 L 213.80,130.38 L 217.11,130.36 L 219.88,130.34 L 222.21,130.33 L 225.08,130.29 L 227.74,130.29 L 230.61,130.27 L 238.92,130.26 L 241.46,130.26 L 244.31,130.26 L 247.33,130.26 L 250.77,130.26 L 252.81,130.26 L 255.93,130.26 L 261.56,130.26 L 263.86,130.26 L 266.70,130.26 L 269.44,130.26 L 272.84,130.26 L 275.01,130.26 L 277.98,130.26 L 280.61,130.26 L 283.27,130.26 L 286.39,130.26 L 289.26,130.26 L 291.65,130.26 L 294.36,130.26 L 297.09,130.26 L 299.96,130.26 L 303.27,130.26 L 308.48,130.26 L 311.10,130.26 L 314.38,130.26 L 316.82,130.26 L 319.62,130.26 L 322.32,130.26 L 325.14,130.26 L 328.08,130.26 L 330.87,130.26 L 333.14,130.26 L 337.01,130.26 L 342.35,130.26 L 345.06,130.26 L 347.62,130.26 L 350.12,130.26 L 352.92,130.26 L 355.50,130.26 L 358.66,130.26 L 361.07,130.26 L 364.01,130.26 L 366.78,130.26 L 369.77,130.26 L 372.55,130.26 L 374.80,130.26 L 377.88,130.26 L 380.69,130.26 L 383.56,130.26 L 386.36,130.26 L 388.95,130.26 L 391.74,130.26 L 397.65,130.27 L 400.24,130.26 L 402.83,130.26 L 405.75,130.26 L 408.43,130.26 L 411.64,130.27 L 414.23,130.26 L 417.00,130.27 L 419.56,130.26 L 428.15,130.27 L 431.26,130.26 L 433.32,130.26 L 436.40,130.27 L 438.82,130.27 L 442.14,130.27 L 444.92,130.27 L 448.01,130.27 L 450.14,130.27 L 452.73,130.27 L 455.59,130.27 L 458.41,130.26 L 461.07,130.27 L 463.89,130.27 L 467.38,130.27 L 469.34,130.27 L 472.21,130.27 L 474.93,130.27 L 480.90,130.27 L 483.53,130.27 L 486.10,130.27 L 489.06,130.27 L 491.54,130.27 L 494.47,130.27 L 497.43,130.27 L 500.08,130.27 L 503.33,130.27 L 505.56,130.27 L 508.63,130.27 L 511.33,130.27 L 513.74,130.27 L 516.87,130.27 L 519.76,130.27 L 523.10,130.27 L 525.28,130.27 L 527.80,130.27 L 536.42,130.27 L 538.98,130.27 L 541.65,130.27 L 545.18,130.27 L 547.26,130.27 L 550.03,130.27 L 553.21,130.27 L 555.57,130.27 L 559.11,130.27 L 561.09,130.27 L 564.18,130.27 L 566.57,130.27 L 569.40,130.27 L 572.32,130.27 L 575.15,130.27 L 577.74,130.27 L 580.90,130.27 L 583.30,130.27 L 586.90,130.27 L 588.76,130.27 L 591.63,130.27 L 594.55,130.27 L 597.22,130.27 L 600.38,130.27 L 603.32,130.27 L 605.41,130.27 L 608.45,130.27 L 611.13,130.27 L 613.81,130.27 L 619.71,130.27 L 622.39,130.27 L 624.84,130.27 L 627.70,130.27 L 630.56,130.27 L 633.49,130.27 L 636.10,130.27 L 638.71,130.27 L 642.61,130.27 L 644.58,130.27 L 647.14,130.27 L 650.13,130.27 L 652.76,130.27 L 655.57,130.27 L 658.95,130.27 L 660.98,130.27 L 663.97,130.27 L 666.63,130.27 L 669.94,130.27 L 672.21,130.27 L 674.97,130.27 L 677.88,130.27 L 680.40,130.27 L 683.29,130.27 L 686.93,130.27 L 688.73,130.27 L 691.63,130.27 L 694.44,130.27 L 697.37,130.27 L 699.95,130.27 L 702.80,130.27 L 705.48,130.27 L 708.23,130.27 L 711.47,130.26 L 714.51,130.27 L 716.63,130.27 L 719.38,130.27 L 722.06,130.27 L 725.31,130.27 L 727.64,130.27 L 730.69,130.27 L 733.42,130.27 L 736.12,130.27 L 739.41,130.27 L 742.24,130.27 L 744.30,130.27 L 747.37,130.27 L 750.01,130.27 L 752.90,130.27 L 755.75,130.27 L 758.22,130.27 L 761.28,130.27 L 763.78,130.27 L 767.23,130.27 L 769.92,130.27 L 772.11,130.36 L 774.96,131.46 L 777.65,133.57 L 784.07,147.83 L 786.02,161.48 L 789.01,180.49 L 791.79,203.34 L 794.84,227.72 L 797.26,251.47 L 800.18,273.31 L 802.95,291.05 L 805.73,303.08 L 811.80,311.67 L 813.81,310.91 L 816.76,309.34 L 819.42,307.83 L 822.21,307.02 L 825.45,307.44 L 827.80,309.02 L 830.52,310.93 L 833.37,312.53 L 836.24,314.21 L 839.45,315.39 L 841.59,315.74 L 844.49,315.62 L 847.23,315.37 L 850.07,315.24 L 852.98,315.03 L 855.51,314.90 L 858.32,314.93 L 861.21,315.03 L 863.85,315.15 L 866.59,315.27 L 869.33,315.35 L 872.29,315.44 L 875.11,315.51 L 878.13,315.56 L 881.20,315.57 L 883.39,315.59 L 886.33,315.61 L 888.83,315.61 L 891.72,315.62 L 894.64,315.62 L 897.12,315.62 L 900.88,315.62 L 903.05,315.62 L 905.57,315.62 L 908.75,315.62 L 911.08,315.64 L 913.89,315.64 L 917.34,315.66 L 919.51,315.66 L 922.61,315.66 L 925.20,315.67 L 927.77,315.67 L 930.92,315.67" fill="none" stroke="#c94f2d" stroke-width="2"/>
<line class="axis" x1="70" y1="338" x2="956" y2="338"/>
<line class="axis" x1="70" y1="108" x2="70" y2="338"/>
<text class="label" x="18" y="223.00" transform="rotate(-90 18 223.00)" text-anchor="middle">degrees</text>
<text class="label" x="513.0" y="374" text-anchor="middle">time relative to event (s)</text>
</svg>