<svg xmlns="http://www.w3.org/2000/svg" viewBox="0 0 980 1186" role="img">
<style>
.axis{stroke:#718096;stroke-width:1}.grid{stroke:#e5eaf0;stroke-width:1}.label{font:12px sans-serif;fill:#5a6675}.title{font:700 18px sans-serif;fill:#20242a}.subtitle{font:12px sans-serif;fill:#5a6675}.panel-title{font:700 13px sans-serif;fill:#20242a}
</style>
<rect width="980" height="1186" fill="#ffffff"/>
<text class="title" x="70" y="28">Motion disturbance example 1: event 225</text>
<text class="subtitle" x="70" y="50">Start pitch 3.5 deg, yaw -6.8 deg; target motion 8.4 deg; disturbance vector 3.07 deg.</text>
<line x1="70" y1="76" x2="94" y2="76" stroke="#48525f" stroke-width="2" stroke-dasharray="6 4"/>
<text class="label" x="100" y="80">target</text>
<line x1="200" y1="76" x2="224" y2="76" stroke="#1769aa" stroke-width="2"/>
<text class="label" x="230" y="80">pitch actual</text>
<line x1="338" y1="76" x2="362" y2="76" stroke="#c94f2d" stroke-width="2"/>
<text class="label" x="368" y="80">yaw actual</text>
<line x1="468" y1="76" x2="492" y2="76" stroke="#1769aa" stroke-width="2"/>
<text class="label" x="498" y="80">pitch disturbance</text>
<line x1="641" y1="76" x2="665" y2="76" stroke="#8a94a3" stroke-width="2" stroke-dasharray="6 4"/>
<text class="label" x="671" y="80">zero baseline</text>
<line x1="786" y1="76" x2="810" y2="76" stroke="#c94f2d" stroke-width="2"/>
<text class="label" x="816" y="80">yaw disturbance</text>
<text class="panel-title" x="70" y="96">Pitch position</text>
<line class="grid" x1="70" y1="338.00" x2="956" y2="338.00"/>
<text class="label" x="62" y="342.00" text-anchor="end">-1.2</text>
<line class="grid" x1="70" y1="280.50" x2="956" y2="280.50"/>
<text class="label" x="62" y="284.50" text-anchor="end">2.2</text>
<line class="grid" x1="70" y1="223.00" x2="956" y2="223.00"/>
<text class="label" x="62" y="227.00" text-anchor="end">5.6</text>
<line class="grid" x1="70" y1="165.50" x2="956" y2="165.50"/>
<text class="label" x="62" y="169.50" text-anchor="end">8.9</text>
<line class="grid" x1="70" y1="108.00" x2="956" y2="108.00"/>
<text class="label" x="62" y="112.00" text-anchor="end">12.3</text>
<line class="grid" x1="70.00" y1="108" x2="70.00" y2="338"/>
<line class="grid" x1="217.67" y1="108" x2="217.67" y2="338"/>
<line class="grid" x1="365.33" y1="108" x2="365.33" y2="338"/>
<line class="grid" x1="513.00" y1="108" x2="513.00" y2="338"/>
<line class="grid" x1="660.67" y1="108" x2="660.67" y2="338"/>
<line class="grid" x1="808.33" y1="108" x2="808.33" y2="338"/>
<line class="grid" x1="956.00" y1="108" x2="956.00" y2="338"/>
<line x1="304.26" y1="108" x2="304.26" y2="338" stroke="#20242a" stroke-width="1.2" opacity="0.55"/>
<text class="label" x="308.26" y="120.00" transform="rotate(-35 308.26 120.00)">fire</text>
<line x1="346.36" y1="108" x2="346.36" y2="338" stroke="#6b7280" stroke-width="1.2" opacity="0.55"/>
<text class="label" x="350.36" y="120.00" transform="rotate(-35 350.36 120.00)">muzzle</text>
<line x1="450.61" y1="108" x2="450.61" y2="338" stroke="#6b7280" stroke-width="1.2" opacity="0.55"/>
<text class="label" x="454.61" y="120.00" transform="rotate(-35 454.61 120.00)">impact</text>
<line x1="677.72" y1="108" x2="677.72" y2="338" stroke="#1769aa" stroke-width="1.2" opacity="0.55"/>
<text class="label" x="681.72" y="120.00" transform="rotate(-35 681.72 120.00)">pitch peak</text>
<line x1="559.52" y1="108" x2="559.52" y2="338" stroke="#c94f2d" stroke-width="1.2" opacity="0.55"/>
<text class="label" x="563.52" y="120.00" transform="rotate(-35 563.52 120.00)">yaw peak</text>
<path d="M 96.65,277.69 L 106.24,283.97 L 112.04,283.97 L 120.75,283.97 L 129.14,262.88 L 137.92,262.88 L 145.64,260.72 L 154.45,260.72 L 163.25,251.55 L 171.18,249.44 L 179.49,249.44 L 197.54,253.42 L 205.67,255.16 L 214.11,255.16 L 221.33,255.16 L 230.51,253.59 L 242.27,253.59 L 246.75,253.64 L 256.98,254.33 L 263.88,254.33 L 273.52,252.51 L 280.49,252.51 L 289.57,252.51 L 307.30,248.80 L 326.00,247.63 L 340.60,246.70 L 349.62,245.62 L 356.94,245.66 L 364.81,245.66 L 373.31,244.40 L 381.63,242.70 L 391.86,242.70 L 400.12,257.15 L 406.94,257.15 L 415.12,259.92 L 423.57,246.30 L 440.40,246.30 L 449.18,246.30 L 457.37,243.83 L 465.68,243.83 L 482.84,243.83 L 490.95,243.83 L 500.21,243.83 L 507.95,243.83 L 516.52,243.83 L 526.83,249.79 L 542.34,249.21 L 561.15,225.77 L 576.25,234.31 L 584.52,213.51 L 592.11,197.86 L 601.15,197.86 L 609.44,193.99 L 617.25,193.99 L 626.07,193.99 L 634.52,193.99 L 643.13,193.99 L 659.69,164.36 L 668.86,164.36 L 677.72,150.06 L 687.44,150.06 L 693.86,150.06 L 704.78,138.48 L 711.88,138.48 L 720.73,130.26 L 730.79,130.26 L 736.23,130.26 L 745.19,130.26 L 752.96,130.26 L 761.53,130.26 L 770.92,130.26 L 780.27,130.26 L 787.03,130.26 L 794.68,130.26 L 803.43,130.26 L 837.12,130.26 L 845.39,130.26 L 854.51,130.26 L 862.39,130.26 L 870.41,130.26 L 878.80,130.26 L 896.49,130.26 L 906.09,130.26 L 922.35,130.26" fill="none" stroke="#48525f" stroke-width="2" stroke-dasharray="6 4"/>
<path d="M 96.65,305.03 L 106.24,311.08 L 112.04,315.74 L 120.75,314.42 L 129.14,310.52 L 137.92,306.29 L 145.64,301.99 L 154.45,299.13 L 163.25,296.68 L 171.18,291.34 L 179.49,283.45 L 197.54,272.24 L 205.67,268.34 L 214.11,265.67 L 221.33,264.05 L 230.51,262.69 L 242.27,261.50 L 246.75,260.45 L 256.98,259.90 L 263.88,259.44 L 273.52,258.95 L 280.49,258.34 L 289.57,257.69 L 307.30,256.19 L 326.00,254.68 L 340.60,252.84 L 349.62,269.51 L 356.94,270.86 L 364.81,267.85 L 373.31,265.18 L 381.63,260.61 L 391.86,261.28 L 400.12,263.22 L 406.94,271.01 L 415.12,276.91 L 423.57,278.72 L 440.40,272.21 L 449.18,268.10 L 457.37,265.03 L 465.68,262.30 L 482.84,252.47 L 490.95,249.71 L 500.21,247.99 L 507.95,247.71 L 516.52,248.17 L 526.83,248.30 L 542.34,247.71 L 561.15,247.59 L 576.25,247.56 L 584.52,245.99 L 592.11,243.39 L 601.15,240.56 L 609.44,237.49 L 617.25,233.65 L 626.07,228.53 L 634.52,222.97 L 643.13,217.57 L 659.69,207.90 L 668.86,203.75 L 677.72,199.86 L 687.44,195.80 L 693.86,190.89 L 704.78,185.03 L 711.88,178.67 L 720.73,171.92 L 730.79,165.47 L 736.23,159.61 L 745.19,154.61 L 752.96,150.18 L 761.53,146.62 L 770.92,143.77 L 780.27,141.44 L 787.03,139.66 L 794.68,138.24 L 803.43,137.23 L 837.12,134.34 L 845.39,133.88 L 854.51,133.45 L 862.39,133.02 L 870.41,132.63 L 878.80,132.29 L 896.49,131.70 L 906.09,131.43 L 922.35,131.06" fill="none" stroke="#1769aa" stroke-width="2"/>
<line class="axis" x1="70" y1="338" x2="956" y2="338"/>
<line class="axis" x1="70" y1="108" x2="70" y2="338"/>
<text class="label" x="18" y="223.00" transform="rotate(-90 18 223.00)" text-anchor="middle">degrees</text>
<text class="panel-title" x="70" y="364">Yaw position</text>
<line class="grid" x1="70" y1="606.00" x2="956" y2="606.00"/>
<text class="label" x="62" y="610.00" text-anchor="end">-10.7</text>
<line class="grid" x1="70" y1="548.50" x2="956" y2="548.50"/>
<text class="label" x="62" y="552.50" text-anchor="end">-9.3</text>
<line class="grid" x1="70" y1="491.00" x2="956" y2="491.00"/>
<text class="label" x="62" y="495.00" text-anchor="end">-7.9</text>
<line class="grid" x1="70" y1="433.50" x2="956" y2="433.50"/>
<text class="label" x="62" y="437.50" text-anchor="end">-6.4</text>
<line class="grid" x1="70" y1="376.00" x2="956" y2="376.00"/>
<text class="label" x="62" y="380.00" text-anchor="end">-5.0</text>
<line class="grid" x1="70.00" y1="376" x2="70.00" y2="606"/>
<line class="grid" x1="217.67" y1="376" x2="217.67" y2="606"/>
<line class="grid" x1="365.33" y1="376" x2="365.33" y2="606"/>
<line class="grid" x1="513.00" y1="376" x2="513.00" y2="606"/>
<line class="grid" x1="660.67" y1="376" x2="660.67" y2="606"/>
<line class="grid" x1="808.33" y1="376" x2="808.33" y2="606"/>
<line class="grid" x1="956.00" y1="376" x2="956.00" y2="606"/>
<line x1="304.26" y1="376" x2="304.26" y2="606" stroke="#20242a" stroke-width="1.2" opacity="0.55"/>
<line x1="346.36" y1="376" x2="346.36" y2="606" stroke="#6b7280" stroke-width="1.2" opacity="0.55"/>
<line x1="450.61" y1="376" x2="450.61" y2="606" stroke="#6b7280" stroke-width="1.2" opacity="0.55"/>
<line x1="677.72" y1="376" x2="677.72" y2="606" stroke="#1769aa" stroke-width="1.2" opacity="0.55"/>
<line x1="559.52" y1="376" x2="559.52" y2="606" stroke="#c94f2d" stroke-width="1.2" opacity="0.55"/>
<path d="M 95.08,420.37 L 103.83,398.26 L 111.61,398.26 L 120.16,398.26 L 128.61,415.12 L 139.91,415.12 L 146.68,416.18 L 155.70,416.18 L 162.42,427.16 L 170.71,428.42 L 187.70,430.38 L 196.06,430.38 L 204.64,436.49 L 213.05,436.49 L 223.80,436.49 L 233.02,445.71 L 238.50,445.71 L 248.36,447.51 L 255.13,447.51 L 263.50,448.97 L 276.07,450.97 L 285.12,450.97 L 291.39,456.53 L 298.72,456.53 L 310.70,462.98 L 316.74,462.98 L 332.41,469.07 L 347.84,477.63 L 359.34,481.22 L 365.77,483.30 L 373.93,483.30 L 382.06,486.12 L 390.69,486.12 L 398.93,488.23 L 407.92,488.23 L 415.60,488.00 L 424.01,490.84 L 433.29,490.84 L 440.94,490.84 L 450.15,495.64 L 457.90,495.64 L 466.11,495.64 L 475.72,495.64 L 483.35,495.64 L 491.40,495.64 L 499.75,495.64 L 508.40,495.64 L 517.00,495.64 L 525.62,472.09 L 534.04,472.09 L 541.83,552.80 L 552.19,569.17 L 559.52,569.17 L 567.65,569.17 L 584.10,576.67 L 592.53,576.67 L 602.22,576.67 L 610.53,576.67 L 617.69,576.67 L 626.53,576.67 L 636.66,576.67 L 644.48,576.67 L 651.76,576.67 L 660.26,576.67 L 668.38,576.67 L 676.79,576.67 L 685.59,576.67 L 696.32,576.67 L 702.10,576.67 L 718.72,576.67 L 728.74,576.67 L 744.00,576.67 L 753.47,576.67 L 761.07,576.67 L 769.63,576.67 L 777.82,576.67 L 788.37,576.67 L 795.14,576.67 L 806.42,576.67 L 811.86,576.67 L 821.64,576.67 L 829.98,576.67 L 836.62,576.67 L 855.89,576.67 L 863.10,576.67 L 870.90,576.67 L 879.32,576.67 L 887.77,576.67 L 897.50,576.67 L 916.45,576.67 L 921.49,576.67 L 930.92,576.67" fill="none" stroke="#48525f" stroke-width="2" stroke-dasharray="6 4"/>
<path d="M 95.08,432.64 L 103.83,428.25 L 111.61,425.09 L 120.16,419.77 L 128.61,414.10 L 139.91,410.22 L 146.68,411.22 L 155.70,413.24 L 162.42,413.67 L 170.71,414.74 L 187.70,417.47 L 196.06,420.71 L 204.64,424.37 L 213.05,427.89 L 223.80,431.13 L 233.02,434.07 L 238.50,436.59 L 248.36,439.39 L 255.13,440.90 L 263.50,442.41 L 276.07,443.92 L 285.12,445.14 L 291.39,446.43 L 298.72,447.58 L 310.70,449.38 L 316.74,451.03 L 332.41,456.49 L 347.84,497.73 L 359.34,524.75 L 365.77,537.76 L 373.93,541.21 L 382.06,529.85 L 390.69,515.77 L 398.93,503.84 L 407.92,501.33 L 415.60,498.96 L 424.01,496.87 L 433.29,494.36 L 440.94,492.20 L 450.15,492.42 L 457.90,492.27 L 466.11,491.70 L 475.72,492.49 L 483.35,493.42 L 491.40,494.21 L 499.75,495.22 L 508.40,495.79 L 517.00,496.15 L 525.62,496.37 L 534.04,496.23 L 541.83,494.29 L 552.19,491.55 L 559.52,489.76 L 567.65,492.49 L 584.10,514.04 L 592.53,532.87 L 602.22,551.55 L 610.53,567.72 L 617.69,579.57 L 626.53,583.74 L 636.66,582.66 L 644.48,578.71 L 651.76,575.55 L 660.26,571.89 L 668.38,569.66 L 676.79,569.73 L 685.59,571.24 L 696.32,573.25 L 702.10,574.54 L 718.72,576.99 L 728.74,577.49 L 744.00,577.20 L 753.47,577.13 L 761.07,576.99 L 769.63,576.70 L 777.82,576.48 L 788.37,576.56 L 795.14,576.63 L 806.42,576.70 L 811.86,576.70 L 821.64,576.70 L 829.98,576.70 L 836.62,576.84 L 855.89,576.84 L 863.10,576.84 L 870.90,576.77 L 879.32,576.77 L 887.77,576.77 L 897.50,576.77 L 916.45,576.84 L 921.49,576.84 L 930.92,576.84" fill="none" stroke="#c94f2d" stroke-width="2"/>
<line class="axis" x1="70" y1="606" x2="956" y2="606"/>
<line class="axis" x1="70" y1="376" x2="70" y2="606"/>
<text class="label" x="18" y="491.00" transform="rotate(-90 18 491.00)" text-anchor="middle">degrees</text>
<text class="panel-title" x="70" y="632">Pitch disturbance while moving</text>
<line class="grid" x1="70" y1="874.00" x2="956" y2="874.00"/>
<text class="label" x="62" y="878.00" text-anchor="end">-2.8</text>
<line class="grid" x1="70" y1="816.50" x2="956" y2="816.50"/>
<text class="label" x="62" y="820.50" text-anchor="end">-1.9</text>
<line class="grid" x1="70" y1="759.00" x2="956" y2="759.00"/>
<text class="label" x="62" y="763.00" text-anchor="end">-1.0</text>
<line class="grid" x1="70" y1="701.50" x2="956" y2="701.50"/>
<text class="label" x="62" y="705.50" text-anchor="end">-0.1</text>
<line class="grid" x1="70" y1="644.00" x2="956" y2="644.00"/>
<text class="label" x="62" y="648.00" text-anchor="end">0.9</text>
<line class="grid" x1="70.00" y1="644" x2="70.00" y2="874"/>
<line class="grid" x1="217.67" y1="644" x2="217.67" y2="874"/>
<line class="grid" x1="365.33" y1="644" x2="365.33" y2="874"/>
<line class="grid" x1="513.00" y1="644" x2="513.00" y2="874"/>
<line class="grid" x1="660.67" y1="644" x2="660.67" y2="874"/>
<line class="grid" x1="808.33" y1="644" x2="808.33" y2="874"/>
<line class="grid" x1="956.00" y1="644" x2="956.00" y2="874"/>
<line x1="304.26" y1="644" x2="304.26" y2="874" stroke="#20242a" stroke-width="1.2" opacity="0.55"/>
<line x1="346.36" y1="644" x2="346.36" y2="874" stroke="#6b7280" stroke-width="1.2" opacity="0.55"/>
<line x1="450.61" y1="644" x2="450.61" y2="874" stroke="#6b7280" stroke-width="1.2" opacity="0.55"/>
<line x1="677.72" y1="644" x2="677.72" y2="874" stroke="#1769aa" stroke-width="1.2" opacity="0.55"/>
<line x1="559.52" y1="644" x2="559.52" y2="874" stroke="#c94f2d" stroke-width="1.2" opacity="0.55"/>
<path d="M 96.65,770.53 L 106.24,769.69 L 112.04,786.56 L 120.75,781.79 L 129.14,843.94 L 137.92,828.62 L 145.64,820.90 L 154.45,810.58 L 163.25,834.85 L 171.18,823.18 L 179.49,794.66 L 197.54,739.74 L 205.67,719.33 L 214.11,709.68 L 221.33,703.79 L 230.51,704.60 L 242.27,700.27 L 246.75,696.31 L 256.98,691.82 L 263.88,690.16 L 273.52,694.94 L 280.49,692.72 L 289.57,690.39 L 307.30,698.38 L 326.00,697.17 L 340.60,693.88 L 349.62,758.05 L 356.94,762.81 L 364.81,751.93 L 373.31,746.80 L 381.63,736.43 L 391.86,738.87 L 400.12,693.60 L 406.94,721.79 L 415.12,733.09 L 423.57,788.90 L 440.40,765.37 L 449.18,750.50 L 457.37,748.33 L 465.68,738.45 L 482.84,702.93 L 490.95,692.94 L 500.21,686.73 L 507.95,685.73 L 516.52,687.39 L 526.83,666.29 L 542.34,666.26 L 561.15,750.57 L 576.25,719.60 L 584.52,789.13 L 592.11,836.31 L 601.15,826.09 L 609.44,828.99 L 617.25,815.11 L 626.07,796.57 L 634.52,776.48 L 643.13,756.94 L 659.69,829.12 L 668.86,814.13 L 677.72,851.74 L 687.44,837.09 L 693.86,819.33 L 704.78,839.99 L 711.88,817.01 L 720.73,822.32 L 730.79,799.01 L 736.23,777.81 L 745.19,759.71 L 752.96,743.73 L 761.53,730.85 L 770.92,720.53 L 780.27,712.09 L 787.03,705.65 L 794.68,700.55 L 803.43,696.88 L 837.12,686.45 L 845.39,684.78 L 854.51,683.23 L 862.39,681.68 L 870.41,680.23 L 878.80,679.01 L 896.49,676.90 L 906.09,675.90 L 922.35,674.57" fill="none" stroke="#1769aa" stroke-width="2"/>
<path d="M 96.65,698.29 L 106.24,698.29 L 112.04,698.29 L 120.75,698.29 L 129.14,698.29 L 137.92,698.29 L 145.64,698.29 L 154.45,698.29 L 163.25,698.29 L 171.18,698.29 L 179.49,698.29 L 197.54,698.29 L 205.67,698.29 L 214.11,698.29 L 221.33,698.29 L 230.51,698.29 L 242.27,698.29 L 246.75,698.29 L 256.98,698.29 L 263.88,698.29 L 273.52,698.29 L 280.49,698.29 L 289.57,698.29 L 307.30,698.29 L 326.00,698.29 L 340.60,698.29 L 349.62,698.29 L 356.94,698.29 L 364.81,698.29 L 373.31,698.29 L 381.63,698.29 L 391.86,698.29 L 400.12,698.29 L 406.94,698.29 L 415.12,698.29 L 423.57,698.29 L 440.40,698.29 L 449.18,698.29 L 457.37,698.29 L 465.68,698.29 L 482.84,698.29 L 490.95,698.29 L 500.21,698.29 L 507.95,698.29 L 516.52,698.29 L 526.83,698.29 L 542.34,698.29 L 561.15,698.29 L 576.25,698.29 L 584.52,698.29 L 592.11,698.29 L 601.15,698.29 L 609.44,698.29 L 617.25,698.29 L 626.07,698.29 L 634.52,698.29 L 643.13,698.29 L 659.69,698.29 L 668.86,698.29 L 677.72,698.29 L 687.44,698.29 L 693.86,698.29 L 704.78,698.29 L 711.88,698.29 L 720.73,698.29 L 730.79,698.29 L 736.23,698.29 L 745.19,698.29 L 752.96,698.29 L 761.53,698.29 L 770.92,698.29 L 780.27,698.29 L 787.03,698.29 L 794.68,698.29 L 803.43,698.29 L 837.12,698.29 L 845.39,698.29 L 854.51,698.29 L 862.39,698.29 L 870.41,698.29 L 878.80,698.29 L 896.49,698.29 L 906.09,698.29 L 922.35,698.29" fill="none" stroke="#8a94a3" stroke-width="2" stroke-dasharray="6 4"/>
<line class="axis" x1="70" y1="874" x2="956" y2="874"/>
<line class="axis" x1="70" y1="644" x2="70" y2="874"/>
<text class="label" x="18" y="759.00" transform="rotate(-90 18 759.00)" text-anchor="middle">degrees</text>
<text class="panel-title" x="70" y="900">Yaw disturbance while moving</text>
<line class="grid" x1="70" y1="1142.00" x2="956" y2="1142.00"/>
<text class="label" x="62" y="1146.00" text-anchor="end">-2.1</text>
<line class="grid" x1="70" y1="1084.50" x2="956" y2="1084.50"/>
<text class="label" x="62" y="1088.50" text-anchor="end">-1.0</text>
<line class="grid" x1="70" y1="1027.00" x2="956" y2="1027.00"/>
<text class="label" x="62" y="1031.00" text-anchor="end">0.1</text>
<line class="grid" x1="70" y1="969.50" x2="956" y2="969.50"/>
<text class="label" x="62" y="973.50" text-anchor="end">1.1</text>
<line class="grid" x1="70" y1="912.00" x2="956" y2="912.00"/>
<text class="label" x="62" y="916.00" text-anchor="end">2.2</text>
<line class="grid" x1="70.00" y1="912" x2="70.00" y2="1142"/>
<text class="label" x="70.00" y="1162" text-anchor="middle">-0.28</text>
<line class="grid" x1="217.67" y1="912" x2="217.67" y2="1142"/>
<text class="label" x="217.67" y="1162" text-anchor="middle">-0.10</text>
<line class="grid" x1="365.33" y1="912" x2="365.33" y2="1142"/>
<text class="label" x="365.33" y="1162" text-anchor="middle">0.07</text>
<line class="grid" x1="513.00" y1="912" x2="513.00" y2="1142"/>
<text class="label" x="513.00" y="1162" text-anchor="middle">0.25</text>
<line class="grid" x1="660.67" y1="912" x2="660.67" y2="1142"/>
<text class="label" x="660.67" y="1162" text-anchor="middle">0.42</text>
<line class="grid" x1="808.33" y1="912" x2="808.33" y2="1142"/>
<text class="label" x="808.33" y="1162" text-anchor="middle">0.60</text>
<line class="grid" x1="956.00" y1="912" x2="956.00" y2="1142"/>
<text class="label" x="956.00" y="1162" text-anchor="middle">0.77</text>
<line x1="304.26" y1="912" x2="304.26" y2="1142" stroke="#20242a" stroke-width="1.2" opacity="0.55"/>
<line x1="346.36" y1="912" x2="346.36" y2="1142" stroke="#6b7280" stroke-width="1.2" opacity="0.55"/>
<line x1="450.61" y1="912" x2="450.61" y2="1142" stroke="#6b7280" stroke-width="1.2" opacity="0.55"/>
<line x1="677.72" y1="912" x2="677.72" y2="1142" stroke="#1769aa" stroke-width="1.2" opacity="0.55"/>
<line x1="559.52" y1="912" x2="559.52" y2="1142" stroke="#c94f2d" stroke-width="1.2" opacity="0.55"/>
<path d="M 95.08,1058.09 L 103.83,1082.04 L 111.61,1077.77 L 120.16,1070.59 L 128.61,1040.14 L 139.91,1034.90 L 146.68,1034.83 L 155.70,1037.55 L 162.42,1023.30 L 170.71,1023.05 L 187.70,1024.10 L 196.06,1028.46 L 204.64,1025.15 L 213.05,1029.91 L 223.80,1034.28 L 233.02,1025.81 L 238.50,1029.20 L 248.36,1030.55 L 255.13,1032.59 L 263.50,1032.66 L 276.07,1032.00 L 285.12,1033.65 L 291.39,1027.88 L 298.72,1029.43 L 310.70,1023.14 L 316.74,1025.38 L 332.41,1024.53 L 347.84,1068.68 L 359.34,1100.32 L 365.77,1115.08 L 373.93,1119.74 L 382.06,1100.60 L 390.69,1081.57 L 398.93,1062.61 L 407.92,1059.21 L 415.60,1056.33 L 424.01,1049.67 L 433.29,1046.27 L 440.94,1043.36 L 450.15,1037.17 L 457.90,1036.98 L 466.11,1036.20 L 475.72,1037.27 L 483.35,1038.53 L 491.40,1039.60 L 499.75,1040.96 L 508.40,1041.73 L 517.00,1042.22 L 525.62,1074.32 L 534.04,1074.13 L 541.83,962.49 L 552.19,936.68 L 559.52,934.26 L 567.65,937.95 L 584.10,956.94 L 592.53,982.36 L 602.22,1007.60 L 610.53,1029.44 L 617.69,1045.45 L 626.53,1051.08 L 636.66,1049.62 L 644.48,1044.29 L 651.76,1040.01 L 660.26,1035.06 L 668.38,1032.06 L 676.79,1032.15 L 685.59,1034.19 L 696.32,1036.91 L 702.10,1038.66 L 718.72,1041.96 L 728.74,1042.64 L 744.00,1042.25 L 753.47,1042.15 L 761.07,1041.96 L 769.63,1041.57 L 777.82,1041.28 L 788.37,1041.37 L 795.14,1041.47 L 806.42,1041.57 L 811.86,1041.57 L 821.64,1041.57 L 829.98,1041.57 L 836.62,1041.76 L 855.89,1041.76 L 863.10,1041.76 L 870.90,1041.66 L 879.32,1041.66 L 887.77,1041.66 L 897.50,1041.66 L 916.45,1041.76 L 921.49,1041.76 L 930.92,1041.76" fill="none" stroke="#c94f2d" stroke-width="2"/>
<path d="M 95.08,1031.27 L 103.83,1031.27 L 111.61,1031.27 L 120.16,1031.27 L 128.61,1031.27 L 139.91,1031.27 L 146.68,1031.27 L 155.70,1031.27 L 162.42,1031.27 L 170.71,1031.27 L 187.70,1031.27 L 196.06,1031.27 L 204.64,1031.27 L 213.05,1031.27 L 223.80,1031.27 L 233.02,1031.27 L 238.50,1031.27 L 248.36,1031.27 L 255.13,1031.27 L 263.50,1031.27 L 276.07,1031.27 L 285.12,1031.27 L 291.39,1031.27 L 298.72,1031.27 L 310.70,1031.27 L 316.74,1031.27 L 332.41,1031.27 L 347.84,1031.27 L 359.34,1031.27 L 365.77,1031.27 L 373.93,1031.27 L 382.06,1031.27 L 390.69,1031.27 L 398.93,1031.27 L 407.92,1031.27 L 415.60,1031.27 L 424.01,1031.27 L 433.29,1031.27 L 440.94,1031.27 L 450.15,1031.27 L 457.90,1031.27 L 466.11,1031.27 L 475.72,1031.27 L 483.35,1031.27 L 491.40,1031.27 L 499.75,1031.27 L 508.40,1031.27 L 517.00,1031.27 L 525.62,1031.27 L 534.04,1031.27 L 541.83,1031.27 L 552.19,1031.27 L 559.52,1031.27 L 567.65,1031.27 L 584.10,1031.27 L 592.53,1031.27 L 602.22,1031.27 L 610.53,1031.27 L 617.69,1031.27 L 626.53,1031.27 L 636.66,1031.27 L 644.48,1031.27 L 651.76,1031.27 L 660.26,1031.27 L 668.38,1031.27 L 676.79,1031.27 L 685.59,1031.27 L 696.32,1031.27 L 702.10,1031.27 L 718.72,1031.27 L 728.74,1031.27 L 744.00,1031.27 L 753.47,1031.27 L 761.07,1031.27 L 769.63,1031.27 L 777.82,1031.27 L 788.37,1031.27 L 795.14,1031.27 L 806.42,1031.27 L 811.86,1031.27 L 821.64,1031.27 L 829.98,1031.27 L 836.62,1031.27 L 855.89,1031.27 L 863.10,1031.27 L 870.90,1031.27 L 879.32,1031.27 L 887.77,1031.27 L 897.50,1031.27 L 916.45,1031.27 L 921.49,1031.27 L 930.92,1031.27" fill="none" stroke="#8a94a3" stroke-width="2" stroke-dasharray="6 4"/>
<line class="axis" x1="70" y1="1142" x2="956" y2="1142"/>
<line class="axis" x1="70" y1="912" x2="70" y2="1142"/>
<text class="label" x="18" y="1027.00" transform="rotate(-90 18 1027.00)" text-anchor="middle">degrees</text>
<text class="label" x="513.0" y="1178" text-anchor="middle">time relative to event (s)</text>
</svg>