<svg xmlns="http://www.w3.org/2000/svg" viewBox="0 0 980 1186" role="img">
<style>
.axis{stroke:#718096;stroke-width:1}.grid{stroke:#e5eaf0;stroke-width:1}.label{font:12px sans-serif;fill:#5a6675}.title{font:700 18px sans-serif;fill:#20242a}.subtitle{font:12px sans-serif;fill:#5a6675}.panel-title{font:700 13px sans-serif;fill:#20242a}
</style>
<rect width="980" height="1186" fill="#ffffff"/>
<text class="title" x="70" y="28">Motion disturbance example 2: event 240</text>
<text class="subtitle" x="70" y="50">Start pitch 6.3 deg, yaw -6.0 deg; target motion 8.0 deg; disturbance vector 4.59 deg.</text>
<line x1="70" y1="76" x2="94" y2="76" stroke="#48525f" stroke-width="2" stroke-dasharray="6 4"/>
<text class="label" x="100" y="80">target</text>
<line x1="200" y1="76" x2="224" y2="76" stroke="#1769aa" stroke-width="2"/>
<text class="label" x="230" y="80">pitch actual</text>
<line x1="338" y1="76" x2="362" y2="76" stroke="#c94f2d" stroke-width="2"/>
<text class="label" x="368" y="80">yaw actual</text>
<line x1="468" y1="76" x2="492" y2="76" stroke="#1769aa" stroke-width="2"/>
<text class="label" x="498" y="80">pitch disturbance</text>
<line x1="641" y1="76" x2="665" y2="76" stroke="#8a94a3" stroke-width="2" stroke-dasharray="6 4"/>
<text class="label" x="671" y="80">zero baseline</text>
<line x1="786" y1="76" x2="810" y2="76" stroke="#c94f2d" stroke-width="2"/>
<text class="label" x="816" y="80">yaw disturbance</text>
<text class="panel-title" x="70" y="96">Pitch position</text>
<line class="grid" x1="70" y1="338.00" x2="956" y2="338.00"/>
<text class="label" x="62" y="342.00" text-anchor="end">3.1</text>
<line class="grid" x1="70" y1="280.50" x2="956" y2="280.50"/>
<text class="label" x="62" y="284.50" text-anchor="end">5.3</text>
<line class="grid" x1="70" y1="223.00" x2="956" y2="223.00"/>
<text class="label" x="62" y="227.00" text-anchor="end">7.5</text>
<line class="grid" x1="70" y1="165.50" x2="956" y2="165.50"/>
<text class="label" x="62" y="169.50" text-anchor="end">9.7</text>
<line class="grid" x1="70" y1="108.00" x2="956" y2="108.00"/>
<text class="label" x="62" y="112.00" text-anchor="end">11.9</text>
<line class="grid" x1="70.00" y1="108" x2="70.00" y2="338"/>
<line class="grid" x1="217.67" y1="108" x2="217.67" y2="338"/>
<line class="grid" x1="365.33" y1="108" x2="365.33" y2="338"/>
<line class="grid" x1="513.00" y1="108" x2="513.00" y2="338"/>
<line class="grid" x1="660.67" y1="108" x2="660.67" y2="338"/>
<line class="grid" x1="808.33" y1="108" x2="808.33" y2="338"/>
<line class="grid" x1="956.00" y1="108" x2="956.00" y2="338"/>
<line x1="303.55" y1="108" x2="303.55" y2="338" stroke="#20242a" stroke-width="1.2" opacity="0.55"/>
<text class="label" x="307.55" y="120.00" transform="rotate(-35 307.55 120.00)">fire</text>
<line x1="345.66" y1="108" x2="345.66" y2="338" stroke="#6b7280" stroke-width="1.2" opacity="0.55"/>
<text class="label" x="349.66" y="120.00" transform="rotate(-35 349.66 120.00)">muzzle</text>
<line x1="449.00" y1="108" x2="449.00" y2="338" stroke="#6b7280" stroke-width="1.2" opacity="0.55"/>
<text class="label" x="453.00" y="120.00" transform="rotate(-35 453.00 120.00)">impact</text>
<line x1="444.08" y1="108" x2="444.08" y2="338" stroke="#1769aa" stroke-width="1.2" opacity="0.55"/>
<text class="label" x="448.08" y="120.00" transform="rotate(-35 448.08 120.00)">pitch peak</text>
<line x1="711.89" y1="108" x2="711.89" y2="338" stroke="#c94f2d" stroke-width="1.2" opacity="0.55"/>
<text class="label" x="715.89" y="120.00" transform="rotate(-35 715.89 120.00)">yaw peak</text>
<path d="M 95.08,294.24 L 106.23,287.08 L 112.00,282.61 L 120.49,279.43 L 128.25,277.90 L 137.60,277.90 L 145.39,277.90 L 153.82,277.90 L 163.36,270.60 L 179.19,267.93 L 187.49,265.60 L 197.62,265.60 L 206.52,259.52 L 212.35,256.66 L 224.40,256.66 L 230.76,252.12 L 238.74,252.12 L 247.93,252.12 L 263.90,244.88 L 271.80,242.33 L 281.07,242.33 L 289.62,238.75 L 298.36,238.75 L 306.29,233.31 L 315.36,233.31 L 325.46,228.89 L 332.43,225.19 L 340.97,225.19 L 348.22,220.89 L 359.04,218.62 L 365.25,218.62 L 374.27,214.58 L 381.77,211.17 L 390.36,211.17 L 407.41,206.10 L 416.20,217.55 L 433.02,213.63 L 444.08,190.40 L 449.95,187.44 L 461.53,187.44 L 467.68,173.55 L 474.94,173.55 L 483.94,165.71 L 491.70,165.71 L 500.31,165.71 L 508.53,165.71 L 525.52,145.68 L 534.74,145.68 L 542.35,145.68 L 552.86,131.10 L 559.34,131.10 L 567.85,131.10 L 584.87,131.10 L 604.68,131.10 L 610.60,131.10 L 618.55,131.10 L 627.53,131.10 L 635.55,131.10 L 646.79,131.10 L 651.92,131.10 L 661.01,131.10 L 668.68,131.10 L 677.28,131.10 L 703.56,131.10 L 710.93,131.10 L 719.48,131.10 L 728.04,131.10 L 736.84,131.10 L 746.75,131.10 L 753.57,131.10 L 762.10,131.10 L 772.16,131.10 L 780.14,131.10 L 789.35,131.10 L 795.75,131.10 L 804.22,131.10 L 813.12,131.10 L 820.88,131.10 L 829.20,131.10 L 837.75,131.10 L 847.58,131.10 L 855.14,131.10 L 863.88,131.10 L 871.78,131.10 L 879.79,131.10 L 888.00,131.10 L 898.90,131.10 L 905.71,131.10 L 914.08,131.10 L 923.10,131.10 L 930.47,131.10" fill="none" stroke="#48525f" stroke-width="2" stroke-dasharray="6 4"/>
<path d="M 95.08,315.74 L 106.23,314.47 L 112.00,312.49 L 120.49,309.61 L 128.25,305.93 L 137.60,301.78 L 145.39,297.20 L 153.82,292.96 L 163.36,289.42 L 179.19,284.28 L 187.49,282.06 L 197.62,279.98 L 206.52,277.86 L 212.35,275.83 L 224.40,273.38 L 230.76,270.93 L 238.74,268.62 L 247.93,266.21 L 263.90,261.59 L 271.80,259.65 L 281.07,257.81 L 289.62,255.79 L 298.36,253.62 L 306.29,251.45 L 315.36,249.32 L 325.46,247.01 L 332.43,244.79 L 340.97,242.53 L 348.22,269.42 L 359.04,273.38 L 365.25,268.66 L 374.27,266.16 L 381.77,257.72 L 390.36,255.93 L 407.41,267.44 L 416.20,273.71 L 433.02,265.69 L 444.08,254.94 L 449.95,245.88 L 461.53,238.94 L 467.68,233.57 L 474.94,224.13 L 483.94,214.79 L 491.70,206.35 L 500.31,199.65 L 508.53,195.22 L 525.52,188.23 L 534.74,184.74 L 542.35,181.02 L 552.86,177.29 L 559.34,174.79 L 567.85,172.43 L 584.87,163.23 L 604.68,152.85 L 610.60,147.85 L 618.55,143.84 L 627.53,140.92 L 635.55,139.27 L 646.79,138.28 L 651.92,137.43 L 661.01,136.44 L 668.68,135.68 L 677.28,135.21 L 703.56,133.70 L 710.93,133.37 L 719.48,133.14 L 728.04,132.90 L 736.84,132.43 L 746.75,132.10 L 753.57,131.86 L 762.10,131.86 L 772.16,131.77 L 780.14,131.77 L 789.35,131.77 L 795.75,131.63 L 804.22,131.30 L 813.12,131.11 L 820.88,131.01 L 829.20,130.97 L 837.75,130.82 L 847.58,130.82 L 855.14,130.92 L 863.88,130.87 L 871.78,130.73 L 879.79,130.64 L 888.00,130.64 L 898.90,130.68 L 905.71,130.73 L 914.08,130.73 L 923.10,130.54 L 930.47,130.26" fill="none" stroke="#1769aa" stroke-width="2"/>
<line class="axis" x1="70" y1="338" x2="956" y2="338"/>
<line class="axis" x1="70" y1="108" x2="70" y2="338"/>
<text class="label" x="18" y="223.00" transform="rotate(-90 18 223.00)" text-anchor="middle">degrees</text>
<text class="panel-title" x="70" y="364">Yaw position</text>
<line class="grid" x1="70" y1="606.00" x2="956" y2="606.00"/>
<text class="label" x="62" y="610.00" text-anchor="end">-9.6</text>
<line class="grid" x1="70" y1="548.50" x2="956" y2="548.50"/>
<text class="label" x="62" y="552.50" text-anchor="end">-6.0</text>
<line class="grid" x1="70" y1="491.00" x2="956" y2="491.00"/>
<text class="label" x="62" y="495.00" text-anchor="end">-2.5</text>
<line class="grid" x1="70" y1="433.50" x2="956" y2="433.50"/>
<text class="label" x="62" y="437.50" text-anchor="end">1.1</text>
<line class="grid" x1="70" y1="376.00" x2="956" y2="376.00"/>
<text class="label" x="62" y="380.00" text-anchor="end">4.6</text>
<line class="grid" x1="70.00" y1="376" x2="70.00" y2="606"/>
<line class="grid" x1="217.67" y1="376" x2="217.67" y2="606"/>
<line class="grid" x1="365.33" y1="376" x2="365.33" y2="606"/>
<line class="grid" x1="513.00" y1="376" x2="513.00" y2="606"/>
<line class="grid" x1="660.67" y1="376" x2="660.67" y2="606"/>
<line class="grid" x1="808.33" y1="376" x2="808.33" y2="606"/>
<line class="grid" x1="956.00" y1="376" x2="956.00" y2="606"/>
<line x1="303.55" y1="376" x2="303.55" y2="606" stroke="#20242a" stroke-width="1.2" opacity="0.55"/>
<line x1="345.66" y1="376" x2="345.66" y2="606" stroke="#6b7280" stroke-width="1.2" opacity="0.55"/>
<line x1="449.00" y1="376" x2="449.00" y2="606" stroke="#6b7280" stroke-width="1.2" opacity="0.55"/>
<line x1="444.08" y1="376" x2="444.08" y2="606" stroke="#1769aa" stroke-width="1.2" opacity="0.55"/>
<line x1="711.89" y1="376" x2="711.89" y2="606" stroke="#c94f2d" stroke-width="1.2" opacity="0.55"/>
<path d="M 97.19,538.80 L 107.56,540.22 L 129.57,541.32 L 140.39,541.32 L 146.18,541.32 L 155.28,542.45 L 162.59,542.45 L 170.88,543.04 L 182.89,543.04 L 187.96,543.47 L 196.15,543.47 L 204.63,544.32 L 213.21,545.22 L 221.26,545.22 L 229.62,546.20 L 238.19,546.20 L 247.19,546.20 L 255.51,546.20 L 266.60,547.99 L 273.22,548.34 L 282.29,548.34 L 290.36,548.62 L 300.85,548.62 L 306.82,549.56 L 317.43,549.56 L 324.39,550.44 L 330.99,551.16 L 344.01,552.34 L 348.80,552.34 L 356.70,553.25 L 364.54,553.25 L 373.74,553.88 L 382.16,554.40 L 399.45,555.18 L 408.80,555.18 L 416.66,559.61 L 424.91,559.61 L 434.30,560.49 L 441.66,563.95 L 451.30,564.57 L 458.45,564.57 L 466.31,558.65 L 492.22,554.29 L 501.16,554.29 L 511.13,554.29 L 518.38,554.29 L 527.59,556.02 L 535.32,556.02 L 543.90,556.02 L 551.44,533.61 L 560.25,533.61 L 577.58,533.61 L 586.42,532.56 L 593.27,531.48 L 612.78,530.22 L 619.07,530.22 L 626.28,530.22 L 634.89,529.28 L 643.32,529.28 L 652.95,528.67 L 661.51,528.23 L 669.46,528.23 L 678.91,528.23 L 687.41,528.23 L 695.54,465.48 L 704.44,465.48 L 711.89,462.64 L 719.96,462.64 L 730.08,462.64 L 745.48,458.44 L 753.08,440.72 L 761.52,440.72 L 770.02,440.72 L 787.15,425.81 L 795.30,423.86 L 803.74,421.37 L 814.07,421.37 L 821.40,418.23 L 830.10,416.30 L 838.31,416.30 L 846.17,413.75 L 856.32,413.75 L 864.31,411.15 L 873.06,408.54 L 880.31,408.54 L 888.43,408.54 L 897.62,408.54 L 905.16,403.36 L 913.53,403.36 L 922.19,403.36 L 930.92,398.26" fill="none" stroke="#48525f" stroke-width="2" stroke-dasharray="6 4"/>
<path d="M 97.19,536.93 L 107.56,537.55 L 129.57,539.32 L 140.39,539.76 L 146.18,540.22 L 155.28,540.57 L 162.59,540.86 L 170.88,541.36 L 182.89,541.68 L 187.96,542.03 L 196.15,542.32 L 204.63,542.61 L 213.21,543.01 L 221.26,543.42 L 229.62,543.89 L 238.19,544.38 L 247.19,544.93 L 255.51,545.37 L 266.60,545.69 L 273.22,546.19 L 282.29,546.62 L 290.36,547.06 L 300.85,547.41 L 306.82,547.76 L 317.43,548.08 L 324.39,548.48 L 330.99,548.89 L 344.01,549.41 L 348.80,560.85 L 356.70,576.53 L 364.54,583.74 L 373.74,582.14 L 382.16,577.02 L 399.45,567.51 L 408.80,564.63 L 416.66,562.62 L 424.91,561.08 L 434.30,558.93 L 441.66,558.96 L 451.30,559.71 L 458.45,560.93 L 466.31,561.57 L 492.22,562.56 L 501.16,562.13 L 511.13,560.41 L 518.38,558.40 L 527.59,556.75 L 535.32,555.26 L 543.90,554.45 L 551.44,554.36 L 560.25,554.74 L 577.58,552.53 L 586.42,549.76 L 593.27,545.37 L 612.78,536.27 L 619.07,532.48 L 626.28,530.07 L 634.89,529.34 L 643.32,529.57 L 652.95,530.10 L 661.51,530.51 L 669.46,530.88 L 678.91,530.85 L 687.41,530.36 L 695.54,529.78 L 704.44,529.31 L 711.89,528.96 L 719.96,528.47 L 730.08,526.37 L 745.48,516.13 L 753.08,505.28 L 761.52,491.67 L 770.02,476.16 L 787.15,450.65 L 795.30,442.21 L 803.74,436.74 L 814.07,433.86 L 821.40,431.83 L 830.10,430.02 L 838.31,428.10 L 846.17,426.04 L 856.32,423.48 L 864.31,420.86 L 873.06,418.42 L 880.31,416.26 L 888.43,413.97 L 897.62,412.05 L 905.16,410.62 L 913.53,409.57 L 922.19,408.21 L 930.92,407.36" fill="none" stroke="#c94f2d" stroke-width="2"/>
<line class="axis" x1="70" y1="606" x2="956" y2="606"/>
<line class="axis" x1="70" y1="376" x2="70" y2="606"/>
<text class="label" x="18" y="491.00" transform="rotate(-90 18 491.00)" text-anchor="middle">degrees</text>
<text class="panel-title" x="70" y="632">Pitch disturbance while moving</text>
<line class="grid" x1="70" y1="874.00" x2="956" y2="874.00"/>
<text class="label" x="62" y="878.00" text-anchor="end">-2.1</text>
<line class="grid" x1="70" y1="816.50" x2="956" y2="816.50"/>
<text class="label" x="62" y="820.50" text-anchor="end">-1.4</text>
<line class="grid" x1="70" y1="759.00" x2="956" y2="759.00"/>
<text class="label" x="62" y="763.00" text-anchor="end">-0.6</text>
<line class="grid" x1="70" y1="701.50" x2="956" y2="701.50"/>
<text class="label" x="62" y="705.50" text-anchor="end">0.2</text>
<line class="grid" x1="70" y1="644.00" x2="956" y2="644.00"/>
<text class="label" x="62" y="648.00" text-anchor="end">1.0</text>
<line class="grid" x1="70.00" y1="644" x2="70.00" y2="874"/>
<line class="grid" x1="217.67" y1="644" x2="217.67" y2="874"/>
<line class="grid" x1="365.33" y1="644" x2="365.33" y2="874"/>
<line class="grid" x1="513.00" y1="644" x2="513.00" y2="874"/>
<line class="grid" x1="660.67" y1="644" x2="660.67" y2="874"/>
<line class="grid" x1="808.33" y1="644" x2="808.33" y2="874"/>
<line class="grid" x1="956.00" y1="644" x2="956.00" y2="874"/>
<line x1="303.55" y1="644" x2="303.55" y2="874" stroke="#20242a" stroke-width="1.2" opacity="0.55"/>
<line x1="345.66" y1="644" x2="345.66" y2="874" stroke="#6b7280" stroke-width="1.2" opacity="0.55"/>
<line x1="449.00" y1="644" x2="449.00" y2="874" stroke="#6b7280" stroke-width="1.2" opacity="0.55"/>
<line x1="444.08" y1="644" x2="444.08" y2="874" stroke="#1769aa" stroke-width="1.2" opacity="0.55"/>
<line x1="711.89" y1="644" x2="711.89" y2="874" stroke="#c94f2d" stroke-width="1.2" opacity="0.55"/>
<path d="M 95.08,729.66 L 106.23,746.36 L 112.00,753.41 L 120.49,754.28 L 128.25,748.18 L 137.60,736.40 L 145.39,723.42 L 153.82,711.38 L 163.36,722.03 L 179.19,715.03 L 187.49,715.35 L 197.62,709.46 L 206.52,720.68 L 212.35,723.05 L 224.40,716.09 L 230.76,722.00 L 238.74,715.44 L 247.93,708.62 L 263.90,716.05 L 271.80,717.79 L 281.07,712.57 L 289.62,716.99 L 298.36,710.83 L 306.29,720.09 L 315.36,714.07 L 325.46,720.07 L 332.43,724.27 L 340.97,717.84 L 348.22,806.32 L 359.04,824.01 L 365.25,810.63 L 374.27,815.01 L 381.77,800.71 L 390.36,795.62 L 407.41,842.65 L 416.20,827.98 L 433.02,816.36 L 444.08,851.74 L 449.95,834.45 L 461.53,814.77 L 467.68,838.93 L 474.94,812.16 L 483.94,807.89 L 491.70,783.94 L 500.31,764.93 L 508.53,752.35 L 525.52,789.38 L 534.74,779.47 L 542.35,768.90 L 552.86,799.69 L 559.34,792.59 L 567.85,785.90 L 584.87,759.81 L 604.68,730.36 L 610.60,716.18 L 618.55,704.80 L 627.53,696.50 L 635.55,691.82 L 646.79,689.01 L 651.92,686.60 L 661.01,683.79 L 668.68,681.65 L 677.28,680.31 L 703.56,676.03 L 710.93,675.09 L 719.48,674.42 L 728.04,673.75 L 736.84,672.41 L 746.75,671.48 L 753.57,670.81 L 762.10,670.81 L 772.16,670.54 L 780.14,670.54 L 789.35,670.54 L 795.75,670.14 L 804.22,669.20 L 813.12,668.67 L 820.88,668.40 L 829.20,668.27 L 837.75,667.86 L 847.58,667.86 L 855.14,668.13 L 863.88,668.00 L 871.78,667.60 L 879.79,667.33 L 888.00,667.33 L 898.90,667.46 L 905.71,667.60 L 914.08,667.60 L 923.10,667.06 L 930.47,666.26" fill="none" stroke="#1769aa" stroke-width="2"/>
<path d="M 95.08,716.09 L 106.23,716.09 L 112.00,716.09 L 120.49,716.09 L 128.25,716.09 L 137.60,716.09 L 145.39,716.09 L 153.82,716.09 L 163.36,716.09 L 179.19,716.09 L 187.49,716.09 L 197.62,716.09 L 206.52,716.09 L 212.35,716.09 L 224.40,716.09 L 230.76,716.09 L 238.74,716.09 L 247.93,716.09 L 263.90,716.09 L 271.80,716.09 L 281.07,716.09 L 289.62,716.09 L 298.36,716.09 L 306.29,716.09 L 315.36,716.09 L 325.46,716.09 L 332.43,716.09 L 340.97,716.09 L 348.22,716.09 L 359.04,716.09 L 365.25,716.09 L 374.27,716.09 L 381.77,716.09 L 390.36,716.09 L 407.41,716.09 L 416.20,716.09 L 433.02,716.09 L 444.08,716.09 L 449.95,716.09 L 461.53,716.09 L 467.68,716.09 L 474.94,716.09 L 483.94,716.09 L 491.70,716.09 L 500.31,716.09 L 508.53,716.09 L 525.52,716.09 L 534.74,716.09 L 542.35,716.09 L 552.86,716.09 L 559.34,716.09 L 567.85,716.09 L 584.87,716.09 L 604.68,716.09 L 610.60,716.09 L 618.55,716.09 L 627.53,716.09 L 635.55,716.09 L 646.79,716.09 L 651.92,716.09 L 661.01,716.09 L 668.68,716.09 L 677.28,716.09 L 703.56,716.09 L 710.93,716.09 L 719.48,716.09 L 728.04,716.09 L 736.84,716.09 L 746.75,716.09 L 753.57,716.09 L 762.10,716.09 L 772.16,716.09 L 780.14,716.09 L 789.35,716.09 L 795.75,716.09 L 804.22,716.09 L 813.12,716.09 L 820.88,716.09 L 829.20,716.09 L 837.75,716.09 L 847.58,716.09 L 855.14,716.09 L 863.88,716.09 L 871.78,716.09 L 879.79,716.09 L 888.00,716.09 L 898.90,716.09 L 905.71,716.09 L 914.08,716.09 L 923.10,716.09 L 930.47,716.09" fill="none" stroke="#8a94a3" stroke-width="2" stroke-dasharray="6 4"/>
<line class="axis" x1="70" y1="874" x2="956" y2="874"/>
<line class="axis" x1="70" y1="644" x2="70" y2="874"/>
<text class="label" x="18" y="759.00" transform="rotate(-90 18 759.00)" text-anchor="middle">degrees</text>
<text class="panel-title" x="70" y="900">Yaw disturbance while moving</text>
<line class="grid" x1="70" y1="1142.00" x2="956" y2="1142.00"/>
<text class="label" x="62" y="1146.00" text-anchor="end">-4.7</text>
<line class="grid" x1="70" y1="1084.50" x2="956" y2="1084.50"/>
<text class="label" x="62" y="1088.50" text-anchor="end">-3.4</text>
<line class="grid" x1="70" y1="1027.00" x2="956" y2="1027.00"/>
<text class="label" x="62" y="1031.00" text-anchor="end">-2.0</text>
<line class="grid" x1="70" y1="969.50" x2="956" y2="969.50"/>
<text class="label" x="62" y="973.50" text-anchor="end">-0.6</text>
<line class="grid" x1="70" y1="912.00" x2="956" y2="912.00"/>
<text class="label" x="62" y="916.00" text-anchor="end">0.7</text>
<line class="grid" x1="70.00" y1="912" x2="70.00" y2="1142"/>
<text class="label" x="70.00" y="1162" text-anchor="middle">-0.28</text>
<line class="grid" x1="217.67" y1="912" x2="217.67" y2="1142"/>
<text class="label" x="217.67" y="1162" text-anchor="middle">-0.10</text>
<line class="grid" x1="365.33" y1="912" x2="365.33" y2="1142"/>
<text class="label" x="365.33" y="1162" text-anchor="middle">0.07</text>
<line class="grid" x1="513.00" y1="912" x2="513.00" y2="1142"/>
<text class="label" x="513.00" y="1162" text-anchor="middle">0.25</text>
<line class="grid" x1="660.67" y1="912" x2="660.67" y2="1142"/>
<text class="label" x="660.67" y="1162" text-anchor="middle">0.42</text>
<line class="grid" x1="808.33" y1="912" x2="808.33" y2="1142"/>
<text class="label" x="808.33" y="1162" text-anchor="middle">0.60</text>
<line class="grid" x1="956.00" y1="912" x2="956.00" y2="1142"/>
<text class="label" x="956.00" y="1162" text-anchor="middle">0.77</text>
<line x1="303.55" y1="912" x2="303.55" y2="1142" stroke="#20242a" stroke-width="1.2" opacity="0.55"/>
<line x1="345.66" y1="912" x2="345.66" y2="1142" stroke="#6b7280" stroke-width="1.2" opacity="0.55"/>
<line x1="449.00" y1="912" x2="449.00" y2="1142" stroke="#6b7280" stroke-width="1.2" opacity="0.55"/>
<line x1="444.08" y1="912" x2="444.08" y2="1142" stroke="#1769aa" stroke-width="1.2" opacity="0.55"/>
<line x1="711.89" y1="912" x2="711.89" y2="1142" stroke="#c94f2d" stroke-width="1.2" opacity="0.55"/>
<path d="M 97.19,942.39 L 107.56,940.28 L 129.57,942.03 L 140.39,943.16 L 146.18,944.38 L 155.28,942.37 L 162.59,943.13 L 170.88,942.86 L 182.89,943.69 L 187.96,943.48 L 196.15,944.24 L 204.63,942.79 L 213.21,941.50 L 221.26,942.56 L 229.62,941.23 L 238.19,942.51 L 247.19,943.95 L 255.51,945.09 L 266.60,941.28 L 273.22,941.65 L 282.29,942.78 L 290.36,943.17 L 300.85,944.08 L 306.82,942.56 L 317.43,943.39 L 324.39,942.16 L 330.99,941.35 L 344.01,939.63 L 348.80,969.37 L 356.70,1007.77 L 364.54,1026.53 L 373.74,1020.76 L 382.16,1006.08 L 399.45,979.31 L 408.80,971.82 L 416.66,955.08 L 424.91,951.07 L 434.30,943.17 L 441.66,934.26 L 451.30,934.61 L 458.45,937.79 L 466.31,954.86 L 492.22,968.76 L 501.16,967.62 L 511.13,963.16 L 518.38,957.94 L 527.59,949.13 L 535.32,945.27 L 543.90,943.15 L 551.44,1001.20 L 560.25,1002.19 L 577.58,996.44 L 586.42,991.99 L 593.27,983.38 L 612.78,962.97 L 619.07,953.14 L 626.28,946.86 L 634.89,947.41 L 643.32,948.01 L 652.95,950.95 L 661.51,953.15 L 669.46,954.14 L 678.91,954.06 L 687.41,952.77 L 695.54,1114.46 L 704.44,1113.25 L 711.89,1119.74 L 719.96,1118.46 L 730.08,1113.01 L 745.48,1097.28 L 753.08,1115.16 L 761.52,1079.75 L 770.02,1039.43 L 787.15,1011.84 L 795.30,994.99 L 803.74,987.22 L 814.07,979.73 L 821.40,982.61 L 830.10,982.94 L 838.31,977.95 L 846.17,979.20 L 856.32,972.54 L 864.31,972.50 L 873.06,972.92 L 880.31,967.32 L 888.43,961.34 L 897.62,956.35 L 905.16,966.12 L 913.53,963.40 L 922.19,959.84 L 930.92,970.92" fill="none" stroke="#c94f2d" stroke-width="2"/>
<path d="M 97.19,942.54 L 107.56,942.54 L 129.57,942.54 L 140.39,942.54 L 146.18,942.54 L 155.28,942.54 L 162.59,942.54 L 170.88,942.54 L 182.89,942.54 L 187.96,942.54 L 196.15,942.54 L 204.63,942.54 L 213.21,942.54 L 221.26,942.54 L 229.62,942.54 L 238.19,942.54 L 247.19,942.54 L 255.51,942.54 L 266.60,942.54 L 273.22,942.54 L 282.29,942.54 L 290.36,942.54 L 300.85,942.54 L 306.82,942.54 L 317.43,942.54 L 324.39,942.54 L 330.99,942.54 L 344.01,942.54 L 348.80,942.54 L 356.70,942.54 L 364.54,942.54 L 373.74,942.54 L 382.16,942.54 L 399.45,942.54 L 408.80,942.54 L 416.66,942.54 L 424.91,942.54 L 434.30,942.54 L 441.66,942.54 L 451.30,942.54 L 458.45,942.54 L 466.31,942.54 L 492.22,942.54 L 501.16,942.54 L 511.13,942.54 L 518.38,942.54 L 527.59,942.54 L 535.32,942.54 L 543.90,942.54 L 551.44,942.54 L 560.25,942.54 L 577.58,942.54 L 586.42,942.54 L 593.27,942.54 L 612.78,942.54 L 619.07,942.54 L 626.28,942.54 L 634.89,942.54 L 643.32,942.54 L 652.95,942.54 L 661.51,942.54 L 669.46,942.54 L 678.91,942.54 L 687.41,942.54 L 695.54,942.54 L 704.44,942.54 L 711.89,942.54 L 719.96,942.54 L 730.08,942.54 L 745.48,942.54 L 753.08,942.54 L 761.52,942.54 L 770.02,942.54 L 787.15,942.54 L 795.30,942.54 L 803.74,942.54 L 814.07,942.54 L 821.40,942.54 L 830.10,942.54 L 838.31,942.54 L 846.17,942.54 L 856.32,942.54 L 864.31,942.54 L 873.06,942.54 L 880.31,942.54 L 888.43,942.54 L 897.62,942.54 L 905.16,942.54 L 913.53,942.54 L 922.19,942.54 L 930.92,942.54" fill="none" stroke="#8a94a3" stroke-width="2" stroke-dasharray="6 4"/>
<line class="axis" x1="70" y1="1142" x2="956" y2="1142"/>
<line class="axis" x1="70" y1="912" x2="70" y2="1142"/>
<text class="label" x="18" y="1027.00" transform="rotate(-90 18 1027.00)" text-anchor="middle">degrees</text>
<text class="label" x="513.0" y="1178" text-anchor="middle">time relative to event (s)</text>
</svg>