<svg xmlns="http://www.w3.org/2000/svg" viewBox="0 0 980 1186" role="img">
<style>
.axis{stroke:#718096;stroke-width:1}.grid{stroke:#e5eaf0;stroke-width:1}.label{font:12px sans-serif;fill:#5a6675}.title{font:700 18px sans-serif;fill:#20242a}.subtitle{font:12px sans-serif;fill:#5a6675}.panel-title{font:700 13px sans-serif;fill:#20242a}
</style>
<rect width="980" height="1186" fill="#ffffff"/>
<text class="title" x="70" y="28">Motion disturbance example 3: event 224</text>
<text class="subtitle" x="70" y="50">Start pitch 1.0 deg, yaw -5.7 deg; target motion 4.3 deg; disturbance vector 3.22 deg.</text>
<line x1="70" y1="76" x2="94" y2="76" stroke="#48525f" stroke-width="2" stroke-dasharray="6 4"/>
<text class="label" x="100" y="80">target</text>
<line x1="200" y1="76" x2="224" y2="76" stroke="#1769aa" stroke-width="2"/>
<text class="label" x="230" y="80">pitch actual</text>
<line x1="338" y1="76" x2="362" y2="76" stroke="#c94f2d" stroke-width="2"/>
<text class="label" x="368" y="80">yaw actual</text>
<line x1="468" y1="76" x2="492" y2="76" stroke="#1769aa" stroke-width="2"/>
<text class="label" x="498" y="80">pitch disturbance</text>
<line x1="641" y1="76" x2="665" y2="76" stroke="#8a94a3" stroke-width="2" stroke-dasharray="6 4"/>
<text class="label" x="671" y="80">zero baseline</text>
<line x1="786" y1="76" x2="810" y2="76" stroke="#c94f2d" stroke-width="2"/>
<text class="label" x="816" y="80">yaw disturbance</text>
<text class="panel-title" x="70" y="96">Pitch position</text>
<line class="grid" x1="70" y1="338.00" x2="956" y2="338.00"/>
<text class="label" x="62" y="342.00" text-anchor="end">-1.1</text>
<line class="grid" x1="70" y1="280.50" x2="956" y2="280.50"/>
<text class="label" x="62" y="284.50" text-anchor="end">1.2</text>
<line class="grid" x1="70" y1="223.00" x2="956" y2="223.00"/>
<text class="label" x="62" y="227.00" text-anchor="end">3.5</text>
<line class="grid" x1="70" y1="165.50" x2="956" y2="165.50"/>
<text class="label" x="62" y="169.50" text-anchor="end">5.8</text>
<line class="grid" x1="70" y1="108.00" x2="956" y2="108.00"/>
<text class="label" x="62" y="112.00" text-anchor="end">8.2</text>
<line class="grid" x1="70.00" y1="108" x2="70.00" y2="338"/>
<line class="grid" x1="217.67" y1="108" x2="217.67" y2="338"/>
<line class="grid" x1="365.33" y1="108" x2="365.33" y2="338"/>
<line class="grid" x1="513.00" y1="108" x2="513.00" y2="338"/>
<line class="grid" x1="660.67" y1="108" x2="660.67" y2="338"/>
<line class="grid" x1="808.33" y1="108" x2="808.33" y2="338"/>
<line class="grid" x1="956.00" y1="108" x2="956.00" y2="338"/>
<line x1="304.00" y1="108" x2="304.00" y2="338" stroke="#20242a" stroke-width="1.2" opacity="0.55"/>
<text class="label" x="308.00" y="120.00" transform="rotate(-35 308.00 120.00)">fire</text>
<line x1="337.95" y1="108" x2="337.95" y2="338" stroke="#6b7280" stroke-width="1.2" opacity="0.55"/>
<text class="label" x="341.95" y="120.00" transform="rotate(-35 341.95 120.00)">muzzle</text>
<line x1="474.72" y1="108" x2="474.72" y2="338" stroke="#6b7280" stroke-width="1.2" opacity="0.55"/>
<text class="label" x="478.72" y="120.00" transform="rotate(-35 478.72 120.00)">impact</text>
<line x1="432.56" y1="108" x2="432.56" y2="338" stroke="#1769aa" stroke-width="1.2" opacity="0.55"/>
<text class="label" x="436.56" y="120.00" transform="rotate(-35 436.56 120.00)">pitch peak</text>
<line x1="366.38" y1="108" x2="366.38" y2="338" stroke="#c94f2d" stroke-width="1.2" opacity="0.55"/>
<text class="label" x="370.38" y="120.00" transform="rotate(-35 370.38 120.00)">yaw peak</text>
<path d="M 104.36,272.60 L 114.28,265.84 L 122.91,265.84 L 129.53,276.50 L 137.53,276.50 L 146.75,284.05 L 162.07,284.05 L 171.85,292.84 L 179.67,292.84 L 188.22,297.70 L 197.49,296.95 L 204.64,296.95 L 213.91,291.02 L 221.26,288.10 L 229.77,288.10 L 238.93,288.10 L 247.79,283.04 L 255.10,283.04 L 263.38,283.04 L 272.00,277.81 L 288.93,272.81 L 298.02,268.47 L 308.10,264.69 L 314.50,264.69 L 324.60,260.53 L 332.50,260.53 L 340.31,258.81 L 347.90,256.91 L 356.69,256.91 L 365.06,253.58 L 373.27,253.58 L 382.16,251.51 L 390.68,251.51 L 400.00,251.51 L 409.61,260.60 L 415.43,260.60 L 424.15,260.60 L 432.56,230.06 L 441.35,230.06 L 449.09,226.93 L 457.91,226.93 L 466.73,213.65 L 474.68,210.58 L 483.00,210.58 L 501.09,216.35 L 509.24,218.87 L 517.69,218.87 L 524.93,218.87 L 534.13,216.59 L 545.90,216.59 L 550.40,216.67 L 560.65,217.67 L 567.56,217.67 L 577.22,215.04 L 584.20,215.04 L 593.30,215.04 L 611.07,209.66 L 629.80,207.97 L 644.43,206.61 L 653.46,205.05 L 660.80,205.11 L 668.69,205.11 L 677.20,203.29 L 685.54,200.82 L 695.79,200.82 L 704.06,221.76 L 710.90,221.76 L 719.10,225.77 L 727.56,206.04 L 744.42,206.04 L 753.22,206.04 L 761.43,202.45 L 769.76,202.45 L 786.95,202.45 L 795.07,202.45 L 804.36,202.45 L 812.11,202.45 L 820.70,202.45 L 831.02,211.09 L 846.56,210.25 L 865.42,176.30 L 880.54,188.66 L 888.83,158.54 L 896.43,135.86 L 905.49,135.86 L 913.80,130.26 L 921.62,130.26 L 930.46,130.26" fill="none" stroke="#48525f" stroke-width="2" stroke-dasharray="6 4"/>
<path d="M 104.36,315.74 L 114.28,312.54 L 122.91,307.74 L 129.53,301.60 L 137.53,295.06 L 146.75,288.66 L 162.07,282.04 L 171.85,280.66 L 179.67,280.92 L 188.22,282.66 L 197.49,284.66 L 204.64,286.93 L 213.91,288.97 L 221.26,290.44 L 229.77,291.33 L 238.93,291.77 L 247.79,291.64 L 255.10,291.20 L 263.38,290.48 L 272.00,289.51 L 288.93,287.55 L 298.02,286.04 L 308.10,283.99 L 314.50,281.72 L 324.60,279.06 L 332.50,276.52 L 340.31,274.03 L 347.90,298.71 L 356.69,300.53 L 365.06,295.69 L 373.27,295.95 L 382.16,287.95 L 390.68,288.35 L 400.00,291.11 L 409.61,299.87 L 415.43,306.63 L 424.15,304.71 L 432.56,299.07 L 441.35,292.93 L 449.09,286.70 L 457.91,282.57 L 466.73,279.01 L 474.68,271.27 L 483.00,259.85 L 501.09,243.61 L 509.24,237.97 L 517.69,234.10 L 524.93,231.74 L 534.13,229.79 L 545.90,228.05 L 550.40,226.54 L 560.65,225.74 L 567.56,225.07 L 577.22,224.36 L 584.20,223.47 L 593.30,222.54 L 611.07,220.36 L 629.80,218.18 L 644.43,215.51 L 653.46,239.66 L 660.80,241.61 L 668.69,237.26 L 677.20,233.39 L 685.54,226.76 L 695.79,227.74 L 704.06,230.54 L 710.90,241.84 L 719.10,250.37 L 727.56,253.00 L 744.42,243.57 L 753.22,237.61 L 761.43,233.16 L 769.76,229.21 L 786.95,214.98 L 795.07,210.98 L 804.36,208.49 L 812.11,208.08 L 820.70,208.75 L 831.02,208.93 L 846.56,208.08 L 865.42,207.91 L 880.54,207.86 L 888.83,205.59 L 896.43,201.81 L 905.49,197.72 L 913.80,193.28 L 921.62,187.72 L 930.46,180.29" fill="none" stroke="#1769aa" stroke-width="2"/>
<line class="axis" x1="70" y1="338" x2="956" y2="338"/>
<line class="axis" x1="70" y1="108" x2="70" y2="338"/>
<text class="label" x="18" y="223.00" transform="rotate(-90 18 223.00)" text-anchor="middle">degrees</text>
<text class="panel-title" x="70" y="364">Yaw position</text>
<line class="grid" x1="70" y1="606.00" x2="956" y2="606.00"/>
<text class="label" x="62" y="610.00" text-anchor="end">-10.8</text>
<line class="grid" x1="70" y1="548.50" x2="956" y2="548.50"/>
<text class="label" x="62" y="552.50" text-anchor="end">-9.2</text>
<line class="grid" x1="70" y1="491.00" x2="956" y2="491.00"/>
<text class="label" x="62" y="495.00" text-anchor="end">-7.6</text>
<line class="grid" x1="70" y1="433.50" x2="956" y2="433.50"/>
<text class="label" x="62" y="437.50" text-anchor="end">-6.0</text>
<line class="grid" x1="70" y1="376.00" x2="956" y2="376.00"/>
<text class="label" x="62" y="380.00" text-anchor="end">-4.4</text>
<line class="grid" x1="70.00" y1="376" x2="70.00" y2="606"/>
<line class="grid" x1="217.67" y1="376" x2="217.67" y2="606"/>
<line class="grid" x1="365.33" y1="376" x2="365.33" y2="606"/>
<line class="grid" x1="513.00" y1="376" x2="513.00" y2="606"/>
<line class="grid" x1="660.67" y1="376" x2="660.67" y2="606"/>
<line class="grid" x1="808.33" y1="376" x2="808.33" y2="606"/>
<line class="grid" x1="956.00" y1="376" x2="956.00" y2="606"/>
<line x1="304.00" y1="376" x2="304.00" y2="606" stroke="#20242a" stroke-width="1.2" opacity="0.55"/>
<line x1="337.95" y1="376" x2="337.95" y2="606" stroke="#6b7280" stroke-width="1.2" opacity="0.55"/>
<line x1="474.72" y1="376" x2="474.72" y2="606" stroke="#6b7280" stroke-width="1.2" opacity="0.55"/>
<line x1="432.56" y1="376" x2="432.56" y2="606" stroke="#1769aa" stroke-width="1.2" opacity="0.55"/>
<line x1="366.38" y1="376" x2="366.38" y2="606" stroke="#c94f2d" stroke-width="1.2" opacity="0.55"/>
<path d="M 95.08,423.25 L 108.02,417.41 L 113.15,419.90 L 121.09,419.90 L 128.99,416.10 L 139.35,416.10 L 146.13,417.51 L 154.50,417.51 L 163.58,417.51 L 171.22,414.80 L 178.73,414.80 L 187.75,413.09 L 205.21,413.50 L 212.50,413.50 L 223.09,419.72 L 230.49,419.72 L 240.06,422.55 L 246.55,422.55 L 255.53,423.31 L 267.31,425.89 L 281.28,427.84 L 289.84,427.84 L 297.58,428.59 L 306.26,430.06 L 313.97,430.06 L 323.47,432.27 L 331.23,432.27 L 339.92,433.51 L 348.80,434.40 L 356.16,434.40 L 366.38,436.34 L 374.14,436.34 L 381.76,437.36 L 390.12,437.36 L 398.42,437.36 L 407.19,417.54 L 414.99,417.54 L 423.56,417.54 L 432.02,432.65 L 443.35,432.65 L 450.13,433.60 L 459.17,433.60 L 465.91,443.44 L 474.21,444.57 L 491.23,446.32 L 499.61,446.32 L 508.21,451.80 L 516.63,451.80 L 527.40,451.80 L 536.64,460.06 L 542.13,460.06 L 552.01,461.68 L 558.79,461.68 L 567.17,462.98 L 579.78,464.77 L 588.84,464.77 L 595.13,469.76 L 602.47,469.76 L 614.47,475.54 L 620.52,475.54 L 636.22,481.00 L 651.68,488.67 L 663.20,491.88 L 669.65,493.74 L 677.83,493.74 L 685.97,496.27 L 694.62,496.27 L 702.88,498.16 L 711.88,498.16 L 719.57,497.95 L 728.00,500.50 L 737.30,500.50 L 744.97,500.50 L 754.19,504.80 L 761.96,504.80 L 770.19,504.80 L 779.81,504.80 L 787.46,504.80 L 795.52,504.80 L 803.89,504.80 L 812.56,504.80 L 821.18,504.80 L 829.82,483.70 L 838.25,483.70 L 846.05,556.02 L 856.43,570.69 L 863.77,570.69 L 871.93,570.69 L 888.40,577.40 L 896.85,577.40 L 906.56,577.40 L 914.89,577.40 L 922.07,577.40 L 930.92,577.40" fill="none" stroke="#48525f" stroke-width="2" stroke-dasharray="6 4"/>
<path d="M 95.08,398.26 L 108.02,401.61 L 113.15,405.34 L 121.09,409.07 L 128.99,412.87 L 139.35,415.38 L 146.13,417.77 L 154.50,419.38 L 163.58,419.57 L 171.22,418.92 L 178.73,417.96 L 187.75,416.93 L 205.21,415.00 L 212.50,414.29 L 223.09,413.71 L 230.49,413.84 L 240.06,414.55 L 246.55,415.64 L 255.53,417.44 L 267.31,419.12 L 281.28,422.08 L 289.84,423.43 L 297.58,424.72 L 306.26,425.88 L 313.97,426.71 L 323.47,427.74 L 331.23,428.78 L 339.92,429.74 L 348.80,459.61 L 356.16,481.57 L 366.38,495.86 L 374.14,485.62 L 381.76,472.04 L 390.12,461.09 L 398.42,448.35 L 407.19,444.42 L 414.99,441.59 L 423.56,436.82 L 432.02,431.74 L 443.35,428.26 L 450.13,429.16 L 459.17,430.96 L 465.91,431.35 L 474.21,432.32 L 491.23,434.76 L 499.61,437.66 L 508.21,440.94 L 516.63,444.10 L 527.40,447.00 L 536.64,449.63 L 542.13,451.89 L 552.01,454.40 L 558.79,455.75 L 567.17,457.10 L 579.78,458.46 L 588.84,459.55 L 595.13,460.71 L 602.47,461.74 L 614.47,463.35 L 620.52,464.83 L 636.22,469.72 L 651.68,506.68 L 663.20,530.88 L 669.65,542.54 L 677.83,545.63 L 685.97,535.46 L 694.62,522.84 L 702.88,512.15 L 711.88,509.90 L 719.57,507.77 L 728.00,505.90 L 737.30,503.65 L 744.97,501.72 L 754.19,501.91 L 761.96,501.78 L 770.19,501.27 L 779.81,501.98 L 787.46,502.81 L 795.52,503.52 L 803.89,504.42 L 812.56,504.94 L 821.18,505.26 L 829.82,505.45 L 838.25,505.32 L 846.05,503.59 L 856.43,501.14 L 863.77,499.53 L 871.93,501.98 L 888.40,521.29 L 896.85,538.16 L 906.56,554.90 L 914.89,569.38 L 922.07,580.01 L 930.92,583.74" fill="none" stroke="#c94f2d" stroke-width="2"/>
<line class="axis" x1="70" y1="606" x2="956" y2="606"/>
<line class="axis" x1="70" y1="376" x2="70" y2="606"/>
<text class="label" x="18" y="491.00" transform="rotate(-90 18 491.00)" text-anchor="middle">degrees</text>
<text class="panel-title" x="70" y="632">Pitch disturbance while moving</text>
<line class="grid" x1="70" y1="874.00" x2="956" y2="874.00"/>
<text class="label" x="62" y="878.00" text-anchor="end">-3.1</text>
<line class="grid" x1="70" y1="816.50" x2="956" y2="816.50"/>
<text class="label" x="62" y="820.50" text-anchor="end">-2.0</text>
<line class="grid" x1="70" y1="759.00" x2="956" y2="759.00"/>
<text class="label" x="62" y="763.00" text-anchor="end">-0.9</text>
<line class="grid" x1="70" y1="701.50" x2="956" y2="701.50"/>
<text class="label" x="62" y="705.50" text-anchor="end">0.1</text>
<line class="grid" x1="70" y1="644.00" x2="956" y2="644.00"/>
<text class="label" x="62" y="648.00" text-anchor="end">1.2</text>
<line class="grid" x1="70.00" y1="644" x2="70.00" y2="874"/>
<line class="grid" x1="217.67" y1="644" x2="217.67" y2="874"/>
<line class="grid" x1="365.33" y1="644" x2="365.33" y2="874"/>
<line class="grid" x1="513.00" y1="644" x2="513.00" y2="874"/>
<line class="grid" x1="660.67" y1="644" x2="660.67" y2="874"/>
<line class="grid" x1="808.33" y1="644" x2="808.33" y2="874"/>
<line class="grid" x1="956.00" y1="644" x2="956.00" y2="874"/>
<line x1="304.00" y1="644" x2="304.00" y2="874" stroke="#20242a" stroke-width="1.2" opacity="0.55"/>
<line x1="337.95" y1="644" x2="337.95" y2="874" stroke="#6b7280" stroke-width="1.2" opacity="0.55"/>
<line x1="474.72" y1="644" x2="474.72" y2="874" stroke="#6b7280" stroke-width="1.2" opacity="0.55"/>
<line x1="432.56" y1="644" x2="432.56" y2="874" stroke="#1769aa" stroke-width="1.2" opacity="0.55"/>
<line x1="366.38" y1="644" x2="366.38" y2="874" stroke="#c94f2d" stroke-width="1.2" opacity="0.55"/>
<path d="M 104.36,794.66 L 114.28,802.52 L 122.91,791.92 L 129.53,754.85 L 137.53,740.43 L 146.75,709.63 L 162.07,695.01 L 171.85,672.56 L 179.67,673.15 L 188.22,666.26 L 197.49,672.34 L 204.64,677.34 L 213.91,694.93 L 221.26,704.62 L 229.77,706.59 L 238.93,707.57 L 247.79,718.44 L 255.10,717.46 L 263.38,715.89 L 272.00,725.27 L 288.93,731.99 L 298.02,738.22 L 308.10,742.04 L 314.50,737.04 L 324.60,740.34 L 332.50,734.74 L 340.31,733.05 L 347.90,791.69 L 356.69,795.71 L 365.06,792.37 L 373.27,792.95 L 382.16,779.88 L 390.68,780.76 L 400.00,786.84 L 409.61,786.10 L 415.43,801.02 L 424.15,796.80 L 432.56,851.74 L 441.35,838.20 L 449.09,831.38 L 457.91,822.25 L 466.73,843.70 L 474.68,833.39 L 483.00,808.17 L 501.09,759.63 L 509.24,741.59 L 517.69,733.05 L 524.93,727.85 L 534.13,728.56 L 545.90,724.74 L 550.40,721.24 L 560.65,717.27 L 567.56,715.80 L 577.22,720.03 L 584.20,718.07 L 593.30,716.00 L 611.07,723.06 L 629.80,721.99 L 644.43,719.09 L 653.46,775.82 L 660.80,780.02 L 668.69,770.40 L 677.20,765.87 L 685.54,756.70 L 695.79,758.86 L 704.06,718.84 L 710.90,743.76 L 719.10,753.75 L 727.56,803.09 L 744.42,782.29 L 753.22,769.14 L 761.43,767.23 L 769.76,758.49 L 786.95,727.09 L 795.07,718.26 L 804.36,712.76 L 812.11,711.88 L 820.70,713.35 L 831.02,694.70 L 846.56,694.67 L 865.42,769.20 L 880.54,741.83 L 888.83,803.29 L 896.43,844.99 L 905.49,835.97 L 913.80,838.52 L 921.62,826.26 L 930.46,809.87" fill="none" stroke="#1769aa" stroke-width="2"/>
<path d="M 104.36,707.57 L 114.28,707.57 L 122.91,707.57 L 129.53,707.57 L 137.53,707.57 L 146.75,707.57 L 162.07,707.57 L 171.85,707.57 L 179.67,707.57 L 188.22,707.57 L 197.49,707.57 L 204.64,707.57 L 213.91,707.57 L 221.26,707.57 L 229.77,707.57 L 238.93,707.57 L 247.79,707.57 L 255.10,707.57 L 263.38,707.57 L 272.00,707.57 L 288.93,707.57 L 298.02,707.57 L 308.10,707.57 L 314.50,707.57 L 324.60,707.57 L 332.50,707.57 L 340.31,707.57 L 347.90,707.57 L 356.69,707.57 L 365.06,707.57 L 373.27,707.57 L 382.16,707.57 L 390.68,707.57 L 400.00,707.57 L 409.61,707.57 L 415.43,707.57 L 424.15,707.57 L 432.56,707.57 L 441.35,707.57 L 449.09,707.57 L 457.91,707.57 L 466.73,707.57 L 474.68,707.57 L 483.00,707.57 L 501.09,707.57 L 509.24,707.57 L 517.69,707.57 L 524.93,707.57 L 534.13,707.57 L 545.90,707.57 L 550.40,707.57 L 560.65,707.57 L 567.56,707.57 L 577.22,707.57 L 584.20,707.57 L 593.30,707.57 L 611.07,707.57 L 629.80,707.57 L 644.43,707.57 L 653.46,707.57 L 660.80,707.57 L 668.69,707.57 L 677.20,707.57 L 685.54,707.57 L 695.79,707.57 L 704.06,707.57 L 710.90,707.57 L 719.10,707.57 L 727.56,707.57 L 744.42,707.57 L 753.22,707.57 L 761.43,707.57 L 769.76,707.57 L 786.95,707.57 L 795.07,707.57 L 804.36,707.57 L 812.11,707.57 L 820.70,707.57 L 831.02,707.57 L 846.56,707.57 L 865.42,707.57 L 880.54,707.57 L 888.83,707.57 L 896.43,707.57 L 905.49,707.57 L 913.80,707.57 L 921.62,707.57 L 930.46,707.57" fill="none" stroke="#8a94a3" stroke-width="2" stroke-dasharray="6 4"/>
<line class="axis" x1="70" y1="874" x2="956" y2="874"/>
<line class="axis" x1="70" y1="644" x2="70" y2="874"/>
<text class="label" x="18" y="759.00" transform="rotate(-90 18 759.00)" text-anchor="middle">degrees</text>
<text class="panel-title" x="70" y="900">Yaw disturbance while moving</text>
<line class="grid" x1="70" y1="1142.00" x2="956" y2="1142.00"/>
<text class="label" x="62" y="1146.00" text-anchor="end">-2.3</text>
<line class="grid" x1="70" y1="1084.50" x2="956" y2="1084.50"/>
<text class="label" x="62" y="1088.50" text-anchor="end">-1.1</text>
<line class="grid" x1="70" y1="1027.00" x2="956" y2="1027.00"/>
<text class="label" x="62" y="1031.00" text-anchor="end">-0.0</text>
<line class="grid" x1="70" y1="969.50" x2="956" y2="969.50"/>
<text class="label" x="62" y="973.50" text-anchor="end">1.1</text>
<line class="grid" x1="70" y1="912.00" x2="956" y2="912.00"/>
<text class="label" x="62" y="916.00" text-anchor="end">2.3</text>
<line class="grid" x1="70.00" y1="912" x2="70.00" y2="1142"/>
<text class="label" x="70.00" y="1162" text-anchor="middle">-0.28</text>
<line class="grid" x1="217.67" y1="912" x2="217.67" y2="1142"/>
<text class="label" x="217.67" y="1162" text-anchor="middle">-0.10</text>
<line class="grid" x1="365.33" y1="912" x2="365.33" y2="1142"/>
<text class="label" x="365.33" y="1162" text-anchor="middle">0.07</text>
<line class="grid" x1="513.00" y1="912" x2="513.00" y2="1142"/>
<text class="label" x="513.00" y="1162" text-anchor="middle">0.25</text>
<line class="grid" x1="660.67" y1="912" x2="660.67" y2="1142"/>
<text class="label" x="660.67" y="1162" text-anchor="middle">0.42</text>
<line class="grid" x1="808.33" y1="912" x2="808.33" y2="1142"/>
<text class="label" x="808.33" y="1162" text-anchor="middle">0.60</text>
<line class="grid" x1="956.00" y1="912" x2="956.00" y2="1142"/>
<text class="label" x="956.00" y="1162" text-anchor="middle">0.77</text>
<line x1="304.00" y1="912" x2="304.00" y2="1142" stroke="#20242a" stroke-width="1.2" opacity="0.55"/>
<line x1="337.95" y1="912" x2="337.95" y2="1142" stroke="#6b7280" stroke-width="1.2" opacity="0.55"/>
<line x1="474.72" y1="912" x2="474.72" y2="1142" stroke="#6b7280" stroke-width="1.2" opacity="0.55"/>
<line x1="432.56" y1="912" x2="432.56" y2="1142" stroke="#1769aa" stroke-width="1.2" opacity="0.55"/>
<line x1="366.38" y1="912" x2="366.38" y2="1142" stroke="#c94f2d" stroke-width="1.2" opacity="0.55"/>
<path d="M 95.08,999.78 L 108.02,1012.83 L 113.15,1014.59 L 121.09,1019.89 L 128.99,1030.67 L 139.35,1034.23 L 146.13,1035.62 L 154.50,1037.90 L 163.58,1038.17 L 171.22,1041.11 L 178.73,1039.74 L 187.75,1040.71 L 205.21,1037.38 L 212.50,1036.37 L 223.09,1026.72 L 230.49,1026.91 L 240.06,1023.89 L 246.55,1025.45 L 255.53,1026.93 L 267.31,1025.64 L 281.28,1027.08 L 289.84,1029.00 L 297.58,1029.75 L 306.26,1029.32 L 313.97,1030.51 L 323.47,1028.83 L 331.23,1030.29 L 339.92,1029.90 L 348.80,1071.05 L 356.16,1102.21 L 366.38,1119.74 L 374.14,1105.21 L 381.76,1084.48 L 390.12,1068.94 L 398.42,1050.85 L 407.19,1073.40 L 414.99,1069.38 L 423.56,1062.62 L 432.02,1033.95 L 443.35,1029.02 L 450.13,1028.95 L 459.17,1031.51 L 465.91,1018.10 L 474.21,1017.86 L 491.23,1018.85 L 499.61,1022.96 L 508.21,1019.84 L 516.63,1024.32 L 527.40,1028.43 L 536.64,1020.46 L 542.13,1023.65 L 552.01,1024.92 L 558.79,1026.84 L 567.17,1026.91 L 579.78,1026.29 L 588.84,1027.84 L 595.13,1022.41 L 602.47,1023.87 L 614.47,1017.95 L 620.52,1020.05 L 636.22,1019.25 L 651.68,1060.82 L 663.20,1090.61 L 669.65,1104.51 L 677.83,1108.90 L 685.97,1090.87 L 694.62,1072.96 L 702.88,1055.11 L 711.88,1051.91 L 719.57,1049.19 L 728.00,1042.93 L 737.30,1039.73 L 744.97,1036.99 L 754.19,1031.16 L 761.96,1030.97 L 770.19,1030.24 L 779.81,1031.25 L 787.46,1032.44 L 795.52,1033.44 L 803.89,1034.72 L 812.56,1035.45 L 821.18,1035.91 L 829.82,1066.13 L 838.25,1065.95 L 846.05,960.84 L 856.43,936.54 L 863.77,934.26 L 871.93,937.73 L 888.40,955.61 L 896.85,979.55 L 906.56,1003.31 L 914.89,1023.87 L 922.07,1038.95 L 930.92,1044.25" fill="none" stroke="#c94f2d" stroke-width="2"/>
<path d="M 95.08,1026.91 L 108.02,1026.91 L 113.15,1026.91 L 121.09,1026.91 L 128.99,1026.91 L 139.35,1026.91 L 146.13,1026.91 L 154.50,1026.91 L 163.58,1026.91 L 171.22,1026.91 L 178.73,1026.91 L 187.75,1026.91 L 205.21,1026.91 L 212.50,1026.91 L 223.09,1026.91 L 230.49,1026.91 L 240.06,1026.91 L 246.55,1026.91 L 255.53,1026.91 L 267.31,1026.91 L 281.28,1026.91 L 289.84,1026.91 L 297.58,1026.91 L 306.26,1026.91 L 313.97,1026.91 L 323.47,1026.91 L 331.23,1026.91 L 339.92,1026.91 L 348.80,1026.91 L 356.16,1026.91 L 366.38,1026.91 L 374.14,1026.91 L 381.76,1026.91 L 390.12,1026.91 L 398.42,1026.91 L 407.19,1026.91 L 414.99,1026.91 L 423.56,1026.91 L 432.02,1026.91 L 443.35,1026.91 L 450.13,1026.91 L 459.17,1026.91 L 465.91,1026.91 L 474.21,1026.91 L 491.23,1026.91 L 499.61,1026.91 L 508.21,1026.91 L 516.63,1026.91 L 527.40,1026.91 L 536.64,1026.91 L 542.13,1026.91 L 552.01,1026.91 L 558.79,1026.91 L 567.17,1026.91 L 579.78,1026.91 L 588.84,1026.91 L 595.13,1026.91 L 602.47,1026.91 L 614.47,1026.91 L 620.52,1026.91 L 636.22,1026.91 L 651.68,1026.91 L 663.20,1026.91 L 669.65,1026.91 L 677.83,1026.91 L 685.97,1026.91 L 694.62,1026.91 L 702.88,1026.91 L 711.88,1026.91 L 719.57,1026.91 L 728.00,1026.91 L 737.30,1026.91 L 744.97,1026.91 L 754.19,1026.91 L 761.96,1026.91 L 770.19,1026.91 L 779.81,1026.91 L 787.46,1026.91 L 795.52,1026.91 L 803.89,1026.91 L 812.56,1026.91 L 821.18,1026.91 L 829.82,1026.91 L 838.25,1026.91 L 846.05,1026.91 L 856.43,1026.91 L 863.77,1026.91 L 871.93,1026.91 L 888.40,1026.91 L 896.85,1026.91 L 906.56,1026.91 L 914.89,1026.91 L 922.07,1026.91 L 930.92,1026.91" fill="none" stroke="#8a94a3" stroke-width="2" stroke-dasharray="6 4"/>
<line class="axis" x1="70" y1="1142" x2="956" y2="1142"/>
<line class="axis" x1="70" y1="912" x2="70" y2="1142"/>
<text class="label" x="18" y="1027.00" transform="rotate(-90 18 1027.00)" text-anchor="middle">degrees</text>
<text class="label" x="513.0" y="1178" text-anchor="middle">time relative to event (s)</text>
</svg>