<svg xmlns="http://www.w3.org/2000/svg" viewBox="0 0 980 1186" role="img">
<style>
.axis{stroke:#718096;stroke-width:1}.grid{stroke:#e5eaf0;stroke-width:1}.label{font:12px sans-serif;fill:#5a6675}.title{font:700 18px sans-serif;fill:#20242a}.subtitle{font:12px sans-serif;fill:#5a6675}.panel-title{font:700 13px sans-serif;fill:#20242a}
</style>
<rect width="980" height="1186" fill="#ffffff"/>
<text class="title" x="70" y="28">Motion disturbance example 4: event 236</text>
<text class="subtitle" x="70" y="50">Start pitch -1.1 deg, yaw -3.8 deg; target motion 8.0 deg; disturbance vector 4.38 deg.</text>
<line x1="70" y1="76" x2="94" y2="76" stroke="#48525f" stroke-width="2" stroke-dasharray="6 4"/>
<text class="label" x="100" y="80">target</text>
<line x1="200" y1="76" x2="224" y2="76" stroke="#1769aa" stroke-width="2"/>
<text class="label" x="230" y="80">pitch actual</text>
<line x1="338" y1="76" x2="362" y2="76" stroke="#c94f2d" stroke-width="2"/>
<text class="label" x="368" y="80">yaw actual</text>
<line x1="468" y1="76" x2="492" y2="76" stroke="#1769aa" stroke-width="2"/>
<text class="label" x="498" y="80">pitch disturbance</text>
<line x1="641" y1="76" x2="665" y2="76" stroke="#8a94a3" stroke-width="2" stroke-dasharray="6 4"/>
<text class="label" x="671" y="80">zero baseline</text>
<line x1="786" y1="76" x2="810" y2="76" stroke="#c94f2d" stroke-width="2"/>
<text class="label" x="816" y="80">yaw disturbance</text>
<text class="panel-title" x="70" y="96">Pitch position</text>
<line class="grid" x1="70" y1="338.00" x2="956" y2="338.00"/>
<text class="label" x="62" y="342.00" text-anchor="end">-7.0</text>
<line class="grid" x1="70" y1="280.50" x2="956" y2="280.50"/>
<text class="label" x="62" y="284.50" text-anchor="end">-3.0</text>
<line class="grid" x1="70" y1="223.00" x2="956" y2="223.00"/>
<text class="label" x="62" y="227.00" text-anchor="end">1.1</text>
<line class="grid" x1="70" y1="165.50" x2="956" y2="165.50"/>
<text class="label" x="62" y="169.50" text-anchor="end">5.2</text>
<line class="grid" x1="70" y1="108.00" x2="956" y2="108.00"/>
<text class="label" x="62" y="112.00" text-anchor="end">9.3</text>
<line class="grid" x1="70.00" y1="108" x2="70.00" y2="338"/>
<line class="grid" x1="217.67" y1="108" x2="217.67" y2="338"/>
<line class="grid" x1="365.33" y1="108" x2="365.33" y2="338"/>
<line class="grid" x1="513.00" y1="108" x2="513.00" y2="338"/>
<line class="grid" x1="660.67" y1="108" x2="660.67" y2="338"/>
<line class="grid" x1="808.33" y1="108" x2="808.33" y2="338"/>
<line class="grid" x1="956.00" y1="108" x2="956.00" y2="338"/>
<line x1="305.33" y1="108" x2="305.33" y2="338" stroke="#20242a" stroke-width="1.2" opacity="0.55"/>
<text class="label" x="309.33" y="120.00" transform="rotate(-35 309.33 120.00)">fire</text>
<line x1="344.28" y1="108" x2="344.28" y2="338" stroke="#6b7280" stroke-width="1.2" opacity="0.55"/>
<text class="label" x="348.28" y="120.00" transform="rotate(-35 348.28 120.00)">muzzle</text>
<line x1="467.80" y1="108" x2="467.80" y2="338" stroke="#6b7280" stroke-width="1.2" opacity="0.55"/>
<text class="label" x="471.80" y="120.00" transform="rotate(-35 471.80 120.00)">impact</text>
<line x1="470.07" y1="108" x2="470.07" y2="338" stroke="#1769aa" stroke-width="1.2" opacity="0.55"/>
<text class="label" x="474.07" y="120.00" transform="rotate(-35 474.07 120.00)">pitch peak</text>
<line x1="602.98" y1="108" x2="602.98" y2="338" stroke="#c94f2d" stroke-width="1.2" opacity="0.55"/>
<text class="label" x="606.98" y="120.00" transform="rotate(-35 606.98 120.00)">yaw peak</text>
<path d="M 95.08,308.48 L 103.43,304.26 L 124.64,301.87 L 129.26,299.84 L 138.18,299.84 L 146.13,261.89 L 163.34,259.21 L 171.20,259.21 L 182.24,255.85 L 188.35,255.85 L 197.92,253.22 L 205.31,253.22 L 213.39,254.13 L 222.38,252.09 L 230.04,252.09 L 238.39,250.80 L 247.31,250.80 L 256.55,248.03 L 263.90,247.14 L 272.59,247.14 L 281.71,247.14 L 289.77,243.24 L 297.49,241.99 L 306.05,241.99 L 314.26,239.49 L 322.90,236.72 L 332.54,236.72 L 341.27,236.72 L 348.30,233.17 L 356.62,231.65 L 368.27,231.09 L 375.90,231.09 L 382.42,229.41 L 390.66,229.41 L 398.82,243.49 L 408.86,248.56 L 415.99,248.56 L 424.55,248.56 L 436.16,235.60 L 441.35,221.06 L 450.68,221.06 L 470.07,205.17 L 478.03,205.17 L 484.71,202.84 L 492.18,202.84 L 500.33,199.35 L 509.56,199.35 L 517.98,196.19 L 527.75,196.19 L 534.34,196.19 L 543.69,196.19 L 551.22,191.12 L 559.12,188.67 L 568.22,188.67 L 575.74,185.86 L 585.43,185.86 L 592.59,192.99 L 601.93,192.99 L 609.47,196.65 L 619.38,185.94 L 635.51,190.91 L 655.16,202.39 L 660.63,201.23 L 678.06,199.57 L 685.76,198.30 L 694.22,198.30 L 703.46,180.60 L 710.69,180.60 L 719.84,180.60 L 727.99,158.58 L 738.41,158.58 L 744.46,146.67 L 753.41,146.67 L 762.08,146.67 L 770.34,146.62 L 786.79,137.33 L 795.35,134.44 L 803.70,134.44 L 812.29,130.26 L 829.95,130.26 L 846.43,130.26 L 864.53,130.26 L 870.97,130.26 L 887.77,130.26 L 897.29,130.26 L 913.12,130.26 L 922.57,130.26 L 930.92,130.26" fill="none" stroke="#48525f" stroke-width="2" stroke-dasharray="6 4"/>
<path d="M 95.08,315.74 L 103.43,314.52 L 124.64,311.83 L 129.26,310.38 L 138.18,309.04 L 146.13,307.69 L 163.34,304.39 L 171.20,301.70 L 182.24,297.16 L 188.35,291.70 L 197.92,285.70 L 205.31,279.51 L 213.39,273.72 L 222.38,268.89 L 230.04,265.34 L 238.39,262.95 L 247.31,261.33 L 256.55,259.98 L 263.90,258.84 L 272.59,257.77 L 281.71,256.55 L 289.77,255.21 L 297.49,253.84 L 306.05,252.52 L 314.26,251.09 L 322.90,249.49 L 332.54,248.00 L 341.27,246.40 L 348.30,260.16 L 356.62,260.46 L 368.27,256.58 L 375.90,253.56 L 382.42,247.72 L 390.66,247.56 L 398.82,250.21 L 408.86,257.14 L 415.99,259.88 L 424.55,260.67 L 436.16,260.62 L 441.35,258.53 L 450.68,256.40 L 470.07,249.49 L 478.03,242.13 L 484.71,234.69 L 492.18,229.36 L 500.33,224.71 L 509.56,220.62 L 517.98,217.55 L 527.75,215.32 L 534.34,213.03 L 543.69,210.52 L 551.22,207.93 L 559.12,206.18 L 568.22,204.58 L 575.74,202.70 L 585.43,200.41 L 592.59,198.03 L 601.93,195.92 L 609.47,194.34 L 619.38,193.56 L 635.51,193.61 L 655.16,193.23 L 660.63,193.15 L 678.06,193.99 L 685.76,194.55 L 694.22,195.13 L 703.46,196.10 L 710.69,196.91 L 719.84,197.24 L 727.99,196.68 L 738.41,194.90 L 744.46,192.69 L 753.41,189.65 L 762.08,185.61 L 770.34,180.28 L 786.79,168.24 L 795.35,163.29 L 803.70,158.80 L 812.29,154.76 L 829.95,148.51 L 846.43,143.53 L 864.53,138.76 L 870.97,137.14 L 887.77,134.95 L 897.29,134.06 L 913.12,132.79 L 922.57,132.44 L 930.92,132.03" fill="none" stroke="#1769aa" stroke-width="2"/>
<line class="axis" x1="70" y1="338" x2="956" y2="338"/>
<line class="axis" x1="70" y1="108" x2="70" y2="338"/>
<text class="label" x="18" y="223.00" transform="rotate(-90 18 223.00)" text-anchor="middle">degrees</text>
<text class="panel-title" x="70" y="364">Yaw position</text>
<line class="grid" x1="70" y1="606.00" x2="956" y2="606.00"/>
<text class="label" x="62" y="610.00" text-anchor="end">-10.5</text>
<line class="grid" x1="70" y1="548.50" x2="956" y2="548.50"/>
<text class="label" x="62" y="552.50" text-anchor="end">-8.4</text>
<line class="grid" x1="70" y1="491.00" x2="956" y2="491.00"/>
<text class="label" x="62" y="495.00" text-anchor="end">-6.4</text>
<line class="grid" x1="70" y1="433.50" x2="956" y2="433.50"/>
<text class="label" x="62" y="437.50" text-anchor="end">-4.3</text>
<line class="grid" x1="70" y1="376.00" x2="956" y2="376.00"/>
<text class="label" x="62" y="380.00" text-anchor="end">-2.3</text>
<line class="grid" x1="70.00" y1="376" x2="70.00" y2="606"/>
<line class="grid" x1="217.67" y1="376" x2="217.67" y2="606"/>
<line class="grid" x1="365.33" y1="376" x2="365.33" y2="606"/>
<line class="grid" x1="513.00" y1="376" x2="513.00" y2="606"/>
<line class="grid" x1="660.67" y1="376" x2="660.67" y2="606"/>
<line class="grid" x1="808.33" y1="376" x2="808.33" y2="606"/>
<line class="grid" x1="956.00" y1="376" x2="956.00" y2="606"/>
<line x1="305.33" y1="376" x2="305.33" y2="606" stroke="#20242a" stroke-width="1.2" opacity="0.55"/>
<line x1="344.28" y1="376" x2="344.28" y2="606" stroke="#6b7280" stroke-width="1.2" opacity="0.55"/>
<line x1="467.80" y1="376" x2="467.80" y2="606" stroke="#6b7280" stroke-width="1.2" opacity="0.55"/>
<line x1="470.07" y1="376" x2="470.07" y2="606" stroke="#1769aa" stroke-width="1.2" opacity="0.55"/>
<line x1="602.98" y1="376" x2="602.98" y2="606" stroke="#c94f2d" stroke-width="1.2" opacity="0.55"/>
<path d="M 96.26,431.88 L 103.85,431.73 L 113.80,431.30 L 121.93,431.30 L 128.79,430.78 L 141.63,421.54 L 145.78,421.54 L 155.36,421.06 L 167.41,421.06 L 172.53,421.06 L 180.37,418.34 L 187.98,418.34 L 207.16,416.37 L 213.90,415.73 L 221.69,418.17 L 230.79,418.17 L 239.91,418.26 L 246.90,418.26 L 255.56,418.39 L 264.38,418.08 L 272.16,418.08 L 283.72,418.08 L 292.09,416.74 L 297.88,415.21 L 307.22,413.20 L 314.63,413.20 L 324.82,411.43 L 331.60,411.43 L 339.66,411.43 L 349.67,410.06 L 357.01,409.09 L 365.90,408.34 L 373.69,408.34 L 382.00,407.78 L 392.34,407.78 L 399.18,401.68 L 425.60,398.26 L 440.93,419.75 L 461.50,421.42 L 466.65,420.25 L 476.19,420.25 L 483.45,419.93 L 501.85,419.89 L 508.90,419.89 L 517.50,419.86 L 525.61,419.86 L 533.77,419.86 L 551.95,434.51 L 559.91,435.07 L 570.68,435.07 L 576.99,435.70 L 593.08,501.30 L 602.98,534.38 L 613.18,534.38 L 618.62,518.46 L 629.21,518.46 L 634.96,523.52 L 644.12,515.97 L 660.16,518.57 L 670.28,518.57 L 677.46,522.26 L 686.28,525.08 L 696.71,525.08 L 702.51,568.31 L 711.16,568.31 L 719.20,568.31 L 728.42,548.49 L 736.69,548.49 L 745.01,535.24 L 752.95,535.24 L 761.46,535.24 L 780.25,583.74 L 787.52,557.69 L 804.25,560.67 L 811.87,565.00 L 821.90,565.00 L 829.25,565.00 L 839.87,565.00 L 845.88,565.00 L 854.81,565.00 L 863.48,565.00 L 871.68,565.00 L 880.56,565.00 L 888.32,565.00 L 898.69,565.00 L 906.38,565.00 L 913.83,565.00 L 930.31,565.00" fill="none" stroke="#48525f" stroke-width="2" stroke-dasharray="6 4"/>
<path d="M 96.26,432.12 L 103.85,432.02 L 113.80,431.92 L 121.93,431.87 L 128.79,431.72 L 141.63,431.57 L 145.78,431.37 L 155.36,430.21 L 167.41,428.96 L 172.53,427.50 L 180.37,425.44 L 187.98,423.38 L 207.16,420.07 L 213.90,418.26 L 221.69,417.06 L 230.79,416.51 L 239.91,416.61 L 246.90,416.86 L 255.56,417.16 L 264.38,417.46 L 272.16,417.66 L 283.72,417.91 L 292.09,418.21 L 297.88,418.21 L 307.22,417.91 L 314.63,417.51 L 324.82,416.71 L 331.60,415.85 L 339.66,414.75 L 349.67,444.87 L 357.01,450.74 L 365.90,456.62 L 373.69,456.77 L 382.00,442.51 L 392.34,429.96 L 399.18,420.42 L 425.60,408.78 L 440.93,405.31 L 461.50,409.73 L 466.65,410.53 L 476.19,412.89 L 483.45,415.10 L 501.85,418.82 L 508.90,420.37 L 517.50,421.38 L 525.61,421.48 L 533.77,421.38 L 551.95,420.62 L 559.91,420.52 L 570.68,420.47 L 576.99,420.97 L 593.08,425.84 L 602.98,429.36 L 613.18,434.53 L 618.62,442.56 L 629.21,455.16 L 634.96,471.68 L 644.12,491.36 L 660.16,520.22 L 670.28,527.30 L 677.46,527.15 L 686.28,523.24 L 696.71,519.87 L 702.51,516.31 L 711.16,514.65 L 719.20,517.31 L 728.42,525.14 L 736.69,536.09 L 745.01,546.08 L 752.95,553.21 L 761.46,556.57 L 780.25,548.39 L 787.52,543.92 L 804.25,543.47 L 811.87,550.34 L 821.90,557.47 L 829.25,565.20 L 839.87,570.43 L 845.88,571.83 L 854.81,570.43 L 863.48,567.86 L 871.68,565.66 L 880.56,563.35 L 888.32,562.39 L 898.69,562.69 L 906.38,563.55 L 913.83,564.35 L 930.31,565.30" fill="none" stroke="#c94f2d" stroke-width="2"/>
<line class="axis" x1="70" y1="606" x2="956" y2="606"/>
<line class="axis" x1="70" y1="376" x2="70" y2="606"/>
<text class="label" x="18" y="491.00" transform="rotate(-90 18 491.00)" text-anchor="middle">degrees</text>
<text class="panel-title" x="70" y="632">Pitch disturbance while moving</text>
<line class="grid" x1="70" y1="874.00" x2="956" y2="874.00"/>
<text class="label" x="62" y="878.00" text-anchor="end">-2.9</text>
<line class="grid" x1="70" y1="816.50" x2="956" y2="816.50"/>
<text class="label" x="62" y="820.50" text-anchor="end">-1.7</text>
<line class="grid" x1="70" y1="759.00" x2="956" y2="759.00"/>
<text class="label" x="62" y="763.00" text-anchor="end">-0.5</text>
<line class="grid" x1="70" y1="701.50" x2="956" y2="701.50"/>
<text class="label" x="62" y="705.50" text-anchor="end">0.8</text>
<line class="grid" x1="70" y1="644.00" x2="956" y2="644.00"/>
<text class="label" x="62" y="648.00" text-anchor="end">2.0</text>
<line class="grid" x1="70.00" y1="644" x2="70.00" y2="874"/>
<line class="grid" x1="217.67" y1="644" x2="217.67" y2="874"/>
<line class="grid" x1="365.33" y1="644" x2="365.33" y2="874"/>
<line class="grid" x1="513.00" y1="644" x2="513.00" y2="874"/>
<line class="grid" x1="660.67" y1="644" x2="660.67" y2="874"/>
<line class="grid" x1="808.33" y1="644" x2="808.33" y2="874"/>
<line class="grid" x1="956.00" y1="644" x2="956.00" y2="874"/>
<line x1="305.33" y1="644" x2="305.33" y2="874" stroke="#20242a" stroke-width="1.2" opacity="0.55"/>
<line x1="344.28" y1="644" x2="344.28" y2="874" stroke="#6b7280" stroke-width="1.2" opacity="0.55"/>
<line x1="467.80" y1="644" x2="467.80" y2="874" stroke="#6b7280" stroke-width="1.2" opacity="0.55"/>
<line x1="470.07" y1="644" x2="470.07" y2="874" stroke="#1769aa" stroke-width="1.2" opacity="0.55"/>
<line x1="602.98" y1="644" x2="602.98" y2="874" stroke="#c94f2d" stroke-width="1.2" opacity="0.55"/>
<path d="M 95.08,721.49 L 103.43,731.57 L 124.64,730.55 L 129.26,732.50 L 138.18,727.98 L 146.13,851.02 L 163.34,848.92 L 171.20,839.88 L 182.24,835.91 L 188.35,817.56 L 197.92,806.24 L 205.31,785.41 L 213.39,762.90 L 222.38,753.53 L 230.04,741.58 L 238.39,737.90 L 247.31,732.44 L 256.55,737.24 L 263.90,736.39 L 272.59,732.81 L 281.71,728.71 L 289.77,737.30 L 297.49,736.89 L 306.05,732.46 L 314.26,736.05 L 322.90,740.01 L 332.54,734.97 L 341.27,729.59 L 348.30,787.78 L 356.62,793.91 L 368.27,782.75 L 375.90,772.60 L 382.42,758.58 L 390.66,758.07 L 398.82,719.63 L 408.86,725.88 L 415.99,735.10 L 424.55,737.74 L 436.16,781.13 L 441.35,823.04 L 450.68,815.87 L 470.07,846.05 L 478.03,821.30 L 484.71,804.11 L 492.18,786.18 L 500.33,782.33 L 509.56,768.59 L 517.98,768.85 L 527.75,761.34 L 534.34,753.66 L 543.69,745.21 L 551.22,753.56 L 559.12,755.92 L 568.22,750.54 L 575.74,753.64 L 585.43,745.96 L 592.59,713.98 L 601.93,706.90 L 609.47,689.33 L 619.38,722.67 L 635.51,706.13 L 655.16,666.26 L 660.63,669.92 L 678.06,678.31 L 685.76,684.45 L 694.22,686.41 L 703.46,749.14 L 710.69,751.87 L 719.84,752.98 L 727.99,825.12 L 738.41,819.14 L 744.46,851.74 L 753.41,841.50 L 762.08,827.93 L 770.34,810.20 L 786.79,800.96 L 795.35,794.02 L 803.70,778.91 L 812.29,779.41 L 829.95,758.42 L 846.43,741.69 L 864.53,725.64 L 870.97,720.18 L 887.77,712.84 L 897.29,709.86 L 913.12,705.59 L 922.57,704.39 L 930.92,703.03" fill="none" stroke="#1769aa" stroke-width="2"/>
<path d="M 95.08,737.57 L 103.43,737.57 L 124.64,737.57 L 129.26,737.57 L 138.18,737.57 L 146.13,737.57 L 163.34,737.57 L 171.20,737.57 L 182.24,737.57 L 188.35,737.57 L 197.92,737.57 L 205.31,737.57 L 213.39,737.57 L 222.38,737.57 L 230.04,737.57 L 238.39,737.57 L 247.31,737.57 L 256.55,737.57 L 263.90,737.57 L 272.59,737.57 L 281.71,737.57 L 289.77,737.57 L 297.49,737.57 L 306.05,737.57 L 314.26,737.57 L 322.90,737.57 L 332.54,737.57 L 341.27,737.57 L 348.30,737.57 L 356.62,737.57 L 368.27,737.57 L 375.90,737.57 L 382.42,737.57 L 390.66,737.57 L 398.82,737.57 L 408.86,737.57 L 415.99,737.57 L 424.55,737.57 L 436.16,737.57 L 441.35,737.57 L 450.68,737.57 L 470.07,737.57 L 478.03,737.57 L 484.71,737.57 L 492.18,737.57 L 500.33,737.57 L 509.56,737.57 L 517.98,737.57 L 527.75,737.57 L 534.34,737.57 L 543.69,737.57 L 551.22,737.57 L 559.12,737.57 L 568.22,737.57 L 575.74,737.57 L 585.43,737.57 L 592.59,737.57 L 601.93,737.57 L 609.47,737.57 L 619.38,737.57 L 635.51,737.57 L 655.16,737.57 L 660.63,737.57 L 678.06,737.57 L 685.76,737.57 L 694.22,737.57 L 703.46,737.57 L 710.69,737.57 L 719.84,737.57 L 727.99,737.57 L 738.41,737.57 L 744.46,737.57 L 753.41,737.57 L 762.08,737.57 L 770.34,737.57 L 786.79,737.57 L 795.35,737.57 L 803.70,737.57 L 812.29,737.57 L 829.95,737.57 L 846.43,737.57 L 864.53,737.57 L 870.97,737.57 L 887.77,737.57 L 897.29,737.57 L 913.12,737.57 L 922.57,737.57 L 930.92,737.57" fill="none" stroke="#8a94a3" stroke-width="2" stroke-dasharray="6 4"/>
<line class="axis" x1="70" y1="874" x2="956" y2="874"/>
<line class="axis" x1="70" y1="644" x2="70" y2="874"/>
<text class="label" x="18" y="759.00" transform="rotate(-90 18 759.00)" text-anchor="middle">degrees</text>
<text class="panel-title" x="70" y="900">Yaw disturbance while moving</text>
<line class="grid" x1="70" y1="1142.00" x2="956" y2="1142.00"/>
<text class="label" x="62" y="1146.00" text-anchor="end">-2.4</text>
<line class="grid" x1="70" y1="1084.50" x2="956" y2="1084.50"/>
<text class="label" x="62" y="1088.50" text-anchor="end">-0.7</text>
<line class="grid" x1="70" y1="1027.00" x2="956" y2="1027.00"/>
<text class="label" x="62" y="1031.00" text-anchor="end">1.0</text>
<line class="grid" x1="70" y1="969.50" x2="956" y2="969.50"/>
<text class="label" x="62" y="973.50" text-anchor="end">2.7</text>
<line class="grid" x1="70" y1="912.00" x2="956" y2="912.00"/>
<text class="label" x="62" y="916.00" text-anchor="end">4.4</text>
<line class="grid" x1="70.00" y1="912" x2="70.00" y2="1142"/>
<text class="label" x="70.00" y="1162" text-anchor="middle">-0.28</text>
<line class="grid" x1="217.67" y1="912" x2="217.67" y2="1142"/>
<text class="label" x="217.67" y="1162" text-anchor="middle">-0.10</text>
<line class="grid" x1="365.33" y1="912" x2="365.33" y2="1142"/>
<text class="label" x="365.33" y="1162" text-anchor="middle">0.07</text>
<line class="grid" x1="513.00" y1="912" x2="513.00" y2="1142"/>
<text class="label" x="513.00" y="1162" text-anchor="middle">0.25</text>
<line class="grid" x1="660.67" y1="912" x2="660.67" y2="1142"/>
<text class="label" x="660.67" y="1162" text-anchor="middle">0.42</text>
<line class="grid" x1="808.33" y1="912" x2="808.33" y2="1142"/>
<text class="label" x="808.33" y="1162" text-anchor="middle">0.60</text>
<line class="grid" x1="956.00" y1="912" x2="956.00" y2="1142"/>
<text class="label" x="956.00" y="1162" text-anchor="middle">0.77</text>
<line x1="305.33" y1="912" x2="305.33" y2="1142" stroke="#20242a" stroke-width="1.2" opacity="0.55"/>
<line x1="344.28" y1="912" x2="344.28" y2="1142" stroke="#6b7280" stroke-width="1.2" opacity="0.55"/>
<line x1="467.80" y1="912" x2="467.80" y2="1142" stroke="#6b7280" stroke-width="1.2" opacity="0.55"/>
<line x1="470.07" y1="912" x2="470.07" y2="1142" stroke="#1769aa" stroke-width="1.2" opacity="0.55"/>
<line x1="602.98" y1="912" x2="602.98" y2="1142" stroke="#c94f2d" stroke-width="1.2" opacity="0.55"/>
<path d="M 96.26,1061.48 L 103.85,1061.55 L 113.80,1061.94 L 121.93,1061.88 L 128.79,1062.34 L 141.63,1073.32 L 145.78,1073.08 L 155.36,1072.27 L 167.41,1070.75 L 172.53,1068.99 L 180.37,1069.79 L 187.98,1067.30 L 207.16,1065.67 L 213.90,1064.26 L 221.69,1059.86 L 230.79,1059.19 L 239.91,1059.21 L 246.90,1059.51 L 255.56,1059.72 L 264.38,1060.45 L 272.16,1060.69 L 283.72,1061.00 L 292.09,1062.97 L 297.88,1064.83 L 307.22,1066.90 L 314.63,1066.41 L 324.82,1067.57 L 331.60,1066.54 L 339.66,1065.21 L 349.67,1103.27 L 357.01,1111.55 L 365.90,1119.56 L 373.69,1119.74 L 382.00,1103.18 L 392.34,1088.00 L 399.18,1083.85 L 425.60,1073.91 L 440.93,1043.75 L 461.50,1047.07 L 466.65,1049.46 L 476.19,1052.31 L 483.45,1055.36 L 501.85,1059.90 L 508.90,1061.78 L 517.50,1063.03 L 525.61,1063.15 L 533.77,1063.03 L 551.95,1044.41 L 559.91,1043.62 L 570.68,1043.56 L 576.99,1043.40 L 593.08,969.99 L 602.98,934.26 L 613.18,940.51 L 618.62,969.46 L 629.21,984.69 L 634.96,998.54 L 644.12,1031.45 L 660.16,1063.20 L 670.28,1071.76 L 677.46,1067.11 L 686.28,1058.97 L 696.71,1054.91 L 702.51,998.35 L 711.16,996.34 L 719.20,999.56 L 728.42,1032.97 L 736.69,1046.20 L 745.01,1074.29 L 752.95,1082.91 L 761.46,1086.98 L 780.25,1018.46 L 787.52,1044.55 L 804.25,1040.40 L 811.87,1043.48 L 821.90,1052.10 L 829.25,1061.44 L 839.87,1067.75 L 845.88,1069.45 L 854.81,1067.75 L 863.48,1064.66 L 871.68,1061.99 L 880.56,1059.20 L 888.32,1058.04 L 898.69,1058.41 L 906.38,1059.44 L 913.83,1060.41 L 930.31,1061.56" fill="none" stroke="#c94f2d" stroke-width="2"/>
<path d="M 96.26,1060.15 L 103.85,1060.15 L 113.80,1060.15 L 121.93,1060.15 L 128.79,1060.15 L 141.63,1060.15 L 145.78,1060.15 L 155.36,1060.15 L 167.41,1060.15 L 172.53,1060.15 L 180.37,1060.15 L 187.98,1060.15 L 207.16,1060.15 L 213.90,1060.15 L 221.69,1060.15 L 230.79,1060.15 L 239.91,1060.15 L 246.90,1060.15 L 255.56,1060.15 L 264.38,1060.15 L 272.16,1060.15 L 283.72,1060.15 L 292.09,1060.15 L 297.88,1060.15 L 307.22,1060.15 L 314.63,1060.15 L 324.82,1060.15 L 331.60,1060.15 L 339.66,1060.15 L 349.67,1060.15 L 357.01,1060.15 L 365.90,1060.15 L 373.69,1060.15 L 382.00,1060.15 L 392.34,1060.15 L 399.18,1060.15 L 425.60,1060.15 L 440.93,1060.15 L 461.50,1060.15 L 466.65,1060.15 L 476.19,1060.15 L 483.45,1060.15 L 501.85,1060.15 L 508.90,1060.15 L 517.50,1060.15 L 525.61,1060.15 L 533.77,1060.15 L 551.95,1060.15 L 559.91,1060.15 L 570.68,1060.15 L 576.99,1060.15 L 593.08,1060.15 L 602.98,1060.15 L 613.18,1060.15 L 618.62,1060.15 L 629.21,1060.15 L 634.96,1060.15 L 644.12,1060.15 L 660.16,1060.15 L 670.28,1060.15 L 677.46,1060.15 L 686.28,1060.15 L 696.71,1060.15 L 702.51,1060.15 L 711.16,1060.15 L 719.20,1060.15 L 728.42,1060.15 L 736.69,1060.15 L 745.01,1060.15 L 752.95,1060.15 L 761.46,1060.15 L 780.25,1060.15 L 787.52,1060.15 L 804.25,1060.15 L 811.87,1060.15 L 821.90,1060.15 L 829.25,1060.15 L 839.87,1060.15 L 845.88,1060.15 L 854.81,1060.15 L 863.48,1060.15 L 871.68,1060.15 L 880.56,1060.15 L 888.32,1060.15 L 898.69,1060.15 L 906.38,1060.15 L 913.83,1060.15 L 930.31,1060.15" fill="none" stroke="#8a94a3" stroke-width="2" stroke-dasharray="6 4"/>
<line class="axis" x1="70" y1="1142" x2="956" y2="1142"/>
<line class="axis" x1="70" y1="912" x2="70" y2="1142"/>
<text class="label" x="18" y="1027.00" transform="rotate(-90 18 1027.00)" text-anchor="middle">degrees</text>
<text class="label" x="513.0" y="1178" text-anchor="middle">time relative to event (s)</text>
</svg>