<svg xmlns="http://www.w3.org/2000/svg" viewBox="0 0 980 1186" role="img">
<style>
.axis{stroke:#718096;stroke-width:1}.grid{stroke:#e5eaf0;stroke-width:1}.label{font:12px sans-serif;fill:#5a6675}.title{font:700 18px sans-serif;fill:#20242a}.subtitle{font:12px sans-serif;fill:#5a6675}.panel-title{font:700 13px sans-serif;fill:#20242a}
</style>
<rect width="980" height="1186" fill="#ffffff"/>
<text class="title" x="70" y="28">Motion disturbance example 5: event 231</text>
<text class="subtitle" x="70" y="50">Start pitch -6.0 deg, yaw -3.1 deg; target motion 4.4 deg; disturbance vector 2.80 deg.</text>
<line x1="70" y1="76" x2="94" y2="76" stroke="#48525f" stroke-width="2" stroke-dasharray="6 4"/>
<text class="label" x="100" y="80">target</text>
<line x1="200" y1="76" x2="224" y2="76" stroke="#1769aa" stroke-width="2"/>
<text class="label" x="230" y="80">pitch actual</text>
<line x1="338" y1="76" x2="362" y2="76" stroke="#c94f2d" stroke-width="2"/>
<text class="label" x="368" y="80">yaw actual</text>
<line x1="468" y1="76" x2="492" y2="76" stroke="#1769aa" stroke-width="2"/>
<text class="label" x="498" y="80">pitch disturbance</text>
<line x1="641" y1="76" x2="665" y2="76" stroke="#8a94a3" stroke-width="2" stroke-dasharray="6 4"/>
<text class="label" x="671" y="80">zero baseline</text>
<line x1="786" y1="76" x2="810" y2="76" stroke="#c94f2d" stroke-width="2"/>
<text class="label" x="816" y="80">yaw disturbance</text>
<text class="panel-title" x="70" y="96">Pitch position</text>
<line class="grid" x1="70" y1="338.00" x2="956" y2="338.00"/>
<text class="label" x="62" y="342.00" text-anchor="end">-10.5</text>
<line class="grid" x1="70" y1="280.50" x2="956" y2="280.50"/>
<text class="label" x="62" y="284.50" text-anchor="end">-9.2</text>
<line class="grid" x1="70" y1="223.00" x2="956" y2="223.00"/>
<text class="label" x="62" y="227.00" text-anchor="end">-8.0</text>
<line class="grid" x1="70" y1="165.50" x2="956" y2="165.50"/>
<text class="label" x="62" y="169.50" text-anchor="end">-6.7</text>
<line class="grid" x1="70" y1="108.00" x2="956" y2="108.00"/>
<text class="label" x="62" y="112.00" text-anchor="end">-5.5</text>
<line class="grid" x1="70.00" y1="108" x2="70.00" y2="338"/>
<line class="grid" x1="217.67" y1="108" x2="217.67" y2="338"/>
<line class="grid" x1="365.33" y1="108" x2="365.33" y2="338"/>
<line class="grid" x1="513.00" y1="108" x2="513.00" y2="338"/>
<line class="grid" x1="660.67" y1="108" x2="660.67" y2="338"/>
<line class="grid" x1="808.33" y1="108" x2="808.33" y2="338"/>
<line class="grid" x1="956.00" y1="108" x2="956.00" y2="338"/>
<line x1="298.74" y1="108" x2="298.74" y2="338" stroke="#20242a" stroke-width="1.2" opacity="0.55"/>
<text class="label" x="302.74" y="120.00" transform="rotate(-35 302.74 120.00)">fire</text>
<line x1="332.51" y1="108" x2="332.51" y2="338" stroke="#6b7280" stroke-width="1.2" opacity="0.55"/>
<text class="label" x="336.51" y="120.00" transform="rotate(-35 336.51 120.00)">muzzle</text>
<line x1="559.65" y1="108" x2="559.65" y2="338" stroke="#6b7280" stroke-width="1.2" opacity="0.55"/>
<text class="label" x="563.65" y="120.00" transform="rotate(-35 563.65 120.00)">impact</text>
<line x1="441.49" y1="108" x2="441.49" y2="338" stroke="#1769aa" stroke-width="1.2" opacity="0.55"/>
<text class="label" x="445.49" y="120.00" transform="rotate(-35 445.49 120.00)">pitch peak</text>
<line x1="408.06" y1="108" x2="408.06" y2="338" stroke="#c94f2d" stroke-width="1.2" opacity="0.55"/>
<text class="label" x="412.06" y="120.00" transform="rotate(-35 412.06 120.00)">yaw peak</text>
<path d="M 95.08,133.30 L 103.28,133.30 L 112.06,133.30 L 122.55,133.30 L 128.57,133.29 L 137.20,133.29 L 145.37,133.29 L 157.05,133.29 L 162.55,133.29 L 171.03,133.29 L 180.27,133.29 L 187.96,133.29 L 196.93,133.29 L 205.00,133.29 L 213.01,133.29 L 222.27,133.29 L 230.25,133.29 L 238.60,133.29 L 247.15,133.29 L 255.28,133.29 L 263.92,133.29 L 272.05,133.29 L 281.14,133.29 L 289.35,133.29 L 299.35,133.29 L 306.23,133.28 L 314.34,133.28 L 324.53,133.28 L 331.57,133.28 L 339.80,133.28 L 348.56,133.28 L 356.67,133.27 L 366.08,133.27 L 373.98,133.27 L 382.17,133.27 L 390.70,133.27 L 399.06,133.27 L 408.53,315.74 L 421.42,315.74 L 427.03,315.74 L 435.53,315.74 L 441.49,315.74 L 453.42,315.74 L 460.61,315.74 L 468.01,315.74 L 476.14,315.74 L 483.40,315.74 L 492.31,315.74 L 502.47,315.74 L 508.96,315.74 L 517.82,315.74 L 525.85,315.74 L 543.64,285.84 L 551.26,285.84 L 560.06,280.80 L 567.90,279.41 L 579.24,277.86 L 585.45,276.18 L 593.43,276.18 L 602.05,276.25 L 611.81,275.08 L 619.34,276.36 L 628.80,275.20 L 635.44,275.20 L 644.35,277.90 L 652.22,277.90 L 661.21,277.90 L 670.87,277.90 L 679.37,277.90 L 687.31,273.96 L 695.20,273.96 L 703.34,273.96 L 712.83,273.96 L 719.99,273.96 L 729.07,273.96 L 737.43,273.96 L 746.37,273.96 L 755.49,273.96 L 763.30,273.96 L 771.40,265.36 L 779.44,264.01 L 787.61,264.01 L 796.57,264.01 L 804.71,264.01 L 813.49,264.01 L 821.38,264.01 L 831.98,264.01 L 839.77,264.01 L 846.88,264.01 L 855.11,264.01 L 864.26,264.01 L 872.20,264.01 L 880.74,264.01 L 888.67,264.01 L 897.26,264.01 L 905.61,264.01 L 914.45,264.01 L 922.66,264.01 L 930.92,264.01" fill="none" stroke="#48525f" stroke-width="2" stroke-dasharray="6 4"/>
<path d="M 95.08,130.26 L 103.28,130.75 L 112.06,131.17 L 122.55,131.50 L 128.57,131.74 L 137.20,131.99 L 145.37,132.24 L 157.05,132.49 L 162.55,132.57 L 171.03,132.74 L 180.27,132.90 L 187.96,132.98 L 196.93,133.07 L 205.00,133.15 L 213.01,133.15 L 222.27,133.23 L 230.25,133.31 L 238.60,133.31 L 247.15,133.40 L 255.28,133.40 L 263.92,133.40 L 272.05,133.48 L 281.14,133.48 L 289.35,133.48 L 299.35,133.48 L 306.23,133.48 L 314.34,133.56 L 324.53,133.56 L 331.57,133.56 L 339.80,167.10 L 348.56,195.26 L 356.67,188.49 L 366.08,190.56 L 373.98,178.91 L 382.17,175.28 L 390.70,182.79 L 399.06,200.88 L 408.53,224.09 L 421.42,229.71 L 427.03,224.92 L 435.53,216.16 L 441.49,214.10 L 453.42,218.89 L 460.61,232.02 L 468.01,243.59 L 476.14,253.99 L 483.40,267.46 L 492.31,282.49 L 502.47,294.80 L 508.96,302.65 L 517.82,306.78 L 525.85,308.59 L 543.64,307.02 L 551.26,307.11 L 560.06,308.01 L 567.90,307.68 L 579.24,305.21 L 585.45,301.24 L 593.43,297.03 L 602.05,292.90 L 611.81,289.26 L 619.34,286.46 L 628.80,284.39 L 635.44,283.15 L 644.35,282.33 L 652.22,281.42 L 661.21,280.67 L 670.87,280.18 L 679.37,280.01 L 687.31,279.76 L 695.20,279.43 L 703.34,278.94 L 712.83,278.44 L 719.99,277.78 L 729.07,277.12 L 737.43,276.46 L 746.37,275.88 L 755.49,275.39 L 763.30,275.06 L 771.40,274.73 L 779.44,274.23 L 787.61,273.40 L 796.57,272.17 L 804.71,270.76 L 813.49,269.27 L 821.38,267.87 L 831.98,266.71 L 839.77,265.89 L 846.88,265.31 L 855.11,264.98 L 864.26,264.65 L 872.20,264.48 L 880.74,264.32 L 888.67,264.24 L 897.26,264.07 L 905.61,263.99 L 914.45,263.91 L 922.66,263.82 L 930.92,263.74" fill="none" stroke="#1769aa" stroke-width="2"/>
<line class="axis" x1="70" y1="338" x2="956" y2="338"/>
<line class="axis" x1="70" y1="108" x2="70" y2="338"/>
<text class="label" x="18" y="223.00" transform="rotate(-90 18 223.00)" text-anchor="middle">degrees</text>
<text class="panel-title" x="70" y="364">Yaw position</text>
<line class="grid" x1="70" y1="606.00" x2="956" y2="606.00"/>
<text class="label" x="62" y="610.00" text-anchor="end">-5.1</text>
<line class="grid" x1="70" y1="548.50" x2="956" y2="548.50"/>
<text class="label" x="62" y="552.50" text-anchor="end">-4.5</text>
<line class="grid" x1="70" y1="491.00" x2="956" y2="491.00"/>
<text class="label" x="62" y="495.00" text-anchor="end">-3.9</text>
<line class="grid" x1="70" y1="433.50" x2="956" y2="433.50"/>
<text class="label" x="62" y="437.50" text-anchor="end">-3.3</text>
<line class="grid" x1="70" y1="376.00" x2="956" y2="376.00"/>
<text class="label" x="62" y="380.00" text-anchor="end">-2.7</text>
<line class="grid" x1="70.00" y1="376" x2="70.00" y2="606"/>
<line class="grid" x1="217.67" y1="376" x2="217.67" y2="606"/>
<line class="grid" x1="365.33" y1="376" x2="365.33" y2="606"/>
<line class="grid" x1="513.00" y1="376" x2="513.00" y2="606"/>
<line class="grid" x1="660.67" y1="376" x2="660.67" y2="606"/>
<line class="grid" x1="808.33" y1="376" x2="808.33" y2="606"/>
<line class="grid" x1="956.00" y1="376" x2="956.00" y2="606"/>
<line x1="298.74" y1="376" x2="298.74" y2="606" stroke="#20242a" stroke-width="1.2" opacity="0.55"/>
<line x1="332.51" y1="376" x2="332.51" y2="606" stroke="#6b7280" stroke-width="1.2" opacity="0.55"/>
<line x1="559.65" y1="376" x2="559.65" y2="606" stroke="#6b7280" stroke-width="1.2" opacity="0.55"/>
<line x1="441.49" y1="376" x2="441.49" y2="606" stroke="#1769aa" stroke-width="1.2" opacity="0.55"/>
<line x1="408.06" y1="376" x2="408.06" y2="606" stroke="#c94f2d" stroke-width="1.2" opacity="0.55"/>
<path d="M 95.66,406.73 L 103.78,406.76 L 114.47,406.76 L 120.57,406.77 L 128.96,406.78 L 137.78,406.78 L 145.78,406.78 L 154.20,406.78 L 163.80,406.80 L 171.43,406.80 L 179.75,406.80 L 187.59,406.80 L 196.34,406.80 L 206.64,406.80 L 213.46,406.80 L 221.73,406.80 L 229.85,406.80 L 239.08,406.80 L 248.92,406.80 L 255.68,406.80 L 264.51,406.80 L 272.42,406.80 L 282.49,406.80 L 291.09,406.80 L 297.83,406.80 L 306.77,406.92 L 314.80,406.92 L 326.58,406.92 L 331.99,406.92 L 340.73,406.92 L 349.26,406.92 L 357.20,406.95 L 367.49,406.95 L 375.43,406.96 L 382.97,406.96 L 391.31,406.96 L 400.25,406.96 L 408.06,567.84 L 417.52,569.79 L 424.75,569.79 L 433.42,572.21 L 442.97,573.66 L 450.60,573.66 L 459.77,575.66 L 466.66,575.66 L 475.49,577.55 L 483.81,579.46 L 501.20,581.75 L 510.06,581.75 L 518.39,583.74 L 525.46,583.74 L 536.31,583.74 L 543.18,581.62 L 552.46,581.62 L 560.52,578.64 L 568.86,579.74 L 577.50,575.65 L 586.70,576.74 L 595.04,578.03 L 602.56,567.96 L 610.58,568.42 L 619.79,563.39 L 627.74,563.68 L 636.64,563.68 L 644.97,563.88 L 652.61,563.88 L 662.31,563.88 L 669.23,563.88 L 677.50,563.88 L 686.80,564.97 L 694.70,564.97 L 704.80,564.97 L 711.63,564.97 L 720.53,564.97 L 728.60,564.97 L 736.98,564.97 L 745.20,564.97 L 754.17,564.97 L 762.12,564.97 L 770.97,567.37 L 779.94,567.74 L 797.12,567.74 L 805.12,567.74 L 813.04,567.74 L 821.84,567.74 L 830.50,567.74 L 838.67,567.74 L 847.38,567.74 L 855.59,567.74 L 863.75,567.74 L 873.79,567.74 L 881.67,567.74 L 889.17,567.74 L 897.98,567.74 L 906.27,567.74 L 916.87,567.74 L 924.30,567.74" fill="none" stroke="#48525f" stroke-width="2" stroke-dasharray="6 4"/>
<path d="M 95.66,407.15 L 103.78,406.97 L 114.47,406.97 L 120.57,406.97 L 128.96,406.97 L 137.78,406.97 L 145.78,406.97 L 154.20,406.97 L 163.80,407.33 L 171.43,407.33 L 179.75,407.15 L 187.59,406.97 L 196.34,406.97 L 206.64,406.79 L 213.46,406.79 L 221.73,406.79 L 229.85,406.79 L 239.08,406.79 L 248.92,406.79 L 255.68,406.79 L 264.51,406.97 L 272.42,406.97 L 282.49,406.79 L 291.09,406.79 L 297.83,406.79 L 306.77,406.79 L 314.80,406.79 L 326.58,406.79 L 331.99,406.79 L 340.73,470.28 L 349.26,498.02 L 357.20,559.90 L 367.49,542.65 L 375.43,499.79 L 382.97,460.14 L 391.31,413.20 L 400.25,399.68 L 408.06,398.26 L 417.52,407.86 L 424.75,420.49 L 433.42,458.18 L 442.97,493.57 L 450.60,521.67 L 459.77,549.05 L 466.66,569.32 L 475.49,578.39 L 483.81,579.28 L 501.20,575.19 L 510.06,573.59 L 518.39,570.21 L 525.46,569.50 L 536.31,571.28 L 543.18,574.66 L 552.46,577.32 L 560.52,578.75 L 568.86,579.64 L 577.50,581.24 L 586.70,581.24 L 595.04,580.53 L 602.56,579.99 L 610.58,579.46 L 619.79,576.97 L 627.74,574.30 L 636.64,571.63 L 644.97,569.68 L 652.61,568.43 L 662.31,567.37 L 669.23,566.48 L 677.50,565.59 L 686.80,564.70 L 694.70,564.52 L 704.80,564.52 L 711.63,564.70 L 720.53,564.70 L 728.60,564.70 L 736.98,564.70 L 745.20,564.88 L 754.17,564.88 L 762.12,564.88 L 770.97,564.88 L 779.94,565.23 L 797.12,565.59 L 805.12,565.77 L 813.04,565.94 L 821.84,566.30 L 830.50,566.48 L 838.67,566.66 L 847.38,566.66 L 855.59,566.83 L 863.75,567.01 L 873.79,567.01 L 881.67,567.19 L 889.17,567.37 L 897.98,567.37 L 906.27,567.54 L 916.87,567.72 L 924.30,567.72" fill="none" stroke="#c94f2d" stroke-width="2"/>
<line class="axis" x1="70" y1="606" x2="956" y2="606"/>
<line class="axis" x1="70" y1="376" x2="70" y2="606"/>
<text class="label" x="18" y="491.00" transform="rotate(-90 18 491.00)" text-anchor="middle">degrees</text>
<text class="panel-title" x="70" y="632">Pitch disturbance while moving</text>
<line class="grid" x1="70" y1="874.00" x2="956" y2="874.00"/>
<text class="label" x="62" y="878.00" text-anchor="end">-1.9</text>
<line class="grid" x1="70" y1="816.50" x2="956" y2="816.50"/>
<text class="label" x="62" y="820.50" text-anchor="end">-0.8</text>
<line class="grid" x1="70" y1="759.00" x2="956" y2="759.00"/>
<text class="label" x="62" y="763.00" text-anchor="end">0.4</text>
<line class="grid" x1="70" y1="701.50" x2="956" y2="701.50"/>
<text class="label" x="62" y="705.50" text-anchor="end">1.5</text>
<line class="grid" x1="70" y1="644.00" x2="956" y2="644.00"/>
<text class="label" x="62" y="648.00" text-anchor="end">2.7</text>
<line class="grid" x1="70.00" y1="644" x2="70.00" y2="874"/>
<line class="grid" x1="217.67" y1="644" x2="217.67" y2="874"/>
<line class="grid" x1="365.33" y1="644" x2="365.33" y2="874"/>
<line class="grid" x1="513.00" y1="644" x2="513.00" y2="874"/>
<line class="grid" x1="660.67" y1="644" x2="660.67" y2="874"/>
<line class="grid" x1="808.33" y1="644" x2="808.33" y2="874"/>
<line class="grid" x1="956.00" y1="644" x2="956.00" y2="874"/>
<line x1="298.74" y1="644" x2="298.74" y2="874" stroke="#20242a" stroke-width="1.2" opacity="0.55"/>
<line x1="332.51" y1="644" x2="332.51" y2="874" stroke="#6b7280" stroke-width="1.2" opacity="0.55"/>
<line x1="559.65" y1="644" x2="559.65" y2="874" stroke="#6b7280" stroke-width="1.2" opacity="0.55"/>
<line x1="441.49" y1="644" x2="441.49" y2="874" stroke="#1769aa" stroke-width="1.2" opacity="0.55"/>
<line x1="408.06" y1="644" x2="408.06" y2="874" stroke="#c94f2d" stroke-width="1.2" opacity="0.55"/>
<path d="M 95.08,774.32 L 103.28,774.86 L 112.06,775.31 L 122.55,775.68 L 128.57,775.95 L 137.20,776.22 L 145.37,776.49 L 157.05,776.77 L 162.55,776.86 L 171.03,777.04 L 180.27,777.22 L 187.96,777.31 L 196.93,777.40 L 205.00,777.49 L 213.01,777.49 L 222.27,777.58 L 230.25,777.67 L 238.60,777.67 L 247.15,777.76 L 255.28,777.76 L 263.92,777.76 L 272.05,777.86 L 281.14,777.86 L 289.35,777.86 L 299.35,777.86 L 306.23,777.87 L 314.34,777.96 L 324.53,777.96 L 331.57,777.96 L 339.80,814.71 L 348.56,845.58 L 356.67,838.16 L 366.08,840.43 L 373.98,827.66 L 382.17,823.68 L 390.70,831.92 L 399.06,851.74 L 408.53,677.21 L 421.42,683.37 L 427.03,678.12 L 435.53,668.52 L 441.49,666.26 L 453.42,671.51 L 460.61,685.90 L 468.01,698.57 L 476.14,709.98 L 483.40,724.73 L 492.31,741.21 L 502.47,754.70 L 508.96,763.30 L 517.82,767.82 L 525.85,769.81 L 543.64,800.86 L 551.26,800.96 L 560.06,807.48 L 567.90,808.64 L 579.24,807.62 L 585.45,805.11 L 593.43,800.49 L 602.05,795.90 L 611.81,793.19 L 619.34,788.71 L 628.80,787.72 L 635.44,786.36 L 644.35,782.50 L 652.22,781.51 L 661.21,780.69 L 670.87,780.15 L 679.37,779.97 L 687.31,784.01 L 695.20,783.65 L 703.34,783.11 L 712.83,782.56 L 719.99,781.84 L 729.07,781.11 L 737.43,780.39 L 746.37,779.76 L 755.49,779.21 L 763.30,778.85 L 771.40,787.91 L 779.44,788.85 L 787.61,787.95 L 796.57,786.59 L 804.71,785.05 L 813.49,783.42 L 821.38,781.88 L 831.98,780.62 L 839.77,779.71 L 846.88,779.08 L 855.11,778.72 L 864.26,778.35 L 872.20,778.17 L 880.74,777.99 L 888.67,777.90 L 897.26,777.72 L 905.61,777.63 L 914.45,777.54 L 922.66,777.45 L 930.92,777.36" fill="none" stroke="#1769aa" stroke-width="2"/>
<path d="M 95.08,777.72 L 103.28,777.72 L 112.06,777.72 L 122.55,777.72 L 128.57,777.72 L 137.20,777.72 L 145.37,777.72 L 157.05,777.72 L 162.55,777.72 L 171.03,777.72 L 180.27,777.72 L 187.96,777.72 L 196.93,777.72 L 205.00,777.72 L 213.01,777.72 L 222.27,777.72 L 230.25,777.72 L 238.60,777.72 L 247.15,777.72 L 255.28,777.72 L 263.92,777.72 L 272.05,777.72 L 281.14,777.72 L 289.35,777.72 L 299.35,777.72 L 306.23,777.72 L 314.34,777.72 L 324.53,777.72 L 331.57,777.72 L 339.80,777.72 L 348.56,777.72 L 356.67,777.72 L 366.08,777.72 L 373.98,777.72 L 382.17,777.72 L 390.70,777.72 L 399.06,777.72 L 408.53,777.72 L 421.42,777.72 L 427.03,777.72 L 435.53,777.72 L 441.49,777.72 L 453.42,777.72 L 460.61,777.72 L 468.01,777.72 L 476.14,777.72 L 483.40,777.72 L 492.31,777.72 L 502.47,777.72 L 508.96,777.72 L 517.82,777.72 L 525.85,777.72 L 543.64,777.72 L 551.26,777.72 L 560.06,777.72 L 567.90,777.72 L 579.24,777.72 L 585.45,777.72 L 593.43,777.72 L 602.05,777.72 L 611.81,777.72 L 619.34,777.72 L 628.80,777.72 L 635.44,777.72 L 644.35,777.72 L 652.22,777.72 L 661.21,777.72 L 670.87,777.72 L 679.37,777.72 L 687.31,777.72 L 695.20,777.72 L 703.34,777.72 L 712.83,777.72 L 719.99,777.72 L 729.07,777.72 L 737.43,777.72 L 746.37,777.72 L 755.49,777.72 L 763.30,777.72 L 771.40,777.72 L 779.44,777.72 L 787.61,777.72 L 796.57,777.72 L 804.71,777.72 L 813.49,777.72 L 821.38,777.72 L 831.98,777.72 L 839.77,777.72 L 846.88,777.72 L 855.11,777.72 L 864.26,777.72 L 872.20,777.72 L 880.74,777.72 L 888.67,777.72 L 897.26,777.72 L 905.61,777.72 L 914.45,777.72 L 922.66,777.72 L 930.92,777.72" fill="none" stroke="#8a94a3" stroke-width="2" stroke-dasharray="6 4"/>
<line class="axis" x1="70" y1="874" x2="956" y2="874"/>
<line class="axis" x1="70" y1="644" x2="70" y2="874"/>
<text class="label" x="18" y="759.00" transform="rotate(-90 18 759.00)" text-anchor="middle">degrees</text>
<text class="panel-title" x="70" y="900">Yaw disturbance while moving</text>
<line class="grid" x1="70" y1="1142.00" x2="956" y2="1142.00"/>
<text class="label" x="62" y="1146.00" text-anchor="end">-1.9</text>
<line class="grid" x1="70" y1="1084.50" x2="956" y2="1084.50"/>
<text class="label" x="62" y="1088.50" text-anchor="end">-0.9</text>
<line class="grid" x1="70" y1="1027.00" x2="956" y2="1027.00"/>
<text class="label" x="62" y="1031.00" text-anchor="end">0.1</text>
<line class="grid" x1="70" y1="969.50" x2="956" y2="969.50"/>
<text class="label" x="62" y="973.50" text-anchor="end">1.1</text>
<line class="grid" x1="70" y1="912.00" x2="956" y2="912.00"/>
<text class="label" x="62" y="916.00" text-anchor="end">2.1</text>
<line class="grid" x1="70.00" y1="912" x2="70.00" y2="1142"/>
<text class="label" x="70.00" y="1162" text-anchor="middle">-0.27</text>
<line class="grid" x1="217.67" y1="912" x2="217.67" y2="1142"/>
<text class="label" x="217.67" y="1162" text-anchor="middle">-0.10</text>
<line class="grid" x1="365.33" y1="912" x2="365.33" y2="1142"/>
<text class="label" x="365.33" y="1162" text-anchor="middle">0.08</text>
<line class="grid" x1="513.00" y1="912" x2="513.00" y2="1142"/>
<text class="label" x="513.00" y="1162" text-anchor="middle">0.25</text>
<line class="grid" x1="660.67" y1="912" x2="660.67" y2="1142"/>
<text class="label" x="660.67" y="1162" text-anchor="middle">0.43</text>
<line class="grid" x1="808.33" y1="912" x2="808.33" y2="1142"/>
<text class="label" x="808.33" y="1162" text-anchor="middle">0.60</text>
<line class="grid" x1="956.00" y1="912" x2="956.00" y2="1142"/>
<text class="label" x="956.00" y="1162" text-anchor="middle">0.78</text>
<line x1="298.74" y1="912" x2="298.74" y2="1142" stroke="#20242a" stroke-width="1.2" opacity="0.55"/>
<line x1="332.51" y1="912" x2="332.51" y2="1142" stroke="#6b7280" stroke-width="1.2" opacity="0.55"/>
<line x1="559.65" y1="912" x2="559.65" y2="1142" stroke="#6b7280" stroke-width="1.2" opacity="0.55"/>
<line x1="441.49" y1="912" x2="441.49" y2="1142" stroke="#1769aa" stroke-width="1.2" opacity="0.55"/>
<line x1="408.06" y1="912" x2="408.06" y2="1142" stroke="#c94f2d" stroke-width="1.2" opacity="0.55"/>
<path d="M 95.66,1032.02 L 103.78,1031.91 L 114.47,1031.91 L 120.57,1031.90 L 128.96,1031.90 L 137.78,1031.90 L 145.78,1031.90 L 154.20,1031.90 L 163.80,1032.08 L 171.43,1032.08 L 179.75,1031.98 L 187.59,1031.88 L 196.34,1031.88 L 206.64,1031.78 L 213.46,1031.78 L 221.73,1031.78 L 229.85,1031.78 L 239.08,1031.78 L 248.92,1031.78 L 255.68,1031.78 L 264.51,1031.88 L 272.42,1031.88 L 282.49,1031.78 L 291.09,1031.78 L 297.83,1031.78 L 306.77,1031.71 L 314.80,1031.71 L 326.58,1031.71 L 331.99,1031.71 L 340.73,1068.22 L 349.26,1084.17 L 357.20,1119.74 L 367.49,1109.82 L 375.43,1085.17 L 382.97,1062.36 L 391.31,1035.37 L 400.25,1027.59 L 408.06,934.26 L 417.52,938.66 L 424.75,945.92 L 433.42,966.21 L 442.97,985.73 L 450.60,1001.88 L 459.77,1016.48 L 466.66,1028.14 L 475.49,1032.27 L 483.81,1031.68 L 501.20,1028.01 L 510.06,1027.09 L 518.39,1024.00 L 525.46,1023.59 L 536.31,1024.62 L 543.18,1027.78 L 552.46,1029.31 L 560.52,1031.85 L 568.86,1031.73 L 577.50,1035.00 L 586.70,1034.37 L 595.04,1033.22 L 602.56,1038.70 L 610.58,1038.13 L 619.79,1039.59 L 627.74,1037.89 L 636.64,1036.36 L 644.97,1035.12 L 652.61,1034.40 L 662.31,1033.79 L 669.23,1033.28 L 677.50,1032.77 L 686.80,1031.63 L 694.70,1031.52 L 704.80,1031.52 L 711.63,1031.63 L 720.53,1031.63 L 728.60,1031.63 L 736.98,1031.63 L 745.20,1031.73 L 754.17,1031.73 L 762.12,1031.73 L 770.97,1030.35 L 779.94,1030.34 L 797.12,1030.54 L 805.12,1030.65 L 813.04,1030.75 L 821.84,1030.95 L 830.50,1031.06 L 838.67,1031.16 L 847.38,1031.16 L 855.59,1031.26 L 863.75,1031.36 L 873.79,1031.36 L 881.67,1031.47 L 889.17,1031.57 L 897.98,1031.57 L 906.27,1031.67 L 916.87,1031.77 L 924.30,1031.77" fill="none" stroke="#c94f2d" stroke-width="2"/>
<path d="M 95.66,1031.78 L 103.78,1031.78 L 114.47,1031.78 L 120.57,1031.78 L 128.96,1031.78 L 137.78,1031.78 L 145.78,1031.78 L 154.20,1031.78 L 163.80,1031.78 L 171.43,1031.78 L 179.75,1031.78 L 187.59,1031.78 L 196.34,1031.78 L 206.64,1031.78 L 213.46,1031.78 L 221.73,1031.78 L 229.85,1031.78 L 239.08,1031.78 L 248.92,1031.78 L 255.68,1031.78 L 264.51,1031.78 L 272.42,1031.78 L 282.49,1031.78 L 291.09,1031.78 L 297.83,1031.78 L 306.77,1031.78 L 314.80,1031.78 L 326.58,1031.78 L 331.99,1031.78 L 340.73,1031.78 L 349.26,1031.78 L 357.20,1031.78 L 367.49,1031.78 L 375.43,1031.78 L 382.97,1031.78 L 391.31,1031.78 L 400.25,1031.78 L 408.06,1031.78 L 417.52,1031.78 L 424.75,1031.78 L 433.42,1031.78 L 442.97,1031.78 L 450.60,1031.78 L 459.77,1031.78 L 466.66,1031.78 L 475.49,1031.78 L 483.81,1031.78 L 501.20,1031.78 L 510.06,1031.78 L 518.39,1031.78 L 525.46,1031.78 L 536.31,1031.78 L 543.18,1031.78 L 552.46,1031.78 L 560.52,1031.78 L 568.86,1031.78 L 577.50,1031.78 L 586.70,1031.78 L 595.04,1031.78 L 602.56,1031.78 L 610.58,1031.78 L 619.79,1031.78 L 627.74,1031.78 L 636.64,1031.78 L 644.97,1031.78 L 652.61,1031.78 L 662.31,1031.78 L 669.23,1031.78 L 677.50,1031.78 L 686.80,1031.78 L 694.70,1031.78 L 704.80,1031.78 L 711.63,1031.78 L 720.53,1031.78 L 728.60,1031.78 L 736.98,1031.78 L 745.20,1031.78 L 754.17,1031.78 L 762.12,1031.78 L 770.97,1031.78 L 779.94,1031.78 L 797.12,1031.78 L 805.12,1031.78 L 813.04,1031.78 L 821.84,1031.78 L 830.50,1031.78 L 838.67,1031.78 L 847.38,1031.78 L 855.59,1031.78 L 863.75,1031.78 L 873.79,1031.78 L 881.67,1031.78 L 889.17,1031.78 L 897.98,1031.78 L 906.27,1031.78 L 916.87,1031.78 L 924.30,1031.78" fill="none" stroke="#8a94a3" stroke-width="2" stroke-dasharray="6 4"/>
<line class="axis" x1="70" y1="1142" x2="956" y2="1142"/>
<line class="axis" x1="70" y1="912" x2="70" y2="1142"/>
<text class="label" x="18" y="1027.00" transform="rotate(-90 18 1027.00)" text-anchor="middle">degrees</text>
<text class="label" x="513.0" y="1178" text-anchor="middle">time relative to event (s)</text>
</svg>