<svg xmlns="http://www.w3.org/2000/svg" viewBox="0 0 980 1186" role="img">
<style>
.axis{stroke:#718096;stroke-width:1}.grid{stroke:#e5eaf0;stroke-width:1}.label{font:12px sans-serif;fill:#5a6675}.title{font:700 18px sans-serif;fill:#20242a}.subtitle{font:12px sans-serif;fill:#5a6675}.panel-title{font:700 13px sans-serif;fill:#20242a}
</style>
<rect width="980" height="1186" fill="#ffffff"/>
<text class="title" x="70" y="28">Motion disturbance example 6: event 165</text>
<text class="subtitle" x="70" y="50">Start pitch 7.8 deg, yaw -2.6 deg; target motion 4.0 deg; disturbance vector 0.50 deg.</text>
<line x1="70" y1="76" x2="94" y2="76" stroke="#48525f" stroke-width="2" stroke-dasharray="6 4"/>
<text class="label" x="100" y="80">target</text>
<line x1="200" y1="76" x2="224" y2="76" stroke="#1769aa" stroke-width="2"/>
<text class="label" x="230" y="80">pitch actual</text>
<line x1="338" y1="76" x2="362" y2="76" stroke="#c94f2d" stroke-width="2"/>
<text class="label" x="368" y="80">yaw actual</text>
<line x1="468" y1="76" x2="492" y2="76" stroke="#1769aa" stroke-width="2"/>
<text class="label" x="498" y="80">pitch disturbance</text>
<line x1="641" y1="76" x2="665" y2="76" stroke="#8a94a3" stroke-width="2" stroke-dasharray="6 4"/>
<text class="label" x="671" y="80">zero baseline</text>
<line x1="786" y1="76" x2="810" y2="76" stroke="#c94f2d" stroke-width="2"/>
<text class="label" x="816" y="80">yaw disturbance</text>
<text class="panel-title" x="70" y="96">Pitch position</text>
<line class="grid" x1="70" y1="338.00" x2="956" y2="338.00"/>
<text class="label" x="62" y="342.00" text-anchor="end">5.6</text>
<line class="grid" x1="70" y1="280.50" x2="956" y2="280.50"/>
<text class="label" x="62" y="284.50" text-anchor="end">7.1</text>
<line class="grid" x1="70" y1="223.00" x2="956" y2="223.00"/>
<text class="label" x="62" y="227.00" text-anchor="end">8.6</text>
<line class="grid" x1="70" y1="165.50" x2="956" y2="165.50"/>
<text class="label" x="62" y="169.50" text-anchor="end">10.1</text>
<line class="grid" x1="70" y1="108.00" x2="956" y2="108.00"/>
<text class="label" x="62" y="112.00" text-anchor="end">11.6</text>
<line class="grid" x1="70.00" y1="108" x2="70.00" y2="338"/>
<line class="grid" x1="217.67" y1="108" x2="217.67" y2="338"/>
<line class="grid" x1="365.33" y1="108" x2="365.33" y2="338"/>
<line class="grid" x1="513.00" y1="108" x2="513.00" y2="338"/>
<line class="grid" x1="660.67" y1="108" x2="660.67" y2="338"/>
<line class="grid" x1="808.33" y1="108" x2="808.33" y2="338"/>
<line class="grid" x1="956.00" y1="108" x2="956.00" y2="338"/>
<line x1="302.79" y1="108" x2="302.79" y2="338" stroke="#20242a" stroke-width="1.2" opacity="0.55"/>
<text class="label" x="306.79" y="120.00" transform="rotate(-35 306.79 120.00)">fire</text>
<line x1="336.76" y1="108" x2="336.76" y2="338" stroke="#6b7280" stroke-width="1.2" opacity="0.55"/>
<text class="label" x="340.76" y="120.00" transform="rotate(-35 340.76 120.00)">muzzle</text>
<line x1="392.90" y1="108" x2="392.90" y2="338" stroke="#6b7280" stroke-width="1.2" opacity="0.55"/>
<text class="label" x="396.90" y="120.00" transform="rotate(-35 396.90 120.00)">impact</text>
<line x1="702.43" y1="108" x2="702.43" y2="338" stroke="#1769aa" stroke-width="1.2" opacity="0.55"/>
<text class="label" x="706.43" y="120.00" transform="rotate(-35 706.43 120.00)">pitch peak</text>
<line x1="711.69" y1="108" x2="711.69" y2="338" stroke="#c94f2d" stroke-width="1.2" opacity="0.55"/>
<text class="label" x="715.69" y="120.00" transform="rotate(-35 715.69 120.00)">yaw peak</text>
<path d="M 95.55,298.19 L 103.31,298.19 L 112.01,292.26 L 121.36,287.46 L 128.95,287.46 L 137.56,282.58 L 154.06,276.66 L 162.21,272.53 L 179.49,267.74 L 197.07,264.70 L 206.81,260.60 L 213.84,260.60 L 221.47,259.05 L 230.02,259.05 L 238.65,251.81 L 246.87,246.11 L 257.74,246.11 L 263.81,240.00 L 274.38,234.53 L 280.57,234.53 L 288.83,228.26 L 300.67,228.26 L 306.30,221.34 L 314.89,221.34 L 323.53,216.07 L 331.91,210.99 L 343.12,210.99 L 347.84,207.04 L 356.81,207.04 L 366.55,202.17 L 373.42,196.27 L 383.31,196.27 L 390.31,191.89 L 399.64,191.89 L 407.92,185.38 L 417.58,180.12 L 425.97,180.12 L 432.68,173.46 L 440.83,173.46 L 449.31,169.34 L 458.07,162.23 L 466.49,162.23 L 475.51,157.57 L 495.07,151.33 L 500.00,147.14 L 516.89,147.06 L 525.74,143.67 L 542.57,138.50 L 550.61,138.50 L 559.29,134.94 L 576.42,130.39 L 585.91,130.39 L 593.85,130.39 L 602.21,130.39 L 611.88,130.39 L 618.54,130.39 L 629.69,130.39 L 644.80,130.39 L 653.11,130.39 L 668.61,130.39 L 677.59,130.39 L 694.31,130.39 L 702.43,130.39 L 729.17,130.39 L 736.11,130.39 L 746.96,130.39 L 752.99,130.39 L 762.01,130.39 L 770.50,130.39 L 778.37,130.39 L 786.75,130.39 L 796.88,130.39 L 803.69,130.39 L 812.03,130.39 L 820.62,130.39 L 828.81,130.39 L 837.63,130.39 L 846.13,130.39 L 854.18,130.39 L 862.78,130.39 L 871.69,130.39 L 880.44,130.39 L 888.46,130.39 L 896.47,130.39 L 905.28,130.39 L 913.59,130.39 L 924.50,130.39 L 930.47,130.39" fill="none" stroke="#48525f" stroke-width="2" stroke-dasharray="6 4"/>
<path d="M 95.55,315.74 L 103.31,313.27 L 112.01,310.73 L 121.36,308.39 L 128.95,305.92 L 137.56,303.38 L 154.06,298.22 L 162.21,295.41 L 179.49,289.36 L 197.07,283.32 L 206.81,280.23 L 213.84,277.34 L 221.47,274.59 L 230.02,271.98 L 238.65,269.65 L 246.87,267.58 L 257.74,265.52 L 263.81,263.12 L 274.38,260.44 L 280.57,257.42 L 288.83,254.12 L 300.67,250.62 L 306.30,246.98 L 314.89,243.68 L 323.53,240.45 L 331.91,237.29 L 343.12,233.85 L 347.84,230.76 L 356.81,227.40 L 366.55,224.03 L 373.42,220.94 L 383.31,217.85 L 390.31,214.89 L 399.64,211.94 L 407.92,208.99 L 417.58,206.10 L 425.97,202.94 L 432.68,199.57 L 440.83,196.28 L 449.31,192.77 L 458.07,189.13 L 466.49,185.63 L 475.51,182.19 L 495.07,175.39 L 500.00,172.30 L 516.89,165.91 L 525.74,162.75 L 542.57,157.32 L 550.61,155.06 L 559.29,152.72 L 576.42,148.33 L 585.91,145.85 L 593.85,143.38 L 602.21,140.84 L 611.88,138.78 L 618.54,137.06 L 629.69,135.69 L 644.80,134.04 L 653.11,133.56 L 668.61,132.80 L 677.59,132.53 L 694.31,132.04 L 702.43,131.63 L 729.17,131.08 L 736.11,130.95 L 746.96,130.88 L 752.99,130.74 L 762.01,130.74 L 770.50,130.67 L 778.37,130.60 L 786.75,130.53 L 796.88,130.46 L 803.69,130.46 L 812.03,130.46 L 820.62,130.40 L 828.81,130.40 L 837.63,130.40 L 846.13,130.40 L 854.18,130.33 L 862.78,130.33 L 871.69,130.33 L 880.44,130.33 L 888.46,130.33 L 896.47,130.26 L 905.28,130.26 L 913.59,130.26 L 924.50,130.26 L 930.47,130.26" fill="none" stroke="#1769aa" stroke-width="2"/>
<line class="axis" x1="70" y1="338" x2="956" y2="338"/>
<line class="axis" x1="70" y1="108" x2="70" y2="338"/>
<text class="label" x="18" y="223.00" transform="rotate(-90 18 223.00)" text-anchor="middle">degrees</text>
<text class="panel-title" x="70" y="364">Yaw position</text>
<line class="grid" x1="70" y1="606.00" x2="956" y2="606.00"/>
<text class="label" x="62" y="610.00" text-anchor="end">-3.4</text>
<line class="grid" x1="70" y1="548.50" x2="956" y2="548.50"/>
<text class="label" x="62" y="552.50" text-anchor="end">-2.4</text>
<line class="grid" x1="70" y1="491.00" x2="956" y2="491.00"/>
<text class="label" x="62" y="495.00" text-anchor="end">-1.3</text>
<line class="grid" x1="70" y1="433.50" x2="956" y2="433.50"/>
<text class="label" x="62" y="437.50" text-anchor="end">-0.2</text>
<line class="grid" x1="70" y1="376.00" x2="956" y2="376.00"/>
<text class="label" x="62" y="380.00" text-anchor="end">0.9</text>
<line class="grid" x1="70.00" y1="376" x2="70.00" y2="606"/>
<line class="grid" x1="217.67" y1="376" x2="217.67" y2="606"/>
<line class="grid" x1="365.33" y1="376" x2="365.33" y2="606"/>
<line class="grid" x1="513.00" y1="376" x2="513.00" y2="606"/>
<line class="grid" x1="660.67" y1="376" x2="660.67" y2="606"/>
<line class="grid" x1="808.33" y1="376" x2="808.33" y2="606"/>
<line class="grid" x1="956.00" y1="376" x2="956.00" y2="606"/>
<line x1="302.79" y1="376" x2="302.79" y2="606" stroke="#20242a" stroke-width="1.2" opacity="0.55"/>
<line x1="336.76" y1="376" x2="336.76" y2="606" stroke="#6b7280" stroke-width="1.2" opacity="0.55"/>
<line x1="392.90" y1="376" x2="392.90" y2="606" stroke="#6b7280" stroke-width="1.2" opacity="0.55"/>
<line x1="702.43" y1="376" x2="702.43" y2="606" stroke="#1769aa" stroke-width="1.2" opacity="0.55"/>
<line x1="711.69" y1="376" x2="711.69" y2="606" stroke="#c94f2d" stroke-width="1.2" opacity="0.55"/>
<path d="M 95.08,579.92 L 104.35,579.92 L 112.43,578.87 L 123.03,577.65 L 137.04,576.67 L 146.05,576.67 L 154.48,575.00 L 162.61,573.47 L 171.59,573.47 L 179.93,572.08 L 187.98,570.35 L 196.11,570.35 L 204.84,568.47 L 222.08,566.59 L 231.36,566.59 L 239.15,564.97 L 247.26,563.10 L 264.26,561.72 L 272.44,560.02 L 280.98,560.02 L 289.50,557.66 L 298.73,557.66 L 306.71,555.79 L 316.80,555.79 L 322.76,552.90 L 331.17,551.12 L 340.83,551.12 L 348.39,548.55 L 358.18,548.55 L 365.20,545.89 L 375.13,543.49 L 385.78,543.49 L 391.67,540.77 L 399.14,540.77 L 411.48,539.04 L 415.72,536.59 L 424.92,536.59 L 432.27,534.80 L 441.69,532.03 L 449.70,532.03 L 459.23,529.03 L 466.95,529.03 L 476.03,527.10 L 483.49,527.10 L 492.07,523.95 L 509.00,520.79 L 517.33,517.79 L 535.83,515.49 L 542.22,512.33 L 551.65,512.33 L 559.89,508.71 L 567.71,505.94 L 578.27,505.94 L 584.83,502.22 L 596.02,502.22 L 603.78,499.82 L 610.39,496.81 L 621.74,496.81 L 627.67,492.69 L 636.91,492.69 L 644.28,490.07 L 651.83,485.98 L 661.67,485.98 L 670.14,481.59 L 679.78,481.59 L 686.08,476.83 L 695.30,476.83 L 703.90,474.20 L 711.69,469.98 L 719.73,469.98 L 727.80,467.26 L 739.09,462.59 L 755.39,458.17 L 763.52,458.17 L 769.83,454.54 L 779.09,450.25 L 787.23,450.25 L 804.68,445.15 L 812.51,441.12 L 821.30,438.59 L 829.23,438.59 L 839.22,432.43 L 846.50,432.43 L 855.20,426.64 L 863.70,423.04 L 871.32,423.04 L 883.27,416.61 L 890.81,416.61 L 896.93,409.74 L 904.86,405.03 L 913.22,405.03 L 922.25,398.26 L 930.92,398.26" fill="none" stroke="#48525f" stroke-width="2" stroke-dasharray="6 4"/>
<path d="M 95.08,583.74 L 104.35,582.69 L 112.43,581.82 L 123.03,581.06 L 137.04,579.62 L 146.05,578.85 L 154.48,578.18 L 162.61,577.41 L 171.59,576.74 L 179.93,575.97 L 187.98,575.11 L 196.11,574.15 L 204.84,573.10 L 222.08,570.99 L 231.36,569.74 L 239.15,568.78 L 247.26,567.82 L 264.26,566.00 L 272.44,565.04 L 280.98,564.08 L 289.50,563.03 L 298.73,561.97 L 306.71,560.73 L 316.80,559.58 L 322.76,558.52 L 331.17,557.18 L 340.83,555.84 L 348.39,554.69 L 358.18,553.25 L 365.20,551.91 L 375.13,550.37 L 385.78,548.84 L 391.67,547.21 L 399.14,545.77 L 411.48,544.33 L 415.72,542.80 L 424.92,541.36 L 432.27,540.02 L 441.69,538.67 L 449.70,537.43 L 459.23,535.99 L 466.95,534.65 L 476.03,533.11 L 483.49,531.67 L 492.07,530.33 L 509.00,527.17 L 517.33,525.44 L 535.83,522.08 L 542.22,520.17 L 551.65,518.34 L 559.89,516.52 L 567.71,514.60 L 578.27,512.78 L 584.83,510.96 L 596.02,509.23 L 603.78,507.32 L 610.39,505.59 L 621.74,503.86 L 627.67,502.04 L 636.91,500.22 L 644.28,498.21 L 651.83,496.38 L 661.67,494.37 L 670.14,492.17 L 679.78,490.06 L 686.08,487.75 L 695.30,485.64 L 703.90,483.25 L 711.69,481.04 L 719.73,478.64 L 727.80,476.25 L 739.09,473.95 L 755.39,469.25 L 763.52,466.95 L 769.83,464.55 L 779.09,462.15 L 787.23,459.85 L 804.68,454.86 L 812.51,452.18 L 821.30,449.49 L 829.23,447.00 L 839.22,444.41 L 846.50,442.30 L 855.20,439.52 L 863.70,437.32 L 871.32,434.63 L 883.27,432.04 L 890.81,429.45 L 896.93,426.10 L 904.86,422.93 L 913.22,419.10 L 922.25,415.16 L 930.92,411.62" fill="none" stroke="#c94f2d" stroke-width="2"/>
<line class="axis" x1="70" y1="606" x2="956" y2="606"/>
<line class="axis" x1="70" y1="376" x2="70" y2="606"/>
<text class="label" x="18" y="491.00" transform="rotate(-90 18 491.00)" text-anchor="middle">degrees</text>
<text class="panel-title" x="70" y="632">Pitch disturbance while moving</text>
<line class="grid" x1="70" y1="874.00" x2="956" y2="874.00"/>
<text class="label" x="62" y="878.00" text-anchor="end">-0.3</text>
<line class="grid" x1="70" y1="816.50" x2="956" y2="816.50"/>
<text class="label" x="62" y="820.50" text-anchor="end">-0.1</text>
<line class="grid" x1="70" y1="759.00" x2="956" y2="759.00"/>
<text class="label" x="62" y="763.00" text-anchor="end">0.2</text>
<line class="grid" x1="70" y1="701.50" x2="956" y2="701.50"/>
<text class="label" x="62" y="705.50" text-anchor="end">0.4</text>
<line class="grid" x1="70" y1="644.00" x2="956" y2="644.00"/>
<text class="label" x="62" y="648.00" text-anchor="end">0.6</text>
<line class="grid" x1="70.00" y1="644" x2="70.00" y2="874"/>
<line class="grid" x1="217.67" y1="644" x2="217.67" y2="874"/>
<line class="grid" x1="365.33" y1="644" x2="365.33" y2="874"/>
<line class="grid" x1="513.00" y1="644" x2="513.00" y2="874"/>
<line class="grid" x1="660.67" y1="644" x2="660.67" y2="874"/>
<line class="grid" x1="808.33" y1="644" x2="808.33" y2="874"/>
<line class="grid" x1="956.00" y1="644" x2="956.00" y2="874"/>
<line x1="302.79" y1="644" x2="302.79" y2="874" stroke="#20242a" stroke-width="1.2" opacity="0.55"/>
<line x1="336.76" y1="644" x2="336.76" y2="874" stroke="#6b7280" stroke-width="1.2" opacity="0.55"/>
<line x1="392.90" y1="644" x2="392.90" y2="874" stroke="#6b7280" stroke-width="1.2" opacity="0.55"/>
<line x1="702.43" y1="644" x2="702.43" y2="874" stroke="#1769aa" stroke-width="1.2" opacity="0.55"/>
<line x1="711.69" y1="644" x2="711.69" y2="874" stroke="#c94f2d" stroke-width="1.2" opacity="0.55"/>
<path d="M 95.55,786.63 L 103.31,770.22 L 112.01,792.70 L 121.36,809.07 L 128.95,792.66 L 137.56,808.17 L 154.06,813.27 L 162.21,821.98 L 179.49,813.64 L 197.07,793.74 L 206.81,800.42 L 213.84,781.27 L 221.47,773.30 L 230.02,755.98 L 238.65,788.55 L 246.87,812.68 L 257.74,799.00 L 263.81,823.58 L 274.38,842.12 L 280.57,822.07 L 288.83,841.75 L 300.67,818.50 L 306.30,840.29 L 314.89,818.41 L 323.53,831.93 L 331.91,844.70 L 343.12,821.91 L 347.84,827.58 L 356.81,805.24 L 366.55,815.25 L 373.42,833.90 L 383.31,813.39 L 390.31,822.83 L 399.64,803.23 L 407.92,826.82 L 417.58,842.57 L 425.97,821.61 L 432.68,843.49 L 440.83,821.61 L 449.31,825.64 L 458.07,848.68 L 466.49,825.43 L 475.51,833.59 L 495.07,829.88 L 500.00,837.15 L 516.89,795.28 L 525.74,796.82 L 542.57,795.10 L 550.61,780.05 L 559.29,788.20 L 576.42,789.21 L 585.91,772.80 L 593.85,756.39 L 602.21,739.52 L 611.88,725.85 L 618.54,714.45 L 629.69,705.34 L 644.80,694.40 L 653.11,691.20 L 668.61,686.19 L 677.59,684.37 L 694.31,681.18 L 702.43,678.44 L 729.17,674.79 L 736.11,673.88 L 746.96,673.43 L 752.99,672.51 L 762.01,672.51 L 770.50,672.06 L 778.37,671.60 L 786.75,671.15 L 796.88,670.69 L 803.69,670.69 L 812.03,670.69 L 820.62,670.24 L 828.81,670.24 L 837.63,670.24 L 846.13,670.24 L 854.18,669.78 L 862.78,669.78 L 871.69,669.78 L 880.44,669.78 L 888.46,669.78 L 896.47,669.32 L 905.28,669.32 L 913.59,669.32 L 924.50,669.32 L 930.47,669.32" fill="none" stroke="#1769aa" stroke-width="2"/>
<path d="M 95.55,799.71 L 103.31,799.71 L 112.01,799.71 L 121.36,799.71 L 128.95,799.71 L 137.56,799.71 L 154.06,799.71 L 162.21,799.71 L 179.49,799.71 L 197.07,799.71 L 206.81,799.71 L 213.84,799.71 L 221.47,799.71 L 230.02,799.71 L 238.65,799.71 L 246.87,799.71 L 257.74,799.71 L 263.81,799.71 L 274.38,799.71 L 280.57,799.71 L 288.83,799.71 L 300.67,799.71 L 306.30,799.71 L 314.89,799.71 L 323.53,799.71 L 331.91,799.71 L 343.12,799.71 L 347.84,799.71 L 356.81,799.71 L 366.55,799.71 L 373.42,799.71 L 383.31,799.71 L 390.31,799.71 L 399.64,799.71 L 407.92,799.71 L 417.58,799.71 L 425.97,799.71 L 432.68,799.71 L 440.83,799.71 L 449.31,799.71 L 458.07,799.71 L 466.49,799.71 L 475.51,799.71 L 495.07,799.71 L 500.00,799.71 L 516.89,799.71 L 525.74,799.71 L 542.57,799.71 L 550.61,799.71 L 559.29,799.71 L 576.42,799.71 L 585.91,799.71 L 593.85,799.71 L 602.21,799.71 L 611.88,799.71 L 618.54,799.71 L 629.69,799.71 L 644.80,799.71 L 653.11,799.71 L 668.61,799.71 L 677.59,799.71 L 694.31,799.71 L 702.43,799.71 L 729.17,799.71 L 736.11,799.71 L 746.96,799.71 L 752.99,799.71 L 762.01,799.71 L 770.50,799.71 L 778.37,799.71 L 786.75,799.71 L 796.88,799.71 L 803.69,799.71 L 812.03,799.71 L 820.62,799.71 L 828.81,799.71 L 837.63,799.71 L 846.13,799.71 L 854.18,799.71 L 862.78,799.71 L 871.69,799.71 L 880.44,799.71 L 888.46,799.71 L 896.47,799.71 L 905.28,799.71 L 913.59,799.71 L 924.50,799.71 L 930.47,799.71" fill="none" stroke="#8a94a3" stroke-width="2" stroke-dasharray="6 4"/>
<line class="axis" x1="70" y1="874" x2="956" y2="874"/>
<line class="axis" x1="70" y1="644" x2="70" y2="874"/>
<text class="label" x="18" y="759.00" transform="rotate(-90 18 759.00)" text-anchor="middle">degrees</text>
<text class="panel-title" x="70" y="900">Yaw disturbance while moving</text>
<line class="grid" x1="70" y1="1142.00" x2="956" y2="1142.00"/>
<text class="label" x="62" y="1146.00" text-anchor="end">-0.4</text>
<line class="grid" x1="70" y1="1084.50" x2="956" y2="1084.50"/>
<text class="label" x="62" y="1088.50" text-anchor="end">-0.2</text>
<line class="grid" x1="70" y1="1027.00" x2="956" y2="1027.00"/>
<text class="label" x="62" y="1031.00" text-anchor="end">-0.1</text>
<line class="grid" x1="70" y1="969.50" x2="956" y2="969.50"/>
<text class="label" x="62" y="973.50" text-anchor="end">0.0</text>
<line class="grid" x1="70" y1="912.00" x2="956" y2="912.00"/>
<text class="label" x="62" y="916.00" text-anchor="end">0.1</text>
<line class="grid" x1="70.00" y1="912" x2="70.00" y2="1142"/>
<text class="label" x="70.00" y="1162" text-anchor="middle">-0.28</text>
<line class="grid" x1="217.67" y1="912" x2="217.67" y2="1142"/>
<text class="label" x="217.67" y="1162" text-anchor="middle">-0.10</text>
<line class="grid" x1="365.33" y1="912" x2="365.33" y2="1142"/>
<text class="label" x="365.33" y="1162" text-anchor="middle">0.07</text>
<line class="grid" x1="513.00" y1="912" x2="513.00" y2="1142"/>
<text class="label" x="513.00" y="1162" text-anchor="middle">0.25</text>
<line class="grid" x1="660.67" y1="912" x2="660.67" y2="1142"/>
<text class="label" x="660.67" y="1162" text-anchor="middle">0.42</text>
<line class="grid" x1="808.33" y1="912" x2="808.33" y2="1142"/>
<text class="label" x="808.33" y="1162" text-anchor="middle">0.60</text>
<line class="grid" x1="956.00" y1="912" x2="956.00" y2="1142"/>
<text class="label" x="956.00" y="1162" text-anchor="middle">0.78</text>
<line x1="302.79" y1="912" x2="302.79" y2="1142" stroke="#20242a" stroke-width="1.2" opacity="0.55"/>
<line x1="336.76" y1="912" x2="336.76" y2="1142" stroke="#6b7280" stroke-width="1.2" opacity="0.55"/>
<line x1="392.90" y1="912" x2="392.90" y2="1142" stroke="#6b7280" stroke-width="1.2" opacity="0.55"/>
<line x1="702.43" y1="912" x2="702.43" y2="1142" stroke="#1769aa" stroke-width="1.2" opacity="0.55"/>
<line x1="711.69" y1="912" x2="711.69" y2="1142" stroke="#c94f2d" stroke-width="1.2" opacity="0.55"/>
<path d="M 95.08,972.78 L 104.35,963.58 L 112.43,965.15 L 123.03,969.13 L 137.04,965.14 L 146.05,958.45 L 154.48,967.13 L 162.61,973.83 L 171.59,967.98 L 179.93,973.42 L 187.98,980.95 L 196.11,972.59 L 204.84,979.75 L 222.08,977.81 L 231.36,966.94 L 239.15,972.71 L 247.26,980.63 L 264.26,976.77 L 272.44,983.26 L 280.98,974.90 L 289.50,986.23 L 298.73,977.03 L 306.71,982.45 L 316.80,972.42 L 322.76,988.50 L 331.17,992.31 L 340.83,980.61 L 348.39,992.93 L 358.18,980.38 L 365.20,991.89 L 375.13,999.44 L 385.78,986.07 L 391.67,995.56 L 399.14,983.01 L 411.48,985.59 L 415.72,993.58 L 424.92,981.03 L 432.27,984.92 L 441.69,997.38 L 449.70,986.51 L 459.23,1000.07 L 466.95,988.36 L 476.03,991.84 L 483.49,979.30 L 492.07,995.04 L 509.00,995.06 L 517.33,1006.15 L 535.83,996.90 L 542.22,1007.80 L 551.65,991.91 L 559.89,1007.58 L 567.71,1015.01 L 578.27,999.12 L 584.83,1015.67 L 596.02,1000.62 L 603.78,1004.81 L 610.39,1016.01 L 621.74,1000.96 L 627.67,1020.96 L 636.91,1005.08 L 644.28,1010.36 L 651.83,1030.16 L 661.67,1012.60 L 670.14,1031.62 L 679.78,1013.23 L 686.08,1034.73 L 695.30,1016.33 L 703.90,1018.33 L 711.69,1035.89 L 719.73,1014.99 L 727.80,1017.76 L 739.09,1038.43 L 755.39,1036.02 L 763.52,1015.95 L 769.83,1026.67 L 779.09,1043.19 L 787.23,1023.12 L 804.68,1024.17 L 812.51,1035.87 L 821.30,1034.49 L 829.23,1012.75 L 839.22,1043.91 L 846.50,1025.52 L 855.20,1051.76 L 863.70,1063.89 L 871.32,1040.48 L 883.27,1073.99 L 890.81,1051.41 L 896.93,1082.01 L 904.86,1095.55 L 913.22,1062.10 L 922.25,1086.85 L 930.92,1055.91" fill="none" stroke="#c94f2d" stroke-width="2"/>
<path d="M 95.08,977.29 L 104.35,977.29 L 112.43,977.29 L 123.03,977.29 L 137.04,977.29 L 146.05,977.29 L 154.48,977.29 L 162.61,977.29 L 171.59,977.29 L 179.93,977.29 L 187.98,977.29 L 196.11,977.29 L 204.84,977.29 L 222.08,977.29 L 231.36,977.29 L 239.15,977.29 L 247.26,977.29 L 264.26,977.29 L 272.44,977.29 L 280.98,977.29 L 289.50,977.29 L 298.73,977.29 L 306.71,977.29 L 316.80,977.29 L 322.76,977.29 L 331.17,977.29 L 340.83,977.29 L 348.39,977.29 L 358.18,977.29 L 365.20,977.29 L 375.13,977.29 L 385.78,977.29 L 391.67,977.29 L 399.14,977.29 L 411.48,977.29 L 415.72,977.29 L 424.92,977.29 L 432.27,977.29 L 441.69,977.29 L 449.70,977.29 L 459.23,977.29 L 466.95,977.29 L 476.03,977.29 L 483.49,977.29 L 492.07,977.29 L 509.00,977.29 L 517.33,977.29 L 535.83,977.29 L 542.22,977.29 L 551.65,977.29 L 559.89,977.29 L 567.71,977.29 L 578.27,977.29 L 584.83,977.29 L 596.02,977.29 L 603.78,977.29 L 610.39,977.29 L 621.74,977.29 L 627.67,977.29 L 636.91,977.29 L 644.28,977.29 L 651.83,977.29 L 661.67,977.29 L 670.14,977.29 L 679.78,977.29 L 686.08,977.29 L 695.30,977.29 L 703.90,977.29 L 711.69,977.29 L 719.73,977.29 L 727.80,977.29 L 739.09,977.29 L 755.39,977.29 L 763.52,977.29 L 769.83,977.29 L 779.09,977.29 L 787.23,977.29 L 804.68,977.29 L 812.51,977.29 L 821.30,977.29 L 829.23,977.29 L 839.22,977.29 L 846.50,977.29 L 855.20,977.29 L 863.70,977.29 L 871.32,977.29 L 883.27,977.29 L 890.81,977.29 L 896.93,977.29 L 904.86,977.29 L 913.22,977.29 L 922.25,977.29 L 930.92,977.29" fill="none" stroke="#8a94a3" stroke-width="2" stroke-dasharray="6 4"/>
<line class="axis" x1="70" y1="1142" x2="956" y2="1142"/>
<line class="axis" x1="70" y1="912" x2="70" y2="1142"/>
<text class="label" x="18" y="1027.00" transform="rotate(-90 18 1027.00)" text-anchor="middle">degrees</text>
<text class="label" x="513.0" y="1178" text-anchor="middle">time relative to event (s)</text>
</svg>