<svg xmlns="http://www.w3.org/2000/svg" viewBox="0 0 980 1186" role="img">
<style>
.axis{stroke:#718096;stroke-width:1}.grid{stroke:#e5eaf0;stroke-width:1}.label{font:12px sans-serif;fill:#5a6675}.title{font:700 18px sans-serif;fill:#20242a}.subtitle{font:12px sans-serif;fill:#5a6675}.panel-title{font:700 13px sans-serif;fill:#20242a}
</style>
<rect width="980" height="1186" fill="#ffffff"/>
<text class="title" x="70" y="28">Motion disturbance example 7: event 129</text>
<text class="subtitle" x="70" y="50">Start pitch 3.8 deg, yaw -2.6 deg; target motion 6.4 deg; disturbance vector 0.46 deg.</text>
<line x1="70" y1="76" x2="94" y2="76" stroke="#48525f" stroke-width="2" stroke-dasharray="6 4"/>
<text class="label" x="100" y="80">target</text>
<line x1="200" y1="76" x2="224" y2="76" stroke="#1769aa" stroke-width="2"/>
<text class="label" x="230" y="80">pitch actual</text>
<line x1="338" y1="76" x2="362" y2="76" stroke="#c94f2d" stroke-width="2"/>
<text class="label" x="368" y="80">yaw actual</text>
<line x1="468" y1="76" x2="492" y2="76" stroke="#1769aa" stroke-width="2"/>
<text class="label" x="498" y="80">pitch disturbance</text>
<line x1="641" y1="76" x2="665" y2="76" stroke="#8a94a3" stroke-width="2" stroke-dasharray="6 4"/>
<text class="label" x="671" y="80">zero baseline</text>
<line x1="786" y1="76" x2="810" y2="76" stroke="#c94f2d" stroke-width="2"/>
<text class="label" x="816" y="80">yaw disturbance</text>
<text class="panel-title" x="70" y="96">Pitch position</text>
<line class="grid" x1="70" y1="338.00" x2="956" y2="338.00"/>
<text class="label" x="62" y="342.00" text-anchor="end">0.3</text>
<line class="grid" x1="70" y1="280.50" x2="956" y2="280.50"/>
<text class="label" x="62" y="284.50" text-anchor="end">3.3</text>
<line class="grid" x1="70" y1="223.00" x2="956" y2="223.00"/>
<text class="label" x="62" y="227.00" text-anchor="end">6.2</text>
<line class="grid" x1="70" y1="165.50" x2="956" y2="165.50"/>
<text class="label" x="62" y="169.50" text-anchor="end">9.2</text>
<line class="grid" x1="70" y1="108.00" x2="956" y2="108.00"/>
<text class="label" x="62" y="112.00" text-anchor="end">12.1</text>
<line class="grid" x1="70.00" y1="108" x2="70.00" y2="338"/>
<line class="grid" x1="217.67" y1="108" x2="217.67" y2="338"/>
<line class="grid" x1="365.33" y1="108" x2="365.33" y2="338"/>
<line class="grid" x1="513.00" y1="108" x2="513.00" y2="338"/>
<line class="grid" x1="660.67" y1="108" x2="660.67" y2="338"/>
<line class="grid" x1="808.33" y1="108" x2="808.33" y2="338"/>
<line class="grid" x1="956.00" y1="108" x2="956.00" y2="338"/>
<line x1="303.80" y1="108" x2="303.80" y2="338" stroke="#20242a" stroke-width="1.2" opacity="0.55"/>
<text class="label" x="307.80" y="120.00" transform="rotate(-35 307.80 120.00)">fire</text>
<line x1="343.25" y1="108" x2="343.25" y2="338" stroke="#6b7280" stroke-width="1.2" opacity="0.55"/>
<text class="label" x="347.25" y="120.00" transform="rotate(-35 347.25 120.00)">muzzle</text>
<line x1="427.50" y1="108" x2="427.50" y2="338" stroke="#6b7280" stroke-width="1.2" opacity="0.55"/>
<text class="label" x="431.50" y="120.00" transform="rotate(-35 431.50 120.00)">impact</text>
<line x1="346.86" y1="108" x2="346.86" y2="338" stroke="#1769aa" stroke-width="1.2" opacity="0.55"/>
<text class="label" x="350.86" y="120.00" transform="rotate(-35 350.86 120.00)">pitch peak</text>
<line x1="710.44" y1="108" x2="710.44" y2="338" stroke="#c94f2d" stroke-width="1.2" opacity="0.55"/>
<text class="label" x="714.44" y="120.00" transform="rotate(-35 714.44 120.00)">yaw peak</text>
<path d="M 96.00,300.47 L 103.53,296.90 L 110.83,296.90 L 136.87,289.67 L 153.61,288.50 L 164.10,284.89 L 170.64,284.89 L 178.11,283.78 L 195.15,279.45 L 213.94,275.49 L 220.27,271.54 L 237.01,268.12 L 246.10,264.35 L 262.28,260.57 L 279.74,257.74 L 288.76,254.33 L 330.84,249.60 L 346.86,250.50 L 363.38,245.10 L 373.41,239.88 L 384.53,239.88 L 401.43,231.20 L 405.35,231.20 L 414.55,227.30 L 424.21,227.30 L 431.59,222.87 L 442.75,219.75 L 450.00,219.75 L 456.62,215.88 L 466.36,215.88 L 474.34,215.88 L 484.59,210.97 L 492.36,210.97 L 500.54,210.97 L 507.59,206.11 L 515.76,205.22 L 524.34,205.22 L 533.15,201.53 L 553.43,196.76 L 557.34,196.76 L 566.66,193.12 L 574.87,191.19 L 583.30,191.19 L 594.81,187.67 L 599.35,187.67 L 615.76,182.40 L 627.57,182.40 L 634.75,179.34 L 641.30,176.17 L 651.28,173.53 L 659.49,173.53 L 667.59,169.42 L 684.16,165.82 L 692.39,162.85 L 701.20,162.85 L 709.26,159.01 L 717.08,159.01 L 725.31,154.47 L 735.78,154.47 L 742.03,152.04 L 752.27,148.22 L 762.77,148.22 L 768.04,144.77 L 779.50,144.77 L 784.04,140.34 L 794.01,138.16 L 808.25,138.16 L 810.09,138.16 L 818.77,133.19 L 827.70,131.52 L 844.20,130.26 L 851.82,130.26 L 868.44,130.26 L 878.15,130.26 L 886.17,130.26 L 894.03,130.26 L 902.74,130.26 L 914.60,130.26 L 930.92,130.26" fill="none" stroke="#48525f" stroke-width="2" stroke-dasharray="6 4"/>
<path d="M 96.00,315.74 L 103.53,313.82 L 110.83,311.59 L 136.87,305.37 L 153.61,300.90 L 164.10,298.94 L 170.64,297.13 L 178.11,295.31 L 195.15,291.89 L 213.94,288.85 L 220.27,287.07 L 237.01,283.40 L 246.10,281.27 L 262.28,276.91 L 279.74,272.40 L 288.76,270.13 L 330.84,260.21 L 346.86,257.14 L 363.38,254.70 L 373.41,253.61 L 384.53,252.67 L 401.43,250.09 L 405.35,248.27 L 414.55,246.14 L 424.21,243.59 L 431.59,240.97 L 442.75,238.35 L 450.00,235.84 L 456.62,233.32 L 466.36,230.91 L 474.34,228.61 L 484.59,226.48 L 492.36,224.31 L 500.54,222.39 L 507.59,220.47 L 515.76,218.69 L 524.34,217.26 L 533.15,215.69 L 553.43,212.30 L 557.34,210.52 L 566.66,208.56 L 574.87,206.43 L 583.30,204.23 L 594.81,202.10 L 599.35,200.21 L 615.76,195.88 L 627.57,194.00 L 634.75,192.46 L 641.30,190.85 L 651.28,189.04 L 659.49,187.19 L 667.59,185.41 L 684.16,181.43 L 692.39,179.43 L 701.20,177.30 L 709.26,175.28 L 717.08,173.25 L 725.31,171.12 L 735.78,169.06 L 742.03,167.11 L 752.27,165.05 L 762.77,162.95 L 768.04,160.79 L 779.50,158.72 L 784.04,156.63 L 794.01,154.60 L 808.25,152.61 L 810.09,150.55 L 818.77,148.46 L 827.70,146.61 L 844.20,142.45 L 851.82,140.35 L 868.44,137.07 L 878.15,135.43 L 886.17,134.28 L 894.03,133.75 L 902.74,133.37 L 914.60,132.88 L 930.92,132.25" fill="none" stroke="#1769aa" stroke-width="2"/>
<line class="axis" x1="70" y1="338" x2="956" y2="338"/>
<line class="axis" x1="70" y1="108" x2="70" y2="338"/>
<text class="label" x="18" y="223.00" transform="rotate(-90 18 223.00)" text-anchor="middle">degrees</text>
<text class="panel-title" x="70" y="364">Yaw position</text>
<line class="grid" x1="70" y1="606.00" x2="956" y2="606.00"/>
<text class="label" x="62" y="610.00" text-anchor="end">-3.7</text>
<line class="grid" x1="70" y1="548.50" x2="956" y2="548.50"/>
<text class="label" x="62" y="552.50" text-anchor="end">-2.5</text>
<line class="grid" x1="70" y1="491.00" x2="956" y2="491.00"/>
<text class="label" x="62" y="495.00" text-anchor="end">-1.3</text>
<line class="grid" x1="70" y1="433.50" x2="956" y2="433.50"/>
<text class="label" x="62" y="437.50" text-anchor="end">-0.0</text>
<line class="grid" x1="70" y1="376.00" x2="956" y2="376.00"/>
<text class="label" x="62" y="380.00" text-anchor="end">1.2</text>
<line class="grid" x1="70.00" y1="376" x2="70.00" y2="606"/>
<line class="grid" x1="217.67" y1="376" x2="217.67" y2="606"/>
<line class="grid" x1="365.33" y1="376" x2="365.33" y2="606"/>
<line class="grid" x1="513.00" y1="376" x2="513.00" y2="606"/>
<line class="grid" x1="660.67" y1="376" x2="660.67" y2="606"/>
<line class="grid" x1="808.33" y1="376" x2="808.33" y2="606"/>
<line class="grid" x1="956.00" y1="376" x2="956.00" y2="606"/>
<line x1="303.80" y1="376" x2="303.80" y2="606" stroke="#20242a" stroke-width="1.2" opacity="0.55"/>
<line x1="343.25" y1="376" x2="343.25" y2="606" stroke="#6b7280" stroke-width="1.2" opacity="0.55"/>
<line x1="427.50" y1="376" x2="427.50" y2="606" stroke="#6b7280" stroke-width="1.2" opacity="0.55"/>
<line x1="346.86" y1="376" x2="346.86" y2="606" stroke="#1769aa" stroke-width="1.2" opacity="0.55"/>
<line x1="710.44" y1="376" x2="710.44" y2="606" stroke="#c94f2d" stroke-width="1.2" opacity="0.55"/>
<path d="M 95.08,578.23 L 111.28,578.25 L 120.62,575.78 L 129.53,575.78 L 136.33,575.55 L 145.15,574.18 L 153.11,574.18 L 174.08,571.00 L 178.61,571.00 L 187.90,569.23 L 195.67,569.23 L 204.96,566.10 L 220.72,562.64 L 230.30,562.64 L 237.41,559.22 L 248.02,555.69 L 255.08,555.69 L 262.90,553.58 L 272.18,550.68 L 279.28,550.68 L 291.88,547.84 L 297.10,547.84 L 305.14,547.84 L 314.75,545.40 L 321.35,543.70 L 330.13,541.92 L 342.17,539.99 L 346.37,539.99 L 356.01,539.99 L 363.89,537.30 L 371.64,534.39 L 381.68,534.39 L 389.30,532.36 L 398.32,529.70 L 406.18,529.70 L 415.65,526.82 L 422.40,526.82 L 431.07,525.01 L 439.04,525.01 L 448.88,522.23 L 458.22,519.15 L 464.72,519.15 L 472.91,519.15 L 482.96,513.89 L 491.05,513.89 L 498.35,513.89 L 515.17,507.81 L 526.47,505.16 L 538.58,505.16 L 541.15,505.16 L 550.49,501.24 L 558.56,501.24 L 570.09,498.77 L 573.81,495.65 L 584.51,495.65 L 591.66,492.66 L 608.11,489.98 L 616.63,486.21 L 625.16,486.21 L 633.16,483.80 L 642.25,481.23 L 650.19,477.79 L 660.83,477.79 L 669.03,473.37 L 675.79,473.37 L 683.64,470.68 L 710.44,462.62 L 719.96,462.62 L 726.68,459.94 L 734.27,459.94 L 742.48,456.84 L 760.44,451.81 L 785.69,443.52 L 795.80,441.43 L 802.61,441.43 L 811.85,438.60 L 835.49,433.90 L 847.21,427.65 L 853.30,424.62 L 861.35,424.62 L 869.09,419.13 L 879.82,414.69 L 893.52,409.71 L 903.65,405.20 L 911.35,405.20 L 919.78,405.20 L 927.74,398.26" fill="none" stroke="#48525f" stroke-width="2" stroke-dasharray="6 4"/>
<path d="M 95.08,583.74 L 111.28,580.97 L 120.62,580.05 L 129.53,579.04 L 136.33,578.03 L 145.15,577.19 L 153.11,576.52 L 174.08,575.34 L 178.61,574.75 L 187.90,574.00 L 195.67,573.33 L 204.96,572.82 L 220.72,570.72 L 230.30,568.96 L 237.41,567.11 L 248.02,564.76 L 255.08,562.74 L 262.90,560.47 L 272.18,558.54 L 279.28,556.95 L 291.88,555.10 L 297.10,553.50 L 305.14,551.82 L 314.75,550.56 L 321.35,549.13 L 330.13,547.62 L 342.17,546.19 L 346.37,545.02 L 356.01,543.76 L 363.89,542.83 L 371.64,541.32 L 381.68,540.06 L 389.30,538.55 L 398.32,537.04 L 406.18,535.53 L 415.65,533.93 L 422.40,532.33 L 431.07,530.65 L 439.04,529.23 L 448.88,527.88 L 458.22,526.29 L 464.72,524.86 L 472.91,523.35 L 482.96,522.17 L 491.05,520.49 L 498.35,518.89 L 515.17,515.70 L 526.47,513.77 L 538.58,512.09 L 541.15,510.16 L 550.49,508.65 L 558.56,506.88 L 570.09,505.29 L 573.81,503.52 L 584.51,502.01 L 591.66,500.33 L 608.11,497.14 L 616.63,495.12 L 625.16,493.27 L 633.16,491.43 L 642.25,489.41 L 650.19,487.48 L 660.83,485.46 L 669.03,483.45 L 675.79,481.85 L 683.64,479.67 L 710.44,473.11 L 719.96,471.10 L 726.68,468.66 L 734.27,466.65 L 742.48,464.46 L 760.44,460.60 L 785.69,454.13 L 795.80,452.28 L 802.61,449.76 L 811.85,447.49 L 835.49,441.03 L 847.21,439.01 L 853.30,436.66 L 861.35,434.39 L 869.09,432.12 L 879.82,429.35 L 893.52,423.30 L 903.65,420.03 L 911.35,416.75 L 919.78,413.31 L 927.74,410.87" fill="none" stroke="#c94f2d" stroke-width="2"/>
<line class="axis" x1="70" y1="606" x2="956" y2="606"/>
<line class="axis" x1="70" y1="376" x2="70" y2="606"/>
<text class="label" x="18" y="491.00" transform="rotate(-90 18 491.00)" text-anchor="middle">degrees</text>
<text class="panel-title" x="70" y="632">Pitch disturbance while moving</text>
<line class="grid" x1="70" y1="874.00" x2="956" y2="874.00"/>
<text class="label" x="62" y="878.00" text-anchor="end">-0.3</text>
<line class="grid" x1="70" y1="816.50" x2="956" y2="816.50"/>
<text class="label" x="62" y="820.50" text-anchor="end">-0.0</text>
<line class="grid" x1="70" y1="759.00" x2="956" y2="759.00"/>
<text class="label" x="62" y="763.00" text-anchor="end">0.3</text>
<line class="grid" x1="70" y1="701.50" x2="956" y2="701.50"/>
<text class="label" x="62" y="705.50" text-anchor="end">0.5</text>
<line class="grid" x1="70" y1="644.00" x2="956" y2="644.00"/>
<text class="label" x="62" y="648.00" text-anchor="end">0.8</text>
<line class="grid" x1="70.00" y1="644" x2="70.00" y2="874"/>
<line class="grid" x1="217.67" y1="644" x2="217.67" y2="874"/>
<line class="grid" x1="365.33" y1="644" x2="365.33" y2="874"/>
<line class="grid" x1="513.00" y1="644" x2="513.00" y2="874"/>
<line class="grid" x1="660.67" y1="644" x2="660.67" y2="874"/>
<line class="grid" x1="808.33" y1="644" x2="808.33" y2="874"/>
<line class="grid" x1="956.00" y1="644" x2="956.00" y2="874"/>
<line x1="303.80" y1="644" x2="303.80" y2="874" stroke="#20242a" stroke-width="1.2" opacity="0.55"/>
<line x1="343.25" y1="644" x2="343.25" y2="874" stroke="#6b7280" stroke-width="1.2" opacity="0.55"/>
<line x1="427.50" y1="644" x2="427.50" y2="874" stroke="#6b7280" stroke-width="1.2" opacity="0.55"/>
<line x1="346.86" y1="644" x2="346.86" y2="874" stroke="#1769aa" stroke-width="1.2" opacity="0.55"/>
<line x1="710.44" y1="644" x2="710.44" y2="874" stroke="#c94f2d" stroke-width="1.2" opacity="0.55"/>
<path d="M 96.00,812.06 L 103.53,830.17 L 110.83,805.63 L 136.87,816.74 L 153.61,780.49 L 164.10,798.63 L 170.64,778.70 L 178.11,770.91 L 195.15,780.88 L 213.94,791.06 L 220.27,814.81 L 237.01,812.15 L 246.10,830.12 L 262.28,823.75 L 279.74,805.32 L 288.76,817.85 L 330.84,760.84 L 346.86,717.24 L 363.38,749.67 L 373.41,795.09 L 384.53,784.74 L 401.43,851.74 L 405.35,831.80 L 414.55,851.22 L 424.21,823.23 L 431.59,843.03 L 442.75,848.55 L 450.00,820.95 L 456.62,835.83 L 466.36,809.38 L 474.34,784.07 L 484.59,814.56 L 492.36,790.79 L 500.54,769.70 L 507.59,802.02 L 515.76,792.22 L 524.34,776.50 L 533.15,799.72 L 553.43,814.95 L 557.34,795.39 L 566.66,813.87 L 574.87,811.67 L 583.30,787.51 L 594.81,802.79 L 599.35,782.08 L 615.76,792.39 L 627.57,771.69 L 634.75,788.43 L 641.30,805.58 L 651.28,814.65 L 659.49,794.32 L 667.59,819.82 L 684.16,815.71 L 692.39,826.42 L 701.20,803.03 L 709.26,822.96 L 717.08,800.73 L 725.31,827.16 L 735.78,804.54 L 742.03,809.78 L 752.27,829.13 L 762.77,806.13 L 768.04,820.17 L 779.50,797.55 L 784.04,823.19 L 794.01,824.94 L 808.25,803.08 L 810.09,780.46 L 818.77,812.00 L 827.70,810.03 L 844.20,778.21 L 851.82,755.21 L 868.44,719.17 L 878.15,701.15 L 886.17,688.50 L 894.03,682.74 L 902.74,678.53 L 914.60,673.16 L 930.92,666.26" fill="none" stroke="#1769aa" stroke-width="2"/>
<path d="M 96.00,813.48 L 103.53,813.48 L 110.83,813.48 L 136.87,813.48 L 153.61,813.48 L 164.10,813.48 L 170.64,813.48 L 178.11,813.48 L 195.15,813.48 L 213.94,813.48 L 220.27,813.48 L 237.01,813.48 L 246.10,813.48 L 262.28,813.48 L 279.74,813.48 L 288.76,813.48 L 330.84,813.48 L 346.86,813.48 L 363.38,813.48 L 373.41,813.48 L 384.53,813.48 L 401.43,813.48 L 405.35,813.48 L 414.55,813.48 L 424.21,813.48 L 431.59,813.48 L 442.75,813.48 L 450.00,813.48 L 456.62,813.48 L 466.36,813.48 L 474.34,813.48 L 484.59,813.48 L 492.36,813.48 L 500.54,813.48 L 507.59,813.48 L 515.76,813.48 L 524.34,813.48 L 533.15,813.48 L 553.43,813.48 L 557.34,813.48 L 566.66,813.48 L 574.87,813.48 L 583.30,813.48 L 594.81,813.48 L 599.35,813.48 L 615.76,813.48 L 627.57,813.48 L 634.75,813.48 L 641.30,813.48 L 651.28,813.48 L 659.49,813.48 L 667.59,813.48 L 684.16,813.48 L 692.39,813.48 L 701.20,813.48 L 709.26,813.48 L 717.08,813.48 L 725.31,813.48 L 735.78,813.48 L 742.03,813.48 L 752.27,813.48 L 762.77,813.48 L 768.04,813.48 L 779.50,813.48 L 784.04,813.48 L 794.01,813.48 L 808.25,813.48 L 810.09,813.48 L 818.77,813.48 L 827.70,813.48 L 844.20,813.48 L 851.82,813.48 L 868.44,813.48 L 878.15,813.48 L 886.17,813.48 L 894.03,813.48 L 902.74,813.48 L 914.60,813.48 L 930.92,813.48" fill="none" stroke="#8a94a3" stroke-width="2" stroke-dasharray="6 4"/>
<line class="axis" x1="70" y1="874" x2="956" y2="874"/>
<line class="axis" x1="70" y1="644" x2="70" y2="874"/>
<text class="label" x="18" y="759.00" transform="rotate(-90 18 759.00)" text-anchor="middle">degrees</text>
<text class="panel-title" x="70" y="900">Yaw disturbance while moving</text>
<line class="grid" x1="70" y1="1142.00" x2="956" y2="1142.00"/>
<text class="label" x="62" y="1146.00" text-anchor="end">-0.3</text>
<line class="grid" x1="70" y1="1084.50" x2="956" y2="1084.50"/>
<text class="label" x="62" y="1088.50" text-anchor="end">-0.1</text>
<line class="grid" x1="70" y1="1027.00" x2="956" y2="1027.00"/>
<text class="label" x="62" y="1031.00" text-anchor="end">-0.0</text>
<line class="grid" x1="70" y1="969.50" x2="956" y2="969.50"/>
<text class="label" x="62" y="973.50" text-anchor="end">0.1</text>
<line class="grid" x1="70" y1="912.00" x2="956" y2="912.00"/>
<text class="label" x="62" y="916.00" text-anchor="end">0.2</text>
<line class="grid" x1="70.00" y1="912" x2="70.00" y2="1142"/>
<text class="label" x="70.00" y="1162" text-anchor="middle">-0.28</text>
<line class="grid" x1="217.67" y1="912" x2="217.67" y2="1142"/>
<text class="label" x="217.67" y="1162" text-anchor="middle">-0.10</text>
<line class="grid" x1="365.33" y1="912" x2="365.33" y2="1142"/>
<text class="label" x="365.33" y="1162" text-anchor="middle">0.07</text>
<line class="grid" x1="513.00" y1="912" x2="513.00" y2="1142"/>
<text class="label" x="513.00" y="1162" text-anchor="middle">0.25</text>
<line class="grid" x1="660.67" y1="912" x2="660.67" y2="1142"/>
<text class="label" x="660.67" y="1162" text-anchor="middle">0.42</text>
<line class="grid" x1="808.33" y1="912" x2="808.33" y2="1142"/>
<text class="label" x="808.33" y="1162" text-anchor="middle">0.60</text>
<line class="grid" x1="956.00" y1="912" x2="956.00" y2="1142"/>
<text class="label" x="956.00" y="1162" text-anchor="middle">0.78</text>
<line x1="303.80" y1="912" x2="303.80" y2="1142" stroke="#20242a" stroke-width="1.2" opacity="0.55"/>
<line x1="343.25" y1="912" x2="343.25" y2="1142" stroke="#6b7280" stroke-width="1.2" opacity="0.55"/>
<line x1="427.50" y1="912" x2="427.50" y2="1142" stroke="#6b7280" stroke-width="1.2" opacity="0.55"/>
<line x1="346.86" y1="912" x2="346.86" y2="1142" stroke="#1769aa" stroke-width="1.2" opacity="0.55"/>
<line x1="710.44" y1="912" x2="710.44" y2="1142" stroke="#c94f2d" stroke-width="1.2" opacity="0.55"/>
<path d="M 95.08,994.64 L 111.28,965.18 L 120.62,981.47 L 129.53,970.85 L 136.33,962.67 L 145.15,968.27 L 153.11,961.18 L 174.08,982.27 L 178.61,976.07 L 187.90,986.80 L 195.67,979.72 L 204.96,1007.35 L 220.72,1021.72 L 230.30,1003.13 L 237.41,1019.63 L 248.02,1032.07 L 255.08,1010.83 L 262.90,1009.19 L 272.18,1019.40 L 279.28,1002.58 L 291.88,1013.04 L 297.10,996.22 L 305.14,978.51 L 314.75,990.91 L 321.35,993.83 L 330.13,996.66 L 342.17,1001.90 L 346.37,989.51 L 356.01,976.23 L 363.89,994.84 L 371.64,1009.56 L 381.68,996.28 L 389.30,1001.78 L 398.32,1013.91 L 406.18,997.97 L 415.65,1011.50 L 422.40,994.68 L 431.07,995.99 L 439.04,980.94 L 448.88,996.11 L 458.22,1011.70 L 464.72,996.65 L 472.91,980.72 L 482.96,1023.81 L 491.05,1006.11 L 498.35,989.29 L 515.17,1019.75 L 526.47,1027.23 L 538.58,1009.53 L 541.15,989.16 L 550.49,1014.57 L 558.56,995.98 L 570.09,1005.15 L 573.81,1019.49 L 584.51,1003.55 L 591.66,1017.33 L 608.11,1011.97 L 616.63,1030.48 L 625.16,1011.00 L 633.16,1016.95 L 642.25,1022.71 L 650.19,1038.63 L 660.83,1017.38 L 669.03,1042.68 L 675.79,1025.86 L 683.64,1031.25 L 710.44,1047.08 L 719.96,1025.84 L 726.68,1028.45 L 734.27,1007.20 L 742.48,1016.84 L 760.44,1029.18 L 785.69,1048.40 L 795.80,1050.87 L 802.61,1024.32 L 811.85,1030.24 L 835.49,1011.59 L 847.21,1056.26 L 853.30,1063.37 L 861.35,1039.47 L 869.09,1073.42 L 879.82,1091.06 L 893.52,1079.82 L 903.65,1092.82 L 911.35,1058.29 L 919.78,1021.99 L 927.74,1069.45" fill="none" stroke="#c94f2d" stroke-width="2"/>
<path d="M 95.08,1010.83 L 111.28,1010.83 L 120.62,1010.83 L 129.53,1010.83 L 136.33,1010.83 L 145.15,1010.83 L 153.11,1010.83 L 174.08,1010.83 L 178.61,1010.83 L 187.90,1010.83 L 195.67,1010.83 L 204.96,1010.83 L 220.72,1010.83 L 230.30,1010.83 L 237.41,1010.83 L 248.02,1010.83 L 255.08,1010.83 L 262.90,1010.83 L 272.18,1010.83 L 279.28,1010.83 L 291.88,1010.83 L 297.10,1010.83 L 305.14,1010.83 L 314.75,1010.83 L 321.35,1010.83 L 330.13,1010.83 L 342.17,1010.83 L 346.37,1010.83 L 356.01,1010.83 L 363.89,1010.83 L 371.64,1010.83 L 381.68,1010.83 L 389.30,1010.83 L 398.32,1010.83 L 406.18,1010.83 L 415.65,1010.83 L 422.40,1010.83 L 431.07,1010.83 L 439.04,1010.83 L 448.88,1010.83 L 458.22,1010.83 L 464.72,1010.83 L 472.91,1010.83 L 482.96,1010.83 L 491.05,1010.83 L 498.35,1010.83 L 515.17,1010.83 L 526.47,1010.83 L 538.58,1010.83 L 541.15,1010.83 L 550.49,1010.83 L 558.56,1010.83 L 570.09,1010.83 L 573.81,1010.83 L 584.51,1010.83 L 591.66,1010.83 L 608.11,1010.83 L 616.63,1010.83 L 625.16,1010.83 L 633.16,1010.83 L 642.25,1010.83 L 650.19,1010.83 L 660.83,1010.83 L 669.03,1010.83 L 675.79,1010.83 L 683.64,1010.83 L 710.44,1010.83 L 719.96,1010.83 L 726.68,1010.83 L 734.27,1010.83 L 742.48,1010.83 L 760.44,1010.83 L 785.69,1010.83 L 795.80,1010.83 L 802.61,1010.83 L 811.85,1010.83 L 835.49,1010.83 L 847.21,1010.83 L 853.30,1010.83 L 861.35,1010.83 L 869.09,1010.83 L 879.82,1010.83 L 893.52,1010.83 L 903.65,1010.83 L 911.35,1010.83 L 919.78,1010.83 L 927.74,1010.83" fill="none" stroke="#8a94a3" stroke-width="2" stroke-dasharray="6 4"/>
<line class="axis" x1="70" y1="1142" x2="956" y2="1142"/>
<line class="axis" x1="70" y1="912" x2="70" y2="1142"/>
<text class="label" x="18" y="1027.00" transform="rotate(-90 18 1027.00)" text-anchor="middle">degrees</text>
<text class="label" x="513.0" y="1178" text-anchor="middle">time relative to event (s)</text>
</svg>