<svg xmlns="http://www.w3.org/2000/svg" viewBox="0 0 980 1186" role="img">
<style>
.axis{stroke:#718096;stroke-width:1}.grid{stroke:#e5eaf0;stroke-width:1}.label{font:12px sans-serif;fill:#5a6675}.title{font:700 18px sans-serif;fill:#20242a}.subtitle{font:12px sans-serif;fill:#5a6675}.panel-title{font:700 13px sans-serif;fill:#20242a}
</style>
<rect width="980" height="1186" fill="#ffffff"/>
<text class="title" x="70" y="28">Motion disturbance example 8: event 219</text>
<text class="subtitle" x="70" y="50">Start pitch 10.0 deg, yaw -0.6 deg; target motion 4.4 deg; disturbance vector 0.58 deg.</text>
<line x1="70" y1="76" x2="94" y2="76" stroke="#48525f" stroke-width="2" stroke-dasharray="6 4"/>
<text class="label" x="100" y="80">target</text>
<line x1="200" y1="76" x2="224" y2="76" stroke="#1769aa" stroke-width="2"/>
<text class="label" x="230" y="80">pitch actual</text>
<line x1="338" y1="76" x2="362" y2="76" stroke="#c94f2d" stroke-width="2"/>
<text class="label" x="368" y="80">yaw actual</text>
<line x1="468" y1="76" x2="492" y2="76" stroke="#1769aa" stroke-width="2"/>
<text class="label" x="498" y="80">pitch disturbance</text>
<line x1="641" y1="76" x2="665" y2="76" stroke="#8a94a3" stroke-width="2" stroke-dasharray="6 4"/>
<text class="label" x="671" y="80">zero baseline</text>
<line x1="786" y1="76" x2="810" y2="76" stroke="#c94f2d" stroke-width="2"/>
<text class="label" x="816" y="80">yaw disturbance</text>
<text class="panel-title" x="70" y="96">Pitch position</text>
<line class="grid" x1="70" y1="338.00" x2="956" y2="338.00"/>
<text class="label" x="62" y="342.00" text-anchor="end">7.7</text>
<line class="grid" x1="70" y1="280.50" x2="956" y2="280.50"/>
<text class="label" x="62" y="284.50" text-anchor="end">8.6</text>
<line class="grid" x1="70" y1="223.00" x2="956" y2="223.00"/>
<text class="label" x="62" y="227.00" text-anchor="end">9.5</text>
<line class="grid" x1="70" y1="165.50" x2="956" y2="165.50"/>
<text class="label" x="62" y="169.50" text-anchor="end">10.4</text>
<line class="grid" x1="70" y1="108.00" x2="956" y2="108.00"/>
<text class="label" x="62" y="112.00" text-anchor="end">11.4</text>
<line class="grid" x1="70.00" y1="108" x2="70.00" y2="338"/>
<line class="grid" x1="217.67" y1="108" x2="217.67" y2="338"/>
<line class="grid" x1="365.33" y1="108" x2="365.33" y2="338"/>
<line class="grid" x1="513.00" y1="108" x2="513.00" y2="338"/>
<line class="grid" x1="660.67" y1="108" x2="660.67" y2="338"/>
<line class="grid" x1="808.33" y1="108" x2="808.33" y2="338"/>
<line class="grid" x1="956.00" y1="108" x2="956.00" y2="338"/>
<line x1="300.07" y1="108" x2="300.07" y2="338" stroke="#20242a" stroke-width="1.2" opacity="0.55"/>
<text class="label" x="304.07" y="120.00" transform="rotate(-35 304.07 120.00)">fire</text>
<line x1="333.64" y1="108" x2="333.64" y2="338" stroke="#6b7280" stroke-width="1.2" opacity="0.55"/>
<text class="label" x="337.64" y="120.00" transform="rotate(-35 337.64 120.00)">muzzle</text>
<line x1="386.77" y1="108" x2="386.77" y2="338" stroke="#6b7280" stroke-width="1.2" opacity="0.55"/>
<text class="label" x="390.77" y="120.00" transform="rotate(-35 390.77 120.00)">impact</text>
<line x1="685.66" y1="108" x2="685.66" y2="338" stroke="#1769aa" stroke-width="1.2" opacity="0.55"/>
<text class="label" x="689.66" y="120.00" transform="rotate(-35 689.66 120.00)">pitch peak</text>
<line x1="694.88" y1="108" x2="694.88" y2="338" stroke="#c94f2d" stroke-width="1.2" opacity="0.55"/>
<text class="label" x="698.88" y="120.00" transform="rotate(-35 698.88 120.00)">yaw peak</text>
<path d="M 95.53,281.21 L 103.30,281.21 L 111.83,270.31 L 121.04,258.97 L 129.00,258.97 L 138.47,247.46 L 145.80,238.21 L 154.80,238.21 L 163.43,227.87 L 171.83,227.87 L 181.37,221.64 L 197.93,215.05 L 204.46,206.14 L 215.24,206.14 L 220.90,203.32 L 230.73,196.88 L 238.71,196.88 L 247.36,186.99 L 254.79,182.22 L 263.22,182.22 L 272.11,172.10 L 290.15,163.33 L 298.81,163.33 L 305.29,155.72 L 313.60,149.66 L 322.21,149.66 L 331.56,141.10 L 339.34,141.10 L 347.84,133.95 L 357.20,133.95 L 364.92,130.58 L 373.69,130.58 L 389.70,130.58 L 409.59,130.58 L 416.17,130.58 L 425.90,130.58 L 433.06,130.58 L 441.05,130.58 L 457.46,130.58 L 482.88,130.58 L 491.24,130.58 L 509.03,130.58 L 516.51,130.58 L 525.86,130.58 L 533.60,130.58 L 545.03,130.58 L 553.04,130.58 L 558.81,130.58 L 575.44,130.58 L 584.14,130.58 L 601.30,130.58 L 617.61,130.58 L 626.75,130.58 L 634.87,130.58 L 643.59,130.58 L 651.88,130.58 L 661.70,130.58 L 668.30,130.58 L 685.66,130.58 L 693.57,130.58 L 710.46,130.58 L 720.69,130.58 L 727.11,130.58 L 736.48,130.58 L 746.02,130.58 L 753.41,130.58 L 762.06,130.58 L 769.30,130.58 L 778.22,130.58 L 787.00,130.58 L 796.41,130.58 L 803.17,130.58 L 811.97,130.58 L 820.00,130.58 L 828.47,130.58 L 837.55,130.58 L 847.12,130.58 L 855.73,130.58 L 866.71,130.58 L 872.12,130.58 L 879.44,130.58 L 887.74,130.58 L 898.21,130.58 L 904.32,130.58 L 914.33,130.58 L 922.38,130.58 L 929.54,130.58" fill="none" stroke="#48525f" stroke-width="2" stroke-dasharray="6 4"/>
<path d="M 95.53,315.74 L 103.30,312.69 L 111.83,308.29 L 121.04,303.55 L 129.00,298.47 L 138.47,292.49 L 145.80,286.50 L 154.80,280.18 L 163.43,273.75 L 171.83,267.42 L 181.37,261.33 L 197.93,249.36 L 204.46,243.83 L 215.24,239.09 L 220.90,234.01 L 230.73,229.27 L 238.71,224.75 L 247.36,220.57 L 254.79,216.73 L 263.22,212.78 L 272.11,208.61 L 290.15,199.91 L 298.81,195.51 L 305.29,190.66 L 313.60,185.80 L 322.21,181.29 L 331.56,176.43 L 339.34,171.80 L 347.84,167.06 L 357.20,162.32 L 364.92,157.69 L 373.69,153.40 L 389.70,145.84 L 409.59,140.42 L 416.17,138.61 L 425.90,137.37 L 433.06,136.47 L 441.05,135.68 L 457.46,134.55 L 482.88,133.19 L 491.24,132.85 L 509.03,132.29 L 516.51,131.95 L 525.86,131.61 L 533.60,131.39 L 545.03,131.16 L 553.04,131.05 L 558.81,130.94 L 575.44,130.71 L 584.14,130.71 L 601.30,130.60 L 617.61,130.48 L 626.75,130.48 L 634.87,130.48 L 643.59,130.37 L 651.88,130.37 L 661.70,130.37 L 668.30,130.37 L 685.66,130.26 L 693.57,130.26 L 710.46,130.26 L 720.69,130.26 L 727.11,130.26 L 736.48,130.26 L 746.02,130.26 L 753.41,130.26 L 762.06,130.26 L 769.30,130.26 L 778.22,130.26 L 787.00,130.26 L 796.41,130.26 L 803.17,130.26 L 811.97,130.26 L 820.00,130.26 L 828.47,130.26 L 837.55,130.26 L 847.12,130.26 L 855.73,130.26 L 866.71,130.26 L 872.12,130.26 L 879.44,130.26 L 887.74,130.26 L 898.21,130.26 L 904.32,130.26 L 914.33,130.26 L 922.38,130.26 L 929.54,130.26" fill="none" stroke="#1769aa" stroke-width="2"/>
<line class="axis" x1="70" y1="338" x2="956" y2="338"/>
<line class="axis" x1="70" y1="108" x2="70" y2="338"/>
<text class="label" x="18" y="223.00" transform="rotate(-90 18 223.00)" text-anchor="middle">degrees</text>
<text class="panel-title" x="70" y="364">Yaw position</text>
<line class="grid" x1="70" y1="606.00" x2="956" y2="606.00"/>
<text class="label" x="62" y="610.00" text-anchor="end">-2.7</text>
<line class="grid" x1="70" y1="548.50" x2="956" y2="548.50"/>
<text class="label" x="62" y="552.50" text-anchor="end">-0.3</text>
<line class="grid" x1="70" y1="491.00" x2="956" y2="491.00"/>
<text class="label" x="62" y="495.00" text-anchor="end">2.1</text>
<line class="grid" x1="70" y1="433.50" x2="956" y2="433.50"/>
<text class="label" x="62" y="437.50" text-anchor="end">4.5</text>
<line class="grid" x1="70" y1="376.00" x2="956" y2="376.00"/>
<text class="label" x="62" y="380.00" text-anchor="end">6.9</text>
<line class="grid" x1="70.00" y1="376" x2="70.00" y2="606"/>
<line class="grid" x1="217.67" y1="376" x2="217.67" y2="606"/>
<line class="grid" x1="365.33" y1="376" x2="365.33" y2="606"/>
<line class="grid" x1="513.00" y1="376" x2="513.00" y2="606"/>
<line class="grid" x1="660.67" y1="376" x2="660.67" y2="606"/>
<line class="grid" x1="808.33" y1="376" x2="808.33" y2="606"/>
<line class="grid" x1="956.00" y1="376" x2="956.00" y2="606"/>
<line x1="300.07" y1="376" x2="300.07" y2="606" stroke="#20242a" stroke-width="1.2" opacity="0.55"/>
<line x1="333.64" y1="376" x2="333.64" y2="606" stroke="#6b7280" stroke-width="1.2" opacity="0.55"/>
<line x1="386.77" y1="376" x2="386.77" y2="606" stroke="#6b7280" stroke-width="1.2" opacity="0.55"/>
<line x1="685.66" y1="376" x2="685.66" y2="606" stroke="#1769aa" stroke-width="1.2" opacity="0.55"/>
<line x1="694.88" y1="376" x2="694.88" y2="606" stroke="#c94f2d" stroke-width="1.2" opacity="0.55"/>
<path d="M 95.08,578.05 L 105.46,575.50 L 113.22,575.50 L 120.49,573.23 L 137.19,571.62 L 145.36,570.27 L 153.68,570.27 L 162.04,568.08 L 170.44,568.08 L 179.59,566.48 L 188.17,565.21 L 196.29,565.21 L 206.48,563.82 L 214.20,563.82 L 221.51,562.08 L 237.73,560.53 L 246.36,558.29 L 255.44,556.19 L 265.43,556.19 L 281.53,553.52 L 288.95,550.81 L 297.19,550.81 L 305.74,548.33 L 314.29,546.30 L 322.67,546.30 L 330.99,543.92 L 340.59,543.92 L 348.36,542.42 L 366.64,540.07 L 375.55,537.58 L 382.49,537.58 L 390.13,536.15 L 398.77,536.15 L 415.62,530.63 L 432.20,528.30 L 440.45,525.78 L 451.91,525.78 L 458.00,522.58 L 466.60,522.58 L 474.61,520.04 L 482.46,517.24 L 495.02,517.24 L 499.50,517.24 L 507.83,513.73 L 517.69,511.94 L 524.82,508.81 L 536.16,508.81 L 542.58,505.28 L 554.43,505.28 L 559.45,502.48 L 568.65,500.10 L 576.26,500.10 L 585.63,500.10 L 593.16,495.64 L 600.72,493.83 L 610.65,490.38 L 618.05,490.38 L 626.17,487.25 L 642.93,484.12 L 651.33,480.71 L 668.86,476.87 L 678.17,473.99 L 685.17,473.99 L 694.88,469.60 L 703.53,469.60 L 711.58,465.55 L 727.61,460.94 L 745.03,457.45 L 763.29,452.55 L 769.81,449.03 L 781.07,446.94 L 790.12,446.94 L 795.47,442.45 L 804.48,439.22 L 815.48,439.22 L 821.04,434.39 L 828.91,434.39 L 837.07,430.29 L 845.73,430.29 L 854.87,425.77 L 863.89,425.77 L 870.59,419.29 L 880.34,414.28 L 887.31,414.28 L 896.55,409.18 L 904.91,404.16 L 912.96,404.16 L 921.54,398.26 L 930.92,398.26" fill="none" stroke="#48525f" stroke-width="2" stroke-dasharray="6 4"/>
<path d="M 95.08,583.74 L 105.46,582.58 L 113.22,581.29 L 120.49,579.61 L 137.19,576.39 L 145.36,574.93 L 153.68,573.81 L 162.04,572.78 L 170.44,571.75 L 179.59,570.63 L 188.17,569.51 L 196.29,568.65 L 206.48,567.66 L 214.20,566.93 L 221.51,565.99 L 237.73,564.31 L 246.36,563.49 L 255.44,562.63 L 265.43,561.51 L 281.53,558.89 L 288.95,557.21 L 297.19,555.54 L 305.74,554.03 L 314.29,552.57 L 322.67,551.19 L 330.99,549.73 L 340.59,548.49 L 348.36,547.15 L 366.64,544.96 L 375.55,543.89 L 382.49,543.28 L 390.13,541.99 L 398.77,540.88 L 415.62,538.30 L 432.20,534.90 L 440.45,533.09 L 451.91,531.46 L 458.00,529.70 L 466.60,528.28 L 474.61,526.60 L 482.46,525.01 L 495.02,523.51 L 499.50,521.92 L 507.83,520.58 L 517.69,519.03 L 524.82,517.74 L 536.16,516.03 L 542.58,514.26 L 554.43,512.76 L 559.45,510.78 L 568.65,509.10 L 576.26,507.08 L 585.63,505.10 L 593.16,503.51 L 600.72,501.71 L 610.65,499.60 L 618.05,497.92 L 626.17,495.99 L 642.93,492.25 L 651.33,490.27 L 668.86,486.14 L 678.17,484.34 L 685.17,482.27 L 694.88,480.04 L 703.53,478.28 L 711.58,475.87 L 727.61,471.57 L 745.03,467.01 L 763.29,462.28 L 769.81,459.70 L 781.07,457.25 L 790.12,454.93 L 795.47,452.74 L 804.48,450.84 L 815.48,448.44 L 821.04,446.07 L 828.91,444.18 L 837.07,441.73 L 845.73,439.37 L 854.87,436.87 L 863.89,434.03 L 870.59,431.63 L 880.34,429.05 L 887.31,426.04 L 896.55,423.03 L 904.91,419.72 L 912.96,416.75 L 921.54,413.22 L 930.92,410.13" fill="none" stroke="#c94f2d" stroke-width="2"/>
<line class="axis" x1="70" y1="606" x2="956" y2="606"/>
<line class="axis" x1="70" y1="376" x2="70" y2="606"/>
<text class="label" x="18" y="491.00" transform="rotate(-90 18 491.00)" text-anchor="middle">degrees</text>
<text class="panel-title" x="70" y="632">Pitch disturbance while moving</text>
<line class="grid" x1="70" y1="874.00" x2="956" y2="874.00"/>
<text class="label" x="62" y="878.00" text-anchor="end">-0.3</text>
<line class="grid" x1="70" y1="816.50" x2="956" y2="816.50"/>
<text class="label" x="62" y="820.50" text-anchor="end">-0.1</text>
<line class="grid" x1="70" y1="759.00" x2="956" y2="759.00"/>
<text class="label" x="62" y="763.00" text-anchor="end">0.1</text>
<line class="grid" x1="70" y1="701.50" x2="956" y2="701.50"/>
<text class="label" x="62" y="705.50" text-anchor="end">0.4</text>
<line class="grid" x1="70" y1="644.00" x2="956" y2="644.00"/>
<text class="label" x="62" y="648.00" text-anchor="end">0.6</text>
<line class="grid" x1="70.00" y1="644" x2="70.00" y2="874"/>
<line class="grid" x1="217.67" y1="644" x2="217.67" y2="874"/>
<line class="grid" x1="365.33" y1="644" x2="365.33" y2="874"/>
<line class="grid" x1="513.00" y1="644" x2="513.00" y2="874"/>
<line class="grid" x1="660.67" y1="644" x2="660.67" y2="874"/>
<line class="grid" x1="808.33" y1="644" x2="808.33" y2="874"/>
<line class="grid" x1="956.00" y1="644" x2="956.00" y2="874"/>
<line x1="300.07" y1="644" x2="300.07" y2="874" stroke="#20242a" stroke-width="1.2" opacity="0.55"/>
<line x1="333.64" y1="644" x2="333.64" y2="874" stroke="#6b7280" stroke-width="1.2" opacity="0.55"/>
<line x1="386.77" y1="644" x2="386.77" y2="874" stroke="#6b7280" stroke-width="1.2" opacity="0.55"/>
<line x1="685.66" y1="644" x2="685.66" y2="874" stroke="#1769aa" stroke-width="1.2" opacity="0.55"/>
<line x1="694.88" y1="644" x2="694.88" y2="874" stroke="#c94f2d" stroke-width="1.2" opacity="0.55"/>
<path d="M 95.53,798.68 L 103.30,787.22 L 111.83,811.62 L 121.04,836.44 L 129.00,817.34 L 138.47,838.15 L 145.80,850.41 L 154.80,826.64 L 163.43,841.34 L 171.83,817.57 L 181.37,818.06 L 197.93,797.82 L 204.46,810.53 L 215.24,792.70 L 220.90,784.20 L 230.73,790.60 L 238.71,773.62 L 247.36,795.11 L 254.79,798.62 L 263.22,783.76 L 272.11,806.10 L 290.15,806.40 L 298.81,789.84 L 305.29,800.19 L 313.60,804.73 L 322.21,787.75 L 331.56,801.66 L 339.34,784.25 L 347.84,793.33 L 357.20,775.49 L 364.92,770.75 L 373.69,754.61 L 389.70,726.17 L 409.59,705.79 L 416.17,699.00 L 425.90,694.33 L 433.06,690.93 L 441.05,687.96 L 457.46,683.72 L 482.88,678.62 L 491.24,677.35 L 509.03,675.23 L 516.51,673.95 L 525.86,672.68 L 533.60,671.83 L 545.03,670.98 L 553.04,670.56 L 558.81,670.13 L 575.44,669.28 L 584.14,669.28 L 601.30,668.86 L 617.61,668.43 L 626.75,668.43 L 634.87,668.43 L 643.59,668.01 L 651.88,668.01 L 661.70,668.01 L 668.30,668.01 L 685.66,667.59 L 693.57,667.59 L 710.46,667.59 L 720.69,667.59 L 727.11,667.59 L 736.48,667.59 L 746.02,667.59 L 753.41,667.59 L 762.06,667.59 L 769.30,667.59 L 778.22,667.59 L 787.00,667.59 L 796.41,667.59 L 803.17,667.59 L 811.97,667.59 L 820.00,667.59 L 828.47,667.59 L 837.55,667.59 L 847.12,667.59 L 855.73,667.59 L 866.71,667.59 L 872.12,667.59 L 879.44,667.59 L 887.74,667.59 L 898.21,667.59 L 904.32,667.59 L 914.33,667.59 L 922.38,667.59 L 929.54,667.59" fill="none" stroke="#1769aa" stroke-width="2"/>
<path d="M 95.53,792.70 L 103.30,792.70 L 111.83,792.70 L 121.04,792.70 L 129.00,792.70 L 138.47,792.70 L 145.80,792.70 L 154.80,792.70 L 163.43,792.70 L 171.83,792.70 L 181.37,792.70 L 197.93,792.70 L 204.46,792.70 L 215.24,792.70 L 220.90,792.70 L 230.73,792.70 L 238.71,792.70 L 247.36,792.70 L 254.79,792.70 L 263.22,792.70 L 272.11,792.70 L 290.15,792.70 L 298.81,792.70 L 305.29,792.70 L 313.60,792.70 L 322.21,792.70 L 331.56,792.70 L 339.34,792.70 L 347.84,792.70 L 357.20,792.70 L 364.92,792.70 L 373.69,792.70 L 389.70,792.70 L 409.59,792.70 L 416.17,792.70 L 425.90,792.70 L 433.06,792.70 L 441.05,792.70 L 457.46,792.70 L 482.88,792.70 L 491.24,792.70 L 509.03,792.70 L 516.51,792.70 L 525.86,792.70 L 533.60,792.70 L 545.03,792.70 L 553.04,792.70 L 558.81,792.70 L 575.44,792.70 L 584.14,792.70 L 601.30,792.70 L 617.61,792.70 L 626.75,792.70 L 634.87,792.70 L 643.59,792.70 L 651.88,792.70 L 661.70,792.70 L 668.30,792.70 L 685.66,792.70 L 693.57,792.70 L 710.46,792.70 L 720.69,792.70 L 727.11,792.70 L 736.48,792.70 L 746.02,792.70 L 753.41,792.70 L 762.06,792.70 L 769.30,792.70 L 778.22,792.70 L 787.00,792.70 L 796.41,792.70 L 803.17,792.70 L 811.97,792.70 L 820.00,792.70 L 828.47,792.70 L 837.55,792.70 L 847.12,792.70 L 855.73,792.70 L 866.71,792.70 L 872.12,792.70 L 879.44,792.70 L 887.74,792.70 L 898.21,792.70 L 904.32,792.70 L 914.33,792.70 L 922.38,792.70 L 929.54,792.70" fill="none" stroke="#8a94a3" stroke-width="2" stroke-dasharray="6 4"/>
<line class="axis" x1="70" y1="874" x2="956" y2="874"/>
<line class="axis" x1="70" y1="644" x2="70" y2="874"/>
<text class="label" x="18" y="759.00" transform="rotate(-90 18 759.00)" text-anchor="middle">degrees</text>
<text class="panel-title" x="70" y="900">Yaw disturbance while moving</text>
<line class="grid" x1="70" y1="1142.00" x2="956" y2="1142.00"/>
<text class="label" x="62" y="1146.00" text-anchor="end">-0.6</text>
<line class="grid" x1="70" y1="1084.50" x2="956" y2="1084.50"/>
<text class="label" x="62" y="1088.50" text-anchor="end">-0.4</text>
<line class="grid" x1="70" y1="1027.00" x2="956" y2="1027.00"/>
<text class="label" x="62" y="1031.00" text-anchor="end">-0.2</text>
<line class="grid" x1="70" y1="969.50" x2="956" y2="969.50"/>
<text class="label" x="62" y="973.50" text-anchor="end">-0.0</text>
<line class="grid" x1="70" y1="912.00" x2="956" y2="912.00"/>
<text class="label" x="62" y="916.00" text-anchor="end">0.2</text>
<line class="grid" x1="70.00" y1="912" x2="70.00" y2="1142"/>
<text class="label" x="70.00" y="1162" text-anchor="middle">-0.27</text>
<line class="grid" x1="217.67" y1="912" x2="217.67" y2="1142"/>
<text class="label" x="217.67" y="1162" text-anchor="middle">-0.10</text>
<line class="grid" x1="365.33" y1="912" x2="365.33" y2="1142"/>
<text class="label" x="365.33" y="1162" text-anchor="middle">0.08</text>
<line class="grid" x1="513.00" y1="912" x2="513.00" y2="1142"/>
<text class="label" x="513.00" y="1162" text-anchor="middle">0.25</text>
<line class="grid" x1="660.67" y1="912" x2="660.67" y2="1142"/>
<text class="label" x="660.67" y="1162" text-anchor="middle">0.43</text>
<line class="grid" x1="808.33" y1="912" x2="808.33" y2="1142"/>
<text class="label" x="808.33" y="1162" text-anchor="middle">0.60</text>
<line class="grid" x1="956.00" y1="912" x2="956.00" y2="1142"/>
<text class="label" x="956.00" y="1162" text-anchor="middle">0.78</text>
<line x1="300.07" y1="912" x2="300.07" y2="1142" stroke="#20242a" stroke-width="1.2" opacity="0.55"/>
<line x1="333.64" y1="912" x2="333.64" y2="1142" stroke="#6b7280" stroke-width="1.2" opacity="0.55"/>
<line x1="386.77" y1="912" x2="386.77" y2="1142" stroke="#6b7280" stroke-width="1.2" opacity="0.55"/>
<line x1="685.66" y1="912" x2="685.66" y2="1142" stroke="#1769aa" stroke-width="1.2" opacity="0.55"/>
<line x1="694.88" y1="912" x2="694.88" y2="1142" stroke="#c94f2d" stroke-width="1.2" opacity="0.55"/>
<path d="M 95.08,978.41 L 105.46,996.88 L 113.22,979.66 L 120.49,987.69 L 137.19,966.12 L 145.36,964.53 L 153.68,949.60 L 162.04,965.07 L 170.44,951.29 L 179.59,957.77 L 188.17,959.87 L 196.29,948.40 L 206.48,953.64 L 214.20,943.89 L 221.51,954.53 L 237.73,952.88 L 246.36,971.82 L 255.44,988.36 L 265.43,973.43 L 281.53,974.11 L 288.95,987.86 L 297.19,965.47 L 305.74,978.52 L 314.29,986.07 L 322.67,967.71 L 330.99,980.01 L 340.59,963.37 L 348.36,965.55 L 366.64,967.73 L 375.55,986.52 L 382.49,978.48 L 390.13,980.45 L 398.77,965.52 L 415.62,1004.70 L 432.20,990.55 L 440.45,1000.03 L 451.91,978.22 L 458.00,997.36 L 466.60,978.42 L 474.61,990.03 L 482.46,1006.15 L 495.02,986.07 L 499.50,964.83 L 507.83,993.90 L 517.69,997.14 L 524.82,1021.64 L 536.16,998.68 L 542.58,1022.29 L 554.43,1002.21 L 559.45,1013.17 L 568.65,1022.59 L 576.26,995.61 L 585.63,969.21 L 593.16,1007.45 L 600.72,1007.62 L 610.65,1025.45 L 618.05,1003.07 L 626.17,1019.10 L 642.93,1010.89 L 651.33,1030.03 L 668.86,1026.16 L 678.17,1040.48 L 685.17,1012.94 L 694.88,1041.73 L 703.53,1018.20 L 711.58,1040.10 L 727.61,1044.24 L 745.03,1029.97 L 763.29,1032.26 L 769.81,1044.80 L 781.07,1040.09 L 790.12,1009.10 L 795.47,1039.77 L 804.48,1057.63 L 815.48,1025.49 L 821.04,1058.29 L 828.91,1033.04 L 837.07,1055.17 L 845.73,1023.60 L 854.87,1050.65 L 863.89,1012.77 L 870.59,1067.04 L 880.34,1099.58 L 887.31,1059.41 L 896.55,1087.30 L 904.91,1110.11 L 912.96,1070.51 L 921.54,1102.19 L 930.92,1060.87" fill="none" stroke="#c94f2d" stroke-width="2"/>
<path d="M 95.08,963.17 L 105.46,963.17 L 113.22,963.17 L 120.49,963.17 L 137.19,963.17 L 145.36,963.17 L 153.68,963.17 L 162.04,963.17 L 170.44,963.17 L 179.59,963.17 L 188.17,963.17 L 196.29,963.17 L 206.48,963.17 L 214.20,963.17 L 221.51,963.17 L 237.73,963.17 L 246.36,963.17 L 255.44,963.17 L 265.43,963.17 L 281.53,963.17 L 288.95,963.17 L 297.19,963.17 L 305.74,963.17 L 314.29,963.17 L 322.67,963.17 L 330.99,963.17 L 340.59,963.17 L 348.36,963.17 L 366.64,963.17 L 375.55,963.17 L 382.49,963.17 L 390.13,963.17 L 398.77,963.17 L 415.62,963.17 L 432.20,963.17 L 440.45,963.17 L 451.91,963.17 L 458.00,963.17 L 466.60,963.17 L 474.61,963.17 L 482.46,963.17 L 495.02,963.17 L 499.50,963.17 L 507.83,963.17 L 517.69,963.17 L 524.82,963.17 L 536.16,963.17 L 542.58,963.17 L 554.43,963.17 L 559.45,963.17 L 568.65,963.17 L 576.26,963.17 L 585.63,963.17 L 593.16,963.17 L 600.72,963.17 L 610.65,963.17 L 618.05,963.17 L 626.17,963.17 L 642.93,963.17 L 651.33,963.17 L 668.86,963.17 L 678.17,963.17 L 685.17,963.17 L 694.88,963.17 L 703.53,963.17 L 711.58,963.17 L 727.61,963.17 L 745.03,963.17 L 763.29,963.17 L 769.81,963.17 L 781.07,963.17 L 790.12,963.17 L 795.47,963.17 L 804.48,963.17 L 815.48,963.17 L 821.04,963.17 L 828.91,963.17 L 837.07,963.17 L 845.73,963.17 L 854.87,963.17 L 863.89,963.17 L 870.59,963.17 L 880.34,963.17 L 887.31,963.17 L 896.55,963.17 L 904.91,963.17 L 912.96,963.17 L 921.54,963.17 L 930.92,963.17" fill="none" stroke="#8a94a3" stroke-width="2" stroke-dasharray="6 4"/>
<line class="axis" x1="70" y1="1142" x2="956" y2="1142"/>
<line class="axis" x1="70" y1="912" x2="70" y2="1142"/>
<text class="label" x="18" y="1027.00" transform="rotate(-90 18 1027.00)" text-anchor="middle">degrees</text>
<text class="label" x="513.0" y="1178" text-anchor="middle">time relative to event (s)</text>
</svg>