<svg xmlns="http://www.w3.org/2000/svg" viewBox="0 0 980 1186" role="img">
<style>
.axis{stroke:#718096;stroke-width:1}.grid{stroke:#e5eaf0;stroke-width:1}.label{font:12px sans-serif;fill:#5a6675}.title{font:700 18px sans-serif;fill:#20242a}.subtitle{font:12px sans-serif;fill:#5a6675}.panel-title{font:700 13px sans-serif;fill:#20242a}
</style>
<rect width="980" height="1186" fill="#ffffff"/>
<text class="title" x="70" y="28">Motion disturbance example 9: event 264</text>
<text class="subtitle" x="70" y="50">Start pitch 1.2 deg, yaw -0.5 deg; target motion 7.4 deg; disturbance vector 2.66 deg.</text>
<line x1="70" y1="76" x2="94" y2="76" stroke="#48525f" stroke-width="2" stroke-dasharray="6 4"/>
<text class="label" x="100" y="80">target</text>
<line x1="200" y1="76" x2="224" y2="76" stroke="#1769aa" stroke-width="2"/>
<text class="label" x="230" y="80">pitch actual</text>
<line x1="338" y1="76" x2="362" y2="76" stroke="#c94f2d" stroke-width="2"/>
<text class="label" x="368" y="80">yaw actual</text>
<line x1="468" y1="76" x2="492" y2="76" stroke="#1769aa" stroke-width="2"/>
<text class="label" x="498" y="80">pitch disturbance</text>
<line x1="641" y1="76" x2="665" y2="76" stroke="#8a94a3" stroke-width="2" stroke-dasharray="6 4"/>
<text class="label" x="671" y="80">zero baseline</text>
<line x1="786" y1="76" x2="810" y2="76" stroke="#c94f2d" stroke-width="2"/>
<text class="label" x="816" y="80">yaw disturbance</text>
<text class="panel-title" x="70" y="96">Pitch position</text>
<line class="grid" x1="70" y1="338.00" x2="956" y2="338.00"/>
<text class="label" x="62" y="342.00" text-anchor="end">-1.0</text>
<line class="grid" x1="70" y1="280.50" x2="956" y2="280.50"/>
<text class="label" x="62" y="284.50" text-anchor="end">1.6</text>
<line class="grid" x1="70" y1="223.00" x2="956" y2="223.00"/>
<text class="label" x="62" y="227.00" text-anchor="end">4.3</text>
<line class="grid" x1="70" y1="165.50" x2="956" y2="165.50"/>
<text class="label" x="62" y="169.50" text-anchor="end">7.0</text>
<line class="grid" x1="70" y1="108.00" x2="956" y2="108.00"/>
<text class="label" x="62" y="112.00" text-anchor="end">9.7</text>
<line class="grid" x1="70.00" y1="108" x2="70.00" y2="338"/>
<line class="grid" x1="217.67" y1="108" x2="217.67" y2="338"/>
<line class="grid" x1="365.33" y1="108" x2="365.33" y2="338"/>
<line class="grid" x1="513.00" y1="108" x2="513.00" y2="338"/>
<line class="grid" x1="660.67" y1="108" x2="660.67" y2="338"/>
<line class="grid" x1="808.33" y1="108" x2="808.33" y2="338"/>
<line class="grid" x1="956.00" y1="108" x2="956.00" y2="338"/>
<line x1="305.48" y1="108" x2="305.48" y2="338" stroke="#20242a" stroke-width="1.2" opacity="0.55"/>
<text class="label" x="309.48" y="120.00" transform="rotate(-35 309.48 120.00)">fire</text>
<line x1="339.70" y1="108" x2="339.70" y2="338" stroke="#6b7280" stroke-width="1.2" opacity="0.55"/>
<text class="label" x="343.70" y="120.00" transform="rotate(-35 343.70 120.00)">muzzle</text>
<line x1="469.91" y1="108" x2="469.91" y2="338" stroke="#6b7280" stroke-width="1.2" opacity="0.55"/>
<text class="label" x="473.91" y="120.00" transform="rotate(-35 473.91 120.00)">impact</text>
<line x1="432.92" y1="108" x2="432.92" y2="338" stroke="#1769aa" stroke-width="1.2" opacity="0.55"/>
<text class="label" x="436.92" y="120.00" transform="rotate(-35 436.92 120.00)">pitch peak</text>
<line x1="678.50" y1="108" x2="678.50" y2="338" stroke="#c94f2d" stroke-width="1.2" opacity="0.55"/>
<text class="label" x="682.50" y="120.00" transform="rotate(-35 682.50 120.00)">yaw peak</text>
<path d="M 95.47,315.72 L 104.43,315.72 L 112.63,315.72 L 120.90,315.72 L 129.03,315.72 L 149.37,315.72 L 155.23,315.72 L 162.82,315.72 L 172.30,315.72 L 179.59,315.72 L 188.64,315.72 L 196.90,315.72 L 205.08,315.72 L 214.80,315.72 L 222.81,284.79 L 231.24,284.79 L 240.00,282.69 L 249.37,282.69 L 256.57,279.94 L 264.75,277.86 L 272.57,277.86 L 283.12,274.14 L 289.95,274.14 L 297.82,270.69 L 315.43,270.25 L 324.46,268.69 L 333.52,268.69 L 340.66,267.06 L 348.26,267.06 L 358.64,265.05 L 365.30,263.75 L 374.36,261.48 L 382.31,261.48 L 400.44,258.27 L 408.79,255.28 L 415.90,255.28 L 425.60,255.28 L 432.92,234.79 L 441.23,234.79 L 450.38,234.79 L 467.93,221.51 L 476.28,218.81 L 486.09,221.74 L 494.51,226.26 L 500.04,226.26 L 509.59,226.26 L 518.28,226.26 L 527.42,226.26 L 534.06,225.41 L 551.35,223.70 L 559.45,223.70 L 567.80,223.70 L 577.55,218.01 L 593.49,197.96 L 601.76,197.96 L 612.02,197.96 L 619.31,198.20 L 626.80,198.20 L 635.28,198.20 L 647.12,198.20 L 652.62,194.49 L 661.96,193.14 L 675.18,192.89 L 686.42,191.99 L 695.31,190.22 L 714.10,186.31 L 720.64,186.31 L 737.31,183.77 L 745.13,183.77 L 754.90,179.93 L 763.51,176.63 L 776.42,173.25 L 778.84,170.06 L 788.24,170.06 L 796.77,165.23 L 803.88,160.38 L 812.24,160.38 L 820.90,153.22 L 829.20,153.22 L 840.18,153.22 L 846.45,147.07 L 854.66,147.07 L 863.14,147.07 L 871.75,147.07 L 880.42,142.12 L 888.28,139.96 L 898.19,139.96 L 905.20,136.87 L 914.27,134.13 L 923.11,132.40 L 930.92,130.26" fill="none" stroke="#48525f" stroke-width="2" stroke-dasharray="6 4"/>
<path d="M 95.47,315.70 L 104.43,315.70 L 112.63,315.70 L 120.90,315.70 L 129.03,315.70 L 149.37,315.70 L 155.23,315.70 L 162.82,315.74 L 172.30,315.70 L 179.59,315.70 L 188.64,315.70 L 196.90,315.70 L 205.08,315.70 L 214.80,315.70 L 222.81,315.70 L 231.24,315.70 L 240.00,315.51 L 249.37,314.46 L 256.57,311.83 L 264.75,307.72 L 272.57,303.31 L 283.12,298.54 L 289.95,293.89 L 297.82,289.48 L 315.43,283.70 L 324.46,281.57 L 333.52,279.71 L 340.66,277.93 L 348.26,299.90 L 358.64,303.54 L 365.30,299.12 L 374.36,300.59 L 382.31,293.66 L 400.44,294.05 L 408.79,301.14 L 415.90,308.73 L 425.60,308.15 L 432.92,303.54 L 441.23,296.18 L 450.38,287.00 L 467.93,272.39 L 476.28,263.44 L 486.09,253.49 L 494.51,244.38 L 500.04,238.92 L 509.59,235.78 L 518.28,233.85 L 527.42,234.43 L 534.06,234.81 L 551.35,233.19 L 559.45,232.30 L 567.80,231.56 L 577.55,230.63 L 593.49,228.27 L 601.76,227.07 L 612.02,225.40 L 619.31,222.61 L 626.80,218.97 L 635.28,215.17 L 647.12,211.69 L 652.62,208.32 L 661.96,205.33 L 675.18,203.28 L 686.42,201.88 L 695.31,199.52 L 714.10,197.16 L 720.64,196.03 L 737.31,194.25 L 745.13,193.17 L 754.90,191.73 L 763.51,190.34 L 776.42,188.79 L 778.84,187.28 L 788.24,185.15 L 796.77,182.86 L 803.88,180.58 L 812.24,178.10 L 820.90,175.43 L 829.20,172.71 L 840.18,169.73 L 846.45,166.55 L 854.66,163.76 L 863.14,161.25 L 871.75,159.00 L 880.42,156.83 L 888.28,155.01 L 898.19,153.07 L 905.20,151.02 L 914.27,148.97 L 923.11,147.07 L 930.92,145.01" fill="none" stroke="#1769aa" stroke-width="2"/>
<line class="axis" x1="70" y1="338" x2="956" y2="338"/>
<line class="axis" x1="70" y1="108" x2="70" y2="338"/>
<text class="label" x="18" y="223.00" transform="rotate(-90 18 223.00)" text-anchor="middle">degrees</text>
<text class="panel-title" x="70" y="364">Yaw position</text>
<line class="grid" x1="70" y1="606.00" x2="956" y2="606.00"/>
<text class="label" x="62" y="610.00" text-anchor="end">-7.8</text>
<line class="grid" x1="70" y1="548.50" x2="956" y2="548.50"/>
<text class="label" x="62" y="552.50" text-anchor="end">-5.5</text>
<line class="grid" x1="70" y1="491.00" x2="956" y2="491.00"/>
<text class="label" x="62" y="495.00" text-anchor="end">-3.3</text>
<line class="grid" x1="70" y1="433.50" x2="956" y2="433.50"/>
<text class="label" x="62" y="437.50" text-anchor="end">-1.0</text>
<line class="grid" x1="70" y1="376.00" x2="956" y2="376.00"/>
<text class="label" x="62" y="380.00" text-anchor="end">1.2</text>
<line class="grid" x1="70.00" y1="376" x2="70.00" y2="606"/>
<line class="grid" x1="217.67" y1="376" x2="217.67" y2="606"/>
<line class="grid" x1="365.33" y1="376" x2="365.33" y2="606"/>
<line class="grid" x1="513.00" y1="376" x2="513.00" y2="606"/>
<line class="grid" x1="660.67" y1="376" x2="660.67" y2="606"/>
<line class="grid" x1="808.33" y1="376" x2="808.33" y2="606"/>
<line class="grid" x1="956.00" y1="376" x2="956.00" y2="606"/>
<line x1="305.48" y1="376" x2="305.48" y2="606" stroke="#20242a" stroke-width="1.2" opacity="0.55"/>
<line x1="339.70" y1="376" x2="339.70" y2="606" stroke="#6b7280" stroke-width="1.2" opacity="0.55"/>
<line x1="469.91" y1="376" x2="469.91" y2="606" stroke="#6b7280" stroke-width="1.2" opacity="0.55"/>
<line x1="432.92" y1="376" x2="432.92" y2="606" stroke="#1769aa" stroke-width="1.2" opacity="0.55"/>
<line x1="678.50" y1="376" x2="678.50" y2="606" stroke="#c94f2d" stroke-width="1.2" opacity="0.55"/>
<path d="M 95.08,431.55 L 106.72,431.55 L 113.43,430.81 L 122.88,430.81 L 129.54,430.75 L 138.42,430.75 L 146.42,430.31 L 156.20,429.64 L 164.45,429.61 L 171.76,429.61 L 180.02,429.48 L 190.91,429.48 L 198.03,428.97 L 206.36,428.97 L 214.14,428.68 L 222.10,422.27 L 232.83,422.27 L 239.39,421.96 L 247.81,421.96 L 256.10,421.65 L 274.66,420.76 L 281.09,420.60 L 291.26,420.60 L 298.81,422.64 L 306.82,422.64 L 318.66,423.68 L 323.61,424.19 L 332.19,424.19 L 341.19,424.27 L 349.10,424.27 L 357.24,424.03 L 366.55,423.40 L 373.56,423.24 L 382.82,423.24 L 391.36,423.02 L 398.96,423.02 L 408.34,422.81 L 417.37,422.81 L 424.74,422.81 L 433.44,416.77 L 441.73,416.77 L 453.84,416.77 L 458.95,412.55 L 469.38,407.44 L 484.00,402.89 L 493.24,398.26 L 500.47,398.26 L 508.61,398.26 L 537.08,400.36 L 543.02,399.91 L 550.88,415.73 L 559.93,415.73 L 568.35,415.73 L 576.29,426.16 L 587.78,426.16 L 593.05,407.51 L 602.19,407.51 L 613.64,407.51 L 618.42,430.53 L 627.33,430.53 L 635.91,430.53 L 648.28,430.53 L 654.53,448.24 L 663.61,448.78 L 669.98,463.32 L 678.50,477.72 L 688.78,477.72 L 694.41,489.27 L 703.72,489.27 L 728.95,505.68 L 740.98,507.92 L 746.17,507.92 L 753.58,495.46 L 767.22,503.04 L 770.99,506.25 L 780.63,518.55 L 787.07,518.55 L 797.71,528.82 L 804.49,537.23 L 812.67,537.23 L 821.79,553.40 L 829.77,553.40 L 843.09,553.40 L 847.25,560.12 L 855.11,560.12 L 863.67,560.12 L 872.97,559.75 L 881.87,562.32 L 888.74,562.32 L 897.19,562.32 L 907.65,569.49 L 915.33,572.86 L 922.23,578.53 L 930.46,583.74" fill="none" stroke="#48525f" stroke-width="2" stroke-dasharray="6 4"/>
<path d="M 95.08,433.41 L 106.72,433.09 L 113.43,432.77 L 122.88,432.40 L 129.54,431.99 L 138.42,431.67 L 146.42,431.39 L 156.20,431.12 L 164.45,430.79 L 171.76,430.47 L 180.02,430.24 L 190.91,430.06 L 198.03,429.88 L 206.36,429.74 L 214.14,429.60 L 222.10,429.42 L 232.83,429.14 L 239.39,428.04 L 247.81,426.94 L 256.10,425.47 L 274.66,422.95 L 281.09,422.03 L 291.26,421.11 L 298.81,420.38 L 306.82,420.24 L 318.66,420.52 L 323.61,421.07 L 332.19,421.76 L 341.19,422.40 L 349.10,446.53 L 357.24,452.45 L 366.55,468.74 L 373.56,464.38 L 382.82,457.95 L 391.36,448.23 L 398.96,439.92 L 408.34,433.96 L 417.37,431.35 L 424.74,428.68 L 433.44,425.61 L 441.73,423.18 L 453.84,423.32 L 458.95,424.14 L 469.38,423.18 L 484.00,417.72 L 493.24,414.00 L 500.47,410.38 L 508.61,406.71 L 537.08,399.41 L 543.02,399.09 L 550.88,399.23 L 559.93,399.96 L 568.35,402.30 L 576.29,404.83 L 587.78,408.08 L 593.05,412.17 L 602.19,416.39 L 613.64,417.90 L 618.42,418.50 L 627.33,418.04 L 635.91,417.40 L 648.28,417.58 L 654.53,417.67 L 663.61,420.01 L 669.98,424.74 L 678.50,431.12 L 688.78,439.60 L 694.41,449.28 L 703.72,459.28 L 728.95,484.70 L 740.98,489.61 L 746.17,493.33 L 753.58,496.17 L 767.22,497.23 L 770.99,497.09 L 780.63,497.78 L 787.07,499.47 L 797.71,501.58 L 804.49,505.12 L 812.67,510.16 L 821.79,517.64 L 829.77,525.90 L 843.09,534.66 L 847.25,542.42 L 855.11,548.43 L 863.67,553.43 L 872.97,555.90 L 881.87,556.96 L 888.74,557.10 L 897.19,557.65 L 907.65,558.15 L 915.33,559.07 L 922.23,560.72 L 930.46,563.75" fill="none" stroke="#c94f2d" stroke-width="2"/>
<line class="axis" x1="70" y1="606" x2="956" y2="606"/>
<line class="axis" x1="70" y1="376" x2="70" y2="606"/>
<text class="label" x="18" y="491.00" transform="rotate(-90 18 491.00)" text-anchor="middle">degrees</text>
<text class="panel-title" x="70" y="632">Pitch disturbance while moving</text>
<line class="grid" x1="70" y1="874.00" x2="956" y2="874.00"/>
<text class="label" x="62" y="878.00" text-anchor="end">-2.2</text>
<line class="grid" x1="70" y1="816.50" x2="956" y2="816.50"/>
<text class="label" x="62" y="820.50" text-anchor="end">-1.2</text>
<line class="grid" x1="70" y1="759.00" x2="956" y2="759.00"/>
<text class="label" x="62" y="763.00" text-anchor="end">-0.2</text>
<line class="grid" x1="70" y1="701.50" x2="956" y2="701.50"/>
<text class="label" x="62" y="705.50" text-anchor="end">0.8</text>
<line class="grid" x1="70" y1="644.00" x2="956" y2="644.00"/>
<text class="label" x="62" y="648.00" text-anchor="end">1.8</text>
<line class="grid" x1="70.00" y1="644" x2="70.00" y2="874"/>
<line class="grid" x1="217.67" y1="644" x2="217.67" y2="874"/>
<line class="grid" x1="365.33" y1="644" x2="365.33" y2="874"/>
<line class="grid" x1="513.00" y1="644" x2="513.00" y2="874"/>
<line class="grid" x1="660.67" y1="644" x2="660.67" y2="874"/>
<line class="grid" x1="808.33" y1="644" x2="808.33" y2="874"/>
<line class="grid" x1="956.00" y1="644" x2="956.00" y2="874"/>
<line x1="305.48" y1="644" x2="305.48" y2="874" stroke="#20242a" stroke-width="1.2" opacity="0.55"/>
<line x1="339.70" y1="644" x2="339.70" y2="874" stroke="#6b7280" stroke-width="1.2" opacity="0.55"/>
<line x1="469.91" y1="644" x2="469.91" y2="874" stroke="#6b7280" stroke-width="1.2" opacity="0.55"/>
<line x1="432.92" y1="644" x2="432.92" y2="874" stroke="#1769aa" stroke-width="1.2" opacity="0.55"/>
<line x1="678.50" y1="644" x2="678.50" y2="874" stroke="#c94f2d" stroke-width="1.2" opacity="0.55"/>
<path d="M 95.47,666.26 L 104.43,666.26 L 112.63,666.26 L 120.90,666.26 L 129.03,666.26 L 149.37,666.26 L 155.23,666.26 L 162.82,666.36 L 172.30,666.26 L 179.59,666.26 L 188.64,666.26 L 196.90,666.26 L 205.08,666.26 L 214.80,666.26 L 222.81,749.67 L 231.24,749.67 L 240.00,754.82 L 249.37,751.99 L 256.57,752.31 L 264.75,746.86 L 272.57,734.95 L 283.12,732.11 L 289.95,719.57 L 297.82,716.97 L 315.43,702.59 L 324.46,701.06 L 333.52,696.04 L 340.66,695.63 L 348.26,754.87 L 358.64,770.12 L 365.30,761.70 L 374.36,771.79 L 382.31,753.09 L 400.44,762.79 L 408.79,790.00 L 415.90,810.48 L 425.60,808.91 L 432.92,851.74 L 441.23,831.89 L 450.38,807.12 L 467.93,803.55 L 476.28,786.69 L 486.09,751.94 L 494.51,715.19 L 500.04,700.46 L 509.59,692.00 L 518.28,686.77 L 527.42,688.34 L 534.06,691.67 L 551.35,691.89 L 559.45,689.49 L 567.80,687.50 L 577.55,700.34 L 593.49,748.04 L 601.76,744.80 L 612.02,740.31 L 619.31,732.13 L 626.80,722.31 L 635.28,712.07 L 647.12,702.67 L 652.62,703.59 L 661.96,699.18 L 675.18,694.31 L 686.42,692.98 L 695.31,691.39 L 714.10,695.55 L 720.64,692.52 L 737.31,694.58 L 745.13,691.66 L 754.90,698.15 L 763.51,703.28 L 776.42,708.20 L 778.84,712.74 L 788.24,706.99 L 796.77,713.87 L 803.88,720.77 L 812.24,714.08 L 820.90,726.20 L 829.20,718.88 L 840.18,710.84 L 846.45,718.86 L 854.66,711.33 L 863.14,704.54 L 871.75,698.48 L 880.42,705.97 L 888.28,706.90 L 898.19,701.67 L 905.20,704.47 L 914.27,706.32 L 923.11,705.86 L 930.92,706.10" fill="none" stroke="#1769aa" stroke-width="2"/>
<path d="M 95.47,748.26 L 104.43,748.26 L 112.63,748.26 L 120.90,748.26 L 129.03,748.26 L 149.37,748.26 L 155.23,748.26 L 162.82,748.26 L 172.30,748.26 L 179.59,748.26 L 188.64,748.26 L 196.90,748.26 L 205.08,748.26 L 214.80,748.26 L 222.81,748.26 L 231.24,748.26 L 240.00,748.26 L 249.37,748.26 L 256.57,748.26 L 264.75,748.26 L 272.57,748.26 L 283.12,748.26 L 289.95,748.26 L 297.82,748.26 L 315.43,748.26 L 324.46,748.26 L 333.52,748.26 L 340.66,748.26 L 348.26,748.26 L 358.64,748.26 L 365.30,748.26 L 374.36,748.26 L 382.31,748.26 L 400.44,748.26 L 408.79,748.26 L 415.90,748.26 L 425.60,748.26 L 432.92,748.26 L 441.23,748.26 L 450.38,748.26 L 467.93,748.26 L 476.28,748.26 L 486.09,748.26 L 494.51,748.26 L 500.04,748.26 L 509.59,748.26 L 518.28,748.26 L 527.42,748.26 L 534.06,748.26 L 551.35,748.26 L 559.45,748.26 L 567.80,748.26 L 577.55,748.26 L 593.49,748.26 L 601.76,748.26 L 612.02,748.26 L 619.31,748.26 L 626.80,748.26 L 635.28,748.26 L 647.12,748.26 L 652.62,748.26 L 661.96,748.26 L 675.18,748.26 L 686.42,748.26 L 695.31,748.26 L 714.10,748.26 L 720.64,748.26 L 737.31,748.26 L 745.13,748.26 L 754.90,748.26 L 763.51,748.26 L 776.42,748.26 L 778.84,748.26 L 788.24,748.26 L 796.77,748.26 L 803.88,748.26 L 812.24,748.26 L 820.90,748.26 L 829.20,748.26 L 840.18,748.26 L 846.45,748.26 L 854.66,748.26 L 863.14,748.26 L 871.75,748.26 L 880.42,748.26 L 888.28,748.26 L 898.19,748.26 L 905.20,748.26 L 914.27,748.26 L 923.11,748.26 L 930.92,748.26" fill="none" stroke="#8a94a3" stroke-width="2" stroke-dasharray="6 4"/>
<line class="axis" x1="70" y1="874" x2="956" y2="874"/>
<line class="axis" x1="70" y1="644" x2="70" y2="874"/>
<text class="label" x="18" y="759.00" transform="rotate(-90 18 759.00)" text-anchor="middle">degrees</text>
<text class="panel-title" x="70" y="900">Yaw disturbance while moving</text>
<line class="grid" x1="70" y1="1142.00" x2="956" y2="1142.00"/>
<text class="label" x="62" y="1146.00" text-anchor="end">-2.1</text>
<line class="grid" x1="70" y1="1084.50" x2="956" y2="1084.50"/>
<text class="label" x="62" y="1088.50" text-anchor="end">-0.9</text>
<line class="grid" x1="70" y1="1027.00" x2="956" y2="1027.00"/>
<text class="label" x="62" y="1031.00" text-anchor="end">0.2</text>
<line class="grid" x1="70" y1="969.50" x2="956" y2="969.50"/>
<text class="label" x="62" y="973.50" text-anchor="end">1.3</text>
<line class="grid" x1="70" y1="912.00" x2="956" y2="912.00"/>
<text class="label" x="62" y="916.00" text-anchor="end">2.4</text>
<line class="grid" x1="70.00" y1="912" x2="70.00" y2="1142"/>
<text class="label" x="70.00" y="1162" text-anchor="middle">-0.28</text>
<line class="grid" x1="217.67" y1="912" x2="217.67" y2="1142"/>
<text class="label" x="217.67" y="1162" text-anchor="middle">-0.10</text>
<line class="grid" x1="365.33" y1="912" x2="365.33" y2="1142"/>
<text class="label" x="365.33" y="1162" text-anchor="middle">0.07</text>
<line class="grid" x1="513.00" y1="912" x2="513.00" y2="1142"/>
<text class="label" x="513.00" y="1162" text-anchor="middle">0.25</text>
<line class="grid" x1="660.67" y1="912" x2="660.67" y2="1142"/>
<text class="label" x="660.67" y="1162" text-anchor="middle">0.42</text>
<line class="grid" x1="808.33" y1="912" x2="808.33" y2="1142"/>
<text class="label" x="808.33" y="1162" text-anchor="middle">0.60</text>
<line class="grid" x1="956.00" y1="912" x2="956.00" y2="1142"/>
<text class="label" x="956.00" y="1162" text-anchor="middle">0.77</text>
<line x1="305.48" y1="912" x2="305.48" y2="1142" stroke="#20242a" stroke-width="1.2" opacity="0.55"/>
<line x1="339.70" y1="912" x2="339.70" y2="1142" stroke="#6b7280" stroke-width="1.2" opacity="0.55"/>
<line x1="469.91" y1="912" x2="469.91" y2="1142" stroke="#6b7280" stroke-width="1.2" opacity="0.55"/>
<line x1="432.92" y1="912" x2="432.92" y2="1142" stroke="#1769aa" stroke-width="1.2" opacity="0.55"/>
<line x1="678.50" y1="912" x2="678.50" y2="1142" stroke="#c94f2d" stroke-width="1.2" opacity="0.55"/>
<path d="M 95.08,1032.03 L 106.72,1031.38 L 113.43,1032.23 L 122.88,1031.49 L 129.54,1030.78 L 138.42,1030.13 L 146.42,1030.46 L 156.20,1031.25 L 164.45,1030.67 L 171.76,1030.02 L 180.02,1029.82 L 190.91,1029.45 L 198.03,1030.10 L 206.36,1029.82 L 214.14,1030.14 L 222.10,1042.69 L 232.83,1042.14 L 239.39,1040.54 L 247.81,1038.32 L 256.10,1035.98 L 274.66,1032.70 L 281.09,1031.16 L 291.26,1029.31 L 298.81,1023.72 L 306.82,1023.44 L 318.66,1021.90 L 323.61,1021.97 L 332.19,1023.36 L 341.19,1024.49 L 349.10,1073.18 L 357.24,1085.61 L 366.55,1119.74 L 373.56,1111.27 L 382.82,1098.31 L 391.36,1079.13 L 398.96,1062.38 L 408.34,1050.76 L 417.37,1045.49 L 424.74,1040.12 L 433.44,1046.11 L 441.73,1041.20 L 453.84,1041.48 L 458.95,1051.67 L 469.38,1060.03 L 484.00,1058.20 L 493.24,1060.04 L 500.47,1052.73 L 508.61,1045.32 L 537.08,1026.37 L 543.02,1026.63 L 550.88,995.00 L 559.93,996.48 L 568.35,1001.20 L 576.29,985.25 L 587.78,991.82 L 593.05,1037.67 L 602.19,1046.19 L 613.64,1049.24 L 618.42,1004.00 L 627.33,1003.07 L 635.91,1001.77 L 648.28,1002.14 L 654.53,966.60 L 663.61,970.24 L 669.98,950.44 L 678.50,934.26 L 688.78,951.38 L 694.41,947.61 L 703.72,967.79 L 728.95,985.95 L 740.98,991.34 L 746.17,998.84 L 753.58,1029.70 L 767.22,1016.55 L 770.99,1009.79 L 780.63,986.37 L 787.07,989.80 L 797.71,973.32 L 804.49,963.48 L 812.67,973.66 L 821.79,956.13 L 829.77,972.79 L 843.09,990.47 L 847.25,992.55 L 855.11,1004.68 L 863.67,1014.76 L 872.97,1020.52 L 881.87,1017.46 L 888.74,1017.74 L 897.19,1018.85 L 907.65,1005.40 L 915.33,1000.45 L 922.23,992.34 L 930.46,987.94" fill="none" stroke="#c94f2d" stroke-width="2"/>
<path d="M 95.08,1035.98 L 106.72,1035.98 L 113.43,1035.98 L 122.88,1035.98 L 129.54,1035.98 L 138.42,1035.98 L 146.42,1035.98 L 156.20,1035.98 L 164.45,1035.98 L 171.76,1035.98 L 180.02,1035.98 L 190.91,1035.98 L 198.03,1035.98 L 206.36,1035.98 L 214.14,1035.98 L 222.10,1035.98 L 232.83,1035.98 L 239.39,1035.98 L 247.81,1035.98 L 256.10,1035.98 L 274.66,1035.98 L 281.09,1035.98 L 291.26,1035.98 L 298.81,1035.98 L 306.82,1035.98 L 318.66,1035.98 L 323.61,1035.98 L 332.19,1035.98 L 341.19,1035.98 L 349.10,1035.98 L 357.24,1035.98 L 366.55,1035.98 L 373.56,1035.98 L 382.82,1035.98 L 391.36,1035.98 L 398.96,1035.98 L 408.34,1035.98 L 417.37,1035.98 L 424.74,1035.98 L 433.44,1035.98 L 441.73,1035.98 L 453.84,1035.98 L 458.95,1035.98 L 469.38,1035.98 L 484.00,1035.98 L 493.24,1035.98 L 500.47,1035.98 L 508.61,1035.98 L 537.08,1035.98 L 543.02,1035.98 L 550.88,1035.98 L 559.93,1035.98 L 568.35,1035.98 L 576.29,1035.98 L 587.78,1035.98 L 593.05,1035.98 L 602.19,1035.98 L 613.64,1035.98 L 618.42,1035.98 L 627.33,1035.98 L 635.91,1035.98 L 648.28,1035.98 L 654.53,1035.98 L 663.61,1035.98 L 669.98,1035.98 L 678.50,1035.98 L 688.78,1035.98 L 694.41,1035.98 L 703.72,1035.98 L 728.95,1035.98 L 740.98,1035.98 L 746.17,1035.98 L 753.58,1035.98 L 767.22,1035.98 L 770.99,1035.98 L 780.63,1035.98 L 787.07,1035.98 L 797.71,1035.98 L 804.49,1035.98 L 812.67,1035.98 L 821.79,1035.98 L 829.77,1035.98 L 843.09,1035.98 L 847.25,1035.98 L 855.11,1035.98 L 863.67,1035.98 L 872.97,1035.98 L 881.87,1035.98 L 888.74,1035.98 L 897.19,1035.98 L 907.65,1035.98 L 915.33,1035.98 L 922.23,1035.98 L 930.46,1035.98" fill="none" stroke="#8a94a3" stroke-width="2" stroke-dasharray="6 4"/>
<line class="axis" x1="70" y1="1142" x2="956" y2="1142"/>
<line class="axis" x1="70" y1="912" x2="70" y2="1142"/>
<text class="label" x="18" y="1027.00" transform="rotate(-90 18 1027.00)" text-anchor="middle">degrees</text>
<text class="label" x="513.0" y="1178" text-anchor="middle">time relative to event (s)</text>
</svg>