<svg xmlns="http://www.w3.org/2000/svg" viewBox="0 0 980 1186" role="img">
<style>
.axis{stroke:#718096;stroke-width:1}.grid{stroke:#e5eaf0;stroke-width:1}.label{font:12px sans-serif;fill:#5a6675}.title{font:700 18px sans-serif;fill:#20242a}.subtitle{font:12px sans-serif;fill:#5a6675}.panel-title{font:700 13px sans-serif;fill:#20242a}
</style>
<rect width="980" height="1186" fill="#ffffff"/>
<text class="title" x="70" y="28">Motion disturbance example 10: event 1</text>
<text class="subtitle" x="70" y="50">Start pitch 5.8 deg, yaw 0.1 deg; target motion 8.6 deg; disturbance vector 4.19 deg.</text>
<line x1="70" y1="76" x2="94" y2="76" stroke="#48525f" stroke-width="2" stroke-dasharray="6 4"/>
<text class="label" x="100" y="80">target</text>
<line x1="200" y1="76" x2="224" y2="76" stroke="#1769aa" stroke-width="2"/>
<text class="label" x="230" y="80">pitch actual</text>
<line x1="338" y1="76" x2="362" y2="76" stroke="#c94f2d" stroke-width="2"/>
<text class="label" x="368" y="80">yaw actual</text>
<line x1="468" y1="76" x2="492" y2="76" stroke="#1769aa" stroke-width="2"/>
<text class="label" x="498" y="80">pitch disturbance</text>
<line x1="641" y1="76" x2="665" y2="76" stroke="#8a94a3" stroke-width="2" stroke-dasharray="6 4"/>
<text class="label" x="671" y="80">zero baseline</text>
<line x1="786" y1="76" x2="810" y2="76" stroke="#c94f2d" stroke-width="2"/>
<text class="label" x="816" y="80">yaw disturbance</text>
<text class="panel-title" x="70" y="96">Pitch position</text>
<line class="grid" x1="70" y1="338.00" x2="956" y2="338.00"/>
<text class="label" x="62" y="342.00" text-anchor="end">-0.5</text>
<line class="grid" x1="70" y1="280.50" x2="956" y2="280.50"/>
<text class="label" x="62" y="284.50" text-anchor="end">2.1</text>
<line class="grid" x1="70" y1="223.00" x2="956" y2="223.00"/>
<text class="label" x="62" y="227.00" text-anchor="end">4.7</text>
<line class="grid" x1="70" y1="165.50" x2="956" y2="165.50"/>
<text class="label" x="62" y="169.50" text-anchor="end">7.3</text>
<line class="grid" x1="70" y1="108.00" x2="956" y2="108.00"/>
<text class="label" x="62" y="112.00" text-anchor="end">9.8</text>
<line class="grid" x1="70.00" y1="108" x2="70.00" y2="338"/>
<line class="grid" x1="217.67" y1="108" x2="217.67" y2="338"/>
<line class="grid" x1="365.33" y1="108" x2="365.33" y2="338"/>
<line class="grid" x1="513.00" y1="108" x2="513.00" y2="338"/>
<line class="grid" x1="660.67" y1="108" x2="660.67" y2="338"/>
<line class="grid" x1="808.33" y1="108" x2="808.33" y2="338"/>
<line class="grid" x1="956.00" y1="108" x2="956.00" y2="338"/>
<line x1="302.67" y1="108" x2="302.67" y2="338" stroke="#20242a" stroke-width="1.2" opacity="0.55"/>
<text class="label" x="306.67" y="120.00" transform="rotate(-35 306.67 120.00)">fire</text>
<line x1="336.33" y1="108" x2="336.33" y2="338" stroke="#6b7280" stroke-width="1.2" opacity="0.55"/>
<text class="label" x="340.33" y="120.00" transform="rotate(-35 340.33 120.00)">muzzle</text>
<line x1="410.71" y1="108" x2="410.71" y2="338" stroke="#6b7280" stroke-width="1.2" opacity="0.55"/>
<text class="label" x="414.71" y="120.00" transform="rotate(-35 414.71 120.00)">impact</text>
<line x1="642.81" y1="108" x2="642.81" y2="338" stroke="#1769aa" stroke-width="1.2" opacity="0.55"/>
<text class="label" x="646.81" y="120.00" transform="rotate(-35 646.81 120.00)">pitch peak</text>
<line x1="634.53" y1="108" x2="634.53" y2="338" stroke="#c94f2d" stroke-width="1.2" opacity="0.55"/>
<text class="label" x="638.53" y="120.00" transform="rotate(-35 638.53 120.00)">yaw peak</text>
<path d="M 98.26,223.72 L 104.96,223.72 L 110.02,220.59 L 118.84,220.59 L 127.11,218.06 L 137.03,218.06 L 144.65,213.93 L 154.01,212.44 L 163.53,212.44 L 169.44,214.05 L 177.98,214.05 L 190.13,213.35 L 194.51,208.97 L 203.40,208.97 L 211.79,205.33 L 221.61,205.33 L 228.97,200.67 L 236.93,195.84 L 246.12,195.84 L 254.31,190.39 L 263.05,186.27 L 270.75,186.27 L 279.22,181.73 L 290.35,181.73 L 296.73,176.57 L 304.53,173.96 L 313.63,173.96 L 321.36,168.84 L 330.94,168.84 L 338.39,165.95 L 348.31,161.69 L 355.97,161.69 L 363.83,161.69 L 374.51,161.69 L 381.41,154.68 L 398.06,177.18 L 407.73,170.63 L 416.00,170.63 L 424.01,145.99 L 431.35,145.99 L 440.02,145.99 L 451.33,145.99 L 458.22,145.99 L 466.01,134.46 L 473.70,134.46 L 492.24,133.98 L 499.19,133.98 L 508.46,130.26 L 516.02,130.26 L 525.36,145.83 L 532.95,158.82 L 550.02,158.82 L 558.16,158.82 L 568.90,158.82 L 584.25,153.12 L 592.64,153.12 L 600.58,153.12 L 608.82,150.17 L 628.10,191.12 L 634.09,209.19 L 642.81,210.31 L 651.51,210.31 L 661.39,211.45 L 668.62,212.52 L 677.07,212.52 L 684.82,214.04 L 693.41,214.04 L 702.80,214.04 L 710.34,214.04 L 719.52,216.69 L 727.67,217.89 L 736.30,217.89 L 744.70,245.80 L 754.37,245.80 L 761.42,261.50 L 769.68,261.50 L 780.26,267.43 L 788.36,273.47 L 796.87,276.34 L 803.42,276.34 L 812.40,278.70 L 820.34,278.70 L 839.17,278.70 L 846.32,285.24 L 853.71,287.75 L 862.37,287.75 L 880.18,299.28 L 888.70,307.68 L 896.57,307.68 L 905.08,309.96 L 913.93,312.75 L 923.93,315.74 L 930.92,315.74" fill="none" stroke="#48525f" stroke-width="2" stroke-dasharray="6 4"/>
<path d="M 98.26,277.49 L 104.96,275.28 L 110.02,272.07 L 118.84,266.89 L 127.11,260.31 L 137.03,252.96 L 144.65,245.81 L 154.01,239.19 L 163.53,233.20 L 169.44,228.79 L 177.98,225.78 L 190.13,223.81 L 194.51,222.16 L 203.40,220.96 L 211.79,219.95 L 221.61,218.95 L 228.97,217.58 L 236.93,215.78 L 246.12,213.61 L 254.31,211.20 L 263.05,208.55 L 270.75,205.82 L 279.22,202.81 L 290.35,199.96 L 296.73,197.07 L 304.53,194.26 L 313.63,191.49 L 321.36,188.68 L 330.94,186.03 L 338.39,183.54 L 348.31,203.97 L 355.97,205.34 L 363.83,201.24 L 374.51,196.50 L 381.41,186.03 L 398.06,197.19 L 407.73,206.90 L 416.00,211.40 L 424.01,209.55 L 431.35,205.42 L 440.02,200.52 L 451.33,193.57 L 458.22,185.02 L 466.01,175.47 L 473.70,165.99 L 492.24,153.70 L 499.19,150.41 L 508.46,148.32 L 516.02,146.32 L 525.36,144.15 L 532.95,141.94 L 550.02,141.02 L 558.16,142.94 L 568.90,145.75 L 584.25,150.89 L 592.64,152.58 L 600.58,153.62 L 608.82,153.94 L 628.10,153.18 L 634.09,152.82 L 642.81,153.58 L 651.51,157.72 L 661.39,163.14 L 668.62,169.88 L 677.07,176.79 L 684.82,185.14 L 693.41,192.37 L 702.80,198.19 L 710.34,202.41 L 719.52,204.90 L 727.67,205.90 L 736.30,206.46 L 744.70,207.31 L 754.37,208.59 L 761.42,210.28 L 769.68,213.21 L 780.26,218.67 L 788.36,224.29 L 796.87,230.51 L 803.42,238.62 L 812.40,246.94 L 820.34,253.44 L 839.17,263.48 L 846.32,266.33 L 853.71,268.26 L 862.37,270.10 L 880.18,274.44 L 888.70,276.89 L 896.57,279.78 L 905.08,283.59 L 913.93,287.73 L 923.93,291.86 L 930.92,295.96" fill="none" stroke="#1769aa" stroke-width="2"/>
<line class="axis" x1="70" y1="338" x2="956" y2="338"/>
<line class="axis" x1="70" y1="108" x2="70" y2="338"/>
<text class="label" x="18" y="223.00" transform="rotate(-90 18 223.00)" text-anchor="middle">degrees</text>
<text class="panel-title" x="70" y="364">Yaw position</text>
<line class="grid" x1="70" y1="606.00" x2="956" y2="606.00"/>
<text class="label" x="62" y="610.00" text-anchor="end">-3.7</text>
<line class="grid" x1="70" y1="548.50" x2="956" y2="548.50"/>
<text class="label" x="62" y="552.50" text-anchor="end">0.6</text>
<line class="grid" x1="70" y1="491.00" x2="956" y2="491.00"/>
<text class="label" x="62" y="495.00" text-anchor="end">4.9</text>
<line class="grid" x1="70" y1="433.50" x2="956" y2="433.50"/>
<text class="label" x="62" y="437.50" text-anchor="end">9.2</text>
<line class="grid" x1="70" y1="376.00" x2="956" y2="376.00"/>
<text class="label" x="62" y="380.00" text-anchor="end">13.5</text>
<line class="grid" x1="70.00" y1="376" x2="70.00" y2="606"/>
<line class="grid" x1="217.67" y1="376" x2="217.67" y2="606"/>
<line class="grid" x1="365.33" y1="376" x2="365.33" y2="606"/>
<line class="grid" x1="513.00" y1="376" x2="513.00" y2="606"/>
<line class="grid" x1="660.67" y1="376" x2="660.67" y2="606"/>
<line class="grid" x1="808.33" y1="376" x2="808.33" y2="606"/>
<line class="grid" x1="956.00" y1="376" x2="956.00" y2="606"/>
<line x1="302.67" y1="376" x2="302.67" y2="606" stroke="#20242a" stroke-width="1.2" opacity="0.55"/>
<line x1="336.33" y1="376" x2="336.33" y2="606" stroke="#6b7280" stroke-width="1.2" opacity="0.55"/>
<line x1="410.71" y1="376" x2="410.71" y2="606" stroke="#6b7280" stroke-width="1.2" opacity="0.55"/>
<line x1="642.81" y1="376" x2="642.81" y2="606" stroke="#1769aa" stroke-width="1.2" opacity="0.55"/>
<line x1="634.53" y1="376" x2="634.53" y2="606" stroke="#c94f2d" stroke-width="1.2" opacity="0.55"/>
<path d="M 95.08,572.92 L 101.80,572.92 L 110.43,570.79 L 120.03,570.79 L 129.04,568.40 L 135.54,568.40 L 144.16,567.60 L 152.51,566.30 L 161.39,566.30 L 170.16,565.21 L 179.82,565.21 L 186.81,564.12 L 194.88,562.74 L 204.51,562.74 L 212.36,560.70 L 220.11,560.70 L 232.72,558.97 L 240.02,557.16 L 248.26,557.16 L 253.84,556.26 L 262.56,555.37 L 271.19,555.37 L 279.64,553.81 L 287.99,553.81 L 296.31,553.07 L 305.12,551.96 L 313.07,551.96 L 324.10,550.38 L 332.86,550.38 L 338.82,548.70 L 346.96,548.70 L 355.30,547.23 L 366.10,547.23 L 372.63,547.23 L 380.97,544.95 L 389.24,533.43 L 397.49,533.43 L 405.89,533.86 L 418.10,533.86 L 423.40,533.39 L 431.86,533.39 L 448.51,533.39 L 456.98,533.39 L 465.45,540.55 L 475.57,544.47 L 482.50,544.47 L 500.75,551.23 L 507.89,551.23 L 516.66,535.93 L 524.30,535.93 L 535.29,525.07 L 541.41,525.07 L 550.51,525.07 L 558.62,525.07 L 566.64,525.07 L 576.61,518.87 L 584.73,518.87 L 592.09,518.87 L 602.46,518.87 L 609.28,515.65 L 619.54,494.95 L 626.60,494.95 L 634.53,482.12 L 643.48,479.69 L 651.02,479.69 L 660.69,477.25 L 668.15,474.94 L 676.48,474.94 L 685.25,471.65 L 695.38,471.65 L 704.11,471.65 L 711.38,471.65 L 719.01,465.95 L 727.21,463.36 L 737.88,463.36 L 752.71,448.67 L 760.90,436.91 L 770.13,436.91 L 778.89,433.23 L 795.29,429.68 L 803.87,426.43 L 811.97,423.76 L 822.26,423.76 L 829.43,423.76 L 837.58,423.76 L 845.82,416.38 L 854.15,413.55 L 863.45,413.55 L 871.82,410.24 L 879.37,410.24 L 888.16,406.64 L 897.77,403.81 L 905.56,403.81 L 922.99,398.26 L 930.33,398.26" fill="none" stroke="#48525f" stroke-width="2" stroke-dasharray="6 4"/>
<path d="M 95.08,583.74 L 101.80,582.37 L 110.43,580.39 L 120.03,578.07 L 129.04,575.56 L 135.54,573.49 L 144.16,571.25 L 152.51,569.63 L 161.39,568.62 L 170.16,568.09 L 179.82,567.70 L 186.81,567.29 L 194.88,566.95 L 204.51,566.54 L 212.36,565.77 L 220.11,564.88 L 232.72,563.62 L 240.02,562.22 L 248.26,561.02 L 253.84,559.79 L 262.56,558.75 L 271.19,557.76 L 279.64,556.84 L 287.99,556.15 L 296.31,555.52 L 305.12,554.99 L 313.07,554.48 L 324.10,553.83 L 332.86,553.30 L 338.82,552.70 L 346.96,561.26 L 355.30,570.91 L 366.10,572.91 L 372.63,573.80 L 380.97,568.79 L 389.24,562.51 L 397.49,556.63 L 405.89,553.32 L 418.10,549.58 L 423.40,545.05 L 431.86,541.72 L 448.51,536.10 L 456.98,534.56 L 465.45,533.93 L 475.57,533.90 L 482.50,534.84 L 500.75,539.14 L 507.89,542.32 L 516.66,545.34 L 524.30,547.82 L 535.29,549.63 L 541.41,549.22 L 550.51,545.94 L 558.62,540.54 L 566.64,534.58 L 576.61,529.13 L 584.73,524.74 L 592.09,521.99 L 602.46,520.93 L 609.28,520.81 L 619.54,520.47 L 626.60,520.20 L 634.53,519.14 L 643.48,516.13 L 651.02,510.50 L 660.69,502.76 L 668.15,494.46 L 676.48,487.08 L 685.25,480.38 L 695.38,476.23 L 704.11,474.05 L 711.38,473.72 L 719.01,474.01 L 727.21,474.13 L 737.88,474.30 L 752.71,471.79 L 760.90,468.46 L 770.13,463.27 L 778.89,456.98 L 795.29,443.71 L 803.87,437.44 L 811.97,432.49 L 822.26,429.45 L 829.43,427.84 L 837.58,427.16 L 845.82,426.80 L 854.15,425.69 L 863.45,424.55 L 871.82,422.79 L 879.37,420.28 L 888.16,417.15 L 897.77,414.23 L 905.56,411.58 L 922.99,406.58 L 930.33,404.82" fill="none" stroke="#c94f2d" stroke-width="2"/>
<line class="axis" x1="70" y1="606" x2="956" y2="606"/>
<line class="axis" x1="70" y1="376" x2="70" y2="606"/>
<text class="label" x="18" y="491.00" transform="rotate(-90 18 491.00)" text-anchor="middle">degrees</text>
<text class="panel-title" x="70" y="632">Pitch disturbance while moving</text>
<line class="grid" x1="70" y1="874.00" x2="956" y2="874.00"/>
<text class="label" x="62" y="878.00" text-anchor="end">-2.7</text>
<line class="grid" x1="70" y1="816.50" x2="956" y2="816.50"/>
<text class="label" x="62" y="820.50" text-anchor="end">-1.0</text>
<line class="grid" x1="70" y1="759.00" x2="956" y2="759.00"/>
<text class="label" x="62" y="763.00" text-anchor="end">0.7</text>
<line class="grid" x1="70" y1="701.50" x2="956" y2="701.50"/>
<text class="label" x="62" y="705.50" text-anchor="end">2.4</text>
<line class="grid" x1="70" y1="644.00" x2="956" y2="644.00"/>
<text class="label" x="62" y="648.00" text-anchor="end">4.0</text>
<line class="grid" x1="70.00" y1="644" x2="70.00" y2="874"/>
<line class="grid" x1="217.67" y1="644" x2="217.67" y2="874"/>
<line class="grid" x1="365.33" y1="644" x2="365.33" y2="874"/>
<line class="grid" x1="513.00" y1="644" x2="513.00" y2="874"/>
<line class="grid" x1="660.67" y1="644" x2="660.67" y2="874"/>
<line class="grid" x1="808.33" y1="644" x2="808.33" y2="874"/>
<line class="grid" x1="956.00" y1="644" x2="956.00" y2="874"/>
<line x1="302.67" y1="644" x2="302.67" y2="874" stroke="#20242a" stroke-width="1.2" opacity="0.55"/>
<line x1="336.33" y1="644" x2="336.33" y2="874" stroke="#6b7280" stroke-width="1.2" opacity="0.55"/>
<line x1="410.71" y1="644" x2="410.71" y2="874" stroke="#6b7280" stroke-width="1.2" opacity="0.55"/>
<line x1="642.81" y1="644" x2="642.81" y2="874" stroke="#1769aa" stroke-width="1.2" opacity="0.55"/>
<line x1="634.53" y1="644" x2="634.53" y2="874" stroke="#c94f2d" stroke-width="1.2" opacity="0.55"/>
<path d="M 98.26,836.64 L 104.96,833.23 L 110.02,833.11 L 118.84,825.12 L 127.11,818.86 L 137.03,807.53 L 144.65,802.88 L 154.01,794.97 L 163.53,785.75 L 169.44,776.46 L 177.98,771.81 L 190.13,769.86 L 194.51,774.07 L 203.40,772.21 L 211.79,776.27 L 221.61,774.73 L 228.97,779.81 L 236.93,784.48 L 246.12,781.13 L 254.31,785.82 L 263.05,788.08 L 270.75,783.87 L 279.22,786.23 L 290.35,781.83 L 296.73,785.33 L 304.53,785.03 L 313.63,780.76 L 321.36,784.32 L 330.94,780.24 L 338.39,780.85 L 348.31,818.93 L 355.97,821.03 L 363.83,814.72 L 374.51,807.41 L 381.41,802.07 L 398.06,784.58 L 407.73,809.66 L 416.00,816.59 L 424.01,851.74 L 431.35,845.37 L 440.02,837.81 L 451.33,827.10 L 458.22,813.92 L 466.01,816.97 L 473.70,802.35 L 492.24,784.15 L 499.19,779.07 L 508.46,781.59 L 516.02,778.49 L 525.36,751.13 L 532.95,727.71 L 550.02,726.28 L 558.16,729.26 L 568.90,733.59 L 584.25,750.29 L 592.64,752.89 L 600.58,754.50 L 608.82,759.55 L 628.10,695.23 L 634.09,666.82 L 642.81,666.26 L 651.51,672.63 L 661.39,679.25 L 668.62,687.99 L 677.07,698.64 L 684.82,709.17 L 693.41,720.31 L 702.80,729.29 L 710.34,735.79 L 719.52,735.55 L 727.67,735.24 L 736.30,736.11 L 744.70,694.38 L 754.37,696.36 L 761.42,674.74 L 769.68,679.26 L 780.26,678.55 L 788.36,677.91 L 796.87,683.07 L 803.42,695.57 L 812.40,704.75 L 820.34,714.78 L 839.17,730.26 L 846.32,724.57 L 853.71,723.68 L 862.37,726.53 L 880.18,715.43 L 888.70,706.26 L 896.57,710.71 L 905.08,713.08 L 913.93,715.15 L 923.93,716.92 L 930.92,723.23" fill="none" stroke="#1769aa" stroke-width="2"/>
<path d="M 98.26,782.50 L 104.96,782.50 L 110.02,782.50 L 118.84,782.50 L 127.11,782.50 L 137.03,782.50 L 144.65,782.50 L 154.01,782.50 L 163.53,782.50 L 169.44,782.50 L 177.98,782.50 L 190.13,782.50 L 194.51,782.50 L 203.40,782.50 L 211.79,782.50 L 221.61,782.50 L 228.97,782.50 L 236.93,782.50 L 246.12,782.50 L 254.31,782.50 L 263.05,782.50 L 270.75,782.50 L 279.22,782.50 L 290.35,782.50 L 296.73,782.50 L 304.53,782.50 L 313.63,782.50 L 321.36,782.50 L 330.94,782.50 L 338.39,782.50 L 348.31,782.50 L 355.97,782.50 L 363.83,782.50 L 374.51,782.50 L 381.41,782.50 L 398.06,782.50 L 407.73,782.50 L 416.00,782.50 L 424.01,782.50 L 431.35,782.50 L 440.02,782.50 L 451.33,782.50 L 458.22,782.50 L 466.01,782.50 L 473.70,782.50 L 492.24,782.50 L 499.19,782.50 L 508.46,782.50 L 516.02,782.50 L 525.36,782.50 L 532.95,782.50 L 550.02,782.50 L 558.16,782.50 L 568.90,782.50 L 584.25,782.50 L 592.64,782.50 L 600.58,782.50 L 608.82,782.50 L 628.10,782.50 L 634.09,782.50 L 642.81,782.50 L 651.51,782.50 L 661.39,782.50 L 668.62,782.50 L 677.07,782.50 L 684.82,782.50 L 693.41,782.50 L 702.80,782.50 L 710.34,782.50 L 719.52,782.50 L 727.67,782.50 L 736.30,782.50 L 744.70,782.50 L 754.37,782.50 L 761.42,782.50 L 769.68,782.50 L 780.26,782.50 L 788.36,782.50 L 796.87,782.50 L 803.42,782.50 L 812.40,782.50 L 820.34,782.50 L 839.17,782.50 L 846.32,782.50 L 853.71,782.50 L 862.37,782.50 L 880.18,782.50 L 888.70,782.50 L 896.57,782.50 L 905.08,782.50 L 913.93,782.50 L 923.93,782.50 L 930.92,782.50" fill="none" stroke="#8a94a3" stroke-width="2" stroke-dasharray="6 4"/>
<line class="axis" x1="70" y1="874" x2="956" y2="874"/>
<line class="axis" x1="70" y1="644" x2="70" y2="874"/>
<text class="label" x="18" y="759.00" transform="rotate(-90 18 759.00)" text-anchor="middle">degrees</text>
<text class="panel-title" x="70" y="900">Yaw disturbance while moving</text>
<line class="grid" x1="70" y1="1142.00" x2="956" y2="1142.00"/>
<text class="label" x="62" y="1146.00" text-anchor="end">-2.9</text>
<line class="grid" x1="70" y1="1084.50" x2="956" y2="1084.50"/>
<text class="label" x="62" y="1088.50" text-anchor="end">-1.8</text>
<line class="grid" x1="70" y1="1027.00" x2="956" y2="1027.00"/>
<text class="label" x="62" y="1031.00" text-anchor="end">-0.6</text>
<line class="grid" x1="70" y1="969.50" x2="956" y2="969.50"/>
<text class="label" x="62" y="973.50" text-anchor="end">0.5</text>
<line class="grid" x1="70" y1="912.00" x2="956" y2="912.00"/>
<text class="label" x="62" y="916.00" text-anchor="end">1.6</text>
<line class="grid" x1="70.00" y1="912" x2="70.00" y2="1142"/>
<text class="label" x="70.00" y="1162" text-anchor="middle">-0.28</text>
<line class="grid" x1="217.67" y1="912" x2="217.67" y2="1142"/>
<text class="label" x="217.67" y="1162" text-anchor="middle">-0.10</text>
<line class="grid" x1="365.33" y1="912" x2="365.33" y2="1142"/>
<text class="label" x="365.33" y="1162" text-anchor="middle">0.07</text>
<line class="grid" x1="513.00" y1="912" x2="513.00" y2="1142"/>
<text class="label" x="513.00" y="1162" text-anchor="middle">0.25</text>
<line class="grid" x1="660.67" y1="912" x2="660.67" y2="1142"/>
<text class="label" x="660.67" y="1162" text-anchor="middle">0.42</text>
<line class="grid" x1="808.33" y1="912" x2="808.33" y2="1142"/>
<text class="label" x="808.33" y="1162" text-anchor="middle">0.60</text>
<line class="grid" x1="956.00" y1="912" x2="956.00" y2="1142"/>
<text class="label" x="956.00" y="1162" text-anchor="middle">0.77</text>
<line x1="302.67" y1="912" x2="302.67" y2="1142" stroke="#20242a" stroke-width="1.2" opacity="0.55"/>
<line x1="336.33" y1="912" x2="336.33" y2="1142" stroke="#6b7280" stroke-width="1.2" opacity="0.55"/>
<line x1="410.71" y1="912" x2="410.71" y2="1142" stroke="#6b7280" stroke-width="1.2" opacity="0.55"/>
<line x1="642.81" y1="912" x2="642.81" y2="1142" stroke="#1769aa" stroke-width="1.2" opacity="0.55"/>
<line x1="634.53" y1="912" x2="634.53" y2="1142" stroke="#c94f2d" stroke-width="1.2" opacity="0.55"/>
<path d="M 95.08,1020.82 L 101.80,1015.62 L 110.43,1016.20 L 120.03,1007.46 L 129.04,1006.98 L 135.54,999.15 L 144.16,993.69 L 152.51,992.51 L 161.39,988.68 L 170.16,990.80 L 179.82,989.34 L 186.81,991.89 L 194.88,995.84 L 204.51,994.29 L 212.36,999.08 L 220.11,995.70 L 232.72,997.52 L 240.02,999.05 L 248.26,994.50 L 253.84,993.26 L 262.56,992.69 L 271.19,988.96 L 279.64,991.42 L 287.99,988.78 L 296.31,989.18 L 305.12,991.39 L 313.07,989.47 L 324.10,992.98 L 332.86,990.98 L 338.82,995.03 L 346.96,1027.37 L 355.30,1069.37 L 366.10,1076.93 L 372.63,1080.30 L 380.97,1069.94 L 389.24,1089.76 L 397.49,1067.53 L 405.89,1053.46 L 418.10,1039.33 L 423.40,1023.96 L 431.86,1011.38 L 448.51,990.16 L 456.98,984.33 L 465.45,954.94 L 475.57,940.05 L 482.50,943.61 L 500.75,934.26 L 507.89,946.28 L 516.66,1015.46 L 524.30,1024.84 L 535.29,1072.69 L 541.41,1071.14 L 550.51,1058.75 L 558.62,1038.35 L 566.64,1015.84 L 576.61,1018.68 L 584.73,1002.10 L 592.09,991.71 L 602.46,987.71 L 609.28,999.40 L 619.54,1076.31 L 626.60,1075.31 L 634.53,1119.74 L 643.48,1117.53 L 651.02,1096.31 L 660.69,1076.28 L 668.15,1053.68 L 676.48,1025.80 L 685.25,1012.88 L 695.38,997.21 L 704.11,989.01 L 711.38,987.73 L 719.01,1010.35 L 727.21,1020.62 L 737.88,1021.25 L 752.71,1067.26 L 760.90,1099.08 L 770.13,1079.50 L 778.89,1069.61 L 795.29,1032.92 L 803.87,1021.51 L 811.97,1012.89 L 822.26,1001.41 L 829.43,995.31 L 837.58,992.76 L 845.82,1019.28 L 854.15,1025.77 L 863.45,1021.49 L 871.82,1027.35 L 879.37,1017.88 L 888.16,1019.62 L 897.77,1019.28 L 905.56,1009.26 L 922.99,1011.38 L 930.33,1004.73" fill="none" stroke="#c94f2d" stroke-width="2"/>
<path d="M 95.08,994.39 L 101.80,994.39 L 110.43,994.39 L 120.03,994.39 L 129.04,994.39 L 135.54,994.39 L 144.16,994.39 L 152.51,994.39 L 161.39,994.39 L 170.16,994.39 L 179.82,994.39 L 186.81,994.39 L 194.88,994.39 L 204.51,994.39 L 212.36,994.39 L 220.11,994.39 L 232.72,994.39 L 240.02,994.39 L 248.26,994.39 L 253.84,994.39 L 262.56,994.39 L 271.19,994.39 L 279.64,994.39 L 287.99,994.39 L 296.31,994.39 L 305.12,994.39 L 313.07,994.39 L 324.10,994.39 L 332.86,994.39 L 338.82,994.39 L 346.96,994.39 L 355.30,994.39 L 366.10,994.39 L 372.63,994.39 L 380.97,994.39 L 389.24,994.39 L 397.49,994.39 L 405.89,994.39 L 418.10,994.39 L 423.40,994.39 L 431.86,994.39 L 448.51,994.39 L 456.98,994.39 L 465.45,994.39 L 475.57,994.39 L 482.50,994.39 L 500.75,994.39 L 507.89,994.39 L 516.66,994.39 L 524.30,994.39 L 535.29,994.39 L 541.41,994.39 L 550.51,994.39 L 558.62,994.39 L 566.64,994.39 L 576.61,994.39 L 584.73,994.39 L 592.09,994.39 L 602.46,994.39 L 609.28,994.39 L 619.54,994.39 L 626.60,994.39 L 634.53,994.39 L 643.48,994.39 L 651.02,994.39 L 660.69,994.39 L 668.15,994.39 L 676.48,994.39 L 685.25,994.39 L 695.38,994.39 L 704.11,994.39 L 711.38,994.39 L 719.01,994.39 L 727.21,994.39 L 737.88,994.39 L 752.71,994.39 L 760.90,994.39 L 770.13,994.39 L 778.89,994.39 L 795.29,994.39 L 803.87,994.39 L 811.97,994.39 L 822.26,994.39 L 829.43,994.39 L 837.58,994.39 L 845.82,994.39 L 854.15,994.39 L 863.45,994.39 L 871.82,994.39 L 879.37,994.39 L 888.16,994.39 L 897.77,994.39 L 905.56,994.39 L 922.99,994.39 L 930.33,994.39" fill="none" stroke="#8a94a3" stroke-width="2" stroke-dasharray="6 4"/>
<line class="axis" x1="70" y1="1142" x2="956" y2="1142"/>
<line class="axis" x1="70" y1="912" x2="70" y2="1142"/>
<text class="label" x="18" y="1027.00" transform="rotate(-90 18 1027.00)" text-anchor="middle">degrees</text>
<text class="label" x="513.0" y="1178" text-anchor="middle">time relative to event (s)</text>
</svg>