<svg xmlns="http://www.w3.org/2000/svg" viewBox="0 0 980 1186" role="img">
<style>
.axis{stroke:#718096;stroke-width:1}.grid{stroke:#e5eaf0;stroke-width:1}.label{font:12px sans-serif;fill:#5a6675}.title{font:700 18px sans-serif;fill:#20242a}.subtitle{font:12px sans-serif;fill:#5a6675}.panel-title{font:700 13px sans-serif;fill:#20242a}
</style>
<rect width="980" height="1186" fill="#ffffff"/>
<text class="title" x="70" y="28">Motion disturbance example 11: event 277</text>
<text class="subtitle" x="70" y="50">Start pitch 14.1 deg, yaw 2.1 deg; target motion 6.5 deg; disturbance vector 0.30 deg.</text>
<line x1="70" y1="76" x2="94" y2="76" stroke="#48525f" stroke-width="2" stroke-dasharray="6 4"/>
<text class="label" x="100" y="80">target</text>
<line x1="200" y1="76" x2="224" y2="76" stroke="#1769aa" stroke-width="2"/>
<text class="label" x="230" y="80">pitch actual</text>
<line x1="338" y1="76" x2="362" y2="76" stroke="#c94f2d" stroke-width="2"/>
<text class="label" x="368" y="80">yaw actual</text>
<line x1="468" y1="76" x2="492" y2="76" stroke="#1769aa" stroke-width="2"/>
<text class="label" x="498" y="80">pitch disturbance</text>
<line x1="641" y1="76" x2="665" y2="76" stroke="#8a94a3" stroke-width="2" stroke-dasharray="6 4"/>
<text class="label" x="671" y="80">zero baseline</text>
<line x1="786" y1="76" x2="810" y2="76" stroke="#c94f2d" stroke-width="2"/>
<text class="label" x="816" y="80">yaw disturbance</text>
<text class="panel-title" x="70" y="96">Pitch position</text>
<line class="grid" x1="70" y1="338.00" x2="956" y2="338.00"/>
<text class="label" x="62" y="342.00" text-anchor="end">10.6</text>
<line class="grid" x1="70" y1="280.50" x2="956" y2="280.50"/>
<text class="label" x="62" y="284.50" text-anchor="end">13.6</text>
<line class="grid" x1="70" y1="223.00" x2="956" y2="223.00"/>
<text class="label" x="62" y="227.00" text-anchor="end">16.5</text>
<line class="grid" x1="70" y1="165.50" x2="956" y2="165.50"/>
<text class="label" x="62" y="169.50" text-anchor="end">19.5</text>
<line class="grid" x1="70" y1="108.00" x2="956" y2="108.00"/>
<text class="label" x="62" y="112.00" text-anchor="end">22.4</text>
<line class="grid" x1="70.00" y1="108" x2="70.00" y2="338"/>
<line class="grid" x1="217.67" y1="108" x2="217.67" y2="338"/>
<line class="grid" x1="365.33" y1="108" x2="365.33" y2="338"/>
<line class="grid" x1="513.00" y1="108" x2="513.00" y2="338"/>
<line class="grid" x1="660.67" y1="108" x2="660.67" y2="338"/>
<line class="grid" x1="808.33" y1="108" x2="808.33" y2="338"/>
<line class="grid" x1="956.00" y1="108" x2="956.00" y2="338"/>
<line x1="302.68" y1="108" x2="302.68" y2="338" stroke="#20242a" stroke-width="1.2" opacity="0.55"/>
<text class="label" x="306.68" y="120.00" transform="rotate(-35 306.68 120.00)">fire</text>
<line x1="336.39" y1="108" x2="336.39" y2="338" stroke="#6b7280" stroke-width="1.2" opacity="0.55"/>
<text class="label" x="340.39" y="120.00" transform="rotate(-35 340.39 120.00)">muzzle</text>
<line x1="410.73" y1="108" x2="410.73" y2="338" stroke="#6b7280" stroke-width="1.2" opacity="0.55"/>
<text class="label" x="414.73" y="120.00" transform="rotate(-35 414.73 120.00)">impact</text>
<line x1="670.11" y1="108" x2="670.11" y2="338" stroke="#1769aa" stroke-width="1.2" opacity="0.55"/>
<text class="label" x="674.11" y="120.00" transform="rotate(-35 674.11 120.00)">pitch peak</text>
<line x1="660.73" y1="108" x2="660.73" y2="338" stroke="#c94f2d" stroke-width="1.2" opacity="0.55"/>
<text class="label" x="664.73" y="120.00" transform="rotate(-35 664.73 120.00)">yaw peak</text>
<path d="M 96.15,300.90 L 111.96,297.33 L 121.06,295.09 L 129.21,295.09 L 138.28,291.64 L 147.69,291.64 L 154.00,289.63 L 171.09,286.24 L 179.90,283.23 L 190.14,283.23 L 196.16,279.29 L 205.15,277.10 L 217.49,277.10 L 221.23,272.98 L 238.90,270.18 L 246.86,270.18 L 255.74,267.44 L 265.32,263.84 L 281.10,260.74 L 290.99,258.31 L 297.32,258.31 L 306.77,255.54 L 316.62,255.54 L 323.22,251.74 L 342.06,248.48 L 347.73,245.65 L 364.63,244.09 L 373.35,244.09 L 382.90,240.58 L 389.91,236.45 L 399.06,236.45 L 407.19,236.45 L 415.62,233.09 L 423.70,229.28 L 433.52,229.28 L 444.14,225.65 L 450.45,222.48 L 458.78,222.48 L 471.20,219.50 L 477.39,216.77 L 485.61,216.77 L 492.46,213.79 L 500.81,213.79 L 508.19,210.64 L 517.00,207.74 L 525.03,207.74 L 533.27,205.51 L 541.99,205.51 L 549.98,201.08 L 561.36,198.27 L 567.56,198.27 L 576.35,194.31 L 584.10,194.31 L 593.48,191.22 L 602.21,188.14 L 610.47,188.14 L 618.71,184.29 L 643.14,179.66 L 651.52,179.66 L 659.90,178.70 L 670.11,178.70 L 677.62,174.86 L 685.46,172.55 L 696.42,172.55 L 703.14,168.78 L 711.87,168.78 L 729.16,163.47 L 737.42,163.47 L 744.77,160.52 L 752.91,160.52 L 761.70,158.94 L 771.88,155.66 L 780.45,155.66 L 787.45,152.40 L 796.55,150.69 L 803.59,150.69 L 813.83,148.00 L 820.45,148.00 L 828.94,144.67 L 839.10,142.75 L 845.74,142.75 L 856.41,140.29 L 865.04,140.29 L 872.02,137.45 L 882.73,136.26 L 888.20,136.26 L 897.89,134.17 L 904.96,134.17 L 915.70,131.05 L 921.57,130.26 L 930.92,130.26" fill="none" stroke="#48525f" stroke-width="2" stroke-dasharray="6 4"/>
<path d="M 96.15,315.74 L 111.96,311.83 L 121.06,309.90 L 129.21,307.96 L 138.28,305.95 L 147.69,303.95 L 154.00,301.97 L 171.09,298.31 L 179.90,296.59 L 190.14,294.97 L 196.16,293.28 L 205.15,291.69 L 217.49,289.97 L 221.23,288.10 L 238.90,284.40 L 246.86,282.50 L 255.74,280.46 L 265.32,278.49 L 281.10,274.72 L 290.99,272.82 L 297.32,270.88 L 306.77,269.02 L 316.62,267.22 L 323.22,265.43 L 342.06,261.98 L 347.73,260.29 L 364.63,256.59 L 373.35,254.76 L 382.90,252.93 L 389.91,251.13 L 399.06,249.55 L 407.19,247.82 L 415.62,246.06 L 423.70,244.26 L 433.52,242.43 L 444.14,240.53 L 450.45,238.63 L 458.78,236.62 L 471.20,234.48 L 477.39,232.50 L 485.61,230.25 L 492.46,228.10 L 500.81,226.13 L 508.19,224.23 L 517.00,222.43 L 525.03,220.64 L 533.27,218.91 L 541.99,217.15 L 549.98,215.36 L 561.36,213.60 L 567.56,211.94 L 576.35,210.46 L 584.10,208.77 L 593.48,206.80 L 602.21,204.79 L 610.47,202.61 L 618.71,200.25 L 643.14,193.56 L 651.52,191.66 L 659.90,189.83 L 670.11,188.07 L 677.62,186.41 L 685.46,184.97 L 696.42,183.63 L 703.14,182.15 L 711.87,180.64 L 729.16,177.29 L 737.42,175.25 L 744.77,173.35 L 752.91,171.52 L 761.70,169.72 L 771.88,167.93 L 780.45,166.34 L 787.45,164.79 L 796.55,163.24 L 803.59,161.63 L 813.83,159.94 L 820.45,158.39 L 828.94,156.80 L 839.10,155.22 L 845.74,153.63 L 856.41,152.05 L 865.04,150.53 L 872.02,149.02 L 882.73,147.54 L 888.20,145.96 L 897.89,144.51 L 904.96,143.10 L 915.70,141.70 L 921.57,140.36 L 930.92,139.02" fill="none" stroke="#1769aa" stroke-width="2"/>
<line class="axis" x1="70" y1="338" x2="956" y2="338"/>
<line class="axis" x1="70" y1="108" x2="70" y2="338"/>
<text class="label" x="18" y="223.00" transform="rotate(-90 18 223.00)" text-anchor="middle">degrees</text>
<text class="panel-title" x="70" y="364">Yaw position</text>
<line class="grid" x1="70" y1="606.00" x2="956" y2="606.00"/>
<text class="label" x="62" y="610.00" text-anchor="end">0.7</text>
<line class="grid" x1="70" y1="548.50" x2="956" y2="548.50"/>
<text class="label" x="62" y="552.50" text-anchor="end">2.3</text>
<line class="grid" x1="70" y1="491.00" x2="956" y2="491.00"/>
<text class="label" x="62" y="495.00" text-anchor="end">3.9</text>
<line class="grid" x1="70" y1="433.50" x2="956" y2="433.50"/>
<text class="label" x="62" y="437.50" text-anchor="end">5.6</text>
<line class="grid" x1="70" y1="376.00" x2="956" y2="376.00"/>
<text class="label" x="62" y="380.00" text-anchor="end">7.2</text>
<line class="grid" x1="70.00" y1="376" x2="70.00" y2="606"/>
<line class="grid" x1="217.67" y1="376" x2="217.67" y2="606"/>
<line class="grid" x1="365.33" y1="376" x2="365.33" y2="606"/>
<line class="grid" x1="513.00" y1="376" x2="513.00" y2="606"/>
<line class="grid" x1="660.67" y1="376" x2="660.67" y2="606"/>
<line class="grid" x1="808.33" y1="376" x2="808.33" y2="606"/>
<line class="grid" x1="956.00" y1="376" x2="956.00" y2="606"/>
<line x1="302.68" y1="376" x2="302.68" y2="606" stroke="#20242a" stroke-width="1.2" opacity="0.55"/>
<line x1="336.39" y1="376" x2="336.39" y2="606" stroke="#6b7280" stroke-width="1.2" opacity="0.55"/>
<line x1="410.73" y1="376" x2="410.73" y2="606" stroke="#6b7280" stroke-width="1.2" opacity="0.55"/>
<line x1="670.11" y1="376" x2="670.11" y2="606" stroke="#1769aa" stroke-width="1.2" opacity="0.55"/>
<line x1="660.73" y1="376" x2="660.73" y2="606" stroke="#c94f2d" stroke-width="1.2" opacity="0.55"/>
<path d="M 95.08,579.42 L 106.19,579.42 L 112.44,578.04 L 128.74,576.37 L 137.17,574.60 L 154.49,572.77 L 162.87,571.41 L 170.65,571.41 L 180.43,569.29 L 188.39,569.29 L 196.64,567.22 L 214.00,565.53 L 222.25,563.53 L 232.13,563.53 L 238.44,561.71 L 247.95,559.65 L 257.21,559.65 L 265.96,557.64 L 273.25,557.64 L 280.50,556.43 L 288.90,556.43 L 298.14,554.18 L 305.63,551.96 L 322.60,550.15 L 332.44,550.15 L 340.69,548.18 L 348.67,545.75 L 356.54,545.75 L 365.11,543.09 L 382.43,540.51 L 392.15,538.22 L 400.74,538.22 L 417.46,535.11 L 424.27,532.90 L 432.51,532.90 L 440.58,531.46 L 449.63,529.57 L 458.17,529.57 L 466.91,526.08 L 474.18,523.16 L 483.13,523.16 L 493.12,519.58 L 501.29,519.58 L 507.78,516.05 L 519.34,513.53 L 527.43,513.53 L 533.74,510.25 L 543.35,510.25 L 550.41,507.47 L 558.65,504.99 L 568.53,504.99 L 575.57,502.45 L 585.08,502.45 L 601.03,496.34 L 609.59,496.34 L 618.29,493.10 L 626.76,493.10 L 635.86,489.03 L 642.76,484.91 L 652.72,484.91 L 660.73,480.36 L 669.18,480.36 L 678.26,477.16 L 685.88,473.68 L 694.76,473.68 L 702.68,470.35 L 710.52,470.35 L 719.52,465.57 L 727.99,461.74 L 736.33,461.74 L 745.74,456.61 L 755.17,453.01 L 769.92,448.82 L 778.01,448.82 L 786.99,445.24 L 794.90,445.24 L 804.05,440.90 L 812.12,436.00 L 822.46,436.00 L 829.33,432.08 L 837.45,428.65 L 846.22,428.65 L 854.35,422.75 L 862.78,422.75 L 871.15,417.98 L 880.35,417.98 L 888.65,412.99 L 896.39,407.40 L 906.05,407.40 L 913.68,401.89 L 922.24,398.26 L 930.08,398.26" fill="none" stroke="#48525f" stroke-width="2" stroke-dasharray="6 4"/>
<path d="M 95.08,583.74 L 106.19,582.78 L 112.44,581.82 L 128.74,580.02 L 137.17,579.06 L 154.49,577.07 L 162.87,576.04 L 170.65,575.08 L 180.43,573.98 L 188.39,572.96 L 196.64,571.87 L 214.00,569.81 L 222.25,568.59 L 232.13,567.56 L 238.44,566.34 L 247.95,565.12 L 257.21,564.03 L 265.96,562.75 L 273.25,561.66 L 280.50,560.50 L 288.90,559.41 L 298.14,558.51 L 305.63,557.36 L 322.60,555.30 L 332.44,554.02 L 340.69,552.93 L 348.67,551.71 L 356.54,550.49 L 365.11,549.20 L 382.43,546.38 L 392.15,544.90 L 400.74,543.55 L 417.46,540.79 L 424.27,539.19 L 432.51,537.97 L 440.58,536.56 L 449.63,535.27 L 458.17,534.05 L 466.91,532.83 L 474.18,531.49 L 483.13,530.01 L 493.12,528.21 L 501.29,526.61 L 507.78,524.74 L 519.34,522.95 L 527.43,520.76 L 533.74,518.71 L 543.35,516.72 L 550.41,514.86 L 558.65,513.13 L 568.53,511.26 L 575.57,509.53 L 585.08,507.86 L 601.03,504.72 L 609.59,503.05 L 618.29,501.38 L 626.76,499.52 L 635.86,497.65 L 642.76,495.54 L 652.72,493.55 L 660.73,491.04 L 669.18,488.86 L 678.26,486.55 L 685.88,484.11 L 694.76,481.93 L 702.68,479.55 L 710.52,477.30 L 719.52,475.25 L 727.99,473.00 L 736.33,470.69 L 745.74,468.38 L 755.17,466.26 L 769.92,460.93 L 778.01,458.24 L 786.99,455.48 L 794.90,452.78 L 804.05,450.47 L 812.12,447.64 L 822.46,445.27 L 829.33,442.70 L 837.45,440.33 L 846.22,437.95 L 854.35,435.51 L 862.78,433.33 L 871.15,430.38 L 880.35,427.87 L 888.65,425.11 L 896.39,422.22 L 906.05,419.40 L 913.68,416.12 L 922.24,413.23 L 930.08,409.90" fill="none" stroke="#c94f2d" stroke-width="2"/>
<line class="axis" x1="70" y1="606" x2="956" y2="606"/>
<line class="axis" x1="70" y1="376" x2="70" y2="606"/>
<text class="label" x="18" y="491.00" transform="rotate(-90 18 491.00)" text-anchor="middle">degrees</text>
<text class="panel-title" x="70" y="632">Pitch disturbance while moving</text>
<line class="grid" x1="70" y1="874.00" x2="956" y2="874.00"/>
<text class="label" x="62" y="878.00" text-anchor="end">-0.2</text>
<line class="grid" x1="70" y1="816.50" x2="956" y2="816.50"/>
<text class="label" x="62" y="820.50" text-anchor="end">-0.1</text>
<line class="grid" x1="70" y1="759.00" x2="956" y2="759.00"/>
<text class="label" x="62" y="763.00" text-anchor="end">0.1</text>
<line class="grid" x1="70" y1="701.50" x2="956" y2="701.50"/>
<text class="label" x="62" y="705.50" text-anchor="end">0.2</text>
<line class="grid" x1="70" y1="644.00" x2="956" y2="644.00"/>
<text class="label" x="62" y="648.00" text-anchor="end">0.4</text>
<line class="grid" x1="70.00" y1="644" x2="70.00" y2="874"/>
<line class="grid" x1="217.67" y1="644" x2="217.67" y2="874"/>
<line class="grid" x1="365.33" y1="644" x2="365.33" y2="874"/>
<line class="grid" x1="513.00" y1="644" x2="513.00" y2="874"/>
<line class="grid" x1="660.67" y1="644" x2="660.67" y2="874"/>
<line class="grid" x1="808.33" y1="644" x2="808.33" y2="874"/>
<line class="grid" x1="956.00" y1="644" x2="956.00" y2="874"/>
<line x1="302.68" y1="644" x2="302.68" y2="874" stroke="#20242a" stroke-width="1.2" opacity="0.55"/>
<line x1="336.39" y1="644" x2="336.39" y2="874" stroke="#6b7280" stroke-width="1.2" opacity="0.55"/>
<line x1="410.73" y1="644" x2="410.73" y2="874" stroke="#6b7280" stroke-width="1.2" opacity="0.55"/>
<line x1="670.11" y1="644" x2="670.11" y2="874" stroke="#1769aa" stroke-width="1.2" opacity="0.55"/>
<line x1="660.73" y1="644" x2="660.73" y2="874" stroke="#c94f2d" stroke-width="1.2" opacity="0.55"/>
<path d="M 96.15,800.50 L 111.96,793.97 L 121.06,799.80 L 129.21,762.07 L 138.28,790.21 L 147.69,751.11 L 154.00,751.99 L 171.09,746.63 L 179.90,771.63 L 190.14,740.08 L 196.16,783.97 L 205.15,795.69 L 217.49,762.08 L 221.23,805.98 L 238.90,788.43 L 246.86,751.39 L 255.74,765.12 L 265.32,796.74 L 281.10,783.88 L 290.99,794.15 L 297.32,756.42 L 306.77,773.89 L 316.62,738.91 L 323.22,778.12 L 342.06,774.33 L 347.73,796.50 L 364.63,754.89 L 373.35,719.22 L 382.90,751.98 L 389.91,797.41 L 399.06,766.55 L 407.19,732.94 L 415.62,764.10 L 423.70,803.25 L 433.52,767.58 L 444.14,801.27 L 450.45,826.02 L 458.78,786.92 L 471.20,803.10 L 477.39,817.98 L 485.61,774.08 L 492.46,790.22 L 500.81,751.81 L 508.19,776.15 L 517.00,797.59 L 525.03,762.61 L 533.27,772.50 L 541.99,738.20 L 549.98,789.51 L 561.36,810.03 L 567.56,777.79 L 576.35,826.05 L 584.10,793.13 L 593.48,815.00 L 602.21,835.89 L 610.47,793.37 L 618.71,822.30 L 643.14,782.14 L 651.52,745.10 L 659.90,728.20 L 670.11,693.91 L 677.62,736.57 L 685.46,753.43 L 696.42,727.37 L 703.14,771.92 L 711.87,742.42 L 729.16,780.65 L 737.42,740.87 L 744.77,761.42 L 752.91,725.75 L 761.70,721.45 L 771.88,750.45 L 780.45,719.59 L 787.45,752.90 L 796.55,755.96 L 803.59,724.41 L 813.83,743.85 L 820.45,713.67 L 828.94,747.76 L 839.10,754.35 L 845.74,723.49 L 856.41,740.45 L 865.04,710.95 L 872.02,736.80 L 882.73,731.13 L 888.20,700.27 L 897.89,712.92 L 904.96,685.48 L 915.70,718.83 L 921.57,708.17 L 930.92,682.11" fill="none" stroke="#1769aa" stroke-width="2"/>
<path d="M 96.15,786.15 L 111.96,786.15 L 121.06,786.15 L 129.21,786.15 L 138.28,786.15 L 147.69,786.15 L 154.00,786.15 L 171.09,786.15 L 179.90,786.15 L 190.14,786.15 L 196.16,786.15 L 205.15,786.15 L 217.49,786.15 L 221.23,786.15 L 238.90,786.15 L 246.86,786.15 L 255.74,786.15 L 265.32,786.15 L 281.10,786.15 L 290.99,786.15 L 297.32,786.15 L 306.77,786.15 L 316.62,786.15 L 323.22,786.15 L 342.06,786.15 L 347.73,786.15 L 364.63,786.15 L 373.35,786.15 L 382.90,786.15 L 389.91,786.15 L 399.06,786.15 L 407.19,786.15 L 415.62,786.15 L 423.70,786.15 L 433.52,786.15 L 444.14,786.15 L 450.45,786.15 L 458.78,786.15 L 471.20,786.15 L 477.39,786.15 L 485.61,786.15 L 492.46,786.15 L 500.81,786.15 L 508.19,786.15 L 517.00,786.15 L 525.03,786.15 L 533.27,786.15 L 541.99,786.15 L 549.98,786.15 L 561.36,786.15 L 567.56,786.15 L 576.35,786.15 L 584.10,786.15 L 593.48,786.15 L 602.21,786.15 L 610.47,786.15 L 618.71,786.15 L 643.14,786.15 L 651.52,786.15 L 659.90,786.15 L 670.11,786.15 L 677.62,786.15 L 685.46,786.15 L 696.42,786.15 L 703.14,786.15 L 711.87,786.15 L 729.16,786.15 L 737.42,786.15 L 744.77,786.15 L 752.91,786.15 L 761.70,786.15 L 771.88,786.15 L 780.45,786.15 L 787.45,786.15 L 796.55,786.15 L 803.59,786.15 L 813.83,786.15 L 820.45,786.15 L 828.94,786.15 L 839.10,786.15 L 845.74,786.15 L 856.41,786.15 L 865.04,786.15 L 872.02,786.15 L 882.73,786.15 L 888.20,786.15 L 897.89,786.15 L 904.96,786.15 L 915.70,786.15 L 921.57,786.15 L 930.92,786.15" fill="none" stroke="#8a94a3" stroke-width="2" stroke-dasharray="6 4"/>
<line class="axis" x1="70" y1="874" x2="956" y2="874"/>
<line class="axis" x1="70" y1="644" x2="70" y2="874"/>
<text class="label" x="18" y="759.00" transform="rotate(-90 18 759.00)" text-anchor="middle">degrees</text>
<text class="panel-title" x="70" y="900">Yaw disturbance while moving</text>
<line class="grid" x1="70" y1="1142.00" x2="956" y2="1142.00"/>
<text class="label" x="62" y="1146.00" text-anchor="end">-0.4</text>
<line class="grid" x1="70" y1="1084.50" x2="956" y2="1084.50"/>
<text class="label" x="62" y="1088.50" text-anchor="end">-0.3</text>
<line class="grid" x1="70" y1="1027.00" x2="956" y2="1027.00"/>
<text class="label" x="62" y="1031.00" text-anchor="end">-0.1</text>
<line class="grid" x1="70" y1="969.50" x2="956" y2="969.50"/>
<text class="label" x="62" y="973.50" text-anchor="end">0.0</text>
<line class="grid" x1="70" y1="912.00" x2="956" y2="912.00"/>
<text class="label" x="62" y="916.00" text-anchor="end">0.1</text>
<line class="grid" x1="70.00" y1="912" x2="70.00" y2="1142"/>
<text class="label" x="70.00" y="1162" text-anchor="middle">-0.28</text>
<line class="grid" x1="217.67" y1="912" x2="217.67" y2="1142"/>
<text class="label" x="217.67" y="1162" text-anchor="middle">-0.10</text>
<line class="grid" x1="365.33" y1="912" x2="365.33" y2="1142"/>
<text class="label" x="365.33" y="1162" text-anchor="middle">0.07</text>
<line class="grid" x1="513.00" y1="912" x2="513.00" y2="1142"/>
<text class="label" x="513.00" y="1162" text-anchor="middle">0.25</text>
<line class="grid" x1="660.67" y1="912" x2="660.67" y2="1142"/>
<text class="label" x="660.67" y="1162" text-anchor="middle">0.42</text>
<line class="grid" x1="808.33" y1="912" x2="808.33" y2="1142"/>
<text class="label" x="808.33" y="1162" text-anchor="middle">0.60</text>
<line class="grid" x1="956.00" y1="912" x2="956.00" y2="1142"/>
<text class="label" x="956.00" y="1162" text-anchor="middle">0.78</text>
<line x1="302.68" y1="912" x2="302.68" y2="1142" stroke="#20242a" stroke-width="1.2" opacity="0.55"/>
<line x1="336.39" y1="912" x2="336.39" y2="1142" stroke="#6b7280" stroke-width="1.2" opacity="0.55"/>
<line x1="410.73" y1="912" x2="410.73" y2="1142" stroke="#6b7280" stroke-width="1.2" opacity="0.55"/>
<line x1="670.11" y1="912" x2="670.11" y2="1142" stroke="#1769aa" stroke-width="1.2" opacity="0.55"/>
<line x1="660.73" y1="912" x2="660.73" y2="1142" stroke="#c94f2d" stroke-width="1.2" opacity="0.55"/>
<path d="M 95.08,970.95 L 106.19,959.37 L 112.44,964.40 L 128.74,962.86 L 137.17,972.56 L 154.49,970.63 L 162.87,974.63 L 170.65,963.05 L 180.43,975.42 L 188.39,963.07 L 196.64,974.88 L 214.00,970.54 L 222.25,979.85 L 232.13,967.50 L 238.44,974.77 L 247.95,984.90 L 257.21,971.78 L 265.96,980.48 L 273.25,967.36 L 280.50,968.01 L 288.90,954.89 L 298.14,971.06 L 305.63,983.95 L 322.60,980.94 L 332.44,965.50 L 340.69,976.04 L 348.67,990.66 L 356.54,975.99 L 365.11,992.48 L 382.43,989.64 L 392.15,999.38 L 400.74,983.17 L 417.46,987.31 L 424.27,994.70 L 432.51,980.03 L 440.58,980.34 L 449.63,987.63 L 458.17,972.96 L 466.91,1000.24 L 474.18,1019.16 L 483.13,1001.40 L 493.12,1022.83 L 501.29,1003.53 L 507.78,1023.51 L 519.34,1032.30 L 527.43,1006.05 L 533.74,1020.78 L 543.35,996.85 L 550.41,1007.88 L 558.65,1016.82 L 568.53,994.43 L 575.57,1004.12 L 585.08,984.05 L 601.03,1019.76 L 609.59,999.69 L 618.29,1018.51 L 626.76,996.12 L 635.86,1022.72 L 642.76,1046.81 L 652.72,1022.88 L 660.73,1047.51 L 669.18,1021.27 L 678.26,1031.86 L 685.88,1044.38 L 694.76,1018.14 L 702.68,1029.60 L 710.52,1002.58 L 719.52,1035.35 L 727.99,1054.40 L 736.33,1026.61 L 745.74,1060.55 L 755.17,1078.40 L 769.92,1064.63 L 778.01,1032.20 L 786.99,1042.06 L 794.90,1009.63 L 804.05,1034.07 L 812.12,1059.02 L 822.46,1030.45 L 829.33,1046.78 L 837.45,1059.39 L 846.22,1030.83 L 854.35,1072.46 L 862.78,1046.21 L 871.15,1068.02 L 880.35,1037.91 L 888.65,1064.83 L 896.39,1097.21 L 906.05,1063.24 L 913.68,1090.19 L 922.24,1099.11 L 930.08,1058.97" fill="none" stroke="#c94f2d" stroke-width="2"/>
<path d="M 95.08,971.78 L 106.19,971.78 L 112.44,971.78 L 128.74,971.78 L 137.17,971.78 L 154.49,971.78 L 162.87,971.78 L 170.65,971.78 L 180.43,971.78 L 188.39,971.78 L 196.64,971.78 L 214.00,971.78 L 222.25,971.78 L 232.13,971.78 L 238.44,971.78 L 247.95,971.78 L 257.21,971.78 L 265.96,971.78 L 273.25,971.78 L 280.50,971.78 L 288.90,971.78 L 298.14,971.78 L 305.63,971.78 L 322.60,971.78 L 332.44,971.78 L 340.69,971.78 L 348.67,971.78 L 356.54,971.78 L 365.11,971.78 L 382.43,971.78 L 392.15,971.78 L 400.74,971.78 L 417.46,971.78 L 424.27,971.78 L 432.51,971.78 L 440.58,971.78 L 449.63,971.78 L 458.17,971.78 L 466.91,971.78 L 474.18,971.78 L 483.13,971.78 L 493.12,971.78 L 501.29,971.78 L 507.78,971.78 L 519.34,971.78 L 527.43,971.78 L 533.74,971.78 L 543.35,971.78 L 550.41,971.78 L 558.65,971.78 L 568.53,971.78 L 575.57,971.78 L 585.08,971.78 L 601.03,971.78 L 609.59,971.78 L 618.29,971.78 L 626.76,971.78 L 635.86,971.78 L 642.76,971.78 L 652.72,971.78 L 660.73,971.78 L 669.18,971.78 L 678.26,971.78 L 685.88,971.78 L 694.76,971.78 L 702.68,971.78 L 710.52,971.78 L 719.52,971.78 L 727.99,971.78 L 736.33,971.78 L 745.74,971.78 L 755.17,971.78 L 769.92,971.78 L 778.01,971.78 L 786.99,971.78 L 794.90,971.78 L 804.05,971.78 L 812.12,971.78 L 822.46,971.78 L 829.33,971.78 L 837.45,971.78 L 846.22,971.78 L 854.35,971.78 L 862.78,971.78 L 871.15,971.78 L 880.35,971.78 L 888.65,971.78 L 896.39,971.78 L 906.05,971.78 L 913.68,971.78 L 922.24,971.78 L 930.08,971.78" fill="none" stroke="#8a94a3" stroke-width="2" stroke-dasharray="6 4"/>
<line class="axis" x1="70" y1="1142" x2="956" y2="1142"/>
<line class="axis" x1="70" y1="912" x2="70" y2="1142"/>
<text class="label" x="18" y="1027.00" transform="rotate(-90 18 1027.00)" text-anchor="middle">degrees</text>
<text class="label" x="513.0" y="1178" text-anchor="middle">time relative to event (s)</text>
</svg>