<svg xmlns="http://www.w3.org/2000/svg" viewBox="0 0 980 1186" role="img">
<style>
.axis{stroke:#718096;stroke-width:1}.grid{stroke:#e5eaf0;stroke-width:1}.label{font:12px sans-serif;fill:#5a6675}.title{font:700 18px sans-serif;fill:#20242a}.subtitle{font:12px sans-serif;fill:#5a6675}.panel-title{font:700 13px sans-serif;fill:#20242a}
</style>
<rect width="980" height="1186" fill="#ffffff"/>
<text class="title" x="70" y="28">Motion disturbance example 12: event 278</text>
<text class="subtitle" x="70" y="50">Start pitch 16.9 deg, yaw 3.3 deg; target motion 6.7 deg; disturbance vector 0.41 deg.</text>
<line x1="70" y1="76" x2="94" y2="76" stroke="#48525f" stroke-width="2" stroke-dasharray="6 4"/>
<text class="label" x="100" y="80">target</text>
<line x1="200" y1="76" x2="224" y2="76" stroke="#1769aa" stroke-width="2"/>
<text class="label" x="230" y="80">pitch actual</text>
<line x1="338" y1="76" x2="362" y2="76" stroke="#c94f2d" stroke-width="2"/>
<text class="label" x="368" y="80">yaw actual</text>
<line x1="468" y1="76" x2="492" y2="76" stroke="#1769aa" stroke-width="2"/>
<text class="label" x="498" y="80">pitch disturbance</text>
<line x1="641" y1="76" x2="665" y2="76" stroke="#8a94a3" stroke-width="2" stroke-dasharray="6 4"/>
<text class="label" x="671" y="80">zero baseline</text>
<line x1="786" y1="76" x2="810" y2="76" stroke="#c94f2d" stroke-width="2"/>
<text class="label" x="816" y="80">yaw disturbance</text>
<text class="panel-title" x="70" y="96">Pitch position</text>
<line class="grid" x1="70" y1="338.00" x2="956" y2="338.00"/>
<text class="label" x="62" y="342.00" text-anchor="end">13.7</text>
<line class="grid" x1="70" y1="280.50" x2="956" y2="280.50"/>
<text class="label" x="62" y="284.50" text-anchor="end">16.1</text>
<line class="grid" x1="70" y1="223.00" x2="956" y2="223.00"/>
<text class="label" x="62" y="227.00" text-anchor="end">18.4</text>
<line class="grid" x1="70" y1="165.50" x2="956" y2="165.50"/>
<text class="label" x="62" y="169.50" text-anchor="end">20.7</text>
<line class="grid" x1="70" y1="108.00" x2="956" y2="108.00"/>
<text class="label" x="62" y="112.00" text-anchor="end">23.1</text>
<line class="grid" x1="70.00" y1="108" x2="70.00" y2="338"/>
<line class="grid" x1="217.67" y1="108" x2="217.67" y2="338"/>
<line class="grid" x1="365.33" y1="108" x2="365.33" y2="338"/>
<line class="grid" x1="513.00" y1="108" x2="513.00" y2="338"/>
<line class="grid" x1="660.67" y1="108" x2="660.67" y2="338"/>
<line class="grid" x1="808.33" y1="108" x2="808.33" y2="338"/>
<line class="grid" x1="956.00" y1="108" x2="956.00" y2="338"/>
<line x1="304.24" y1="108" x2="304.24" y2="338" stroke="#20242a" stroke-width="1.2" opacity="0.55"/>
<text class="label" x="308.24" y="120.00" transform="rotate(-35 308.24 120.00)">fire</text>
<line x1="338.16" y1="108" x2="338.16" y2="338" stroke="#6b7280" stroke-width="1.2" opacity="0.55"/>
<text class="label" x="342.16" y="120.00" transform="rotate(-35 342.16 120.00)">muzzle</text>
<line x1="405.78" y1="108" x2="405.78" y2="338" stroke="#6b7280" stroke-width="1.2" opacity="0.55"/>
<text class="label" x="409.78" y="120.00" transform="rotate(-35 409.78 120.00)">impact</text>
<line x1="711.39" y1="108" x2="711.39" y2="338" stroke="#1769aa" stroke-width="1.2" opacity="0.55"/>
<text class="label" x="715.39" y="120.00" transform="rotate(-35 715.39 120.00)">pitch peak</text>
<line x1="703.95" y1="108" x2="703.95" y2="338" stroke="#c94f2d" stroke-width="1.2" opacity="0.55"/>
<text class="label" x="707.95" y="120.00" transform="rotate(-35 707.95 120.00)">yaw peak</text>
<path d="M 95.08,297.36 L 111.99,295.40 L 120.71,295.40 L 130.26,290.98 L 137.27,285.80 L 146.44,285.80 L 154.57,285.80 L 163.01,281.57 L 171.08,276.79 L 180.91,276.79 L 191.54,272.23 L 197.85,268.25 L 206.19,268.25 L 218.61,264.51 L 224.81,261.07 L 233.03,261.07 L 239.89,257.33 L 248.24,257.33 L 255.62,253.37 L 264.44,249.73 L 272.47,249.73 L 280.72,246.93 L 289.44,246.93 L 297.44,241.36 L 308.82,237.83 L 315.02,237.83 L 323.82,232.86 L 331.58,232.86 L 340.96,228.97 L 349.70,225.10 L 357.97,225.10 L 366.21,220.27 L 390.65,214.45 L 399.03,214.45 L 407.42,213.24 L 417.63,213.24 L 425.15,208.41 L 432.99,205.51 L 443.96,205.51 L 450.68,200.78 L 459.42,200.78 L 476.72,194.11 L 484.99,194.11 L 492.34,190.40 L 500.48,190.40 L 509.28,188.42 L 519.46,184.29 L 528.03,184.29 L 535.04,180.20 L 544.15,178.06 L 551.19,178.06 L 561.44,174.68 L 568.06,174.68 L 576.55,170.49 L 586.71,168.07 L 593.36,168.07 L 604.03,164.99 L 612.67,164.99 L 619.66,161.42 L 630.37,159.93 L 635.84,159.93 L 645.54,157.30 L 652.61,157.30 L 663.36,153.38 L 669.23,152.38 L 678.59,152.38 L 688.04,149.90 L 695.16,149.90 L 703.47,148.47 L 711.39,148.47 L 722.19,146.48 L 728.70,144.29 L 737.10,144.29 L 745.82,142.67 L 753.94,141.61 L 762.30,141.61 L 772.13,139.67 L 778.80,139.67 L 787.11,138.02 L 795.76,138.02 L 805.63,136.43 L 821.96,134.92 L 829.91,133.92 L 837.87,133.37 L 846.28,133.37 L 855.32,132.10 L 865.62,132.10 L 871.34,130.91 L 881.16,130.26 L 889.32,130.26 L 900.89,130.26 L 907.36,130.26 L 914.86,130.26 L 922.59,130.26 L 930.92,130.26" fill="none" stroke="#48525f" stroke-width="2" stroke-dasharray="6 4"/>
<path d="M 95.08,315.74 L 111.99,311.10 L 120.71,308.80 L 130.26,306.50 L 137.27,304.24 L 146.44,302.25 L 154.57,300.08 L 163.01,297.87 L 171.08,295.61 L 180.91,293.31 L 191.54,290.93 L 197.85,288.54 L 206.19,286.02 L 218.61,283.32 L 224.81,280.84 L 233.03,278.01 L 239.89,275.31 L 248.24,272.83 L 255.62,270.44 L 264.44,268.19 L 272.47,265.93 L 280.72,263.76 L 289.44,261.55 L 297.44,259.30 L 308.82,257.08 L 315.02,255.01 L 323.82,253.15 L 331.58,251.02 L 340.96,248.55 L 349.70,246.03 L 357.97,243.28 L 366.21,240.32 L 390.65,231.91 L 399.03,229.53 L 407.42,227.22 L 417.63,225.01 L 425.15,222.93 L 432.99,221.12 L 443.96,219.44 L 450.68,217.58 L 459.42,215.68 L 476.72,211.48 L 484.99,208.91 L 492.34,206.52 L 500.48,204.22 L 509.28,201.97 L 519.46,199.71 L 528.03,197.72 L 535.04,195.77 L 544.15,193.83 L 551.19,191.79 L 561.44,189.67 L 568.06,187.72 L 576.55,185.73 L 586.71,183.74 L 593.36,181.75 L 604.03,179.76 L 612.67,177.86 L 619.66,175.96 L 630.37,174.10 L 635.84,172.11 L 645.54,170.29 L 652.61,168.52 L 663.36,166.75 L 669.23,165.07 L 678.59,163.39 L 688.04,161.80 L 695.16,160.21 L 703.47,158.66 L 711.39,157.20 L 722.19,155.65 L 728.70,154.23 L 737.10,153.00 L 745.82,151.63 L 753.94,150.39 L 762.30,149.15 L 772.13,147.95 L 778.80,146.89 L 787.11,145.79 L 795.76,144.77 L 805.63,143.66 L 821.96,141.72 L 829.91,140.70 L 837.87,139.73 L 846.28,138.71 L 855.32,137.87 L 865.62,137.12 L 871.34,136.36 L 881.16,135.61 L 889.32,134.95 L 900.89,134.28 L 907.36,133.67 L 914.86,133.05 L 922.59,132.51 L 930.92,132.03" fill="none" stroke="#1769aa" stroke-width="2"/>
<line class="axis" x1="70" y1="338" x2="956" y2="338"/>
<line class="axis" x1="70" y1="108" x2="70" y2="338"/>
<text class="label" x="18" y="223.00" transform="rotate(-90 18 223.00)" text-anchor="middle">degrees</text>
<text class="panel-title" x="70" y="364">Yaw position</text>
<line class="grid" x1="70" y1="606.00" x2="956" y2="606.00"/>
<text class="label" x="62" y="610.00" text-anchor="end">1.4</text>
<line class="grid" x1="70" y1="548.50" x2="956" y2="548.50"/>
<text class="label" x="62" y="552.50" text-anchor="end">3.6</text>
<line class="grid" x1="70" y1="491.00" x2="956" y2="491.00"/>
<text class="label" x="62" y="495.00" text-anchor="end">5.7</text>
<line class="grid" x1="70" y1="433.50" x2="956" y2="433.50"/>
<text class="label" x="62" y="437.50" text-anchor="end">7.9</text>
<line class="grid" x1="70" y1="376.00" x2="956" y2="376.00"/>
<text class="label" x="62" y="380.00" text-anchor="end">10.1</text>
<line class="grid" x1="70.00" y1="376" x2="70.00" y2="606"/>
<line class="grid" x1="217.67" y1="376" x2="217.67" y2="606"/>
<line class="grid" x1="365.33" y1="376" x2="365.33" y2="606"/>
<line class="grid" x1="513.00" y1="376" x2="513.00" y2="606"/>
<line class="grid" x1="660.67" y1="376" x2="660.67" y2="606"/>
<line class="grid" x1="808.33" y1="376" x2="808.33" y2="606"/>
<line class="grid" x1="956.00" y1="376" x2="956.00" y2="606"/>
<line x1="304.24" y1="376" x2="304.24" y2="606" stroke="#20242a" stroke-width="1.2" opacity="0.55"/>
<line x1="338.16" y1="376" x2="338.16" y2="606" stroke="#6b7280" stroke-width="1.2" opacity="0.55"/>
<line x1="405.78" y1="376" x2="405.78" y2="606" stroke="#6b7280" stroke-width="1.2" opacity="0.55"/>
<line x1="711.39" y1="376" x2="711.39" y2="606" stroke="#1769aa" stroke-width="1.2" opacity="0.55"/>
<line x1="703.95" y1="376" x2="703.95" y2="606" stroke="#c94f2d" stroke-width="1.2" opacity="0.55"/>
<path d="M 96.02,579.30 L 103.89,579.30 L 112.47,577.32 L 129.79,575.39 L 139.52,573.69 L 148.11,573.69 L 164.84,571.37 L 171.66,569.72 L 179.91,569.72 L 187.98,568.65 L 197.03,567.24 L 205.58,567.24 L 214.32,564.64 L 221.60,562.46 L 230.55,562.46 L 240.55,559.79 L 248.72,559.79 L 255.22,557.17 L 266.79,555.28 L 274.87,555.28 L 281.19,552.84 L 290.81,552.84 L 297.87,550.76 L 306.11,548.92 L 316.00,548.92 L 323.05,547.03 L 332.56,547.03 L 348.52,542.47 L 357.08,542.47 L 365.78,540.06 L 374.26,540.06 L 383.36,537.02 L 390.27,533.95 L 400.24,533.95 L 408.25,530.55 L 416.70,530.55 L 425.79,528.17 L 433.41,525.58 L 442.29,525.58 L 450.23,523.10 L 458.07,523.10 L 467.07,519.54 L 475.55,516.68 L 483.89,516.68 L 493.30,512.85 L 502.74,510.17 L 517.50,507.05 L 525.60,507.05 L 534.57,504.38 L 542.49,504.38 L 551.65,501.14 L 559.73,497.49 L 570.07,497.49 L 576.94,494.57 L 585.06,492.01 L 593.84,492.01 L 601.98,487.61 L 610.41,487.61 L 618.78,484.06 L 627.99,484.06 L 636.30,480.33 L 644.04,476.17 L 653.71,476.17 L 661.34,472.06 L 669.90,469.36 L 677.75,469.36 L 686.48,464.96 L 696.97,464.96 L 703.95,459.87 L 711.93,459.87 L 720.86,456.19 L 729.21,451.62 L 736.65,451.62 L 746.32,446.12 L 756.54,441.92 L 770.80,437.19 L 780.65,437.19 L 788.22,433.82 L 798.70,429.27 L 803.85,429.27 L 814.20,424.08 L 823.40,424.08 L 830.58,418.27 L 838.98,414.26 L 847.06,414.26 L 856.45,408.53 L 863.48,408.53 L 871.96,403.73 L 880.48,398.26 L 890.95,398.26 L 896.86,398.26 L 908.84,398.26 L 913.80,398.26 L 922.13,398.26 L 930.51,398.26" fill="none" stroke="#48525f" stroke-width="2" stroke-dasharray="6 4"/>
<path d="M 96.02,583.74 L 103.89,582.83 L 112.47,581.88 L 129.79,579.77 L 139.52,578.67 L 148.11,577.66 L 164.84,575.61 L 171.66,574.41 L 179.91,573.50 L 187.98,572.45 L 197.03,571.49 L 205.58,570.58 L 214.32,569.67 L 221.60,568.67 L 230.55,567.57 L 240.55,566.23 L 248.72,565.03 L 255.22,563.64 L 266.79,562.30 L 274.87,560.68 L 281.19,559.14 L 290.81,557.66 L 297.87,556.27 L 306.11,554.98 L 316.00,553.59 L 323.05,552.30 L 332.56,551.06 L 348.52,548.71 L 357.08,547.47 L 365.78,546.22 L 374.26,544.84 L 383.36,543.45 L 390.27,541.87 L 400.24,540.39 L 408.25,538.52 L 416.70,536.89 L 425.79,535.17 L 433.41,533.35 L 442.29,531.72 L 450.23,529.95 L 458.07,528.28 L 467.07,526.75 L 475.55,525.07 L 483.89,523.35 L 493.30,521.63 L 502.74,520.05 L 517.50,516.08 L 525.60,514.07 L 534.57,512.01 L 542.49,510.00 L 551.65,508.28 L 559.73,506.17 L 570.07,504.40 L 576.94,502.49 L 585.06,500.71 L 593.84,498.94 L 601.98,497.13 L 610.41,495.50 L 618.78,493.30 L 627.99,491.43 L 636.30,489.37 L 644.04,487.22 L 653.71,485.11 L 661.34,482.67 L 669.90,480.52 L 677.75,478.03 L 686.48,475.69 L 696.97,473.53 L 703.95,471.14 L 711.93,468.94 L 720.86,466.59 L 729.21,463.96 L 736.65,461.57 L 746.32,458.70 L 756.54,456.40 L 770.80,450.47 L 780.65,447.84 L 788.22,444.77 L 798.70,441.95 L 803.85,439.46 L 814.20,436.59 L 823.40,434.34 L 830.58,431.47 L 838.98,429.32 L 847.06,426.59 L 856.45,423.53 L 863.48,420.70 L 871.96,417.16 L 880.48,414.24 L 890.95,410.84 L 896.86,407.59 L 908.84,404.82 L 913.80,402.76 L 922.13,401.03 L 930.51,399.41" fill="none" stroke="#c94f2d" stroke-width="2"/>
<line class="axis" x1="70" y1="606" x2="956" y2="606"/>
<line class="axis" x1="70" y1="376" x2="70" y2="606"/>
<text class="label" x="18" y="491.00" transform="rotate(-90 18 491.00)" text-anchor="middle">degrees</text>
<text class="panel-title" x="70" y="632">Pitch disturbance while moving</text>
<line class="grid" x1="70" y1="874.00" x2="956" y2="874.00"/>
<text class="label" x="62" y="878.00" text-anchor="end">-0.2</text>
<line class="grid" x1="70" y1="816.50" x2="956" y2="816.50"/>
<text class="label" x="62" y="820.50" text-anchor="end">0.0</text>
<line class="grid" x1="70" y1="759.00" x2="956" y2="759.00"/>
<text class="label" x="62" y="763.00" text-anchor="end">0.2</text>
<line class="grid" x1="70" y1="701.50" x2="956" y2="701.50"/>
<text class="label" x="62" y="705.50" text-anchor="end">0.5</text>
<line class="grid" x1="70" y1="644.00" x2="956" y2="644.00"/>
<text class="label" x="62" y="648.00" text-anchor="end">0.7</text>
<line class="grid" x1="70.00" y1="644" x2="70.00" y2="874"/>
<line class="grid" x1="217.67" y1="644" x2="217.67" y2="874"/>
<line class="grid" x1="365.33" y1="644" x2="365.33" y2="874"/>
<line class="grid" x1="513.00" y1="644" x2="513.00" y2="874"/>
<line class="grid" x1="660.67" y1="644" x2="660.67" y2="874"/>
<line class="grid" x1="808.33" y1="644" x2="808.33" y2="874"/>
<line class="grid" x1="956.00" y1="644" x2="956.00" y2="874"/>
<line x1="304.24" y1="644" x2="304.24" y2="874" stroke="#20242a" stroke-width="1.2" opacity="0.55"/>
<line x1="338.16" y1="644" x2="338.16" y2="874" stroke="#6b7280" stroke-width="1.2" opacity="0.55"/>
<line x1="405.78" y1="644" x2="405.78" y2="874" stroke="#6b7280" stroke-width="1.2" opacity="0.55"/>
<line x1="711.39" y1="644" x2="711.39" y2="874" stroke="#1769aa" stroke-width="1.2" opacity="0.55"/>
<line x1="703.95" y1="644" x2="703.95" y2="874" stroke="#c94f2d" stroke-width="1.2" opacity="0.55"/>
<path d="M 95.08,826.24 L 111.99,800.60 L 120.71,778.62 L 130.26,798.81 L 137.27,826.81 L 146.44,807.79 L 154.57,787.07 L 163.01,806.28 L 171.08,830.40 L 180.91,808.42 L 191.54,829.18 L 197.85,844.43 L 206.19,820.34 L 218.61,830.31 L 224.81,839.48 L 233.03,812.43 L 239.89,822.37 L 248.24,798.70 L 255.62,813.70 L 264.44,826.91 L 272.47,805.36 L 280.72,811.45 L 289.44,790.32 L 297.44,821.93 L 308.82,834.58 L 315.02,814.72 L 323.82,844.45 L 331.58,824.16 L 340.96,837.64 L 349.70,850.52 L 357.97,824.31 L 366.21,842.14 L 390.65,817.39 L 399.03,794.57 L 407.42,784.15 L 417.63,763.02 L 425.15,789.31 L 432.99,799.70 L 443.96,783.64 L 450.68,811.09 L 459.42,792.92 L 476.72,816.48 L 484.99,791.96 L 492.34,804.62 L 500.48,782.64 L 509.28,779.99 L 519.46,797.87 L 528.03,778.85 L 535.04,799.38 L 544.15,801.26 L 551.19,781.82 L 561.44,793.80 L 568.06,775.20 L 576.55,796.21 L 586.71,800.27 L 593.36,781.25 L 604.03,791.70 L 612.67,773.53 L 619.66,789.45 L 630.37,785.96 L 635.84,766.94 L 645.54,774.74 L 652.61,757.83 L 663.36,778.38 L 669.23,771.81 L 678.59,755.75 L 688.04,764.26 L 695.16,749.04 L 703.47,747.97 L 711.39,734.02 L 722.19,738.15 L 728.70,745.63 L 737.10,733.79 L 745.82,736.12 L 753.94,734.39 L 762.30,722.56 L 772.13,729.68 L 778.80,719.53 L 787.11,724.80 L 795.76,715.07 L 805.63,719.71 L 821.96,715.55 L 829.91,715.38 L 837.87,711.33 L 846.28,701.60 L 855.32,705.65 L 865.62,698.46 L 871.34,702.68 L 881.16,701.72 L 889.32,695.38 L 900.89,689.04 L 907.36,683.12 L 914.86,677.20 L 922.59,672.13 L 930.92,667.48" fill="none" stroke="#1769aa" stroke-width="2"/>
<path d="M 95.08,817.02 L 111.99,817.02 L 120.71,817.02 L 130.26,817.02 L 137.27,817.02 L 146.44,817.02 L 154.57,817.02 L 163.01,817.02 L 171.08,817.02 L 180.91,817.02 L 191.54,817.02 L 197.85,817.02 L 206.19,817.02 L 218.61,817.02 L 224.81,817.02 L 233.03,817.02 L 239.89,817.02 L 248.24,817.02 L 255.62,817.02 L 264.44,817.02 L 272.47,817.02 L 280.72,817.02 L 289.44,817.02 L 297.44,817.02 L 308.82,817.02 L 315.02,817.02 L 323.82,817.02 L 331.58,817.02 L 340.96,817.02 L 349.70,817.02 L 357.97,817.02 L 366.21,817.02 L 390.65,817.02 L 399.03,817.02 L 407.42,817.02 L 417.63,817.02 L 425.15,817.02 L 432.99,817.02 L 443.96,817.02 L 450.68,817.02 L 459.42,817.02 L 476.72,817.02 L 484.99,817.02 L 492.34,817.02 L 500.48,817.02 L 509.28,817.02 L 519.46,817.02 L 528.03,817.02 L 535.04,817.02 L 544.15,817.02 L 551.19,817.02 L 561.44,817.02 L 568.06,817.02 L 576.55,817.02 L 586.71,817.02 L 593.36,817.02 L 604.03,817.02 L 612.67,817.02 L 619.66,817.02 L 630.37,817.02 L 635.84,817.02 L 645.54,817.02 L 652.61,817.02 L 663.36,817.02 L 669.23,817.02 L 678.59,817.02 L 688.04,817.02 L 695.16,817.02 L 703.47,817.02 L 711.39,817.02 L 722.19,817.02 L 728.70,817.02 L 737.10,817.02 L 745.82,817.02 L 753.94,817.02 L 762.30,817.02 L 772.13,817.02 L 778.80,817.02 L 787.11,817.02 L 795.76,817.02 L 805.63,817.02 L 821.96,817.02 L 829.91,817.02 L 837.87,817.02 L 846.28,817.02 L 855.32,817.02 L 865.62,817.02 L 871.34,817.02 L 881.16,817.02 L 889.32,817.02 L 900.89,817.02 L 907.36,817.02 L 914.86,817.02 L 922.59,817.02 L 930.92,817.02" fill="none" stroke="#8a94a3" stroke-width="2" stroke-dasharray="6 4"/>
<line class="axis" x1="70" y1="874" x2="956" y2="874"/>
<line class="axis" x1="70" y1="644" x2="70" y2="874"/>
<text class="label" x="18" y="759.00" transform="rotate(-90 18 759.00)" text-anchor="middle">degrees</text>
<text class="panel-title" x="70" y="900">Yaw disturbance while moving</text>
<line class="grid" x1="70" y1="1142.00" x2="956" y2="1142.00"/>
<text class="label" x="62" y="1146.00" text-anchor="end">-0.5</text>
<line class="grid" x1="70" y1="1084.50" x2="956" y2="1084.50"/>
<text class="label" x="62" y="1088.50" text-anchor="end">-0.3</text>
<line class="grid" x1="70" y1="1027.00" x2="956" y2="1027.00"/>
<text class="label" x="62" y="1031.00" text-anchor="end">-0.1</text>
<line class="grid" x1="70" y1="969.50" x2="956" y2="969.50"/>
<text class="label" x="62" y="973.50" text-anchor="end">0.1</text>
<line class="grid" x1="70" y1="912.00" x2="956" y2="912.00"/>
<text class="label" x="62" y="916.00" text-anchor="end">0.3</text>
<line class="grid" x1="70.00" y1="912" x2="70.00" y2="1142"/>
<text class="label" x="70.00" y="1162" text-anchor="middle">-0.28</text>
<line class="grid" x1="217.67" y1="912" x2="217.67" y2="1142"/>
<text class="label" x="217.67" y="1162" text-anchor="middle">-0.10</text>
<line class="grid" x1="365.33" y1="912" x2="365.33" y2="1142"/>
<text class="label" x="365.33" y="1162" text-anchor="middle">0.07</text>
<line class="grid" x1="513.00" y1="912" x2="513.00" y2="1142"/>
<text class="label" x="513.00" y="1162" text-anchor="middle">0.25</text>
<line class="grid" x1="660.67" y1="912" x2="660.67" y2="1142"/>
<text class="label" x="660.67" y="1162" text-anchor="middle">0.42</text>
<line class="grid" x1="808.33" y1="912" x2="808.33" y2="1142"/>
<text class="label" x="808.33" y="1162" text-anchor="middle">0.60</text>
<line class="grid" x1="956.00" y1="912" x2="956.00" y2="1142"/>
<text class="label" x="956.00" y="1162" text-anchor="middle">0.77</text>
<line x1="304.24" y1="912" x2="304.24" y2="1142" stroke="#20242a" stroke-width="1.2" opacity="0.55"/>
<line x1="338.16" y1="912" x2="338.16" y2="1142" stroke="#6b7280" stroke-width="1.2" opacity="0.55"/>
<line x1="405.78" y1="912" x2="405.78" y2="1142" stroke="#6b7280" stroke-width="1.2" opacity="0.55"/>
<line x1="711.39" y1="912" x2="711.39" y2="1142" stroke="#1769aa" stroke-width="1.2" opacity="0.55"/>
<line x1="703.95" y1="912" x2="703.95" y2="1142" stroke="#c94f2d" stroke-width="1.2" opacity="0.55"/>
<path d="M 96.02,979.91 L 103.89,969.53 L 112.47,981.20 L 129.79,979.19 L 139.52,986.08 L 148.11,974.61 L 164.84,977.54 L 171.66,982.77 L 179.91,972.39 L 187.98,972.61 L 197.03,977.77 L 205.58,967.39 L 214.32,986.69 L 221.60,1000.07 L 230.55,987.51 L 240.55,1002.67 L 248.72,989.02 L 255.22,1003.15 L 266.79,1009.37 L 274.87,990.80 L 281.19,1001.22 L 290.81,984.29 L 297.87,992.09 L 306.11,998.42 L 316.00,982.58 L 323.05,989.44 L 332.56,975.24 L 348.52,1000.50 L 357.08,986.30 L 365.78,999.61 L 374.26,983.77 L 383.36,1002.60 L 390.27,1019.64 L 400.24,1002.71 L 408.25,1020.13 L 416.70,1001.57 L 425.79,1009.06 L 433.41,1017.92 L 442.29,999.35 L 450.23,1007.46 L 458.07,988.35 L 467.07,1011.53 L 475.55,1025.01 L 483.89,1005.34 L 493.30,1029.36 L 502.74,1041.99 L 517.50,1032.24 L 525.60,1009.30 L 534.57,1016.27 L 542.49,993.33 L 551.65,1010.62 L 559.73,1028.27 L 570.07,1008.07 L 576.94,1019.61 L 585.06,1028.54 L 593.84,1008.33 L 601.98,1037.78 L 610.41,1019.21 L 618.78,1034.64 L 627.99,1013.34 L 636.30,1032.38 L 644.04,1055.29 L 653.71,1031.26 L 661.34,1050.32 L 669.90,1056.64 L 677.75,1028.24 L 686.48,1051.67 L 696.97,1027.10 L 703.95,1057.91 L 711.93,1032.78 L 720.86,1047.94 L 729.21,1070.09 L 736.65,1042.78 L 746.32,1072.81 L 756.54,1094.47 L 770.80,1080.78 L 780.65,1050.74 L 788.22,1054.18 L 798.70,1073.92 L 803.85,1045.52 L 814.20,1071.95 L 823.40,1046.28 L 830.58,1079.89 L 838.98,1101.07 L 847.06,1069.94 L 856.45,1100.43 L 863.48,1068.20 L 871.96,1082.55 L 880.48,1111.66 L 890.95,1072.88 L 896.86,1035.74 L 908.84,1004.06 L 913.80,980.58 L 922.13,960.91 L 930.51,942.34" fill="none" stroke="#c94f2d" stroke-width="2"/>
<path d="M 96.02,995.44 L 103.89,995.44 L 112.47,995.44 L 129.79,995.44 L 139.52,995.44 L 148.11,995.44 L 164.84,995.44 L 171.66,995.44 L 179.91,995.44 L 187.98,995.44 L 197.03,995.44 L 205.58,995.44 L 214.32,995.44 L 221.60,995.44 L 230.55,995.44 L 240.55,995.44 L 248.72,995.44 L 255.22,995.44 L 266.79,995.44 L 274.87,995.44 L 281.19,995.44 L 290.81,995.44 L 297.87,995.44 L 306.11,995.44 L 316.00,995.44 L 323.05,995.44 L 332.56,995.44 L 348.52,995.44 L 357.08,995.44 L 365.78,995.44 L 374.26,995.44 L 383.36,995.44 L 390.27,995.44 L 400.24,995.44 L 408.25,995.44 L 416.70,995.44 L 425.79,995.44 L 433.41,995.44 L 442.29,995.44 L 450.23,995.44 L 458.07,995.44 L 467.07,995.44 L 475.55,995.44 L 483.89,995.44 L 493.30,995.44 L 502.74,995.44 L 517.50,995.44 L 525.60,995.44 L 534.57,995.44 L 542.49,995.44 L 551.65,995.44 L 559.73,995.44 L 570.07,995.44 L 576.94,995.44 L 585.06,995.44 L 593.84,995.44 L 601.98,995.44 L 610.41,995.44 L 618.78,995.44 L 627.99,995.44 L 636.30,995.44 L 644.04,995.44 L 653.71,995.44 L 661.34,995.44 L 669.90,995.44 L 677.75,995.44 L 686.48,995.44 L 696.97,995.44 L 703.95,995.44 L 711.93,995.44 L 720.86,995.44 L 729.21,995.44 L 736.65,995.44 L 746.32,995.44 L 756.54,995.44 L 770.80,995.44 L 780.65,995.44 L 788.22,995.44 L 798.70,995.44 L 803.85,995.44 L 814.20,995.44 L 823.40,995.44 L 830.58,995.44 L 838.98,995.44 L 847.06,995.44 L 856.45,995.44 L 863.48,995.44 L 871.96,995.44 L 880.48,995.44 L 890.95,995.44 L 896.86,995.44 L 908.84,995.44 L 913.80,995.44 L 922.13,995.44 L 930.51,995.44" fill="none" stroke="#8a94a3" stroke-width="2" stroke-dasharray="6 4"/>
<line class="axis" x1="70" y1="1142" x2="956" y2="1142"/>
<line class="axis" x1="70" y1="912" x2="70" y2="1142"/>
<text class="label" x="18" y="1027.00" transform="rotate(-90 18 1027.00)" text-anchor="middle">degrees</text>
<text class="label" x="513.0" y="1178" text-anchor="middle">time relative to event (s)</text>
</svg>