<svg xmlns="http://www.w3.org/2000/svg" viewBox="0 0 980 1186" role="img">
<style>
.axis{stroke:#718096;stroke-width:1}.grid{stroke:#e5eaf0;stroke-width:1}.label{font:12px sans-serif;fill:#5a6675}.title{font:700 18px sans-serif;fill:#20242a}.subtitle{font:12px sans-serif;fill:#5a6675}.panel-title{font:700 13px sans-serif;fill:#20242a}
</style>
<rect width="980" height="1186" fill="#ffffff"/>
<text class="title" x="70" y="28">Motion disturbance example 13: event 12</text>
<text class="subtitle" x="70" y="50">Start pitch 9.7 deg, yaw 3.4 deg; target motion 5.8 deg; disturbance vector 0.62 deg.</text>
<line x1="70" y1="76" x2="94" y2="76" stroke="#48525f" stroke-width="2" stroke-dasharray="6 4"/>
<text class="label" x="100" y="80">target</text>
<line x1="200" y1="76" x2="224" y2="76" stroke="#1769aa" stroke-width="2"/>
<text class="label" x="230" y="80">pitch actual</text>
<line x1="338" y1="76" x2="362" y2="76" stroke="#c94f2d" stroke-width="2"/>
<text class="label" x="368" y="80">yaw actual</text>
<line x1="468" y1="76" x2="492" y2="76" stroke="#1769aa" stroke-width="2"/>
<text class="label" x="498" y="80">pitch disturbance</text>
<line x1="641" y1="76" x2="665" y2="76" stroke="#8a94a3" stroke-width="2" stroke-dasharray="6 4"/>
<text class="label" x="671" y="80">zero baseline</text>
<line x1="786" y1="76" x2="810" y2="76" stroke="#c94f2d" stroke-width="2"/>
<text class="label" x="816" y="80">yaw disturbance</text>
<text class="panel-title" x="70" y="96">Pitch position</text>
<line class="grid" x1="70" y1="338.00" x2="956" y2="338.00"/>
<text class="label" x="62" y="342.00" text-anchor="end">7.8</text>
<line class="grid" x1="70" y1="280.50" x2="956" y2="280.50"/>
<text class="label" x="62" y="284.50" text-anchor="end">8.7</text>
<line class="grid" x1="70" y1="223.00" x2="956" y2="223.00"/>
<text class="label" x="62" y="227.00" text-anchor="end">9.6</text>
<line class="grid" x1="70" y1="165.50" x2="956" y2="165.50"/>
<text class="label" x="62" y="169.50" text-anchor="end">10.5</text>
<line class="grid" x1="70" y1="108.00" x2="956" y2="108.00"/>
<text class="label" x="62" y="112.00" text-anchor="end">11.4</text>
<line class="grid" x1="70.00" y1="108" x2="70.00" y2="338"/>
<line class="grid" x1="217.67" y1="108" x2="217.67" y2="338"/>
<line class="grid" x1="365.33" y1="108" x2="365.33" y2="338"/>
<line class="grid" x1="513.00" y1="108" x2="513.00" y2="338"/>
<line class="grid" x1="660.67" y1="108" x2="660.67" y2="338"/>
<line class="grid" x1="808.33" y1="108" x2="808.33" y2="338"/>
<line class="grid" x1="956.00" y1="108" x2="956.00" y2="338"/>
<line x1="303.26" y1="108" x2="303.26" y2="338" stroke="#20242a" stroke-width="1.2" opacity="0.55"/>
<text class="label" x="307.26" y="120.00" transform="rotate(-35 307.26 120.00)">fire</text>
<line x1="336.65" y1="108" x2="336.65" y2="338" stroke="#6b7280" stroke-width="1.2" opacity="0.55"/>
<text class="label" x="340.65" y="120.00" transform="rotate(-35 340.65 120.00)">muzzle</text>
<line x1="386.60" y1="108" x2="386.60" y2="338" stroke="#6b7280" stroke-width="1.2" opacity="0.55"/>
<text class="label" x="390.60" y="120.00" transform="rotate(-35 390.60 120.00)">impact</text>
<line x1="720.70" y1="108" x2="720.70" y2="338" stroke="#1769aa" stroke-width="1.2" opacity="0.55"/>
<text class="label" x="724.70" y="120.00" transform="rotate(-35 724.70 120.00)">pitch peak</text>
<line x1="528.56" y1="108" x2="528.56" y2="338" stroke="#c94f2d" stroke-width="1.2" opacity="0.55"/>
<text class="label" x="532.56" y="120.00" transform="rotate(-35 532.56 120.00)">yaw peak</text>
<path d="M 95.08,287.05 L 100.65,280.41 L 108.39,280.41 L 116.38,273.37 L 125.42,267.64 L 133.44,267.64 L 142.04,259.54 L 150.56,254.49 L 160.35,254.49 L 167.56,245.76 L 174.95,245.76 L 183.43,241.35 L 192.20,241.35 L 202.43,234.33 L 209.94,227.32 L 220.76,222.90 L 225.72,222.90 L 235.83,216.28 L 243.80,216.28 L 252.22,216.28 L 259.46,205.33 L 267.94,201.00 L 278.93,194.52 L 284.66,194.52 L 293.56,188.40 L 301.27,188.40 L 310.20,181.87 L 318.47,175.07 L 326.31,175.07 L 335.17,170.94 L 343.73,170.94 L 351.73,165.07 L 360.25,158.69 L 369.64,158.69 L 377.54,151.28 L 385.35,151.28 L 395.96,146.70 L 402.02,139.52 L 410.61,139.52 L 419.15,133.59 L 427.37,133.59 L 435.59,133.04 L 443.77,133.04 L 452.24,133.04 L 460.96,133.04 L 470.70,133.04 L 478.00,133.04 L 494.56,133.04 L 503.58,133.04 L 511.36,133.04 L 519.71,133.04 L 537.41,133.04 L 545.03,133.04 L 555.26,133.04 L 561.44,133.04 L 570.99,133.04 L 578.96,133.04 L 586.75,133.04 L 596.71,133.04 L 604.45,133.04 L 613.18,133.04 L 621.33,133.04 L 628.97,133.04 L 637.63,133.04 L 645.73,133.04 L 653.80,133.04 L 662.32,133.04 L 671.85,133.04 L 678.67,133.04 L 687.72,133.04 L 696.29,133.04 L 704.63,133.04 L 712.74,133.04 L 720.70,133.04 L 729.57,133.04 L 746.68,133.04 L 754.95,133.04 L 762.89,133.04 L 771.98,133.04 L 788.20,133.04 L 797.86,133.04 L 804.64,133.04 L 814.42,133.04 L 821.94,133.04 L 830.33,133.04 L 839.42,133.04 L 846.80,133.04 L 855.91,133.04 L 863.78,133.04 L 871.90,133.04 L 881.76,133.04 L 888.56,133.04 L 897.25,133.04 L 906.11,133.04 L 915.36,133.04 L 922.64,133.04 L 930.56,133.04" fill="none" stroke="#48525f" stroke-width="2" stroke-dasharray="6 4"/>
<path d="M 95.08,315.74 L 100.65,311.78 L 108.39,308.04 L 116.38,303.84 L 125.42,300.23 L 133.44,296.26 L 142.04,292.06 L 150.56,287.98 L 160.35,283.66 L 167.56,279.46 L 174.95,275.03 L 183.43,270.71 L 192.20,266.63 L 202.43,262.20 L 209.94,258.23 L 220.76,254.15 L 225.72,250.06 L 235.83,246.10 L 243.80,242.25 L 252.22,238.17 L 259.46,234.20 L 267.94,230.70 L 278.93,226.97 L 284.66,223.12 L 293.56,218.80 L 301.27,214.83 L 310.20,210.52 L 318.47,206.55 L 326.31,202.70 L 335.17,198.85 L 343.73,195.00 L 351.73,190.80 L 360.25,187.19 L 369.64,183.80 L 377.54,180.19 L 385.35,176.57 L 395.96,172.60 L 402.02,169.10 L 410.61,165.37 L 419.15,161.29 L 427.37,157.21 L 435.59,153.36 L 443.77,149.86 L 452.24,146.59 L 460.96,143.79 L 470.70,141.57 L 478.00,139.94 L 494.56,138.19 L 503.58,137.37 L 511.36,136.79 L 519.71,136.32 L 537.41,135.51 L 545.03,135.04 L 555.26,134.81 L 561.44,134.46 L 570.99,134.34 L 578.96,134.11 L 586.75,133.99 L 596.71,133.76 L 604.45,133.64 L 613.18,133.52 L 621.33,133.29 L 628.97,133.17 L 637.63,133.06 L 645.73,133.06 L 653.80,132.94 L 662.32,132.94 L 671.85,132.71 L 678.67,132.47 L 687.72,132.24 L 696.29,132.01 L 704.63,131.77 L 712.74,131.54 L 720.70,131.42 L 729.57,131.19 L 746.68,130.96 L 754.95,130.84 L 762.89,130.72 L 771.98,130.72 L 788.20,130.61 L 797.86,130.49 L 804.64,130.49 L 814.42,130.49 L 821.94,130.49 L 830.33,130.37 L 839.42,130.37 L 846.80,130.37 L 855.91,130.37 L 863.78,130.37 L 871.90,130.37 L 881.76,130.37 L 888.56,130.37 L 897.25,130.37 L 906.11,130.37 L 915.36,130.37 L 922.64,130.26 L 930.56,130.37" fill="none" stroke="#1769aa" stroke-width="2"/>
<line class="axis" x1="70" y1="338" x2="956" y2="338"/>
<line class="axis" x1="70" y1="108" x2="70" y2="338"/>
<text class="label" x="18" y="223.00" transform="rotate(-90 18 223.00)" text-anchor="middle">degrees</text>
<text class="panel-title" x="70" y="364">Yaw position</text>
<line class="grid" x1="70" y1="606.00" x2="956" y2="606.00"/>
<text class="label" x="62" y="610.00" text-anchor="end">0.8</text>
<line class="grid" x1="70" y1="548.50" x2="956" y2="548.50"/>
<text class="label" x="62" y="552.50" text-anchor="end">2.9</text>
<line class="grid" x1="70" y1="491.00" x2="956" y2="491.00"/>
<text class="label" x="62" y="495.00" text-anchor="end">5.1</text>
<line class="grid" x1="70" y1="433.50" x2="956" y2="433.50"/>
<text class="label" x="62" y="437.50" text-anchor="end">7.2</text>
<line class="grid" x1="70" y1="376.00" x2="956" y2="376.00"/>
<text class="label" x="62" y="380.00" text-anchor="end">9.4</text>
<line class="grid" x1="70.00" y1="376" x2="70.00" y2="606"/>
<line class="grid" x1="217.67" y1="376" x2="217.67" y2="606"/>
<line class="grid" x1="365.33" y1="376" x2="365.33" y2="606"/>
<line class="grid" x1="513.00" y1="376" x2="513.00" y2="606"/>
<line class="grid" x1="660.67" y1="376" x2="660.67" y2="606"/>
<line class="grid" x1="808.33" y1="376" x2="808.33" y2="606"/>
<line class="grid" x1="956.00" y1="376" x2="956.00" y2="606"/>
<line x1="303.26" y1="376" x2="303.26" y2="606" stroke="#20242a" stroke-width="1.2" opacity="0.55"/>
<line x1="336.65" y1="376" x2="336.65" y2="606" stroke="#6b7280" stroke-width="1.2" opacity="0.55"/>
<line x1="386.60" y1="376" x2="386.60" y2="606" stroke="#6b7280" stroke-width="1.2" opacity="0.55"/>
<line x1="720.70" y1="376" x2="720.70" y2="606" stroke="#1769aa" stroke-width="1.2" opacity="0.55"/>
<line x1="528.56" y1="376" x2="528.56" y2="606" stroke="#c94f2d" stroke-width="1.2" opacity="0.55"/>
<path d="M 99.81,575.41 L 108.85,575.41 L 128.22,567.99 L 134.72,567.99 L 141.64,564.63 L 151.11,561.89 L 158.64,561.89 L 168.59,557.21 L 176.55,557.21 L 183.88,553.50 L 193.89,550.28 L 201.03,550.28 L 209.35,546.90 L 218.03,546.90 L 226.14,543.77 L 234.58,540.24 L 245.27,540.24 L 251.10,540.24 L 261.60,536.01 L 267.48,533.41 L 276.26,529.03 L 292.98,523.98 L 303.72,523.98 L 309.75,519.88 L 328.72,515.27 L 334.68,510.30 L 343.03,510.30 L 352.26,508.45 L 360.77,502.86 L 368.50,502.86 L 377.01,498.57 L 387.30,493.38 L 394.37,493.38 L 412.62,487.84 L 418.59,481.78 L 428.48,478.67 L 436.16,478.67 L 445.43,472.27 L 453.48,472.27 L 461.44,467.54 L 472.35,467.54 L 477.59,461.83 L 486.43,456.17 L 495.84,456.17 L 502.82,449.27 L 512.32,449.27 L 520.21,443.61 L 528.56,436.94 L 539.38,436.94 L 553.26,431.42 L 561.89,424.17 L 583.60,419.16 L 588.20,419.16 L 595.48,411.36 L 603.96,408.14 L 622.81,399.30 L 630.11,399.30 L 639.32,399.30 L 651.44,399.30 L 654.22,399.30 L 664.34,399.30 L 670.57,399.30 L 679.83,399.30 L 688.34,399.30 L 698.12,399.30 L 706.75,399.30 L 713.36,399.30 L 722.69,399.30 L 729.96,399.30 L 738.47,399.30 L 747.54,399.30 L 755.51,399.30 L 763.79,399.30 L 772.88,399.30 L 780.20,399.30 L 789.26,399.30 L 797.24,399.30 L 805.06,399.30 L 817.06,399.30 L 822.52,399.30 L 832.46,399.30 L 838.92,399.30 L 847.16,399.30 L 857.25,399.30 L 865.47,399.30 L 873.30,399.30 L 880.55,399.30 L 889.04,399.30 L 898.32,399.30 L 909.12,399.30 L 914.32,399.30 L 923.90,399.30 L 930.92,399.30" fill="none" stroke="#48525f" stroke-width="2" stroke-dasharray="6 4"/>
<path d="M 99.81,583.74 L 108.85,582.63 L 128.22,580.06 L 134.72,577.89 L 141.64,575.71 L 151.11,573.29 L 158.64,570.58 L 168.59,567.92 L 176.55,565.93 L 183.88,563.32 L 193.89,561.00 L 201.03,558.72 L 209.35,556.45 L 218.03,554.56 L 226.14,552.38 L 234.58,550.21 L 245.27,548.42 L 251.10,546.24 L 261.60,544.69 L 267.48,542.85 L 276.26,540.82 L 292.98,536.22 L 303.72,533.85 L 309.75,530.95 L 328.72,525.67 L 334.68,522.96 L 343.03,520.45 L 352.26,517.59 L 360.77,515.12 L 368.50,512.99 L 377.01,510.19 L 387.30,507.67 L 394.37,505.20 L 412.62,499.83 L 418.59,496.83 L 428.48,493.69 L 436.16,490.15 L 445.43,486.81 L 453.48,484.15 L 461.44,480.81 L 472.35,477.67 L 477.59,474.76 L 486.43,471.96 L 495.84,469.01 L 502.82,465.76 L 512.32,463.10 L 520.21,459.81 L 528.56,456.38 L 539.38,452.75 L 553.26,444.71 L 561.89,440.60 L 583.60,433.73 L 588.20,429.62 L 595.48,426.57 L 603.96,423.42 L 622.81,416.21 L 630.11,412.58 L 639.32,409.34 L 651.44,406.39 L 654.22,404.16 L 664.34,401.98 L 670.57,400.15 L 679.83,398.98 L 688.34,398.69 L 698.12,398.79 L 706.75,398.84 L 713.36,398.84 L 722.69,399.03 L 729.96,399.18 L 738.47,399.08 L 747.54,398.94 L 755.51,398.79 L 763.79,398.65 L 772.88,398.60 L 780.20,398.50 L 789.26,398.45 L 797.24,398.40 L 805.06,398.40 L 817.06,398.40 L 822.52,398.45 L 832.46,398.45 L 838.92,398.45 L 847.16,398.35 L 857.25,398.31 L 865.47,398.26 L 873.30,398.26 L 880.55,398.26 L 889.04,398.26 L 898.32,398.26 L 909.12,398.31 L 914.32,398.31 L 923.90,398.26 L 930.92,398.26" fill="none" stroke="#c94f2d" stroke-width="2"/>
<line class="axis" x1="70" y1="606" x2="956" y2="606"/>
<line class="axis" x1="70" y1="376" x2="70" y2="606"/>
<text class="label" x="18" y="491.00" transform="rotate(-90 18 491.00)" text-anchor="middle">degrees</text>
<text class="panel-title" x="70" y="632">Pitch disturbance while moving</text>
<line class="grid" x1="70" y1="874.00" x2="956" y2="874.00"/>
<text class="label" x="62" y="878.00" text-anchor="end">-0.2</text>
<line class="grid" x1="70" y1="816.50" x2="956" y2="816.50"/>
<text class="label" x="62" y="820.50" text-anchor="end">0.0</text>
<line class="grid" x1="70" y1="759.00" x2="956" y2="759.00"/>
<text class="label" x="62" y="763.00" text-anchor="end">0.2</text>
<line class="grid" x1="70" y1="701.50" x2="956" y2="701.50"/>
<text class="label" x="62" y="705.50" text-anchor="end">0.4</text>
<line class="grid" x1="70" y1="644.00" x2="956" y2="644.00"/>
<text class="label" x="62" y="648.00" text-anchor="end">0.6</text>
<line class="grid" x1="70.00" y1="644" x2="70.00" y2="874"/>
<line class="grid" x1="217.67" y1="644" x2="217.67" y2="874"/>
<line class="grid" x1="365.33" y1="644" x2="365.33" y2="874"/>
<line class="grid" x1="513.00" y1="644" x2="513.00" y2="874"/>
<line class="grid" x1="660.67" y1="644" x2="660.67" y2="874"/>
<line class="grid" x1="808.33" y1="644" x2="808.33" y2="874"/>
<line class="grid" x1="956.00" y1="644" x2="956.00" y2="874"/>
<line x1="303.26" y1="644" x2="303.26" y2="874" stroke="#20242a" stroke-width="1.2" opacity="0.55"/>
<line x1="336.65" y1="644" x2="336.65" y2="874" stroke="#6b7280" stroke-width="1.2" opacity="0.55"/>
<line x1="386.60" y1="644" x2="386.60" y2="874" stroke="#6b7280" stroke-width="1.2" opacity="0.55"/>
<line x1="720.70" y1="644" x2="720.70" y2="874" stroke="#1769aa" stroke-width="1.2" opacity="0.55"/>
<line x1="528.56" y1="644" x2="528.56" y2="874" stroke="#c94f2d" stroke-width="1.2" opacity="0.55"/>
<path d="M 95.08,820.56 L 100.65,833.01 L 108.39,815.65 L 116.38,828.86 L 125.42,838.66 L 133.44,820.21 L 142.04,838.37 L 150.56,842.87 L 160.35,822.80 L 167.56,843.85 L 174.95,823.23 L 183.43,823.67 L 192.20,804.68 L 202.43,816.71 L 209.94,830.86 L 220.76,832.43 L 225.72,813.44 L 235.83,825.80 L 243.80,807.90 L 252.22,788.91 L 259.46,821.37 L 267.94,825.27 L 278.93,838.04 L 284.66,820.13 L 293.56,828.49 L 301.27,810.04 L 310.20,820.35 L 318.47,833.52 L 326.31,815.61 L 335.17,816.94 L 343.73,799.04 L 351.73,806.78 L 360.25,819.64 L 369.64,803.90 L 377.54,821.58 L 385.35,804.76 L 395.96,807.58 L 402.02,824.72 L 410.61,807.35 L 419.15,815.97 L 427.37,796.98 L 435.59,781.58 L 443.77,765.31 L 452.24,750.11 L 460.96,737.09 L 470.70,726.78 L 478.00,719.18 L 494.56,711.04 L 503.58,707.25 L 511.36,704.53 L 519.71,702.36 L 537.41,698.56 L 545.03,696.39 L 555.26,695.31 L 561.44,693.68 L 570.99,693.14 L 578.96,692.05 L 586.75,691.51 L 596.71,690.42 L 604.45,689.88 L 613.18,689.34 L 621.33,688.25 L 628.97,687.71 L 637.63,687.17 L 645.73,687.17 L 653.80,686.63 L 662.32,686.63 L 671.85,685.54 L 678.67,684.46 L 687.72,683.37 L 696.29,682.29 L 704.63,681.20 L 712.74,680.11 L 720.70,679.57 L 729.57,678.49 L 746.68,677.40 L 754.95,676.86 L 762.89,676.32 L 771.98,676.32 L 788.20,675.77 L 797.86,675.23 L 804.64,675.23 L 814.42,675.23 L 821.94,675.23 L 830.33,674.69 L 839.42,674.69 L 846.80,674.69 L 855.91,674.69 L 863.78,674.69 L 871.90,674.69 L 881.76,674.69 L 888.56,674.69 L 897.25,674.69 L 906.11,674.69 L 915.36,674.69 L 922.64,674.15 L 930.56,674.69" fill="none" stroke="#1769aa" stroke-width="2"/>
<path d="M 95.08,823.32 L 100.65,823.32 L 108.39,823.32 L 116.38,823.32 L 125.42,823.32 L 133.44,823.32 L 142.04,823.32 L 150.56,823.32 L 160.35,823.32 L 167.56,823.32 L 174.95,823.32 L 183.43,823.32 L 192.20,823.32 L 202.43,823.32 L 209.94,823.32 L 220.76,823.32 L 225.72,823.32 L 235.83,823.32 L 243.80,823.32 L 252.22,823.32 L 259.46,823.32 L 267.94,823.32 L 278.93,823.32 L 284.66,823.32 L 293.56,823.32 L 301.27,823.32 L 310.20,823.32 L 318.47,823.32 L 326.31,823.32 L 335.17,823.32 L 343.73,823.32 L 351.73,823.32 L 360.25,823.32 L 369.64,823.32 L 377.54,823.32 L 385.35,823.32 L 395.96,823.32 L 402.02,823.32 L 410.61,823.32 L 419.15,823.32 L 427.37,823.32 L 435.59,823.32 L 443.77,823.32 L 452.24,823.32 L 460.96,823.32 L 470.70,823.32 L 478.00,823.32 L 494.56,823.32 L 503.58,823.32 L 511.36,823.32 L 519.71,823.32 L 537.41,823.32 L 545.03,823.32 L 555.26,823.32 L 561.44,823.32 L 570.99,823.32 L 578.96,823.32 L 586.75,823.32 L 596.71,823.32 L 604.45,823.32 L 613.18,823.32 L 621.33,823.32 L 628.97,823.32 L 637.63,823.32 L 645.73,823.32 L 653.80,823.32 L 662.32,823.32 L 671.85,823.32 L 678.67,823.32 L 687.72,823.32 L 696.29,823.32 L 704.63,823.32 L 712.74,823.32 L 720.70,823.32 L 729.57,823.32 L 746.68,823.32 L 754.95,823.32 L 762.89,823.32 L 771.98,823.32 L 788.20,823.32 L 797.86,823.32 L 804.64,823.32 L 814.42,823.32 L 821.94,823.32 L 830.33,823.32 L 839.42,823.32 L 846.80,823.32 L 855.91,823.32 L 863.78,823.32 L 871.90,823.32 L 881.76,823.32 L 888.56,823.32 L 897.25,823.32 L 906.11,823.32 L 915.36,823.32 L 922.64,823.32 L 930.56,823.32" fill="none" stroke="#8a94a3" stroke-width="2" stroke-dasharray="6 4"/>
<line class="axis" x1="70" y1="874" x2="956" y2="874"/>
<line class="axis" x1="70" y1="644" x2="70" y2="874"/>
<text class="label" x="18" y="759.00" transform="rotate(-90 18 759.00)" text-anchor="middle">degrees</text>
<text class="panel-title" x="70" y="900">Yaw disturbance while moving</text>
<line class="grid" x1="70" y1="1142.00" x2="956" y2="1142.00"/>
<text class="label" x="62" y="1146.00" text-anchor="end">-0.5</text>
<line class="grid" x1="70" y1="1084.50" x2="956" y2="1084.50"/>
<text class="label" x="62" y="1088.50" text-anchor="end">-0.3</text>
<line class="grid" x1="70" y1="1027.00" x2="956" y2="1027.00"/>
<text class="label" x="62" y="1031.00" text-anchor="end">-0.0</text>
<line class="grid" x1="70" y1="969.50" x2="956" y2="969.50"/>
<text class="label" x="62" y="973.50" text-anchor="end">0.2</text>
<line class="grid" x1="70" y1="912.00" x2="956" y2="912.00"/>
<text class="label" x="62" y="916.00" text-anchor="end">0.5</text>
<line class="grid" x1="70.00" y1="912" x2="70.00" y2="1142"/>
<text class="label" x="70.00" y="1162" text-anchor="middle">-0.28</text>
<line class="grid" x1="217.67" y1="912" x2="217.67" y2="1142"/>
<text class="label" x="217.67" y="1162" text-anchor="middle">-0.10</text>
<line class="grid" x1="365.33" y1="912" x2="365.33" y2="1142"/>
<text class="label" x="365.33" y="1162" text-anchor="middle">0.07</text>
<line class="grid" x1="513.00" y1="912" x2="513.00" y2="1142"/>
<text class="label" x="513.00" y="1162" text-anchor="middle">0.25</text>
<line class="grid" x1="660.67" y1="912" x2="660.67" y2="1142"/>
<text class="label" x="660.67" y="1162" text-anchor="middle">0.43</text>
<line class="grid" x1="808.33" y1="912" x2="808.33" y2="1142"/>
<text class="label" x="808.33" y="1162" text-anchor="middle">0.60</text>
<line class="grid" x1="956.00" y1="912" x2="956.00" y2="1142"/>
<text class="label" x="956.00" y="1162" text-anchor="middle">0.78</text>
<line x1="303.26" y1="912" x2="303.26" y2="1142" stroke="#20242a" stroke-width="1.2" opacity="0.55"/>
<line x1="336.65" y1="912" x2="336.65" y2="1142" stroke="#6b7280" stroke-width="1.2" opacity="0.55"/>
<line x1="386.60" y1="912" x2="386.60" y2="1142" stroke="#6b7280" stroke-width="1.2" opacity="0.55"/>
<line x1="720.70" y1="912" x2="720.70" y2="1142" stroke="#1769aa" stroke-width="1.2" opacity="0.55"/>
<line x1="528.56" y1="912" x2="528.56" y2="1142" stroke="#c94f2d" stroke-width="1.2" opacity="0.55"/>
<path d="M 99.81,1019.28 L 108.85,1009.38 L 128.22,1052.60 L 134.72,1033.23 L 141.64,1043.75 L 151.11,1046.58 L 158.64,1022.47 L 168.59,1040.42 L 176.55,1022.76 L 183.88,1032.53 L 193.89,1040.50 L 201.03,1020.26 L 209.35,1030.16 L 218.03,1013.37 L 226.14,1021.78 L 234.58,1033.88 L 245.27,1017.95 L 251.10,998.57 L 261.60,1022.42 L 267.48,1029.14 L 276.26,1050.07 L 292.98,1054.12 L 303.72,1033.02 L 309.75,1043.66 L 328.72,1037.72 L 334.68,1057.86 L 343.03,1035.47 L 352.26,1026.45 L 360.77,1054.28 L 368.50,1035.33 L 377.01,1048.48 L 387.30,1072.28 L 394.37,1050.32 L 412.62,1051.89 L 418.59,1079.04 L 428.48,1078.76 L 436.16,1047.33 L 445.43,1074.53 L 453.48,1050.85 L 461.44,1063.24 L 472.35,1035.26 L 477.59,1060.22 L 486.43,1085.64 L 495.84,1059.37 L 502.82,1091.86 L 512.32,1068.18 L 520.21,1089.29 L 528.56,1118.08 L 539.38,1085.79 L 553.26,1063.46 L 561.89,1091.39 L 583.60,1074.75 L 588.20,1038.16 L 595.48,1080.43 L 603.96,1081.13 L 622.81,1095.65 L 630.11,1063.36 L 639.32,1034.51 L 651.44,1008.25 L 654.22,988.45 L 664.34,969.07 L 670.57,952.71 L 679.83,942.38 L 688.34,939.79 L 698.12,940.66 L 706.75,941.09 L 713.36,941.09 L 722.69,942.81 L 729.96,944.10 L 738.47,943.24 L 747.54,941.95 L 755.51,940.66 L 763.79,939.36 L 772.88,938.93 L 780.20,938.07 L 789.26,937.64 L 797.24,937.21 L 805.06,937.21 L 817.06,937.21 L 822.52,937.64 L 832.46,937.64 L 838.92,937.64 L 847.16,936.78 L 857.25,936.35 L 865.47,935.92 L 873.30,935.92 L 880.55,935.92 L 889.04,935.92 L 898.32,935.92 L 909.12,936.35 L 914.32,936.35 L 923.90,935.92 L 930.92,935.92" fill="none" stroke="#c94f2d" stroke-width="2"/>
<path d="M 99.81,1022.42 L 108.85,1022.42 L 128.22,1022.42 L 134.72,1022.42 L 141.64,1022.42 L 151.11,1022.42 L 158.64,1022.42 L 168.59,1022.42 L 176.55,1022.42 L 183.88,1022.42 L 193.89,1022.42 L 201.03,1022.42 L 209.35,1022.42 L 218.03,1022.42 L 226.14,1022.42 L 234.58,1022.42 L 245.27,1022.42 L 251.10,1022.42 L 261.60,1022.42 L 267.48,1022.42 L 276.26,1022.42 L 292.98,1022.42 L 303.72,1022.42 L 309.75,1022.42 L 328.72,1022.42 L 334.68,1022.42 L 343.03,1022.42 L 352.26,1022.42 L 360.77,1022.42 L 368.50,1022.42 L 377.01,1022.42 L 387.30,1022.42 L 394.37,1022.42 L 412.62,1022.42 L 418.59,1022.42 L 428.48,1022.42 L 436.16,1022.42 L 445.43,1022.42 L 453.48,1022.42 L 461.44,1022.42 L 472.35,1022.42 L 477.59,1022.42 L 486.43,1022.42 L 495.84,1022.42 L 502.82,1022.42 L 512.32,1022.42 L 520.21,1022.42 L 528.56,1022.42 L 539.38,1022.42 L 553.26,1022.42 L 561.89,1022.42 L 583.60,1022.42 L 588.20,1022.42 L 595.48,1022.42 L 603.96,1022.42 L 622.81,1022.42 L 630.11,1022.42 L 639.32,1022.42 L 651.44,1022.42 L 654.22,1022.42 L 664.34,1022.42 L 670.57,1022.42 L 679.83,1022.42 L 688.34,1022.42 L 698.12,1022.42 L 706.75,1022.42 L 713.36,1022.42 L 722.69,1022.42 L 729.96,1022.42 L 738.47,1022.42 L 747.54,1022.42 L 755.51,1022.42 L 763.79,1022.42 L 772.88,1022.42 L 780.20,1022.42 L 789.26,1022.42 L 797.24,1022.42 L 805.06,1022.42 L 817.06,1022.42 L 822.52,1022.42 L 832.46,1022.42 L 838.92,1022.42 L 847.16,1022.42 L 857.25,1022.42 L 865.47,1022.42 L 873.30,1022.42 L 880.55,1022.42 L 889.04,1022.42 L 898.32,1022.42 L 909.12,1022.42 L 914.32,1022.42 L 923.90,1022.42 L 930.92,1022.42" fill="none" stroke="#8a94a3" stroke-width="2" stroke-dasharray="6 4"/>
<line class="axis" x1="70" y1="1142" x2="956" y2="1142"/>
<line class="axis" x1="70" y1="912" x2="70" y2="1142"/>
<text class="label" x="18" y="1027.00" transform="rotate(-90 18 1027.00)" text-anchor="middle">degrees</text>
<text class="label" x="513.0" y="1178" text-anchor="middle">time relative to event (s)</text>
</svg>