<svg xmlns="http://www.w3.org/2000/svg" viewBox="0 0 980 1186" role="img">
<style>
.axis{stroke:#718096;stroke-width:1}.grid{stroke:#e5eaf0;stroke-width:1}.label{font:12px sans-serif;fill:#5a6675}.title{font:700 18px sans-serif;fill:#20242a}.subtitle{font:12px sans-serif;fill:#5a6675}.panel-title{font:700 13px sans-serif;fill:#20242a}
</style>
<rect width="980" height="1186" fill="#ffffff"/>
<text class="title" x="70" y="28">Motion disturbance example 14: event 372</text>
<text class="subtitle" x="70" y="50">Start pitch 2.4 deg, yaw 4.0 deg; target motion 1.9 deg; disturbance vector 2.65 deg.</text>
<line x1="70" y1="76" x2="94" y2="76" stroke="#48525f" stroke-width="2" stroke-dasharray="6 4"/>
<text class="label" x="100" y="80">target</text>
<line x1="200" y1="76" x2="224" y2="76" stroke="#1769aa" stroke-width="2"/>
<text class="label" x="230" y="80">pitch actual</text>
<line x1="338" y1="76" x2="362" y2="76" stroke="#c94f2d" stroke-width="2"/>
<text class="label" x="368" y="80">yaw actual</text>
<line x1="468" y1="76" x2="492" y2="76" stroke="#1769aa" stroke-width="2"/>
<text class="label" x="498" y="80">pitch disturbance</text>
<line x1="641" y1="76" x2="665" y2="76" stroke="#8a94a3" stroke-width="2" stroke-dasharray="6 4"/>
<text class="label" x="671" y="80">zero baseline</text>
<line x1="786" y1="76" x2="810" y2="76" stroke="#c94f2d" stroke-width="2"/>
<text class="label" x="816" y="80">yaw disturbance</text>
<text class="panel-title" x="70" y="96">Pitch position</text>
<line class="grid" x1="70" y1="338.00" x2="956" y2="338.00"/>
<text class="label" x="62" y="342.00" text-anchor="end">-0.8</text>
<line class="grid" x1="70" y1="280.50" x2="956" y2="280.50"/>
<text class="label" x="62" y="284.50" text-anchor="end">0.3</text>
<line class="grid" x1="70" y1="223.00" x2="956" y2="223.00"/>
<text class="label" x="62" y="227.00" text-anchor="end">1.3</text>
<line class="grid" x1="70" y1="165.50" x2="956" y2="165.50"/>
<text class="label" x="62" y="169.50" text-anchor="end">2.3</text>
<line class="grid" x1="70" y1="108.00" x2="956" y2="108.00"/>
<text class="label" x="62" y="112.00" text-anchor="end">3.4</text>
<line class="grid" x1="70.00" y1="108" x2="70.00" y2="338"/>
<line class="grid" x1="217.67" y1="108" x2="217.67" y2="338"/>
<line class="grid" x1="365.33" y1="108" x2="365.33" y2="338"/>
<line class="grid" x1="513.00" y1="108" x2="513.00" y2="338"/>
<line class="grid" x1="660.67" y1="108" x2="660.67" y2="338"/>
<line class="grid" x1="808.33" y1="108" x2="808.33" y2="338"/>
<line class="grid" x1="956.00" y1="108" x2="956.00" y2="338"/>
<line x1="301.70" y1="108" x2="301.70" y2="338" stroke="#20242a" stroke-width="1.2" opacity="0.55"/>
<text class="label" x="305.70" y="120.00" transform="rotate(-35 305.70 120.00)">fire</text>
<line x1="335.61" y1="108" x2="335.61" y2="338" stroke="#6b7280" stroke-width="1.2" opacity="0.55"/>
<text class="label" x="339.61" y="120.00" transform="rotate(-35 339.61 120.00)">muzzle</text>
<line x1="467.30" y1="108" x2="467.30" y2="338" stroke="#6b7280" stroke-width="1.2" opacity="0.55"/>
<text class="label" x="471.30" y="120.00" transform="rotate(-35 471.30 120.00)">impact</text>
<line x1="453.57" y1="108" x2="453.57" y2="338" stroke="#1769aa" stroke-width="1.2" opacity="0.55"/>
<text class="label" x="457.57" y="120.00" transform="rotate(-35 457.57 120.00)">pitch peak</text>
<line x1="356.73" y1="108" x2="356.73" y2="338" stroke="#c94f2d" stroke-width="1.2" opacity="0.55"/>
<text class="label" x="360.73" y="120.00" transform="rotate(-35 360.73 120.00)">yaw peak</text>
<path d="M 95.08,139.85 L 103.77,139.85 L 113.24,142.68 L 120.60,142.68 L 131.01,144.55 L 139.08,146.73 L 155.09,149.15 L 161.82,149.15 L 171.90,150.49 L 179.51,153.21 L 187.38,153.21 L 196.07,155.32 L 204.73,157.35 L 212.56,157.35 L 222.73,160.17 L 230.69,160.17 L 240.85,163.51 L 246.38,165.68 L 254.87,165.68 L 265.29,168.29 L 271.83,168.29 L 281.30,171.14 L 289.37,173.64 L 298.97,173.64 L 306.60,176.63 L 317.35,176.63 L 322.92,179.34 L 332.39,181.18 L 340.59,181.18 L 351.97,181.18 L 359.87,185.76 L 366.92,186.72 L 375.01,186.72 L 382.23,189.64 L 399.67,190.48 L 406.85,194.10 L 416.39,259.58 L 424.09,245.32 L 433.79,245.32 L 453.57,171.24 L 462.50,171.24 L 467.35,159.70 L 474.14,159.70 L 483.20,161.18 L 491.50,181.63 L 511.05,198.86 L 521.32,212.26 L 528.05,212.26 L 533.66,212.26 L 544.96,228.05 L 558.63,230.99 L 571.38,230.99 L 575.84,232.99 L 585.50,232.99 L 593.00,233.50 L 601.74,233.50 L 609.54,234.43 L 619.96,234.06 L 626.24,234.06 L 636.23,234.77 L 642.98,234.75 L 652.14,234.75 L 660.04,234.75 L 670.05,236.47 L 677.70,237.10 L 686.69,237.10 L 696.01,238.99 L 702.55,239.27 L 710.42,240.13 L 727.43,242.28 L 739.53,242.28 L 747.73,244.01 L 753.39,244.01 L 761.68,245.29 L 772.37,246.43 L 781.30,246.43 L 786.90,248.81 L 805.99,251.55 L 812.28,252.31 L 821.22,252.31 L 833.20,254.13 L 841.46,254.13 L 845.80,256.54 L 854.33,256.54 L 863.86,259.67 L 875.03,259.67 L 879.45,262.80 L 889.25,265.48 L 896.46,265.48 L 910.44,266.99" fill="none" stroke="#48525f" stroke-width="2" stroke-dasharray="6 4"/>
<path d="M 95.08,130.26 L 103.77,131.56 L 113.24,132.86 L 120.60,134.07 L 131.01,135.37 L 139.08,136.57 L 155.09,139.28 L 161.82,140.58 L 171.90,141.88 L 179.51,143.29 L 187.38,144.59 L 196.07,145.89 L 204.73,147.19 L 212.56,148.50 L 222.73,150.00 L 230.69,151.30 L 240.85,152.70 L 246.38,154.11 L 254.87,155.51 L 265.29,157.11 L 271.83,158.62 L 281.30,160.22 L 289.37,161.92 L 298.97,163.53 L 306.60,165.13 L 317.35,166.63 L 322.92,168.24 L 332.39,169.74 L 340.59,171.84 L 351.97,240.39 L 359.87,255.62 L 366.92,262.13 L 375.01,256.32 L 382.23,244.80 L 399.67,262.03 L 406.85,294.60 L 416.39,313.14 L 424.09,315.74 L 433.79,303.92 L 453.57,276.16 L 462.50,265.64 L 467.35,258.72 L 474.14,240.09 L 483.20,219.34 L 491.50,204.11 L 511.05,190.98 L 521.32,191.38 L 528.05,193.29 L 533.66,196.39 L 544.96,198.60 L 558.63,202.71 L 571.38,207.42 L 575.84,212.93 L 585.50,217.04 L 593.00,219.74 L 601.74,222.05 L 609.54,224.45 L 619.96,226.46 L 626.24,227.76 L 636.23,228.56 L 642.98,229.26 L 652.14,230.06 L 660.04,230.87 L 670.05,231.47 L 677.70,231.97 L 686.69,232.57 L 696.01,233.07 L 702.55,233.77 L 710.42,234.47 L 727.43,236.08 L 739.53,236.68 L 747.73,237.38 L 753.39,238.08 L 761.68,238.78 L 772.37,239.48 L 781.30,240.39 L 786.90,241.29 L 805.99,243.09 L 812.28,244.19 L 821.22,245.20 L 833.20,246.20 L 841.46,247.30 L 845.80,248.40 L 854.33,249.61 L 863.86,250.71 L 875.03,251.81 L 879.45,252.91 L 889.25,254.01 L 896.46,255.42 L 910.44,256.82" fill="none" stroke="#1769aa" stroke-width="2"/>
<line class="axis" x1="70" y1="338" x2="956" y2="338"/>
<line class="axis" x1="70" y1="108" x2="70" y2="338"/>
<text class="label" x="18" y="223.00" transform="rotate(-90 18 223.00)" text-anchor="middle">degrees</text>
<text class="panel-title" x="70" y="364">Yaw position</text>
<line class="grid" x1="70" y1="606.00" x2="956" y2="606.00"/>
<text class="label" x="62" y="610.00" text-anchor="end">2.1</text>
<line class="grid" x1="70" y1="548.50" x2="956" y2="548.50"/>
<text class="label" x="62" y="552.50" text-anchor="end">2.7</text>
<line class="grid" x1="70" y1="491.00" x2="956" y2="491.00"/>
<text class="label" x="62" y="495.00" text-anchor="end">3.2</text>
<line class="grid" x1="70" y1="433.50" x2="956" y2="433.50"/>
<text class="label" x="62" y="437.50" text-anchor="end">3.7</text>
<line class="grid" x1="70" y1="376.00" x2="956" y2="376.00"/>
<text class="label" x="62" y="380.00" text-anchor="end">4.3</text>
<line class="grid" x1="70.00" y1="376" x2="70.00" y2="606"/>
<line class="grid" x1="217.67" y1="376" x2="217.67" y2="606"/>
<line class="grid" x1="365.33" y1="376" x2="365.33" y2="606"/>
<line class="grid" x1="513.00" y1="376" x2="513.00" y2="606"/>
<line class="grid" x1="660.67" y1="376" x2="660.67" y2="606"/>
<line class="grid" x1="808.33" y1="376" x2="808.33" y2="606"/>
<line class="grid" x1="956.00" y1="376" x2="956.00" y2="606"/>
<line x1="301.70" y1="376" x2="301.70" y2="606" stroke="#20242a" stroke-width="1.2" opacity="0.55"/>
<line x1="335.61" y1="376" x2="335.61" y2="606" stroke="#6b7280" stroke-width="1.2" opacity="0.55"/>
<line x1="467.30" y1="376" x2="467.30" y2="606" stroke="#6b7280" stroke-width="1.2" opacity="0.55"/>
<line x1="453.57" y1="376" x2="453.57" y2="606" stroke="#1769aa" stroke-width="1.2" opacity="0.55"/>
<line x1="356.73" y1="376" x2="356.73" y2="606" stroke="#c94f2d" stroke-width="1.2" opacity="0.55"/>
<path d="M 96.52,405.38 L 111.63,405.32 L 129.60,404.90 L 137.46,404.42 L 145.70,404.42 L 153.94,404.42 L 162.52,404.12 L 171.00,404.24 L 180.98,404.05 L 189.24,404.05 L 196.82,403.84 L 205.18,403.96 L 213.52,403.96 L 221.89,404.03 L 232.47,404.03 L 238.10,403.56 L 247.07,403.52 L 255.39,403.52 L 264.68,403.84 L 272.88,403.84 L 280.79,403.96 L 289.90,404.51 L 297.30,404.51 L 307.12,404.48 L 315.56,404.48 L 322.53,404.58 L 331.16,404.58 L 340.00,405.04 L 348.94,405.04 L 356.73,405.18 L 365.25,406.01 L 390.47,406.01 L 407.92,405.74 L 425.52,450.75 L 432.16,450.75 L 442.44,450.05 L 451.13,450.05 L 459.48,453.02 L 465.93,453.02 L 478.75,440.96 L 487.71,419.70 L 494.16,402.65 L 500.32,402.65 L 508.18,403.23 L 517.36,403.23 L 530.62,406.21 L 542.22,406.47 L 551.03,405.05 L 559.17,401.51 L 569.53,401.51 L 577.79,398.26 L 584.58,398.26 L 596.06,398.39 L 603.45,398.39 L 613.15,399.53 L 618.03,400.94 L 627.21,402.16 L 643.50,403.73 L 655.29,403.73 L 663.25,405.69 L 668.87,405.69 L 677.07,407.94 L 688.63,407.94 L 694.42,410.21 L 703.33,413.01 L 711.23,416.61 L 720.17,416.61 L 728.23,420.06 L 736.43,420.06 L 744.51,420.06 L 754.43,424.27 L 765.12,428.51 L 769.81,431.72 L 779.03,431.72 L 786.55,433.01 L 795.81,433.01 L 804.15,436.19 L 813.11,438.78 L 823.31,438.78 L 829.43,441.27 L 838.26,441.27 L 846.94,443.13 L 858.53,443.13 L 862.67,446.75 L 873.17,446.75 L 880.25,449.48 L 888.30,449.48 L 896.07,452.56 L 906.35,454.79 L 914.64,454.79 L 923.14,458.44 L 930.92,461.36" fill="none" stroke="#48525f" stroke-width="2" stroke-dasharray="6 4"/>
<path d="M 96.52,406.63 L 111.63,406.05 L 129.60,405.86 L 137.46,405.47 L 145.70,405.27 L 153.94,405.08 L 162.52,404.89 L 171.00,404.69 L 180.98,404.50 L 189.24,404.50 L 196.82,404.30 L 205.18,404.30 L 213.52,404.11 L 221.89,404.11 L 232.47,404.11 L 238.10,404.11 L 247.07,403.91 L 255.39,403.91 L 264.68,403.91 L 272.88,403.72 L 280.79,403.72 L 289.90,403.72 L 297.30,403.72 L 307.12,403.72 L 315.56,403.91 L 322.53,403.91 L 331.16,403.91 L 340.00,404.30 L 348.94,476.74 L 356.73,583.74 L 365.25,578.89 L 390.47,467.42 L 407.92,435.76 L 425.52,420.81 L 432.16,426.83 L 442.44,436.73 L 451.13,454.21 L 459.48,466.83 L 465.93,462.95 L 478.75,456.54 L 487.71,447.22 L 494.16,437.71 L 500.32,430.52 L 508.18,425.08 L 517.36,420.23 L 530.62,416.54 L 542.22,414.60 L 551.03,413.62 L 559.17,411.10 L 569.53,408.77 L 577.79,406.44 L 584.58,404.69 L 596.06,403.14 L 603.45,402.17 L 613.15,401.00 L 618.03,400.23 L 627.21,399.84 L 643.50,400.23 L 655.29,400.42 L 663.25,400.81 L 668.87,401.20 L 677.07,401.78 L 688.63,402.36 L 694.42,403.14 L 703.33,404.11 L 711.23,405.47 L 720.17,407.22 L 728.23,409.16 L 736.43,411.10 L 744.51,412.85 L 754.43,414.01 L 765.12,417.12 L 769.81,419.64 L 779.03,422.56 L 786.55,425.28 L 795.81,427.80 L 804.15,429.74 L 813.11,431.49 L 823.31,433.04 L 829.43,434.40 L 838.26,435.57 L 846.94,436.73 L 858.53,438.29 L 862.67,439.45 L 873.17,441.01 L 880.25,442.56 L 888.30,444.11 L 896.07,445.67 L 906.35,447.61 L 914.64,449.36 L 923.14,451.10 L 930.92,452.85" fill="none" stroke="#c94f2d" stroke-width="2"/>
<line class="axis" x1="70" y1="606" x2="956" y2="606"/>
<line class="axis" x1="70" y1="376" x2="70" y2="606"/>
<text class="label" x="18" y="491.00" transform="rotate(-90 18 491.00)" text-anchor="middle">degrees</text>
<text class="panel-title" x="70" y="632">Pitch disturbance while moving</text>
<line class="grid" x1="70" y1="874.00" x2="956" y2="874.00"/>
<text class="label" x="62" y="878.00" text-anchor="end">-2.4</text>
<line class="grid" x1="70" y1="816.50" x2="956" y2="816.50"/>
<text class="label" x="62" y="820.50" text-anchor="end">-1.6</text>
<line class="grid" x1="70" y1="759.00" x2="956" y2="759.00"/>
<text class="label" x="62" y="763.00" text-anchor="end">-0.9</text>
<line class="grid" x1="70" y1="701.50" x2="956" y2="701.50"/>
<text class="label" x="62" y="705.50" text-anchor="end">-0.1</text>
<line class="grid" x1="70" y1="644.00" x2="956" y2="644.00"/>
<text class="label" x="62" y="648.00" text-anchor="end">0.6</text>
<line class="grid" x1="70.00" y1="644" x2="70.00" y2="874"/>
<line class="grid" x1="217.67" y1="644" x2="217.67" y2="874"/>
<line class="grid" x1="365.33" y1="644" x2="365.33" y2="874"/>
<line class="grid" x1="513.00" y1="644" x2="513.00" y2="874"/>
<line class="grid" x1="660.67" y1="644" x2="660.67" y2="874"/>
<line class="grid" x1="808.33" y1="644" x2="808.33" y2="874"/>
<line class="grid" x1="956.00" y1="644" x2="956.00" y2="874"/>
<line x1="301.70" y1="644" x2="301.70" y2="874" stroke="#20242a" stroke-width="1.2" opacity="0.55"/>
<line x1="335.61" y1="644" x2="335.61" y2="874" stroke="#6b7280" stroke-width="1.2" opacity="0.55"/>
<line x1="467.30" y1="644" x2="467.30" y2="874" stroke="#6b7280" stroke-width="1.2" opacity="0.55"/>
<line x1="453.57" y1="644" x2="453.57" y2="874" stroke="#1769aa" stroke-width="1.2" opacity="0.55"/>
<line x1="356.73" y1="644" x2="356.73" y2="874" stroke="#c94f2d" stroke-width="1.2" opacity="0.55"/>
<path d="M 95.08,693.68 L 103.77,695.47 L 113.24,693.36 L 120.60,695.02 L 131.01,694.25 L 139.08,692.89 L 155.09,693.28 L 161.82,695.08 L 171.90,695.03 L 179.51,693.22 L 187.38,695.02 L 196.07,693.89 L 204.73,692.89 L 212.56,694.69 L 222.73,692.87 L 230.69,694.67 L 240.85,692.00 L 246.38,690.94 L 254.87,692.88 L 265.29,691.49 L 271.83,693.57 L 281.30,691.84 L 289.37,690.74 L 298.97,692.95 L 306.60,691.04 L 317.35,693.11 L 322.92,691.58 L 332.39,691.12 L 340.59,694.02 L 351.97,788.64 L 359.87,803.34 L 366.92,811.01 L 375.01,802.98 L 382.23,783.05 L 399.67,805.68 L 406.85,845.64 L 416.39,780.85 L 424.09,804.12 L 433.79,787.80 L 453.57,851.74 L 462.50,837.22 L 467.35,843.60 L 474.14,817.87 L 483.20,787.20 L 491.50,737.94 L 511.05,696.04 L 521.32,678.10 L 528.05,680.73 L 533.66,685.02 L 544.96,666.26 L 558.63,667.87 L 571.38,674.37 L 575.84,679.22 L 585.50,684.89 L 593.00,687.92 L 601.74,691.10 L 609.54,693.14 L 619.96,696.42 L 626.24,698.21 L 636.23,698.34 L 642.98,699.34 L 652.14,700.45 L 660.04,701.55 L 670.05,700.00 L 677.70,699.83 L 686.69,700.66 L 696.01,698.74 L 702.55,699.33 L 710.42,699.11 L 727.43,698.35 L 739.53,699.18 L 747.73,697.76 L 753.39,698.73 L 761.68,697.93 L 772.37,697.32 L 781.30,698.57 L 786.90,696.53 L 805.99,695.23 L 812.28,695.70 L 821.22,697.09 L 833.20,695.96 L 841.46,697.48 L 845.80,695.68 L 854.33,697.34 L 863.86,694.55 L 875.03,696.07 L 879.45,693.26 L 889.25,691.09 L 896.46,693.03 L 910.44,692.87" fill="none" stroke="#1769aa" stroke-width="2"/>
<path d="M 95.08,692.87 L 103.77,692.87 L 113.24,692.87 L 120.60,692.87 L 131.01,692.87 L 139.08,692.87 L 155.09,692.87 L 161.82,692.87 L 171.90,692.87 L 179.51,692.87 L 187.38,692.87 L 196.07,692.87 L 204.73,692.87 L 212.56,692.87 L 222.73,692.87 L 230.69,692.87 L 240.85,692.87 L 246.38,692.87 L 254.87,692.87 L 265.29,692.87 L 271.83,692.87 L 281.30,692.87 L 289.37,692.87 L 298.97,692.87 L 306.60,692.87 L 317.35,692.87 L 322.92,692.87 L 332.39,692.87 L 340.59,692.87 L 351.97,692.87 L 359.87,692.87 L 366.92,692.87 L 375.01,692.87 L 382.23,692.87 L 399.67,692.87 L 406.85,692.87 L 416.39,692.87 L 424.09,692.87 L 433.79,692.87 L 453.57,692.87 L 462.50,692.87 L 467.35,692.87 L 474.14,692.87 L 483.20,692.87 L 491.50,692.87 L 511.05,692.87 L 521.32,692.87 L 528.05,692.87 L 533.66,692.87 L 544.96,692.87 L 558.63,692.87 L 571.38,692.87 L 575.84,692.87 L 585.50,692.87 L 593.00,692.87 L 601.74,692.87 L 609.54,692.87 L 619.96,692.87 L 626.24,692.87 L 636.23,692.87 L 642.98,692.87 L 652.14,692.87 L 660.04,692.87 L 670.05,692.87 L 677.70,692.87 L 686.69,692.87 L 696.01,692.87 L 702.55,692.87 L 710.42,692.87 L 727.43,692.87 L 739.53,692.87 L 747.73,692.87 L 753.39,692.87 L 761.68,692.87 L 772.37,692.87 L 781.30,692.87 L 786.90,692.87 L 805.99,692.87 L 812.28,692.87 L 821.22,692.87 L 833.20,692.87 L 841.46,692.87 L 845.80,692.87 L 854.33,692.87 L 863.86,692.87 L 875.03,692.87 L 879.45,692.87 L 889.25,692.87 L 896.46,692.87 L 910.44,692.87" fill="none" stroke="#8a94a3" stroke-width="2" stroke-dasharray="6 4"/>
<line class="axis" x1="70" y1="874" x2="956" y2="874"/>
<line class="axis" x1="70" y1="644" x2="70" y2="874"/>
<text class="label" x="18" y="759.00" transform="rotate(-90 18 759.00)" text-anchor="middle">degrees</text>
<text class="panel-title" x="70" y="900">Yaw disturbance while moving</text>
<line class="grid" x1="70" y1="1142.00" x2="956" y2="1142.00"/>
<text class="label" x="62" y="1146.00" text-anchor="end">-1.9</text>
<line class="grid" x1="70" y1="1084.50" x2="956" y2="1084.50"/>
<text class="label" x="62" y="1088.50" text-anchor="end">-1.3</text>
<line class="grid" x1="70" y1="1027.00" x2="956" y2="1027.00"/>
<text class="label" x="62" y="1031.00" text-anchor="end">-0.7</text>
<line class="grid" x1="70" y1="969.50" x2="956" y2="969.50"/>
<text class="label" x="62" y="973.50" text-anchor="end">-0.1</text>
<line class="grid" x1="70" y1="912.00" x2="956" y2="912.00"/>
<text class="label" x="62" y="916.00" text-anchor="end">0.5</text>
<line class="grid" x1="70.00" y1="912" x2="70.00" y2="1142"/>
<text class="label" x="70.00" y="1162" text-anchor="middle">-0.28</text>
<line class="grid" x1="217.67" y1="912" x2="217.67" y2="1142"/>
<text class="label" x="217.67" y="1162" text-anchor="middle">-0.10</text>
<line class="grid" x1="365.33" y1="912" x2="365.33" y2="1142"/>
<text class="label" x="365.33" y="1162" text-anchor="middle">0.08</text>
<line class="grid" x1="513.00" y1="912" x2="513.00" y2="1142"/>
<text class="label" x="513.00" y="1162" text-anchor="middle">0.25</text>
<line class="grid" x1="660.67" y1="912" x2="660.67" y2="1142"/>
<text class="label" x="660.67" y="1162" text-anchor="middle">0.43</text>
<line class="grid" x1="808.33" y1="912" x2="808.33" y2="1142"/>
<text class="label" x="808.33" y="1162" text-anchor="middle">0.60</text>
<line class="grid" x1="956.00" y1="912" x2="956.00" y2="1142"/>
<text class="label" x="956.00" y="1162" text-anchor="middle">0.78</text>
<line x1="301.70" y1="912" x2="301.70" y2="1142" stroke="#20242a" stroke-width="1.2" opacity="0.55"/>
<line x1="335.61" y1="912" x2="335.61" y2="1142" stroke="#6b7280" stroke-width="1.2" opacity="0.55"/>
<line x1="467.30" y1="912" x2="467.30" y2="1142" stroke="#6b7280" stroke-width="1.2" opacity="0.55"/>
<line x1="453.57" y1="912" x2="453.57" y2="1142" stroke="#1769aa" stroke-width="1.2" opacity="0.55"/>
<line x1="356.73" y1="912" x2="356.73" y2="1142" stroke="#c94f2d" stroke-width="1.2" opacity="0.55"/>
<path d="M 96.52,962.01 L 111.63,961.55 L 129.60,961.75 L 137.46,961.82 L 145.70,961.65 L 153.94,961.48 L 162.52,961.58 L 171.00,961.29 L 180.98,961.29 L 189.24,961.29 L 196.82,961.31 L 205.18,961.19 L 213.52,961.02 L 221.89,960.97 L 232.47,960.97 L 238.10,961.38 L 247.07,961.25 L 255.39,961.25 L 264.68,960.96 L 272.88,960.78 L 280.79,960.68 L 289.90,960.19 L 297.30,960.19 L 307.12,960.21 L 315.56,960.39 L 322.53,960.30 L 331.16,960.30 L 340.00,960.24 L 348.94,1024.68 L 356.73,1119.74 L 365.25,1114.68 L 390.47,1015.52 L 407.92,987.60 L 425.52,934.26 L 432.16,939.61 L 442.44,949.05 L 451.13,964.60 L 459.48,973.18 L 465.93,969.73 L 478.75,974.76 L 487.71,985.38 L 494.16,992.08 L 500.32,985.69 L 508.18,980.33 L 517.36,976.01 L 530.62,970.08 L 542.22,968.12 L 551.03,968.52 L 559.17,969.43 L 569.53,967.35 L 577.79,968.17 L 584.58,966.62 L 596.06,965.12 L 603.45,964.25 L 613.15,962.21 L 618.03,960.25 L 627.21,958.83 L 643.50,957.78 L 655.29,957.95 L 663.25,956.55 L 668.87,956.90 L 677.07,955.41 L 688.63,955.93 L 694.42,954.60 L 703.33,952.97 L 711.23,950.98 L 720.17,952.54 L 728.23,951.19 L 736.43,952.92 L 744.51,954.48 L 754.43,951.77 L 765.12,950.76 L 769.81,950.15 L 779.03,952.74 L 786.55,954.01 L 795.81,956.26 L 804.15,955.16 L 813.11,954.41 L 823.31,955.79 L 829.43,954.79 L 838.26,955.83 L 846.94,955.21 L 858.53,956.59 L 862.67,954.41 L 873.17,955.79 L 880.25,954.74 L 888.30,956.12 L 896.07,954.76 L 906.35,954.50 L 914.64,956.06 L 923.14,954.36 L 930.92,953.32" fill="none" stroke="#c94f2d" stroke-width="2"/>
<path d="M 96.52,960.99 L 111.63,960.99 L 129.60,960.99 L 137.46,960.99 L 145.70,960.99 L 153.94,960.99 L 162.52,960.99 L 171.00,960.99 L 180.98,960.99 L 189.24,960.99 L 196.82,960.99 L 205.18,960.99 L 213.52,960.99 L 221.89,960.99 L 232.47,960.99 L 238.10,960.99 L 247.07,960.99 L 255.39,960.99 L 264.68,960.99 L 272.88,960.99 L 280.79,960.99 L 289.90,960.99 L 297.30,960.99 L 307.12,960.99 L 315.56,960.99 L 322.53,960.99 L 331.16,960.99 L 340.00,960.99 L 348.94,960.99 L 356.73,960.99 L 365.25,960.99 L 390.47,960.99 L 407.92,960.99 L 425.52,960.99 L 432.16,960.99 L 442.44,960.99 L 451.13,960.99 L 459.48,960.99 L 465.93,960.99 L 478.75,960.99 L 487.71,960.99 L 494.16,960.99 L 500.32,960.99 L 508.18,960.99 L 517.36,960.99 L 530.62,960.99 L 542.22,960.99 L 551.03,960.99 L 559.17,960.99 L 569.53,960.99 L 577.79,960.99 L 584.58,960.99 L 596.06,960.99 L 603.45,960.99 L 613.15,960.99 L 618.03,960.99 L 627.21,960.99 L 643.50,960.99 L 655.29,960.99 L 663.25,960.99 L 668.87,960.99 L 677.07,960.99 L 688.63,960.99 L 694.42,960.99 L 703.33,960.99 L 711.23,960.99 L 720.17,960.99 L 728.23,960.99 L 736.43,960.99 L 744.51,960.99 L 754.43,960.99 L 765.12,960.99 L 769.81,960.99 L 779.03,960.99 L 786.55,960.99 L 795.81,960.99 L 804.15,960.99 L 813.11,960.99 L 823.31,960.99 L 829.43,960.99 L 838.26,960.99 L 846.94,960.99 L 858.53,960.99 L 862.67,960.99 L 873.17,960.99 L 880.25,960.99 L 888.30,960.99 L 896.07,960.99 L 906.35,960.99 L 914.64,960.99 L 923.14,960.99 L 930.92,960.99" fill="none" stroke="#8a94a3" stroke-width="2" stroke-dasharray="6 4"/>
<line class="axis" x1="70" y1="1142" x2="956" y2="1142"/>
<line class="axis" x1="70" y1="912" x2="70" y2="1142"/>
<text class="label" x="18" y="1027.00" transform="rotate(-90 18 1027.00)" text-anchor="middle">degrees</text>
<text class="label" x="513.0" y="1178" text-anchor="middle">time relative to event (s)</text>
</svg>