<svg xmlns="http://www.w3.org/2000/svg" viewBox="0 0 980 1186" role="img">
<style>
.axis{stroke:#718096;stroke-width:1}.grid{stroke:#e5eaf0;stroke-width:1}.label{font:12px sans-serif;fill:#5a6675}.title{font:700 18px sans-serif;fill:#20242a}.subtitle{font:12px sans-serif;fill:#5a6675}.panel-title{font:700 13px sans-serif;fill:#20242a}
</style>
<rect width="980" height="1186" fill="#ffffff"/>
<text class="title" x="70" y="28">Motion disturbance example 15: event 220</text>
<text class="subtitle" x="70" y="50">Start pitch 11.0 deg, yaw 8.5 deg; target motion 17.4 deg; disturbance vector 3.10 deg.</text>
<line x1="70" y1="76" x2="94" y2="76" stroke="#48525f" stroke-width="2" stroke-dasharray="6 4"/>
<text class="label" x="100" y="80">target</text>
<line x1="200" y1="76" x2="224" y2="76" stroke="#1769aa" stroke-width="2"/>
<text class="label" x="230" y="80">pitch actual</text>
<line x1="338" y1="76" x2="362" y2="76" stroke="#c94f2d" stroke-width="2"/>
<text class="label" x="368" y="80">yaw actual</text>
<line x1="468" y1="76" x2="492" y2="76" stroke="#1769aa" stroke-width="2"/>
<text class="label" x="498" y="80">pitch disturbance</text>
<line x1="641" y1="76" x2="665" y2="76" stroke="#8a94a3" stroke-width="2" stroke-dasharray="6 4"/>
<text class="label" x="671" y="80">zero baseline</text>
<line x1="786" y1="76" x2="810" y2="76" stroke="#c94f2d" stroke-width="2"/>
<text class="label" x="816" y="80">yaw disturbance</text>
<text class="panel-title" x="70" y="96">Pitch position</text>
<line class="grid" x1="70" y1="338.00" x2="956" y2="338.00"/>
<text class="label" x="62" y="342.00" text-anchor="end">-6.7</text>
<line class="grid" x1="70" y1="280.50" x2="956" y2="280.50"/>
<text class="label" x="62" y="284.50" text-anchor="end">-1.8</text>
<line class="grid" x1="70" y1="223.00" x2="956" y2="223.00"/>
<text class="label" x="62" y="227.00" text-anchor="end">3.1</text>
<line class="grid" x1="70" y1="165.50" x2="956" y2="165.50"/>
<text class="label" x="62" y="169.50" text-anchor="end">8.0</text>
<line class="grid" x1="70" y1="108.00" x2="956" y2="108.00"/>
<text class="label" x="62" y="112.00" text-anchor="end">12.9</text>
<line class="grid" x1="70.00" y1="108" x2="70.00" y2="338"/>
<line class="grid" x1="217.67" y1="108" x2="217.67" y2="338"/>
<line class="grid" x1="365.33" y1="108" x2="365.33" y2="338"/>
<line class="grid" x1="513.00" y1="108" x2="513.00" y2="338"/>
<line class="grid" x1="660.67" y1="108" x2="660.67" y2="338"/>
<line class="grid" x1="808.33" y1="108" x2="808.33" y2="338"/>
<line class="grid" x1="956.00" y1="108" x2="956.00" y2="338"/>
<line x1="299.02" y1="108" x2="299.02" y2="338" stroke="#20242a" stroke-width="1.2" opacity="0.55"/>
<text class="label" x="303.02" y="120.00" transform="rotate(-35 303.02 120.00)">fire</text>
<line x1="332.59" y1="108" x2="332.59" y2="338" stroke="#6b7280" stroke-width="1.2" opacity="0.55"/>
<text class="label" x="336.59" y="120.00" transform="rotate(-35 336.59 120.00)">muzzle</text>
<line x1="361.60" y1="108" x2="361.60" y2="338" stroke="#6b7280" stroke-width="1.2" opacity="0.55"/>
<text class="label" x="365.60" y="120.00" transform="rotate(-35 365.60 120.00)">impact</text>
<line x1="696.79" y1="108" x2="696.79" y2="338" stroke="#1769aa" stroke-width="1.2" opacity="0.55"/>
<text class="label" x="700.79" y="120.00" transform="rotate(-35 700.79 120.00)">pitch peak</text>
<line x1="694.96" y1="108" x2="694.96" y2="338" stroke="#c94f2d" stroke-width="1.2" opacity="0.55"/>
<text class="label" x="698.96" y="120.00" transform="rotate(-35 698.96 120.00)">yaw peak</text>
<path d="M 96.70,130.32 L 102.36,130.32 L 110.60,130.32 L 120.11,130.32 L 127.83,130.32 L 136.91,130.32 L 144.92,130.32 L 153.08,130.32 L 161.53,130.32 L 171.25,130.32 L 180.25,130.32 L 186.75,130.32 L 196.08,130.32 L 203.77,130.32 L 215.19,130.32 L 220.42,130.32 L 229.18,130.32 L 246.82,130.32 L 255.04,130.32 L 263.14,130.32 L 274.52,131.30 L 281.62,131.30 L 289.40,134.52 L 298.39,134.52 L 304.82,137.35 L 314.03,139.78 L 322.44,139.78 L 330.25,142.29 L 339.11,142.29 L 348.00,142.29 L 357.83,142.29 L 365.95,142.29 L 373.74,147.93 L 382.90,147.93 L 389.88,151.52 L 398.50,154.86 L 408.44,154.86 L 415.50,154.86 L 424.18,159.79 L 431.78,159.79 L 442.31,164.58 L 451.03,164.58 L 457.35,168.27 L 465.89,168.27 L 474.46,171.68 L 485.17,175.88 L 491.28,175.88 L 499.67,178.58 L 507.87,178.58 L 516.71,178.58 L 525.18,186.79 L 535.44,186.79 L 542.28,190.39 L 551.66,194.79 L 560.33,194.79 L 567.68,199.82 L 576.09,199.82 L 585.00,199.82 L 592.90,205.08 L 601.00,212.24 L 613.94,217.05 L 618.89,217.05 L 626.23,217.05 L 634.84,226.55 L 643.41,226.55 L 654.58,226.55 L 662.24,226.55 L 677.23,239.98 L 685.67,239.98 L 696.79,251.61 L 704.14,251.61 L 711.99,251.61 L 719.46,251.61 L 728.58,251.61 L 738.40,251.61 L 744.76,251.61 L 753.37,251.61 L 762.31,251.61 L 771.80,251.61 L 779.41,251.61 L 787.69,251.61 L 796.64,251.61 L 804.01,251.61 L 815.12,251.61 L 821.78,251.61 L 829.95,251.61 L 837.98,251.61 L 846.37,295.70 L 856.60,295.70 L 864.74,300.37 L 871.81,300.37 L 880.61,303.70 L 889.16,307.79 L 897.07,307.79 L 906.25,312.39 L 915.81,315.74 L 923.64,315.74" fill="none" stroke="#48525f" stroke-width="2" stroke-dasharray="6 4"/>
<path d="M 96.70,130.26 L 102.36,130.26 L 110.60,130.26 L 120.11,130.26 L 127.83,130.26 L 136.91,130.26 L 144.92,130.26 L 153.08,130.26 L 161.53,130.26 L 171.25,130.26 L 180.25,130.26 L 186.75,130.26 L 196.08,130.26 L 203.77,130.26 L 215.19,130.26 L 220.42,130.26 L 229.18,130.26 L 246.82,130.26 L 255.04,130.28 L 263.14,130.28 L 274.52,130.28 L 281.62,130.28 L 289.40,130.32 L 298.39,130.32 L 304.82,130.55 L 314.03,130.87 L 322.44,131.32 L 330.25,132.04 L 339.11,133.12 L 348.00,134.45 L 357.83,135.80 L 365.95,137.12 L 373.74,138.32 L 382.90,139.30 L 389.88,140.27 L 398.50,141.22 L 408.44,142.51 L 415.50,143.95 L 424.18,145.60 L 431.78,147.40 L 442.31,149.26 L 451.03,150.89 L 457.35,152.63 L 465.89,154.39 L 474.46,156.38 L 485.17,158.32 L 491.28,160.42 L 499.67,162.62 L 507.87,164.84 L 516.71,167.06 L 525.18,169.16 L 535.44,170.98 L 542.28,172.72 L 551.66,174.56 L 560.33,176.61 L 567.68,178.92 L 576.09,181.33 L 585.00,184.00 L 592.90,186.79 L 601.00,189.50 L 613.94,192.10 L 618.89,194.64 L 626.23,197.29 L 634.84,200.25 L 643.41,203.13 L 654.58,205.94 L 662.24,208.76 L 677.23,214.43 L 685.67,217.04 L 696.79,220.06 L 704.14,223.38 L 711.99,226.43 L 719.46,229.18 L 728.58,231.70 L 738.40,234.01 L 744.76,236.34 L 753.37,238.75 L 762.31,241.10 L 771.80,243.39 L 779.41,245.59 L 787.69,247.47 L 796.64,248.78 L 804.01,249.57 L 815.12,250.09 L 821.78,250.52 L 829.95,250.92 L 837.98,251.30 L 846.37,251.62 L 856.60,251.89 L 864.74,252.36 L 871.81,253.65 L 880.61,256.72 L 889.16,261.02 L 897.07,267.03 L 906.25,273.74 L 915.81,280.74 L 923.64,287.83" fill="none" stroke="#1769aa" stroke-width="2"/>
<line class="axis" x1="70" y1="338" x2="956" y2="338"/>
<line class="axis" x1="70" y1="108" x2="70" y2="338"/>
<text class="label" x="18" y="223.00" transform="rotate(-90 18 223.00)" text-anchor="middle">degrees</text>
<text class="panel-title" x="70" y="364">Yaw position</text>
<line class="grid" x1="70" y1="606.00" x2="956" y2="606.00"/>
<text class="label" x="62" y="610.00" text-anchor="end">2.9</text>
<line class="grid" x1="70" y1="548.50" x2="956" y2="548.50"/>
<text class="label" x="62" y="552.50" text-anchor="end">9.9</text>
<line class="grid" x1="70" y1="491.00" x2="956" y2="491.00"/>
<text class="label" x="62" y="495.00" text-anchor="end">16.8</text>
<line class="grid" x1="70" y1="433.50" x2="956" y2="433.50"/>
<text class="label" x="62" y="437.50" text-anchor="end">23.7</text>
<line class="grid" x1="70" y1="376.00" x2="956" y2="376.00"/>
<text class="label" x="62" y="380.00" text-anchor="end">30.7</text>
<line class="grid" x1="70.00" y1="376" x2="70.00" y2="606"/>
<line class="grid" x1="217.67" y1="376" x2="217.67" y2="606"/>
<line class="grid" x1="365.33" y1="376" x2="365.33" y2="606"/>
<line class="grid" x1="513.00" y1="376" x2="513.00" y2="606"/>
<line class="grid" x1="660.67" y1="376" x2="660.67" y2="606"/>
<line class="grid" x1="808.33" y1="376" x2="808.33" y2="606"/>
<line class="grid" x1="956.00" y1="376" x2="956.00" y2="606"/>
<line x1="299.02" y1="376" x2="299.02" y2="606" stroke="#20242a" stroke-width="1.2" opacity="0.55"/>
<line x1="332.59" y1="376" x2="332.59" y2="606" stroke="#6b7280" stroke-width="1.2" opacity="0.55"/>
<line x1="361.60" y1="376" x2="361.60" y2="606" stroke="#6b7280" stroke-width="1.2" opacity="0.55"/>
<line x1="696.79" y1="376" x2="696.79" y2="606" stroke="#1769aa" stroke-width="1.2" opacity="0.55"/>
<line x1="694.96" y1="376" x2="694.96" y2="606" stroke="#c94f2d" stroke-width="1.2" opacity="0.55"/>
<path d="M 95.08,578.90 L 104.16,577.36 L 111.93,577.36 L 119.53,575.32 L 127.42,575.32 L 138.58,573.58 L 144.38,571.69 L 156.09,571.69 L 162.57,569.69 L 170.24,569.69 L 179.12,567.85 L 188.73,565.74 L 198.00,565.74 L 205.29,563.32 L 212.55,561.77 L 221.87,561.77 L 229.86,561.77 L 238.77,561.77 L 246.19,561.77 L 254.02,561.77 L 262.60,561.77 L 271.23,553.45 L 288.23,550.65 L 296.77,550.65 L 306.57,547.85 L 317.04,544.70 L 323.75,544.70 L 330.81,542.18 L 338.66,542.18 L 347.38,542.18 L 359.60,542.18 L 367.90,542.18 L 372.67,534.77 L 384.31,534.77 L 389.43,532.17 L 402.13,528.82 L 406.65,528.82 L 415.02,528.82 L 423.55,522.47 L 432.17,522.47 L 444.61,518.28 L 448.60,518.28 L 458.00,516.58 L 466.82,516.58 L 474.06,513.01 L 483.92,509.59 L 490.91,509.59 L 500.09,505.79 L 508.29,505.79 L 516.32,505.79 L 526.91,498.75 L 533.77,498.75 L 541.84,494.39 L 550.45,490.86 L 558.71,490.86 L 567.28,486.93 L 578.02,486.93 L 586.86,481.68 L 592.44,481.68 L 601.44,477.55 L 611.21,477.55 L 620.40,473.89 L 626.64,473.89 L 635.78,467.71 L 643.94,467.71 L 652.64,467.71 L 666.38,459.38 L 669.43,459.38 L 677.97,459.38 L 686.30,459.38 L 694.96,449.33 L 703.27,449.33 L 711.28,449.33 L 720.01,449.33 L 728.02,449.33 L 737.37,449.33 L 745.29,449.33 L 754.00,449.33 L 761.76,449.33 L 780.20,449.33 L 787.06,449.33 L 795.93,449.33 L 804.50,449.33 L 813.10,449.33 L 822.44,449.33 L 829.36,449.33 L 838.56,449.33 L 847.29,411.75 L 855.30,411.75 L 863.98,407.76 L 873.13,404.93 L 881.25,404.93 L 888.75,401.44 L 899.17,401.44 L 906.94,398.26 L 914.32,398.26 L 923.02,398.26 L 930.92,398.26" fill="none" stroke="#48525f" stroke-width="2" stroke-dasharray="6 4"/>
<path d="M 95.08,583.74 L 104.16,582.56 L 111.93,581.56 L 119.53,580.49 L 127.42,579.52 L 138.58,578.37 L 144.38,577.31 L 156.09,576.27 L 162.57,575.14 L 170.24,574.15 L 179.12,572.93 L 188.73,571.86 L 198.00,570.69 L 205.29,569.51 L 212.55,568.43 L 221.87,567.02 L 229.86,565.68 L 238.77,564.52 L 246.19,563.64 L 254.02,562.73 L 262.60,562.06 L 271.23,561.74 L 288.23,561.00 L 296.77,560.03 L 306.57,558.42 L 317.04,556.08 L 323.75,553.38 L 330.81,550.55 L 338.66,548.19 L 347.38,545.77 L 359.60,544.24 L 367.90,543.33 L 372.67,542.97 L 384.31,542.76 L 389.43,541.93 L 402.13,540.84 L 406.65,539.35 L 415.02,536.88 L 423.55,534.26 L 432.17,531.96 L 444.61,529.52 L 448.60,527.43 L 458.00,525.04 L 466.82,523.16 L 474.06,521.49 L 483.92,519.84 L 490.91,517.96 L 500.09,515.87 L 508.29,513.92 L 516.32,511.80 L 526.91,509.91 L 533.77,508.40 L 541.84,506.51 L 550.45,504.12 L 558.71,501.93 L 567.28,499.56 L 578.02,497.04 L 586.86,494.29 L 592.44,491.95 L 601.44,489.25 L 611.21,486.82 L 620.40,484.26 L 626.64,482.02 L 635.78,479.72 L 643.94,478.10 L 652.64,476.23 L 666.38,473.97 L 669.43,472.15 L 677.97,470.73 L 686.30,468.81 L 694.96,466.75 L 703.27,464.65 L 711.28,462.81 L 720.01,461.14 L 728.02,459.62 L 737.37,458.02 L 745.29,456.22 L 754.00,454.64 L 761.76,453.03 L 780.20,450.25 L 787.06,449.06 L 795.93,448.34 L 804.50,448.21 L 813.10,448.39 L 822.44,448.52 L 829.36,448.64 L 838.56,448.85 L 847.29,448.93 L 855.30,448.85 L 863.98,448.21 L 873.13,446.12 L 881.25,442.19 L 888.75,435.95 L 899.17,428.08 L 906.94,419.13 L 914.32,411.48 L 923.02,404.46 L 930.92,400.26" fill="none" stroke="#c94f2d" stroke-width="2"/>
<line class="axis" x1="70" y1="606" x2="956" y2="606"/>
<line class="axis" x1="70" y1="376" x2="70" y2="606"/>
<text class="label" x="18" y="491.00" transform="rotate(-90 18 491.00)" text-anchor="middle">degrees</text>
<text class="panel-title" x="70" y="632">Pitch disturbance while moving</text>
<line class="grid" x1="70" y1="874.00" x2="956" y2="874.00"/>
<text class="label" x="62" y="878.00" text-anchor="end">-0.5</text>
<line class="grid" x1="70" y1="816.50" x2="956" y2="816.50"/>
<text class="label" x="62" y="820.50" text-anchor="end">0.8</text>
<line class="grid" x1="70" y1="759.00" x2="956" y2="759.00"/>
<text class="label" x="62" y="763.00" text-anchor="end">2.0</text>
<line class="grid" x1="70" y1="701.50" x2="956" y2="701.50"/>
<text class="label" x="62" y="705.50" text-anchor="end">3.3</text>
<line class="grid" x1="70" y1="644.00" x2="956" y2="644.00"/>
<text class="label" x="62" y="648.00" text-anchor="end">4.6</text>
<line class="grid" x1="70.00" y1="644" x2="70.00" y2="874"/>
<line class="grid" x1="217.67" y1="644" x2="217.67" y2="874"/>
<line class="grid" x1="365.33" y1="644" x2="365.33" y2="874"/>
<line class="grid" x1="513.00" y1="644" x2="513.00" y2="874"/>
<line class="grid" x1="660.67" y1="644" x2="660.67" y2="874"/>
<line class="grid" x1="808.33" y1="644" x2="808.33" y2="874"/>
<line class="grid" x1="956.00" y1="644" x2="956.00" y2="874"/>
<line x1="299.02" y1="644" x2="299.02" y2="874" stroke="#20242a" stroke-width="1.2" opacity="0.55"/>
<line x1="332.59" y1="644" x2="332.59" y2="874" stroke="#6b7280" stroke-width="1.2" opacity="0.55"/>
<line x1="361.60" y1="644" x2="361.60" y2="874" stroke="#6b7280" stroke-width="1.2" opacity="0.55"/>
<line x1="696.79" y1="644" x2="696.79" y2="874" stroke="#1769aa" stroke-width="1.2" opacity="0.55"/>
<line x1="694.96" y1="644" x2="694.96" y2="874" stroke="#c94f2d" stroke-width="1.2" opacity="0.55"/>
<path d="M 96.70,851.66 L 102.36,851.66 L 110.60,851.66 L 120.11,851.66 L 127.83,851.66 L 136.91,851.66 L 144.92,851.66 L 153.08,851.66 L 161.53,851.66 L 171.25,851.66 L 180.25,851.66 L 186.75,851.66 L 196.08,851.66 L 203.77,851.66 L 215.19,851.66 L 220.42,851.66 L 229.18,851.66 L 246.82,851.66 L 255.04,851.74 L 263.14,851.74 L 274.52,847.94 L 281.62,847.94 L 289.40,835.65 L 298.39,835.65 L 304.82,825.62 L 314.03,817.44 L 322.44,819.16 L 330.25,812.26 L 339.11,816.43 L 348.00,821.58 L 357.83,826.82 L 365.95,831.90 L 373.74,814.74 L 382.90,818.51 L 389.88,808.41 L 398.50,799.18 L 408.44,804.17 L 415.50,809.74 L 424.18,797.05 L 431.78,804.01 L 442.31,792.70 L 451.03,799.00 L 457.35,791.44 L 465.89,798.24 L 474.46,792.73 L 485.17,784.00 L 491.28,792.10 L 499.67,790.18 L 507.87,798.77 L 516.71,807.36 L 525.18,783.73 L 535.44,790.77 L 542.28,783.57 L 551.66,773.68 L 560.33,781.61 L 567.68,771.07 L 576.09,780.39 L 585.00,790.71 L 592.90,781.19 L 601.00,763.97 L 613.94,755.43 L 618.89,765.25 L 626.23,775.47 L 634.84,750.21 L 643.41,761.33 L 654.58,772.22 L 662.24,783.10 L 677.23,753.11 L 685.67,763.17 L 696.79,729.91 L 704.14,742.76 L 711.99,754.54 L 719.46,765.18 L 728.58,774.92 L 738.40,783.83 L 744.76,792.84 L 753.37,802.16 L 762.31,811.25 L 771.80,820.09 L 779.41,828.60 L 787.69,835.88 L 796.64,840.95 L 804.01,843.98 L 815.12,846.03 L 821.78,847.66 L 829.95,849.22 L 837.98,850.69 L 846.37,681.47 L 856.60,682.53 L 864.74,666.26 L 871.81,671.25 L 880.61,670.28 L 889.16,671.04 L 897.07,694.28 L 906.25,702.45 L 915.81,716.58 L 923.64,743.99" fill="none" stroke="#1769aa" stroke-width="2"/>
<path d="M 96.70,851.66 L 102.36,851.66 L 110.60,851.66 L 120.11,851.66 L 127.83,851.66 L 136.91,851.66 L 144.92,851.66 L 153.08,851.66 L 161.53,851.66 L 171.25,851.66 L 180.25,851.66 L 186.75,851.66 L 196.08,851.66 L 203.77,851.66 L 215.19,851.66 L 220.42,851.66 L 229.18,851.66 L 246.82,851.66 L 255.04,851.66 L 263.14,851.66 L 274.52,851.66 L 281.62,851.66 L 289.40,851.66 L 298.39,851.66 L 304.82,851.66 L 314.03,851.66 L 322.44,851.66 L 330.25,851.66 L 339.11,851.66 L 348.00,851.66 L 357.83,851.66 L 365.95,851.66 L 373.74,851.66 L 382.90,851.66 L 389.88,851.66 L 398.50,851.66 L 408.44,851.66 L 415.50,851.66 L 424.18,851.66 L 431.78,851.66 L 442.31,851.66 L 451.03,851.66 L 457.35,851.66 L 465.89,851.66 L 474.46,851.66 L 485.17,851.66 L 491.28,851.66 L 499.67,851.66 L 507.87,851.66 L 516.71,851.66 L 525.18,851.66 L 535.44,851.66 L 542.28,851.66 L 551.66,851.66 L 560.33,851.66 L 567.68,851.66 L 576.09,851.66 L 585.00,851.66 L 592.90,851.66 L 601.00,851.66 L 613.94,851.66 L 618.89,851.66 L 626.23,851.66 L 634.84,851.66 L 643.41,851.66 L 654.58,851.66 L 662.24,851.66 L 677.23,851.66 L 685.67,851.66 L 696.79,851.66 L 704.14,851.66 L 711.99,851.66 L 719.46,851.66 L 728.58,851.66 L 738.40,851.66 L 744.76,851.66 L 753.37,851.66 L 762.31,851.66 L 771.80,851.66 L 779.41,851.66 L 787.69,851.66 L 796.64,851.66 L 804.01,851.66 L 815.12,851.66 L 821.78,851.66 L 829.95,851.66 L 837.98,851.66 L 846.37,851.66 L 856.60,851.66 L 864.74,851.66 L 871.81,851.66 L 880.61,851.66 L 889.16,851.66 L 897.07,851.66 L 906.25,851.66 L 915.81,851.66 L 923.64,851.66" fill="none" stroke="#8a94a3" stroke-width="2" stroke-dasharray="6 4"/>
<line class="axis" x1="70" y1="874" x2="956" y2="874"/>
<line class="axis" x1="70" y1="644" x2="70" y2="874"/>
<text class="label" x="18" y="759.00" transform="rotate(-90 18 759.00)" text-anchor="middle">degrees</text>
<text class="panel-title" x="70" y="900">Yaw disturbance while moving</text>
<line class="grid" x1="70" y1="1142.00" x2="956" y2="1142.00"/>
<text class="label" x="62" y="1146.00" text-anchor="end">-5.0</text>
<line class="grid" x1="70" y1="1084.50" x2="956" y2="1084.50"/>
<text class="label" x="62" y="1088.50" text-anchor="end">-3.5</text>
<line class="grid" x1="70" y1="1027.00" x2="956" y2="1027.00"/>
<text class="label" x="62" y="1031.00" text-anchor="end">-1.9</text>
<line class="grid" x1="70" y1="969.50" x2="956" y2="969.50"/>
<text class="label" x="62" y="973.50" text-anchor="end">-0.3</text>
<line class="grid" x1="70" y1="912.00" x2="956" y2="912.00"/>
<text class="label" x="62" y="916.00" text-anchor="end">1.3</text>
<line class="grid" x1="70.00" y1="912" x2="70.00" y2="1142"/>
<text class="label" x="70.00" y="1162" text-anchor="middle">-0.27</text>
<line class="grid" x1="217.67" y1="912" x2="217.67" y2="1142"/>
<text class="label" x="217.67" y="1162" text-anchor="middle">-0.10</text>
<line class="grid" x1="365.33" y1="912" x2="365.33" y2="1142"/>
<text class="label" x="365.33" y="1162" text-anchor="middle">0.08</text>
<line class="grid" x1="513.00" y1="912" x2="513.00" y2="1142"/>
<text class="label" x="513.00" y="1162" text-anchor="middle">0.25</text>
<line class="grid" x1="660.67" y1="912" x2="660.67" y2="1142"/>
<text class="label" x="660.67" y="1162" text-anchor="middle">0.43</text>
<line class="grid" x1="808.33" y1="912" x2="808.33" y2="1142"/>
<text class="label" x="808.33" y="1162" text-anchor="middle">0.60</text>
<line class="grid" x1="956.00" y1="912" x2="956.00" y2="1142"/>
<text class="label" x="956.00" y="1162" text-anchor="middle">0.78</text>
<line x1="299.02" y1="912" x2="299.02" y2="1142" stroke="#20242a" stroke-width="1.2" opacity="0.55"/>
<line x1="332.59" y1="912" x2="332.59" y2="1142" stroke="#6b7280" stroke-width="1.2" opacity="0.55"/>
<line x1="361.60" y1="912" x2="361.60" y2="1142" stroke="#6b7280" stroke-width="1.2" opacity="0.55"/>
<line x1="696.79" y1="912" x2="696.79" y2="1142" stroke="#1769aa" stroke-width="1.2" opacity="0.55"/>
<line x1="694.96" y1="912" x2="694.96" y2="1142" stroke="#c94f2d" stroke-width="1.2" opacity="0.55"/>
<path d="M 95.08,960.41 L 104.16,962.00 L 111.93,957.62 L 119.53,961.85 L 127.42,957.60 L 138.58,960.19 L 144.38,963.82 L 156.09,959.24 L 162.57,963.04 L 170.24,958.73 L 179.12,961.46 L 188.73,965.98 L 198.00,960.88 L 205.29,966.35 L 212.55,968.35 L 221.87,962.20 L 229.86,956.32 L 238.77,951.22 L 246.19,947.36 L 254.02,943.38 L 262.60,940.43 L 271.23,975.55 L 288.23,984.53 L 296.77,980.28 L 306.57,985.52 L 317.04,989.03 L 323.75,977.20 L 330.81,975.87 L 338.66,965.54 L 347.38,954.95 L 359.60,948.21 L 367.90,944.23 L 372.67,975.12 L 384.31,974.20 L 389.43,981.93 L 402.13,991.86 L 406.65,985.33 L 415.02,974.54 L 423.55,990.85 L 432.17,980.78 L 444.61,988.45 L 448.60,979.30 L 458.00,976.29 L 466.82,968.06 L 474.06,976.37 L 483.92,984.09 L 490.91,975.85 L 500.09,983.38 L 508.29,974.82 L 516.32,965.53 L 526.91,988.09 L 533.77,981.48 L 541.84,992.28 L 550.45,997.31 L 558.71,987.70 L 567.28,994.51 L 578.02,983.46 L 586.86,994.46 L 592.44,984.20 L 601.44,990.47 L 611.21,979.82 L 620.40,984.61 L 626.64,974.81 L 635.78,991.85 L 643.94,984.72 L 652.64,976.55 L 666.38,1003.12 L 669.43,995.15 L 677.97,988.94 L 686.30,980.50 L 694.96,1015.52 L 703.27,1006.30 L 711.28,998.26 L 720.01,990.94 L 728.02,984.27 L 737.37,977.27 L 745.29,969.36 L 754.00,962.43 L 761.76,955.37 L 780.20,943.21 L 787.06,937.98 L 795.93,934.85 L 804.50,934.26 L 813.10,935.04 L 822.44,935.63 L 829.36,936.15 L 838.56,937.07 L 847.29,1102.15 L 855.30,1101.83 L 863.98,1116.48 L 873.13,1119.74 L 881.25,1102.48 L 888.75,1090.48 L 899.17,1055.96 L 906.94,1030.67 L 914.32,997.13 L 923.02,966.34 L 930.92,947.97" fill="none" stroke="#c94f2d" stroke-width="2"/>
<path d="M 95.08,958.60 L 104.16,958.60 L 111.93,958.60 L 119.53,958.60 L 127.42,958.60 L 138.58,958.60 L 144.38,958.60 L 156.09,958.60 L 162.57,958.60 L 170.24,958.60 L 179.12,958.60 L 188.73,958.60 L 198.00,958.60 L 205.29,958.60 L 212.55,958.60 L 221.87,958.60 L 229.86,958.60 L 238.77,958.60 L 246.19,958.60 L 254.02,958.60 L 262.60,958.60 L 271.23,958.60 L 288.23,958.60 L 296.77,958.60 L 306.57,958.60 L 317.04,958.60 L 323.75,958.60 L 330.81,958.60 L 338.66,958.60 L 347.38,958.60 L 359.60,958.60 L 367.90,958.60 L 372.67,958.60 L 384.31,958.60 L 389.43,958.60 L 402.13,958.60 L 406.65,958.60 L 415.02,958.60 L 423.55,958.60 L 432.17,958.60 L 444.61,958.60 L 448.60,958.60 L 458.00,958.60 L 466.82,958.60 L 474.06,958.60 L 483.92,958.60 L 490.91,958.60 L 500.09,958.60 L 508.29,958.60 L 516.32,958.60 L 526.91,958.60 L 533.77,958.60 L 541.84,958.60 L 550.45,958.60 L 558.71,958.60 L 567.28,958.60 L 578.02,958.60 L 586.86,958.60 L 592.44,958.60 L 601.44,958.60 L 611.21,958.60 L 620.40,958.60 L 626.64,958.60 L 635.78,958.60 L 643.94,958.60 L 652.64,958.60 L 666.38,958.60 L 669.43,958.60 L 677.97,958.60 L 686.30,958.60 L 694.96,958.60 L 703.27,958.60 L 711.28,958.60 L 720.01,958.60 L 728.02,958.60 L 737.37,958.60 L 745.29,958.60 L 754.00,958.60 L 761.76,958.60 L 780.20,958.60 L 787.06,958.60 L 795.93,958.60 L 804.50,958.60 L 813.10,958.60 L 822.44,958.60 L 829.36,958.60 L 838.56,958.60 L 847.29,958.60 L 855.30,958.60 L 863.98,958.60 L 873.13,958.60 L 881.25,958.60 L 888.75,958.60 L 899.17,958.60 L 906.94,958.60 L 914.32,958.60 L 923.02,958.60 L 930.92,958.60" fill="none" stroke="#8a94a3" stroke-width="2" stroke-dasharray="6 4"/>
<line class="axis" x1="70" y1="1142" x2="956" y2="1142"/>
<line class="axis" x1="70" y1="912" x2="70" y2="1142"/>
<text class="label" x="18" y="1027.00" transform="rotate(-90 18 1027.00)" text-anchor="middle">degrees</text>
<text class="label" x="513.0" y="1178" text-anchor="middle">time relative to event (s)</text>
</svg>