<svg xmlns="http://www.w3.org/2000/svg" viewBox="0 0 980 1186" role="img">
<style>
.axis{stroke:#718096;stroke-width:1}.grid{stroke:#e5eaf0;stroke-width:1}.label{font:12px sans-serif;fill:#5a6675}.title{font:700 18px sans-serif;fill:#20242a}.subtitle{font:12px sans-serif;fill:#5a6675}.panel-title{font:700 13px sans-serif;fill:#20242a}
</style>
<rect width="980" height="1186" fill="#ffffff"/>
<text class="title" x="70" y="28">Motion disturbance example 16: event 305</text>
<text class="subtitle" x="70" y="50">Start pitch 7.7 deg, yaw 10.3 deg; target motion 10.8 deg; disturbance vector 3.23 deg.</text>
<line x1="70" y1="76" x2="94" y2="76" stroke="#48525f" stroke-width="2" stroke-dasharray="6 4"/>
<text class="label" x="100" y="80">target</text>
<line x1="200" y1="76" x2="224" y2="76" stroke="#1769aa" stroke-width="2"/>
<text class="label" x="230" y="80">pitch actual</text>
<line x1="338" y1="76" x2="362" y2="76" stroke="#c94f2d" stroke-width="2"/>
<text class="label" x="368" y="80">yaw actual</text>
<line x1="468" y1="76" x2="492" y2="76" stroke="#1769aa" stroke-width="2"/>
<text class="label" x="498" y="80">pitch disturbance</text>
<line x1="641" y1="76" x2="665" y2="76" stroke="#8a94a3" stroke-width="2" stroke-dasharray="6 4"/>
<text class="label" x="671" y="80">zero baseline</text>
<line x1="786" y1="76" x2="810" y2="76" stroke="#c94f2d" stroke-width="2"/>
<text class="label" x="816" y="80">yaw disturbance</text>
<text class="panel-title" x="70" y="96">Pitch position</text>
<line class="grid" x1="70" y1="338.00" x2="956" y2="338.00"/>
<text class="label" x="62" y="342.00" text-anchor="end">3.1</text>
<line class="grid" x1="70" y1="280.50" x2="956" y2="280.50"/>
<text class="label" x="62" y="284.50" text-anchor="end">4.4</text>
<line class="grid" x1="70" y1="223.00" x2="956" y2="223.00"/>
<text class="label" x="62" y="227.00" text-anchor="end">5.7</text>
<line class="grid" x1="70" y1="165.50" x2="956" y2="165.50"/>
<text class="label" x="62" y="169.50" text-anchor="end">7.0</text>
<line class="grid" x1="70" y1="108.00" x2="956" y2="108.00"/>
<text class="label" x="62" y="112.00" text-anchor="end">8.3</text>
<line class="grid" x1="70.00" y1="108" x2="70.00" y2="338"/>
<line class="grid" x1="217.67" y1="108" x2="217.67" y2="338"/>
<line class="grid" x1="365.33" y1="108" x2="365.33" y2="338"/>
<line class="grid" x1="513.00" y1="108" x2="513.00" y2="338"/>
<line class="grid" x1="660.67" y1="108" x2="660.67" y2="338"/>
<line class="grid" x1="808.33" y1="108" x2="808.33" y2="338"/>
<line class="grid" x1="956.00" y1="108" x2="956.00" y2="338"/>
<line x1="301.58" y1="108" x2="301.58" y2="338" stroke="#20242a" stroke-width="1.2" opacity="0.55"/>
<text class="label" x="305.58" y="120.00" transform="rotate(-35 305.58 120.00)">fire</text>
<line x1="335.09" y1="108" x2="335.09" y2="338" stroke="#6b7280" stroke-width="1.2" opacity="0.55"/>
<text class="label" x="339.09" y="120.00" transform="rotate(-35 339.09 120.00)">muzzle</text>
<line x1="401.30" y1="108" x2="401.30" y2="338" stroke="#6b7280" stroke-width="1.2" opacity="0.55"/>
<text class="label" x="405.30" y="120.00" transform="rotate(-35 405.30 120.00)">impact</text>
<line x1="458.82" y1="108" x2="458.82" y2="338" stroke="#1769aa" stroke-width="1.2" opacity="0.55"/>
<text class="label" x="462.82" y="120.00" transform="rotate(-35 462.82 120.00)">pitch peak</text>
<line x1="493.38" y1="108" x2="493.38" y2="338" stroke="#c94f2d" stroke-width="1.2" opacity="0.55"/>
<text class="label" x="497.38" y="120.00" transform="rotate(-35 497.38 120.00)">yaw peak</text>
<path d="M 95.08,140.17 L 103.89,140.17 L 112.07,140.03 L 120.45,139.79 L 129.15,139.79 L 137.70,139.94 L 145.87,139.55 L 154.69,139.55 L 162.85,139.55 L 175.64,139.67 L 179.27,139.67 L 188.64,139.67 L 198.93,130.26 L 204.81,131.57 L 213.15,131.57 L 221.31,133.36 L 232.28,135.34 L 238.68,135.34 L 246.98,135.34 L 255.34,137.16 L 263.68,139.19 L 273.02,141.60 L 282.53,141.60 L 288.76,144.23 L 297.63,144.23 L 306.12,146.80 L 318.74,149.59 L 323.00,149.59 L 331.92,151.68 L 339.68,151.68 L 347.78,153.85 L 358.20,153.85 L 366.16,156.82 L 373.45,151.83 L 381.72,151.83 L 390.47,178.04 L 399.16,203.33 L 407.12,203.33 L 415.77,203.33 L 426.56,197.70 L 432.62,178.94 L 444.21,178.94 L 449.41,159.51 L 458.82,152.72 L 467.24,152.72 L 474.96,155.12 L 484.01,164.44 L 491.58,164.44 L 500.28,173.65 L 507.95,173.65 L 517.43,180.39 L 524.98,184.43 L 535.59,184.43 L 542.91,186.95 L 550.79,186.95 L 558.55,190.31 L 567.50,194.32 L 576.13,194.32 L 584.00,197.62 L 592.62,200.60 L 603.80,200.60 L 614.16,205.04 L 618.49,205.04 L 627.15,205.04 L 639.99,208.75 L 643.93,212.97 L 652.90,212.97 L 668.88,270.14 L 696.76,261.28 L 711.80,266.21 L 728.58,223.45 L 735.86,217.77 L 744.66,217.77 L 752.95,223.77 L 761.59,230.00 L 771.68,230.00 L 779.06,236.34 L 794.98,236.34 L 804.50,240.12 L 812.72,236.87 L 821.78,234.16 L 838.04,233.96 L 862.29,246.80 L 871.54,246.80 L 879.10,242.63 L 887.30,239.76 L 898.20,239.76 L 913.01,237.30 L 920.99,234.19 L 930.92,231.56" fill="none" stroke="#48525f" stroke-width="2" stroke-dasharray="6 4"/>
<path d="M 95.08,152.64 L 103.89,150.81 L 112.07,149.06 L 120.45,147.71 L 129.15,146.59 L 137.70,145.80 L 145.87,145.00 L 154.69,144.13 L 162.85,143.49 L 175.64,143.10 L 179.27,142.62 L 188.64,142.14 L 198.93,141.90 L 204.81,141.59 L 213.15,140.63 L 221.31,139.12 L 232.28,137.85 L 238.68,136.66 L 246.98,136.02 L 255.34,135.55 L 263.68,135.86 L 273.02,135.63 L 282.53,135.86 L 288.76,135.94 L 297.63,135.94 L 306.12,136.34 L 318.74,136.82 L 323.00,137.53 L 331.92,138.57 L 339.68,140.08 L 347.78,185.30 L 358.20,198.90 L 366.16,193.09 L 373.45,177.04 L 381.72,176.80 L 390.47,186.18 L 399.16,203.43 L 407.12,221.63 L 415.77,229.18 L 426.56,238.24 L 432.62,239.28 L 444.21,231.33 L 449.41,224.33 L 458.82,217.73 L 467.24,207.40 L 474.96,193.57 L 484.01,182.05 L 491.58,175.29 L 500.28,173.62 L 507.95,173.14 L 517.43,173.70 L 524.98,176.08 L 535.59,177.67 L 542.91,177.75 L 550.79,177.44 L 558.55,178.39 L 567.50,181.01 L 576.13,183.24 L 584.00,184.59 L 592.62,185.54 L 603.80,186.97 L 614.16,189.12 L 618.49,195.96 L 627.15,246.11 L 639.99,261.53 L 643.93,255.97 L 652.90,240.39 L 668.88,255.17 L 696.76,307.08 L 711.80,315.74 L 728.58,290.86 L 735.86,281.48 L 744.66,269.08 L 752.95,258.67 L 761.59,250.64 L 771.68,250.56 L 779.06,248.58 L 794.98,246.59 L 804.50,246.51 L 812.72,244.60 L 821.78,242.22 L 838.04,240.63 L 862.29,239.20 L 871.54,237.61 L 879.10,237.13 L 887.30,237.69 L 898.20,238.56 L 913.01,238.96 L 920.99,238.80 L 930.92,238.72" fill="none" stroke="#1769aa" stroke-width="2"/>
<line class="axis" x1="70" y1="338" x2="956" y2="338"/>
<line class="axis" x1="70" y1="108" x2="70" y2="338"/>
<text class="label" x="18" y="223.00" transform="rotate(-90 18 223.00)" text-anchor="middle">degrees</text>
<text class="panel-title" x="70" y="364">Yaw position</text>
<line class="grid" x1="70" y1="606.00" x2="956" y2="606.00"/>
<text class="label" x="62" y="610.00" text-anchor="end">-2.9</text>
<line class="grid" x1="70" y1="548.50" x2="956" y2="548.50"/>
<text class="label" x="62" y="552.50" text-anchor="end">4.8</text>
<line class="grid" x1="70" y1="491.00" x2="956" y2="491.00"/>
<text class="label" x="62" y="495.00" text-anchor="end">12.4</text>
<line class="grid" x1="70" y1="433.50" x2="956" y2="433.50"/>
<text class="label" x="62" y="437.50" text-anchor="end">20.0</text>
<line class="grid" x1="70" y1="376.00" x2="956" y2="376.00"/>
<text class="label" x="62" y="380.00" text-anchor="end">27.6</text>
<line class="grid" x1="70.00" y1="376" x2="70.00" y2="606"/>
<line class="grid" x1="217.67" y1="376" x2="217.67" y2="606"/>
<line class="grid" x1="365.33" y1="376" x2="365.33" y2="606"/>
<line class="grid" x1="513.00" y1="376" x2="513.00" y2="606"/>
<line class="grid" x1="660.67" y1="376" x2="660.67" y2="606"/>
<line class="grid" x1="808.33" y1="376" x2="808.33" y2="606"/>
<line class="grid" x1="956.00" y1="376" x2="956.00" y2="606"/>
<line x1="301.58" y1="376" x2="301.58" y2="606" stroke="#20242a" stroke-width="1.2" opacity="0.55"/>
<line x1="335.09" y1="376" x2="335.09" y2="606" stroke="#6b7280" stroke-width="1.2" opacity="0.55"/>
<line x1="401.30" y1="376" x2="401.30" y2="606" stroke="#6b7280" stroke-width="1.2" opacity="0.55"/>
<line x1="458.82" y1="376" x2="458.82" y2="606" stroke="#1769aa" stroke-width="1.2" opacity="0.55"/>
<line x1="493.38" y1="376" x2="493.38" y2="606" stroke="#c94f2d" stroke-width="1.2" opacity="0.55"/>
<path d="M 95.60,574.24 L 107.23,574.24 L 113.14,569.77 L 121.19,568.30 L 131.57,568.30 L 137.26,563.55 L 149.53,559.00 L 156.29,559.00 L 164.59,554.40 L 171.28,554.40 L 179.70,551.51 L 191.95,518.48 L 196.62,518.48 L 206.21,515.71 L 215.45,515.71 L 221.74,512.34 L 230.74,510.29 L 240.39,510.29 L 248.21,507.80 L 258.53,507.80 L 264.14,505.29 L 275.79,502.58 L 281.32,502.58 L 289.22,502.52 L 299.52,502.52 L 305.69,498.71 L 316.25,498.71 L 324.94,494.74 L 331.14,492.09 L 342.28,488.55 L 348.35,488.55 L 360.29,488.55 L 364.83,483.51 L 374.19,480.99 L 382.20,480.99 L 400.32,476.62 L 408.58,476.62 L 416.52,476.62 L 425.28,473.16 L 432.10,469.83 L 442.11,469.83 L 453.72,469.31 L 471.79,469.92 L 475.54,468.66 L 484.66,468.99 L 493.38,468.99 L 499.70,467.78 L 509.80,466.55 L 516.51,466.55 L 526.27,464.88 L 533.76,464.88 L 542.30,463.11 L 552.27,463.11 L 559.00,460.85 L 568.87,459.24 L 577.31,459.24 L 584.58,457.82 L 593.69,456.41 L 609.46,456.41 L 622.52,453.87 L 630.36,452.46 L 636.03,452.46 L 645.61,451.23 L 654.91,450.48 L 660.72,450.48 L 669.77,451.18 L 677.23,451.18 L 686.58,445.79 L 694.90,443.00 L 702.83,443.00 L 711.13,440.77 L 720.02,440.77 L 730.78,439.88 L 738.35,438.00 L 746.20,438.00 L 753.42,437.77 L 763.47,436.89 L 773.14,436.89 L 777.92,434.13 L 787.45,434.13 L 803.24,430.06 L 814.62,427.31 L 820.90,432.65 L 828.89,432.65 L 837.30,437.33 L 846.54,441.12 L 855.21,441.12 L 863.63,431.08 L 880.04,423.94 L 888.46,416.40 L 904.94,409.36 L 914.39,409.36 L 921.71,402.50 L 930.02,398.26" fill="none" stroke="#48525f" stroke-width="2" stroke-dasharray="6 4"/>
<path d="M 95.60,583.74 L 107.23,581.03 L 113.14,578.73 L 121.19,576.94 L 131.57,575.30 L 137.26,573.59 L 149.53,572.22 L 156.29,570.51 L 164.59,568.38 L 171.28,566.00 L 179.70,563.19 L 191.95,560.07 L 196.62,557.37 L 206.21,554.78 L 215.45,551.67 L 221.74,547.53 L 230.74,542.86 L 240.39,536.58 L 248.21,529.34 L 258.53,522.69 L 264.14,516.19 L 275.79,511.35 L 281.32,508.39 L 289.22,506.84 L 299.52,506.43 L 305.69,506.16 L 316.25,505.93 L 324.94,505.27 L 331.14,503.88 L 342.28,501.67 L 348.35,505.29 L 360.29,511.37 L 364.83,508.16 L 374.19,505.23 L 382.20,499.95 L 400.32,493.46 L 408.58,491.08 L 416.52,487.73 L 425.28,483.97 L 432.10,481.15 L 442.11,479.29 L 453.72,477.82 L 471.79,474.24 L 475.54,473.02 L 484.66,471.92 L 493.38,471.17 L 499.70,470.85 L 509.80,470.39 L 516.51,469.80 L 526.27,469.04 L 533.76,468.53 L 542.30,467.90 L 552.27,467.14 L 559.00,466.02 L 568.87,464.89 L 577.31,463.57 L 584.58,462.35 L 593.69,461.21 L 609.46,459.09 L 622.52,458.27 L 630.36,463.65 L 636.03,470.70 L 645.61,469.52 L 654.91,467.56 L 660.72,463.41 L 669.77,460.19 L 677.23,457.60 L 686.58,456.37 L 694.90,454.71 L 702.83,453.42 L 711.13,451.40 L 720.02,449.57 L 730.78,446.80 L 738.35,444.05 L 746.20,442.14 L 753.42,440.38 L 763.47,439.56 L 773.14,439.13 L 777.92,438.80 L 787.45,438.56 L 803.24,437.32 L 814.62,436.66 L 820.90,435.34 L 828.89,433.58 L 837.30,431.95 L 846.54,431.16 L 855.21,431.00 L 863.63,432.56 L 880.04,436.90 L 888.46,437.73 L 904.94,433.71 L 914.39,428.70 L 921.71,422.72 L 930.02,417.18" fill="none" stroke="#c94f2d" stroke-width="2"/>
<line class="axis" x1="70" y1="606" x2="956" y2="606"/>
<line class="axis" x1="70" y1="376" x2="70" y2="606"/>
<text class="label" x="18" y="491.00" transform="rotate(-90 18 491.00)" text-anchor="middle">degrees</text>
<text class="panel-title" x="70" y="632">Pitch disturbance while moving</text>
<line class="grid" x1="70" y1="874.00" x2="956" y2="874.00"/>
<text class="label" x="62" y="878.00" text-anchor="end">-1.7</text>
<line class="grid" x1="70" y1="816.50" x2="956" y2="816.50"/>
<text class="label" x="62" y="820.50" text-anchor="end">-1.1</text>
<line class="grid" x1="70" y1="759.00" x2="956" y2="759.00"/>
<text class="label" x="62" y="763.00" text-anchor="end">-0.6</text>
<line class="grid" x1="70" y1="701.50" x2="956" y2="701.50"/>
<text class="label" x="62" y="705.50" text-anchor="end">0.0</text>
<line class="grid" x1="70" y1="644.00" x2="956" y2="644.00"/>
<text class="label" x="62" y="648.00" text-anchor="end">0.6</text>
<line class="grid" x1="70.00" y1="644" x2="70.00" y2="874"/>
<line class="grid" x1="217.67" y1="644" x2="217.67" y2="874"/>
<line class="grid" x1="365.33" y1="644" x2="365.33" y2="874"/>
<line class="grid" x1="513.00" y1="644" x2="513.00" y2="874"/>
<line class="grid" x1="660.67" y1="644" x2="660.67" y2="874"/>
<line class="grid" x1="808.33" y1="644" x2="808.33" y2="874"/>
<line class="grid" x1="956.00" y1="644" x2="956.00" y2="874"/>
<line x1="301.58" y1="644" x2="301.58" y2="874" stroke="#20242a" stroke-width="1.2" opacity="0.55"/>
<line x1="335.09" y1="644" x2="335.09" y2="874" stroke="#6b7280" stroke-width="1.2" opacity="0.55"/>
<line x1="401.30" y1="644" x2="401.30" y2="874" stroke="#6b7280" stroke-width="1.2" opacity="0.55"/>
<line x1="458.82" y1="644" x2="458.82" y2="874" stroke="#1769aa" stroke-width="1.2" opacity="0.55"/>
<line x1="493.38" y1="644" x2="493.38" y2="874" stroke="#c94f2d" stroke-width="1.2" opacity="0.55"/>
<path d="M 95.08,729.43 L 103.89,725.36 L 112.07,721.78 L 120.45,719.30 L 129.15,716.83 L 137.70,714.74 L 145.87,713.84 L 154.69,711.90 L 162.85,710.48 L 175.64,709.31 L 179.27,708.25 L 188.64,707.19 L 198.93,727.61 L 204.81,724.00 L 213.15,721.87 L 221.31,714.53 L 232.28,707.28 L 238.68,704.62 L 246.98,703.21 L 255.34,698.10 L 263.68,694.28 L 273.02,688.40 L 282.53,688.93 L 288.76,683.25 L 297.63,683.25 L 306.12,678.41 L 318.74,673.26 L 323.00,674.85 L 331.92,672.50 L 339.68,675.86 L 347.78,771.69 L 358.20,801.95 L 366.16,782.43 L 373.45,757.80 L 381.72,757.27 L 390.47,719.81 L 399.16,701.91 L 407.12,742.43 L 415.77,759.23 L 426.56,791.94 L 432.62,835.99 L 444.21,818.30 L 449.41,845.97 L 458.82,846.39 L 467.24,823.40 L 474.96,787.27 L 484.01,740.89 L 491.58,725.85 L 500.28,701.62 L 507.95,700.56 L 517.43,686.79 L 524.98,683.12 L 535.59,686.66 L 542.91,681.23 L 550.79,680.52 L 558.55,675.16 L 567.50,672.08 L 576.13,677.03 L 584.00,672.68 L 592.62,668.19 L 603.80,671.37 L 614.16,666.26 L 618.49,681.47 L 627.15,793.11 L 639.99,819.17 L 643.93,797.39 L 652.90,762.72 L 668.88,668.39 L 696.76,803.63 L 711.80,811.93 L 728.58,851.74 L 735.86,843.50 L 744.66,815.90 L 752.95,779.37 L 761.59,747.64 L 771.68,747.46 L 779.06,728.93 L 794.98,724.50 L 804.50,715.91 L 812.72,718.90 L 821.78,719.62 L 838.04,716.53 L 862.29,684.76 L 871.54,681.22 L 879.10,689.45 L 887.30,697.07 L 898.20,699.02 L 913.01,705.38 L 920.99,711.94 L 930.92,717.62" fill="none" stroke="#1769aa" stroke-width="2"/>
<path d="M 95.08,703.92 L 103.89,703.92 L 112.07,703.92 L 120.45,703.92 L 129.15,703.92 L 137.70,703.92 L 145.87,703.92 L 154.69,703.92 L 162.85,703.92 L 175.64,703.92 L 179.27,703.92 L 188.64,703.92 L 198.93,703.92 L 204.81,703.92 L 213.15,703.92 L 221.31,703.92 L 232.28,703.92 L 238.68,703.92 L 246.98,703.92 L 255.34,703.92 L 263.68,703.92 L 273.02,703.92 L 282.53,703.92 L 288.76,703.92 L 297.63,703.92 L 306.12,703.92 L 318.74,703.92 L 323.00,703.92 L 331.92,703.92 L 339.68,703.92 L 347.78,703.92 L 358.20,703.92 L 366.16,703.92 L 373.45,703.92 L 381.72,703.92 L 390.47,703.92 L 399.16,703.92 L 407.12,703.92 L 415.77,703.92 L 426.56,703.92 L 432.62,703.92 L 444.21,703.92 L 449.41,703.92 L 458.82,703.92 L 467.24,703.92 L 474.96,703.92 L 484.01,703.92 L 491.58,703.92 L 500.28,703.92 L 507.95,703.92 L 517.43,703.92 L 524.98,703.92 L 535.59,703.92 L 542.91,703.92 L 550.79,703.92 L 558.55,703.92 L 567.50,703.92 L 576.13,703.92 L 584.00,703.92 L 592.62,703.92 L 603.80,703.92 L 614.16,703.92 L 618.49,703.92 L 627.15,703.92 L 639.99,703.92 L 643.93,703.92 L 652.90,703.92 L 668.88,703.92 L 696.76,703.92 L 711.80,703.92 L 728.58,703.92 L 735.86,703.92 L 744.66,703.92 L 752.95,703.92 L 761.59,703.92 L 771.68,703.92 L 779.06,703.92 L 794.98,703.92 L 804.50,703.92 L 812.72,703.92 L 821.78,703.92 L 838.04,703.92 L 862.29,703.92 L 871.54,703.92 L 879.10,703.92 L 887.30,703.92 L 898.20,703.92 L 913.01,703.92 L 920.99,703.92 L 930.92,703.92" fill="none" stroke="#8a94a3" stroke-width="2" stroke-dasharray="6 4"/>
<line class="axis" x1="70" y1="874" x2="956" y2="874"/>
<line class="axis" x1="70" y1="644" x2="70" y2="874"/>
<text class="label" x="18" y="759.00" transform="rotate(-90 18 759.00)" text-anchor="middle">degrees</text>
<text class="panel-title" x="70" y="900">Yaw disturbance while moving</text>
<line class="grid" x1="70" y1="1142.00" x2="956" y2="1142.00"/>
<text class="label" x="62" y="1146.00" text-anchor="end">-3.2</text>
<line class="grid" x1="70" y1="1084.50" x2="956" y2="1084.50"/>
<text class="label" x="62" y="1088.50" text-anchor="end">-1.0</text>
<line class="grid" x1="70" y1="1027.00" x2="956" y2="1027.00"/>
<text class="label" x="62" y="1031.00" text-anchor="end">1.1</text>
<line class="grid" x1="70" y1="969.50" x2="956" y2="969.50"/>
<text class="label" x="62" y="973.50" text-anchor="end">3.2</text>
<line class="grid" x1="70" y1="912.00" x2="956" y2="912.00"/>
<text class="label" x="62" y="916.00" text-anchor="end">5.3</text>
<line class="grid" x1="70.00" y1="912" x2="70.00" y2="1142"/>
<text class="label" x="70.00" y="1162" text-anchor="middle">-0.28</text>
<line class="grid" x1="217.67" y1="912" x2="217.67" y2="1142"/>
<text class="label" x="217.67" y="1162" text-anchor="middle">-0.10</text>
<line class="grid" x1="365.33" y1="912" x2="365.33" y2="1142"/>
<text class="label" x="365.33" y="1162" text-anchor="middle">0.08</text>
<line class="grid" x1="513.00" y1="912" x2="513.00" y2="1142"/>
<text class="label" x="513.00" y="1162" text-anchor="middle">0.25</text>
<line class="grid" x1="660.67" y1="912" x2="660.67" y2="1142"/>
<text class="label" x="660.67" y="1162" text-anchor="middle">0.43</text>
<line class="grid" x1="808.33" y1="912" x2="808.33" y2="1142"/>
<text class="label" x="808.33" y="1162" text-anchor="middle">0.60</text>
<line class="grid" x1="956.00" y1="912" x2="956.00" y2="1142"/>
<text class="label" x="956.00" y="1162" text-anchor="middle">0.78</text>
<line x1="301.58" y1="912" x2="301.58" y2="1142" stroke="#20242a" stroke-width="1.2" opacity="0.55"/>
<line x1="335.09" y1="912" x2="335.09" y2="1142" stroke="#6b7280" stroke-width="1.2" opacity="0.55"/>
<line x1="401.30" y1="912" x2="401.30" y2="1142" stroke="#6b7280" stroke-width="1.2" opacity="0.55"/>
<line x1="458.82" y1="912" x2="458.82" y2="1142" stroke="#1769aa" stroke-width="1.2" opacity="0.55"/>
<line x1="493.38" y1="912" x2="493.38" y2="1142" stroke="#c94f2d" stroke-width="1.2" opacity="0.55"/>
<path d="M 95.60,1004.61 L 107.23,994.87 L 113.14,1002.68 L 121.19,1001.54 L 131.57,995.65 L 137.26,1006.54 L 149.53,1017.95 L 156.29,1011.82 L 164.59,1020.67 L 171.28,1012.15 L 179.70,1012.47 L 191.95,1119.74 L 196.62,1110.05 L 206.21,1110.68 L 215.45,1099.54 L 221.74,1096.76 L 230.74,1087.39 L 240.39,1064.85 L 248.21,1047.84 L 258.53,1023.98 L 264.14,1009.64 L 275.79,1001.99 L 281.32,991.38 L 289.22,986.05 L 299.52,984.59 L 305.69,997.26 L 316.25,996.43 L 324.94,1008.32 L 331.14,1012.83 L 342.28,1017.59 L 348.35,1030.59 L 360.29,1052.40 L 364.83,1058.93 L 374.19,1057.48 L 382.20,1038.54 L 400.32,1030.94 L 408.58,1022.42 L 416.52,1010.39 L 425.28,1009.33 L 432.10,1011.14 L 442.11,1004.47 L 453.72,1001.07 L 471.79,986.02 L 475.54,986.19 L 484.66,981.05 L 493.38,978.37 L 499.70,981.56 L 509.80,984.29 L 516.51,982.20 L 526.27,985.47 L 533.76,983.62 L 542.30,987.72 L 552.27,984.99 L 559.00,989.09 L 568.87,990.81 L 577.31,986.08 L 584.58,986.79 L 593.69,987.76 L 609.46,980.17 L 622.52,986.31 L 630.36,1010.70 L 636.03,1035.96 L 645.61,1036.15 L 654.91,1031.80 L 660.72,1016.90 L 669.77,1002.88 L 677.23,993.58 L 686.58,1008.49 L 694.90,1012.55 L 702.83,1007.93 L 711.13,1008.65 L 720.02,1002.07 L 730.78,995.35 L 738.35,992.25 L 746.20,985.39 L 753.42,979.90 L 763.47,980.11 L 773.14,978.56 L 777.92,987.29 L 787.45,986.42 L 803.24,996.59 L 814.62,1004.06 L 820.90,980.21 L 828.89,973.88 L 837.30,951.23 L 846.54,934.84 L 855.21,934.26 L 863.63,975.86 L 880.04,1017.05 L 888.46,1047.07 L 904.94,1057.88 L 914.39,1039.92 L 921.71,1043.06 L 930.02,1038.42" fill="none" stroke="#c94f2d" stroke-width="2"/>
<path d="M 95.60,1056.34 L 107.23,1056.34 L 113.14,1056.34 L 121.19,1056.34 L 131.57,1056.34 L 137.26,1056.34 L 149.53,1056.34 L 156.29,1056.34 L 164.59,1056.34 L 171.28,1056.34 L 179.70,1056.34 L 191.95,1056.34 L 196.62,1056.34 L 206.21,1056.34 L 215.45,1056.34 L 221.74,1056.34 L 230.74,1056.34 L 240.39,1056.34 L 248.21,1056.34 L 258.53,1056.34 L 264.14,1056.34 L 275.79,1056.34 L 281.32,1056.34 L 289.22,1056.34 L 299.52,1056.34 L 305.69,1056.34 L 316.25,1056.34 L 324.94,1056.34 L 331.14,1056.34 L 342.28,1056.34 L 348.35,1056.34 L 360.29,1056.34 L 364.83,1056.34 L 374.19,1056.34 L 382.20,1056.34 L 400.32,1056.34 L 408.58,1056.34 L 416.52,1056.34 L 425.28,1056.34 L 432.10,1056.34 L 442.11,1056.34 L 453.72,1056.34 L 471.79,1056.34 L 475.54,1056.34 L 484.66,1056.34 L 493.38,1056.34 L 499.70,1056.34 L 509.80,1056.34 L 516.51,1056.34 L 526.27,1056.34 L 533.76,1056.34 L 542.30,1056.34 L 552.27,1056.34 L 559.00,1056.34 L 568.87,1056.34 L 577.31,1056.34 L 584.58,1056.34 L 593.69,1056.34 L 609.46,1056.34 L 622.52,1056.34 L 630.36,1056.34 L 636.03,1056.34 L 645.61,1056.34 L 654.91,1056.34 L 660.72,1056.34 L 669.77,1056.34 L 677.23,1056.34 L 686.58,1056.34 L 694.90,1056.34 L 702.83,1056.34 L 711.13,1056.34 L 720.02,1056.34 L 730.78,1056.34 L 738.35,1056.34 L 746.20,1056.34 L 753.42,1056.34 L 763.47,1056.34 L 773.14,1056.34 L 777.92,1056.34 L 787.45,1056.34 L 803.24,1056.34 L 814.62,1056.34 L 820.90,1056.34 L 828.89,1056.34 L 837.30,1056.34 L 846.54,1056.34 L 855.21,1056.34 L 863.63,1056.34 L 880.04,1056.34 L 888.46,1056.34 L 904.94,1056.34 L 914.39,1056.34 L 921.71,1056.34 L 930.02,1056.34" fill="none" stroke="#8a94a3" stroke-width="2" stroke-dasharray="6 4"/>
<line class="axis" x1="70" y1="1142" x2="956" y2="1142"/>
<line class="axis" x1="70" y1="912" x2="70" y2="1142"/>
<text class="label" x="18" y="1027.00" transform="rotate(-90 18 1027.00)" text-anchor="middle">degrees</text>
<text class="label" x="513.0" y="1178" text-anchor="middle">time relative to event (s)</text>
</svg>