<svg xmlns="http://www.w3.org/2000/svg" viewBox="0 0 980 1186" role="img">
<style>
.axis{stroke:#718096;stroke-width:1}.grid{stroke:#e5eaf0;stroke-width:1}.label{font:12px sans-serif;fill:#5a6675}.title{font:700 18px sans-serif;fill:#20242a}.subtitle{font:12px sans-serif;fill:#5a6675}.panel-title{font:700 13px sans-serif;fill:#20242a}
</style>
<rect width="980" height="1186" fill="#ffffff"/>
<text class="title" x="70" y="28">Motion disturbance example 17: event 288</text>
<text class="subtitle" x="70" y="50">Start pitch 5.2 deg, yaw 13.8 deg; target motion 8.6 deg; disturbance vector 2.33 deg.</text>
<line x1="70" y1="76" x2="94" y2="76" stroke="#48525f" stroke-width="2" stroke-dasharray="6 4"/>
<text class="label" x="100" y="80">target</text>
<line x1="200" y1="76" x2="224" y2="76" stroke="#1769aa" stroke-width="2"/>
<text class="label" x="230" y="80">pitch actual</text>
<line x1="338" y1="76" x2="362" y2="76" stroke="#c94f2d" stroke-width="2"/>
<text class="label" x="368" y="80">yaw actual</text>
<line x1="468" y1="76" x2="492" y2="76" stroke="#1769aa" stroke-width="2"/>
<text class="label" x="498" y="80">pitch disturbance</text>
<line x1="641" y1="76" x2="665" y2="76" stroke="#8a94a3" stroke-width="2" stroke-dasharray="6 4"/>
<text class="label" x="671" y="80">zero baseline</text>
<line x1="786" y1="76" x2="810" y2="76" stroke="#c94f2d" stroke-width="2"/>
<text class="label" x="816" y="80">yaw disturbance</text>
<text class="panel-title" x="70" y="96">Pitch position</text>
<line class="grid" x1="70" y1="338.00" x2="956" y2="338.00"/>
<text class="label" x="62" y="342.00" text-anchor="end">0.0</text>
<line class="grid" x1="70" y1="280.50" x2="956" y2="280.50"/>
<text class="label" x="62" y="284.50" text-anchor="end">1.8</text>
<line class="grid" x1="70" y1="223.00" x2="956" y2="223.00"/>
<text class="label" x="62" y="227.00" text-anchor="end">3.5</text>
<line class="grid" x1="70" y1="165.50" x2="956" y2="165.50"/>
<text class="label" x="62" y="169.50" text-anchor="end">5.3</text>
<line class="grid" x1="70" y1="108.00" x2="956" y2="108.00"/>
<text class="label" x="62" y="112.00" text-anchor="end">7.0</text>
<line class="grid" x1="70.00" y1="108" x2="70.00" y2="338"/>
<line class="grid" x1="217.67" y1="108" x2="217.67" y2="338"/>
<line class="grid" x1="365.33" y1="108" x2="365.33" y2="338"/>
<line class="grid" x1="513.00" y1="108" x2="513.00" y2="338"/>
<line class="grid" x1="660.67" y1="108" x2="660.67" y2="338"/>
<line class="grid" x1="808.33" y1="108" x2="808.33" y2="338"/>
<line class="grid" x1="956.00" y1="108" x2="956.00" y2="338"/>
<line x1="304.62" y1="108" x2="304.62" y2="338" stroke="#20242a" stroke-width="1.2" opacity="0.55"/>
<text class="label" x="308.62" y="120.00" transform="rotate(-35 308.62 120.00)">fire</text>
<line x1="338.56" y1="108" x2="338.56" y2="338" stroke="#6b7280" stroke-width="1.2" opacity="0.55"/>
<text class="label" x="342.56" y="120.00" transform="rotate(-35 342.56 120.00)">muzzle</text>
<line x1="420.47" y1="108" x2="420.47" y2="338" stroke="#6b7280" stroke-width="1.2" opacity="0.55"/>
<text class="label" x="424.47" y="120.00" transform="rotate(-35 424.47 120.00)">impact</text>
<line x1="442.31" y1="108" x2="442.31" y2="338" stroke="#1769aa" stroke-width="1.2" opacity="0.55"/>
<text class="label" x="446.31" y="120.00" transform="rotate(-35 446.31 120.00)">pitch peak</text>
<line x1="485.59" y1="108" x2="485.59" y2="338" stroke="#c94f2d" stroke-width="1.2" opacity="0.55"/>
<text class="label" x="489.59" y="120.00" transform="rotate(-35 489.59 120.00)">yaw peak</text>
<path d="M 95.08,132.88 L 112.54,135.99 L 119.96,135.99 L 128.71,137.24 L 136.55,139.64 L 153.49,152.32 L 162.39,152.32 L 170.50,155.19 L 187.46,158.76 L 196.40,162.33 L 204.42,162.33 L 213.38,165.13 L 221.65,167.42 L 231.65,167.42 L 239.01,170.21 L 247.70,170.21 L 255.10,171.62 L 275.12,175.11 L 280.42,178.48 L 297.61,179.99 L 306.59,182.58 L 315.17,182.58 L 324.83,186.57 L 340.68,189.12 L 365.44,195.68 L 373.55,195.68 L 382.41,197.49 L 391.05,235.75 L 400.96,235.75 L 407.36,252.86 L 416.46,252.86 L 424.64,236.19 L 432.86,236.19 L 442.31,214.58 L 451.45,214.58 L 457.94,199.28 L 466.50,196.53 L 476.34,196.53 L 483.56,201.62 L 492.51,211.69 L 501.06,211.69 L 508.40,220.14 L 517.69,220.14 L 525.58,226.58 L 534.63,230.65 L 542.73,230.65 L 550.53,233.97 L 559.80,237.83 L 569.71,237.83 L 578.08,242.19 L 585.50,242.19 L 593.59,244.33 L 601.20,244.33 L 612.92,244.33 L 622.75,250.67 L 627.74,250.67 L 637.47,254.22 L 643.65,255.63 L 651.86,257.86 L 661.04,261.07 L 678.71,264.78 L 685.89,264.78 L 694.88,266.56 L 703.81,270.01 L 711.22,270.01 L 719.57,273.69 L 739.93,275.85 L 745.19,279.12 L 754.44,279.12 L 763.09,279.88 L 772.80,283.15 L 778.50,283.15 L 787.32,286.52 L 796.93,286.52 L 804.07,289.87 L 812.31,291.87 L 820.87,291.87 L 830.47,295.59 L 837.77,295.59 L 847.23,298.10 L 854.57,301.38 L 863.50,301.38 L 871.63,304.28 L 880.09,304.28 L 888.33,307.96 L 897.37,310.17 L 905.37,310.17 L 914.36,313.24 L 922.32,313.24 L 930.48,315.74" fill="none" stroke="#48525f" stroke-width="2" stroke-dasharray="6 4"/>
<path d="M 95.08,130.26 L 112.54,130.61 L 119.96,130.67 L 128.71,130.73 L 136.55,131.14 L 153.49,132.38 L 162.39,133.09 L 170.50,134.27 L 187.46,138.87 L 196.40,142.00 L 204.42,145.30 L 213.38,148.67 L 221.65,151.50 L 231.65,154.74 L 239.01,156.87 L 247.70,158.70 L 255.10,160.17 L 275.12,162.65 L 280.42,164.48 L 297.61,168.32 L 306.59,169.97 L 315.17,171.56 L 324.83,173.21 L 340.68,176.58 L 365.44,222.42 L 373.55,223.19 L 382.41,218.41 L 391.05,223.90 L 400.96,230.33 L 407.36,239.24 L 416.46,256.76 L 424.64,267.03 L 432.86,273.28 L 442.31,269.57 L 451.45,260.60 L 457.94,253.58 L 466.50,245.73 L 476.34,234.52 L 483.56,224.61 L 492.51,218.35 L 501.06,215.52 L 508.40,213.98 L 517.69,214.28 L 525.58,215.99 L 534.63,217.53 L 542.73,218.71 L 550.53,219.35 L 559.80,220.59 L 569.71,222.89 L 578.08,225.73 L 585.50,228.09 L 593.59,229.98 L 601.20,231.63 L 612.92,233.46 L 622.75,235.23 L 627.74,236.88 L 637.47,238.29 L 643.65,239.89 L 651.86,241.95 L 661.04,244.31 L 678.71,249.09 L 685.89,251.28 L 694.88,253.34 L 703.81,255.46 L 711.22,257.47 L 719.57,259.30 L 739.93,262.72 L 745.19,264.61 L 754.44,266.50 L 763.09,268.39 L 772.80,270.16 L 778.50,271.81 L 787.32,273.52 L 796.93,275.11 L 804.07,276.77 L 812.31,278.36 L 820.87,280.01 L 830.47,281.90 L 837.77,283.85 L 847.23,285.62 L 854.57,287.39 L 863.50,289.16 L 871.63,290.99 L 880.09,292.70 L 888.33,294.47 L 897.37,296.18 L 905.37,297.89 L 914.36,299.66 L 922.32,301.49 L 930.48,303.38" fill="none" stroke="#1769aa" stroke-width="2"/>
<line class="axis" x1="70" y1="338" x2="956" y2="338"/>
<line class="axis" x1="70" y1="108" x2="70" y2="338"/>
<text class="label" x="18" y="223.00" transform="rotate(-90 18 223.00)" text-anchor="middle">degrees</text>
<text class="panel-title" x="70" y="364">Yaw position</text>
<line class="grid" x1="70" y1="606.00" x2="956" y2="606.00"/>
<text class="label" x="62" y="610.00" text-anchor="end">1.0</text>
<line class="grid" x1="70" y1="548.50" x2="956" y2="548.50"/>
<text class="label" x="62" y="552.50" text-anchor="end">7.1</text>
<line class="grid" x1="70" y1="491.00" x2="956" y2="491.00"/>
<text class="label" x="62" y="495.00" text-anchor="end">13.2</text>
<line class="grid" x1="70" y1="433.50" x2="956" y2="433.50"/>
<text class="label" x="62" y="437.50" text-anchor="end">19.3</text>
<line class="grid" x1="70" y1="376.00" x2="956" y2="376.00"/>
<text class="label" x="62" y="380.00" text-anchor="end">25.4</text>
<line class="grid" x1="70.00" y1="376" x2="70.00" y2="606"/>
<line class="grid" x1="217.67" y1="376" x2="217.67" y2="606"/>
<line class="grid" x1="365.33" y1="376" x2="365.33" y2="606"/>
<line class="grid" x1="513.00" y1="376" x2="513.00" y2="606"/>
<line class="grid" x1="660.67" y1="376" x2="660.67" y2="606"/>
<line class="grid" x1="808.33" y1="376" x2="808.33" y2="606"/>
<line class="grid" x1="956.00" y1="376" x2="956.00" y2="606"/>
<line x1="304.62" y1="376" x2="304.62" y2="606" stroke="#20242a" stroke-width="1.2" opacity="0.55"/>
<line x1="338.56" y1="376" x2="338.56" y2="606" stroke="#6b7280" stroke-width="1.2" opacity="0.55"/>
<line x1="420.47" y1="376" x2="420.47" y2="606" stroke="#6b7280" stroke-width="1.2" opacity="0.55"/>
<line x1="442.31" y1="376" x2="442.31" y2="606" stroke="#1769aa" stroke-width="1.2" opacity="0.55"/>
<line x1="485.59" y1="376" x2="485.59" y2="606" stroke="#c94f2d" stroke-width="1.2" opacity="0.55"/>
<path d="M 103.96,572.76 L 111.89,567.30 L 121.06,567.30 L 137.31,559.02 L 145.78,559.02 L 154.00,503.63 L 163.79,499.38 L 170.94,499.38 L 179.36,495.93 L 190.66,495.93 L 195.84,492.04 L 205.69,492.04 L 212.88,490.00 L 230.14,487.72 L 238.50,483.66 L 255.58,482.43 L 263.81,480.77 L 271.99,480.77 L 280.96,476.36 L 289.13,476.36 L 297.07,471.66 L 314.12,467.13 L 323.31,462.89 L 331.64,462.89 L 340.03,460.56 L 348.30,460.56 L 356.81,458.02 L 365.99,456.43 L 374.76,456.43 L 381.94,453.34 L 391.76,451.09 L 399.64,451.09 L 409.13,445.46 L 424.09,443.39 L 444.66,445.94 L 450.34,445.94 L 459.16,442.89 L 467.93,442.83 L 485.59,442.71 L 493.51,441.31 L 499.79,441.31 L 509.33,441.59 L 526.92,440.23 L 535.24,438.50 L 544.33,438.50 L 551.07,436.67 L 560.65,434.91 L 568.02,434.91 L 576.67,432.68 L 593.16,430.80 L 601.60,430.80 L 610.37,430.80 L 618.68,427.06 L 628.62,427.06 L 635.98,426.65 L 647.35,425.73 L 653.79,425.67 L 663.11,424.15 L 669.39,424.15 L 677.73,422.23 L 688.18,420.73 L 696.14,420.73 L 715.09,418.59 L 720.74,416.83 L 728.17,416.64 L 736.76,416.64 L 756.19,415.01 L 761.99,413.05 L 770.50,413.05 L 779.51,412.50 L 788.72,410.84 L 795.94,410.84 L 805.43,409.60 L 812.92,408.32 L 822.60,408.32 L 829.52,406.58 L 839.63,405.44 L 846.46,405.44 L 855.20,403.72 L 864.97,403.72 L 873.29,401.90 L 883.64,401.90 L 888.79,400.50 L 906.01,399.69 L 913.79,398.31 L 924.35,398.26 L 930.92,398.26" fill="none" stroke="#48525f" stroke-width="2" stroke-dasharray="6 4"/>
<path d="M 103.96,583.74 L 111.89,581.68 L 121.06,579.33 L 137.31,574.22 L 145.78,571.14 L 154.00,567.68 L 163.79,564.95 L 170.94,561.53 L 179.36,556.86 L 190.66,551.65 L 195.84,544.18 L 205.69,534.25 L 212.88,522.71 L 230.14,501.49 L 238.50,494.08 L 255.58,488.07 L 263.81,488.00 L 271.99,487.97 L 280.96,487.97 L 289.13,487.41 L 297.07,485.75 L 314.12,479.96 L 323.31,476.42 L 331.64,473.40 L 340.03,470.20 L 348.30,476.50 L 356.81,476.54 L 365.99,476.78 L 374.76,476.62 L 381.94,470.17 L 391.76,464.77 L 399.64,460.60 L 409.13,457.87 L 424.09,453.49 L 444.66,450.73 L 450.34,449.44 L 459.16,447.74 L 467.93,445.83 L 485.59,443.90 L 493.51,443.56 L 499.79,443.60 L 509.33,443.27 L 526.92,442.88 L 535.24,442.59 L 544.33,442.20 L 551.07,441.49 L 560.65,440.43 L 568.02,439.25 L 576.67,437.91 L 593.16,435.68 L 601.60,434.55 L 610.37,433.45 L 618.68,432.58 L 628.62,431.71 L 635.98,430.67 L 647.35,429.65 L 653.79,428.85 L 663.11,428.13 L 669.39,427.40 L 677.73,426.53 L 688.18,425.80 L 696.14,424.86 L 715.09,422.94 L 720.74,421.76 L 728.17,420.81 L 736.76,419.68 L 756.19,417.98 L 761.99,417.08 L 770.50,416.19 L 779.51,415.25 L 788.72,414.42 L 795.94,413.79 L 805.43,412.94 L 812.92,412.27 L 822.60,411.61 L 829.52,410.84 L 839.63,410.03 L 846.46,409.11 L 855.20,408.15 L 864.97,407.27 L 873.29,406.21 L 883.64,405.43 L 888.79,404.42 L 906.01,402.77 L 913.79,401.97 L 924.35,401.20 L 930.92,400.40" fill="none" stroke="#c94f2d" stroke-width="2"/>
<line class="axis" x1="70" y1="606" x2="956" y2="606"/>
<line class="axis" x1="70" y1="376" x2="70" y2="606"/>
<text class="label" x="18" y="491.00" transform="rotate(-90 18 491.00)" text-anchor="middle">degrees</text>
<text class="panel-title" x="70" y="632">Pitch disturbance while moving</text>
<line class="grid" x1="70" y1="874.00" x2="956" y2="874.00"/>
<text class="label" x="62" y="878.00" text-anchor="end">-2.4</text>
<line class="grid" x1="70" y1="816.50" x2="956" y2="816.50"/>
<text class="label" x="62" y="820.50" text-anchor="end">-1.6</text>
<line class="grid" x1="70" y1="759.00" x2="956" y2="759.00"/>
<text class="label" x="62" y="763.00" text-anchor="end">-0.9</text>
<line class="grid" x1="70" y1="701.50" x2="956" y2="701.50"/>
<text class="label" x="62" y="705.50" text-anchor="end">-0.2</text>
<line class="grid" x1="70" y1="644.00" x2="956" y2="644.00"/>
<text class="label" x="62" y="648.00" text-anchor="end">0.5</text>
<line class="grid" x1="70.00" y1="644" x2="70.00" y2="874"/>
<line class="grid" x1="217.67" y1="644" x2="217.67" y2="874"/>
<line class="grid" x1="365.33" y1="644" x2="365.33" y2="874"/>
<line class="grid" x1="513.00" y1="644" x2="513.00" y2="874"/>
<line class="grid" x1="660.67" y1="644" x2="660.67" y2="874"/>
<line class="grid" x1="808.33" y1="644" x2="808.33" y2="874"/>
<line class="grid" x1="956.00" y1="644" x2="956.00" y2="874"/>
<line x1="304.62" y1="644" x2="304.62" y2="874" stroke="#20242a" stroke-width="1.2" opacity="0.55"/>
<line x1="338.56" y1="644" x2="338.56" y2="874" stroke="#6b7280" stroke-width="1.2" opacity="0.55"/>
<line x1="420.47" y1="644" x2="420.47" y2="874" stroke="#6b7280" stroke-width="1.2" opacity="0.55"/>
<line x1="442.31" y1="644" x2="442.31" y2="874" stroke="#1769aa" stroke-width="1.2" opacity="0.55"/>
<line x1="485.59" y1="644" x2="485.59" y2="874" stroke="#c94f2d" stroke-width="1.2" opacity="0.55"/>
<path d="M 95.08,710.97 L 112.54,704.24 L 119.96,704.39 L 128.71,701.46 L 136.55,696.61 L 153.49,668.65 L 162.39,670.38 L 170.50,666.26 L 187.46,668.77 L 196.40,667.69 L 204.42,675.76 L 213.38,677.15 L 221.65,678.47 L 231.65,686.40 L 239.01,684.77 L 247.70,689.24 L 255.10,689.41 L 275.12,686.92 L 280.42,683.17 L 297.61,688.86 L 306.59,686.55 L 315.17,690.44 L 324.83,684.75 L 340.68,686.73 L 365.44,782.73 L 373.55,784.60 L 382.41,768.50 L 391.05,688.41 L 400.96,704.13 L 407.36,684.10 L 416.46,726.92 L 424.64,792.74 L 432.86,808.03 L 442.31,851.74 L 451.45,829.83 L 457.94,850.06 L 466.50,837.60 L 476.34,810.21 L 483.56,773.54 L 492.51,733.66 L 501.06,726.74 L 508.40,702.32 L 517.69,703.04 L 525.58,691.49 L 534.63,685.30 L 542.73,688.19 L 550.53,681.67 L 559.80,675.24 L 569.71,680.87 L 578.08,677.16 L 585.50,682.92 L 593.59,682.30 L 601.20,686.34 L 612.92,690.81 L 622.75,679.64 L 627.74,683.68 L 637.47,678.45 L 643.65,678.90 L 651.86,678.50 L 661.04,676.43 L 678.71,679.04 L 685.89,684.37 L 694.88,685.06 L 703.81,681.83 L 711.22,686.73 L 719.57,682.22 L 739.93,685.29 L 745.19,681.92 L 754.44,686.54 L 763.09,689.30 L 772.80,685.62 L 778.50,689.66 L 787.32,685.60 L 796.93,689.50 L 804.07,685.36 L 812.31,684.36 L 820.87,688.40 L 830.47,683.91 L 837.77,688.67 L 847.23,686.86 L 854.57,683.18 L 863.50,687.50 L 871.63,684.89 L 880.09,689.07 L 888.33,684.40 L 897.37,683.18 L 905.37,687.36 L 914.36,684.20 L 922.32,688.67 L 930.48,687.16" fill="none" stroke="#1769aa" stroke-width="2"/>
<path d="M 95.08,684.77 L 112.54,684.77 L 119.96,684.77 L 128.71,684.77 L 136.55,684.77 L 153.49,684.77 L 162.39,684.77 L 170.50,684.77 L 187.46,684.77 L 196.40,684.77 L 204.42,684.77 L 213.38,684.77 L 221.65,684.77 L 231.65,684.77 L 239.01,684.77 L 247.70,684.77 L 255.10,684.77 L 275.12,684.77 L 280.42,684.77 L 297.61,684.77 L 306.59,684.77 L 315.17,684.77 L 324.83,684.77 L 340.68,684.77 L 365.44,684.77 L 373.55,684.77 L 382.41,684.77 L 391.05,684.77 L 400.96,684.77 L 407.36,684.77 L 416.46,684.77 L 424.64,684.77 L 432.86,684.77 L 442.31,684.77 L 451.45,684.77 L 457.94,684.77 L 466.50,684.77 L 476.34,684.77 L 483.56,684.77 L 492.51,684.77 L 501.06,684.77 L 508.40,684.77 L 517.69,684.77 L 525.58,684.77 L 534.63,684.77 L 542.73,684.77 L 550.53,684.77 L 559.80,684.77 L 569.71,684.77 L 578.08,684.77 L 585.50,684.77 L 593.59,684.77 L 601.20,684.77 L 612.92,684.77 L 622.75,684.77 L 627.74,684.77 L 637.47,684.77 L 643.65,684.77 L 651.86,684.77 L 661.04,684.77 L 678.71,684.77 L 685.89,684.77 L 694.88,684.77 L 703.81,684.77 L 711.22,684.77 L 719.57,684.77 L 739.93,684.77 L 745.19,684.77 L 754.44,684.77 L 763.09,684.77 L 772.80,684.77 L 778.50,684.77 L 787.32,684.77 L 796.93,684.77 L 804.07,684.77 L 812.31,684.77 L 820.87,684.77 L 830.47,684.77 L 837.77,684.77 L 847.23,684.77 L 854.57,684.77 L 863.50,684.77 L 871.63,684.77 L 880.09,684.77 L 888.33,684.77 L 897.37,684.77 L 905.37,684.77 L 914.36,684.77 L 922.32,684.77 L 930.48,684.77" fill="none" stroke="#8a94a3" stroke-width="2" stroke-dasharray="6 4"/>
<line class="axis" x1="70" y1="874" x2="956" y2="874"/>
<line class="axis" x1="70" y1="644" x2="70" y2="874"/>
<text class="label" x="18" y="759.00" transform="rotate(-90 18 759.00)" text-anchor="middle">degrees</text>
<text class="panel-title" x="70" y="900">Yaw disturbance while moving</text>
<line class="grid" x1="70" y1="1142.00" x2="956" y2="1142.00"/>
<text class="label" x="62" y="1146.00" text-anchor="end">-6.6</text>
<line class="grid" x1="70" y1="1084.50" x2="956" y2="1084.50"/>
<text class="label" x="62" y="1088.50" text-anchor="end">-4.5</text>
<line class="grid" x1="70" y1="1027.00" x2="956" y2="1027.00"/>
<text class="label" x="62" y="1031.00" text-anchor="end">-2.4</text>
<line class="grid" x1="70" y1="969.50" x2="956" y2="969.50"/>
<text class="label" x="62" y="973.50" text-anchor="end">-0.3</text>
<line class="grid" x1="70" y1="912.00" x2="956" y2="912.00"/>
<text class="label" x="62" y="916.00" text-anchor="end">1.9</text>
<line class="grid" x1="70.00" y1="912" x2="70.00" y2="1142"/>
<text class="label" x="70.00" y="1162" text-anchor="middle">-0.28</text>
<line class="grid" x1="217.67" y1="912" x2="217.67" y2="1142"/>
<text class="label" x="217.67" y="1162" text-anchor="middle">-0.10</text>
<line class="grid" x1="365.33" y1="912" x2="365.33" y2="1142"/>
<text class="label" x="365.33" y="1162" text-anchor="middle">0.07</text>
<line class="grid" x1="513.00" y1="912" x2="513.00" y2="1142"/>
<text class="label" x="513.00" y="1162" text-anchor="middle">0.25</text>
<line class="grid" x1="660.67" y1="912" x2="660.67" y2="1142"/>
<text class="label" x="660.67" y="1162" text-anchor="middle">0.42</text>
<line class="grid" x1="808.33" y1="912" x2="808.33" y2="1142"/>
<text class="label" x="808.33" y="1162" text-anchor="middle">0.60</text>
<line class="grid" x1="956.00" y1="912" x2="956.00" y2="1142"/>
<text class="label" x="956.00" y="1162" text-anchor="middle">0.77</text>
<line x1="304.62" y1="912" x2="304.62" y2="1142" stroke="#20242a" stroke-width="1.2" opacity="0.55"/>
<line x1="338.56" y1="912" x2="338.56" y2="1142" stroke="#6b7280" stroke-width="1.2" opacity="0.55"/>
<line x1="420.47" y1="912" x2="420.47" y2="1142" stroke="#6b7280" stroke-width="1.2" opacity="0.55"/>
<line x1="442.31" y1="912" x2="442.31" y2="1142" stroke="#1769aa" stroke-width="1.2" opacity="0.55"/>
<line x1="485.59" y1="912" x2="485.59" y2="1142" stroke="#c94f2d" stroke-width="1.2" opacity="0.55"/>
<path d="M 103.96,962.44 L 111.89,972.25 L 121.06,965.47 L 137.31,974.62 L 145.78,965.73 L 154.00,1115.35 L 163.79,1119.74 L 170.94,1109.88 L 179.36,1106.39 L 190.66,1091.37 L 195.84,1081.03 L 205.69,1052.42 L 212.88,1025.07 L 230.14,970.48 L 238.50,960.83 L 255.58,947.06 L 263.81,951.63 L 271.99,951.53 L 280.96,964.26 L 289.13,962.64 L 297.07,971.42 L 314.12,967.78 L 323.31,969.78 L 331.64,961.09 L 340.03,958.58 L 348.30,976.74 L 356.81,984.18 L 365.99,989.44 L 374.76,989.00 L 381.94,979.30 L 391.76,970.21 L 399.64,958.18 L 409.13,966.56 L 424.09,959.92 L 444.66,944.63 L 450.34,940.90 L 459.16,944.76 L 467.93,939.43 L 485.59,934.26 L 493.51,937.29 L 499.79,937.39 L 509.33,935.65 L 526.92,938.46 L 535.24,942.59 L 544.33,941.46 L 551.07,944.69 L 560.65,946.70 L 568.02,943.31 L 576.67,945.88 L 593.16,944.85 L 601.60,941.61 L 610.37,938.42 L 618.68,946.70 L 628.62,944.19 L 635.98,942.40 L 647.35,942.09 L 653.79,939.95 L 663.11,942.29 L 669.39,940.18 L 677.73,943.20 L 688.18,945.41 L 696.14,942.71 L 715.09,943.32 L 720.74,945.00 L 728.17,942.82 L 736.76,939.58 L 756.19,939.37 L 761.99,942.40 L 770.50,939.85 L 779.51,938.75 L 788.72,941.13 L 795.94,939.31 L 805.43,940.43 L 812.92,942.20 L 822.60,940.29 L 829.52,943.09 L 839.63,944.01 L 846.46,941.36 L 855.20,943.59 L 864.97,941.04 L 873.29,943.23 L 883.64,940.97 L 888.79,942.11 L 906.01,939.67 L 913.79,941.35 L 924.35,939.29 L 930.92,936.98" fill="none" stroke="#c94f2d" stroke-width="2"/>
<path d="M 103.96,962.55 L 111.89,962.55 L 121.06,962.55 L 137.31,962.55 L 145.78,962.55 L 154.00,962.55 L 163.79,962.55 L 170.94,962.55 L 179.36,962.55 L 190.66,962.55 L 195.84,962.55 L 205.69,962.55 L 212.88,962.55 L 230.14,962.55 L 238.50,962.55 L 255.58,962.55 L 263.81,962.55 L 271.99,962.55 L 280.96,962.55 L 289.13,962.55 L 297.07,962.55 L 314.12,962.55 L 323.31,962.55 L 331.64,962.55 L 340.03,962.55 L 348.30,962.55 L 356.81,962.55 L 365.99,962.55 L 374.76,962.55 L 381.94,962.55 L 391.76,962.55 L 399.64,962.55 L 409.13,962.55 L 424.09,962.55 L 444.66,962.55 L 450.34,962.55 L 459.16,962.55 L 467.93,962.55 L 485.59,962.55 L 493.51,962.55 L 499.79,962.55 L 509.33,962.55 L 526.92,962.55 L 535.24,962.55 L 544.33,962.55 L 551.07,962.55 L 560.65,962.55 L 568.02,962.55 L 576.67,962.55 L 593.16,962.55 L 601.60,962.55 L 610.37,962.55 L 618.68,962.55 L 628.62,962.55 L 635.98,962.55 L 647.35,962.55 L 653.79,962.55 L 663.11,962.55 L 669.39,962.55 L 677.73,962.55 L 688.18,962.55 L 696.14,962.55 L 715.09,962.55 L 720.74,962.55 L 728.17,962.55 L 736.76,962.55 L 756.19,962.55 L 761.99,962.55 L 770.50,962.55 L 779.51,962.55 L 788.72,962.55 L 795.94,962.55 L 805.43,962.55 L 812.92,962.55 L 822.60,962.55 L 829.52,962.55 L 839.63,962.55 L 846.46,962.55 L 855.20,962.55 L 864.97,962.55 L 873.29,962.55 L 883.64,962.55 L 888.79,962.55 L 906.01,962.55 L 913.79,962.55 L 924.35,962.55 L 930.92,962.55" fill="none" stroke="#8a94a3" stroke-width="2" stroke-dasharray="6 4"/>
<line class="axis" x1="70" y1="1142" x2="956" y2="1142"/>
<line class="axis" x1="70" y1="912" x2="70" y2="1142"/>
<text class="label" x="18" y="1027.00" transform="rotate(-90 18 1027.00)" text-anchor="middle">degrees</text>
<text class="label" x="513.0" y="1178" text-anchor="middle">time relative to event (s)</text>
</svg>