<svg xmlns="http://www.w3.org/2000/svg" viewBox="0 0 980 1186" role="img">
<style>
.axis{stroke:#718096;stroke-width:1}.grid{stroke:#e5eaf0;stroke-width:1}.label{font:12px sans-serif;fill:#5a6675}.title{font:700 18px sans-serif;fill:#20242a}.subtitle{font:12px sans-serif;fill:#5a6675}.panel-title{font:700 13px sans-serif;fill:#20242a}
</style>
<rect width="980" height="1186" fill="#ffffff"/>
<text class="title" x="70" y="28">Motion disturbance example 18: event 340</text>
<text class="subtitle" x="70" y="50">Start pitch 7.9 deg, yaw 15.3 deg; target motion 7.0 deg; disturbance vector 3.02 deg.</text>
<line x1="70" y1="76" x2="94" y2="76" stroke="#48525f" stroke-width="2" stroke-dasharray="6 4"/>
<text class="label" x="100" y="80">target</text>
<line x1="200" y1="76" x2="224" y2="76" stroke="#1769aa" stroke-width="2"/>
<text class="label" x="230" y="80">pitch actual</text>
<line x1="338" y1="76" x2="362" y2="76" stroke="#c94f2d" stroke-width="2"/>
<text class="label" x="368" y="80">yaw actual</text>
<line x1="468" y1="76" x2="492" y2="76" stroke="#1769aa" stroke-width="2"/>
<text class="label" x="498" y="80">pitch disturbance</text>
<line x1="641" y1="76" x2="665" y2="76" stroke="#8a94a3" stroke-width="2" stroke-dasharray="6 4"/>
<text class="label" x="671" y="80">zero baseline</text>
<line x1="786" y1="76" x2="810" y2="76" stroke="#c94f2d" stroke-width="2"/>
<text class="label" x="816" y="80">yaw disturbance</text>
<text class="panel-title" x="70" y="96">Pitch position</text>
<line class="grid" x1="70" y1="338.00" x2="956" y2="338.00"/>
<text class="label" x="62" y="342.00" text-anchor="end">0.2</text>
<line class="grid" x1="70" y1="280.50" x2="956" y2="280.50"/>
<text class="label" x="62" y="284.50" text-anchor="end">2.5</text>
<line class="grid" x1="70" y1="223.00" x2="956" y2="223.00"/>
<text class="label" x="62" y="227.00" text-anchor="end">4.7</text>
<line class="grid" x1="70" y1="165.50" x2="956" y2="165.50"/>
<text class="label" x="62" y="169.50" text-anchor="end">7.0</text>
<line class="grid" x1="70" y1="108.00" x2="956" y2="108.00"/>
<text class="label" x="62" y="112.00" text-anchor="end">9.3</text>
<line class="grid" x1="70.00" y1="108" x2="70.00" y2="338"/>
<line class="grid" x1="217.67" y1="108" x2="217.67" y2="338"/>
<line class="grid" x1="365.33" y1="108" x2="365.33" y2="338"/>
<line class="grid" x1="513.00" y1="108" x2="513.00" y2="338"/>
<line class="grid" x1="660.67" y1="108" x2="660.67" y2="338"/>
<line class="grid" x1="808.33" y1="108" x2="808.33" y2="338"/>
<line class="grid" x1="956.00" y1="108" x2="956.00" y2="338"/>
<line x1="303.38" y1="108" x2="303.38" y2="338" stroke="#20242a" stroke-width="1.2" opacity="0.55"/>
<text class="label" x="307.38" y="120.00" transform="rotate(-35 307.38 120.00)">fire</text>
<line x1="337.53" y1="108" x2="337.53" y2="338" stroke="#6b7280" stroke-width="1.2" opacity="0.55"/>
<text class="label" x="341.53" y="120.00" transform="rotate(-35 341.53 120.00)">muzzle</text>
<line x1="431.04" y1="108" x2="431.04" y2="338" stroke="#6b7280" stroke-width="1.2" opacity="0.55"/>
<text class="label" x="435.04" y="120.00" transform="rotate(-35 435.04 120.00)">impact</text>
<line x1="721.59" y1="108" x2="721.59" y2="338" stroke="#1769aa" stroke-width="1.2" opacity="0.55"/>
<text class="label" x="725.59" y="120.00" transform="rotate(-35 725.59 120.00)">pitch peak</text>
<line x1="365.42" y1="108" x2="365.42" y2="338" stroke="#c94f2d" stroke-width="1.2" opacity="0.55"/>
<text class="label" x="369.42" y="120.00" transform="rotate(-35 369.42 120.00)">yaw peak</text>
<path d="M 95.08,130.26 L 103.31,130.26 L 111.41,131.55 L 120.61,131.55 L 128.87,132.99 L 136.97,132.99 L 148.12,134.39 L 154.40,135.74 L 162.85,135.74 L 171.61,137.37 L 180.10,137.37 L 190.53,139.13 L 199.14,140.82 L 207.86,140.82 L 214.91,142.59 L 220.93,144.05 L 230.40,144.05 L 238.15,145.75 L 247.62,145.75 L 255.97,146.69 L 264.18,148.29 L 271.84,148.29 L 280.37,149.97 L 288.82,149.97 L 298.20,151.35 L 305.40,153.02 L 314.24,153.02 L 322.92,154.68 L 330.83,154.68 L 339.38,156.20 L 348.19,156.20 L 375.64,161.01 L 382.02,161.01 L 391.46,180.08 L 398.48,180.08 L 407.10,190.72 L 415.08,190.72 L 423.62,184.20 L 432.27,172.82 L 441.43,172.82 L 449.26,163.42 L 466.21,158.75 L 482.95,158.72 L 494.19,162.58 L 508.36,169.61 L 516.60,173.75 L 524.79,173.75 L 533.77,174.97 L 541.91,174.97 L 550.80,175.36 L 567.17,176.09 L 576.90,176.05 L 584.54,176.05 L 593.65,185.28 L 603.79,182.70 L 609.46,182.70 L 619.06,180.18 L 627.03,180.92 L 634.89,180.92 L 644.10,201.45 L 651.49,201.45 L 660.13,201.45 L 669.01,233.10 L 679.81,218.14 L 685.04,218.14 L 693.83,216.29 L 702.54,188.67 L 711.03,188.67 L 721.59,170.53 L 727.82,189.98 L 735.90,189.98 L 745.23,182.15 L 761.59,174.64 L 770.41,204.12 L 779.97,204.12 L 787.36,236.57 L 795.18,236.57 L 803.19,257.57 L 814.60,272.50 L 820.94,272.50 L 830.40,290.24 L 837.78,290.24 L 845.98,303.70 L 854.03,310.92 L 864.51,310.92 L 870.63,315.74 L 887.85,313.04 L 896.49,310.72 L 904.32,310.72 L 914.74,313.32 L 922.78,313.10 L 930.28,313.10" fill="none" stroke="#48525f" stroke-width="2" stroke-dasharray="6 4"/>
<path d="M 95.08,131.44 L 103.31,131.39 L 111.41,131.26 L 120.61,131.17 L 128.87,131.17 L 136.97,131.17 L 148.12,131.26 L 154.40,131.30 L 162.85,131.48 L 171.61,131.80 L 180.10,132.16 L 190.53,132.48 L 199.14,132.75 L 207.86,133.20 L 214.91,133.84 L 220.93,134.79 L 230.40,135.92 L 238.15,137.28 L 247.62,138.37 L 255.97,139.41 L 264.18,140.45 L 271.84,141.54 L 280.37,142.67 L 288.82,143.71 L 298.20,144.66 L 305.40,145.57 L 314.24,146.47 L 322.92,147.33 L 330.83,148.37 L 339.38,149.46 L 348.19,178.40 L 375.64,185.10 L 382.02,178.72 L 391.46,181.03 L 398.48,185.10 L 407.10,195.97 L 415.08,207.56 L 423.62,211.10 L 432.27,209.65 L 441.43,206.30 L 449.26,201.36 L 466.21,195.25 L 482.95,180.30 L 494.19,173.69 L 508.36,167.89 L 516.60,167.80 L 524.79,168.66 L 533.77,169.25 L 541.91,169.89 L 550.80,170.43 L 567.17,171.92 L 576.90,172.69 L 584.54,173.37 L 593.65,173.92 L 603.79,199.59 L 609.46,206.57 L 619.06,206.11 L 627.03,203.58 L 634.89,197.96 L 644.10,198.46 L 651.49,202.22 L 660.13,213.04 L 669.01,226.09 L 679.81,229.39 L 685.04,232.43 L 693.83,232.11 L 702.54,230.61 L 711.03,229.89 L 721.59,228.89 L 727.82,222.33 L 735.90,212.14 L 745.23,203.94 L 761.59,195.70 L 770.41,192.89 L 779.97,191.40 L 787.36,189.95 L 795.18,189.40 L 803.19,190.67 L 814.60,194.97 L 820.94,200.77 L 830.40,209.74 L 837.78,219.56 L 845.98,230.80 L 854.03,241.39 L 864.51,250.63 L 870.63,258.96 L 887.85,274.41 L 896.49,280.97 L 904.32,286.81 L 914.74,292.07 L 922.78,296.41 L 930.28,299.13" fill="none" stroke="#1769aa" stroke-width="2"/>
<line class="axis" x1="70" y1="338" x2="956" y2="338"/>
<line class="axis" x1="70" y1="108" x2="70" y2="338"/>
<text class="label" x="18" y="223.00" transform="rotate(-90 18 223.00)" text-anchor="middle">degrees</text>
<text class="panel-title" x="70" y="364">Yaw position</text>
<line class="grid" x1="70" y1="606.00" x2="956" y2="606.00"/>
<text class="label" x="62" y="610.00" text-anchor="end">3.5</text>
<line class="grid" x1="70" y1="548.50" x2="956" y2="548.50"/>
<text class="label" x="62" y="552.50" text-anchor="end">8.7</text>
<line class="grid" x1="70" y1="491.00" x2="956" y2="491.00"/>
<text class="label" x="62" y="495.00" text-anchor="end">13.8</text>
<line class="grid" x1="70" y1="433.50" x2="956" y2="433.50"/>
<text class="label" x="62" y="437.50" text-anchor="end">19.0</text>
<line class="grid" x1="70" y1="376.00" x2="956" y2="376.00"/>
<text class="label" x="62" y="380.00" text-anchor="end">24.2</text>
<line class="grid" x1="70.00" y1="376" x2="70.00" y2="606"/>
<line class="grid" x1="217.67" y1="376" x2="217.67" y2="606"/>
<line class="grid" x1="365.33" y1="376" x2="365.33" y2="606"/>
<line class="grid" x1="513.00" y1="376" x2="513.00" y2="606"/>
<line class="grid" x1="660.67" y1="376" x2="660.67" y2="606"/>
<line class="grid" x1="808.33" y1="376" x2="808.33" y2="606"/>
<line class="grid" x1="956.00" y1="376" x2="956.00" y2="606"/>
<line x1="303.38" y1="376" x2="303.38" y2="606" stroke="#20242a" stroke-width="1.2" opacity="0.55"/>
<line x1="337.53" y1="376" x2="337.53" y2="606" stroke="#6b7280" stroke-width="1.2" opacity="0.55"/>
<line x1="431.04" y1="376" x2="431.04" y2="606" stroke="#6b7280" stroke-width="1.2" opacity="0.55"/>
<line x1="721.59" y1="376" x2="721.59" y2="606" stroke="#1769aa" stroke-width="1.2" opacity="0.55"/>
<line x1="365.42" y1="376" x2="365.42" y2="606" stroke="#c94f2d" stroke-width="1.2" opacity="0.55"/>
<path d="M 97.58,521.27 L 105.91,521.27 L 113.92,515.24 L 123.31,515.24 L 129.83,511.99 L 139.46,507.91 L 145.75,507.91 L 157.30,502.54 L 166.95,502.54 L 172.35,496.68 L 188.79,496.00 L 197.34,492.35 L 204.80,492.35 L 213.06,488.76 L 222.41,486.16 L 229.74,486.16 L 238.90,481.09 L 246.53,481.09 L 255.27,476.98 L 272.54,472.64 L 280.94,469.47 L 291.66,470.35 L 297.20,470.35 L 306.50,467.61 L 317.79,467.61 L 322.31,463.96 L 332.47,463.96 L 340.13,461.80 L 352.66,458.71 L 356.42,458.71 L 365.42,455.36 L 373.87,452.48 L 381.34,452.48 L 390.52,446.77 L 400.33,446.77 L 407.71,445.38 L 417.15,448.58 L 424.49,448.58 L 435.00,447.65 L 443.34,447.65 L 449.79,445.28 L 458.24,445.28 L 465.62,443.83 L 474.99,441.55 L 484.21,441.55 L 492.84,438.71 L 500.19,438.71 L 508.96,436.86 L 520.16,435.51 L 526.66,435.51 L 534.31,433.99 L 543.64,433.99 L 550.19,433.83 L 559.02,433.83 L 568.51,433.13 L 576.00,433.22 L 592.93,432.35 L 600.87,432.13 L 617.97,432.01 L 626.19,430.62 L 635.86,430.62 L 643.16,424.56 L 652.09,424.56 L 661.56,421.75 L 677.84,424.47 L 688.55,422.61 L 696.46,422.61 L 703.55,423.96 L 720.33,426.13 L 737.57,424.15 L 753.99,424.26 L 761.03,424.01 L 769.43,420.77 L 778.05,420.77 L 786.68,416.47 L 797.54,416.47 L 803.86,413.25 L 811.96,411.10 L 823.59,411.10 L 828.50,411.10 L 846.59,406.72 L 855.56,405.34 L 862.28,405.34 L 871.91,406.42 L 880.57,406.42 L 888.46,403.66 L 895.94,401.95 L 906.95,401.95 L 913.03,401.95 L 921.46,399.99 L 930.92,398.26" fill="none" stroke="#48525f" stroke-width="2" stroke-dasharray="6 4"/>
<path d="M 97.58,583.74 L 105.91,580.31 L 113.92,576.38 L 123.31,571.86 L 129.83,565.18 L 139.46,556.96 L 145.75,546.42 L 157.30,535.41 L 166.95,524.96 L 172.35,514.99 L 188.79,504.94 L 197.34,502.85 L 204.80,502.01 L 213.06,501.02 L 222.41,500.18 L 229.74,498.62 L 238.90,496.17 L 246.53,493.38 L 255.27,489.99 L 272.54,483.59 L 280.94,480.56 L 291.66,477.59 L 297.20,475.02 L 306.50,473.28 L 317.79,472.17 L 322.31,471.21 L 332.47,470.43 L 340.13,469.25 L 352.66,479.04 L 356.42,483.89 L 365.42,484.19 L 373.87,479.74 L 381.34,471.51 L 390.52,464.17 L 400.33,458.19 L 407.71,454.86 L 417.15,453.16 L 424.49,451.33 L 435.00,450.13 L 443.34,448.66 L 449.79,448.94 L 458.24,448.98 L 465.62,448.34 L 474.99,447.94 L 484.21,447.14 L 492.84,445.77 L 500.19,444.57 L 508.96,443.04 L 520.16,441.52 L 526.66,440.04 L 534.31,438.69 L 543.64,437.57 L 550.19,436.44 L 559.02,435.52 L 568.51,434.84 L 576.00,434.36 L 592.93,434.00 L 600.87,445.15 L 617.97,450.33 L 626.19,452.61 L 635.86,447.00 L 643.16,441.70 L 652.09,437.75 L 661.56,436.58 L 677.84,431.39 L 688.55,428.76 L 696.46,426.77 L 703.55,425.43 L 720.33,423.70 L 737.57,424.45 L 753.99,424.85 L 761.03,425.27 L 769.43,425.41 L 778.05,425.15 L 786.68,424.47 L 797.54,423.70 L 803.86,422.30 L 811.96,420.74 L 823.59,418.53 L 828.50,416.24 L 846.59,412.47 L 855.56,410.54 L 862.28,409.18 L 871.91,407.90 L 880.57,407.15 L 888.46,406.75 L 895.94,406.53 L 906.95,405.93 L 913.03,405.45 L 921.46,405.01 L 930.92,403.96" fill="none" stroke="#c94f2d" stroke-width="2"/>
<line class="axis" x1="70" y1="606" x2="956" y2="606"/>
<line class="axis" x1="70" y1="376" x2="70" y2="606"/>
<text class="label" x="18" y="491.00" transform="rotate(-90 18 491.00)" text-anchor="middle">degrees</text>
<text class="panel-title" x="70" y="632">Pitch disturbance while moving</text>
<line class="grid" x1="70" y1="874.00" x2="956" y2="874.00"/>
<text class="label" x="62" y="878.00" text-anchor="end">-3.3</text>
<line class="grid" x1="70" y1="816.50" x2="956" y2="816.50"/>
<text class="label" x="62" y="820.50" text-anchor="end">-1.6</text>
<line class="grid" x1="70" y1="759.00" x2="956" y2="759.00"/>
<text class="label" x="62" y="763.00" text-anchor="end">0.1</text>
<line class="grid" x1="70" y1="701.50" x2="956" y2="701.50"/>
<text class="label" x="62" y="705.50" text-anchor="end">1.8</text>
<line class="grid" x1="70" y1="644.00" x2="956" y2="644.00"/>
<text class="label" x="62" y="648.00" text-anchor="end">3.6</text>
<line class="grid" x1="70.00" y1="644" x2="70.00" y2="874"/>
<line class="grid" x1="217.67" y1="644" x2="217.67" y2="874"/>
<line class="grid" x1="365.33" y1="644" x2="365.33" y2="874"/>
<line class="grid" x1="513.00" y1="644" x2="513.00" y2="874"/>
<line class="grid" x1="660.67" y1="644" x2="660.67" y2="874"/>
<line class="grid" x1="808.33" y1="644" x2="808.33" y2="874"/>
<line class="grid" x1="956.00" y1="644" x2="956.00" y2="874"/>
<line x1="303.38" y1="644" x2="303.38" y2="874" stroke="#20242a" stroke-width="1.2" opacity="0.55"/>
<line x1="337.53" y1="644" x2="337.53" y2="874" stroke="#6b7280" stroke-width="1.2" opacity="0.55"/>
<line x1="431.04" y1="644" x2="431.04" y2="874" stroke="#6b7280" stroke-width="1.2" opacity="0.55"/>
<line x1="721.59" y1="644" x2="721.59" y2="874" stroke="#1769aa" stroke-width="1.2" opacity="0.55"/>
<line x1="365.42" y1="644" x2="365.42" y2="874" stroke="#c94f2d" stroke-width="1.2" opacity="0.55"/>
<path d="M 95.08,775.37 L 103.31,775.30 L 111.41,773.40 L 120.61,773.28 L 128.87,771.35 L 136.97,771.35 L 148.12,769.61 L 154.40,767.86 L 162.85,768.10 L 171.61,766.35 L 180.10,766.84 L 190.53,764.90 L 199.14,763.01 L 207.86,763.61 L 214.91,762.10 L 220.93,761.42 L 230.40,762.93 L 238.15,762.47 L 247.62,763.92 L 255.97,764.06 L 264.18,763.32 L 271.84,764.77 L 280.37,764.04 L 288.82,765.43 L 298.20,764.86 L 305.40,763.84 L 314.24,765.05 L 322.92,763.98 L 330.83,765.37 L 339.38,764.79 L 348.19,803.45 L 375.64,805.96 L 382.02,797.44 L 391.46,775.05 L 398.48,780.50 L 407.10,780.80 L 415.08,796.29 L 423.62,809.72 L 432.27,822.98 L 441.43,818.51 L 449.26,824.46 L 466.21,822.54 L 482.95,802.61 L 494.19,788.63 L 508.36,771.50 L 516.60,765.84 L 524.79,766.99 L 533.77,766.15 L 541.91,767.00 L 550.80,767.21 L 567.17,768.23 L 576.90,769.30 L 584.54,770.21 L 593.65,758.61 L 603.79,796.35 L 609.46,805.66 L 619.06,808.43 L 627.03,804.05 L 634.89,796.55 L 644.10,769.80 L 651.49,774.82 L 660.13,789.27 L 669.01,764.42 L 679.81,788.82 L 685.04,792.87 L 693.83,794.91 L 702.54,829.82 L 711.03,828.85 L 721.59,851.74 L 727.82,816.99 L 735.90,803.38 L 745.23,802.90 L 761.59,801.92 L 770.41,758.80 L 779.97,756.80 L 787.36,711.52 L 795.18,710.79 L 803.19,684.43 L 814.60,670.24 L 820.94,677.98 L 830.40,666.26 L 837.78,679.38 L 845.98,676.41 L 854.03,680.92 L 864.51,693.26 L 870.63,697.95 L 887.85,722.19 L 896.49,734.06 L 904.32,741.86 L 914.74,745.41 L 922.78,751.50 L 930.28,755.13" fill="none" stroke="#1769aa" stroke-width="2"/>
<path d="M 95.08,763.46 L 103.31,763.46 L 111.41,763.46 L 120.61,763.46 L 128.87,763.46 L 136.97,763.46 L 148.12,763.46 L 154.40,763.46 L 162.85,763.46 L 171.61,763.46 L 180.10,763.46 L 190.53,763.46 L 199.14,763.46 L 207.86,763.46 L 214.91,763.46 L 220.93,763.46 L 230.40,763.46 L 238.15,763.46 L 247.62,763.46 L 255.97,763.46 L 264.18,763.46 L 271.84,763.46 L 280.37,763.46 L 288.82,763.46 L 298.20,763.46 L 305.40,763.46 L 314.24,763.46 L 322.92,763.46 L 330.83,763.46 L 339.38,763.46 L 348.19,763.46 L 375.64,763.46 L 382.02,763.46 L 391.46,763.46 L 398.48,763.46 L 407.10,763.46 L 415.08,763.46 L 423.62,763.46 L 432.27,763.46 L 441.43,763.46 L 449.26,763.46 L 466.21,763.46 L 482.95,763.46 L 494.19,763.46 L 508.36,763.46 L 516.60,763.46 L 524.79,763.46 L 533.77,763.46 L 541.91,763.46 L 550.80,763.46 L 567.17,763.46 L 576.90,763.46 L 584.54,763.46 L 593.65,763.46 L 603.79,763.46 L 609.46,763.46 L 619.06,763.46 L 627.03,763.46 L 634.89,763.46 L 644.10,763.46 L 651.49,763.46 L 660.13,763.46 L 669.01,763.46 L 679.81,763.46 L 685.04,763.46 L 693.83,763.46 L 702.54,763.46 L 711.03,763.46 L 721.59,763.46 L 727.82,763.46 L 735.90,763.46 L 745.23,763.46 L 761.59,763.46 L 770.41,763.46 L 779.97,763.46 L 787.36,763.46 L 795.18,763.46 L 803.19,763.46 L 814.60,763.46 L 820.94,763.46 L 830.40,763.46 L 837.78,763.46 L 845.98,763.46 L 854.03,763.46 L 864.51,763.46 L 870.63,763.46 L 887.85,763.46 L 896.49,763.46 L 904.32,763.46 L 914.74,763.46 L 922.78,763.46 L 930.28,763.46" fill="none" stroke="#8a94a3" stroke-width="2" stroke-dasharray="6 4"/>
<line class="axis" x1="70" y1="874" x2="956" y2="874"/>
<line class="axis" x1="70" y1="644" x2="70" y2="874"/>
<text class="label" x="18" y="759.00" transform="rotate(-90 18 759.00)" text-anchor="middle">degrees</text>
<text class="panel-title" x="70" y="900">Yaw disturbance while moving</text>
<line class="grid" x1="70" y1="1142.00" x2="956" y2="1142.00"/>
<text class="label" x="62" y="1146.00" text-anchor="end">-5.2</text>
<line class="grid" x1="70" y1="1084.50" x2="956" y2="1084.50"/>
<text class="label" x="62" y="1088.50" text-anchor="end">-3.4</text>
<line class="grid" x1="70" y1="1027.00" x2="956" y2="1027.00"/>
<text class="label" x="62" y="1031.00" text-anchor="end">-1.6</text>
<line class="grid" x1="70" y1="969.50" x2="956" y2="969.50"/>
<text class="label" x="62" y="973.50" text-anchor="end">0.2</text>
<line class="grid" x1="70" y1="912.00" x2="956" y2="912.00"/>
<text class="label" x="62" y="916.00" text-anchor="end">2.0</text>
<line class="grid" x1="70.00" y1="912" x2="70.00" y2="1142"/>
<text class="label" x="70.00" y="1162" text-anchor="middle">-0.28</text>
<line class="grid" x1="217.67" y1="912" x2="217.67" y2="1142"/>
<text class="label" x="217.67" y="1162" text-anchor="middle">-0.10</text>
<line class="grid" x1="365.33" y1="912" x2="365.33" y2="1142"/>
<text class="label" x="365.33" y="1162" text-anchor="middle">0.07</text>
<line class="grid" x1="513.00" y1="912" x2="513.00" y2="1142"/>
<text class="label" x="513.00" y="1162" text-anchor="middle">0.25</text>
<line class="grid" x1="660.67" y1="912" x2="660.67" y2="1142"/>
<text class="label" x="660.67" y="1162" text-anchor="middle">0.42</text>
<line class="grid" x1="808.33" y1="912" x2="808.33" y2="1142"/>
<text class="label" x="808.33" y="1162" text-anchor="middle">0.60</text>
<line class="grid" x1="956.00" y1="912" x2="956.00" y2="1142"/>
<text class="label" x="956.00" y="1162" text-anchor="middle">0.77</text>
<line x1="303.38" y1="912" x2="303.38" y2="1142" stroke="#20242a" stroke-width="1.2" opacity="0.55"/>
<line x1="337.53" y1="912" x2="337.53" y2="1142" stroke="#6b7280" stroke-width="1.2" opacity="0.55"/>
<line x1="431.04" y1="912" x2="431.04" y2="1142" stroke="#6b7280" stroke-width="1.2" opacity="0.55"/>
<line x1="721.59" y1="912" x2="721.59" y2="1142" stroke="#1769aa" stroke-width="1.2" opacity="0.55"/>
<line x1="365.42" y1="912" x2="365.42" y2="1142" stroke="#c94f2d" stroke-width="1.2" opacity="0.55"/>
<path d="M 97.58,1119.74 L 105.91,1109.94 L 113.92,1115.94 L 123.31,1103.01 L 129.83,1093.21 L 139.46,1081.38 L 145.75,1051.24 L 157.30,1035.16 L 166.95,1005.30 L 172.35,993.54 L 188.79,966.78 L 197.34,971.22 L 204.80,968.83 L 213.06,976.24 L 222.41,981.29 L 229.74,976.84 L 238.90,984.30 L 246.53,976.33 L 255.27,978.40 L 272.54,972.50 L 280.94,972.90 L 291.66,961.90 L 297.20,954.55 L 306.50,957.42 L 317.79,954.23 L 322.31,961.91 L 332.47,959.69 L 340.13,962.50 L 352.66,999.31 L 356.42,1013.15 L 365.42,1023.58 L 373.87,1019.11 L 381.34,995.57 L 390.52,990.94 L 400.33,973.85 L 407.71,968.31 L 417.15,954.30 L 424.49,949.06 L 435.00,948.31 L 443.34,944.09 L 449.79,951.67 L 458.24,951.78 L 465.62,954.10 L 474.99,959.48 L 484.21,957.20 L 492.84,961.38 L 500.19,957.96 L 508.96,958.86 L 520.16,958.37 L 526.66,954.15 L 534.31,954.64 L 543.64,951.44 L 550.19,948.66 L 559.02,946.04 L 568.51,946.10 L 576.00,944.48 L 592.93,945.93 L 600.87,978.43 L 617.97,993.58 L 626.19,1004.05 L 635.86,988.04 L 643.16,990.18 L 652.09,978.90 L 661.56,983.58 L 677.84,960.99 L 688.55,958.77 L 696.46,953.07 L 703.55,945.41 L 720.33,934.26 L 737.57,942.06 L 753.99,942.91 L 761.03,944.81 L 769.43,954.46 L 778.05,953.72 L 786.68,964.09 L 797.54,961.87 L 803.86,967.07 L 811.96,968.76 L 823.59,962.44 L 828.50,955.88 L 846.59,957.65 L 855.56,956.05 L 862.28,952.18 L 871.91,945.46 L 880.57,943.29 L 888.46,950.04 L 895.94,954.28 L 906.95,952.57 L 913.03,951.20 L 921.46,955.56 L 930.92,957.49" fill="none" stroke="#c94f2d" stroke-width="2"/>
<path d="M 97.58,976.33 L 105.91,976.33 L 113.92,976.33 L 123.31,976.33 L 129.83,976.33 L 139.46,976.33 L 145.75,976.33 L 157.30,976.33 L 166.95,976.33 L 172.35,976.33 L 188.79,976.33 L 197.34,976.33 L 204.80,976.33 L 213.06,976.33 L 222.41,976.33 L 229.74,976.33 L 238.90,976.33 L 246.53,976.33 L 255.27,976.33 L 272.54,976.33 L 280.94,976.33 L 291.66,976.33 L 297.20,976.33 L 306.50,976.33 L 317.79,976.33 L 322.31,976.33 L 332.47,976.33 L 340.13,976.33 L 352.66,976.33 L 356.42,976.33 L 365.42,976.33 L 373.87,976.33 L 381.34,976.33 L 390.52,976.33 L 400.33,976.33 L 407.71,976.33 L 417.15,976.33 L 424.49,976.33 L 435.00,976.33 L 443.34,976.33 L 449.79,976.33 L 458.24,976.33 L 465.62,976.33 L 474.99,976.33 L 484.21,976.33 L 492.84,976.33 L 500.19,976.33 L 508.96,976.33 L 520.16,976.33 L 526.66,976.33 L 534.31,976.33 L 543.64,976.33 L 550.19,976.33 L 559.02,976.33 L 568.51,976.33 L 576.00,976.33 L 592.93,976.33 L 600.87,976.33 L 617.97,976.33 L 626.19,976.33 L 635.86,976.33 L 643.16,976.33 L 652.09,976.33 L 661.56,976.33 L 677.84,976.33 L 688.55,976.33 L 696.46,976.33 L 703.55,976.33 L 720.33,976.33 L 737.57,976.33 L 753.99,976.33 L 761.03,976.33 L 769.43,976.33 L 778.05,976.33 L 786.68,976.33 L 797.54,976.33 L 803.86,976.33 L 811.96,976.33 L 823.59,976.33 L 828.50,976.33 L 846.59,976.33 L 855.56,976.33 L 862.28,976.33 L 871.91,976.33 L 880.57,976.33 L 888.46,976.33 L 895.94,976.33 L 906.95,976.33 L 913.03,976.33 L 921.46,976.33 L 930.92,976.33" fill="none" stroke="#8a94a3" stroke-width="2" stroke-dasharray="6 4"/>
<line class="axis" x1="70" y1="1142" x2="956" y2="1142"/>
<line class="axis" x1="70" y1="912" x2="70" y2="1142"/>
<text class="label" x="18" y="1027.00" transform="rotate(-90 18 1027.00)" text-anchor="middle">degrees</text>
<text class="label" x="513.0" y="1178" text-anchor="middle">time relative to event (s)</text>
</svg>