<svg xmlns="http://www.w3.org/2000/svg" viewBox="0 0 980 1186" role="img">
<style>
.axis{stroke:#718096;stroke-width:1}.grid{stroke:#e5eaf0;stroke-width:1}.label{font:12px sans-serif;fill:#5a6675}.title{font:700 18px sans-serif;fill:#20242a}.subtitle{font:12px sans-serif;fill:#5a6675}.panel-title{font:700 13px sans-serif;fill:#20242a}
</style>
<rect width="980" height="1186" fill="#ffffff"/>
<text class="title" x="70" y="28">Motion disturbance example 19: event 298</text>
<text class="subtitle" x="70" y="50">Start pitch 4.7 deg, yaw 18.2 deg; target motion 5.9 deg; disturbance vector 2.82 deg.</text>
<line x1="70" y1="76" x2="94" y2="76" stroke="#48525f" stroke-width="2" stroke-dasharray="6 4"/>
<text class="label" x="100" y="80">target</text>
<line x1="200" y1="76" x2="224" y2="76" stroke="#1769aa" stroke-width="2"/>
<text class="label" x="230" y="80">pitch actual</text>
<line x1="338" y1="76" x2="362" y2="76" stroke="#c94f2d" stroke-width="2"/>
<text class="label" x="368" y="80">yaw actual</text>
<line x1="468" y1="76" x2="492" y2="76" stroke="#1769aa" stroke-width="2"/>
<text class="label" x="498" y="80">pitch disturbance</text>
<line x1="641" y1="76" x2="665" y2="76" stroke="#8a94a3" stroke-width="2" stroke-dasharray="6 4"/>
<text class="label" x="671" y="80">zero baseline</text>
<line x1="786" y1="76" x2="810" y2="76" stroke="#c94f2d" stroke-width="2"/>
<text class="label" x="816" y="80">yaw disturbance</text>
<text class="panel-title" x="70" y="96">Pitch position</text>
<line class="grid" x1="70" y1="338.00" x2="956" y2="338.00"/>
<text class="label" x="62" y="342.00" text-anchor="end">1.0</text>
<line class="grid" x1="70" y1="280.50" x2="956" y2="280.50"/>
<text class="label" x="62" y="284.50" text-anchor="end">2.3</text>
<line class="grid" x1="70" y1="223.00" x2="956" y2="223.00"/>
<text class="label" x="62" y="227.00" text-anchor="end">3.7</text>
<line class="grid" x1="70" y1="165.50" x2="956" y2="165.50"/>
<text class="label" x="62" y="169.50" text-anchor="end">5.0</text>
<line class="grid" x1="70" y1="108.00" x2="956" y2="108.00"/>
<text class="label" x="62" y="112.00" text-anchor="end">6.4</text>
<line class="grid" x1="70.00" y1="108" x2="70.00" y2="338"/>
<line class="grid" x1="217.67" y1="108" x2="217.67" y2="338"/>
<line class="grid" x1="365.33" y1="108" x2="365.33" y2="338"/>
<line class="grid" x1="513.00" y1="108" x2="513.00" y2="338"/>
<line class="grid" x1="660.67" y1="108" x2="660.67" y2="338"/>
<line class="grid" x1="808.33" y1="108" x2="808.33" y2="338"/>
<line class="grid" x1="956.00" y1="108" x2="956.00" y2="338"/>
<line x1="301.42" y1="108" x2="301.42" y2="338" stroke="#20242a" stroke-width="1.2" opacity="0.55"/>
<text class="label" x="305.42" y="120.00" transform="rotate(-35 305.42 120.00)">fire</text>
<line x1="335.70" y1="108" x2="335.70" y2="338" stroke="#6b7280" stroke-width="1.2" opacity="0.55"/>
<text class="label" x="339.70" y="120.00" transform="rotate(-35 339.70 120.00)">muzzle</text>
<line x1="434.48" y1="108" x2="434.48" y2="338" stroke="#6b7280" stroke-width="1.2" opacity="0.55"/>
<text class="label" x="438.48" y="120.00" transform="rotate(-35 438.48 120.00)">impact</text>
<line x1="467.95" y1="108" x2="467.95" y2="338" stroke="#1769aa" stroke-width="1.2" opacity="0.55"/>
<text class="label" x="471.95" y="120.00" transform="rotate(-35 471.95 120.00)">pitch peak</text>
<line x1="365.08" y1="108" x2="365.08" y2="338" stroke="#c94f2d" stroke-width="1.2" opacity="0.55"/>
<text class="label" x="369.08" y="120.00" transform="rotate(-35 369.08 120.00)">yaw peak</text>
<path d="M 96.93,130.26 L 102.62,130.26 L 111.64,134.80 L 119.52,137.96 L 129.93,137.96 L 137.37,145.85 L 145.64,145.85 L 153.00,167.28 L 161.63,167.28 L 172.69,175.74 L 178.51,175.74 L 195.23,177.98 L 203.74,177.98 L 213.24,178.88 L 221.23,181.97 L 229.01,181.97 L 238.51,182.09 L 246.13,184.18 L 262.77,187.24 L 280.91,189.74 L 290.96,189.74 L 296.98,191.95 L 306.87,194.07 L 313.88,194.07 L 323.02,197.67 L 333.19,200.16 L 340.67,200.16 L 348.10,203.29 L 358.37,203.29 L 364.63,205.49 L 372.23,206.98 L 383.09,206.98 L 392.91,272.66 L 405.35,272.66 L 408.14,272.66 L 414.92,305.61 L 423.68,279.48 L 432.45,245.12 L 441.26,245.12 L 448.67,216.96 L 457.34,216.96 L 467.95,205.25 L 475.39,202.96 L 483.26,202.96 L 493.70,212.04 L 499.85,212.04 L 516.00,225.08 L 524.92,229.60 L 533.22,236.76 L 541.63,239.90 L 550.03,239.90 L 558.43,243.87 L 566.91,243.87 L 575.33,243.87 L 583.52,247.68 L 592.54,249.74 L 617.91,256.17 L 626.16,257.11 L 634.65,257.11 L 643.18,261.27 L 651.03,261.27 L 660.76,266.00 L 668.77,266.00 L 677.10,268.53 L 687.30,272.37 L 702.60,274.02 L 711.33,276.90 L 721.99,276.90 L 726.77,280.66 L 735.51,280.66 L 745.91,282.38 L 752.91,285.71 L 760.99,285.71 L 771.86,289.08 L 786.95,291.19 L 794.41,293.52 L 803.41,293.52 L 812.74,296.86 L 823.15,299.81 L 827.97,299.81 L 844.95,302.63 L 855.23,305.42 L 870.76,307.77 L 879.93,310.16 L 895.98,313.21 L 905.87,313.21 L 925.39,315.74" fill="none" stroke="#48525f" stroke-width="2" stroke-dasharray="6 4"/>
<path d="M 96.93,200.97 L 102.62,191.00 L 111.64,185.09 L 119.52,176.89 L 129.93,163.39 L 137.37,152.42 L 145.64,146.67 L 153.00,143.83 L 161.63,144.52 L 172.69,148.12 L 178.51,152.34 L 195.23,159.71 L 203.74,162.54 L 213.24,165.61 L 221.23,168.91 L 229.01,171.29 L 238.51,172.90 L 246.13,173.97 L 262.77,176.27 L 280.91,178.73 L 290.96,180.26 L 296.98,181.64 L 306.87,182.95 L 313.88,184.33 L 323.02,185.86 L 333.19,187.47 L 340.67,189.31 L 348.10,231.65 L 358.37,241.85 L 364.63,240.47 L 372.23,235.41 L 383.09,224.36 L 392.91,229.66 L 405.35,239.55 L 408.14,264.17 L 414.92,282.73 L 423.68,288.64 L 432.45,291.48 L 441.26,291.09 L 448.67,289.56 L 457.34,290.10 L 467.95,286.87 L 475.39,272.45 L 483.26,255.73 L 493.70,244.15 L 499.85,236.10 L 516.00,226.89 L 524.92,226.59 L 533.22,226.66 L 541.63,226.82 L 550.03,227.13 L 558.43,228.66 L 566.91,230.81 L 575.33,232.88 L 583.52,234.18 L 592.54,235.41 L 617.91,240.93 L 626.16,242.77 L 634.65,244.77 L 643.18,246.91 L 651.03,248.75 L 660.76,250.52 L 668.77,252.36 L 677.10,254.28 L 687.30,256.12 L 702.60,260.26 L 711.33,262.48 L 721.99,264.55 L 726.77,266.63 L 735.51,268.54 L 745.91,270.23 L 752.91,271.84 L 760.99,273.53 L 771.86,275.29 L 786.95,278.74 L 794.41,280.43 L 803.41,282.20 L 812.74,283.88 L 823.15,285.49 L 827.97,287.18 L 844.95,290.48 L 855.23,292.24 L 870.76,295.69 L 879.93,297.38 L 895.98,300.83 L 905.87,302.44 L 925.39,305.67" fill="none" stroke="#1769aa" stroke-width="2"/>
<line class="axis" x1="70" y1="338" x2="956" y2="338"/>
<line class="axis" x1="70" y1="108" x2="70" y2="338"/>
<text class="label" x="18" y="223.00" transform="rotate(-90 18 223.00)" text-anchor="middle">degrees</text>
<text class="panel-title" x="70" y="364">Yaw position</text>
<line class="grid" x1="70" y1="606.00" x2="956" y2="606.00"/>
<text class="label" x="62" y="610.00" text-anchor="end">14.9</text>
<line class="grid" x1="70" y1="548.50" x2="956" y2="548.50"/>
<text class="label" x="62" y="552.50" text-anchor="end">17.4</text>
<line class="grid" x1="70" y1="491.00" x2="956" y2="491.00"/>
<text class="label" x="62" y="495.00" text-anchor="end">20.0</text>
<line class="grid" x1="70" y1="433.50" x2="956" y2="433.50"/>
<text class="label" x="62" y="437.50" text-anchor="end">22.5</text>
<line class="grid" x1="70" y1="376.00" x2="956" y2="376.00"/>
<text class="label" x="62" y="380.00" text-anchor="end">25.0</text>
<line class="grid" x1="70.00" y1="376" x2="70.00" y2="606"/>
<line class="grid" x1="217.67" y1="376" x2="217.67" y2="606"/>
<line class="grid" x1="365.33" y1="376" x2="365.33" y2="606"/>
<line class="grid" x1="513.00" y1="376" x2="513.00" y2="606"/>
<line class="grid" x1="660.67" y1="376" x2="660.67" y2="606"/>
<line class="grid" x1="808.33" y1="376" x2="808.33" y2="606"/>
<line class="grid" x1="956.00" y1="376" x2="956.00" y2="606"/>
<line x1="301.42" y1="376" x2="301.42" y2="606" stroke="#20242a" stroke-width="1.2" opacity="0.55"/>
<line x1="335.70" y1="376" x2="335.70" y2="606" stroke="#6b7280" stroke-width="1.2" opacity="0.55"/>
<line x1="434.48" y1="376" x2="434.48" y2="606" stroke="#6b7280" stroke-width="1.2" opacity="0.55"/>
<line x1="467.95" y1="376" x2="467.95" y2="606" stroke="#1769aa" stroke-width="1.2" opacity="0.55"/>
<line x1="365.08" y1="376" x2="365.08" y2="606" stroke="#c94f2d" stroke-width="1.2" opacity="0.55"/>
<path d="M 95.08,572.87 L 111.10,569.93 L 120.52,569.55 L 127.89,569.55 L 136.20,564.75 L 147.46,564.75 L 153.57,559.96 L 162.61,559.96 L 170.93,556.07 L 182.72,551.71 L 188.13,551.71 L 195.74,548.04 L 205.57,548.04 L 212.18,542.98 L 223.00,539.28 L 229.46,539.28 L 239.47,535.41 L 246.78,534.12 L 255.91,534.12 L 265.23,530.39 L 272.96,530.39 L 279.60,525.83 L 288.16,525.83 L 297.47,522.86 L 305.19,520.48 L 316.36,520.48 L 321.95,516.79 L 331.22,513.56 L 338.95,513.56 L 349.64,507.92 L 357.23,507.92 L 365.08,503.21 L 372.58,500.18 L 380.96,500.18 L 389.49,500.80 L 415.47,487.16 L 424.54,488.11 L 435.73,495.37 L 449.13,498.01 L 456.79,498.01 L 466.42,495.10 L 474.19,490.04 L 481.98,490.04 L 491.60,483.97 L 501.03,480.62 L 508.39,480.62 L 525.73,474.68 L 533.70,470.80 L 541.12,468.77 L 551.80,468.77 L 560.30,463.56 L 567.81,463.56 L 577.93,460.19 L 584.48,460.19 L 592.08,459.00 L 602.31,459.00 L 610.58,455.45 L 617.44,452.59 L 625.73,450.01 L 635.83,450.01 L 652.36,445.61 L 659.71,441.24 L 676.61,440.77 L 684.81,436.90 L 693.78,436.90 L 702.12,434.39 L 719.20,431.75 L 729.45,429.12 L 736.62,429.12 L 744.26,427.07 L 752.02,425.10 L 760.58,425.10 L 769.03,421.73 L 778.94,421.73 L 796.50,416.79 L 828.63,413.98 L 837.37,414.81 L 848.39,414.81 L 853.81,411.83 L 863.26,411.83 L 870.19,410.29 L 888.01,408.33 L 898.26,405.78 L 904.21,405.78 L 912.80,401.93 L 922.31,401.93 L 930.92,398.26" fill="none" stroke="#48525f" stroke-width="2" stroke-dasharray="6 4"/>
<path d="M 95.08,583.74 L 111.10,578.43 L 120.52,576.57 L 127.89,575.42 L 136.20,574.31 L 147.46,573.23 L 153.57,571.67 L 162.61,569.90 L 170.93,567.84 L 182.72,565.40 L 188.13,562.97 L 195.74,560.05 L 205.57,557.16 L 212.18,554.32 L 223.00,551.39 L 229.46,548.84 L 239.47,545.95 L 246.78,543.52 L 255.91,541.09 L 265.23,538.95 L 272.96,537.14 L 279.60,535.20 L 288.16,533.71 L 297.47,531.65 L 305.19,529.64 L 316.36,528.03 L 321.95,526.42 L 331.22,524.57 L 338.95,522.38 L 349.64,534.46 L 357.23,553.66 L 365.08,553.82 L 372.58,547.44 L 380.96,537.51 L 389.49,525.39 L 415.47,512.16 L 424.54,507.71 L 435.73,503.59 L 449.13,498.48 L 456.79,497.58 L 466.42,496.42 L 474.19,496.22 L 481.98,496.22 L 491.60,495.31 L 501.03,494.69 L 508.39,493.17 L 525.73,488.22 L 533.70,485.21 L 541.12,481.83 L 551.80,478.41 L 560.30,475.20 L 567.81,472.85 L 577.93,469.76 L 584.48,467.41 L 592.08,465.39 L 602.31,463.74 L 610.58,462.55 L 617.44,460.90 L 625.73,459.17 L 635.83,457.73 L 652.36,454.31 L 659.71,451.92 L 676.61,447.30 L 684.81,445.32 L 693.78,443.76 L 702.12,441.78 L 719.20,438.15 L 729.45,436.34 L 736.62,435.02 L 744.26,433.45 L 752.02,432.14 L 760.58,430.86 L 769.03,429.42 L 778.94,428.14 L 796.50,424.80 L 828.63,418.37 L 837.37,416.97 L 848.39,416.15 L 853.81,415.49 L 863.26,414.87 L 870.19,414.17 L 888.01,412.85 L 898.26,412.27 L 904.21,411.53 L 912.80,410.17 L 922.31,408.77 L 930.92,406.79" fill="none" stroke="#c94f2d" stroke-width="2"/>
<line class="axis" x1="70" y1="606" x2="956" y2="606"/>
<line class="axis" x1="70" y1="376" x2="70" y2="606"/>
<text class="label" x="18" y="491.00" transform="rotate(-90 18 491.00)" text-anchor="middle">degrees</text>
<text class="panel-title" x="70" y="632">Pitch disturbance while moving</text>
<line class="grid" x1="70" y1="874.00" x2="956" y2="874.00"/>
<text class="label" x="62" y="878.00" text-anchor="end">-2.5</text>
<line class="grid" x1="70" y1="816.50" x2="956" y2="816.50"/>
<text class="label" x="62" y="820.50" text-anchor="end">-1.6</text>
<line class="grid" x1="70" y1="759.00" x2="956" y2="759.00"/>
<text class="label" x="62" y="763.00" text-anchor="end">-0.7</text>
<line class="grid" x1="70" y1="701.50" x2="956" y2="701.50"/>
<text class="label" x="62" y="705.50" text-anchor="end">0.2</text>
<line class="grid" x1="70" y1="644.00" x2="956" y2="644.00"/>
<text class="label" x="62" y="648.00" text-anchor="end">1.1</text>
<line class="grid" x1="70.00" y1="644" x2="70.00" y2="874"/>
<line class="grid" x1="217.67" y1="644" x2="217.67" y2="874"/>
<line class="grid" x1="365.33" y1="644" x2="365.33" y2="874"/>
<line class="grid" x1="513.00" y1="644" x2="513.00" y2="874"/>
<line class="grid" x1="660.67" y1="644" x2="660.67" y2="874"/>
<line class="grid" x1="808.33" y1="644" x2="808.33" y2="874"/>
<line class="grid" x1="956.00" y1="644" x2="956.00" y2="874"/>
<line x1="301.42" y1="644" x2="301.42" y2="874" stroke="#20242a" stroke-width="1.2" opacity="0.55"/>
<line x1="335.70" y1="644" x2="335.70" y2="874" stroke="#6b7280" stroke-width="1.2" opacity="0.55"/>
<line x1="434.48" y1="644" x2="434.48" y2="874" stroke="#6b7280" stroke-width="1.2" opacity="0.55"/>
<line x1="467.95" y1="644" x2="467.95" y2="874" stroke="#1769aa" stroke-width="1.2" opacity="0.55"/>
<line x1="365.08" y1="644" x2="365.08" y2="874" stroke="#c94f2d" stroke-width="1.2" opacity="0.55"/>
<path d="M 96.93,835.50 L 102.62,820.66 L 111.64,805.11 L 119.52,788.19 L 129.93,768.10 L 137.37,740.03 L 145.64,731.47 L 153.00,695.36 L 161.63,696.39 L 172.69,689.16 L 178.51,695.44 L 195.23,703.06 L 203.74,707.28 L 213.24,710.52 L 221.23,710.83 L 229.01,714.36 L 238.51,716.58 L 246.13,715.06 L 262.77,713.94 L 280.91,713.87 L 290.96,716.15 L 296.98,714.92 L 306.87,713.70 L 313.88,715.75 L 323.02,712.68 L 333.19,711.38 L 340.67,714.12 L 348.10,772.47 L 358.37,787.65 L 364.63,782.32 L 372.23,772.57 L 383.09,756.13 L 392.91,666.26 L 405.35,680.98 L 408.14,717.63 L 414.92,696.22 L 423.68,743.89 L 432.45,799.25 L 441.26,798.68 L 448.67,838.31 L 457.34,839.11 L 467.95,851.74 L 475.39,833.68 L 483.26,808.80 L 493.70,778.05 L 499.85,766.06 L 516.00,732.96 L 524.92,725.77 L 533.22,715.24 L 541.63,710.78 L 550.03,711.24 L 558.43,707.61 L 566.91,710.81 L 575.33,713.89 L 583.52,710.17 L 592.54,708.92 L 617.91,707.58 L 626.16,708.92 L 634.65,711.88 L 643.18,708.89 L 651.03,711.63 L 660.76,707.22 L 668.77,709.96 L 677.10,709.04 L 687.30,706.07 L 702.60,709.77 L 711.33,708.81 L 721.99,711.89 L 726.77,709.37 L 735.51,712.22 L 745.91,712.18 L 752.91,709.62 L 760.99,712.13 L 771.86,709.74 L 786.95,711.73 L 794.41,710.79 L 803.41,713.41 L 812.74,710.94 L 823.15,708.95 L 827.97,711.46 L 844.95,712.18 L 855.23,710.64 L 870.76,712.29 L 879.93,711.24 L 895.98,711.84 L 905.87,714.24 L 925.39,715.26" fill="none" stroke="#1769aa" stroke-width="2"/>
<path d="M 96.93,713.90 L 102.62,713.90 L 111.64,713.90 L 119.52,713.90 L 129.93,713.90 L 137.37,713.90 L 145.64,713.90 L 153.00,713.90 L 161.63,713.90 L 172.69,713.90 L 178.51,713.90 L 195.23,713.90 L 203.74,713.90 L 213.24,713.90 L 221.23,713.90 L 229.01,713.90 L 238.51,713.90 L 246.13,713.90 L 262.77,713.90 L 280.91,713.90 L 290.96,713.90 L 296.98,713.90 L 306.87,713.90 L 313.88,713.90 L 323.02,713.90 L 333.19,713.90 L 340.67,713.90 L 348.10,713.90 L 358.37,713.90 L 364.63,713.90 L 372.23,713.90 L 383.09,713.90 L 392.91,713.90 L 405.35,713.90 L 408.14,713.90 L 414.92,713.90 L 423.68,713.90 L 432.45,713.90 L 441.26,713.90 L 448.67,713.90 L 457.34,713.90 L 467.95,713.90 L 475.39,713.90 L 483.26,713.90 L 493.70,713.90 L 499.85,713.90 L 516.00,713.90 L 524.92,713.90 L 533.22,713.90 L 541.63,713.90 L 550.03,713.90 L 558.43,713.90 L 566.91,713.90 L 575.33,713.90 L 583.52,713.90 L 592.54,713.90 L 617.91,713.90 L 626.16,713.90 L 634.65,713.90 L 643.18,713.90 L 651.03,713.90 L 660.76,713.90 L 668.77,713.90 L 677.10,713.90 L 687.30,713.90 L 702.60,713.90 L 711.33,713.90 L 721.99,713.90 L 726.77,713.90 L 735.51,713.90 L 745.91,713.90 L 752.91,713.90 L 760.99,713.90 L 771.86,713.90 L 786.95,713.90 L 794.41,713.90 L 803.41,713.90 L 812.74,713.90 L 823.15,713.90 L 827.97,713.90 L 844.95,713.90 L 855.23,713.90 L 870.76,713.90 L 879.93,713.90 L 895.98,713.90 L 905.87,713.90 L 925.39,713.90" fill="none" stroke="#8a94a3" stroke-width="2" stroke-dasharray="6 4"/>
<line class="axis" x1="70" y1="874" x2="956" y2="874"/>
<line class="axis" x1="70" y1="644" x2="70" y2="874"/>
<text class="label" x="18" y="759.00" transform="rotate(-90 18 759.00)" text-anchor="middle">degrees</text>
<text class="panel-title" x="70" y="900">Yaw disturbance while moving</text>
<line class="grid" x1="70" y1="1142.00" x2="956" y2="1142.00"/>
<text class="label" x="62" y="1146.00" text-anchor="end">-2.1</text>
<line class="grid" x1="70" y1="1084.50" x2="956" y2="1084.50"/>
<text class="label" x="62" y="1088.50" text-anchor="end">-1.4</text>
<line class="grid" x1="70" y1="1027.00" x2="956" y2="1027.00"/>
<text class="label" x="62" y="1031.00" text-anchor="end">-0.7</text>
<line class="grid" x1="70" y1="969.50" x2="956" y2="969.50"/>
<text class="label" x="62" y="973.50" text-anchor="end">0.0</text>
<line class="grid" x1="70" y1="912.00" x2="956" y2="912.00"/>
<text class="label" x="62" y="916.00" text-anchor="end">0.7</text>
<line class="grid" x1="70.00" y1="912" x2="70.00" y2="1142"/>
<text class="label" x="70.00" y="1162" text-anchor="middle">-0.27</text>
<line class="grid" x1="217.67" y1="912" x2="217.67" y2="1142"/>
<text class="label" x="217.67" y="1162" text-anchor="middle">-0.10</text>
<line class="grid" x1="365.33" y1="912" x2="365.33" y2="1142"/>
<text class="label" x="365.33" y="1162" text-anchor="middle">0.08</text>
<line class="grid" x1="513.00" y1="912" x2="513.00" y2="1142"/>
<text class="label" x="513.00" y="1162" text-anchor="middle">0.25</text>
<line class="grid" x1="660.67" y1="912" x2="660.67" y2="1142"/>
<text class="label" x="660.67" y="1162" text-anchor="middle">0.43</text>
<line class="grid" x1="808.33" y1="912" x2="808.33" y2="1142"/>
<text class="label" x="808.33" y="1162" text-anchor="middle">0.60</text>
<line class="grid" x1="956.00" y1="912" x2="956.00" y2="1142"/>
<text class="label" x="956.00" y="1162" text-anchor="middle">0.78</text>
<line x1="301.42" y1="912" x2="301.42" y2="1142" stroke="#20242a" stroke-width="1.2" opacity="0.55"/>
<line x1="335.70" y1="912" x2="335.70" y2="1142" stroke="#6b7280" stroke-width="1.2" opacity="0.55"/>
<line x1="434.48" y1="912" x2="434.48" y2="1142" stroke="#6b7280" stroke-width="1.2" opacity="0.55"/>
<line x1="467.95" y1="912" x2="467.95" y2="1142" stroke="#1769aa" stroke-width="1.2" opacity="0.55"/>
<line x1="365.08" y1="912" x2="365.08" y2="1142" stroke="#c94f2d" stroke-width="1.2" opacity="0.55"/>
<path d="M 95.08,975.34 L 111.10,966.72 L 120.52,961.36 L 127.89,957.16 L 136.20,970.55 L 147.46,966.66 L 153.57,978.38 L 162.61,971.94 L 170.93,978.60 L 182.72,985.60 L 188.13,976.77 L 195.74,979.47 L 205.57,968.99 L 212.18,977.04 L 223.00,979.85 L 229.46,970.57 L 239.47,974.17 L 246.78,970.01 L 255.91,961.18 L 265.23,966.95 L 272.96,960.36 L 279.60,969.88 L 288.16,964.49 L 297.47,967.79 L 305.19,969.10 L 316.36,963.26 L 321.95,970.84 L 331.22,975.84 L 338.95,967.91 L 349.64,1032.26 L 357.23,1102.03 L 365.08,1119.74 L 372.58,1107.55 L 380.96,1071.47 L 389.49,1025.20 L 415.47,1026.70 L 424.54,1007.05 L 435.73,965.73 L 449.13,937.55 L 456.79,934.26 L 466.42,940.64 L 474.19,958.27 L 481.98,958.27 L 491.60,977.06 L 501.03,986.98 L 508.39,981.44 L 525.73,985.04 L 533.70,988.20 L 541.12,983.33 L 551.80,970.90 L 560.30,978.14 L 567.81,969.60 L 577.93,970.61 L 584.48,962.07 L 592.08,959.09 L 602.31,953.10 L 610.58,961.63 L 617.44,966.05 L 625.73,969.13 L 635.83,963.89 L 652.36,967.46 L 659.71,974.62 L 676.61,959.56 L 684.81,966.45 L 693.78,960.76 L 702.12,962.69 L 719.20,959.10 L 729.45,962.09 L 736.62,957.30 L 744.26,959.05 L 752.02,961.42 L 760.58,956.78 L 769.03,963.77 L 778.94,959.13 L 796.50,964.96 L 828.63,951.82 L 837.37,943.69 L 848.39,940.69 L 853.81,949.12 L 863.26,946.88 L 870.19,949.94 L 888.01,952.29 L 898.26,959.45 L 904.21,956.75 L 912.80,965.80 L 922.31,960.71 L 930.92,966.86" fill="none" stroke="#c94f2d" stroke-width="2"/>
<path d="M 95.08,969.94 L 111.10,969.94 L 120.52,969.94 L 127.89,969.94 L 136.20,969.94 L 147.46,969.94 L 153.57,969.94 L 162.61,969.94 L 170.93,969.94 L 182.72,969.94 L 188.13,969.94 L 195.74,969.94 L 205.57,969.94 L 212.18,969.94 L 223.00,969.94 L 229.46,969.94 L 239.47,969.94 L 246.78,969.94 L 255.91,969.94 L 265.23,969.94 L 272.96,969.94 L 279.60,969.94 L 288.16,969.94 L 297.47,969.94 L 305.19,969.94 L 316.36,969.94 L 321.95,969.94 L 331.22,969.94 L 338.95,969.94 L 349.64,969.94 L 357.23,969.94 L 365.08,969.94 L 372.58,969.94 L 380.96,969.94 L 389.49,969.94 L 415.47,969.94 L 424.54,969.94 L 435.73,969.94 L 449.13,969.94 L 456.79,969.94 L 466.42,969.94 L 474.19,969.94 L 481.98,969.94 L 491.60,969.94 L 501.03,969.94 L 508.39,969.94 L 525.73,969.94 L 533.70,969.94 L 541.12,969.94 L 551.80,969.94 L 560.30,969.94 L 567.81,969.94 L 577.93,969.94 L 584.48,969.94 L 592.08,969.94 L 602.31,969.94 L 610.58,969.94 L 617.44,969.94 L 625.73,969.94 L 635.83,969.94 L 652.36,969.94 L 659.71,969.94 L 676.61,969.94 L 684.81,969.94 L 693.78,969.94 L 702.12,969.94 L 719.20,969.94 L 729.45,969.94 L 736.62,969.94 L 744.26,969.94 L 752.02,969.94 L 760.58,969.94 L 769.03,969.94 L 778.94,969.94 L 796.50,969.94 L 828.63,969.94 L 837.37,969.94 L 848.39,969.94 L 853.81,969.94 L 863.26,969.94 L 870.19,969.94 L 888.01,969.94 L 898.26,969.94 L 904.21,969.94 L 912.80,969.94 L 922.31,969.94 L 930.92,969.94" fill="none" stroke="#8a94a3" stroke-width="2" stroke-dasharray="6 4"/>
<line class="axis" x1="70" y1="1142" x2="956" y2="1142"/>
<line class="axis" x1="70" y1="912" x2="70" y2="1142"/>
<text class="label" x="18" y="1027.00" transform="rotate(-90 18 1027.00)" text-anchor="middle">degrees</text>
<text class="label" x="513.0" y="1178" text-anchor="middle">time relative to event (s)</text>
</svg>