<svg xmlns="http://www.w3.org/2000/svg" viewBox="0 0 980 1186" role="img">
<style>
.axis{stroke:#718096;stroke-width:1}.grid{stroke:#e5eaf0;stroke-width:1}.label{font:12px sans-serif;fill:#5a6675}.title{font:700 18px sans-serif;fill:#20242a}.subtitle{font:12px sans-serif;fill:#5a6675}.panel-title{font:700 13px sans-serif;fill:#20242a}
</style>
<rect width="980" height="1186" fill="#ffffff"/>
<text class="title" x="70" y="28">Motion disturbance example 20: event 363</text>
<text class="subtitle" x="70" y="50">Start pitch 7.5 deg, yaw 20.1 deg; target motion 5.4 deg; disturbance vector 2.38 deg.</text>
<line x1="70" y1="76" x2="94" y2="76" stroke="#48525f" stroke-width="2" stroke-dasharray="6 4"/>
<text class="label" x="100" y="80">target</text>
<line x1="200" y1="76" x2="224" y2="76" stroke="#1769aa" stroke-width="2"/>
<text class="label" x="230" y="80">pitch actual</text>
<line x1="338" y1="76" x2="362" y2="76" stroke="#c94f2d" stroke-width="2"/>
<text class="label" x="368" y="80">yaw actual</text>
<line x1="468" y1="76" x2="492" y2="76" stroke="#1769aa" stroke-width="2"/>
<text class="label" x="498" y="80">pitch disturbance</text>
<line x1="641" y1="76" x2="665" y2="76" stroke="#8a94a3" stroke-width="2" stroke-dasharray="6 4"/>
<text class="label" x="671" y="80">zero baseline</text>
<line x1="786" y1="76" x2="810" y2="76" stroke="#c94f2d" stroke-width="2"/>
<text class="label" x="816" y="80">yaw disturbance</text>
<text class="panel-title" x="70" y="96">Pitch position</text>
<line class="grid" x1="70" y1="338.00" x2="956" y2="338.00"/>
<text class="label" x="62" y="342.00" text-anchor="end">2.9</text>
<line class="grid" x1="70" y1="280.50" x2="956" y2="280.50"/>
<text class="label" x="62" y="284.50" text-anchor="end">4.3</text>
<line class="grid" x1="70" y1="223.00" x2="956" y2="223.00"/>
<text class="label" x="62" y="227.00" text-anchor="end">5.8</text>
<line class="grid" x1="70" y1="165.50" x2="956" y2="165.50"/>
<text class="label" x="62" y="169.50" text-anchor="end">7.2</text>
<line class="grid" x1="70" y1="108.00" x2="956" y2="108.00"/>
<text class="label" x="62" y="112.00" text-anchor="end">8.7</text>
<line class="grid" x1="70.00" y1="108" x2="70.00" y2="338"/>
<line class="grid" x1="217.67" y1="108" x2="217.67" y2="338"/>
<line class="grid" x1="365.33" y1="108" x2="365.33" y2="338"/>
<line class="grid" x1="513.00" y1="108" x2="513.00" y2="338"/>
<line class="grid" x1="660.67" y1="108" x2="660.67" y2="338"/>
<line class="grid" x1="808.33" y1="108" x2="808.33" y2="338"/>
<line class="grid" x1="956.00" y1="108" x2="956.00" y2="338"/>
<line x1="302.32" y1="108" x2="302.32" y2="338" stroke="#20242a" stroke-width="1.2" opacity="0.55"/>
<text class="label" x="306.32" y="120.00" transform="rotate(-35 306.32 120.00)">fire</text>
<line x1="336.11" y1="108" x2="336.11" y2="338" stroke="#6b7280" stroke-width="1.2" opacity="0.55"/>
<text class="label" x="340.11" y="120.00" transform="rotate(-35 340.11 120.00)">muzzle</text>
<line x1="473.46" y1="108" x2="473.46" y2="338" stroke="#6b7280" stroke-width="1.2" opacity="0.55"/>
<text class="label" x="477.46" y="120.00" transform="rotate(-35 477.46 120.00)">impact</text>
<line x1="476.83" y1="108" x2="476.83" y2="338" stroke="#1769aa" stroke-width="1.2" opacity="0.55"/>
<text class="label" x="480.83" y="120.00" transform="rotate(-35 480.83 120.00)">pitch peak</text>
<line x1="358.27" y1="108" x2="358.27" y2="338" stroke="#c94f2d" stroke-width="1.2" opacity="0.55"/>
<text class="label" x="362.27" y="120.00" transform="rotate(-35 362.27 120.00)">yaw peak</text>
<path d="M 95.93,137.41 L 103.59,137.41 L 112.21,139.11 L 120.44,141.02 L 128.70,141.02 L 138.37,142.41 L 145.42,142.41 L 156.91,144.45 L 163.47,146.61 L 171.07,146.61 L 180.60,148.10 L 189.67,150.20 L 196.63,150.20 L 206.55,152.27 L 215.99,152.27 L 222.52,154.66 L 232.30,156.38 L 239.64,156.38 L 248.17,158.68 L 255.44,158.68 L 264.46,160.57 L 272.44,162.85 L 280.68,162.85 L 289.01,165.54 L 297.46,165.54 L 306.28,168.30 L 314.92,168.30 L 322.87,170.91 L 331.58,173.05 L 339.80,173.05 L 348.94,175.65 L 356.15,175.65 L 366.13,177.55 L 373.58,179.06 L 382.58,180.33 L 390.22,180.33 L 400.20,238.39 L 407.97,238.39 L 415.40,238.39 L 423.92,233.46 L 433.81,233.46 L 442.33,206.60 L 461.88,182.82 L 469.92,182.82 L 476.83,173.30 L 483.58,176.52 L 493.37,176.52 L 502.17,185.28 L 508.39,185.28 L 518.67,198.13 L 525.31,198.38 L 533.52,198.38 L 543.48,198.85 L 550.08,198.85 L 558.67,200.84 L 575.36,203.52 L 585.54,204.37 L 592.88,204.37 L 600.63,205.69 L 612.23,207.70 L 619.76,207.70 L 626.51,210.15 L 634.69,210.15 L 643.25,211.69 L 651.78,213.91 L 661.43,213.91 L 668.05,216.56 L 677.45,216.56 L 684.74,218.36 L 695.06,220.45 L 702.60,220.45 L 711.80,222.76 L 719.58,222.76 L 727.73,248.38 L 736.10,248.38 L 744.97,295.00 L 754.11,308.87 L 762.55,308.87 L 769.23,284.50 L 786.58,236.59 L 796.20,204.50 L 802.66,204.50 L 812.07,190.33 L 820.76,190.33 L 828.35,189.83 L 837.77,202.26 L 845.10,202.26 L 854.09,227.84 L 862.57,227.84 L 870.98,234.17 L 878.84,234.17 L 887.27,239.93 L 896.37,243.58 L 913.82,247.59 L 921.49,249.96 L 929.21,249.96" fill="none" stroke="#48525f" stroke-width="2" stroke-dasharray="6 4"/>
<path d="M 95.93,130.26 L 103.59,131.18 L 112.21,132.04 L 120.44,133.04 L 128.70,134.03 L 138.37,135.10 L 145.42,136.10 L 156.91,137.17 L 163.47,138.24 L 171.07,139.30 L 180.60,140.44 L 189.67,141.51 L 196.63,142.58 L 206.55,143.72 L 215.99,144.86 L 222.52,146.00 L 232.30,147.21 L 239.64,148.42 L 248.17,149.63 L 255.44,150.84 L 264.46,152.05 L 272.44,153.27 L 280.68,154.48 L 289.01,155.69 L 297.46,156.90 L 306.28,158.11 L 314.92,159.39 L 322.87,160.67 L 331.58,162.10 L 339.80,163.74 L 348.94,200.49 L 356.15,211.46 L 366.13,207.54 L 373.58,195.79 L 382.58,182.97 L 390.22,184.75 L 400.20,193.15 L 407.97,211.89 L 415.40,231.26 L 423.92,238.60 L 433.81,238.96 L 442.33,235.32 L 461.88,233.68 L 469.92,233.11 L 476.83,224.99 L 483.58,213.17 L 493.37,203.27 L 502.17,198.07 L 508.39,194.94 L 518.67,193.44 L 525.31,193.30 L 533.52,193.51 L 543.48,193.01 L 550.08,192.73 L 558.67,193.37 L 575.36,196.43 L 585.54,197.21 L 592.88,197.50 L 600.63,197.93 L 612.23,198.57 L 619.76,199.42 L 626.51,200.56 L 634.69,201.70 L 643.25,202.77 L 651.78,203.77 L 661.43,204.91 L 668.05,206.26 L 677.45,207.54 L 684.74,208.97 L 695.06,250.71 L 702.60,260.47 L 711.80,258.40 L 719.58,248.43 L 727.73,238.24 L 736.10,240.59 L 744.97,250.49 L 754.11,273.43 L 762.55,299.79 L 769.23,313.82 L 786.58,315.74 L 796.20,311.90 L 802.66,308.83 L 812.07,302.35 L 820.76,285.83 L 828.35,265.45 L 837.77,247.79 L 845.10,235.25 L 854.09,226.42 L 862.57,220.58 L 870.98,218.73 L 878.84,219.08 L 887.27,220.72 L 896.37,223.14 L 913.82,229.98 L 921.49,233.97 L 929.21,236.82" fill="none" stroke="#1769aa" stroke-width="2"/>
<line class="axis" x1="70" y1="338" x2="956" y2="338"/>
<line class="axis" x1="70" y1="108" x2="70" y2="338"/>
<text class="label" x="18" y="223.00" transform="rotate(-90 18 223.00)" text-anchor="middle">degrees</text>
<text class="panel-title" x="70" y="364">Yaw position</text>
<line class="grid" x1="70" y1="606.00" x2="956" y2="606.00"/>
<text class="label" x="62" y="610.00" text-anchor="end">17.2</text>
<line class="grid" x1="70" y1="548.50" x2="956" y2="548.50"/>
<text class="label" x="62" y="552.50" text-anchor="end">19.3</text>
<line class="grid" x1="70" y1="491.00" x2="956" y2="491.00"/>
<text class="label" x="62" y="495.00" text-anchor="end">21.5</text>
<line class="grid" x1="70" y1="433.50" x2="956" y2="433.50"/>
<text class="label" x="62" y="437.50" text-anchor="end">23.7</text>
<line class="grid" x1="70" y1="376.00" x2="956" y2="376.00"/>
<text class="label" x="62" y="380.00" text-anchor="end">25.9</text>
<line class="grid" x1="70.00" y1="376" x2="70.00" y2="606"/>
<line class="grid" x1="217.67" y1="376" x2="217.67" y2="606"/>
<line class="grid" x1="365.33" y1="376" x2="365.33" y2="606"/>
<line class="grid" x1="513.00" y1="376" x2="513.00" y2="606"/>
<line class="grid" x1="660.67" y1="376" x2="660.67" y2="606"/>
<line class="grid" x1="808.33" y1="376" x2="808.33" y2="606"/>
<line class="grid" x1="956.00" y1="376" x2="956.00" y2="606"/>
<line x1="302.32" y1="376" x2="302.32" y2="606" stroke="#20242a" stroke-width="1.2" opacity="0.55"/>
<line x1="336.11" y1="376" x2="336.11" y2="606" stroke="#6b7280" stroke-width="1.2" opacity="0.55"/>
<line x1="473.46" y1="376" x2="473.46" y2="606" stroke="#6b7280" stroke-width="1.2" opacity="0.55"/>
<line x1="476.83" y1="376" x2="476.83" y2="606" stroke="#1769aa" stroke-width="1.2" opacity="0.55"/>
<line x1="358.27" y1="376" x2="358.27" y2="606" stroke="#c94f2d" stroke-width="1.2" opacity="0.55"/>
<path d="M 95.08,575.49 L 105.48,572.92 L 111.73,572.92 L 121.62,568.84 L 131.47,568.84 L 137.71,563.28 L 147.11,559.47 L 154.87,559.47 L 165.13,554.14 L 172.80,554.14 L 180.06,548.22 L 187.74,548.22 L 204.73,540.96 L 214.74,540.96 L 222.02,538.54 L 229.65,538.54 L 238.77,534.26 L 247.01,530.36 L 256.75,530.36 L 263.99,526.12 L 273.51,524.71 L 281.32,524.71 L 290.39,519.95 L 299.62,519.95 L 306.82,515.75 L 316.30,515.75 L 323.27,511.11 L 332.63,507.53 L 341.89,507.53 L 348.07,503.85 L 358.27,501.54 L 365.06,501.54 L 375.23,496.87 L 381.81,492.95 L 390.94,492.95 L 399.09,484.23 L 417.93,484.23 L 427.29,478.09 L 432.53,478.09 L 440.59,476.70 L 449.79,476.70 L 457.55,472.65 L 466.00,472.65 L 474.56,471.07 L 491.67,469.14 L 500.20,466.43 L 509.68,466.43 L 516.96,463.53 L 525.76,462.58 L 534.11,462.58 L 542.89,459.52 L 551.44,459.52 L 559.18,455.95 L 568.11,452.29 L 577.03,452.29 L 584.35,448.65 L 595.60,448.65 L 601.05,446.58 L 610.16,444.76 L 617.76,444.76 L 627.37,440.92 L 636.18,440.92 L 642.76,438.07 L 659.78,436.21 L 669.82,433.03 L 678.86,433.03 L 685.16,429.11 L 693.30,427.54 L 701.68,427.54 L 711.14,427.40 L 718.56,427.40 L 727.26,419.88 L 743.79,409.76 L 752.75,411.41 L 760.87,411.41 L 769.67,413.63 L 778.51,413.63 L 795.07,413.53 L 803.95,411.18 L 811.56,418.73 L 822.06,418.73 L 828.01,419.42 L 836.66,416.52 L 846.34,416.52 L 853.64,414.84 L 863.96,412.56 L 873.69,412.56 L 881.64,412.56 L 895.91,405.04 L 904.91,401.65 L 912.50,401.65 L 922.97,398.26 L 930.92,398.26" fill="none" stroke="#48525f" stroke-width="2" stroke-dasharray="6 4"/>
<path d="M 95.08,583.74 L 105.48,582.09 L 111.73,580.44 L 121.62,578.60 L 131.47,576.94 L 137.71,575.29 L 147.11,573.73 L 154.87,571.42 L 165.13,568.49 L 172.80,565.61 L 180.06,562.21 L 187.74,559.38 L 204.73,552.91 L 214.74,550.50 L 222.02,547.72 L 229.65,545.50 L 238.77,543.32 L 247.01,541.06 L 256.75,539.03 L 263.99,536.71 L 273.51,534.83 L 281.32,532.65 L 290.39,530.86 L 299.62,529.16 L 306.82,526.85 L 316.30,524.72 L 323.27,522.12 L 332.63,519.81 L 341.89,517.26 L 348.07,533.46 L 358.27,558.95 L 365.06,554.80 L 375.23,553.67 L 381.81,538.27 L 390.94,524.11 L 399.09,517.36 L 417.93,510.56 L 427.29,502.34 L 432.53,495.54 L 440.59,490.30 L 449.79,486.71 L 457.55,484.26 L 466.00,480.53 L 474.56,478.36 L 491.67,475.05 L 500.20,473.92 L 509.68,473.07 L 516.96,471.60 L 525.76,470.38 L 534.11,469.05 L 542.89,468.06 L 551.44,466.79 L 559.18,464.90 L 568.11,462.82 L 577.03,460.60 L 584.35,458.19 L 595.60,456.02 L 601.05,453.71 L 610.16,452.01 L 617.76,450.31 L 627.37,448.66 L 636.18,447.38 L 642.76,445.63 L 659.78,442.71 L 669.82,441.10 L 678.86,439.45 L 685.16,437.56 L 693.30,463.86 L 701.68,473.78 L 711.14,480.95 L 718.56,480.34 L 727.26,470.99 L 743.79,450.73 L 752.75,446.91 L 760.87,441.81 L 769.67,432.60 L 778.51,426.61 L 795.07,416.79 L 803.95,414.99 L 811.56,413.43 L 822.06,414.00 L 828.01,415.51 L 836.66,416.46 L 846.34,417.92 L 853.64,418.34 L 863.96,418.91 L 873.69,418.82 L 881.64,418.06 L 895.91,415.65 L 904.91,413.29 L 912.50,410.88 L 922.97,407.86 L 930.92,405.69" fill="none" stroke="#c94f2d" stroke-width="2"/>
<line class="axis" x1="70" y1="606" x2="956" y2="606"/>
<line class="axis" x1="70" y1="376" x2="70" y2="606"/>
<text class="label" x="18" y="491.00" transform="rotate(-90 18 491.00)" text-anchor="middle">degrees</text>
<text class="panel-title" x="70" y="632">Pitch disturbance while moving</text>
<line class="grid" x1="70" y1="874.00" x2="956" y2="874.00"/>
<text class="label" x="62" y="878.00" text-anchor="end">-3.5</text>
<line class="grid" x1="70" y1="816.50" x2="956" y2="816.50"/>
<text class="label" x="62" y="820.50" text-anchor="end">-2.3</text>
<line class="grid" x1="70" y1="759.00" x2="956" y2="759.00"/>
<text class="label" x="62" y="763.00" text-anchor="end">-1.1</text>
<line class="grid" x1="70" y1="701.50" x2="956" y2="701.50"/>
<text class="label" x="62" y="705.50" text-anchor="end">0.2</text>
<line class="grid" x1="70" y1="644.00" x2="956" y2="644.00"/>
<text class="label" x="62" y="648.00" text-anchor="end">1.4</text>
<line class="grid" x1="70.00" y1="644" x2="70.00" y2="874"/>
<line class="grid" x1="217.67" y1="644" x2="217.67" y2="874"/>
<line class="grid" x1="365.33" y1="644" x2="365.33" y2="874"/>
<line class="grid" x1="513.00" y1="644" x2="513.00" y2="874"/>
<line class="grid" x1="660.67" y1="644" x2="660.67" y2="874"/>
<line class="grid" x1="808.33" y1="644" x2="808.33" y2="874"/>
<line class="grid" x1="956.00" y1="644" x2="956.00" y2="874"/>
<line x1="302.32" y1="644" x2="302.32" y2="874" stroke="#20242a" stroke-width="1.2" opacity="0.55"/>
<line x1="336.11" y1="644" x2="336.11" y2="874" stroke="#6b7280" stroke-width="1.2" opacity="0.55"/>
<line x1="473.46" y1="644" x2="473.46" y2="874" stroke="#6b7280" stroke-width="1.2" opacity="0.55"/>
<line x1="476.83" y1="644" x2="476.83" y2="874" stroke="#1769aa" stroke-width="1.2" opacity="0.55"/>
<line x1="358.27" y1="644" x2="358.27" y2="874" stroke="#c94f2d" stroke-width="1.2" opacity="0.55"/>
<path d="M 95.93,711.18 L 103.59,712.27 L 112.21,711.27 L 120.44,710.20 L 128.70,711.38 L 138.37,711.00 L 145.42,712.17 L 156.91,711.03 L 163.47,709.74 L 171.07,711.00 L 180.60,710.58 L 189.67,709.37 L 196.63,710.63 L 206.55,709.53 L 215.99,710.87 L 222.52,709.40 L 232.30,708.80 L 239.64,710.23 L 248.17,708.95 L 255.44,710.37 L 264.46,709.57 L 272.44,708.31 L 280.68,709.73 L 289.01,707.99 L 297.46,709.42 L 306.28,707.60 L 314.92,709.11 L 322.87,707.54 L 331.58,706.69 L 339.80,708.63 L 348.94,748.92 L 356.15,761.86 L 366.13,754.99 L 373.58,739.35 L 382.58,722.73 L 390.22,724.83 L 400.20,666.26 L 407.97,688.35 L 415.40,711.21 L 423.92,725.68 L 433.81,726.10 L 442.33,753.49 L 461.88,779.61 L 469.92,778.94 L 476.83,780.60 L 483.58,762.85 L 493.37,751.17 L 502.17,734.70 L 508.39,731.00 L 518.67,714.09 L 525.31,713.62 L 533.52,713.87 L 543.48,712.72 L 550.08,712.39 L 558.67,710.80 L 575.36,711.26 L 585.54,711.18 L 592.88,711.51 L 600.63,710.46 L 612.23,708.84 L 619.76,709.85 L 626.51,708.30 L 634.69,709.65 L 643.25,709.09 L 651.78,707.65 L 661.43,708.99 L 668.05,707.47 L 677.45,708.98 L 684.74,708.53 L 695.06,755.31 L 702.60,766.82 L 711.80,761.66 L 719.58,749.90 L 727.73,707.66 L 736.10,710.43 L 744.97,667.12 L 754.11,677.81 L 762.55,708.90 L 769.23,754.20 L 786.58,812.97 L 796.20,846.29 L 802.66,842.68 L 812.07,851.74 L 820.76,832.25 L 828.35,808.82 L 837.77,773.31 L 845.10,758.52 L 854.09,717.94 L 862.57,711.05 L 870.98,701.40 L 878.84,701.82 L 887.27,696.96 L 896.37,695.51 L 913.82,698.85 L 921.49,700.75 L 929.21,704.11" fill="none" stroke="#1769aa" stroke-width="2"/>
<path d="M 95.93,709.55 L 103.59,709.55 L 112.21,709.55 L 120.44,709.55 L 128.70,709.55 L 138.37,709.55 L 145.42,709.55 L 156.91,709.55 L 163.47,709.55 L 171.07,709.55 L 180.60,709.55 L 189.67,709.55 L 196.63,709.55 L 206.55,709.55 L 215.99,709.55 L 222.52,709.55 L 232.30,709.55 L 239.64,709.55 L 248.17,709.55 L 255.44,709.55 L 264.46,709.55 L 272.44,709.55 L 280.68,709.55 L 289.01,709.55 L 297.46,709.55 L 306.28,709.55 L 314.92,709.55 L 322.87,709.55 L 331.58,709.55 L 339.80,709.55 L 348.94,709.55 L 356.15,709.55 L 366.13,709.55 L 373.58,709.55 L 382.58,709.55 L 390.22,709.55 L 400.20,709.55 L 407.97,709.55 L 415.40,709.55 L 423.92,709.55 L 433.81,709.55 L 442.33,709.55 L 461.88,709.55 L 469.92,709.55 L 476.83,709.55 L 483.58,709.55 L 493.37,709.55 L 502.17,709.55 L 508.39,709.55 L 518.67,709.55 L 525.31,709.55 L 533.52,709.55 L 543.48,709.55 L 550.08,709.55 L 558.67,709.55 L 575.36,709.55 L 585.54,709.55 L 592.88,709.55 L 600.63,709.55 L 612.23,709.55 L 619.76,709.55 L 626.51,709.55 L 634.69,709.55 L 643.25,709.55 L 651.78,709.55 L 661.43,709.55 L 668.05,709.55 L 677.45,709.55 L 684.74,709.55 L 695.06,709.55 L 702.60,709.55 L 711.80,709.55 L 719.58,709.55 L 727.73,709.55 L 736.10,709.55 L 744.97,709.55 L 754.11,709.55 L 762.55,709.55 L 769.23,709.55 L 786.58,709.55 L 796.20,709.55 L 802.66,709.55 L 812.07,709.55 L 820.76,709.55 L 828.35,709.55 L 837.77,709.55 L 845.10,709.55 L 854.09,709.55 L 862.57,709.55 L 870.98,709.55 L 878.84,709.55 L 887.27,709.55 L 896.37,709.55 L 913.82,709.55 L 921.49,709.55 L 929.21,709.55" fill="none" stroke="#8a94a3" stroke-width="2" stroke-dasharray="6 4"/>
<line class="axis" x1="70" y1="874" x2="956" y2="874"/>
<line class="axis" x1="70" y1="644" x2="70" y2="874"/>
<text class="label" x="18" y="759.00" transform="rotate(-90 18 759.00)" text-anchor="middle">degrees</text>
<text class="panel-title" x="70" y="900">Yaw disturbance while moving</text>
<line class="grid" x1="70" y1="1142.00" x2="956" y2="1142.00"/>
<text class="label" x="62" y="1146.00" text-anchor="end">-2.1</text>
<line class="grid" x1="70" y1="1084.50" x2="956" y2="1084.50"/>
<text class="label" x="62" y="1088.50" text-anchor="end">-1.4</text>
<line class="grid" x1="70" y1="1027.00" x2="956" y2="1027.00"/>
<text class="label" x="62" y="1031.00" text-anchor="end">-0.6</text>
<line class="grid" x1="70" y1="969.50" x2="956" y2="969.50"/>
<text class="label" x="62" y="973.50" text-anchor="end">0.1</text>
<line class="grid" x1="70" y1="912.00" x2="956" y2="912.00"/>
<text class="label" x="62" y="916.00" text-anchor="end">0.8</text>
<line class="grid" x1="70.00" y1="912" x2="70.00" y2="1142"/>
<text class="label" x="70.00" y="1162" text-anchor="middle">-0.28</text>
<line class="grid" x1="217.67" y1="912" x2="217.67" y2="1142"/>
<text class="label" x="217.67" y="1162" text-anchor="middle">-0.10</text>
<line class="grid" x1="365.33" y1="912" x2="365.33" y2="1142"/>
<text class="label" x="365.33" y="1162" text-anchor="middle">0.07</text>
<line class="grid" x1="513.00" y1="912" x2="513.00" y2="1142"/>
<text class="label" x="513.00" y="1162" text-anchor="middle">0.25</text>
<line class="grid" x1="660.67" y1="912" x2="660.67" y2="1142"/>
<text class="label" x="660.67" y="1162" text-anchor="middle">0.43</text>
<line class="grid" x1="808.33" y1="912" x2="808.33" y2="1142"/>
<text class="label" x="808.33" y="1162" text-anchor="middle">0.60</text>
<line class="grid" x1="956.00" y1="912" x2="956.00" y2="1142"/>
<text class="label" x="956.00" y="1162" text-anchor="middle">0.78</text>
<line x1="302.32" y1="912" x2="302.32" y2="1142" stroke="#20242a" stroke-width="1.2" opacity="0.55"/>
<line x1="336.11" y1="912" x2="336.11" y2="1142" stroke="#6b7280" stroke-width="1.2" opacity="0.55"/>
<line x1="473.46" y1="912" x2="473.46" y2="1142" stroke="#6b7280" stroke-width="1.2" opacity="0.55"/>
<line x1="476.83" y1="912" x2="476.83" y2="1142" stroke="#1769aa" stroke-width="1.2" opacity="0.55"/>
<line x1="358.27" y1="912" x2="358.27" y2="1142" stroke="#c94f2d" stroke-width="1.2" opacity="0.55"/>
<path d="M 95.08,974.34 L 105.48,977.03 L 111.73,972.15 L 121.62,978.77 L 131.47,973.89 L 137.71,985.44 L 147.11,992.12 L 154.87,985.28 L 165.13,992.38 L 172.80,983.86 L 180.06,991.31 L 187.74,982.94 L 204.73,985.28 L 214.74,978.16 L 222.02,977.07 L 229.65,970.51 L 238.77,976.75 L 247.01,981.58 L 256.75,975.57 L 263.99,981.27 L 273.51,979.86 L 281.32,973.44 L 290.39,982.19 L 299.62,977.16 L 306.82,982.74 L 316.30,976.45 L 323.27,982.51 L 332.63,986.26 L 341.89,978.72 L 348.07,1037.48 L 358.27,1119.74 L 365.06,1107.45 L 375.23,1117.91 L 381.81,1083.98 L 390.94,1042.09 L 399.09,1047.90 L 417.93,1027.79 L 427.29,1021.64 L 432.53,1001.53 L 440.59,990.16 L 449.79,979.54 L 457.55,984.27 L 466.00,973.23 L 474.56,971.49 L 491.67,967.43 L 500.20,972.09 L 509.68,969.57 L 516.96,973.80 L 525.76,972.99 L 534.11,969.08 L 542.89,975.18 L 551.44,971.41 L 559.18,976.41 L 568.11,981.09 L 577.03,974.53 L 584.35,978.15 L 595.60,971.72 L 601.05,971.03 L 610.16,971.37 L 617.76,966.35 L 627.37,972.81 L 636.18,969.04 L 642.76,972.30 L 659.78,969.14 L 669.82,973.80 L 678.86,968.92 L 685.16,974.92 L 693.30,1057.36 L 701.68,1086.68 L 711.14,1108.31 L 718.56,1106.49 L 727.26,1101.10 L 743.79,1071.10 L 752.75,1054.91 L 760.87,1039.83 L 769.67,1006.04 L 778.51,988.31 L 795.07,959.56 L 803.95,961.20 L 811.56,934.26 L 822.06,935.93 L 828.01,938.37 L 836.66,949.75 L 846.34,954.08 L 853.64,960.31 L 863.96,968.72 L 873.69,968.44 L 881.64,966.21 L 895.91,981.33 L 904.91,984.37 L 912.50,977.25 L 922.97,978.33 L 930.92,971.91" fill="none" stroke="#c94f2d" stroke-width="2"/>
<path d="M 95.08,977.61 L 105.48,977.61 L 111.73,977.61 L 121.62,977.61 L 131.47,977.61 L 137.71,977.61 L 147.11,977.61 L 154.87,977.61 L 165.13,977.61 L 172.80,977.61 L 180.06,977.61 L 187.74,977.61 L 204.73,977.61 L 214.74,977.61 L 222.02,977.61 L 229.65,977.61 L 238.77,977.61 L 247.01,977.61 L 256.75,977.61 L 263.99,977.61 L 273.51,977.61 L 281.32,977.61 L 290.39,977.61 L 299.62,977.61 L 306.82,977.61 L 316.30,977.61 L 323.27,977.61 L 332.63,977.61 L 341.89,977.61 L 348.07,977.61 L 358.27,977.61 L 365.06,977.61 L 375.23,977.61 L 381.81,977.61 L 390.94,977.61 L 399.09,977.61 L 417.93,977.61 L 427.29,977.61 L 432.53,977.61 L 440.59,977.61 L 449.79,977.61 L 457.55,977.61 L 466.00,977.61 L 474.56,977.61 L 491.67,977.61 L 500.20,977.61 L 509.68,977.61 L 516.96,977.61 L 525.76,977.61 L 534.11,977.61 L 542.89,977.61 L 551.44,977.61 L 559.18,977.61 L 568.11,977.61 L 577.03,977.61 L 584.35,977.61 L 595.60,977.61 L 601.05,977.61 L 610.16,977.61 L 617.76,977.61 L 627.37,977.61 L 636.18,977.61 L 642.76,977.61 L 659.78,977.61 L 669.82,977.61 L 678.86,977.61 L 685.16,977.61 L 693.30,977.61 L 701.68,977.61 L 711.14,977.61 L 718.56,977.61 L 727.26,977.61 L 743.79,977.61 L 752.75,977.61 L 760.87,977.61 L 769.67,977.61 L 778.51,977.61 L 795.07,977.61 L 803.95,977.61 L 811.56,977.61 L 822.06,977.61 L 828.01,977.61 L 836.66,977.61 L 846.34,977.61 L 853.64,977.61 L 863.96,977.61 L 873.69,977.61 L 881.64,977.61 L 895.91,977.61 L 904.91,977.61 L 912.50,977.61 L 922.97,977.61 L 930.92,977.61" fill="none" stroke="#8a94a3" stroke-width="2" stroke-dasharray="6 4"/>
<line class="axis" x1="70" y1="1142" x2="956" y2="1142"/>
<line class="axis" x1="70" y1="912" x2="70" y2="1142"/>
<text class="label" x="18" y="1027.00" transform="rotate(-90 18 1027.00)" text-anchor="middle">degrees</text>
<text class="label" x="513.0" y="1178" text-anchor="middle">time relative to event (s)</text>
</svg>