<svg xmlns="http://www.w3.org/2000/svg" viewBox="0 0 980 1186" role="img">
<style>
.axis{stroke:#718096;stroke-width:1}.grid{stroke:#e5eaf0;stroke-width:1}.label{font:12px sans-serif;fill:#5a6675}.title{font:700 18px sans-serif;fill:#20242a}.subtitle{font:12px sans-serif;fill:#5a6675}.panel-title{font:700 13px sans-serif;fill:#20242a}
</style>
<rect width="980" height="1186" fill="#ffffff"/>
<text class="title" x="70" y="28">Motion disturbance example 21: event 284</text>
<text class="subtitle" x="70" y="50">Start pitch 1.8 deg, yaw 20.8 deg; target motion 5.8 deg; disturbance vector 3.50 deg.</text>
<line x1="70" y1="76" x2="94" y2="76" stroke="#48525f" stroke-width="2" stroke-dasharray="6 4"/>
<text class="label" x="100" y="80">target</text>
<line x1="200" y1="76" x2="224" y2="76" stroke="#1769aa" stroke-width="2"/>
<text class="label" x="230" y="80">pitch actual</text>
<line x1="338" y1="76" x2="362" y2="76" stroke="#c94f2d" stroke-width="2"/>
<text class="label" x="368" y="80">yaw actual</text>
<line x1="468" y1="76" x2="492" y2="76" stroke="#1769aa" stroke-width="2"/>
<text class="label" x="498" y="80">pitch disturbance</text>
<line x1="641" y1="76" x2="665" y2="76" stroke="#8a94a3" stroke-width="2" stroke-dasharray="6 4"/>
<text class="label" x="671" y="80">zero baseline</text>
<line x1="786" y1="76" x2="810" y2="76" stroke="#c94f2d" stroke-width="2"/>
<text class="label" x="816" y="80">yaw disturbance</text>
<text class="panel-title" x="70" y="96">Pitch position</text>
<line class="grid" x1="70" y1="338.00" x2="956" y2="338.00"/>
<text class="label" x="62" y="342.00" text-anchor="end">-1.1</text>
<line class="grid" x1="70" y1="280.50" x2="956" y2="280.50"/>
<text class="label" x="62" y="284.50" text-anchor="end">-0.1</text>
<line class="grid" x1="70" y1="223.00" x2="956" y2="223.00"/>
<text class="label" x="62" y="227.00" text-anchor="end">1.0</text>
<line class="grid" x1="70" y1="165.50" x2="956" y2="165.50"/>
<text class="label" x="62" y="169.50" text-anchor="end">2.0</text>
<line class="grid" x1="70" y1="108.00" x2="956" y2="108.00"/>
<text class="label" x="62" y="112.00" text-anchor="end">3.1</text>
<line class="grid" x1="70.00" y1="108" x2="70.00" y2="338"/>
<line class="grid" x1="217.67" y1="108" x2="217.67" y2="338"/>
<line class="grid" x1="365.33" y1="108" x2="365.33" y2="338"/>
<line class="grid" x1="513.00" y1="108" x2="513.00" y2="338"/>
<line class="grid" x1="660.67" y1="108" x2="660.67" y2="338"/>
<line class="grid" x1="808.33" y1="108" x2="808.33" y2="338"/>
<line class="grid" x1="956.00" y1="108" x2="956.00" y2="338"/>
<line x1="304.20" y1="108" x2="304.20" y2="338" stroke="#20242a" stroke-width="1.2" opacity="0.55"/>
<text class="label" x="308.20" y="120.00" transform="rotate(-35 308.20 120.00)">fire</text>
<line x1="338.47" y1="108" x2="338.47" y2="338" stroke="#6b7280" stroke-width="1.2" opacity="0.55"/>
<text class="label" x="342.47" y="120.00" transform="rotate(-35 342.47 120.00)">muzzle</text>
<line x1="459.52" y1="108" x2="459.52" y2="338" stroke="#6b7280" stroke-width="1.2" opacity="0.55"/>
<text class="label" x="463.52" y="120.00" transform="rotate(-35 463.52 120.00)">impact</text>
<line x1="466.79" y1="108" x2="466.79" y2="338" stroke="#1769aa" stroke-width="1.2" opacity="0.55"/>
<text class="label" x="470.79" y="120.00" transform="rotate(-35 470.79 120.00)">pitch peak</text>
<line x1="668.94" y1="108" x2="668.94" y2="338" stroke="#c94f2d" stroke-width="1.2" opacity="0.55"/>
<text class="label" x="672.94" y="120.00" transform="rotate(-35 672.94 120.00)">yaw peak</text>
<path d="M 95.08,153.52 L 103.71,153.52 L 112.25,168.85 L 120.05,168.85 L 128.86,173.18 L 137.03,173.18 L 145.59,237.55 L 154.47,237.55 L 162.58,270.88 L 171.38,238.05 L 191.28,200.41 L 197.65,163.27 L 207.87,163.27 L 213.83,141.99 L 222.86,144.34 L 230.27,144.34 L 238.80,158.88 L 248.28,169.11 L 255.26,169.11 L 263.82,169.11 L 273.96,183.42 L 281.79,188.78 L 290.26,188.78 L 297.31,191.23 L 305.74,194.50 L 315.02,194.50 L 323.09,194.50 L 333.13,197.47 L 341.12,197.47 L 348.43,197.47 L 356.38,200.96 L 365.08,208.41 L 374.64,210.66 L 382.55,210.66 L 390.34,210.66 L 398.73,298.09 L 409.08,311.09 L 416.71,311.09 L 425.18,276.35 L 433.53,276.35 L 440.94,224.23 L 451.84,198.50 L 457.85,198.50 L 466.79,185.42 L 475.08,183.17 L 483.56,183.17 L 491.77,197.15 L 500.79,197.15 L 508.79,219.30 L 525.30,225.82 L 535.85,225.35 L 542.90,225.35 L 550.46,224.89 L 559.79,221.96 L 567.64,221.96 L 576.73,235.51 L 584.69,235.51 L 593.18,248.39 L 601.17,248.39 L 610.58,235.80 L 618.81,256.36 L 627.11,256.36 L 634.94,259.58 L 643.51,231.15 L 652.48,231.15 L 660.58,231.15 L 669.82,190.71 L 677.91,190.71 L 694.44,174.78 L 703.28,163.42 L 711.52,163.42 L 719.38,161.09 L 728.47,150.97 L 736.82,150.97 L 745.26,149.29 L 753.58,149.29 L 761.65,143.82 L 770.44,143.82 L 780.78,141.12 L 786.88,139.52 L 795.43,139.52 L 803.78,140.23 L 812.87,139.01 L 821.66,139.01 L 829.77,135.29 L 838.55,135.29 L 846.67,132.02 L 854.70,130.26 L 863.90,130.26 L 871.46,130.26 L 880.37,130.26 L 888.92,130.26 L 907.08,130.26 L 914.20,130.26 L 922.61,130.26 L 930.51,130.26" fill="none" stroke="#48525f" stroke-width="2" stroke-dasharray="6 4"/>
<path d="M 95.08,198.48 L 103.71,209.06 L 112.25,209.45 L 120.05,211.73 L 128.86,196.60 L 137.03,201.94 L 145.59,213.11 L 154.47,238.82 L 162.58,259.19 L 171.38,273.42 L 191.28,281.24 L 197.65,277.87 L 207.87,270.36 L 213.83,262.45 L 222.86,242.38 L 230.27,217.56 L 238.80,198.97 L 248.28,185.63 L 255.26,177.82 L 263.82,174.35 L 273.96,174.85 L 281.79,176.04 L 290.26,176.93 L 297.31,177.62 L 305.74,179.30 L 315.02,181.77 L 323.09,184.34 L 333.13,186.32 L 341.12,188.00 L 348.43,246.14 L 356.38,253.85 L 365.08,250.39 L 374.64,247.03 L 382.55,233.18 L 390.34,236.94 L 398.73,248.51 L 409.08,276.09 L 416.71,301.60 L 425.18,309.51 L 433.53,315.74 L 440.94,313.17 L 451.84,307.44 L 457.85,303.68 L 466.79,295.57 L 475.08,274.61 L 483.56,251.77 L 491.77,234.77 L 500.79,223.89 L 508.79,216.77 L 525.30,214.20 L 535.85,215.39 L 542.90,216.87 L 550.46,218.65 L 559.79,220.82 L 567.64,222.80 L 576.73,223.69 L 584.69,223.49 L 593.18,223.49 L 601.17,224.09 L 610.58,226.76 L 618.81,229.43 L 627.11,231.70 L 634.94,234.17 L 643.51,236.45 L 652.48,239.51 L 660.58,242.97 L 669.82,244.55 L 677.91,244.16 L 694.44,237.04 L 703.28,229.82 L 711.52,221.22 L 719.38,212.03 L 728.47,202.93 L 736.82,194.13 L 745.26,186.71 L 753.58,179.89 L 761.65,173.86 L 770.44,169.31 L 780.78,165.36 L 786.88,162.09 L 795.43,159.33 L 803.78,156.56 L 812.87,153.79 L 821.66,151.71 L 829.77,149.93 L 838.55,148.15 L 846.67,146.67 L 854.70,144.79 L 863.90,143.01 L 871.46,141.23 L 880.37,139.26 L 888.92,137.48 L 907.08,135.00 L 914.20,134.11 L 922.61,133.32 L 930.51,132.73" fill="none" stroke="#1769aa" stroke-width="2"/>
<line class="axis" x1="70" y1="338" x2="956" y2="338"/>
<line class="axis" x1="70" y1="108" x2="70" y2="338"/>
<text class="label" x="18" y="223.00" transform="rotate(-90 18 223.00)" text-anchor="middle">degrees</text>
<text class="panel-title" x="70" y="364">Yaw position</text>
<line class="grid" x1="70" y1="606.00" x2="956" y2="606.00"/>
<text class="label" x="62" y="610.00" text-anchor="end">16.3</text>
<line class="grid" x1="70" y1="548.50" x2="956" y2="548.50"/>
<text class="label" x="62" y="552.50" text-anchor="end">18.5</text>
<line class="grid" x1="70" y1="491.00" x2="956" y2="491.00"/>
<text class="label" x="62" y="495.00" text-anchor="end">20.7</text>
<line class="grid" x1="70" y1="433.50" x2="956" y2="433.50"/>
<text class="label" x="62" y="437.50" text-anchor="end">22.8</text>
<line class="grid" x1="70" y1="376.00" x2="956" y2="376.00"/>
<text class="label" x="62" y="380.00" text-anchor="end">25.0</text>
<line class="grid" x1="70.00" y1="376" x2="70.00" y2="606"/>
<line class="grid" x1="217.67" y1="376" x2="217.67" y2="606"/>
<line class="grid" x1="365.33" y1="376" x2="365.33" y2="606"/>
<line class="grid" x1="513.00" y1="376" x2="513.00" y2="606"/>
<line class="grid" x1="660.67" y1="376" x2="660.67" y2="606"/>
<line class="grid" x1="808.33" y1="376" x2="808.33" y2="606"/>
<line class="grid" x1="956.00" y1="376" x2="956.00" y2="606"/>
<line x1="304.20" y1="376" x2="304.20" y2="606" stroke="#20242a" stroke-width="1.2" opacity="0.55"/>
<line x1="338.47" y1="376" x2="338.47" y2="606" stroke="#6b7280" stroke-width="1.2" opacity="0.55"/>
<line x1="459.52" y1="376" x2="459.52" y2="606" stroke="#6b7280" stroke-width="1.2" opacity="0.55"/>
<line x1="466.79" y1="376" x2="466.79" y2="606" stroke="#1769aa" stroke-width="1.2" opacity="0.55"/>
<line x1="668.94" y1="376" x2="668.94" y2="606" stroke="#c94f2d" stroke-width="1.2" opacity="0.55"/>
<path d="M 96.95,533.01 L 104.50,525.84 L 121.42,524.79 L 129.25,519.06 L 138.85,504.83 L 145.98,504.83 L 156.01,504.83 L 164.15,489.86 L 171.93,494.86 L 179.89,494.86 L 188.39,491.54 L 196.49,494.29 L 204.66,494.29 L 221.42,487.39 L 239.88,487.16 L 246.54,487.16 L 263.48,489.13 L 272.15,485.82 L 284.53,483.56 L 298.71,480.79 L 307.02,477.26 L 314.23,477.26 L 325.33,477.26 L 331.27,469.95 L 340.14,469.95 L 350.05,469.95 L 357.29,464.70 L 366.93,462.87 L 373.50,459.83 L 381.91,459.83 L 394.21,457.80 L 399.23,457.80 L 408.14,446.75 L 415.69,446.75 L 424.43,448.68 L 441.86,445.65 L 450.19,442.11 L 458.97,441.84 L 466.26,441.84 L 474.70,435.89 L 483.01,435.89 L 492.55,429.52 L 499.88,429.52 L 508.37,428.46 L 517.21,427.34 L 526.11,427.34 L 534.00,429.84 L 544.30,429.84 L 550.90,434.66 L 559.12,439.92 L 567.27,439.92 L 577.95,420.73 L 585.74,420.73 L 592.77,403.57 L 601.93,425.31 L 611.51,425.31 L 618.35,402.34 L 628.06,402.34 L 635.39,398.26 L 644.54,438.56 L 652.06,438.56 L 661.40,438.56 L 668.94,490.65 L 677.45,490.65 L 686.10,490.65 L 697.29,506.06 L 702.79,524.34 L 712.44,524.34 L 719.80,527.54 L 728.11,534.02 L 737.80,534.02 L 745.79,536.03 L 754.93,536.03 L 762.05,535.22 L 779.46,546.75 L 787.40,557.90 L 796.30,557.90 L 804.17,569.00 L 813.34,571.05 L 823.52,571.05 L 829.33,581.28 L 837.53,581.28 L 846.13,580.86 L 855.08,583.74 L 863.10,583.74 L 872.65,583.74 L 881.69,583.74 L 890.21,583.74 L 897.12,583.74 L 905.47,583.74 L 913.58,583.74 L 921.98,583.74 L 930.92,583.74" fill="none" stroke="#48525f" stroke-width="2" stroke-dasharray="6 4"/>
<path d="M 96.95,568.24 L 104.50,573.77 L 121.42,576.48 L 129.25,559.04 L 138.85,544.07 L 145.98,533.49 L 156.01,527.39 L 164.15,521.53 L 171.93,516.62 L 179.89,510.00 L 188.39,506.28 L 196.49,504.28 L 204.66,501.94 L 221.42,495.65 L 239.88,490.65 L 246.54,489.84 L 263.48,489.55 L 272.15,489.55 L 284.53,489.08 L 298.71,488.79 L 307.02,487.69 L 314.23,486.12 L 325.33,483.50 L 331.27,481.26 L 340.14,478.69 L 350.05,502.37 L 357.29,512.29 L 366.93,509.14 L 373.50,509.76 L 381.91,494.08 L 394.21,479.54 L 399.23,469.39 L 408.14,466.82 L 415.69,464.91 L 424.43,460.58 L 441.86,456.52 L 450.19,454.95 L 458.97,452.81 L 466.26,449.52 L 474.70,447.14 L 483.01,444.70 L 492.55,441.56 L 499.88,439.84 L 508.37,437.32 L 517.21,435.08 L 526.11,433.41 L 534.00,431.93 L 544.30,431.17 L 550.90,430.84 L 559.12,430.84 L 567.27,431.31 L 577.95,432.22 L 585.74,433.41 L 592.77,433.36 L 601.93,432.22 L 611.51,429.02 L 618.35,424.07 L 628.06,420.68 L 635.39,416.92 L 644.54,413.87 L 652.06,411.25 L 661.40,409.63 L 668.94,410.44 L 677.45,414.87 L 686.10,422.45 L 697.29,435.94 L 702.79,452.85 L 712.44,472.49 L 719.80,491.74 L 728.11,507.76 L 737.80,519.34 L 745.79,526.34 L 754.93,528.54 L 762.05,528.68 L 779.46,528.54 L 787.40,528.73 L 796.30,530.97 L 804.17,535.54 L 813.34,542.12 L 823.52,549.79 L 829.33,556.85 L 837.53,563.47 L 846.13,570.43 L 855.08,575.24 L 863.10,577.91 L 872.65,579.39 L 881.69,579.91 L 890.21,580.29 L 897.12,580.72 L 905.47,581.15 L 913.58,581.44 L 921.98,581.72 L 930.92,582.30" fill="none" stroke="#c94f2d" stroke-width="2"/>
<line class="axis" x1="70" y1="606" x2="956" y2="606"/>
<line class="axis" x1="70" y1="376" x2="70" y2="606"/>
<text class="label" x="18" y="491.00" transform="rotate(-90 18 491.00)" text-anchor="middle">degrees</text>
<text class="panel-title" x="70" y="632">Pitch disturbance while moving</text>
<line class="grid" x1="70" y1="874.00" x2="956" y2="874.00"/>
<text class="label" x="62" y="878.00" text-anchor="end">-2.0</text>
<line class="grid" x1="70" y1="816.50" x2="956" y2="816.50"/>
<text class="label" x="62" y="820.50" text-anchor="end">-1.1</text>
<line class="grid" x1="70" y1="759.00" x2="956" y2="759.00"/>
<text class="label" x="62" y="763.00" text-anchor="end">-0.1</text>
<line class="grid" x1="70" y1="701.50" x2="956" y2="701.50"/>
<text class="label" x="62" y="705.50" text-anchor="end">0.8</text>
<line class="grid" x1="70" y1="644.00" x2="956" y2="644.00"/>
<text class="label" x="62" y="648.00" text-anchor="end">1.8</text>
<line class="grid" x1="70.00" y1="644" x2="70.00" y2="874"/>
<line class="grid" x1="217.67" y1="644" x2="217.67" y2="874"/>
<line class="grid" x1="365.33" y1="644" x2="365.33" y2="874"/>
<line class="grid" x1="513.00" y1="644" x2="513.00" y2="874"/>
<line class="grid" x1="660.67" y1="644" x2="660.67" y2="874"/>
<line class="grid" x1="808.33" y1="644" x2="808.33" y2="874"/>
<line class="grid" x1="956.00" y1="644" x2="956.00" y2="874"/>
<line x1="304.20" y1="644" x2="304.20" y2="874" stroke="#20242a" stroke-width="1.2" opacity="0.55"/>
<line x1="338.47" y1="644" x2="338.47" y2="874" stroke="#6b7280" stroke-width="1.2" opacity="0.55"/>
<line x1="459.52" y1="644" x2="459.52" y2="874" stroke="#6b7280" stroke-width="1.2" opacity="0.55"/>
<line x1="466.79" y1="644" x2="466.79" y2="874" stroke="#1769aa" stroke-width="1.2" opacity="0.55"/>
<line x1="668.94" y1="644" x2="668.94" y2="874" stroke="#c94f2d" stroke-width="1.2" opacity="0.55"/>
<path d="M 95.08,769.38 L 103.71,780.92 L 112.25,764.63 L 120.05,767.11 L 128.86,745.89 L 137.03,751.71 L 145.59,693.68 L 154.47,721.73 L 162.58,707.58 L 171.38,758.93 L 191.28,808.51 L 197.65,845.36 L 207.87,837.16 L 213.83,851.74 L 222.86,827.29 L 230.27,800.22 L 238.80,764.07 L 248.28,738.36 L 255.26,729.84 L 263.82,726.06 L 273.96,710.99 L 281.79,706.44 L 290.26,707.41 L 297.31,705.49 L 305.74,703.76 L 315.02,706.46 L 323.09,709.26 L 333.13,708.17 L 341.12,710.01 L 348.43,773.43 L 356.38,778.03 L 365.08,766.13 L 374.64,760.01 L 382.55,744.91 L 390.34,749.01 L 398.73,666.26 L 409.08,682.17 L 416.71,710.00 L 425.18,756.52 L 433.53,763.31 L 440.94,817.36 L 451.84,839.18 L 457.85,835.08 L 466.79,840.50 L 475.08,820.08 L 483.56,795.17 L 491.77,761.37 L 500.79,749.50 L 508.79,717.58 L 525.30,707.66 L 535.85,709.47 L 542.90,711.09 L 550.46,713.53 L 559.79,719.10 L 567.64,721.26 L 576.73,707.45 L 584.69,707.23 L 593.18,693.19 L 601.17,693.83 L 610.58,710.48 L 618.81,690.96 L 627.11,693.44 L 634.94,692.63 L 643.51,726.12 L 652.48,729.46 L 660.58,733.23 L 669.82,779.08 L 677.91,778.65 L 694.44,788.26 L 703.28,792.77 L 711.52,783.39 L 719.38,775.90 L 728.47,777.02 L 736.82,767.42 L 745.26,761.16 L 753.58,753.72 L 761.65,753.11 L 770.44,748.15 L 780.78,746.78 L 786.88,744.97 L 795.43,741.95 L 803.78,738.15 L 812.87,736.47 L 821.66,734.20 L 829.77,736.31 L 838.55,734.37 L 846.67,736.32 L 854.70,736.19 L 863.90,734.25 L 871.46,732.31 L 880.37,730.15 L 888.92,728.21 L 907.08,725.52 L 914.20,724.55 L 922.61,723.68 L 930.51,723.04" fill="none" stroke="#1769aa" stroke-width="2"/>
<path d="M 95.08,751.22 L 103.71,751.22 L 112.25,751.22 L 120.05,751.22 L 128.86,751.22 L 137.03,751.22 L 145.59,751.22 L 154.47,751.22 L 162.58,751.22 L 171.38,751.22 L 191.28,751.22 L 197.65,751.22 L 207.87,751.22 L 213.83,751.22 L 222.86,751.22 L 230.27,751.22 L 238.80,751.22 L 248.28,751.22 L 255.26,751.22 L 263.82,751.22 L 273.96,751.22 L 281.79,751.22 L 290.26,751.22 L 297.31,751.22 L 305.74,751.22 L 315.02,751.22 L 323.09,751.22 L 333.13,751.22 L 341.12,751.22 L 348.43,751.22 L 356.38,751.22 L 365.08,751.22 L 374.64,751.22 L 382.55,751.22 L 390.34,751.22 L 398.73,751.22 L 409.08,751.22 L 416.71,751.22 L 425.18,751.22 L 433.53,751.22 L 440.94,751.22 L 451.84,751.22 L 457.85,751.22 L 466.79,751.22 L 475.08,751.22 L 483.56,751.22 L 491.77,751.22 L 500.79,751.22 L 508.79,751.22 L 525.30,751.22 L 535.85,751.22 L 542.90,751.22 L 550.46,751.22 L 559.79,751.22 L 567.64,751.22 L 576.73,751.22 L 584.69,751.22 L 593.18,751.22 L 601.17,751.22 L 610.58,751.22 L 618.81,751.22 L 627.11,751.22 L 634.94,751.22 L 643.51,751.22 L 652.48,751.22 L 660.58,751.22 L 669.82,751.22 L 677.91,751.22 L 694.44,751.22 L 703.28,751.22 L 711.52,751.22 L 719.38,751.22 L 728.47,751.22 L 736.82,751.22 L 745.26,751.22 L 753.58,751.22 L 761.65,751.22 L 770.44,751.22 L 780.78,751.22 L 786.88,751.22 L 795.43,751.22 L 803.78,751.22 L 812.87,751.22 L 821.66,751.22 L 829.77,751.22 L 838.55,751.22 L 846.67,751.22 L 854.70,751.22 L 863.90,751.22 L 871.46,751.22 L 880.37,751.22 L 888.92,751.22 L 907.08,751.22 L 914.20,751.22 L 922.61,751.22 L 930.51,751.22" fill="none" stroke="#8a94a3" stroke-width="2" stroke-dasharray="6 4"/>
<line class="axis" x1="70" y1="874" x2="956" y2="874"/>
<line class="axis" x1="70" y1="644" x2="70" y2="874"/>
<text class="label" x="18" y="759.00" transform="rotate(-90 18 759.00)" text-anchor="middle">degrees</text>
<text class="panel-title" x="70" y="900">Yaw disturbance while moving</text>
<line class="grid" x1="70" y1="1142.00" x2="956" y2="1142.00"/>
<text class="label" x="62" y="1146.00" text-anchor="end">-2.4</text>
<line class="grid" x1="70" y1="1084.50" x2="956" y2="1084.50"/>
<text class="label" x="62" y="1088.50" text-anchor="end">-0.9</text>
<line class="grid" x1="70" y1="1027.00" x2="956" y2="1027.00"/>
<text class="label" x="62" y="1031.00" text-anchor="end">0.7</text>
<line class="grid" x1="70" y1="969.50" x2="956" y2="969.50"/>
<text class="label" x="62" y="973.50" text-anchor="end">2.2</text>
<line class="grid" x1="70" y1="912.00" x2="956" y2="912.00"/>
<text class="label" x="62" y="916.00" text-anchor="end">3.8</text>
<line class="grid" x1="70.00" y1="912" x2="70.00" y2="1142"/>
<text class="label" x="70.00" y="1162" text-anchor="middle">-0.28</text>
<line class="grid" x1="217.67" y1="912" x2="217.67" y2="1142"/>
<text class="label" x="217.67" y="1162" text-anchor="middle">-0.10</text>
<line class="grid" x1="365.33" y1="912" x2="365.33" y2="1142"/>
<text class="label" x="365.33" y="1162" text-anchor="middle">0.07</text>
<line class="grid" x1="513.00" y1="912" x2="513.00" y2="1142"/>
<text class="label" x="513.00" y="1162" text-anchor="middle">0.25</text>
<line class="grid" x1="660.67" y1="912" x2="660.67" y2="1142"/>
<text class="label" x="660.67" y="1162" text-anchor="middle">0.42</text>
<line class="grid" x1="808.33" y1="912" x2="808.33" y2="1142"/>
<text class="label" x="808.33" y="1162" text-anchor="middle">0.60</text>
<line class="grid" x1="956.00" y1="912" x2="956.00" y2="1142"/>
<text class="label" x="956.00" y="1162" text-anchor="middle">0.77</text>
<line x1="304.20" y1="912" x2="304.20" y2="1142" stroke="#20242a" stroke-width="1.2" opacity="0.55"/>
<line x1="338.47" y1="912" x2="338.47" y2="1142" stroke="#6b7280" stroke-width="1.2" opacity="0.55"/>
<line x1="459.52" y1="912" x2="459.52" y2="1142" stroke="#6b7280" stroke-width="1.2" opacity="0.55"/>
<line x1="466.79" y1="912" x2="466.79" y2="1142" stroke="#1769aa" stroke-width="1.2" opacity="0.55"/>
<line x1="668.94" y1="912" x2="668.94" y2="1142" stroke="#c94f2d" stroke-width="1.2" opacity="0.55"/>
<path d="M 96.95,1096.58 L 104.50,1114.44 L 121.42,1119.74 L 129.25,1103.26 L 138.85,1102.23 L 145.98,1087.35 L 156.01,1078.77 L 164.15,1091.59 L 171.93,1077.65 L 179.89,1068.33 L 188.39,1067.78 L 196.49,1061.10 L 204.66,1057.81 L 221.42,1058.67 L 239.88,1051.95 L 246.54,1050.81 L 263.48,1047.65 L 272.15,1052.30 L 284.53,1054.81 L 298.71,1058.30 L 307.02,1061.71 L 314.23,1059.50 L 325.33,1055.82 L 331.27,1062.95 L 340.14,1059.33 L 350.05,1092.64 L 357.29,1113.96 L 366.93,1112.12 L 373.50,1117.26 L 381.91,1095.21 L 394.21,1077.62 L 399.23,1063.34 L 408.14,1075.26 L 415.69,1072.58 L 424.43,1063.77 L 441.86,1062.35 L 450.19,1065.11 L 458.97,1062.47 L 466.26,1057.84 L 474.70,1062.86 L 483.01,1059.44 L 492.55,1063.98 L 499.88,1061.57 L 508.37,1059.51 L 517.21,1057.93 L 526.11,1055.58 L 534.00,1050.00 L 544.30,1048.92 L 550.90,1041.67 L 559.12,1034.27 L 567.27,1034.94 L 577.95,1063.20 L 585.74,1064.87 L 592.77,1088.94 L 601.93,1056.76 L 611.51,1052.27 L 618.35,1077.60 L 628.06,1072.84 L 635.39,1073.29 L 644.54,1012.34 L 652.06,1008.65 L 661.40,1006.37 L 668.94,934.26 L 677.45,940.49 L 686.10,951.15 L 697.29,948.44 L 702.79,946.53 L 712.44,974.14 L 719.80,996.71 L 728.11,1010.12 L 737.80,1026.41 L 745.79,1033.43 L 754.93,1036.52 L 762.05,1037.85 L 779.46,1021.45 L 787.40,1006.03 L 796.30,1009.18 L 804.17,1000.01 L 813.34,1006.37 L 823.52,1017.16 L 829.33,1012.69 L 837.53,1022.01 L 846.13,1032.38 L 855.08,1035.10 L 863.10,1038.85 L 872.65,1040.93 L 881.69,1041.67 L 890.21,1042.20 L 897.12,1042.81 L 905.47,1043.41 L 913.58,1043.81 L 921.98,1044.21 L 930.92,1045.02" fill="none" stroke="#c94f2d" stroke-width="2"/>
<path d="M 96.95,1052.30 L 104.50,1052.30 L 121.42,1052.30 L 129.25,1052.30 L 138.85,1052.30 L 145.98,1052.30 L 156.01,1052.30 L 164.15,1052.30 L 171.93,1052.30 L 179.89,1052.30 L 188.39,1052.30 L 196.49,1052.30 L 204.66,1052.30 L 221.42,1052.30 L 239.88,1052.30 L 246.54,1052.30 L 263.48,1052.30 L 272.15,1052.30 L 284.53,1052.30 L 298.71,1052.30 L 307.02,1052.30 L 314.23,1052.30 L 325.33,1052.30 L 331.27,1052.30 L 340.14,1052.30 L 350.05,1052.30 L 357.29,1052.30 L 366.93,1052.30 L 373.50,1052.30 L 381.91,1052.30 L 394.21,1052.30 L 399.23,1052.30 L 408.14,1052.30 L 415.69,1052.30 L 424.43,1052.30 L 441.86,1052.30 L 450.19,1052.30 L 458.97,1052.30 L 466.26,1052.30 L 474.70,1052.30 L 483.01,1052.30 L 492.55,1052.30 L 499.88,1052.30 L 508.37,1052.30 L 517.21,1052.30 L 526.11,1052.30 L 534.00,1052.30 L 544.30,1052.30 L 550.90,1052.30 L 559.12,1052.30 L 567.27,1052.30 L 577.95,1052.30 L 585.74,1052.30 L 592.77,1052.30 L 601.93,1052.30 L 611.51,1052.30 L 618.35,1052.30 L 628.06,1052.30 L 635.39,1052.30 L 644.54,1052.30 L 652.06,1052.30 L 661.40,1052.30 L 668.94,1052.30 L 677.45,1052.30 L 686.10,1052.30 L 697.29,1052.30 L 702.79,1052.30 L 712.44,1052.30 L 719.80,1052.30 L 728.11,1052.30 L 737.80,1052.30 L 745.79,1052.30 L 754.93,1052.30 L 762.05,1052.30 L 779.46,1052.30 L 787.40,1052.30 L 796.30,1052.30 L 804.17,1052.30 L 813.34,1052.30 L 823.52,1052.30 L 829.33,1052.30 L 837.53,1052.30 L 846.13,1052.30 L 855.08,1052.30 L 863.10,1052.30 L 872.65,1052.30 L 881.69,1052.30 L 890.21,1052.30 L 897.12,1052.30 L 905.47,1052.30 L 913.58,1052.30 L 921.98,1052.30 L 930.92,1052.30" fill="none" stroke="#8a94a3" stroke-width="2" stroke-dasharray="6 4"/>
<line class="axis" x1="70" y1="1142" x2="956" y2="1142"/>
<line class="axis" x1="70" y1="912" x2="70" y2="1142"/>
<text class="label" x="18" y="1027.00" transform="rotate(-90 18 1027.00)" text-anchor="middle">degrees</text>
<text class="label" x="513.0" y="1178" text-anchor="middle">time relative to event (s)</text>
</svg>