<svg xmlns="http://www.w3.org/2000/svg" viewBox="0 0 980 1186" role="img">
<style>
.axis{stroke:#718096;stroke-width:1}.grid{stroke:#e5eaf0;stroke-width:1}.label{font:12px sans-serif;fill:#5a6675}.title{font:700 18px sans-serif;fill:#20242a}.subtitle{font:12px sans-serif;fill:#5a6675}.panel-title{font:700 13px sans-serif;fill:#20242a}
</style>
<rect width="980" height="1186" fill="#ffffff"/>
<text class="title" x="70" y="28">Motion disturbance example 22: event 368</text>
<text class="subtitle" x="70" y="50">Start pitch 4.4 deg, yaw 25.2 deg; target motion 3.8 deg; disturbance vector 3.12 deg.</text>
<line x1="70" y1="76" x2="94" y2="76" stroke="#48525f" stroke-width="2" stroke-dasharray="6 4"/>
<text class="label" x="100" y="80">target</text>
<line x1="200" y1="76" x2="224" y2="76" stroke="#1769aa" stroke-width="2"/>
<text class="label" x="230" y="80">pitch actual</text>
<line x1="338" y1="76" x2="362" y2="76" stroke="#c94f2d" stroke-width="2"/>
<text class="label" x="368" y="80">yaw actual</text>
<line x1="468" y1="76" x2="492" y2="76" stroke="#1769aa" stroke-width="2"/>
<text class="label" x="498" y="80">pitch disturbance</text>
<line x1="641" y1="76" x2="665" y2="76" stroke="#8a94a3" stroke-width="2" stroke-dasharray="6 4"/>
<text class="label" x="671" y="80">zero baseline</text>
<line x1="786" y1="76" x2="810" y2="76" stroke="#c94f2d" stroke-width="2"/>
<text class="label" x="816" y="80">yaw disturbance</text>
<text class="panel-title" x="70" y="96">Pitch position</text>
<line class="grid" x1="70" y1="338.00" x2="956" y2="338.00"/>
<text class="label" x="62" y="342.00" text-anchor="end">1.2</text>
<line class="grid" x1="70" y1="280.50" x2="956" y2="280.50"/>
<text class="label" x="62" y="284.50" text-anchor="end">2.3</text>
<line class="grid" x1="70" y1="223.00" x2="956" y2="223.00"/>
<text class="label" x="62" y="227.00" text-anchor="end">3.5</text>
<line class="grid" x1="70" y1="165.50" x2="956" y2="165.50"/>
<text class="label" x="62" y="169.50" text-anchor="end">4.6</text>
<line class="grid" x1="70" y1="108.00" x2="956" y2="108.00"/>
<text class="label" x="62" y="112.00" text-anchor="end">5.8</text>
<line class="grid" x1="70.00" y1="108" x2="70.00" y2="338"/>
<line class="grid" x1="217.67" y1="108" x2="217.67" y2="338"/>
<line class="grid" x1="365.33" y1="108" x2="365.33" y2="338"/>
<line class="grid" x1="513.00" y1="108" x2="513.00" y2="338"/>
<line class="grid" x1="660.67" y1="108" x2="660.67" y2="338"/>
<line class="grid" x1="808.33" y1="108" x2="808.33" y2="338"/>
<line class="grid" x1="956.00" y1="108" x2="956.00" y2="338"/>
<line x1="303.11" y1="108" x2="303.11" y2="338" stroke="#20242a" stroke-width="1.2" opacity="0.55"/>
<text class="label" x="307.11" y="120.00" transform="rotate(-35 307.11 120.00)">fire</text>
<line x1="336.08" y1="108" x2="336.08" y2="338" stroke="#6b7280" stroke-width="1.2" opacity="0.55"/>
<text class="label" x="340.08" y="120.00" transform="rotate(-35 340.08 120.00)">muzzle</text>
<line x1="493.57" y1="108" x2="493.57" y2="338" stroke="#6b7280" stroke-width="1.2" opacity="0.55"/>
<text class="label" x="497.57" y="120.00" transform="rotate(-35 497.57 120.00)">impact</text>
<line x1="463.26" y1="108" x2="463.26" y2="338" stroke="#1769aa" stroke-width="1.2" opacity="0.55"/>
<text class="label" x="467.26" y="120.00" transform="rotate(-35 467.26 120.00)">pitch peak</text>
<line x1="359.40" y1="108" x2="359.40" y2="338" stroke="#c94f2d" stroke-width="1.2" opacity="0.55"/>
<text class="label" x="363.40" y="120.00" transform="rotate(-35 363.40 120.00)">yaw peak</text>
<path d="M 99.64,142.79 L 106.61,145.70 L 115.70,145.70 L 123.84,149.86 L 132.25,149.86 L 140.46,153.39 L 150.33,156.84 L 159.51,156.84 L 166.95,160.35 L 174.45,160.35 L 183.04,162.37 L 192.25,165.75 L 201.70,165.75 L 209.38,169.12 L 216.36,169.12 L 224.66,170.98 L 233.45,174.23 L 244.20,174.23 L 251.98,177.86 L 260.86,177.86 L 266.60,181.45 L 274.69,183.74 L 283.89,183.74 L 291.89,187.34 L 301.14,187.34 L 309.49,190.37 L 316.86,192.51 L 327.04,192.51 L 334.31,195.85 L 342.25,195.85 L 351.83,198.00 L 359.79,204.31 L 367.21,204.31 L 376.52,207.04 L 385.28,207.04 L 392.75,279.81 L 404.53,304.74 L 409.53,304.74 L 419.16,285.60 L 426.36,285.60 L 435.22,246.45 L 443.45,246.45 L 453.42,201.70 L 463.26,179.80 L 470.36,179.80 L 477.21,175.30 L 489.62,175.30 L 494.03,189.34 L 505.78,205.08 L 512.05,205.08 L 519.32,218.52 L 527.72,218.52 L 539.17,227.96 L 543.93,232.86 L 551.97,232.86 L 562.81,232.86 L 571.40,239.71 L 579.58,244.23 L 587.76,246.75 L 597.70,246.75 L 603.65,249.06 L 611.17,252.05 L 619.60,252.05 L 629.33,256.40 L 637.51,256.40 L 645.44,260.14 L 653.14,263.01 L 664.84,263.01 L 671.54,267.54 L 681.16,269.87 L 686.46,269.87 L 697.47,272.96 L 703.36,272.96 L 711.78,276.95 L 720.39,276.95 L 729.40,280.55 L 739.86,283.66 L 745.35,283.66 L 753.91,287.88 L 763.63,287.88 L 770.52,291.83 L 780.41,294.43 L 787.19,294.43 L 796.50,298.54 L 807.11,298.54 L 813.07,298.54 L 821.79,298.54 L 831.34,298.54 L 838.54,298.54 L 846.32,298.54 L 854.68,298.54 L 863.59,298.54 L 872.15,298.54 L 880.01,298.54 L 888.56,298.54 L 896.69,298.54 L 907.98,298.54 L 917.26,298.54 L 921.98,298.54" fill="none" stroke="#48525f" stroke-width="2" stroke-dasharray="6 4"/>
<path d="M 99.64,130.26 L 106.61,132.15 L 115.70,133.87 L 123.84,135.68 L 132.25,137.48 L 140.46,139.20 L 150.33,140.82 L 159.51,142.72 L 166.95,144.62 L 174.45,146.78 L 183.04,148.86 L 192.25,150.94 L 201.70,152.92 L 209.38,154.91 L 216.36,156.81 L 224.66,158.70 L 233.45,160.60 L 244.20,162.41 L 251.98,164.12 L 260.86,165.84 L 266.60,167.73 L 274.69,169.45 L 283.89,171.26 L 291.89,173.06 L 301.14,174.96 L 309.49,176.85 L 316.86,178.66 L 327.04,180.56 L 334.31,182.36 L 342.25,194.64 L 351.83,246.30 L 359.79,252.62 L 367.21,258.31 L 376.52,251.45 L 385.28,245.67 L 392.75,253.88 L 404.53,268.87 L 409.53,291.72 L 419.16,300.03 L 426.36,314.30 L 435.22,315.74 L 443.45,312.49 L 453.42,308.25 L 463.26,301.93 L 470.36,289.92 L 477.21,268.24 L 489.62,247.11 L 494.03,231.22 L 505.78,218.58 L 512.05,211.53 L 519.32,208.91 L 527.72,209.82 L 539.17,211.17 L 543.93,211.98 L 551.97,213.07 L 562.81,216.14 L 571.40,220.29 L 579.58,223.81 L 587.76,226.07 L 597.70,228.24 L 603.65,231.13 L 611.17,234.11 L 619.60,236.46 L 629.33,238.80 L 637.51,241.24 L 645.44,243.86 L 653.14,245.94 L 664.84,247.92 L 671.54,250.36 L 681.16,252.71 L 686.46,254.97 L 697.47,257.23 L 703.36,259.30 L 711.78,261.38 L 720.39,263.46 L 729.40,265.53 L 739.86,267.43 L 745.35,269.42 L 753.91,271.49 L 763.63,273.66 L 770.52,275.83 L 780.41,277.99 L 787.19,280.16 L 796.50,282.42 L 807.11,284.50 L 813.07,286.66 L 821.79,288.74 L 831.34,290.64 L 838.54,292.08 L 846.32,293.35 L 854.68,294.34 L 863.59,295.24 L 872.15,295.97 L 880.01,296.51 L 888.56,297.05 L 896.69,297.50 L 907.98,297.86 L 917.26,298.13 L 921.98,298.40" fill="none" stroke="#1769aa" stroke-width="2"/>
<line class="axis" x1="70" y1="338" x2="956" y2="338"/>
<line class="axis" x1="70" y1="108" x2="70" y2="338"/>
<text class="label" x="18" y="223.00" transform="rotate(-90 18 223.00)" text-anchor="middle">degrees</text>
<text class="panel-title" x="70" y="364">Yaw position</text>
<line class="grid" x1="70" y1="606.00" x2="956" y2="606.00"/>
<text class="label" x="62" y="610.00" text-anchor="end">23.4</text>
<line class="grid" x1="70" y1="548.50" x2="956" y2="548.50"/>
<text class="label" x="62" y="552.50" text-anchor="end">24.6</text>
<line class="grid" x1="70" y1="491.00" x2="956" y2="491.00"/>
<text class="label" x="62" y="495.00" text-anchor="end">25.8</text>
<line class="grid" x1="70" y1="433.50" x2="956" y2="433.50"/>
<text class="label" x="62" y="437.50" text-anchor="end">27.0</text>
<line class="grid" x1="70" y1="376.00" x2="956" y2="376.00"/>
<text class="label" x="62" y="380.00" text-anchor="end">28.2</text>
<line class="grid" x1="70.00" y1="376" x2="70.00" y2="606"/>
<line class="grid" x1="217.67" y1="376" x2="217.67" y2="606"/>
<line class="grid" x1="365.33" y1="376" x2="365.33" y2="606"/>
<line class="grid" x1="513.00" y1="376" x2="513.00" y2="606"/>
<line class="grid" x1="660.67" y1="376" x2="660.67" y2="606"/>
<line class="grid" x1="808.33" y1="376" x2="808.33" y2="606"/>
<line class="grid" x1="956.00" y1="376" x2="956.00" y2="606"/>
<line x1="303.11" y1="376" x2="303.11" y2="606" stroke="#20242a" stroke-width="1.2" opacity="0.55"/>
<line x1="336.08" y1="376" x2="336.08" y2="606" stroke="#6b7280" stroke-width="1.2" opacity="0.55"/>
<line x1="493.57" y1="376" x2="493.57" y2="606" stroke="#6b7280" stroke-width="1.2" opacity="0.55"/>
<line x1="463.26" y1="376" x2="463.26" y2="606" stroke="#1769aa" stroke-width="1.2" opacity="0.55"/>
<line x1="359.40" y1="376" x2="359.40" y2="606" stroke="#c94f2d" stroke-width="1.2" opacity="0.55"/>
<path d="M 95.08,570.72 L 98.71,564.03 L 107.62,562.95 L 118.40,562.95 L 124.33,557.78 L 133.36,557.78 L 140.91,555.52 L 149.43,551.87 L 157.75,551.87 L 165.72,546.96 L 175.97,546.96 L 182.65,542.65 L 191.47,539.18 L 200.55,539.18 L 208.15,533.60 L 217.18,533.60 L 225.16,529.14 L 234.21,526.40 L 246.29,526.40 L 250.66,521.81 L 258.63,521.81 L 267.02,518.86 L 275.05,515.71 L 286.37,515.71 L 293.28,511.02 L 299.97,511.02 L 309.01,508.60 L 317.27,504.41 L 325.69,504.41 L 334.89,500.22 L 343.02,500.22 L 351.20,496.04 L 359.40,493.32 L 368.31,493.32 L 376.00,488.90 L 384.36,488.90 L 393.37,465.25 L 401.27,465.25 L 410.59,460.58 L 418.61,466.32 L 427.55,466.32 L 435.90,472.24 L 444.73,474.83 L 452.18,474.83 L 461.21,474.83 L 468.83,469.27 L 476.76,464.62 L 487.03,464.62 L 496.35,458.89 L 502.57,458.89 L 510.60,460.15 L 519.82,462.08 L 535.28,460.34 L 544.39,456.43 L 552.36,456.43 L 563.71,456.43 L 569.41,448.72 L 577.49,446.14 L 586.71,444.08 L 595.28,444.08 L 603.04,440.07 L 612.99,437.35 L 622.13,437.35 L 628.05,433.69 L 636.18,433.69 L 644.63,432.90 L 654.35,429.67 L 661.81,429.67 L 670.12,425.81 L 678.16,425.81 L 686.91,422.91 L 695.11,419.33 L 705.38,419.33 L 712.45,415.55 L 721.36,415.55 L 728.86,413.38 L 737.23,411.19 L 747.69,411.19 L 754.43,407.36 L 762.45,407.36 L 770.95,405.28 L 779.34,402.45 L 788.53,402.45 L 795.94,398.88 L 804.36,398.88 L 812.64,398.88 L 823.64,398.88 L 832.29,398.88 L 837.97,398.88 L 847.22,398.88 L 855.16,398.88 L 862.91,398.88 L 875.66,398.88 L 880.97,398.88 L 890.31,398.88 L 897.22,398.88 L 905.44,398.88 L 914.10,398.88 L 922.66,398.88 L 930.92,398.88" fill="none" stroke="#48525f" stroke-width="2" stroke-dasharray="6 4"/>
<path d="M 95.08,583.74 L 98.71,580.04 L 107.62,576.77 L 118.40,573.07 L 124.33,569.98 L 133.36,567.40 L 140.91,564.38 L 149.43,561.98 L 157.75,560.00 L 165.72,557.76 L 175.97,555.87 L 182.65,553.80 L 191.47,551.82 L 200.55,549.50 L 208.15,546.75 L 217.18,543.91 L 225.16,540.73 L 234.21,537.72 L 246.29,534.96 L 250.66,532.38 L 258.63,530.14 L 267.02,527.56 L 275.05,525.76 L 286.37,523.78 L 293.28,521.80 L 299.97,520.16 L 309.01,517.93 L 317.27,515.78 L 325.69,513.63 L 334.89,511.05 L 343.02,511.56 L 351.20,549.59 L 359.40,578.58 L 368.31,568.51 L 376.00,552.43 L 384.36,528.85 L 393.37,499.78 L 401.27,490.40 L 410.59,486.61 L 418.61,478.18 L 427.55,475.86 L 435.90,475.00 L 444.73,475.69 L 452.18,477.58 L 461.21,477.23 L 468.83,474.57 L 476.76,471.47 L 487.03,469.06 L 496.35,467.00 L 502.57,466.91 L 510.60,465.53 L 519.82,464.76 L 535.28,464.67 L 544.39,464.42 L 552.36,463.64 L 563.71,461.92 L 569.41,460.29 L 577.49,457.96 L 586.71,455.38 L 595.28,452.80 L 603.04,450.22 L 612.99,447.73 L 622.13,444.97 L 628.05,442.56 L 636.18,440.59 L 644.63,438.61 L 654.35,436.97 L 661.81,435.51 L 670.12,434.05 L 678.16,432.58 L 686.91,431.04 L 695.11,429.14 L 705.38,427.25 L 712.45,424.93 L 721.36,422.69 L 728.86,420.63 L 737.23,418.56 L 747.69,416.75 L 754.43,415.03 L 762.45,413.49 L 770.95,411.94 L 779.34,410.47 L 788.53,408.84 L 795.94,407.29 L 804.36,405.48 L 812.64,403.68 L 823.64,402.13 L 832.29,400.84 L 837.97,399.89 L 847.22,399.20 L 855.16,398.86 L 862.91,398.60 L 875.66,398.43 L 880.97,398.26 L 890.31,398.26 L 897.22,398.26 L 905.44,398.43 L 914.10,398.60 L 922.66,398.52 L 930.92,398.34" fill="none" stroke="#c94f2d" stroke-width="2"/>
<line class="axis" x1="70" y1="606" x2="956" y2="606"/>
<line class="axis" x1="70" y1="376" x2="70" y2="606"/>
<text class="label" x="18" y="491.00" transform="rotate(-90 18 491.00)" text-anchor="middle">degrees</text>
<text class="panel-title" x="70" y="632">Pitch disturbance while moving</text>
<line class="grid" x1="70" y1="874.00" x2="956" y2="874.00"/>
<text class="label" x="62" y="878.00" text-anchor="end">-3.1</text>
<line class="grid" x1="70" y1="816.50" x2="956" y2="816.50"/>
<text class="label" x="62" y="820.50" text-anchor="end">-2.1</text>
<line class="grid" x1="70" y1="759.00" x2="956" y2="759.00"/>
<text class="label" x="62" y="763.00" text-anchor="end">-1.1</text>
<line class="grid" x1="70" y1="701.50" x2="956" y2="701.50"/>
<text class="label" x="62" y="705.50" text-anchor="end">-0.1</text>
<line class="grid" x1="70" y1="644.00" x2="956" y2="644.00"/>
<text class="label" x="62" y="648.00" text-anchor="end">0.8</text>
<line class="grid" x1="70.00" y1="644" x2="70.00" y2="874"/>
<line class="grid" x1="217.67" y1="644" x2="217.67" y2="874"/>
<line class="grid" x1="365.33" y1="644" x2="365.33" y2="874"/>
<line class="grid" x1="513.00" y1="644" x2="513.00" y2="874"/>
<line class="grid" x1="660.67" y1="644" x2="660.67" y2="874"/>
<line class="grid" x1="808.33" y1="644" x2="808.33" y2="874"/>
<line class="grid" x1="956.00" y1="644" x2="956.00" y2="874"/>
<line x1="303.11" y1="644" x2="303.11" y2="874" stroke="#20242a" stroke-width="1.2" opacity="0.55"/>
<line x1="336.08" y1="644" x2="336.08" y2="874" stroke="#6b7280" stroke-width="1.2" opacity="0.55"/>
<line x1="493.57" y1="644" x2="493.57" y2="874" stroke="#6b7280" stroke-width="1.2" opacity="0.55"/>
<line x1="463.26" y1="644" x2="463.26" y2="874" stroke="#1769aa" stroke-width="1.2" opacity="0.55"/>
<line x1="359.40" y1="644" x2="359.40" y2="874" stroke="#c94f2d" stroke-width="1.2" opacity="0.55"/>
<path d="M 99.64,693.65 L 106.61,692.46 L 115.70,694.47 L 123.84,691.72 L 132.25,693.84 L 140.46,691.70 L 150.33,689.56 L 159.51,691.78 L 166.95,689.89 L 174.45,692.44 L 183.04,692.50 L 192.25,690.97 L 201.70,693.31 L 209.38,691.69 L 216.36,693.91 L 224.66,693.95 L 233.45,692.37 L 244.20,694.49 L 251.98,692.24 L 260.86,694.26 L 266.60,692.26 L 274.69,691.59 L 283.89,693.71 L 291.89,691.60 L 301.14,693.83 L 309.49,692.50 L 316.86,692.11 L 327.04,694.33 L 334.31,692.53 L 342.25,706.95 L 351.83,765.07 L 359.79,765.08 L 367.21,771.76 L 376.52,760.50 L 385.28,753.71 L 392.75,677.93 L 404.53,666.26 L 409.53,693.08 L 419.16,725.30 L 426.36,742.05 L 435.22,789.72 L 443.45,785.90 L 453.42,833.45 L 463.26,851.74 L 470.36,837.64 L 477.21,817.49 L 489.62,792.68 L 494.03,757.53 L 505.78,724.21 L 512.05,715.94 L 519.32,697.09 L 527.72,698.15 L 539.17,688.65 L 543.93,683.85 L 551.97,685.12 L 562.81,688.73 L 571.40,685.56 L 579.58,684.39 L 587.76,684.09 L 597.70,686.64 L 603.65,687.31 L 611.17,687.29 L 619.60,690.05 L 629.33,687.71 L 637.51,690.57 L 645.44,689.26 L 653.14,688.32 L 664.84,690.65 L 671.54,688.19 L 681.16,688.22 L 686.46,690.87 L 697.47,689.89 L 703.36,692.33 L 711.78,690.08 L 720.39,692.52 L 729.40,690.73 L 739.86,689.31 L 745.35,691.64 L 753.91,689.13 L 763.63,691.67 L 770.52,689.57 L 780.41,689.07 L 787.19,691.61 L 796.50,689.44 L 807.11,691.88 L 813.07,694.43 L 821.79,696.86 L 831.34,699.09 L 838.54,700.79 L 846.32,702.27 L 854.68,703.44 L 863.59,704.50 L 872.15,705.35 L 880.01,705.98 L 888.56,706.62 L 896.69,707.15 L 907.98,707.57 L 917.26,707.89 L 921.98,708.21" fill="none" stroke="#1769aa" stroke-width="2"/>
<path d="M 99.64,693.04 L 106.61,693.04 L 115.70,693.04 L 123.84,693.04 L 132.25,693.04 L 140.46,693.04 L 150.33,693.04 L 159.51,693.04 L 166.95,693.04 L 174.45,693.04 L 183.04,693.04 L 192.25,693.04 L 201.70,693.04 L 209.38,693.04 L 216.36,693.04 L 224.66,693.04 L 233.45,693.04 L 244.20,693.04 L 251.98,693.04 L 260.86,693.04 L 266.60,693.04 L 274.69,693.04 L 283.89,693.04 L 291.89,693.04 L 301.14,693.04 L 309.49,693.04 L 316.86,693.04 L 327.04,693.04 L 334.31,693.04 L 342.25,693.04 L 351.83,693.04 L 359.79,693.04 L 367.21,693.04 L 376.52,693.04 L 385.28,693.04 L 392.75,693.04 L 404.53,693.04 L 409.53,693.04 L 419.16,693.04 L 426.36,693.04 L 435.22,693.04 L 443.45,693.04 L 453.42,693.04 L 463.26,693.04 L 470.36,693.04 L 477.21,693.04 L 489.62,693.04 L 494.03,693.04 L 505.78,693.04 L 512.05,693.04 L 519.32,693.04 L 527.72,693.04 L 539.17,693.04 L 543.93,693.04 L 551.97,693.04 L 562.81,693.04 L 571.40,693.04 L 579.58,693.04 L 587.76,693.04 L 597.70,693.04 L 603.65,693.04 L 611.17,693.04 L 619.60,693.04 L 629.33,693.04 L 637.51,693.04 L 645.44,693.04 L 653.14,693.04 L 664.84,693.04 L 671.54,693.04 L 681.16,693.04 L 686.46,693.04 L 697.47,693.04 L 703.36,693.04 L 711.78,693.04 L 720.39,693.04 L 729.40,693.04 L 739.86,693.04 L 745.35,693.04 L 753.91,693.04 L 763.63,693.04 L 770.52,693.04 L 780.41,693.04 L 787.19,693.04 L 796.50,693.04 L 807.11,693.04 L 813.07,693.04 L 821.79,693.04 L 831.34,693.04 L 838.54,693.04 L 846.32,693.04 L 854.68,693.04 L 863.59,693.04 L 872.15,693.04 L 880.01,693.04 L 888.56,693.04 L 896.69,693.04 L 907.98,693.04 L 917.26,693.04 L 921.98,693.04" fill="none" stroke="#8a94a3" stroke-width="2" stroke-dasharray="6 4"/>
<line class="axis" x1="70" y1="874" x2="956" y2="874"/>
<line class="axis" x1="70" y1="644" x2="70" y2="874"/>
<text class="label" x="18" y="759.00" transform="rotate(-90 18 759.00)" text-anchor="middle">degrees</text>
<text class="panel-title" x="70" y="900">Yaw disturbance while moving</text>
<line class="grid" x1="70" y1="1142.00" x2="956" y2="1142.00"/>
<text class="label" x="62" y="1146.00" text-anchor="end">-1.8</text>
<line class="grid" x1="70" y1="1084.50" x2="956" y2="1084.50"/>
<text class="label" x="62" y="1088.50" text-anchor="end">-1.2</text>
<line class="grid" x1="70" y1="1027.00" x2="956" y2="1027.00"/>
<text class="label" x="62" y="1031.00" text-anchor="end">-0.7</text>
<line class="grid" x1="70" y1="969.50" x2="956" y2="969.50"/>
<text class="label" x="62" y="973.50" text-anchor="end">-0.1</text>
<line class="grid" x1="70" y1="912.00" x2="956" y2="912.00"/>
<text class="label" x="62" y="916.00" text-anchor="end">0.4</text>
<line class="grid" x1="70.00" y1="912" x2="70.00" y2="1142"/>
<text class="label" x="70.00" y="1162" text-anchor="middle">-0.28</text>
<line class="grid" x1="217.67" y1="912" x2="217.67" y2="1142"/>
<text class="label" x="217.67" y="1162" text-anchor="middle">-0.10</text>
<line class="grid" x1="365.33" y1="912" x2="365.33" y2="1142"/>
<text class="label" x="365.33" y="1162" text-anchor="middle">0.07</text>
<line class="grid" x1="513.00" y1="912" x2="513.00" y2="1142"/>
<text class="label" x="513.00" y="1162" text-anchor="middle">0.25</text>
<line class="grid" x1="660.67" y1="912" x2="660.67" y2="1142"/>
<text class="label" x="660.67" y="1162" text-anchor="middle">0.43</text>
<line class="grid" x1="808.33" y1="912" x2="808.33" y2="1142"/>
<text class="label" x="808.33" y="1162" text-anchor="middle">0.60</text>
<line class="grid" x1="956.00" y1="912" x2="956.00" y2="1142"/>
<text class="label" x="956.00" y="1162" text-anchor="middle">0.78</text>
<line x1="303.11" y1="912" x2="303.11" y2="1142" stroke="#20242a" stroke-width="1.2" opacity="0.55"/>
<line x1="336.08" y1="912" x2="336.08" y2="1142" stroke="#6b7280" stroke-width="1.2" opacity="0.55"/>
<line x1="493.57" y1="912" x2="493.57" y2="1142" stroke="#6b7280" stroke-width="1.2" opacity="0.55"/>
<line x1="463.26" y1="912" x2="463.26" y2="1142" stroke="#1769aa" stroke-width="1.2" opacity="0.55"/>
<line x1="359.40" y1="912" x2="359.40" y2="1142" stroke="#c94f2d" stroke-width="1.2" opacity="0.55"/>
<path d="M 95.08,963.73 L 98.71,970.19 L 107.62,965.45 L 118.40,957.46 L 124.33,961.94 L 133.36,956.37 L 140.91,954.73 L 149.43,957.43 L 157.75,953.15 L 165.72,958.92 L 175.97,954.83 L 182.65,959.69 L 191.47,962.90 L 200.55,957.89 L 208.15,963.99 L 217.18,957.85 L 225.16,960.61 L 234.21,960.03 L 246.29,954.08 L 250.66,958.42 L 258.63,953.59 L 267.02,954.40 L 275.05,957.30 L 286.37,953.03 L 293.28,958.88 L 299.97,955.35 L 309.01,955.75 L 317.27,960.14 L 325.69,955.50 L 334.89,958.97 L 343.02,960.08 L 351.20,1051.24 L 359.40,1119.74 L 368.31,1098.00 L 376.00,1072.81 L 384.36,1021.89 L 393.37,1010.16 L 401.27,989.91 L 410.59,991.83 L 418.61,961.21 L 427.55,956.19 L 435.90,941.55 L 444.73,937.44 L 452.18,941.52 L 461.21,940.78 L 468.83,947.04 L 476.76,950.39 L 487.03,945.18 L 496.35,953.10 L 502.57,952.91 L 510.60,947.22 L 519.82,941.39 L 535.28,944.96 L 544.39,952.85 L 552.36,951.17 L 563.71,947.46 L 569.41,960.57 L 577.49,961.12 L 586.71,960.00 L 595.28,954.42 L 603.04,957.52 L 612.99,957.99 L 622.13,952.05 L 628.05,954.76 L 636.18,950.49 L 644.63,947.93 L 654.35,951.36 L 661.81,948.20 L 670.12,953.38 L 678.16,950.22 L 686.91,953.16 L 695.11,956.79 L 705.38,952.70 L 712.45,955.85 L 721.36,951.01 L 728.86,951.25 L 737.23,951.51 L 747.69,947.61 L 754.43,952.17 L 762.45,948.83 L 770.95,949.98 L 779.34,952.92 L 788.53,949.39 L 795.94,953.77 L 804.36,949.87 L 812.64,945.96 L 823.64,942.62 L 832.29,939.83 L 837.97,937.79 L 847.22,936.30 L 855.16,935.56 L 862.91,935.00 L 875.66,934.63 L 880.97,934.26 L 890.31,934.26 L 897.22,934.26 L 905.44,934.63 L 914.10,935.00 L 922.66,934.82 L 930.92,934.44" fill="none" stroke="#c94f2d" stroke-width="2"/>
<path d="M 95.08,957.85 L 98.71,957.85 L 107.62,957.85 L 118.40,957.85 L 124.33,957.85 L 133.36,957.85 L 140.91,957.85 L 149.43,957.85 L 157.75,957.85 L 165.72,957.85 L 175.97,957.85 L 182.65,957.85 L 191.47,957.85 L 200.55,957.85 L 208.15,957.85 L 217.18,957.85 L 225.16,957.85 L 234.21,957.85 L 246.29,957.85 L 250.66,957.85 L 258.63,957.85 L 267.02,957.85 L 275.05,957.85 L 286.37,957.85 L 293.28,957.85 L 299.97,957.85 L 309.01,957.85 L 317.27,957.85 L 325.69,957.85 L 334.89,957.85 L 343.02,957.85 L 351.20,957.85 L 359.40,957.85 L 368.31,957.85 L 376.00,957.85 L 384.36,957.85 L 393.37,957.85 L 401.27,957.85 L 410.59,957.85 L 418.61,957.85 L 427.55,957.85 L 435.90,957.85 L 444.73,957.85 L 452.18,957.85 L 461.21,957.85 L 468.83,957.85 L 476.76,957.85 L 487.03,957.85 L 496.35,957.85 L 502.57,957.85 L 510.60,957.85 L 519.82,957.85 L 535.28,957.85 L 544.39,957.85 L 552.36,957.85 L 563.71,957.85 L 569.41,957.85 L 577.49,957.85 L 586.71,957.85 L 595.28,957.85 L 603.04,957.85 L 612.99,957.85 L 622.13,957.85 L 628.05,957.85 L 636.18,957.85 L 644.63,957.85 L 654.35,957.85 L 661.81,957.85 L 670.12,957.85 L 678.16,957.85 L 686.91,957.85 L 695.11,957.85 L 705.38,957.85 L 712.45,957.85 L 721.36,957.85 L 728.86,957.85 L 737.23,957.85 L 747.69,957.85 L 754.43,957.85 L 762.45,957.85 L 770.95,957.85 L 779.34,957.85 L 788.53,957.85 L 795.94,957.85 L 804.36,957.85 L 812.64,957.85 L 823.64,957.85 L 832.29,957.85 L 837.97,957.85 L 847.22,957.85 L 855.16,957.85 L 862.91,957.85 L 875.66,957.85 L 880.97,957.85 L 890.31,957.85 L 897.22,957.85 L 905.44,957.85 L 914.10,957.85 L 922.66,957.85 L 930.92,957.85" fill="none" stroke="#8a94a3" stroke-width="2" stroke-dasharray="6 4"/>
<line class="axis" x1="70" y1="1142" x2="956" y2="1142"/>
<line class="axis" x1="70" y1="912" x2="70" y2="1142"/>
<text class="label" x="18" y="1027.00" transform="rotate(-90 18 1027.00)" text-anchor="middle">degrees</text>
<text class="label" x="513.0" y="1178" text-anchor="middle">time relative to event (s)</text>
</svg>