<svg xmlns="http://www.w3.org/2000/svg" viewBox="0 0 980 1186" role="img">
<style>
.axis{stroke:#718096;stroke-width:1}.grid{stroke:#e5eaf0;stroke-width:1}.label{font:12px sans-serif;fill:#5a6675}.title{font:700 18px sans-serif;fill:#20242a}.subtitle{font:12px sans-serif;fill:#5a6675}.panel-title{font:700 13px sans-serif;fill:#20242a}
</style>
<rect width="980" height="1186" fill="#ffffff"/>
<text class="title" x="70" y="28">Motion disturbance example 23: event 296</text>
<text class="subtitle" x="70" y="50">Start pitch -1.1 deg, yaw 26.1 deg; target motion 3.1 deg; disturbance vector 0.45 deg.</text>
<line x1="70" y1="76" x2="94" y2="76" stroke="#48525f" stroke-width="2" stroke-dasharray="6 4"/>
<text class="label" x="100" y="80">target</text>
<line x1="200" y1="76" x2="224" y2="76" stroke="#1769aa" stroke-width="2"/>
<text class="label" x="230" y="80">pitch actual</text>
<line x1="338" y1="76" x2="362" y2="76" stroke="#c94f2d" stroke-width="2"/>
<text class="label" x="368" y="80">yaw actual</text>
<line x1="468" y1="76" x2="492" y2="76" stroke="#1769aa" stroke-width="2"/>
<text class="label" x="498" y="80">pitch disturbance</text>
<line x1="641" y1="76" x2="665" y2="76" stroke="#8a94a3" stroke-width="2" stroke-dasharray="6 4"/>
<text class="label" x="671" y="80">zero baseline</text>
<line x1="786" y1="76" x2="810" y2="76" stroke="#c94f2d" stroke-width="2"/>
<text class="label" x="816" y="80">yaw disturbance</text>
<text class="panel-title" x="70" y="96">Pitch position</text>
<line class="grid" x1="70" y1="338.00" x2="956" y2="338.00"/>
<text class="label" x="62" y="342.00" text-anchor="end">-3.4</text>
<line class="grid" x1="70" y1="280.50" x2="956" y2="280.50"/>
<text class="label" x="62" y="284.50" text-anchor="end">-2.4</text>
<line class="grid" x1="70" y1="223.00" x2="956" y2="223.00"/>
<text class="label" x="62" y="227.00" text-anchor="end">-1.4</text>
<line class="grid" x1="70" y1="165.50" x2="956" y2="165.50"/>
<text class="label" x="62" y="169.50" text-anchor="end">-0.5</text>
<line class="grid" x1="70" y1="108.00" x2="956" y2="108.00"/>
<text class="label" x="62" y="112.00" text-anchor="end">0.5</text>
<line class="grid" x1="70.00" y1="108" x2="70.00" y2="338"/>
<line class="grid" x1="217.67" y1="108" x2="217.67" y2="338"/>
<line class="grid" x1="365.33" y1="108" x2="365.33" y2="338"/>
<line class="grid" x1="513.00" y1="108" x2="513.00" y2="338"/>
<line class="grid" x1="660.67" y1="108" x2="660.67" y2="338"/>
<line class="grid" x1="808.33" y1="108" x2="808.33" y2="338"/>
<line class="grid" x1="956.00" y1="108" x2="956.00" y2="338"/>
<line x1="300.40" y1="108" x2="300.40" y2="338" stroke="#20242a" stroke-width="1.2" opacity="0.55"/>
<text class="label" x="304.40" y="120.00" transform="rotate(-35 304.40 120.00)">fire</text>
<line x1="345.09" y1="108" x2="345.09" y2="338" stroke="#6b7280" stroke-width="1.2" opacity="0.55"/>
<text class="label" x="349.09" y="120.00" transform="rotate(-35 349.09 120.00)">muzzle</text>
<line x1="485.91" y1="108" x2="485.91" y2="338" stroke="#6b7280" stroke-width="1.2" opacity="0.55"/>
<text class="label" x="489.91" y="120.00" transform="rotate(-35 489.91 120.00)">impact</text>
<line x1="724.79" y1="108" x2="724.79" y2="338" stroke="#1769aa" stroke-width="1.2" opacity="0.55"/>
<text class="label" x="728.79" y="120.00" transform="rotate(-35 728.79 120.00)">pitch peak</text>
<line x1="640.58" y1="108" x2="640.58" y2="338" stroke="#c94f2d" stroke-width="1.2" opacity="0.55"/>
<text class="label" x="644.58" y="120.00" transform="rotate(-35 644.58 120.00)">yaw peak</text>
<path d="M 95.95,149.64 L 104.69,155.39 L 112.60,159.66 L 124.09,159.66 L 130.00,163.30 L 137.65,166.92 L 146.72,166.92 L 165.41,174.31 L 172.92,179.09 L 180.53,179.09 L 189.19,182.43 L 197.35,189.53 L 206.84,189.53 L 214.46,196.10 L 223.21,196.10 L 231.33,202.23 L 240.50,202.23 L 248.41,212.26 L 257.48,217.11 L 265.63,217.11 L 274.21,223.38 L 282.68,228.04 L 294.68,228.04 L 301.54,228.04 L 308.26,233.00 L 316.99,236.51 L 325.32,242.76 L 333.61,242.76 L 353.01,254.01 L 359.77,254.01 L 367.72,256.77 L 376.52,256.77 L 385.53,263.27 L 393.21,263.27 L 410.47,274.15 L 427.46,277.48 L 437.27,277.48 L 444.00,283.07 L 452.93,288.42 L 461.63,288.42 L 472.09,295.94 L 479.77,295.94 L 486.51,302.18 L 497.22,302.18 L 506.58,307.05 L 512.61,312.91 L 522.67,312.91 L 530.30,315.18 L 539.88,315.18 L 555.96,315.18 L 564.82,315.18 L 571.50,315.18 L 584.63,315.18 L 597.26,315.18 L 605.78,315.18 L 614.40,315.18 L 623.95,315.18 L 639.80,315.18 L 648.39,315.18 L 656.47,315.18 L 665.77,315.18 L 677.52,315.18 L 682.90,315.18 L 691.99,315.18 L 699.04,315.18 L 709.39,315.18 L 724.79,315.18 L 735.18,315.18 L 742.45,315.18 L 751.77,315.18 L 767.76,315.18 L 792.72,315.18 L 810.47,315.18 L 818.27,315.18 L 827.97,315.18 L 836.69,315.18 L 852.60,315.18 L 860.92,315.18 L 869.72,315.18 L 878.03,315.18 L 894.94,315.18 L 903.79,315.18 L 911.94,315.18 L 921.22,315.18" fill="none" stroke="#48525f" stroke-width="2" stroke-dasharray="6 4"/>
<path d="M 95.95,130.26 L 104.69,133.67 L 112.60,136.76 L 124.09,139.85 L 130.00,142.94 L 137.65,145.72 L 146.72,148.38 L 165.41,153.82 L 172.92,156.48 L 180.53,159.04 L 189.19,162.02 L 197.35,164.90 L 206.84,167.89 L 214.46,171.09 L 223.21,174.28 L 231.33,177.59 L 240.50,180.89 L 248.41,184.41 L 257.48,187.93 L 265.63,191.23 L 274.21,194.75 L 282.68,198.80 L 294.68,202.53 L 301.54,206.48 L 308.26,210.31 L 316.99,213.83 L 325.32,216.92 L 333.61,219.91 L 353.01,225.88 L 359.77,229.18 L 367.72,232.81 L 376.52,236.54 L 385.53,239.95 L 393.21,242.93 L 410.47,249.22 L 427.46,255.30 L 437.27,258.50 L 444.00,261.80 L 452.93,264.68 L 461.63,267.45 L 472.09,269.90 L 479.77,272.68 L 486.51,275.66 L 497.22,278.86 L 506.58,282.59 L 512.61,286.21 L 522.67,290.05 L 530.30,293.78 L 539.88,297.19 L 555.96,303.16 L 564.82,305.51 L 571.50,307.43 L 584.63,308.92 L 597.26,310.84 L 605.78,311.48 L 614.40,312.01 L 623.95,312.44 L 639.80,313.29 L 648.39,313.61 L 656.47,313.82 L 665.77,314.04 L 677.52,314.36 L 682.90,314.46 L 691.99,314.68 L 699.04,314.78 L 709.39,314.89 L 724.79,315.10 L 735.18,315.21 L 742.45,315.21 L 751.77,315.32 L 767.76,315.42 L 792.72,315.53 L 810.47,315.64 L 818.27,315.64 L 827.97,315.64 L 836.69,315.64 L 852.60,315.64 L 860.92,315.64 L 869.72,315.64 L 878.03,315.64 L 894.94,315.64 L 903.79,315.64 L 911.94,315.74 L 921.22,315.74" fill="none" stroke="#1769aa" stroke-width="2"/>
<line class="axis" x1="70" y1="338" x2="956" y2="338"/>
<line class="axis" x1="70" y1="108" x2="70" y2="338"/>
<text class="label" x="18" y="223.00" transform="rotate(-90 18 223.00)" text-anchor="middle">degrees</text>
<text class="panel-title" x="70" y="364">Yaw position</text>
<line class="grid" x1="70" y1="606.00" x2="956" y2="606.00"/>
<text class="label" x="62" y="610.00" text-anchor="end">24.7</text>
<line class="grid" x1="70" y1="548.50" x2="956" y2="548.50"/>
<text class="label" x="62" y="552.50" text-anchor="end">25.8</text>
<line class="grid" x1="70" y1="491.00" x2="956" y2="491.00"/>
<text class="label" x="62" y="495.00" text-anchor="end">26.9</text>
<line class="grid" x1="70" y1="433.50" x2="956" y2="433.50"/>
<text class="label" x="62" y="437.50" text-anchor="end">28.0</text>
<line class="grid" x1="70" y1="376.00" x2="956" y2="376.00"/>
<text class="label" x="62" y="380.00" text-anchor="end">29.2</text>
<line class="grid" x1="70.00" y1="376" x2="70.00" y2="606"/>
<line class="grid" x1="217.67" y1="376" x2="217.67" y2="606"/>
<line class="grid" x1="365.33" y1="376" x2="365.33" y2="606"/>
<line class="grid" x1="513.00" y1="376" x2="513.00" y2="606"/>
<line class="grid" x1="660.67" y1="376" x2="660.67" y2="606"/>
<line class="grid" x1="808.33" y1="376" x2="808.33" y2="606"/>
<line class="grid" x1="956.00" y1="376" x2="956.00" y2="606"/>
<line x1="300.40" y1="376" x2="300.40" y2="606" stroke="#20242a" stroke-width="1.2" opacity="0.55"/>
<line x1="345.09" y1="376" x2="345.09" y2="606" stroke="#6b7280" stroke-width="1.2" opacity="0.55"/>
<line x1="485.91" y1="376" x2="485.91" y2="606" stroke="#6b7280" stroke-width="1.2" opacity="0.55"/>
<line x1="724.79" y1="376" x2="724.79" y2="606" stroke="#1769aa" stroke-width="1.2" opacity="0.55"/>
<line x1="640.58" y1="376" x2="640.58" y2="606" stroke="#c94f2d" stroke-width="1.2" opacity="0.55"/>
<path d="M 95.08,576.12 L 104.21,573.33 L 112.17,570.69 L 122.08,570.69 L 129.52,564.54 L 138.43,560.36 L 146.23,560.36 L 156.38,555.52 L 163.14,555.52 L 181.38,550.70 L 188.74,546.36 L 197.76,546.45 L 208.89,546.45 L 216.25,540.66 L 226.82,538.68 L 231.78,538.68 L 243.27,538.68 L 250.29,532.89 L 259.08,532.48 L 268.01,532.48 L 273.79,528.36 L 283.49,525.11 L 291.84,525.11 L 299.93,525.11 L 309.76,518.90 L 317.65,515.21 L 329.79,512.27 L 339.08,512.27 L 344.76,510.92 L 350.57,510.92 L 361.69,509.20 L 369.03,504.42 L 386.11,501.85 L 393.96,501.85 L 402.49,498.82 L 414.56,495.34 L 420.49,495.34 L 428.84,490.90 L 435.69,490.90 L 444.83,486.28 L 454.28,482.82 L 463.47,482.82 L 470.26,479.93 L 487.62,477.00 L 505.59,474.45 L 511.94,474.53 L 529.02,470.34 L 537.82,467.22 L 547.55,467.22 L 554.76,462.41 L 563.24,458.94 L 574.29,458.94 L 580.58,454.71 L 590.33,454.71 L 598.24,452.95 L 622.62,446.99 L 633.93,446.99 L 640.58,448.41 L 650.88,445.61 L 656.90,445.61 L 675.54,442.02 L 682.30,438.60 L 694.65,435.61 L 699.49,435.61 L 707.76,431.87 L 718.13,431.87 L 725.28,430.05 L 733.89,430.05 L 741.76,425.98 L 754.45,423.28 L 760.32,423.28 L 768.46,420.84 L 776.40,418.62 L 784.65,418.62 L 794.30,415.89 L 804.12,415.89 L 809.85,413.13 L 819.66,410.59 L 826.80,410.59 L 846.65,408.59 L 853.14,406.90 L 862.49,406.90 L 869.26,405.16 L 879.77,403.71 L 889.59,403.71 L 895.41,401.80 L 912.41,400.44 L 922.72,398.26 L 930.92,398.26" fill="none" stroke="#48525f" stroke-width="2" stroke-dasharray="6 4"/>
<path d="M 95.08,583.74 L 104.21,581.63 L 112.17,579.88 L 122.08,578.14 L 129.52,576.30 L 138.43,574.10 L 146.23,571.71 L 156.38,568.68 L 163.14,566.20 L 181.38,560.23 L 188.74,557.29 L 197.76,554.26 L 208.89,552.06 L 216.25,550.22 L 226.82,548.75 L 231.78,546.36 L 243.27,544.44 L 250.29,543.06 L 259.08,541.77 L 268.01,540.49 L 273.79,538.83 L 283.49,537.00 L 291.84,534.61 L 299.93,532.13 L 309.76,529.74 L 317.65,527.81 L 329.79,525.52 L 339.08,522.40 L 344.76,519.82 L 350.57,517.71 L 361.69,515.60 L 369.03,513.49 L 386.11,509.63 L 393.96,507.79 L 402.49,506.32 L 414.56,504.49 L 420.49,502.83 L 428.84,500.81 L 435.69,498.79 L 444.83,496.68 L 454.28,494.57 L 463.47,492.18 L 470.26,489.89 L 487.62,485.20 L 505.59,481.16 L 511.94,479.32 L 529.02,476.75 L 537.82,475.65 L 547.55,474.18 L 554.76,472.90 L 563.24,471.24 L 574.29,468.95 L 580.58,466.28 L 590.33,463.71 L 598.24,460.77 L 622.62,454.44 L 633.93,452.88 L 640.58,451.13 L 650.88,450.21 L 656.90,449.57 L 675.54,447.83 L 682.30,446.91 L 694.65,445.44 L 699.49,443.78 L 707.76,441.58 L 718.13,439.38 L 725.28,436.99 L 733.89,434.88 L 741.76,433.13 L 754.45,431.20 L 760.32,429.46 L 768.46,427.80 L 776.40,426.34 L 784.65,424.96 L 794.30,423.21 L 804.12,421.56 L 809.85,419.91 L 819.66,418.25 L 826.80,416.78 L 846.65,413.57 L 853.14,412.10 L 862.49,410.72 L 869.26,409.44 L 879.77,408.24 L 889.59,407.05 L 895.41,406.13 L 912.41,404.29 L 922.72,403.38 L 930.92,402.37" fill="none" stroke="#c94f2d" stroke-width="2"/>
<line class="axis" x1="70" y1="606" x2="956" y2="606"/>
<line class="axis" x1="70" y1="376" x2="70" y2="606"/>
<text class="label" x="18" y="491.00" transform="rotate(-90 18 491.00)" text-anchor="middle">degrees</text>
<text class="panel-title" x="70" y="632">Pitch disturbance while moving</text>
<line class="grid" x1="70" y1="874.00" x2="956" y2="874.00"/>
<text class="label" x="62" y="878.00" text-anchor="end">-0.5</text>
<line class="grid" x1="70" y1="816.50" x2="956" y2="816.50"/>
<text class="label" x="62" y="820.50" text-anchor="end">-0.4</text>
<line class="grid" x1="70" y1="759.00" x2="956" y2="759.00"/>
<text class="label" x="62" y="763.00" text-anchor="end">-0.2</text>
<line class="grid" x1="70" y1="701.50" x2="956" y2="701.50"/>
<text class="label" x="62" y="705.50" text-anchor="end">-0.0</text>
<line class="grid" x1="70" y1="644.00" x2="956" y2="644.00"/>
<text class="label" x="62" y="648.00" text-anchor="end">0.2</text>
<line class="grid" x1="70.00" y1="644" x2="70.00" y2="874"/>
<line class="grid" x1="217.67" y1="644" x2="217.67" y2="874"/>
<line class="grid" x1="365.33" y1="644" x2="365.33" y2="874"/>
<line class="grid" x1="513.00" y1="644" x2="513.00" y2="874"/>
<line class="grid" x1="660.67" y1="644" x2="660.67" y2="874"/>
<line class="grid" x1="808.33" y1="644" x2="808.33" y2="874"/>
<line class="grid" x1="956.00" y1="644" x2="956.00" y2="874"/>
<line x1="300.40" y1="644" x2="300.40" y2="874" stroke="#20242a" stroke-width="1.2" opacity="0.55"/>
<line x1="345.09" y1="644" x2="345.09" y2="874" stroke="#6b7280" stroke-width="1.2" opacity="0.55"/>
<line x1="485.91" y1="644" x2="485.91" y2="874" stroke="#6b7280" stroke-width="1.2" opacity="0.55"/>
<line x1="724.79" y1="644" x2="724.79" y2="874" stroke="#1769aa" stroke-width="1.2" opacity="0.55"/>
<line x1="640.58" y1="644" x2="640.58" y2="874" stroke="#c94f2d" stroke-width="1.2" opacity="0.55"/>
<path d="M 95.95,731.13 L 104.69,718.23 L 112.60,711.74 L 124.09,728.81 L 130.00,725.74 L 137.65,721.08 L 146.72,735.80 L 165.41,724.97 L 172.92,713.34 L 180.53,727.47 L 189.19,725.47 L 197.35,702.16 L 206.84,718.65 L 214.46,700.03 L 223.21,717.69 L 231.33,702.08 L 240.50,720.33 L 248.41,684.37 L 257.48,677.04 L 265.63,695.29 L 274.21,680.09 L 282.68,676.71 L 294.68,697.31 L 301.54,719.10 L 308.26,712.91 L 316.99,712.95 L 325.32,695.51 L 333.61,711.99 L 353.01,682.79 L 359.77,701.04 L 367.72,705.81 L 376.52,726.42 L 385.53,709.41 L 393.21,725.90 L 410.47,700.51 L 427.46,715.71 L 437.27,733.37 L 444.00,720.75 L 452.93,707.05 L 461.63,722.36 L 472.09,694.37 L 479.77,709.68 L 486.51,691.73 L 497.22,709.39 L 506.58,703.12 L 512.61,690.75 L 522.67,711.94 L 530.30,720.01 L 539.88,738.85 L 555.96,771.82 L 564.82,784.77 L 571.50,795.37 L 584.63,803.61 L 597.26,814.21 L 605.78,817.74 L 614.40,820.69 L 623.95,823.04 L 639.80,827.75 L 648.39,829.52 L 656.47,830.69 L 665.77,831.87 L 677.52,833.64 L 682.90,834.23 L 691.99,835.40 L 699.04,835.99 L 709.39,836.58 L 724.79,837.76 L 735.18,838.35 L 742.45,838.35 L 751.77,838.94 L 767.76,839.53 L 792.72,840.11 L 810.47,840.70 L 818.27,840.70 L 827.97,840.70 L 836.69,840.70 L 852.60,840.70 L 860.92,840.70 L 869.72,840.70 L 878.03,840.70 L 894.94,840.70 L 903.79,840.70 L 911.94,841.29 L 921.22,841.29" fill="none" stroke="#1769aa" stroke-width="2"/>
<path d="M 95.95,697.66 L 104.69,697.66 L 112.60,697.66 L 124.09,697.66 L 130.00,697.66 L 137.65,697.66 L 146.72,697.66 L 165.41,697.66 L 172.92,697.66 L 180.53,697.66 L 189.19,697.66 L 197.35,697.66 L 206.84,697.66 L 214.46,697.66 L 223.21,697.66 L 231.33,697.66 L 240.50,697.66 L 248.41,697.66 L 257.48,697.66 L 265.63,697.66 L 274.21,697.66 L 282.68,697.66 L 294.68,697.66 L 301.54,697.66 L 308.26,697.66 L 316.99,697.66 L 325.32,697.66 L 333.61,697.66 L 353.01,697.66 L 359.77,697.66 L 367.72,697.66 L 376.52,697.66 L 385.53,697.66 L 393.21,697.66 L 410.47,697.66 L 427.46,697.66 L 437.27,697.66 L 444.00,697.66 L 452.93,697.66 L 461.63,697.66 L 472.09,697.66 L 479.77,697.66 L 486.51,697.66 L 497.22,697.66 L 506.58,697.66 L 512.61,697.66 L 522.67,697.66 L 530.30,697.66 L 539.88,697.66 L 555.96,697.66 L 564.82,697.66 L 571.50,697.66 L 584.63,697.66 L 597.26,697.66 L 605.78,697.66 L 614.40,697.66 L 623.95,697.66 L 639.80,697.66 L 648.39,697.66 L 656.47,697.66 L 665.77,697.66 L 677.52,697.66 L 682.90,697.66 L 691.99,697.66 L 699.04,697.66 L 709.39,697.66 L 724.79,697.66 L 735.18,697.66 L 742.45,697.66 L 751.77,697.66 L 767.76,697.66 L 792.72,697.66 L 810.47,697.66 L 818.27,697.66 L 827.97,697.66 L 836.69,697.66 L 852.60,697.66 L 860.92,697.66 L 869.72,697.66 L 878.03,697.66 L 894.94,697.66 L 903.79,697.66 L 911.94,697.66 L 921.22,697.66" fill="none" stroke="#8a94a3" stroke-width="2" stroke-dasharray="6 4"/>
<line class="axis" x1="70" y1="874" x2="956" y2="874"/>
<line class="axis" x1="70" y1="644" x2="70" y2="874"/>
<text class="label" x="18" y="759.00" transform="rotate(-90 18 759.00)" text-anchor="middle">degrees</text>
<text class="panel-title" x="70" y="900">Yaw disturbance while moving</text>
<line class="grid" x1="70" y1="1142.00" x2="956" y2="1142.00"/>
<text class="label" x="62" y="1146.00" text-anchor="end">-0.2</text>
<line class="grid" x1="70" y1="1084.50" x2="956" y2="1084.50"/>
<text class="label" x="62" y="1088.50" text-anchor="end">-0.1</text>
<line class="grid" x1="70" y1="1027.00" x2="956" y2="1027.00"/>
<text class="label" x="62" y="1031.00" text-anchor="end">0.0</text>
<line class="grid" x1="70" y1="969.50" x2="956" y2="969.50"/>
<text class="label" x="62" y="973.50" text-anchor="end">0.1</text>
<line class="grid" x1="70" y1="912.00" x2="956" y2="912.00"/>
<text class="label" x="62" y="916.00" text-anchor="end">0.2</text>
<line class="grid" x1="70.00" y1="912" x2="70.00" y2="1142"/>
<text class="label" x="70.00" y="1162" text-anchor="middle">-0.27</text>
<line class="grid" x1="217.67" y1="912" x2="217.67" y2="1142"/>
<text class="label" x="217.67" y="1162" text-anchor="middle">-0.10</text>
<line class="grid" x1="365.33" y1="912" x2="365.33" y2="1142"/>
<text class="label" x="365.33" y="1162" text-anchor="middle">0.08</text>
<line class="grid" x1="513.00" y1="912" x2="513.00" y2="1142"/>
<text class="label" x="513.00" y="1162" text-anchor="middle">0.25</text>
<line class="grid" x1="660.67" y1="912" x2="660.67" y2="1142"/>
<text class="label" x="660.67" y="1162" text-anchor="middle">0.42</text>
<line class="grid" x1="808.33" y1="912" x2="808.33" y2="1142"/>
<text class="label" x="808.33" y="1162" text-anchor="middle">0.60</text>
<line class="grid" x1="956.00" y1="912" x2="956.00" y2="1142"/>
<text class="label" x="956.00" y="1162" text-anchor="middle">0.77</text>
<line x1="300.40" y1="912" x2="300.40" y2="1142" stroke="#20242a" stroke-width="1.2" opacity="0.55"/>
<line x1="345.09" y1="912" x2="345.09" y2="1142" stroke="#6b7280" stroke-width="1.2" opacity="0.55"/>
<line x1="485.91" y1="912" x2="485.91" y2="1142" stroke="#6b7280" stroke-width="1.2" opacity="0.55"/>
<line x1="724.79" y1="912" x2="724.79" y2="1142" stroke="#1769aa" stroke-width="1.2" opacity="0.55"/>
<line x1="640.58" y1="912" x2="640.58" y2="1142" stroke="#c94f2d" stroke-width="1.2" opacity="0.55"/>
<path d="M 95.08,1020.44 L 104.21,1027.75 L 112.17,1037.42 L 122.08,1018.51 L 129.52,1065.29 L 138.43,1086.71 L 146.23,1060.84 L 156.38,1080.40 L 163.14,1053.53 L 181.38,1041.12 L 188.74,1056.31 L 197.76,1022.49 L 208.89,998.61 L 216.25,1041.44 L 226.82,1046.92 L 231.78,1021.04 L 243.27,1000.14 L 250.29,1048.01 L 259.08,1038.50 L 268.01,1024.57 L 273.79,1051.32 L 283.49,1066.65 L 291.84,1040.77 L 299.93,1013.90 L 309.76,1055.36 L 317.65,1074.41 L 329.79,1081.37 L 339.08,1047.54 L 344.76,1034.28 L 350.57,1011.39 L 361.69,1007.22 L 369.03,1036.12 L 386.11,1022.14 L 393.96,1002.23 L 402.49,1019.16 L 414.56,1036.97 L 420.49,1019.05 L 428.84,1045.25 L 435.69,1023.36 L 444.83,1050.58 L 454.28,1065.12 L 463.47,1039.25 L 470.26,1045.71 L 487.62,1026.70 L 505.59,1010.57 L 511.94,989.74 L 529.02,1007.34 L 537.82,1029.21 L 547.55,1013.29 L 554.76,1051.50 L 563.24,1071.10 L 574.29,1046.22 L 580.58,1063.26 L 590.33,1035.40 L 598.24,1022.55 L 622.62,1018.48 L 633.93,1001.56 L 640.58,967.29 L 650.88,987.73 L 656.90,980.76 L 675.54,1000.75 L 682.30,1027.86 L 694.65,1044.34 L 699.49,1026.42 L 707.76,1043.03 L 718.13,1019.15 L 725.28,1013.01 L 733.89,990.12 L 741.76,1015.29 L 754.45,1023.70 L 760.32,1004.80 L 768.46,1013.29 L 776.40,1021.46 L 784.65,1006.54 L 794.30,1017.14 L 804.12,999.23 L 809.85,1011.29 L 819.66,1020.85 L 826.80,1004.93 L 846.65,991.75 L 853.14,994.16 L 862.49,979.23 L 869.26,984.18 L 879.77,986.92 L 889.59,973.98 L 895.41,984.71 L 912.41,979.60 L 922.72,993.28 L 930.92,982.34" fill="none" stroke="#c94f2d" stroke-width="2"/>
<path d="M 95.08,1038.50 L 104.21,1038.50 L 112.17,1038.50 L 122.08,1038.50 L 129.52,1038.50 L 138.43,1038.50 L 146.23,1038.50 L 156.38,1038.50 L 163.14,1038.50 L 181.38,1038.50 L 188.74,1038.50 L 197.76,1038.50 L 208.89,1038.50 L 216.25,1038.50 L 226.82,1038.50 L 231.78,1038.50 L 243.27,1038.50 L 250.29,1038.50 L 259.08,1038.50 L 268.01,1038.50 L 273.79,1038.50 L 283.49,1038.50 L 291.84,1038.50 L 299.93,1038.50 L 309.76,1038.50 L 317.65,1038.50 L 329.79,1038.50 L 339.08,1038.50 L 344.76,1038.50 L 350.57,1038.50 L 361.69,1038.50 L 369.03,1038.50 L 386.11,1038.50 L 393.96,1038.50 L 402.49,1038.50 L 414.56,1038.50 L 420.49,1038.50 L 428.84,1038.50 L 435.69,1038.50 L 444.83,1038.50 L 454.28,1038.50 L 463.47,1038.50 L 470.26,1038.50 L 487.62,1038.50 L 505.59,1038.50 L 511.94,1038.50 L 529.02,1038.50 L 537.82,1038.50 L 547.55,1038.50 L 554.76,1038.50 L 563.24,1038.50 L 574.29,1038.50 L 580.58,1038.50 L 590.33,1038.50 L 598.24,1038.50 L 622.62,1038.50 L 633.93,1038.50 L 640.58,1038.50 L 650.88,1038.50 L 656.90,1038.50 L 675.54,1038.50 L 682.30,1038.50 L 694.65,1038.50 L 699.49,1038.50 L 707.76,1038.50 L 718.13,1038.50 L 725.28,1038.50 L 733.89,1038.50 L 741.76,1038.50 L 754.45,1038.50 L 760.32,1038.50 L 768.46,1038.50 L 776.40,1038.50 L 784.65,1038.50 L 794.30,1038.50 L 804.12,1038.50 L 809.85,1038.50 L 819.66,1038.50 L 826.80,1038.50 L 846.65,1038.50 L 853.14,1038.50 L 862.49,1038.50 L 869.26,1038.50 L 879.77,1038.50 L 889.59,1038.50 L 895.41,1038.50 L 912.41,1038.50 L 922.72,1038.50 L 930.92,1038.50" fill="none" stroke="#8a94a3" stroke-width="2" stroke-dasharray="6 4"/>
<line class="axis" x1="70" y1="1142" x2="956" y2="1142"/>
<line class="axis" x1="70" y1="912" x2="70" y2="1142"/>
<text class="label" x="18" y="1027.00" transform="rotate(-90 18 1027.00)" text-anchor="middle">degrees</text>
<text class="label" x="513.0" y="1178" text-anchor="middle">time relative to event (s)</text>
</svg>