<svg xmlns="http://www.w3.org/2000/svg" viewBox="0 0 980 1186" role="img">
<style>
.axis{stroke:#718096;stroke-width:1}.grid{stroke:#e5eaf0;stroke-width:1}.label{font:12px sans-serif;fill:#5a6675}.title{font:700 18px sans-serif;fill:#20242a}.subtitle{font:12px sans-serif;fill:#5a6675}.panel-title{font:700 13px sans-serif;fill:#20242a}
</style>
<rect width="980" height="1186" fill="#ffffff"/>
<text class="title" x="70" y="28">Motion disturbance example 24: event 354</text>
<text class="subtitle" x="70" y="50">Start pitch -2.8 deg, yaw 29.8 deg; target motion 3.4 deg; disturbance vector 2.83 deg.</text>
<line x1="70" y1="76" x2="94" y2="76" stroke="#48525f" stroke-width="2" stroke-dasharray="6 4"/>
<text class="label" x="100" y="80">target</text>
<line x1="200" y1="76" x2="224" y2="76" stroke="#1769aa" stroke-width="2"/>
<text class="label" x="230" y="80">pitch actual</text>
<line x1="338" y1="76" x2="362" y2="76" stroke="#c94f2d" stroke-width="2"/>
<text class="label" x="368" y="80">yaw actual</text>
<line x1="468" y1="76" x2="492" y2="76" stroke="#1769aa" stroke-width="2"/>
<text class="label" x="498" y="80">pitch disturbance</text>
<line x1="641" y1="76" x2="665" y2="76" stroke="#8a94a3" stroke-width="2" stroke-dasharray="6 4"/>
<text class="label" x="671" y="80">zero baseline</text>
<line x1="786" y1="76" x2="810" y2="76" stroke="#c94f2d" stroke-width="2"/>
<text class="label" x="816" y="80">yaw disturbance</text>
<text class="panel-title" x="70" y="96">Pitch position</text>
<line class="grid" x1="70" y1="338.00" x2="956" y2="338.00"/>
<text class="label" x="62" y="342.00" text-anchor="end">-5.8</text>
<line class="grid" x1="70" y1="280.50" x2="956" y2="280.50"/>
<text class="label" x="62" y="284.50" text-anchor="end">-4.7</text>
<line class="grid" x1="70" y1="223.00" x2="956" y2="223.00"/>
<text class="label" x="62" y="227.00" text-anchor="end">-3.6</text>
<line class="grid" x1="70" y1="165.50" x2="956" y2="165.50"/>
<text class="label" x="62" y="169.50" text-anchor="end">-2.5</text>
<line class="grid" x1="70" y1="108.00" x2="956" y2="108.00"/>
<text class="label" x="62" y="112.00" text-anchor="end">-1.3</text>
<line class="grid" x1="70.00" y1="108" x2="70.00" y2="338"/>
<line class="grid" x1="217.67" y1="108" x2="217.67" y2="338"/>
<line class="grid" x1="365.33" y1="108" x2="365.33" y2="338"/>
<line class="grid" x1="513.00" y1="108" x2="513.00" y2="338"/>
<line class="grid" x1="660.67" y1="108" x2="660.67" y2="338"/>
<line class="grid" x1="808.33" y1="108" x2="808.33" y2="338"/>
<line class="grid" x1="956.00" y1="108" x2="956.00" y2="338"/>
<line x1="304.23" y1="108" x2="304.23" y2="338" stroke="#20242a" stroke-width="1.2" opacity="0.55"/>
<text class="label" x="308.23" y="120.00" transform="rotate(-35 308.23 120.00)">fire</text>
<line x1="338.35" y1="108" x2="338.35" y2="338" stroke="#6b7280" stroke-width="1.2" opacity="0.55"/>
<text class="label" x="342.35" y="120.00" transform="rotate(-35 342.35 120.00)">muzzle</text>
<line x1="570.63" y1="108" x2="570.63" y2="338" stroke="#6b7280" stroke-width="1.2" opacity="0.55"/>
<text class="label" x="574.63" y="120.00" transform="rotate(-35 574.63 120.00)">impact</text>
<line x1="450.24" y1="108" x2="450.24" y2="338" stroke="#1769aa" stroke-width="1.2" opacity="0.55"/>
<text class="label" x="454.24" y="120.00" transform="rotate(-35 454.24 120.00)">pitch peak</text>
<line x1="365.20" y1="108" x2="365.20" y2="338" stroke="#c94f2d" stroke-width="1.2" opacity="0.55"/>
<text class="label" x="369.20" y="120.00" transform="rotate(-35 369.20 120.00)">yaw peak</text>
<path d="M 95.08,150.98 L 110.77,155.04 L 119.54,155.04 L 127.19,157.98 L 135.49,157.98 L 145.74,162.69 L 153.07,166.97 L 164.12,166.97 L 169.42,170.07 L 179.38,171.43 L 186.48,171.43 L 196.23,175.80 L 204.67,175.80 L 211.44,179.63 L 221.60,181.55 L 229.10,181.55 L 237.06,185.22 L 246.09,185.22 L 254.12,188.54 L 263.88,191.21 L 278.90,194.42 L 289.57,194.42 L 296.44,196.62 L 305.29,199.81 L 313.82,199.81 L 321.75,203.46 L 329.01,203.46 L 337.87,207.41 L 347.67,207.41 L 363.15,221.92 L 374.03,221.92 L 380.47,225.57 L 388.16,225.57 L 397.22,225.57 L 405.78,232.89 L 414.08,232.89 L 423.68,236.51 L 431.03,236.51 L 439.25,236.51 L 450.24,182.81 L 457.39,182.81 L 464.99,168.75 L 472.54,168.75 L 480.94,180.43 L 491.09,180.43 L 498.29,206.38 L 506.45,206.38 L 514.54,235.38 L 522.90,235.38 L 532.77,248.24 L 540.57,248.24 L 548.27,248.24 L 556.97,248.24 L 565.57,248.24 L 575.02,248.24 L 582.25,248.24 L 591.39,261.31 L 599.52,261.31 L 624.02,265.55 L 632.51,265.55 L 640.62,265.55 L 658.59,265.55 L 665.83,265.55 L 674.96,265.55 L 691.99,265.55 L 700.46,265.55 L 709.31,265.55 L 718.09,265.55 L 724.75,265.55 L 733.30,265.55 L 742.82,265.55 L 750.40,265.55 L 758.78,265.55 L 775.63,265.55 L 784.56,265.55 L 793.86,265.55 L 800.92,265.55 L 809.05,265.55 L 818.42,265.55 L 827.27,265.55 L 834.86,265.55 L 844.35,265.55 L 853.18,265.55 L 859.87,265.55 L 876.00,265.55 L 885.93,265.55 L 894.74,265.55 L 904.07,265.55 L 909.63,265.55 L 918.56,265.55 L 927.38,265.55" fill="none" stroke="#48525f" stroke-width="2" stroke-dasharray="6 4"/>
<path d="M 95.08,130.26 L 110.77,135.53 L 119.54,138.03 L 127.19,140.62 L 135.49,143.30 L 145.74,145.98 L 153.07,148.21 L 164.12,150.52 L 169.42,152.92 L 179.38,155.33 L 186.48,157.64 L 196.23,159.95 L 204.67,162.27 L 211.44,164.39 L 221.60,166.43 L 229.10,168.56 L 237.06,170.59 L 246.09,172.54 L 254.12,174.57 L 263.88,176.51 L 278.90,180.21 L 289.57,182.06 L 296.44,184.01 L 305.29,185.95 L 313.82,187.80 L 321.75,189.56 L 329.01,191.22 L 337.87,193.17 L 347.67,240.99 L 363.15,268.47 L 374.03,266.43 L 380.47,249.32 L 388.16,247.56 L 397.22,260.79 L 405.78,287.25 L 414.08,314.54 L 423.68,315.74 L 431.03,314.35 L 439.25,301.31 L 450.24,286.14 L 457.39,275.13 L 464.99,268.56 L 472.54,257.28 L 480.94,238.03 L 491.09,222.68 L 498.29,213.89 L 506.45,208.61 L 514.54,207.04 L 522.90,207.50 L 532.77,210.00 L 540.57,212.04 L 548.27,215.18 L 556.97,219.72 L 565.57,225.54 L 575.02,231.19 L 582.25,235.81 L 591.39,238.96 L 599.52,241.09 L 624.02,248.30 L 632.51,250.80 L 640.62,253.39 L 658.59,257.55 L 665.83,258.85 L 674.96,260.05 L 691.99,261.81 L 700.46,262.18 L 709.31,262.55 L 718.09,263.20 L 724.75,263.75 L 733.30,264.03 L 742.82,264.31 L 750.40,264.58 L 758.78,264.77 L 775.63,265.05 L 784.56,265.14 L 793.86,265.23 L 800.92,265.23 L 809.05,265.32 L 818.42,265.42 L 827.27,265.42 L 834.86,265.51 L 844.35,265.51 L 853.18,265.51 L 859.87,265.60 L 876.00,265.69 L 885.93,265.69 L 894.74,265.79 L 904.07,265.88 L 909.63,266.06 L 918.56,266.25 L 927.38,266.43" fill="none" stroke="#1769aa" stroke-width="2"/>
<line class="axis" x1="70" y1="338" x2="956" y2="338"/>
<line class="axis" x1="70" y1="108" x2="70" y2="338"/>
<text class="label" x="18" y="223.00" transform="rotate(-90 18 223.00)" text-anchor="middle">degrees</text>
<text class="panel-title" x="70" y="364">Yaw position</text>
<line class="grid" x1="70" y1="606.00" x2="956" y2="606.00"/>
<text class="label" x="62" y="610.00" text-anchor="end">28.0</text>
<line class="grid" x1="70" y1="548.50" x2="956" y2="548.50"/>
<text class="label" x="62" y="552.50" text-anchor="end">29.4</text>
<line class="grid" x1="70" y1="491.00" x2="956" y2="491.00"/>
<text class="label" x="62" y="495.00" text-anchor="end">30.8</text>
<line class="grid" x1="70" y1="433.50" x2="956" y2="433.50"/>
<text class="label" x="62" y="437.50" text-anchor="end">32.2</text>
<line class="grid" x1="70" y1="376.00" x2="956" y2="376.00"/>
<text class="label" x="62" y="380.00" text-anchor="end">33.6</text>
<line class="grid" x1="70.00" y1="376" x2="70.00" y2="606"/>
<line class="grid" x1="217.67" y1="376" x2="217.67" y2="606"/>
<line class="grid" x1="365.33" y1="376" x2="365.33" y2="606"/>
<line class="grid" x1="513.00" y1="376" x2="513.00" y2="606"/>
<line class="grid" x1="660.67" y1="376" x2="660.67" y2="606"/>
<line class="grid" x1="808.33" y1="376" x2="808.33" y2="606"/>
<line class="grid" x1="956.00" y1="376" x2="956.00" y2="606"/>
<line x1="304.23" y1="376" x2="304.23" y2="606" stroke="#20242a" stroke-width="1.2" opacity="0.55"/>
<line x1="338.35" y1="376" x2="338.35" y2="606" stroke="#6b7280" stroke-width="1.2" opacity="0.55"/>
<line x1="570.63" y1="376" x2="570.63" y2="606" stroke="#6b7280" stroke-width="1.2" opacity="0.55"/>
<line x1="450.24" y1="376" x2="450.24" y2="606" stroke="#1769aa" stroke-width="1.2" opacity="0.55"/>
<line x1="365.20" y1="376" x2="365.20" y2="606" stroke="#c94f2d" stroke-width="1.2" opacity="0.55"/>
<path d="M 102.81,566.63 L 112.05,562.94 L 121.00,562.94 L 127.65,559.15 L 136.87,559.15 L 143.84,556.19 L 154.68,552.66 L 161.45,552.66 L 170.45,547.94 L 179.89,546.16 L 187.33,546.16 L 194.99,543.41 L 203.22,543.41 L 212.07,542.13 L 219.67,542.13 L 230.60,539.04 L 238.37,535.59 L 245.70,535.59 L 253.58,534.10 L 261.87,530.49 L 272.16,530.49 L 280.15,526.93 L 287.16,526.93 L 295.91,523.59 L 306.47,519.95 L 313.28,519.95 L 331.49,517.36 L 338.96,512.93 L 353.34,512.78 L 356.39,512.78 L 365.20,509.62 L 371.82,509.62 L 382.17,506.53 L 390.50,506.53 L 400.10,506.53 L 405.26,500.35 L 415.54,500.35 L 422.81,497.29 L 430.49,497.29 L 440.44,497.29 L 448.14,495.06 L 464.24,489.02 L 473.57,486.29 L 482.63,486.29 L 489.44,486.29 L 497.83,483.89 L 506.05,483.89 L 514.15,485.12 L 525.40,485.12 L 532.09,485.55 L 539.67,485.55 L 548.75,485.55 L 556.53,485.55 L 567.10,485.55 L 573.18,485.55 L 583.24,475.53 L 590.89,475.53 L 599.02,475.53 L 607.13,475.53 L 616.70,468.04 L 623.60,468.04 L 632.99,468.04 L 641.42,446.30 L 649.70,446.30 L 657.99,443.47 L 666.70,440.58 L 674.42,440.58 L 683.54,440.58 L 691.41,440.58 L 701.02,440.58 L 708.34,430.68 L 717.24,430.68 L 725.16,427.53 L 733.75,427.53 L 743.42,424.07 L 750.83,421.52 L 759.30,421.52 L 767.78,417.69 L 777.78,417.69 L 792.34,414.26 L 801.36,410.35 L 809.77,407.92 L 821.30,407.92 L 828.89,404.11 L 835.73,401.55 L 843.05,401.55 L 854.85,398.26 L 861.81,398.26 L 868.57,398.26 L 876.95,398.26 L 885.17,398.26 L 892.96,398.26 L 901.30,481.27 L 910.14,481.27 L 919.55,481.27 L 930.92,480.06" fill="none" stroke="#48525f" stroke-width="2" stroke-dasharray="6 4"/>
<path d="M 102.81,572.19 L 112.05,570.51 L 121.00,569.19 L 127.65,567.66 L 136.87,566.05 L 143.84,564.30 L 154.68,562.25 L 161.45,560.42 L 170.45,558.15 L 179.89,556.33 L 187.33,553.99 L 194.99,551.94 L 203.22,549.97 L 212.07,547.99 L 219.67,546.24 L 230.60,544.78 L 238.37,543.09 L 245.70,541.70 L 253.58,540.32 L 261.87,539.00 L 272.16,537.61 L 280.15,535.71 L 287.16,534.03 L 295.91,532.13 L 306.47,530.08 L 313.28,528.18 L 331.49,523.79 L 338.96,521.75 L 353.34,561.74 L 356.39,564.73 L 365.20,583.74 L 371.82,575.77 L 382.17,552.96 L 390.50,527.01 L 400.10,508.73 L 405.26,505.37 L 415.54,505.22 L 422.81,503.18 L 430.49,506.76 L 440.44,509.10 L 448.14,510.78 L 464.24,504.71 L 473.57,499.16 L 482.63,492.80 L 489.44,487.46 L 497.83,484.31 L 506.05,484.39 L 514.15,484.90 L 525.40,485.27 L 532.09,485.56 L 539.67,486.73 L 548.75,487.39 L 556.53,487.24 L 567.10,486.87 L 573.18,486.51 L 583.24,486.07 L 590.89,485.70 L 599.02,483.88 L 607.13,482.85 L 616.70,481.39 L 623.60,479.42 L 632.99,476.49 L 641.42,474.01 L 649.70,471.74 L 657.99,470.06 L 666.70,467.94 L 674.42,462.82 L 683.54,458.29 L 691.41,453.76 L 701.02,448.86 L 708.34,445.49 L 717.24,441.69 L 725.16,438.04 L 733.75,435.48 L 743.42,433.43 L 750.83,431.17 L 759.30,429.19 L 767.78,427.88 L 777.78,426.41 L 792.34,422.17 L 801.36,419.83 L 809.77,417.20 L 821.30,414.86 L 828.89,412.74 L 835.73,411.06 L 843.05,408.94 L 854.85,407.04 L 861.81,405.28 L 868.57,403.53 L 876.95,401.99 L 885.17,400.68 L 892.96,399.73 L 901.30,398.92 L 910.14,398.78 L 919.55,401.56 L 930.92,409.01" fill="none" stroke="#c94f2d" stroke-width="2"/>
<line class="axis" x1="70" y1="606" x2="956" y2="606"/>
<line class="axis" x1="70" y1="376" x2="70" y2="606"/>
<text class="label" x="18" y="491.00" transform="rotate(-90 18 491.00)" text-anchor="middle">degrees</text>
<text class="panel-title" x="70" y="632">Pitch disturbance while moving</text>
<line class="grid" x1="70" y1="874.00" x2="956" y2="874.00"/>
<text class="label" x="62" y="878.00" text-anchor="end">-2.6</text>
<line class="grid" x1="70" y1="816.50" x2="956" y2="816.50"/>
<text class="label" x="62" y="820.50" text-anchor="end">-1.8</text>
<line class="grid" x1="70" y1="759.00" x2="956" y2="759.00"/>
<text class="label" x="62" y="763.00" text-anchor="end">-0.9</text>
<line class="grid" x1="70" y1="701.50" x2="956" y2="701.50"/>
<text class="label" x="62" y="705.50" text-anchor="end">-0.1</text>
<line class="grid" x1="70" y1="644.00" x2="956" y2="644.00"/>
<text class="label" x="62" y="648.00" text-anchor="end">0.8</text>
<line class="grid" x1="70.00" y1="644" x2="70.00" y2="874"/>
<line class="grid" x1="217.67" y1="644" x2="217.67" y2="874"/>
<line class="grid" x1="365.33" y1="644" x2="365.33" y2="874"/>
<line class="grid" x1="513.00" y1="644" x2="513.00" y2="874"/>
<line class="grid" x1="660.67" y1="644" x2="660.67" y2="874"/>
<line class="grid" x1="808.33" y1="644" x2="808.33" y2="874"/>
<line class="grid" x1="956.00" y1="644" x2="956.00" y2="874"/>
<line x1="304.23" y1="644" x2="304.23" y2="874" stroke="#20242a" stroke-width="1.2" opacity="0.55"/>
<line x1="338.35" y1="644" x2="338.35" y2="874" stroke="#6b7280" stroke-width="1.2" opacity="0.55"/>
<line x1="570.63" y1="644" x2="570.63" y2="874" stroke="#6b7280" stroke-width="1.2" opacity="0.55"/>
<line x1="450.24" y1="644" x2="450.24" y2="874" stroke="#1769aa" stroke-width="1.2" opacity="0.55"/>
<line x1="365.20" y1="644" x2="365.20" y2="874" stroke="#c94f2d" stroke-width="1.2" opacity="0.55"/>
<path d="M 95.08,689.21 L 110.77,690.80 L 119.54,694.08 L 127.19,693.61 L 135.49,697.13 L 145.74,694.48 L 153.07,691.77 L 164.12,694.80 L 169.42,693.89 L 179.38,695.26 L 186.48,698.29 L 196.23,695.60 L 204.67,698.63 L 211.44,696.40 L 221.60,696.55 L 229.10,699.34 L 237.06,697.20 L 246.09,699.74 L 254.12,698.06 L 263.88,697.10 L 278.90,697.74 L 289.57,700.17 L 296.44,699.83 L 305.29,698.20 L 313.82,700.63 L 321.75,698.15 L 329.01,700.33 L 337.87,697.70 L 347.67,760.37 L 363.15,777.35 L 374.03,774.68 L 380.47,747.48 L 388.16,745.17 L 397.22,762.51 L 405.78,787.59 L 414.08,823.35 L 423.68,820.18 L 431.03,818.36 L 439.25,801.27 L 450.24,851.74 L 457.39,837.32 L 464.99,847.13 L 472.54,832.35 L 480.94,791.83 L 491.09,771.71 L 498.29,726.20 L 506.45,719.29 L 514.54,679.22 L 522.90,679.83 L 532.77,666.26 L 540.57,668.92 L 548.27,673.05 L 556.97,678.99 L 565.57,686.62 L 575.02,694.02 L 582.25,700.08 L 591.39,687.08 L 599.52,689.86 L 624.02,693.75 L 632.51,697.03 L 640.62,700.42 L 658.59,705.87 L 665.83,707.57 L 674.96,709.15 L 691.99,711.45 L 700.46,711.93 L 709.31,712.42 L 718.09,713.27 L 724.75,714.00 L 733.30,714.36 L 742.82,714.72 L 750.40,715.09 L 758.78,715.33 L 775.63,715.69 L 784.56,715.81 L 793.86,715.93 L 800.92,715.93 L 809.05,716.06 L 818.42,716.18 L 827.27,716.18 L 834.86,716.30 L 844.35,716.30 L 853.18,716.30 L 859.87,716.42 L 876.00,716.54 L 885.93,716.54 L 894.74,716.66 L 904.07,716.78 L 909.63,717.03 L 918.56,717.27 L 927.38,717.51" fill="none" stroke="#1769aa" stroke-width="2"/>
<path d="M 95.08,697.74 L 110.77,697.74 L 119.54,697.74 L 127.19,697.74 L 135.49,697.74 L 145.74,697.74 L 153.07,697.74 L 164.12,697.74 L 169.42,697.74 L 179.38,697.74 L 186.48,697.74 L 196.23,697.74 L 204.67,697.74 L 211.44,697.74 L 221.60,697.74 L 229.10,697.74 L 237.06,697.74 L 246.09,697.74 L 254.12,697.74 L 263.88,697.74 L 278.90,697.74 L 289.57,697.74 L 296.44,697.74 L 305.29,697.74 L 313.82,697.74 L 321.75,697.74 L 329.01,697.74 L 337.87,697.74 L 347.67,697.74 L 363.15,697.74 L 374.03,697.74 L 380.47,697.74 L 388.16,697.74 L 397.22,697.74 L 405.78,697.74 L 414.08,697.74 L 423.68,697.74 L 431.03,697.74 L 439.25,697.74 L 450.24,697.74 L 457.39,697.74 L 464.99,697.74 L 472.54,697.74 L 480.94,697.74 L 491.09,697.74 L 498.29,697.74 L 506.45,697.74 L 514.54,697.74 L 522.90,697.74 L 532.77,697.74 L 540.57,697.74 L 548.27,697.74 L 556.97,697.74 L 565.57,697.74 L 575.02,697.74 L 582.25,697.74 L 591.39,697.74 L 599.52,697.74 L 624.02,697.74 L 632.51,697.74 L 640.62,697.74 L 658.59,697.74 L 665.83,697.74 L 674.96,697.74 L 691.99,697.74 L 700.46,697.74 L 709.31,697.74 L 718.09,697.74 L 724.75,697.74 L 733.30,697.74 L 742.82,697.74 L 750.40,697.74 L 758.78,697.74 L 775.63,697.74 L 784.56,697.74 L 793.86,697.74 L 800.92,697.74 L 809.05,697.74 L 818.42,697.74 L 827.27,697.74 L 834.86,697.74 L 844.35,697.74 L 853.18,697.74 L 859.87,697.74 L 876.00,697.74 L 885.93,697.74 L 894.74,697.74 L 904.07,697.74 L 909.63,697.74 L 918.56,697.74 L 927.38,697.74" fill="none" stroke="#8a94a3" stroke-width="2" stroke-dasharray="6 4"/>
<line class="axis" x1="70" y1="874" x2="956" y2="874"/>
<line class="axis" x1="70" y1="644" x2="70" y2="874"/>
<text class="label" x="18" y="759.00" transform="rotate(-90 18 759.00)" text-anchor="middle">degrees</text>
<text class="panel-title" x="70" y="900">Yaw disturbance while moving</text>
<line class="grid" x1="70" y1="1142.00" x2="956" y2="1142.00"/>
<text class="label" x="62" y="1146.00" text-anchor="end">-2.1</text>
<line class="grid" x1="70" y1="1084.50" x2="956" y2="1084.50"/>
<text class="label" x="62" y="1088.50" text-anchor="end">-0.9</text>
<line class="grid" x1="70" y1="1027.00" x2="956" y2="1027.00"/>
<text class="label" x="62" y="1031.00" text-anchor="end">0.3</text>
<line class="grid" x1="70" y1="969.50" x2="956" y2="969.50"/>
<text class="label" x="62" y="973.50" text-anchor="end">1.5</text>
<line class="grid" x1="70" y1="912.00" x2="956" y2="912.00"/>
<text class="label" x="62" y="916.00" text-anchor="end">2.7</text>
<line class="grid" x1="70.00" y1="912" x2="70.00" y2="1142"/>
<text class="label" x="70.00" y="1162" text-anchor="middle">-0.28</text>
<line class="grid" x1="217.67" y1="912" x2="217.67" y2="1142"/>
<text class="label" x="217.67" y="1162" text-anchor="middle">-0.10</text>
<line class="grid" x1="365.33" y1="912" x2="365.33" y2="1142"/>
<text class="label" x="365.33" y="1162" text-anchor="middle">0.07</text>
<line class="grid" x1="513.00" y1="912" x2="513.00" y2="1142"/>
<text class="label" x="513.00" y="1162" text-anchor="middle">0.25</text>
<line class="grid" x1="660.67" y1="912" x2="660.67" y2="1142"/>
<text class="label" x="660.67" y="1162" text-anchor="middle">0.42</text>
<line class="grid" x1="808.33" y1="912" x2="808.33" y2="1142"/>
<text class="label" x="808.33" y="1162" text-anchor="middle">0.60</text>
<line class="grid" x1="956.00" y1="912" x2="956.00" y2="1142"/>
<text class="label" x="956.00" y="1162" text-anchor="middle">0.78</text>
<line x1="304.23" y1="912" x2="304.23" y2="1142" stroke="#20242a" stroke-width="1.2" opacity="0.55"/>
<line x1="338.35" y1="912" x2="338.35" y2="1142" stroke="#6b7280" stroke-width="1.2" opacity="0.55"/>
<line x1="570.63" y1="912" x2="570.63" y2="1142" stroke="#6b7280" stroke-width="1.2" opacity="0.55"/>
<line x1="450.24" y1="912" x2="450.24" y2="1142" stroke="#1769aa" stroke-width="1.2" opacity="0.55"/>
<line x1="365.20" y1="912" x2="365.20" y2="1142" stroke="#c94f2d" stroke-width="1.2" opacity="0.55"/>
<path d="M 102.81,1038.53 L 112.05,1040.92 L 121.00,1039.36 L 127.65,1042.02 L 136.87,1040.12 L 143.84,1041.55 L 154.68,1043.31 L 161.45,1041.14 L 170.45,1044.05 L 179.89,1043.99 L 187.33,1041.22 L 194.99,1042.05 L 203.22,1039.72 L 212.07,1038.89 L 219.67,1036.81 L 230.60,1038.75 L 238.37,1040.84 L 245.70,1039.19 L 253.58,1039.32 L 261.87,1042.03 L 272.16,1040.38 L 280.15,1042.35 L 287.16,1040.36 L 295.91,1042.06 L 306.47,1043.95 L 313.28,1041.70 L 331.49,1039.58 L 338.96,1042.40 L 353.34,1089.94 L 356.39,1093.49 L 365.20,1119.74 L 371.82,1110.30 L 382.17,1086.94 L 390.50,1056.20 L 400.10,1034.56 L 405.26,1037.90 L 415.54,1037.72 L 422.81,1038.92 L 430.49,1043.16 L 440.44,1045.94 L 448.14,1050.57 L 464.24,1050.54 L 473.57,1047.19 L 482.63,1039.65 L 489.44,1033.33 L 497.83,1032.46 L 506.05,1032.54 L 514.15,1031.69 L 525.40,1032.12 L 532.09,1031.96 L 539.67,1033.35 L 548.75,1034.13 L 556.53,1033.95 L 567.10,1033.52 L 573.18,1033.09 L 583.24,1044.44 L 590.89,1044.00 L 599.02,1041.84 L 607.13,1040.63 L 616.70,1047.76 L 623.60,1045.42 L 632.99,1041.96 L 641.42,1064.76 L 649.70,1062.08 L 657.99,1063.44 L 666.70,1064.35 L 674.42,1058.29 L 683.54,1052.92 L 691.41,1047.55 L 701.02,1041.75 L 708.34,1049.49 L 717.24,1044.99 L 725.16,1044.40 L 733.75,1041.36 L 743.42,1043.04 L 750.83,1043.38 L 759.30,1041.04 L 767.78,1044.01 L 777.78,1042.28 L 792.34,1041.33 L 801.36,1043.19 L 809.77,1042.95 L 821.30,1040.18 L 828.89,1042.18 L 835.73,1043.22 L 843.05,1040.71 L 854.85,1042.35 L 861.81,1040.27 L 868.57,1038.20 L 876.95,1036.38 L 885.17,1034.82 L 892.96,1033.69 L 901.30,934.43 L 910.14,934.26 L 919.55,937.55 L 930.92,947.81" fill="none" stroke="#c94f2d" stroke-width="2"/>
<path d="M 102.81,1039.84 L 112.05,1039.84 L 121.00,1039.84 L 127.65,1039.84 L 136.87,1039.84 L 143.84,1039.84 L 154.68,1039.84 L 161.45,1039.84 L 170.45,1039.84 L 179.89,1039.84 L 187.33,1039.84 L 194.99,1039.84 L 203.22,1039.84 L 212.07,1039.84 L 219.67,1039.84 L 230.60,1039.84 L 238.37,1039.84 L 245.70,1039.84 L 253.58,1039.84 L 261.87,1039.84 L 272.16,1039.84 L 280.15,1039.84 L 287.16,1039.84 L 295.91,1039.84 L 306.47,1039.84 L 313.28,1039.84 L 331.49,1039.84 L 338.96,1039.84 L 353.34,1039.84 L 356.39,1039.84 L 365.20,1039.84 L 371.82,1039.84 L 382.17,1039.84 L 390.50,1039.84 L 400.10,1039.84 L 405.26,1039.84 L 415.54,1039.84 L 422.81,1039.84 L 430.49,1039.84 L 440.44,1039.84 L 448.14,1039.84 L 464.24,1039.84 L 473.57,1039.84 L 482.63,1039.84 L 489.44,1039.84 L 497.83,1039.84 L 506.05,1039.84 L 514.15,1039.84 L 525.40,1039.84 L 532.09,1039.84 L 539.67,1039.84 L 548.75,1039.84 L 556.53,1039.84 L 567.10,1039.84 L 573.18,1039.84 L 583.24,1039.84 L 590.89,1039.84 L 599.02,1039.84 L 607.13,1039.84 L 616.70,1039.84 L 623.60,1039.84 L 632.99,1039.84 L 641.42,1039.84 L 649.70,1039.84 L 657.99,1039.84 L 666.70,1039.84 L 674.42,1039.84 L 683.54,1039.84 L 691.41,1039.84 L 701.02,1039.84 L 708.34,1039.84 L 717.24,1039.84 L 725.16,1039.84 L 733.75,1039.84 L 743.42,1039.84 L 750.83,1039.84 L 759.30,1039.84 L 767.78,1039.84 L 777.78,1039.84 L 792.34,1039.84 L 801.36,1039.84 L 809.77,1039.84 L 821.30,1039.84 L 828.89,1039.84 L 835.73,1039.84 L 843.05,1039.84 L 854.85,1039.84 L 861.81,1039.84 L 868.57,1039.84 L 876.95,1039.84 L 885.17,1039.84 L 892.96,1039.84 L 901.30,1039.84 L 910.14,1039.84 L 919.55,1039.84 L 930.92,1039.84" fill="none" stroke="#8a94a3" stroke-width="2" stroke-dasharray="6 4"/>
<line class="axis" x1="70" y1="1142" x2="956" y2="1142"/>
<line class="axis" x1="70" y1="912" x2="70" y2="1142"/>
<text class="label" x="18" y="1027.00" transform="rotate(-90 18 1027.00)" text-anchor="middle">degrees</text>
<text class="label" x="513.0" y="1178" text-anchor="middle">time relative to event (s)</text>
</svg>